# onset,offset,note,velocity
0.034058956916099774	2.5650340136054424	64	127
2.3560544217687074	2.5650340136054424	60	127
2.3560544217687074	2.5650340136054424	57	127
2.855283446712018	3.43578231292517	69	127
3.157142857142857	3.43578231292517	60	127
3.157142857142857	3.43578231292517	57	127
3.667981859410431	4.097551020408163	71	127
3.888571428571429	4.097551020408163	52	127
3.888571428571429	4.097551020408163	56	127
3.888571428571429	4.097551020408163	59	127
4.097551020408163	4.35297052154195	59	127
4.097551020408163	4.23687074829932	72	127
4.097551020408163	4.35297052154195	52	127
4.097551020408163	4.35297052154195	56	127
4.167210884353741	4.294897959183674	71	127
4.248458049886621	4.35297052154195	69	127
4.35297052154195	4.573560090702948	71	127
4.35297052154195	4.573560090702948	52	127
4.35297052154195	4.573560090702948	56	127
4.35297052154195	4.573560090702948	59	127
4.5967573696145125	4.828979591836735	57	127
4.5967573696145125	4.828979591836735	72	127
4.5967573696145125	4.828979591836735	60	127
5.0495691609977325	5.513968253968254	74	127
5.3165986394557825	5.513968253968254	55	127
5.3165986394557825	5.513968253968254	59	127
5.3165986394557825	5.513968253968254	62	127
5.80421768707483	6.233786848072563	76	127
6.001587301587302	6.233786848072563	60	127
6.001587301587302	6.233786848072563	64	127
6.431156462585034	6.686575963718821	59	127
6.431156462585034	6.686575963718821	74	127
6.431156462585034	6.686575963718821	55	127
6.698185941043084	6.941995464852607	60	127
6.698185941043084	6.802675736961452	74	127
6.698185941043084	6.941995464852607	57	127
6.7562358276643995	6.941995464852607	72	127
6.941995464852607	7.150975056689342	71	127
6.941995464852607	7.150975056689342	52	127
6.941995464852607	7.150975056689342	56	127
7.150975056689342	7.359954648526077	45	127
7.150975056689342	7.359954648526077	69	127
7.150975056689342	7.359954648526077	57	127
7.37156462585034	7.626984126984127	71	127
7.37156462585034	7.626984126984127	52	127
7.37156462585034	7.626984126984127	56	127
7.626984126984127	7.835963718820862	69	127
7.626984126984127	7.835963718820862	45	127
7.626984126984127	7.835963718820862	57	127
8.172630385487528	8.381632653061224	57	127
8.172630385487528	8.381632653061224	60	127
8.172630385487528	8.381632653061224	64	127
8.172630385487528	8.381632653061224	45	127
8.172630385487528	8.381632653061224	48	127
8.172630385487528	8.381632653061224	52	127
8.787981859410431	9.020181405895691	57	127
8.787981859410431	9.020181405895691	60	127
8.787981859410431	9.020181405895691	64	127
8.787981859410431	9.020181405895691	69	127
8.787981859410431	9.020181405895691	45	127
8.787981859410431	9.020181405895691	48	127
8.787981859410431	9.020181405895691	52	127
9.449750566893425	9.670340136054422	71	127
9.449750566893425	9.670340136054422	59	127
9.449750566893425	9.670340136054422	64	127
9.449750566893425	9.670340136054422	68	127
9.449750566893425	9.670340136054422	40	127
9.449750566893425	9.670340136054422	52	127
9.670340136054422	9.867709750566894	64	127
9.670340136054422	9.867709750566894	68	127
9.670340136054422	9.867709750566894	71	127
9.670340136054422	9.867709750566894	59	127
9.670340136054422	9.867709750566894	40	127
9.670340136054422	9.867709750566894	52	127
9.867709750566894	10.15795918367347	71	127
9.867709750566894	10.15795918367347	59	127
9.867709750566894	10.15795918367347	64	127
9.867709750566894	10.15795918367347	68	127
9.867709750566894	10.15795918367347	40	127
9.867709750566894	10.15795918367347	52	127
10.15795918367347	10.45981859410431	60	127
10.15795918367347	10.45981859410431	64	127
10.15795918367347	10.45981859410431	69	127
10.15795918367347	10.45981859410431	72	127
10.15795918367347	10.45981859410431	45	127
10.15795918367347	10.45981859410431	48	127
10.15795918367347	10.45981859410431	52	127
10.15795918367347	10.45981859410431	57	127
11.109977324263038	11.330566893424036	55	127
11.109977324263038	11.330566893424036	62	127
11.109977324263038	11.330566893424036	67	127
11.109977324263038	11.330566893424036	71	127
11.109977324263038	11.330566893424036	74	127
11.109977324263038	11.330566893424036	43	127
11.109977324263038	11.330566893424036	47	127
11.109977324263038	11.330566893424036	50	127
11.713696145124716	11.945895691609977	64	127
11.713696145124716	11.945895691609977	67	127
11.713696145124716	11.945895691609977	72	127
11.713696145124716	11.945895691609977	76	127
11.713696145124716	11.945895691609977	48	127
11.713696145124716	11.945895691609977	52	127
11.713696145124716	11.945895691609977	55	127
11.713696145124716	11.945895691609977	60	127
12.154875283446712	12.352244897959183	55	127
12.352244897959183	12.538004535147392	57	127
12.538004535147392	12.75859410430839	62	127
12.538004535147392	12.75859410430839	68	127
12.538004535147392	12.75859410430839	52	127
12.75859410430839	13.014013605442177	60	127
12.75859410430839	13.014013605442177	69	127
12.75859410430839	13.014013605442177	45	127
13.014013605442177	13.211383219954648	62	127
13.014013605442177	13.211383219954648	68	127
13.014013605442177	13.211383219954648	52	127
13.211383219954648	13.408752834467121	60	127
13.211383219954648	13.408752834467121	69	127
13.211383219954648	13.408752834467121	45	127
13.408752834467121	13.919591836734694	77	127
13.687392290249432	13.919591836734694	50	127
13.687392290249432	13.919591836734694	53	127
13.687392290249432	13.919591836734694	57	127
13.687392290249432	13.919591836734694	62	127
14.151791383219955	14.67424036281179	67	127
14.47687074829932	14.67424036281179	59	127
14.47687074829932	14.67424036281179	55	127
14.47687074829932	14.67424036281179	62	127
15.092199546485261	15.277959183673469	60	127
15.277959183673469	15.475328798185942	65	127
15.277959183673469	15.475328798185942	71	127
15.277959183673469	15.475328798185942	55	127
15.475328798185942	15.707528344671202	64	127
15.475328798185942	15.707528344671202	72	127
15.475328798185942	15.707528344671202	48	127
15.707528344671202	15.916507936507937	71	127
15.707528344671202	15.916507936507937	65	127
15.707528344671202	15.916507936507937	55	127
15.916507936507937	16.11387755102041	64	127
15.916507936507937	16.11387755102041	72	127
15.916507936507937	16.11387755102041	48	127
16.11387755102041	16.58986394557823	74	127
16.404126984126986	16.58986394557823	50	127
16.404126984126986	16.58986394557823	53	127
16.404126984126986	16.58986394557823	59	127
16.822086167800453	17.29809523809524	64	127
17.054285714285715	17.29809523809524	52	127
17.054285714285715	17.29809523809524	56	127
17.054285714285715	17.29809523809524	59	127
17.739274376417235	17.95986394557823	57	127
17.971473922902494	18.168843537414965	62	127
17.971473922902494	18.168843537414965	68	127
17.971473922902494	18.168843537414965	52	127
18.168843537414965	18.389433106575964	60	127
18.168843537414965	18.389433106575964	69	127
18.168843537414965	18.389433106575964	45	127
18.389433106575964	18.575192743764173	62	127
18.389433106575964	18.575192743764173	68	127
18.389433106575964	18.575192743764173	52	127
18.586802721088436	18.842222222222222	60	127
18.586802721088436	18.842222222222222	69	127
18.586802721088436	18.842222222222222	45	127
18.842222222222222	19.271791383219956	77	127
19.09764172335601	19.271791383219956	53	127
19.09764172335601	19.271791383219956	57	127
19.09764172335601	19.271791383219956	62	127
19.09764172335601	19.271791383219956	50	127
19.48077097505669	19.921950113378685	67	127
19.666530612244898	19.921950113378685	55	127
19.666530612244898	19.921950113378685	59	127
19.666530612244898	19.921950113378685	62	127
20.235419501133787	20.688208616780045	76	127
20.46761904761905	20.688208616780045	64	127
20.46761904761905	20.688208616780045	60	127
20.908798185941045	21.349954648526076	79	127
21.140997732426303	21.349954648526076	58	127
21.140997732426303	21.349954648526076	61	127
21.140997732426303	21.349954648526076	64	127
21.140997732426303	21.349954648526076	67	127
21.675056689342405	22.1162358276644	83	127
21.872426303854876	22.1162358276644	59	127
21.872426303854876	22.1162358276644	64	127
21.872426303854876	22.1162358276644	67	127
22.336825396825397	22.824444444444445	83	127
22.627074829931974	22.824444444444445	47	127
22.627074829931974	22.824444444444445	51	127
22.627074829931974	22.824444444444445	54	127
22.627074829931974	22.824444444444445	59	127
23.091473922902495	23.31204081632653	75	127
23.091473922902495	23.31204081632653	63	127
23.323673469387757	23.567460317460316	76	127
23.323673469387757	23.567460317460316	64	127
23.567460317460316	23.776462585034015	78	127
23.567460317460316	23.776462585034015	66	127
23.776462585034015	24.0318820861678	67	127
23.776462585034015	24.0318820861678	79	127
24.043492063492064	24.229251700680273	78	127
24.043492063492064	24.229251700680273	66	127
24.229251700680273	24.426621315192744	64	127
24.229251700680273	24.426621315192744	76	127
24.426621315192744	24.64721088435374	78	127
24.426621315192744	24.64721088435374	66	127
24.670430839002268	24.879410430839002	79	127
24.670430839002268	24.879410430839002	67	127
24.670430839002268	25.343809523809522	47	127
24.879410430839002	25.14643990929705	78	127
24.879410430839002	25.14643990929705	66	127
25.14643990929705	25.343809523809522	67	127
25.14643990929705	25.343809523809522	79	127
25.355419501133788	25.506349206349206	69	127
25.355419501133788	25.970748299319727	39	127
25.355419501133788	25.506349206349206	81	127
25.506349206349206	25.726938775510202	67	127
25.506349206349206	25.726938775510202	79	127
25.726938775510202	25.970748299319727	78	127
25.726938775510202	25.970748299319727	66	127
25.982358276643993	26.23777777777778	76	127
25.982358276643993	26.23777777777778	64	127
25.982358276643993	26.23777777777778	40	127
26.23777777777778	26.423537414965985	78	127
26.23777777777778	26.423537414965985	66	127
26.423537414965985	26.609297052154194	79	127
26.423537414965985	26.609297052154194	67	127
26.62090702947846	26.80666666666667	78	127
26.62090702947846	26.80666666666667	66	127
26.80666666666667	27.05047619047619	76	127
26.80666666666667	27.05047619047619	64	127
27.05047619047619	27.340725623582767	78	127
27.05047619047619	27.340725623582767	66	127
27.35233560090703	27.538095238095238	79	127
27.35233560090703	27.538095238095238	67	127
27.538095238095238	27.758684807256238	66	127
27.538095238095238	27.758684807256238	78	127
27.758684807256238	27.93283446712018	67	127
27.758684807256238	27.93283446712018	79	127
27.944444444444443	28.15342403628118	68	127
27.944444444444443	28.15342403628118	80	127
28.15342403628118	28.38562358276644	66	127
28.15342403628118	28.38562358276644	78	127
28.38562358276644	28.606213151927438	80	127
28.38562358276644	28.606213151927438	68	127
28.6178231292517	29.26798185941043	52	127
28.6178231292517	28.80358276643991	81	127
28.6178231292517	28.80358276643991	69	127
28.80358276643991	29.059002267573696	71	127
28.80358276643991	29.059002267573696	83	127
29.059002267573696	29.26798185941043	72	127
29.059002267573696	29.26798185941043	84	127
29.279591836734692	29.523401360544216	83	127
29.279591836734692	30.03424036281179	44	127
29.279591836734692	29.523401360544216	71	127
29.523401360544216	29.79043083900227	81	127
29.523401360544216	29.79043083900227	69	127
29.79043083900227	30.03424036281179	83	127
29.79043083900227	30.03424036281179	71	127
30.045850340136056	30.243219954648527	72	127
30.045850340136056	30.243219954648527	45	127
30.045850340136056	30.243219954648527	84	127
30.243219954648527	30.440589569161	83	127
30.243219954648527	30.440589569161	71	127
30.440589569161	30.63795918367347	84	127
30.440589569161	30.63795918367347	72	127
30.649569160997732	30.846938775510203	86	127
30.649569160997732	30.846938775510203	74	127
30.846938775510203	31.055918367346937	72	127
30.846938775510203	31.055918367346937	84	127
31.055918367346937	31.241678004535146	83	127
31.055918367346937	31.241678004535146	71	127
31.311337868480727	31.926666666666666	40	127
31.311337868480727	31.555147392290248	81	127
31.311337868480727	31.926666666666666	52	127
31.311337868480727	31.555147392290248	69	127
31.555147392290248	31.717687074829932	83	127
31.555147392290248	31.717687074829932	71	127
31.717687074829932	31.926666666666666	84	127
31.717687074829932	31.926666666666666	72	127
31.926666666666666	32.68131519274377	32	127
31.926666666666666	32.14725623582766	83	127
31.926666666666666	32.14725623582766	71	127
31.926666666666666	32.68131519274377	44	127
32.14725623582766	32.43750566893424	81	127
32.14725623582766	32.43750566893424	69	127
32.43750566893424	32.68131519274377	71	127
32.43750566893424	32.68131519274377	83	127
32.68131519274377	32.86707482993197	84	127
32.68131519274377	33.296621315192745	45	127
32.68131519274377	33.296621315192745	33	127
32.68131519274377	32.86707482993197	72	127
32.86707482993197	33.06444444444445	71	127
32.86707482993197	33.06444444444445	83	127
33.06444444444445	33.296621315192745	72	127
33.06444444444445	33.296621315192745	84	127
33.296621315192745	33.49401360544218	73	127
33.296621315192745	33.9584126984127	43	127
33.296621315192745	33.9584126984127	31	127
33.296621315192745	33.49401360544218	85	127
33.49401360544218	33.72621315192744	72	127
33.49401360544218	33.72621315192744	84	127
33.72621315192744	33.9584126984127	73	127
33.72621315192744	33.9584126984127	85	127
33.9584126984127	34.144172335600906	74	127
33.9584126984127	34.144172335600906	86	127
33.9584126984127	34.631791383219955	42	127
33.9584126984127	34.631791383219955	30	127
34.144172335600906	34.353151927437644	73	127
34.144172335600906	34.353151927437644	85	127
34.353151927437644	34.631791383219955	86	127
34.353151927437644	34.631791383219955	74	127
34.631791383219955	35.235510204081635	48	127
34.631791383219955	34.829138321995465	90	127
34.631791383219955	34.829138321995465	78	127
34.631791383219955	35.235510204081635	36	127
34.829138321995465	35.014920634920635	89	127
34.829138321995465	35.014920634920635	77	127
35.014920634920635	35.235510204081635	90	127
35.014920634920635	35.235510204081635	78	127
35.235510204081635	35.560589569160996	79	127
35.235510204081635	35.560589569160996	91	127
35.235510204081635	35.97854875283447	47	127
35.235510204081635	35.97854875283447	35	127
35.560589569160996	35.781179138321995	90	127
35.560589569160996	35.781179138321995	78	127
35.781179138321995	35.97854875283447	91	127
35.781179138321995	35.97854875283447	79	127
35.97854875283447	36.73319727891157	40	127
35.97854875283447	36.19913832199546	83	127
35.97854875283447	36.19913832199546	71	127
35.97854875283447	36.73319727891157	52	127
36.19913832199546	36.489387755102044	81	127
36.19913832199546	36.489387755102044	69	127
36.489387755102044	36.73319727891157	71	127
36.489387755102044	36.73319727891157	83	127
36.73319727891157	36.930566893424036	84	127
36.73319727891157	36.930566893424036	72	127
36.73319727891157	36.930566893424036	52	127
36.73319727891157	36.930566893424036	40	127
36.930566893424036	37.12793650793651	79	127
36.930566893424036	37.12793650793651	43	127
37.12793650793651	37.32530612244898	76	127
37.12793650793651	37.32530612244898	48	127
37.32530612244898	37.5691156462585	81	127
37.32530612244898	37.5691156462585	41	127
37.5691156462585	37.77809523809524	77	127
37.5691156462585	37.77809523809524	45	127
37.77809523809524	37.98705215419501	74	127
37.77809523809524	37.98705215419501	50	127
37.98705215419501	38.2424716553288	79	127
37.98705215419501	38.2424716553288	43	127
38.2424716553288	38.43986394557823	76	127
38.2424716553288	38.43986394557823	48	127
38.43986394557823	38.683673469387756	72	127
38.43986394557823	38.683673469387756	52	127
39.31061224489796	39.51956916099773	79	127
39.31061224489796	39.51956916099773	43	127
39.51956916099773	39.716961451247165	74	127
39.51956916099773	39.716961451247165	50	127
39.716961451247165	40.13492063492063	43	127
39.716961451247165	40.13492063492063	50	127
39.716961451247165	40.13492063492063	71	127
39.716961451247165	40.13492063492063	53	127
40.66897959183674	41.06371882086168	67	127
40.85473922902494	41.06371882086168	60	127
40.85473922902494	41.06371882086168	64	127
41.307528344671205	41.79512471655329	72	127
41.5397052154195	41.79512471655329	60	127
41.5397052154195	41.79512471655329	64	127
42.015736961451246	42.42208616780045	74	127
42.22471655328798	42.42208616780045	65	127
42.22471655328798	42.42208616780045	55	127
42.22471655328798	42.42208616780045	59	127
42.22471655328798	42.42208616780045	62	127
42.42208616780045	42.68909297052154	55	127
42.42208616780045	42.68909297052154	62	127
42.42208616780045	42.68909297052154	65	127
42.42208616780045	42.549795918367344	76	127
42.42208616780045	42.68909297052154	59	127
42.46852607709751	42.64267573696145	74	127
42.56138321995465	42.68909297052154	72	127
42.68909297052154	42.92131519274376	74	127
42.68909297052154	42.92131519274376	55	127
42.68909297052154	42.92131519274376	59	127
42.68909297052154	42.92131519274376	62	127
42.68909297052154	42.92131519274376	65	127
42.93290249433107	43.17673469387755	76	127
42.93290249433107	43.17673469387755	64	127
42.93290249433107	43.17673469387755	60	127
43.39732426303855	43.62952380952381	53	127
43.39732426303855	43.62952380952381	59	127
43.39732426303855	43.62952380952381	43	127
43.64113378684807	43.82687074829932	59	127
43.64113378684807	43.82687074829932	43	127
43.64113378684807	43.82687074829932	53	127
43.82687074829932	44.0707029478458	43	127
43.82687074829932	43.93138321995465	60	127
43.82687074829932	44.0707029478458	53	127
43.8849433106576	44.01265306122449	59	127
43.94299319727891	44.0707029478458	57	127
44.0707029478458	44.34934240362812	59	127
44.0707029478458	44.34934240362812	43	127
44.0707029478458	44.34934240362812	53	127
44.34934240362812	44.53510204081633	60	127
44.34934240362812	44.53510204081633	48	127
44.34934240362812	44.53510204081633	52	127
44.76730158730159	45.022721088435375	71	127
45.03433106575964	45.220068027210885	71	127
45.03433106575964	45.220068027210885	52	127
45.03433106575964	45.220068027210885	56	127
45.03433106575964	45.220068027210885	59	127
45.03433106575964	45.220068027210885	62	127
45.220068027210885	45.44068027210884	62	127
45.220068027210885	45.34777777777778	72	127
45.220068027210885	45.44068027210884	56	127
45.220068027210885	45.44068027210884	59	127
45.220068027210885	45.44068027210884	52	127
45.30136054421769	45.405850340136055	71	127
45.359410430839006	45.44068027210884	69	127
45.44068027210884	45.603197278911566	71	127
45.44068027210884	45.603197278911566	52	127
45.44068027210884	45.603197278911566	56	127
45.44068027210884	45.603197278911566	59	127
45.44068027210884	45.603197278911566	62	127
45.61482993197279	45.82380952380952	57	127
45.61482993197279	45.82380952380952	52	127
45.61482993197279	45.82380952380952	60	127
45.61482993197279	45.82380952380952	72	127
46.19532879818594	46.41591836734694	56	127
46.19532879818594	46.41591836734694	40	127
46.19532879818594	46.41591836734694	52	127
46.4275283446712	46.659727891156464	56	127
46.4275283446712	46.659727891156464	40	127
46.4275283446712	46.659727891156464	52	127
46.659727891156464	46.984807256235825	56	127
46.659727891156464	46.984807256235825	40	127
46.659727891156464	46.984807256235825	52	127
46.984807256235825	47.205396825396825	56	127
46.984807256235825	47.205396825396825	40	127
46.984807256235825	47.205396825396825	52	127
47.205396825396825	47.41437641723356	57	127
47.205396825396825	47.41437641723356	45	127
47.205396825396825	47.41437641723356	52	127
47.634965986394555	47.83233560090703	71	127
47.83233560090703	48.018095238095235	59	127
47.83233560090703	48.018095238095235	71	127
47.83233560090703	48.018095238095235	52	127
47.83233560090703	48.018095238095235	56	127
48.018095238095235	48.1225850340136	72	127
48.076145124716554	48.18063492063492	71	127
48.1225850340136	48.238684807256234	69	127
48.238684807256234	48.505714285714284	71	127
48.505714285714284	48.76113378684807	72	127
48.505714285714284	48.76113378684807	52	127
48.505714285714284	48.76113378684807	57	127
48.505714285714284	48.76113378684807	60	127
48.76113378684807	48.94689342403628	74	127
48.900453514739226	48.99333333333333	72	127
48.94689342403628	49.03977324263039	71	127
49.03977324263039	49.26036281179138	72	127
49.26036281179138	49.457732426303856	75	127
49.26036281179138	49.457732426303856	52	127
49.26036281179138	49.457732426303856	54	127
49.26036281179138	49.457732426303856	57	127
49.457732426303856	49.58544217687075	76	127
49.53900226757369	49.6318820861678	75	127
49.58544217687075	49.68993197278912	73	127
49.68993197278912	49.92213151927437	75	127
49.92213151927437	50.14272108843537	76	127
49.92213151927437	50.14272108843537	52	127
49.92213151927437	50.14272108843537	56	127
49.92213151927437	50.14272108843537	59	127
50.14272108843537	50.258820861678004	77	127
50.20077097505669	50.328480725623585	76	127
50.258820861678004	50.39814058956916	75	127
50.39814058956916	50.63034013605442	76	127
50.63034013605442	50.85092970521542	52	127
50.63034013605442	50.85092970521542	56	127
50.63034013605442	50.85092970521542	59	127
50.63034013605442	50.85092970521542	71	127
50.85092970521542	51.0134693877551	72	127
50.90897959183673	51.08312925170068	71	127
51.0134693877551	51.12956916099773	69	127
51.12956916099773	51.32693877551021	71	127
51.32693877551021	51.5475283446712	72	127
51.32693877551021	51.5475283446712	52	127
51.32693877551021	51.5475283446712	57	127
51.32693877551021	51.5475283446712	60	127
51.5475283446712	51.67523809523809	74	127
51.60557823129252	51.72167800453515	72	127
51.67523809523809	51.7681179138322	71	127
51.7681179138322	52.04675736961451	72	127
52.04675736961451	52.23251700680272	75	127
52.04675736961451	52.23251700680272	52	127
52.04675736961451	52.23251700680272	54	127
52.04675736961451	52.23251700680272	57	127
52.23251700680272	52.348616780045354	76	127
52.290566893424035	52.42988662131519	75	127
52.348616780045354	52.47632653061225	74	127
52.47632653061225	52.76657596371882	75	127
52.76657596371882	52.96394557823129	76	127
52.76657596371882	52.96394557823129	52	127
52.76657596371882	52.96394557823129	56	127
52.76657596371882	52.96394557823129	59	127
52.96394557823129	53.13809523809524	77	127
53.09165532879818	53.18453514739229	76	127
53.13809523809524	53.230975056689346	75	127
53.230975056689346	53.498004535147395	76	127
53.498004535147395	53.69537414965986	76	127
53.498004535147395	53.69537414965986	45	127
53.498004535147395	53.69537414965986	48	127
53.498004535147395	53.69537414965986	52	127
53.498004535147395	53.69537414965986	57	127
53.69537414965986	53.823083900226756	77	127
53.776643990929706	53.86952380952381	76	127
53.823083900226756	53.91596371882086	75	127
53.91596371882086	54.206213151927436	76	127
54.206213151927436	54.40358276643991	76	127
54.206213151927436	54.40358276643991	40	127
54.206213151927436	54.40358276643991	44	127
54.206213151927436	54.40358276643991	47	127
54.206213151927436	54.40358276643991	52	127
54.40358276643991	54.50807256235828	77	127
54.46163265306122	54.54290249433107	76	127
54.50807256235828	54.589342403628116	75	127
54.589342403628116	54.83315192743764	76	127
54.83315192743764	55.076961451247165	76	127
54.83315192743764	55.076961451247165	33	127
54.83315192743764	55.076961451247165	36	127
54.83315192743764	55.076961451247165	40	127
54.83315192743764	55.076961451247165	45	127
55.076961451247165	55.27433106575964	77	127
55.16984126984127	55.33238095238095	76	127
55.27433106575964	55.378820861678	75	127
55.378820861678	55.599410430839	76	127
55.599410430839	55.91287981859411	76	127
55.599410430839	55.91287981859411	40	127
55.599410430839	55.91287981859411	44	127
55.599410430839	55.91287981859411	47	127
55.599410430839	55.91287981859411	52	127
56.1334693877551	56.59786848072562	76	127
56.830068027210885	57.29446712018141	76	127
57.526666666666664	57.99106575963719	76	127
58.22326530612245	58.50190476190476	45	127
58.22326530612245	58.687664399092974	76	127
58.38580498866213	58.50190476190476	52	127
58.50190476190476	58.687664399092974	45	127
58.59478458049887	58.81537414965987	52	127
58.699274376417236	58.908253968253966	48	127
58.81537414965987	59.012743764172335	52	127
58.908253968253966	59.10562358276644	45	127
58.908253968253966	59.36104308390023	81	127
59.012743764172335	59.10562358276644	52	127
59.10562358276644	59.36104308390023	45	127
59.26816326530612	59.465532879818596	52	127
59.37265306122449	59.558412698412695	48	127
59.465532879818596	59.662902494331064	52	127
59.558412698412695	59.98798185941043	83	127
59.558412698412695	59.779002267573695	40	127
59.674512471655326	59.779002267573695	52	127
59.779002267573695	59.98798185941043	40	127
59.88349206349206	60.0924716553288	52	127
59.941541950113375	60.046031746031744	84	127
59.999591836734695	60.0924716553288	83	127
59.999591836734695	60.19696145124716	47	127
60.0924716553288	60.19696145124716	81	127
60.0924716553288	60.28984126984127	52	127
60.19696145124716	60.44077097505669	83	127
60.19696145124716	60.44077097505669	40	127
60.30145124716553	60.44077097505669	52	127
60.44077097505669	60.649750566893424	45	127
60.44077097505669	60.649750566893424	84	127
60.55687074829932	60.82390022675737	52	127
60.68458049886621	60.91678004535147	48	127
60.82390022675737	61.02126984126984	52	127
60.91678004535147	61.33473922902494	86	127
60.91678004535147	61.12575963718821	43	127
61.032879818594104	61.12575963718821	47	127
61.12575963718821	61.33473922902494	43	127
61.23024943310658	61.43922902494331	47	127
61.34634920634921	61.578548752834465	50	127
61.43922902494331	61.67142857142857	53	127
61.578548752834465	62.0081179138322	88	127
61.578548752834465	61.7875283446712	48	127
61.68303854875283	61.7875283446712	52	127
61.7875283446712	62.0081179138322	48	127
61.915238095238095	62.1009977324263	52	127
62.019727891156464	62.20548752834467	55	127
62.1009977324263	62.298367346938775	60	127
62.20548752834467	62.414467120181406	43	127
62.20548752834467	62.55378684807256	86	127
62.30997732426304	62.414467120181406	47	127
62.414467120181406	62.60022675736961	43	127
62.50734693877551	62.70471655328798	47	127
62.55378684807256	62.65827664399093	88	127
62.611836734693874	62.70471655328798	86	127
62.611836734693874	62.80920634920635	50	127
62.70471655328798	62.80920634920635	84	127
62.70471655328798	62.92530612244898	53	127
62.80920634920635	63.05301587301587	86	127
62.80920634920635	63.05301587301587	43	127
62.93691609977324	63.05301587301587	55	127
63.05301587301587	63.2968253968254	88	127
63.05301587301587	63.2968253968254	48	127
63.169115646258504	63.43614512471655	52	127
63.30843537414966	63.552244897959184	48	127
63.43614512471655	63.64512471655329	52	127
63.552244897959184	63.76122448979592	40	127
63.552244897959184	63.95859410430839	83	127
63.65673469387755	63.76122448979592	44	127
63.76122448979592	63.95859410430839	40	127
63.86571428571428	64.07469387755103	44	127
63.97020408163265	64.19079365079365	47	127
64.07469387755103	64.31850340136054	50	127
64.19079365079365	64.63197278911565	84	127
64.19079365079365	64.43458049886621	45	127
64.31850340136054	64.43458049886621	48	127
64.43458049886621	64.63197278911565	45	127
64.52748299319728	64.74807256235827	48	127
64.63197278911565	64.86417233560091	52	127
64.74807256235827	64.98027210884354	57	127
64.86417233560091	65.1195918367347	40	127
64.86417233560091	65.34018140589569	83	127
64.98027210884354	65.1195918367347	44	127
65.1195918367347	65.34018140589569	40	127
65.23569160997732	65.43306122448979	44	127
65.34018140589569	65.5259410430839	47	127
65.34018140589569	65.43306122448979	84	127
65.38662131519274	65.47950113378685	83	127
65.43306122448979	65.5259410430839	81	127
65.43306122448979	65.64204081632653	50	127
65.5259410430839	65.78136054421769	83	127
65.5259410430839	65.78136054421769	40	127
65.64204081632653	65.78136054421769	50	127
65.78136054421769	66.02517006802721	81	127
65.78136054421769	66.02517006802721	45	127
65.87424036281179	66.11804988662132	48	127
66.02517006802721	66.22251700680272	52	127
66.11804988662132	66.36185941043084	57	127
66.22251700680272	66.46634920634921	50	127
66.22251700680272	66.46634920634921	71	127
66.22251700680272	66.46634920634921	83	127
66.36185941043084	66.46634920634921	53	127
66.46634920634921	66.6869387755102	84	127
66.46634920634921	66.6869387755102	52	127
66.46634920634921	66.6869387755102	72	127
66.58242630385487	66.77981859410431	57	127
66.6869387755102	66.88430839002268	56	127
66.77981859410431	66.98879818594105	57	127
66.88430839002268	67.08167800453515	71	127
66.88430839002268	67.08167800453515	83	127
66.88430839002268	67.08167800453515	40	127
66.98879818594105	67.08167800453515	52	127
67.08167800453515	67.26743764172336	45	127
67.08167800453515	67.26743764172336	69	127
67.08167800453515	67.26743764172336	81	127
67.162947845805	67.52285714285715	48	127
67.26743764172336	67.62734693877552	52	127
67.52285714285715	67.73181405895691	57	127
67.62734693877552	67.84793650793651	50	127
67.62734693877552	67.84793650793651	71	127
67.62734693877552	67.84793650793651	83	127
67.73181405895691	67.84793650793651	53	127
67.84793650793651	68.09174603174603	72	127
67.84793650793651	68.09174603174603	84	127
67.84793650793651	68.09174603174603	52	127
67.96403628117913	68.1962358276644	57	127
68.09174603174603	68.30072562358276	56	127
68.1962358276644	68.44004535147393	57	127
68.30072562358276	68.53292517006803	40	127
68.30072562358276	68.53292517006803	71	127
68.30072562358276	68.53292517006803	83	127
68.44004535147393	68.53292517006803	52	127
68.53292517006803	68.77673469387756	69	127
68.53292517006803	68.77673469387756	81	127
68.53292517006803	68.77673469387756	45	127
68.64902494331066	68.85800453514739	52	127
68.77673469387756	68.96249433106576	48	127
68.85800453514739	69.06698412698412	52	127
68.96249433106576	69.15986394557824	71	127
68.96249433106576	69.15986394557824	83	127
68.96249433106576	69.15986394557824	40	127
69.06698412698412	69.15986394557824	52	127
69.15986394557824	69.368820861678	69	127
69.15986394557824	69.368820861678	81	127
69.15986394557824	69.368820861678	45	127
69.25274376417234	69.47333333333333	52	127
69.368820861678	69.58943310657597	48	127
69.47333333333333	69.75195011337868	52	127
69.58943310657597	69.86807256235828	71	127
69.58943310657597	69.86807256235828	83	127
69.58943310657597	69.86807256235828	40	127
69.75195011337868	69.86807256235828	52	127
69.86807256235828	70.1118820861678	69	127
69.86807256235828	70.1118820861678	81	127
69.86807256235828	70.1118820861678	45	127
69.99578231292517	70.20476190476191	52	127
70.1118820861678	70.29764172335601	48	127
70.20476190476191	70.41371882086167	52	127
70.29764172335601	70.50662131519275	40	127
70.29764172335601	70.50662131519275	71	127
70.29764172335601	70.50662131519275	83	127
70.41371882086167	70.50662131519275	52	127
70.50662131519275	70.70399092970521	69	127
70.50662131519275	70.70399092970521	81	127
70.50662131519275	70.70399092970521	45	127
70.61111111111111	70.79687074829933	52	127
70.70399092970521	70.97102040816327	48	127
70.79687074829933	71.0871201814059	52	127
70.97102040816327	71.19160997732426	40	127
70.97102040816327	71.19160997732426	71	127
70.97102040816327	71.19160997732426	83	127
71.0871201814059	71.19160997732426	52	127
71.19160997732426	71.45863945578232	69	127
71.19160997732426	71.45863945578232	81	127
71.19160997732426	71.45863945578232	45	127
71.45863945578232	71.7140589569161	40	127
71.58634920634921	71.841768707483	45	127
71.7140589569161	71.95786848072562	33	127
71.7140589569161	71.95786848072562	83	127
71.841768707483	72.06235827664399	45	127
71.95786848072562	72.16684807256236	40	127
71.95786848072562	72.16684807256236	81	127
72.06235827664399	72.27133786848073	45	127
72.16684807256236	72.3758276643991	33	127
72.27133786848073	72.51514739229025	45	127
72.3758276643991	72.60802721088436	40	127
72.3758276643991	72.60802721088436	71	127
72.51514739229025	72.70090702947846	45	127
72.60802721088436	73.0027664399093	69	127
72.60802721088436	73.0027664399093	33	127
72.70090702947846	73.09564625850341	45	127
73.0027664399093	73.2001133786848	40	127
73.09564625850341	73.3278231292517	45	127
73.21174603174603	73.4439455782313	59	127
73.21174603174603	73.4439455782313	33	127
73.3278231292517	73.54843537414966	45	127
73.4439455782313	73.66453514739229	40	127
73.4439455782313	73.66453514739229	57	127
73.56002267573696	73.7574149659864	45	127
73.66453514739229	73.8502947845805	33	127
73.7574149659864	73.95478458049887	45	127
73.86190476190477	74.05927437641724	47	127
73.86190476190477	74.05927437641724	40	127
73.95478458049887	74.15215419501133	45	127
74.05927437641724	74.24503401360545	45	127
74.05927437641724	74.24503401360545	33	127
74.51206349206349	74.88358276643991	35	127
74.88358276643991	75.10417233560091	33	127
75.31315192743764	75.55696145124716	35	127
75.55696145124716	75.7659410430839	33	127
75.97492063492064	76.2187074829932	35	127
76.2187074829932	76.47412698412698	33	127
76.71795918367347	76.92693877551021	35	127
76.92693877551021	77.15913832199547	33	127
77.4609977324263	77.75122448979592	35	127
77.75122448979592	77.97183673469388	33	127
78.19242630385487	78.42462585034014	35	127
78.47106575963718	78.66843537414967	33	127
78.86580498866213	79.0980045351474	35	127
79.0980045351474	79.388231292517	33	127
79.6320634920635	79.93392290249433	35	127
79.93392290249433	80.16612244897959	33	127
80.39832199546485	80.60730158730159	35	127
80.61891156462585	80.81628117913833	33	127
80.61891156462585	81.37356009070295	52	127
80.61891156462585	81.37356009070295	49	127
81.07170068027212	81.37356009070295	35	127
81.37356009070295	81.57092970521542	33	127
81.37356009070295	82.03532879818594	50	127
81.37356009070295	82.03532879818594	47	127
81.79151927437641	82.03532879818594	35	127
82.03532879818594	82.34879818594105	33	127
82.03532879818594	82.56938775510204	54	127
82.03532879818594	82.56938775510204	50	127
82.56938775510204	82.87124716553288	49	127
82.56938775510204	82.87124716553288	52	127
82.56938775510204	82.87124716553288	35	127
82.88285714285715	82.99895691609977	33	127
82.88285714285715	83.11505668934241	45	127
82.88285714285715	83.11505668934241	49	127
82.99895691609977	83.11505668934241	35	127
83.11505668934241	83.2195238095238	33	127
83.23115646258503	83.3472335600907	35	127
83.3472335600907	83.4633560090703	33	127
83.4633560090703	83.56784580498866	35	127
83.56784580498866	83.68394557823129	33	127
83.56784580498866	83.84648526077098	64	127
83.56784580498866	83.84648526077098	73	127
83.68394557823129	83.84648526077098	35	127
83.88131519274377	84.00902494331066	33	127
83.88131519274377	84.14834467120181	64	127
83.88131519274377	84.14834467120181	73	127
84.00902494331066	84.14834467120181	35	127
84.14834467120181	84.21798185941043	33	127
84.14834467120181	84.32249433106576	62	127
84.14834467120181	84.32249433106576	71	127
84.21798185941043	84.32249433106576	35	127
84.32249433106576	84.41537414965987	33	127
84.32249433106576	84.51986394557824	62	127
84.32249433106576	84.51986394557824	71	127
84.42698412698412	84.51986394557824	35	127
84.51986394557824	84.63596371882086	33	127
84.51986394557824	84.76367346938775	62	127
84.51986394557824	84.76367346938775	71	127
84.63596371882086	84.76367346938775	35	127
84.76367346938775	84.91460317460317	33	127
84.76367346938775	85.01909297052154	64	127
84.76367346938775	85.01909297052154	73	127
84.91460317460317	85.01909297052154	35	127
85.01909297052154	85.1584126984127	33	127
85.01909297052154	85.26290249433107	66	127
85.01909297052154	85.26290249433107	74	127
85.1584126984127	85.26290249433107	35	127
85.26290249433107	85.36736961451247	33	127
85.26290249433107	85.4718820861678	66	127
85.26290249433107	85.4718820861678	74	127
85.3790022675737	85.4718820861678	35	127
85.4718820861678	85.76213151927438	64	127
85.4718820861678	85.58798185941043	33	127
85.4718820861678	85.76213151927438	73	127
85.58798185941043	85.76213151927438	35	127
85.76213151927438	85.87820861678004	33	127
85.76213151927438	85.98272108843537	64	127
85.76213151927438	85.98272108843537	73	127
85.87820861678004	85.98272108843537	35	127
85.99433106575964	86.11043083900226	33	127
85.99433106575964	86.21492063492063	73	127
85.99433106575964	86.21492063492063	61	127
86.11043083900226	86.21492063492063	35	127
86.21492063492063	86.30780045351474	33	127
86.21492063492063	86.41229024943311	74	127
86.21492063492063	86.41229024943311	62	127
86.30780045351474	86.41229024943311	35	127
86.41229024943311	86.51675736961451	33	127
86.41229024943311	86.6328798185941	76	127
86.41229024943311	86.6328798185941	64	127
86.52839002267574	86.6328798185941	35	127
86.6328798185941	86.7257596371882	33	127
86.6328798185941	86.83024943310657	76	127
86.6328798185941	86.83024943310657	64	127
86.7257596371882	86.83024943310657	35	127
86.86507936507937	86.99278911564626	33	127
86.86507936507937	87.09727891156463	74	127
86.86507936507937	87.09727891156463	62	127
86.99278911564626	87.09727891156463	35	127
87.09727891156463	87.19015873015873	33	127
87.09727891156463	87.2946485260771	74	127
87.09727891156463	87.2946485260771	62	127
87.19015873015873	87.2946485260771	35	127
87.2946485260771	87.38750566893424	33	127
87.2946485260771	87.49201814058956	74	127
87.2946485260771	87.49201814058956	62	127
87.39913832199547	87.49201814058956	35	127
87.49201814058956	87.59650793650793	33	127
87.49201814058956	87.7009977324263	76	127
87.49201814058956	87.7009977324263	64	127
87.59650793650793	87.7009977324263	35	127
87.7009977324263	87.8287074829932	33	127
87.7009977324263	87.93319727891156	78	127
87.7009977324263	87.93319727891156	66	127
87.8287074829932	87.93319727891156	35	127
87.94480725623583	88.03768707482993	33	127
87.94480725623583	88.21183673469388	78	127
87.94480725623583	88.21183673469388	66	127
88.03768707482993	88.21183673469388	35	127
88.21183673469388	88.30471655328799	33	127
88.21183673469388	88.40918367346939	76	127
88.21183673469388	88.40918367346939	64	127
88.30471655328799	88.40918367346939	35	127
88.40918367346939	88.65301587301587	73	127
88.40918367346939	88.65301587301587	61	127
88.40918367346939	88.65301587301587	33	127
88.94326530612246	89.16385487528345	35	127
89.16385487528345	89.39605442176871	33	127
89.63986394557823	89.86045351473923	35	127
89.86045351473923	90.08104308390023	33	127
90.26680272108844	90.47578231292518	35	127
90.47578231292518	90.73120181405896	33	127
90.94015873015873	91.1259410430839	35	127
91.1259410430839	91.35814058956916	33	127
91.5671201814059	91.79931972789116	35	127
91.79931972789116	92.27532879818594	33	127
91.79931972789116	92.72809523809524	52	127
91.79931972789116	92.72809523809524	49	127
92.49591836734695	92.72809523809524	35	127
92.72809523809524	93.00675736961452	33	127
92.72809523809524	93.45954648526077	50	127
92.72809523809524	93.45954648526077	47	127
93.23893424036281	93.45954648526077	35	127
93.45954648526077	93.73818594104308	33	127
93.45954648526077	93.93555555555555	54	127
93.45954648526077	93.93555555555555	50	127
93.93555555555555	94.13290249433106	49	127
93.93555555555555	94.13290249433106	52	127
93.93555555555555	94.13290249433106	35	127
94.16775510204081	94.26061224489796	33	127
94.16775510204081	94.4580045351474	45	127
94.16775510204081	94.4580045351474	49	127
94.26061224489796	94.4580045351474	35	127
94.4580045351474	94.59732426303854	33	127
94.59732426303854	94.748231292517	35	127
94.748231292517	94.85274376417233	33	127
94.8643537414966	94.96884353741497	35	127
94.96884353741497	95.07333333333334	33	127
94.96884353741497	95.20104308390023	64	127
94.96884353741497	95.20104308390023	73	127
95.07333333333334	95.20104308390023	35	127
95.20104308390023	95.3055328798186	33	127
95.20104308390023	95.44485260770975	64	127
95.20104308390023	95.44485260770975	73	127
95.3055328798186	95.44485260770975	35	127
95.46807256235827	95.56095238095239	33	127
95.46807256235827	95.67705215419501	62	127
95.46807256235827	95.67705215419501	71	127
95.56095238095239	95.67705215419501	35	127
95.67705215419501	95.78154195011338	33	127
95.67705215419501	95.90925170068027	62	127
95.67705215419501	95.90925170068027	71	127
95.8047619047619	95.90925170068027	35	127
95.90925170068027	96.03696145124717	33	127
95.90925170068027	96.12984126984126	62	127
95.90925170068027	96.12984126984126	71	127
96.03696145124717	96.12984126984126	35	127
96.12984126984126	96.25755102040816	33	127
96.12984126984126	96.35043083900227	64	127
96.12984126984126	96.35043083900227	73	127
96.25755102040816	96.35043083900227	35	127
96.36204081632653	96.59424036281179	74	127
96.36204081632653	96.59424036281179	66	127
96.36204081632653	96.47814058956916	33	127
96.47814058956916	96.59424036281179	35	127
96.59424036281179	96.80321995464853	74	127
96.59424036281179	96.69873015873016	33	127
96.59424036281179	96.80321995464853	66	127
96.69873015873016	96.80321995464853	35	127
96.80321995464853	96.9077097505669	33	127
96.80321995464853	97.04702947845804	64	127
96.80321995464853	97.04702947845804	73	127
96.94253968253969	97.04702947845804	35	127
97.04702947845804	97.15151927437641	33	127
97.04702947845804	97.23278911564626	64	127
97.04702947845804	97.23278911564626	73	127
97.15151927437641	97.23278911564626	35	127
97.23278911564626	97.3488888888889	33	127
97.23278911564626	97.48820861678004	73	127
97.23278911564626	97.48820861678004	61	127
97.3488888888889	97.48820861678004	35	127
97.48820861678004	97.58108843537416	33	127
97.48820861678004	97.69718820861678	74	127
97.48820861678004	97.69718820861678	62	127
97.58108843537416	97.69718820861678	35	127
97.69718820861678	97.80167800453515	33	127
97.69718820861678	97.91777777777777	76	127
97.69718820861678	97.91777777777777	64	127
97.8132879818594	97.91777777777777	35	127
97.91777777777777	98.11514739229025	76	127
97.91777777777777	98.02226757369614	33	127
97.91777777777777	98.11514739229025	64	127
98.02226757369614	98.11514739229025	35	127
98.11514739229025	98.21963718820862	33	127
98.11514739229025	98.37056689342404	74	127
98.11514739229025	98.37056689342404	62	127
98.21963718820862	98.37056689342404	35	127
98.3821768707483	98.49827664399093	33	127
98.3821768707483	98.6027664399093	74	127
98.3821768707483	98.6027664399093	62	127
98.49827664399093	98.6027664399093	35	127
98.6027664399093	98.70725623582767	33	127
98.6027664399093	98.83496598639456	74	127
98.6027664399093	98.83496598639456	62	127
98.70725623582767	98.83496598639456	35	127
98.83496598639456	98.95106575963719	33	127
98.83496598639456	99.1019954648526	76	127
98.83496598639456	99.1019954648526	64	127
98.95106575963719	99.1019954648526	35	127
99.1019954648526	99.20648526077098	33	127
99.1019954648526	99.31097505668934	78	127
99.1019954648526	99.31097505668934	66	127
99.20648526077098	99.31097505668934	35	127
99.31097505668934	99.42707482993197	33	127
99.31097505668934	99.53156462585034	78	127
99.31097505668934	99.53156462585034	66	127
99.42707482993197	99.53156462585034	35	127
99.53156462585034	99.6708843537415	33	127
99.53156462585034	99.77537414965987	76	127
99.53156462585034	99.77537414965987	64	127
99.6708843537415	99.77537414965987	35	127
99.77537414965987	100.04240362811791	73	127
99.77537414965987	100.04240362811791	61	127
99.77537414965987	100.04240362811791	33	127
100.48358276643991	101.16857142857143	68	127
100.48358276643991	101.16857142857143	64	127
101.16857142857143	101.93482993197279	63	127
101.16857142857143	101.93482993197279	66	127
101.93482993197279	102.38761904761905	66	127
101.93482993197279	102.38761904761905	69	127
102.38761904761905	102.63142857142857	64	127
102.38761904761905	102.63142857142857	68	127
102.63142857142857	103.31641723356009	68	127
102.63142857142857	103.31641723356009	64	127
103.31641723356009	104.11750566893424	76	127
103.31641723356009	104.11750566893424	68	127
103.31641723356009	104.11750566893424	80	127
103.31641723356009	104.11750566893424	64	127
104.11750566893424	104.83732426303855	63	127
104.11750566893424	104.83732426303855	75	127
104.11750566893424	104.83732426303855	78	127
104.11750566893424	104.83732426303855	66	127
104.83732426303855	105.37138321995465	78	127
104.83732426303855	105.37138321995465	81	127
104.83732426303855	105.37138321995465	66	127
104.83732426303855	105.37138321995465	69	127
105.37138321995465	105.83578231292518	76	127
105.37138321995465	105.83578231292518	80	127
105.37138321995465	105.83578231292518	64	127
105.37138321995465	105.83578231292518	68	127
105.84739229024943	106.49755102040817	80	127
105.84739229024943	106.49755102040817	76	127
105.84739229024943	106.49755102040817	64	127
105.84739229024943	106.49755102040817	68	127
106.50916099773242	106.74136054421768	76	127
106.50916099773242	106.74136054421768	80	127
106.50916099773242	106.74136054421768	88	127
106.50916099773242	106.74136054421768	64	127
106.50916099773242	106.74136054421768	68	127
106.74136054421768	106.95034013605442	88	127
106.74136054421768	106.95034013605442	76	127
106.74136054421768	106.95034013605442	80	127
106.74136054421768	106.95034013605442	64	127
106.74136054421768	106.95034013605442	68	127
106.95034013605442	107.14770975056689	76	127
106.95034013605442	107.14770975056689	80	127
106.95034013605442	107.14770975056689	88	127
106.95034013605442	107.14770975056689	64	127
106.95034013605442	107.14770975056689	68	127
107.14770975056689	107.3682993197279	75	127
107.14770975056689	107.3682993197279	78	127
107.14770975056689	107.3682993197279	87	127
107.14770975056689	107.3682993197279	59	127
107.14770975056689	107.3682993197279	63	127
107.14770975056689	107.3682993197279	66	127
107.37990929705215	107.60049886621316	75	127
107.37990929705215	107.60049886621316	78	127
107.37990929705215	107.60049886621316	87	127
107.37990929705215	107.60049886621316	59	127
107.37990929705215	107.60049886621316	63	127
107.37990929705215	107.60049886621316	66	127
107.60049886621316	107.89074829931972	75	127
107.60049886621316	107.89074829931972	78	127
107.60049886621316	107.89074829931972	87	127
107.60049886621316	107.89074829931972	59	127
107.60049886621316	107.89074829931972	63	127
107.60049886621316	107.89074829931972	66	127
107.89074829931972	108.08811791383219	78	127
107.89074829931972	108.08811791383219	81	127
107.89074829931972	108.08811791383219	90	127
107.89074829931972	108.08811791383219	47	127
107.89074829931972	108.08811791383219	51	127
107.89074829931972	108.08811791383219	54	127
107.89074829931972	108.08811791383219	59	127
108.08811791383219	108.28548752834467	78	127
108.08811791383219	108.28548752834467	81	127
108.08811791383219	108.28548752834467	90	127
108.08811791383219	108.28548752834467	47	127
108.08811791383219	108.28548752834467	51	127
108.08811791383219	108.28548752834467	54	127
108.08811791383219	108.28548752834467	59	127
108.28548752834467	108.52929705215419	78	127
108.28548752834467	108.52929705215419	81	127
108.28548752834467	108.52929705215419	90	127
108.28548752834467	108.52929705215419	47	127
108.28548752834467	108.52929705215419	51	127
108.28548752834467	108.52929705215419	54	127
108.28548752834467	108.52929705215419	59	127
109.2839455782313	109.48131519274376	76	127
109.2839455782313	109.48131519274376	80	127
109.2839455782313	109.48131519274376	88	127
109.2839455782313	109.48131519274376	52	127
109.2839455782313	109.48131519274376	56	127
109.2839455782313	109.48131519274376	59	127
109.2839455782313	109.48131519274376	62	127
109.49292517006803	109.6902947845805	76	127
109.49292517006803	109.6902947845805	80	127
109.49292517006803	109.6902947845805	88	127
109.49292517006803	109.6902947845805	52	127
109.49292517006803	109.6902947845805	56	127
109.49292517006803	109.6902947845805	59	127
109.49292517006803	109.6902947845805	62	127
109.6902947845805	109.94571428571429	76	127
109.6902947845805	109.94571428571429	80	127
109.6902947845805	109.94571428571429	88	127
109.6902947845805	109.94571428571429	52	127
109.6902947845805	109.94571428571429	56	127
109.6902947845805	109.94571428571429	59	127
109.6902947845805	109.94571428571429	62	127
112.90625850340136	113.01074829931973	76	127
112.90625850340136	113.01074829931973	64	127
113.01074829931973	113.12684807256235	78	127
113.01074829931973	113.12684807256235	66	127
113.12684807256235	113.21972789115647	76	127
113.12684807256235	113.21972789115647	64	127
113.24294784580499	113.33582766439909	78	127
113.24294784580499	113.33582766439909	66	127
113.33582766439909	113.50997732426303	76	127
113.33582766439909	113.50997732426303	64	127
113.50997732426303	113.6144671201814	78	127
113.50997732426303	113.6144671201814	66	127
113.6144671201814	113.73056689342404	62	127
113.6144671201814	113.73056689342404	74	127
113.73056689342404	113.82344671201814	64	127
113.73056689342404	113.82344671201814	76	127
113.83505668934241	113.93954648526078	74	127
113.83505668934241	113.93954648526078	62	127
113.93954648526078	114.04403628117913	76	127
113.93954648526078	114.04403628117913	64	127
114.04403628117913	114.16013605442177	74	127
114.04403628117913	114.16013605442177	62	127
114.17174603174603	114.26462585034014	76	127
114.17174603174603	114.26462585034014	64	127
114.26462585034014	114.48521541950113	73	127
114.26462585034014	114.48521541950113	61	127
114.94961451247165	115.89002267573696	64	127
114.94961451247165	115.89002267573696	73	127
114.94961451247165	115.89002267573696	61	127
114.94961451247165	115.89002267573696	52	127
115.89002267573696	116.6330612244898	59	127
115.89002267573696	116.6330612244898	62	127
115.89002267573696	116.6330612244898	71	127
115.89002267573696	116.6330612244898	50	127
116.6330612244898	117.039410430839	74	127
116.6330612244898	117.039410430839	62	127
116.6330612244898	117.039410430839	66	127
116.6330612244898	117.039410430839	54	127
117.05102040816327	117.46897959183673	64	127
117.05102040816327	117.46897959183673	73	127
117.05102040816327	117.46897959183673	52	127
117.05102040816327	117.46897959183673	61	127
117.46897959183673	118.17718820861678	61	127
117.46897959183673	118.17718820861678	64	127
117.46897959183673	118.17718820861678	73	127
117.46897959183673	118.17718820861678	52	127
118.21201814058956	118.93183673469387	73	127
118.21201814058956	118.93183673469387	76	127
118.21201814058956	118.93183673469387	61	127
118.21201814058956	118.93183673469387	64	127
118.93183673469387	119.69809523809523	62	127
118.93183673469387	119.69809523809523	71	127
118.93183673469387	119.69809523809523	74	127
118.93183673469387	119.69809523809523	59	127
119.69809523809523	120.25537414965986	74	127
119.69809523809523	120.25537414965986	62	127
119.69809523809523	120.25537414965986	66	127
119.69809523809523	120.25537414965986	78	127
120.25537414965986	120.45274376417234	76	127
120.25537414965986	120.45274376417234	73	127
120.25537414965986	120.45274376417234	64	127
120.25537414965986	120.45274376417234	61	127
120.4643537414966	121.24222222222222	69	127
120.4643537414966	121.24222222222222	73	127
120.4643537414966	121.24222222222222	61	127
120.4643537414966	121.24222222222222	57	127
121.24222222222222	121.43959183673469	64	127
121.24222222222222	121.43959183673469	52	127
121.24222222222222	121.43959183673469	61	127
121.24222222222222	121.43959183673469	73	127
121.43959183673469	121.7530612244898	61	127
121.43959183673469	121.7530612244898	64	127
121.43959183673469	121.7530612244898	73	127
121.43959183673469	121.7530612244898	52	127
121.7530612244898	121.97365079365079	62	127
121.7530612244898	121.97365079365079	71	127
121.7530612244898	121.97365079365079	50	127
121.7530612244898	121.97365079365079	59	127
121.97365079365079	122.24068027210885	62	127
121.97365079365079	122.24068027210885	71	127
121.97365079365079	122.24068027210885	59	127
121.97365079365079	122.24068027210885	50	127
122.24068027210885	122.43804988662131	62	127
122.24068027210885	122.43804988662131	71	127
122.24068027210885	122.43804988662131	50	127
122.24068027210885	122.43804988662131	59	127
122.43804988662131	122.6586394557823	64	127
122.43804988662131	122.6586394557823	73	127
122.43804988662131	122.6586394557823	52	127
122.43804988662131	122.6586394557823	61	127
122.67024943310658	122.92566893424036	66	127
122.67024943310658	122.92566893424036	74	127
122.67024943310658	122.92566893424036	54	127
122.67024943310658	122.92566893424036	62	127
122.92566893424036	123.14625850340136	66	127
122.92566893424036	123.14625850340136	74	127
122.92566893424036	123.14625850340136	54	127
122.92566893424036	123.14625850340136	62	127
123.14625850340136	123.37845804988662	64	127
123.14625850340136	123.37845804988662	73	127
123.14625850340136	123.37845804988662	52	127
123.14625850340136	123.37845804988662	61	127
123.37845804988662	123.59904761904762	64	127
123.37845804988662	123.59904761904762	73	127
123.37845804988662	123.59904761904762	52	127
123.37845804988662	123.59904761904762	61	127
123.61065759637188	123.85446712018141	64	127
123.61065759637188	123.85446712018141	73	127
123.61065759637188	123.85446712018141	52	127
123.61065759637188	123.85446712018141	61	127
123.85446712018141	124.0750566893424	71	127
123.85446712018141	124.0750566893424	74	127
123.85446712018141	124.0750566893424	59	127
123.85446712018141	124.0750566893424	62	127
124.0750566893424	124.33047619047619	73	127
124.0750566893424	124.33047619047619	76	127
124.0750566893424	124.33047619047619	61	127
124.0750566893424	124.33047619047619	64	127
124.33047619047619	124.55106575963718	73	127
124.33047619047619	124.55106575963718	76	127
124.33047619047619	124.55106575963718	61	127
124.33047619047619	124.55106575963718	64	127
124.55106575963718	124.86453514739229	71	127
124.55106575963718	124.86453514739229	74	127
124.55106575963718	124.86453514739229	59	127
124.55106575963718	124.86453514739229	62	127
124.87614512471656	125.07351473922903	71	127
124.87614512471656	125.07351473922903	74	127
124.87614512471656	125.07351473922903	59	127
124.87614512471656	125.07351473922903	62	127
125.07351473922903	125.2708843537415	71	127
125.07351473922903	125.2708843537415	74	127
125.07351473922903	125.2708843537415	59	127
125.07351473922903	125.2708843537415	62	127
125.2708843537415	125.47986394557823	73	127
125.2708843537415	125.47986394557823	76	127
125.2708843537415	125.47986394557823	61	127
125.2708843537415	125.47986394557823	64	127
125.47986394557823	125.74689342403629	74	127
125.47986394557823	125.74689342403629	78	127
125.47986394557823	125.74689342403629	62	127
125.47986394557823	125.74689342403629	66	127
125.79333333333334	126.01392290249433	74	127
125.79333333333334	126.01392290249433	78	127
125.79333333333334	126.01392290249433	62	127
125.79333333333334	126.01392290249433	66	127
126.01392290249433	126.26934240362812	73	127
126.01392290249433	126.26934240362812	76	127
126.01392290249433	126.26934240362812	61	127
126.01392290249433	126.26934240362812	64	127
126.26934240362812	126.51315192743765	69	127
126.26934240362812	126.51315192743765	73	127
126.26934240362812	126.51315192743765	57	127
126.26934240362812	126.51315192743765	61	127
126.51315192743765	126.78018140589569	74	127
126.51315192743765	126.78018140589569	78	127
126.51315192743765	126.78018140589569	62	127
126.51315192743765	126.78018140589569	66	127
126.78018140589569	126.98916099773243	73	127
126.78018140589569	126.98916099773243	76	127
126.78018140589569	126.98916099773243	61	127
126.78018140589569	126.98916099773243	64	127
126.98916099773243	127.19814058956916	69	127
126.98916099773243	127.19814058956916	73	127
126.98916099773243	127.19814058956916	57	127
126.98916099773243	127.19814058956916	61	127
127.19814058956916	127.44195011337868	74	127
127.19814058956916	127.44195011337868	78	127
127.19814058956916	127.44195011337868	62	127
127.19814058956916	127.44195011337868	66	127
127.44195011337868	127.6277097505669	73	127
127.44195011337868	127.6277097505669	76	127
127.44195011337868	127.6277097505669	61	127
127.44195011337868	127.6277097505669	64	127
127.6277097505669	127.87151927437641	61	127
127.6277097505669	127.87151927437641	69	127
127.6277097505669	127.87151927437641	73	127
127.6277097505669	127.87151927437641	57	127
127.89473922902495	128.11532879818594	74	127
127.89473922902495	128.11532879818594	78	127
127.89473922902495	128.11532879818594	62	127
127.89473922902495	128.11532879818594	66	127
128.11532879818594	128.41718820861678	73	127
128.11532879818594	128.41718820861678	76	127
128.11532879818594	128.41718820861678	61	127
128.11532879818594	128.41718820861678	64	127
128.41718820861678	128.61455782312925	73	127
128.41718820861678	128.61455782312925	69	127
128.41718820861678	128.61455782312925	57	127
128.41718820861678	128.61455782312925	61	127
128.61455782312925	128.90480725623584	74	127
128.61455782312925	128.90480725623584	78	127
128.61455782312925	128.90480725623584	62	127
128.61455782312925	128.90480725623584	66	127
128.90480725623584	129.1137641723356	73	127
128.90480725623584	129.1137641723356	76	127
128.90480725623584	129.1137641723356	61	127
128.90480725623584	129.1137641723356	64	127
129.1137641723356	129.31115646258505	61	127
129.1137641723356	129.31115646258505	69	127
129.1137641723356	129.31115646258505	73	127
129.1137641723356	129.31115646258505	57	127
129.7755328798186	130.06580498866214	64	127
129.7755328798186	130.06580498866214	69	127
129.7755328798186	130.06580498866214	73	127
129.7755328798186	130.06580498866214	52	127
129.7755328798186	130.06580498866214	57	127
129.7755328798186	130.06580498866214	61	127
130.56503401360544	130.77401360544218	64	127
130.56503401360544	130.77401360544218	69	127
130.56503401360544	130.77401360544218	73	127
130.56503401360544	130.77401360544218	52	127
130.56503401360544	130.77401360544218	57	127
130.56503401360544	130.77401360544218	61	127
131.22680272108843	131.43578231292517	64	127
131.22680272108843	131.43578231292517	69	127
131.22680272108843	131.43578231292517	73	127
131.22680272108843	131.43578231292517	52	127
131.22680272108843	131.43578231292517	57	127
131.22680272108843	131.43578231292517	61	127
131.958231292517	132.3065306122449	64	127
131.958231292517	132.3065306122449	69	127
131.958231292517	132.3065306122449	73	127
131.958231292517	132.3065306122449	52	127
131.958231292517	132.3065306122449	57	127
131.958231292517	132.3065306122449	61	127
132.58517006802722	132.7825396825397	35	127
132.7825396825397	132.99151927437643	33	127
133.1888888888889	133.42108843537414	35	127
133.42108843537414	133.67650793650793	33	127
133.9087074829932	134.14090702947846	35	127
134.15251700680273	134.38471655328797	33	127
134.60530612244898	134.81428571428572	35	127
134.81428571428572	135.04646258503402	33	127
135.3251247165533	135.74308390022676	64	127
135.94045351473923	136.16104308390024	35	127
136.16104308390024	136.38163265306122	33	127
136.64866213151927	137.05501133786848	64	127
137.26399092970522	137.54263038548754	35	127
137.54263038548754	137.76321995464852	33	127
138.0070068027211	138.54108843537415	64	127
138.76167800453516	139.26090702947846	64	127
139.48149659863947	139.91106575963718	64	127
140.1316553287982	140.60766439909298	64	127
140.39868480725625	140.60766439909298	57	127
140.39868480725625	140.60766439909298	60	127
140.874693877551	141.38553287981858	69	127
141.14172335600907	141.38553287981858	57	127
141.14172335600907	141.38553287981858	60	127
141.5712925170068	141.98925170068028	71	127
141.78027210884355	141.98925170068028	52	127
141.78027210884355	141.98925170068028	56	127
141.78027210884355	141.98925170068028	59	127
141.98925170068028	142.2330612244898	59	127
141.98925170068028	142.1053514739229	72	127
141.98925170068028	142.2330612244898	52	127
141.98925170068028	142.2330612244898	56	127
142.03569160997733	142.18662131519275	71	127
142.12857142857143	142.2330612244898	69	127
142.2330612244898	142.44204081632654	71	127
142.2330612244898	142.44204081632654	52	127
142.2330612244898	142.44204081632654	56	127
142.2330612244898	142.44204081632654	59	127
142.45362811791384	142.65102040816328	72	127
142.45362811791384	142.65102040816328	57	127
142.45362811791384	142.65102040816328	60	127
142.8948299319728	143.34761904761905	74	127
143.17344671201815	143.34761904761905	55	127
143.17344671201815	143.34761904761905	59	127
143.17344671201815	143.34761904761905	62	127
143.62625850340137	144.07904761904763	76	127
143.8700680272109	144.07904761904763	60	127
143.8700680272109	144.07904761904763	64	127
144.2996371882086	144.5550566893424	74	127
144.2996371882086	144.5550566893424	55	127
144.2996371882086	144.5550566893424	59	127
144.56666666666666	144.7756462585034	57	127
144.56666666666666	144.6827664399093	74	127
144.56666666666666	144.7756462585034	60	127
144.63632653061225	144.7756462585034	72	127
144.7756462585034	144.98462585034014	56	127
144.7756462585034	144.98462585034014	71	127
144.7756462585034	144.98462585034014	52	127
144.98462585034014	145.1819954648526	69	127
144.98462585034014	145.1819954648526	45	127
144.98462585034014	145.1819954648526	57	127
145.21680272108844	145.46063492063493	71	127
145.21680272108844	145.46063492063493	52	127
145.21680272108844	145.46063492063493	56	127
145.46063492063493	145.66961451247167	45	127
145.46063492063493	145.66961451247167	69	127
145.46063492063493	145.66961451247167	57	127
145.87857142857143	146.09918367346938	60	127
145.87857142857143	146.09918367346938	64	127
145.87857142857143	146.09918367346938	45	127
145.87857142857143	146.09918367346938	48	127
145.87857142857143	146.09918367346938	57	127
145.87857142857143	146.09918367346938	52	127
146.5403628117914	146.80739229024942	57	127
146.5403628117914	146.80739229024942	60	127
146.5403628117914	146.80739229024942	64	127
146.5403628117914	146.80739229024942	69	127
146.5403628117914	146.80739229024942	45	127
146.5403628117914	146.80739229024942	48	127
146.5403628117914	146.80739229024942	52	127
147.27179138321995	147.48077097505669	59	127
147.27179138321995	147.48077097505669	64	127
147.27179138321995	147.48077097505669	68	127
147.27179138321995	147.48077097505669	71	127
147.27179138321995	147.48077097505669	40	127
147.27179138321995	147.48077097505669	52	127
147.48077097505669	147.67814058956915	40	127
147.48077097505669	147.67814058956915	52	127
147.48077097505669	147.67814058956915	59	127
147.48077097505669	147.67814058956915	64	127
147.48077097505669	147.67814058956915	68	127
147.48077097505669	147.67814058956915	71	127
147.67814058956915	147.92192743764173	71	127
147.67814058956915	147.92192743764173	59	127
147.67814058956915	147.92192743764173	64	127
147.67814058956915	147.92192743764173	68	127
147.67814058956915	147.92192743764173	40	127
147.67814058956915	147.92192743764173	52	127
147.92192743764173	148.1077097505669	60	127
147.92192743764173	148.1077097505669	64	127
147.92192743764173	148.1077097505669	69	127
147.92192743764173	148.1077097505669	72	127
147.92192743764173	148.1077097505669	45	127
147.92192743764173	148.1077097505669	48	127
147.92192743764173	148.1077097505669	52	127
147.92192743764173	148.1077097505669	57	127
148.54888888888888	148.80430839002267	62	127
148.54888888888888	148.80430839002267	67	127
148.54888888888888	148.80430839002267	71	127
148.54888888888888	148.80430839002267	74	127
148.54888888888888	148.80430839002267	43	127
148.54888888888888	148.80430839002267	47	127
148.54888888888888	148.80430839002267	50	127
148.54888888888888	148.80430839002267	55	127
149.28031746031746	149.47768707482993	64	127
149.28031746031746	149.47768707482993	67	127
149.28031746031746	149.47768707482993	72	127
149.28031746031746	149.47768707482993	76	127
149.28031746031746	149.47768707482993	48	127
149.28031746031746	149.47768707482993	52	127
149.28031746031746	149.47768707482993	55	127
149.28031746031746	149.47768707482993	60	127
149.66342403628119	149.88403628117914	55	127
149.88403628117914	150.0697732426304	57	127
150.0697732426304	150.31360544217688	62	127
150.0697732426304	150.31360544217688	68	127
150.0697732426304	150.31360544217688	52	127
150.31360544217688	150.5341723356009	60	127
150.31360544217688	150.5341723356009	69	127
150.31360544217688	150.5341723356009	45	127
150.5341723356009	150.76639455782313	62	127
150.5341723356009	150.76639455782313	68	127
150.5341723356009	150.76639455782313	52	127
150.76639455782313	151.02181405895692	60	127
150.76639455782313	151.02181405895692	69	127
150.76639455782313	151.02181405895692	45	127
151.02181405895692	151.4513605442177	77	127
151.25401360544217	151.4513605442177	50	127
151.25401360544217	151.4513605442177	53	127
151.25401360544217	151.4513605442177	57	127
151.25401360544217	151.4513605442177	62	127
151.70678004535148	152.1247619047619	67	127
151.95061224489797	152.1247619047619	55	127
151.95061224489797	152.1247619047619	59	127
151.95061224489797	152.1247619047619	62	127
152.5659410430839	152.72845804988663	60	127
152.72845804988663	152.9838775510204	65	127
152.72845804988663	152.9838775510204	71	127
152.72845804988663	152.9838775510204	55	127
152.9838775510204	153.20448979591836	64	127
152.9838775510204	153.20448979591836	72	127
152.9838775510204	153.20448979591836	48	127
153.20448979591836	153.3902494331066	65	127
153.20448979591836	153.3902494331066	71	127
153.20448979591836	153.3902494331066	55	127
153.3902494331066	153.6340589569161	64	127
153.3902494331066	153.6340589569161	72	127
153.3902494331066	153.6340589569161	48	127
153.6340589569161	154.1681179138322	74	127
153.8894784580499	154.1681179138322	50	127
153.8894784580499	154.1681179138322	53	127
153.8894784580499	154.1681179138322	59	127
154.34226757369615	154.72537414965987	64	127
154.53963718820862	154.72537414965987	52	127
154.53963718820862	154.72537414965987	56	127
154.53963718820862	154.72537414965987	59	127
155.24784580498866	155.43360544217688	57	127
155.43360544217688	155.61936507936508	62	127
155.43360544217688	155.61936507936508	68	127
155.43360544217688	155.61936507936508	52	127
155.61936507936508	155.8399546485261	60	127
155.61936507936508	155.8399546485261	69	127
155.61936507936508	155.8399546485261	45	127
155.8399546485261	156.04893424036283	62	127
155.8399546485261	156.04893424036283	68	127
155.8399546485261	156.04893424036283	52	127
156.04893424036283	156.35079365079366	60	127
156.04893424036283	156.35079365079366	69	127
156.04893424036283	156.35079365079366	45	127
156.35079365079366	156.75714285714287	77	127
156.57138321995464	156.75714285714287	50	127
156.57138321995464	156.75714285714287	53	127
156.57138321995464	156.75714285714287	57	127
156.57138321995464	156.75714285714287	62	127
157.00095238095238	157.44213151927437	67	127
157.25637188208617	157.44213151927437	59	127
157.25637188208617	157.44213151927437	62	127
157.25637188208617	157.44213151927437	55	127
157.69755102040816	158.1271201814059	76	127
157.95297052154194	158.1271201814059	60	127
157.95297052154194	158.1271201814059	64	127
158.40573696145125	158.7888888888889	79	127
158.6031292517007	158.7888888888889	61	127
158.6031292517007	158.7888888888889	64	127
158.6031292517007	158.7888888888889	67	127
158.6031292517007	158.7888888888889	58	127
159.02108843537414	159.6015873015873	83	127
159.35777777777778	159.6015873015873	64	127
159.35777777777778	159.6015873015873	59	127
159.35777777777778	159.6015873015873	67	127
159.78732426303856	160.24013605442178	83	127
160.03115646258505	160.24013605442178	47	127
160.03115646258505	160.24013605442178	51	127
160.03115646258505	160.24013605442178	54	127
160.03115646258505	160.24013605442178	59	127
160.53038548752835	160.75097505668936	75	127
160.53038548752835	160.75097505668936	63	127
160.75097505668936	160.94834467120182	76	127
160.75097505668936	160.94834467120182	64	127
160.94834467120182	161.1689342403628	66	127
160.94834467120182	161.1689342403628	78	127
161.1689342403628	161.3314739229025	79	127
161.1689342403628	161.3314739229025	67	127
161.3314739229025	161.52884353741496	78	127
161.3314739229025	161.52884353741496	66	127
161.52884353741496	161.7726530612245	64	127
161.52884353741496	161.7726530612245	76	127
161.7726530612245	161.98160997732427	66	127
161.7726530612245	161.98160997732427	78	127
161.99324263038548	162.20222222222222	79	127
161.99324263038548	162.20222222222222	67	127
161.99324263038548	162.7711111111111	47	127
162.20222222222222	162.5273015873016	66	127
162.20222222222222	162.5273015873016	78	127
162.5273015873016	162.7711111111111	67	127
162.5273015873016	162.7711111111111	79	127
162.78272108843538	162.95684807256237	81	127
162.78272108843538	163.4096598639456	39	127
162.78272108843538	162.95684807256237	69	127
162.95684807256237	163.17746031746032	67	127
162.95684807256237	163.17746031746032	79	127
163.17746031746032	163.4096598639456	66	127
163.17746031746032	163.4096598639456	78	127
163.4328798185941	163.64185941043084	76	127
163.4328798185941	163.64185941043084	64	127
163.4328798185941	163.64185941043084	40	127
163.64185941043084	163.87403628117914	78	127
163.64185941043084	163.87403628117914	66	127
163.87403628117914	164.04820861678004	67	127
163.87403628117914	164.04820861678004	79	127
164.0598185941043	164.2339455782313	66	127
164.0598185941043	164.2339455782313	78	127
164.2339455782313	164.41972789115647	64	127
164.2339455782313	164.41972789115647	76	127
164.41972789115647	164.6287074829932	66	127
164.41972789115647	164.6287074829932	78	127
164.65192743764172	164.884126984127	79	127
164.65192743764172	164.884126984127	67	127
164.884126984127	165.18598639455783	66	127
164.884126984127	165.18598639455783	78	127
165.18598639455783	165.3833560090703	79	127
165.18598639455783	165.3833560090703	67	127
165.39496598639457	165.61555555555555	68	127
165.39496598639457	165.61555555555555	80	127
165.61555555555555	165.8593650793651	66	127
165.61555555555555	165.8593650793651	78	127
165.8593650793651	166.07995464852607	80	127
165.8593650793651	166.07995464852607	68	127
166.09156462585034	166.75333333333333	52	127
166.09156462585034	166.32376417233561	81	127
166.09156462585034	166.32376417233561	69	127
166.32376417233561	166.53272108843538	71	127
166.32376417233561	166.53272108843538	83	127
166.53272108843538	166.75333333333333	72	127
166.53272108843538	166.75333333333333	84	127
166.7649433106576	166.9855328798186	83	127
166.7649433106576	166.9855328798186	71	127
166.7649433106576	167.3918820861678	44	127
166.9855328798186	167.18290249433107	81	127
166.9855328798186	167.18290249433107	69	127
167.18290249433107	167.3918820861678	71	127
167.18290249433107	167.3918820861678	83	127
167.4034693877551	167.60086167800455	72	127
167.4034693877551	167.60086167800455	45	127
167.4034693877551	167.60086167800455	84	127
167.60086167800455	167.79823129251702	83	127
167.60086167800455	167.79823129251702	71	127
167.79823129251702	168.018820861678	84	127
167.79823129251702	168.018820861678	72	127
168.0536507936508	168.29746031746032	86	127
168.0536507936508	168.29746031746032	74	127
168.29746031746032	168.52965986394557	72	127
168.29746031746032	168.52965986394557	84	127
168.52965986394557	168.7154195011338	71	127
168.52965986394557	168.7154195011338	83	127
168.7270068027211	168.92439909297053	81	127
168.7270068027211	168.92439909297053	69	127
168.7270068027211	169.41201814058957	52	127
168.7270068027211	169.41201814058957	40	127
168.92439909297053	169.15659863945578	71	127
168.92439909297053	169.15659863945578	83	127
169.15659863945578	169.41201814058957	72	127
169.15659863945578	169.41201814058957	84	127
169.42362811791384	169.60938775510203	71	127
169.42362811791384	170.07378684807256	32	127
169.42362811791384	170.07378684807256	44	127
169.42362811791384	169.60938775510203	83	127
169.60938775510203	169.86480725623582	69	127
169.60938775510203	169.86480725623582	81	127
169.86480725623582	170.07378684807256	83	127
169.86480725623582	170.07378684807256	71	127
170.08539682539683	170.74716553287982	33	127
170.08539682539683	170.74716553287982	45	127
170.08539682539683	170.32920634920634	72	127
170.08539682539683	170.32920634920634	84	127
170.32920634920634	170.5265759637188	83	127
170.32920634920634	170.5265759637188	71	127
170.5265759637188	170.74716553287982	72	127
170.5265759637188	170.74716553287982	84	127
170.7587755102041	171.43215419501135	43	127
170.7587755102041	170.9445351473923	85	127
170.7587755102041	170.9445351473923	73	127
170.7587755102041	171.43215419501135	31	127
170.9445351473923	171.1883446712018	84	127
170.9445351473923	171.1883446712018	72	127
171.1883446712018	171.43215419501135	85	127
171.1883446712018	171.43215419501135	73	127
171.43215419501135	171.65274376417233	74	127
171.43215419501135	171.65274376417233	86	127
171.43215419501135	172.12875283446712	42	127
171.43215419501135	172.12875283446712	30	127
171.65274376417233	171.91977324263038	85	127
171.65274376417233	171.91977324263038	73	127
171.91977324263038	172.12875283446712	86	127
171.91977324263038	172.12875283446712	74	127
172.12875283446712	172.80213151927438	36	127
172.12875283446712	172.36092970521543	90	127
172.12875283446712	172.36092970521543	78	127
172.12875283446712	172.80213151927438	48	127
172.36092970521543	172.58154195011338	89	127
172.36092970521543	172.58154195011338	77	127
172.58154195011338	172.80213151927438	78	127
172.58154195011338	172.80213151927438	90	127
172.80213151927438	173.0459410430839	79	127
172.80213151927438	173.49873015873015	47	127
172.80213151927438	173.49873015873015	35	127
172.80213151927438	173.0459410430839	91	127
173.0459410430839	173.25492063492064	78	127
173.0459410430839	173.25492063492064	90	127
173.25492063492064	173.49873015873015	79	127
173.25492063492064	173.49873015873015	91	127
173.49873015873015	173.73092970521543	83	127
173.49873015873015	173.73092970521543	71	127
173.49873015873015	174.16049886621315	52	127
173.49873015873015	174.16049886621315	40	127
173.73092970521543	173.96312925170068	81	127
173.73092970521543	173.96312925170068	69	127
173.96312925170068	174.16049886621315	71	127
173.96312925170068	174.16049886621315	83	127
174.16049886621315	174.34625850340137	84	127
174.16049886621315	174.34625850340137	72	127
174.16049886621315	174.34625850340137	52	127
174.16049886621315	174.34625850340137	40	127
174.34625850340137	174.53201814058957	79	127
174.34625850340137	174.53201814058957	43	127
174.53201814058957	174.76419501133788	76	127
174.53201814058957	174.76419501133788	48	127
174.76419501133788	175.03124716553287	81	127
174.76419501133788	175.03124716553287	41	127
175.03124716553287	175.28666666666666	45	127
175.03124716553287	175.28666666666666	77	127
175.28666666666666	175.50725623582767	74	127
175.28666666666666	175.50725623582767	50	127
175.50725623582767	175.70462585034014	79	127
175.50725623582767	175.70462585034014	43	127
175.70462585034014	175.9019954648526	76	127
175.70462585034014	175.9019954648526	48	127
175.9019954648526	176.11097505668934	72	127
175.9019954648526	176.11097505668934	52	127
176.81918367346938	177.05138321995466	79	127
176.81918367346938	177.05138321995466	43	127
177.05138321995466	177.29519274376418	74	127
177.05138321995466	177.29519274376418	50	127
177.29519274376418	177.57380952380953	71	127
177.29519274376418	177.57380952380953	43	127
177.29519274376418	177.57380952380953	50	127
177.29519274376418	177.57380952380953	53	127
178.11950113378686	178.4909977324263	67	127
178.31687074829932	178.4909977324263	60	127
178.31687074829932	178.4909977324263	64	127
178.78126984126985	179.22244897959183	72	127
178.97863945578231	179.22244897959183	60	127
178.97863945578231	179.22244897959183	64	127
179.43142857142857	179.8725850340136	74	127
179.66362811791385	179.8725850340136	62	127
179.66362811791385	179.8725850340136	55	127
179.66362811791385	179.8725850340136	59	127
179.66362811791385	179.8725850340136	65	127
179.8725850340136	180.16285714285715	55	127
179.8725850340136	180.16285714285715	62	127
179.8725850340136	180.16285714285715	65	127
179.8725850340136	180.00031746031746	76	127
179.8725850340136	180.16285714285715	59	127
179.94226757369614	180.10480725623583	74	127
180.00031746031746	180.16285714285715	72	127
180.16285714285715	180.38342403628118	74	127
180.16285714285715	180.38342403628118	55	127
180.16285714285715	180.38342403628118	59	127
180.16285714285715	180.38342403628118	62	127
180.16285714285715	180.38342403628118	65	127
180.38342403628118	180.62725623582767	76	127
180.38342403628118	180.62725623582767	64	127
180.38342403628118	180.62725623582767	60	127
180.82462585034014	181.03360544217688	59	127
180.82462585034014	181.03360544217688	43	127
180.82462585034014	181.03360544217688	53	127
181.03360544217688	181.2077551020408	43	127
181.03360544217688	181.2077551020408	53	127
181.03360544217688	181.2077551020408	59	127
181.2077551020408	181.45156462585035	43	127
181.2077551020408	181.45156462585035	53	127
181.2077551020408	181.3354648526077	60	127
181.26580498866213	181.38190476190476	59	127
181.3354648526077	181.45156462585035	57	127
181.45156462585035	181.6837641723356	59	127
181.45156462585035	181.6837641723356	43	127
181.45156462585035	181.6837641723356	53	127
181.6837641723356	181.88113378684807	48	127
181.6837641723356	181.88113378684807	52	127
181.6837641723356	181.88113378684807	60	127
182.13655328798185	182.4035827664399	71	127
182.4035827664399	182.63575963718822	59	127
182.4035827664399	182.63575963718822	71	127
182.4035827664399	182.63575963718822	52	127
182.4035827664399	182.63575963718822	56	127
182.4035827664399	182.63575963718822	62	127
182.63575963718822	182.92603174603175	52	127
182.63575963718822	182.92603174603175	59	127
182.63575963718822	182.92603174603175	62	127
182.63575963718822	182.78668934240363	72	127
182.63575963718822	182.92603174603175	56	127
182.7286621315193	182.85637188208617	71	127
182.78668934240363	182.92603174603175	69	127
182.92603174603175	183.1465986394558	71	127
182.92603174603175	183.1465986394558	52	127
182.92603174603175	183.1465986394558	56	127
182.92603174603175	183.1465986394558	59	127
182.92603174603175	183.1465986394558	62	127
183.1465986394558	183.33238095238096	72	127
183.1465986394558	183.33238095238096	52	127
183.1465986394558	183.33238095238096	57	127
183.1465986394558	183.33238095238096	60	127
183.5645804988662	183.7851700680272	56	127
183.5645804988662	183.7851700680272	40	127
183.5645804988662	183.7851700680272	52	127
183.7851700680272	183.99414965986395	56	127
183.7851700680272	183.99414965986395	40	127
183.7851700680272	183.99414965986395	52	127
184.00575963718822	184.21473922902496	56	127
184.00575963718822	184.21473922902496	40	127
184.00575963718822	184.21473922902496	52	127
184.21473922902496	184.40049886621316	56	127
184.21473922902496	184.40049886621316	40	127
184.21473922902496	184.40049886621316	52	127
184.40049886621316	184.6791156462585	57	127
184.40049886621316	184.6791156462585	45	127
184.40049886621316	184.6791156462585	52	127
184.91133786848073	185.17836734693878	71	127
185.17836734693878	185.38734693877552	56	127
185.17836734693878	185.38734693877552	71	127
185.17836734693878	185.38734693877552	52	127
185.17836734693878	185.38734693877552	59	127
185.39895691609976	185.50344671201813	72	127
185.45700680272108	185.54986394557824	71	127
185.50344671201813	185.6079365079365	69	127
185.6079365079365	185.85172335600907	71	127
185.85172335600907	186.10714285714286	72	127
185.85172335600907	186.10714285714286	52	127
185.85172335600907	186.10714285714286	57	127
185.85172335600907	186.10714285714286	60	127
186.11877551020407	186.25809523809525	74	127
186.18843537414966	186.3045351473923	72	127
186.25809523809525	186.35097505668935	71	127
186.35097505668935	186.53673469387755	72	127
186.53673469387755	186.78054421768707	75	127
186.53673469387755	186.78054421768707	52	127
186.53673469387755	186.78054421768707	54	127
186.53673469387755	186.78054421768707	57	127
186.79215419501134	186.88503401360543	76	127
186.83859410430838	186.93145124716554	75	127
186.88503401360543	186.9778911564626	73	127
186.9778911564626	187.17528344671203	75	127
187.17528344671203	187.34943310657596	76	127
187.17528344671203	187.34943310657596	52	127
187.17528344671203	187.34943310657596	56	127
187.17528344671203	187.34943310657596	59	127
187.36104308390023	187.4655328798186	77	127
187.40748299319728	187.51197278911565	76	127
187.4655328798186	187.5584126984127	75	127
187.5584126984127	187.86027210884353	76	127
187.86027210884353	188.13891156462586	71	127
187.86027210884353	188.13891156462586	52	127
187.86027210884353	188.13891156462586	56	127
187.86027210884353	188.13891156462586	59	127
188.15052154195013	188.24340136054423	72	127
188.19696145124718	188.28984126984128	71	127
188.24340136054423	188.3478911564626	69	127
188.3478911564626	188.58009070294784	71	127
188.58009070294784	188.78907029478458	72	127
188.58009070294784	188.78907029478458	52	127
188.58009070294784	188.78907029478458	57	127
188.58009070294784	188.78907029478458	60	127
188.80068027210885	188.92839002267573	74	127
188.88195011337868	188.99804988662132	72	127
188.92839002267573	189.05609977324264	71	127
189.05609977324264	189.31151927437642	72	127
189.31151927437642	189.49727891156462	75	127
189.31151927437642	189.49727891156462	52	127
189.31151927437642	189.49727891156462	54	127
189.31151927437642	189.49727891156462	57	127
189.52049886621316	189.64820861678004	76	127
189.601768707483	189.70625850340136	75	127
189.64820861678004	189.7526984126984	74	127
189.7526984126984	189.95006802721088	75	127
189.95006802721088	190.1358276643991	76	127
189.95006802721088	190.1358276643991	52	127
189.95006802721088	190.1358276643991	56	127
189.95006802721088	190.1358276643991	59	127
190.1474149659864	190.26353741496598	77	127
190.19387755102042	190.30997732426303	76	127
190.26353741496598	190.4144671201814	75	127
190.4144671201814	190.62344671201814	76	127
190.62344671201814	190.84403628117914	76	127
190.62344671201814	190.84403628117914	45	127
190.62344671201814	190.84403628117914	48	127
190.62344671201814	190.84403628117914	52	127
190.62344671201814	190.84403628117914	57	127
190.8556462585034	190.96013605442178	77	127
190.90208616780046	191.00657596371883	76	127
190.96013605442178	191.05301587301588	75	127
191.05301587301588	191.26199546485262	76	127
191.26199546485262	191.4825850340136	40	127
191.26199546485262	191.4825850340136	76	127
191.26199546485262	191.4825850340136	44	127
191.26199546485262	191.4825850340136	47	127
191.26199546485262	191.4825850340136	52	127
191.49419501133787	191.62190476190477	77	127
191.54063492063491	191.66834467120182	76	127
191.62190476190477	191.73800453514738	75	127
191.73800453514738	191.9585941043084	76	127
191.9585941043084	192.19079365079364	76	127
191.9585941043084	192.19079365079364	33	127
191.9585941043084	192.19079365079364	36	127
191.9585941043084	192.19079365079364	40	127
191.9585941043084	192.19079365079364	45	127
192.2024036281179	192.295283446712	77	127
192.24884353741496	192.3649433106576	76	127
192.295283446712	192.4229931972789	75	127
192.4229931972789	192.69002267573697	76	127
192.69002267573697	192.9918820861678	76	127
192.69002267573697	192.9918820861678	40	127
192.69002267573697	192.9918820861678	44	127
192.69002267573697	192.9918820861678	47	127
192.69002267573697	192.9918820861678	52	127
193.18925170068027	193.59560090702948	76	127
193.78136054421768	194.19931972789115	76	127
194.3734693877551	194.93074829931973	76	127
195.17455782312925	195.38353741496599	45	127
195.17455782312925	195.61573696145123	76	127
195.27904761904762	195.38353741496599	52	127
195.38353741496599	195.61573696145123	45	127
195.49963718820862	195.70861678004536	52	127
195.61573696145123	195.80149659863946	48	127
195.7202267573696	195.89437641723356	52	127
195.80149659863946	196.23106575963718	81	127
195.80149659863946	196.0104761904762	45	127
195.89437641723356	196.0104761904762	52	127
196.0104761904762	196.23106575963718	45	127
196.13818594104308	196.3471655328798	52	127
196.23106575963718	196.45165532879818	48	127
196.3471655328798	196.54453514739228	52	127
196.45165532879818	196.64902494331065	40	127
196.45165532879818	196.92766439909298	83	127
196.54453514739228	196.64902494331065	52	127
196.64902494331065	196.92766439909298	40	127
196.81156462585034	197.03215419501134	52	127
196.86961451247166	196.97410430839003	84	127
196.92766439909298	197.03215419501134	83	127
196.92766439909298	197.11342403628117	47	127
197.03215419501134	197.11342403628117	81	127
197.03215419501134	197.20630385487527	52	127
197.11342403628117	197.3224036281179	83	127
197.11342403628117	197.3224036281179	40	127
197.20630385487527	197.3224036281179	52	127
197.3224036281179	197.58943310657597	84	127
197.3224036281179	197.58943310657597	45	127
197.4849433106576	197.7055328798186	52	127
197.60104308390024	197.82163265306122	48	127
197.7055328798186	197.93773242630385	52	127
197.82163265306122	198.04222222222222	43	127
197.82163265306122	198.2395918367347	86	127
197.94934240362812	198.04222222222222	47	127
198.04222222222222	198.2395918367347	43	127
198.1467120181406	198.34408163265306	47	127
198.25120181405896	198.44857142857143	50	127
198.34408163265306	198.54145124716553	53	127
198.44857142857143	198.6459410430839	48	127
198.44857142857143	198.83170068027212	88	127
198.5530612244898	198.6459410430839	52	127
198.6459410430839	198.83170068027212	48	127
198.738820861678	198.92458049886622	52	127
198.83170068027212	199.09873015873015	55	127
198.92458049886622	199.20321995464852	60	127
199.09873015873015	199.33092970521542	43	127
199.09873015873015	199.47024943310657	86	127
199.2148299319728	199.33092970521542	47	127
199.33092970521542	199.51668934240362	43	127
199.42380952380952	199.64439909297053	47	127
199.47024943310657	199.5863492063492	88	127
199.5282993197279	199.73727891156463	50	127
199.5282993197279	199.64439909297053	86	127
199.64439909297053	199.841768707483	53	127
199.64439909297053	199.73727891156463	84	127
199.73727891156463	199.96947845804988	86	127
199.73727891156463	199.96947845804988	43	127
199.85337868480727	199.96947845804988	55	127
199.96947845804988	200.1552380952381	88	127
199.96947845804988	200.1552380952381	48	127
200.06235827664398	200.28294784580498	52	127
200.16684807256235	200.36421768707484	48	127
200.28294784580498	200.45709750566894	52	127
200.36421768707484	200.57319727891158	40	127
200.36421768707484	200.77056689342405	83	127
200.4687074829932	200.57319727891158	44	127
200.57319727891158	200.77056689342405	40	127
200.66607709750568	200.94471655328798	44	127
200.7821768707483	201.0608163265306	47	127
200.94471655328798	201.1536961451247	50	127
201.0608163265306	201.29301587301586	45	127
201.0608163265306	201.49038548752836	84	127
201.16530612244898	201.29301587301586	48	127
201.29301587301586	201.49038548752836	45	127
201.38589569161	201.61809523809524	48	127
201.5019954648526	201.73419501133787	52	127
201.61809523809524	201.83868480725624	57	127
201.73419501133787	202.21020408163264	83	127
201.73419501133787	201.9780045351474	40	127
201.8502947845805	201.9780045351474	44	127
201.9780045351474	202.21020408163264	40	127
202.1057142857143	202.314693877551	44	127
202.15215419501135	202.26825396825396	84	127
202.2218140589569	202.314693877551	83	127
202.2218140589569	202.41918367346938	47	127
202.314693877551	202.41918367346938	81	127
202.314693877551	202.52367346938775	50	127
202.41918367346938	202.63977324263038	83	127
202.41918367346938	202.63977324263038	40	127
202.53528344671201	202.63977324263038	50	127
202.63977324263038	202.82553287981858	81	127
202.63977324263038	202.82553287981858	45	127
202.7210430839002	202.98807256235827	48	127
202.83714285714285	203.1041723356009	52	127
202.98807256235827	203.20866213151928	57	127
203.1041723356009	203.3247619047619	50	127
203.1041723356009	203.3247619047619	83	127
203.1041723356009	203.3247619047619	71	127
203.22027210884355	203.3247619047619	53	127
203.3247619047619	203.55696145124716	84	127
203.3247619047619	203.55696145124716	72	127
203.3247619047619	203.55696145124716	52	127
203.42925170068028	203.66145124716553	57	127
203.56857142857143	203.7427210884354	56	127
203.66145124716553	203.8356009070295	57	127
203.7427210884354	203.9517006802721	71	127
203.7427210884354	203.9517006802721	83	127
203.7427210884354	203.9517006802721	40	127
203.84721088435373	203.9517006802721	52	127
203.9517006802721	204.21873015873015	69	127
203.9517006802721	204.21873015873015	81	127
203.9517006802721	204.21873015873015	45	127
204.09102040816327	204.32321995464852	48	127
204.23034013605442	204.4277097505669	52	127
204.32321995464852	204.54380952380953	57	127
204.4277097505669	204.6715192743764	83	127
204.4277097505669	204.6715192743764	71	127
204.4277097505669	204.6715192743764	50	127
204.5554195011338	204.6715192743764	53	127
204.6715192743764	204.90371882086168	72	127
204.6715192743764	204.90371882086168	84	127
204.6715192743764	204.90371882086168	52	127
204.77600907029478	205.08947845804988	57	127
204.91532879818595	205.18235827664398	56	127
205.08947845804988	205.2752380952381	57	127
205.18235827664398	205.37972789115645	71	127
205.18235827664398	205.37972789115645	83	127
205.18235827664398	205.37972789115645	40	127
205.28684807256235	205.37972789115645	52	127
205.37972789115645	205.63514739229024	45	127
205.37972789115645	205.63514739229024	69	127
205.37972789115645	205.63514739229024	81	127
205.50743764172336	205.7396371882086	52	127
205.6467573696145	205.8673469387755	48	127
205.7396371882086	205.9602267573696	52	127
205.8673469387755	206.07632653061225	71	127
205.8673469387755	206.07632653061225	83	127
205.8673469387755	206.07632653061225	40	127
205.97183673469388	206.07632653061225	52	127
206.07632653061225	206.26208616780045	69	127
206.07632653061225	206.26208616780045	81	127
206.07632653061225	206.26208616780045	45	127
206.16920634920635	206.37818594104309	52	127
206.27369614512472	206.47106575963718	48	127
206.37818594104309	206.61038548752833	52	127
206.47106575963718	206.70326530612246	71	127
206.47106575963718	206.70326530612246	83	127
206.47106575963718	206.70326530612246	40	127
206.61038548752833	206.70326530612246	52	127
206.70326530612246	206.91224489795917	69	127
206.70326530612246	206.91224489795917	81	127
206.70326530612246	206.91224489795917	45	127
206.80775510204083	207.0283446712018	52	127
206.91224489795917	207.16766439909298	48	127
207.0283446712018	207.3185941043084	52	127
207.16766439909298	207.4114739229025	71	127
207.16766439909298	207.4114739229025	83	127
207.16766439909298	207.4114739229025	40	127
207.3185941043084	207.4114739229025	52	127
207.4114739229025	207.63206349206348	45	127
207.4114739229025	207.63206349206348	69	127
207.4114739229025	207.63206349206348	81	127
207.51596371882087	207.73655328798185	52	127
207.63206349206348	207.88748299319727	48	127
207.73655328798185	208.0035827664399	52	127
207.88748299319727	208.096462585034	40	127
207.88748299319727	208.096462585034	71	127
207.88748299319727	208.096462585034	83	127
208.0035827664399	208.096462585034	52	127
208.096462585034	208.30544217687074	69	127
208.096462585034	208.30544217687074	81	127
208.096462585034	208.30544217687074	45	127
208.30544217687074	208.49120181405897	40	127
208.39832199546484	208.59569160997734	45	127
208.49120181405897	208.68857142857144	83	127
208.49120181405897	208.68857142857144	33	127
208.59569160997734	208.7930612244898	45	127
208.68857142857144	208.9091609977324	40	127
208.68857142857144	208.9091609977324	81	127
208.7930612244898	209.03687074829932	45	127
208.9091609977324	209.15297052154196	33	127
209.03687074829932	209.25746031746033	45	127
209.15297052154196	209.40839002267575	40	127
209.15297052154196	209.40839002267575	71	127
209.25746031746033	209.51287981859412	45	127
209.40839002267575	209.6986394557823	33	127
209.40839002267575	209.6986394557823	69	127
209.51287981859412	209.8263492063492	45	127
209.6986394557823	209.93083900226756	40	127
209.8263492063492	210.05854875283447	45	127
209.93083900226756	210.1746485260771	59	127
209.93083900226756	210.1746485260771	33	127
210.05854875283447	210.29074829931972	45	127
210.1746485260771	210.39523809523808	57	127
210.1746485260771	210.39523809523808	40	127
210.29074829931972	210.4881179138322	45	127
210.39523809523808	210.5809977324263	33	127
210.4881179138322	210.7087074829932	45	127
210.5809977324263	210.82480725623583	47	127
210.5809977324263	210.82480725623583	40	127
210.7087074829932	210.91768707482993	45	127
210.82480725623583	211.0221768707483	45	127
210.82480725623583	211.0221768707483	33	127
211.21954648526076	211.62589569160997	35	127
211.62589569160997	211.84648526077098	33	127
212.0554648526077	212.26444444444445	35	127
212.26444444444445	212.46181405895692	33	127
212.70562358276644	212.96104308390022	35	127
212.96104308390022	213.14680272108845	33	127
213.32095238095238	213.50671201814058	35	127
213.50671201814058	213.70408163265307	33	127
214.1684807256236	214.40068027210884	35	127
214.40068027210884	214.70253968253968	33	127
214.91151927437642	215.12049886621315	35	127
215.12049886621315	215.3294784580499	33	127
215.53845804988663	215.7590476190476	35	127
215.7590476190476	215.9564172335601	33	127
216.2118367346939	216.4556462585034	35	127
216.4556462585034	216.68784580498865	33	127
216.90843537414966	217.1174149659864	35	127
217.12902494331067	217.51215419501133	33	127
217.12902494331067	217.97655328798186	52	127
217.12902494331067	217.97655328798186	49	127
217.7443537414966	217.97655328798186	35	127
217.97655328798186	218.19714285714286	33	127
217.97655328798186	218.62671201814058	50	127
217.97655328798186	218.62671201814058	47	127
218.4293424036281	218.62671201814058	35	127
218.62671201814058	218.87052154195013	33	127
218.62671201814058	219.0678911564626	54	127
218.62671201814058	219.0678911564626	50	127
219.0678911564626	219.27687074829933	49	127
219.0678911564626	219.27687074829933	52	127
219.0678911564626	219.27687074829933	35	127
219.3117006802721	219.41619047619048	33	127
219.3117006802721	219.55551020408163	45	127
219.3117006802721	219.55551020408163	49	127
219.41619047619048	219.55551020408163	35	127
219.55551020408163	219.74126984126985	33	127
219.74126984126985	219.8457596371882	35	127
219.8457596371882	219.9734693877551	33	127
219.98507936507937	220.1940589569161	35	127
220.1940589569161	220.33337868480726	33	127
220.1940589569161	220.43786848072563	64	127
220.1940589569161	220.43786848072563	73	127
220.33337868480726	220.43786848072563	35	127
220.43786848072563	220.5655782312925	33	127
220.43786848072563	220.71650793650792	64	127
220.43786848072563	220.71650793650792	73	127
220.5655782312925	220.71650793650792	35	127
220.71650793650792	220.80938775510205	33	127
220.71650793650792	220.91387755102042	62	127
220.71650793650792	220.91387755102042	71	127
220.80938775510205	220.91387755102042	35	127
220.91387755102042	221.02997732426303	33	127
220.91387755102042	221.1344671201814	62	127
220.91387755102042	221.1344671201814	71	127
221.0415873015873	221.1344671201814	35	127
221.1344671201814	221.23895691609977	33	127
221.1344671201814	221.30861678004536	62	127
221.1344671201814	221.30861678004536	71	127
221.23895691609977	221.30861678004536	35	127
221.30861678004536	221.40149659863945	33	127
221.30861678004536	221.50598639455782	64	127
221.30861678004536	221.50598639455782	73	127
221.40149659863945	221.50598639455782	35	127
221.5175963718821	221.63369614512473	33	127
221.5175963718821	221.7614058956916	66	127
221.5175963718821	221.7614058956916	74	127
221.63369614512473	221.7614058956916	35	127
221.7614058956916	221.87750566893425	33	127
221.7614058956916	221.98199546485262	66	127
221.7614058956916	221.98199546485262	74	127
221.87750566893425	221.98199546485262	35	127
221.98199546485262	222.07487528344672	33	127
221.98199546485262	222.17936507936508	64	127
221.98199546485262	222.17936507936508	73	127
222.08648526077098	222.17936507936508	35	127
222.17936507936508	222.28385487528345	33	127
222.17936507936508	222.37673469387755	64	127
222.17936507936508	222.37673469387755	73	127
222.28385487528345	222.37673469387755	35	127
222.3999546485261	222.4928344671202	33	127
222.3999546485261	222.6089342403628	73	127
222.3999546485261	222.6089342403628	61	127
222.4928344671202	222.6089342403628	35	127
222.6089342403628	222.70181405895693	33	127
222.6089342403628	222.81791383219954	74	127
222.6089342403628	222.81791383219954	62	127
222.70181405895693	222.81791383219954	35	127
222.81791383219954	222.9224036281179	33	127
222.81791383219954	223.09655328798186	76	127
222.81791383219954	223.09655328798186	64	127
222.93401360544217	223.09655328798186	35	127
223.09655328798186	223.2126530612245	33	127
223.09655328798186	223.31714285714287	76	127
223.09655328798186	223.31714285714287	64	127
223.2126530612245	223.31714285714287	35	127
223.31714285714287	223.43324263038548	33	127
223.31714285714287	223.52612244897958	74	127
223.31714285714287	223.52612244897958	62	127
223.43324263038548	223.52612244897958	35	127
223.53773242630385	223.63061224489795	33	127
223.53773242630385	223.74671201814058	74	127
223.53773242630385	223.74671201814058	62	127
223.63061224489795	223.74671201814058	35	127
223.74671201814058	223.86281179138322	33	127
223.74671201814058	223.95569160997732	74	127
223.74671201814058	223.95569160997732	62	127
223.86281179138322	223.95569160997732	35	127
223.95569160997732	224.0601814058957	33	127
223.95569160997732	224.2111111111111	76	127
223.95569160997732	224.2111111111111	64	127
224.0601814058957	224.2111111111111	35	127
224.2111111111111	224.32721088435375	33	127
224.2111111111111	224.44331065759638	78	127
224.2111111111111	224.44331065759638	66	127
224.32721088435375	224.44331065759638	35	127
224.47814058956916	224.58263038548753	33	127
224.47814058956916	224.6871201814059	78	127
224.47814058956916	224.6871201814059	66	127
224.58263038548753	224.6871201814059	35	127
224.6871201814059	224.78	33	127
224.6871201814059	224.88448979591837	76	127
224.6871201814059	224.88448979591837	64	127
224.78	224.88448979591837	35	127
224.88448979591837	225.15151927437643	73	127
224.88448979591837	225.15151927437643	61	127
224.88448979591837	225.15151927437643	33	127
225.3721088435374	225.60430839002268	35	127
225.61591836734695	225.83650793650793	33	127
226.0687074829932	226.27768707482994	35	127
226.27768707482994	226.57954648526078	33	127
226.78852607709752	227.03233560090703	35	127
227.03233560090703	227.28775510204082	33	127
227.49673469387756	227.7289342403628	35	127
227.7289342403628	227.97274376417235	33	127
228.21655328798187	228.41392290249433	35	127
228.41392290249433	228.66934240362812	33	127
228.41392290249433	229.13374149659865	52	127
228.41392290249433	229.13374149659865	49	127
228.9247619047619	229.13374149659865	35	127
229.13374149659865	229.38916099773243	33	127
229.13374149659865	229.83034013605442	50	127
229.13374149659865	229.83034013605442	47	127
229.63297052154195	229.83034013605442	35	127
229.83034013605442	230.05092970521542	33	127
229.83034013605442	230.25990929705216	54	127
229.83034013605442	230.25990929705216	50	127
230.25990929705216	230.4921088435374	49	127
230.25990929705216	230.4921088435374	52	127
230.25990929705216	230.4921088435374	35	127
230.4921088435374	230.59659863945578	33	127
230.4921088435374	230.68947845804988	45	127
230.4921088435374	230.68947845804988	49	127
230.59659863945578	230.68947845804988	35	127
230.70108843537415	230.79396825396825	33	127
230.79396825396825	231.0609977324263	35	127
231.0609977324263	231.17709750566894	33	127
231.17709750566894	231.2815873015873	35	127
231.2815873015873	231.444126984127	33	127
231.2815873015873	231.5370068027211	64	127
231.2815873015873	231.5370068027211	73	127
231.444126984127	231.5370068027211	35	127
231.5370068027211	231.65310657596373	33	127
231.5370068027211	231.74598639455783	64	127
231.5370068027211	231.74598639455783	73	127
231.65310657596373	231.74598639455783	35	127
231.75759637188207	231.8736961451247	33	127
231.75759637188207	231.9665759637188	62	127
231.75759637188207	231.9665759637188	71	127
231.8736961451247	231.9665759637188	35	127
231.9665759637188	232.05945578231294	33	127
231.9665759637188	232.18716553287982	62	127
231.9665759637188	232.18716553287982	71	127
232.05945578231294	232.18716553287982	35	127
232.18716553287982	232.31487528344672	33	127
232.18716553287982	232.4193650793651	62	127
232.18716553287982	232.4193650793651	71	127
232.32648526077097	232.4193650793651	35	127
232.4193650793651	232.54707482993197	33	127
232.4193650793651	232.6283446712018	64	127
232.4193650793651	232.6283446712018	73	127
232.54707482993197	232.6283446712018	35	127
232.6283446712018	232.7908843537415	33	127
232.6283446712018	232.89537414965986	66	127
232.6283446712018	232.89537414965986	74	127
232.7908843537415	232.89537414965986	35	127
232.89537414965986	232.99986394557823	33	127
232.89537414965986	233.16240362811791	66	127
232.89537414965986	233.16240362811791	74	127
232.99986394557823	233.16240362811791	35	127
233.16240362811791	233.255283446712	33	127
233.16240362811791	233.3481632653061	64	127
233.16240362811791	233.3481632653061	73	127
233.26689342403628	233.3481632653061	35	127
233.3481632653061	233.45265306122448	33	127
233.3481632653061	233.55714285714285	64	127
233.3481632653061	233.55714285714285	73	127
233.45265306122448	233.55714285714285	35	127
233.55714285714285	233.65002267573695	33	127
233.55714285714285	233.74290249433108	73	127
233.55714285714285	233.74290249433108	61	127
233.65002267573695	233.74290249433108	35	127
233.75451247165532	233.87061224489796	33	127
233.75451247165532	233.99832199546486	74	127
233.75451247165532	233.99832199546486	62	127
233.87061224489796	233.99832199546486	35	127
233.99832199546486	234.09120181405896	33	127
233.99832199546486	234.19569160997733	76	127
233.99832199546486	234.19569160997733	64	127
234.09120181405896	234.19569160997733	35	127
234.19569160997733	234.28857142857143	33	127
234.19569160997733	234.42789115646258	76	127
234.19569160997733	234.42789115646258	64	127
234.33501133786848	234.42789115646258	35	127
234.42789115646258	234.53238095238095	33	127
234.42789115646258	234.64848072562359	74	127
234.42789115646258	234.64848072562359	62	127
234.53238095238095	234.64848072562359	35	127
234.66009070294785	234.77619047619046	33	127
234.66009070294785	234.88068027210883	74	127
234.66009070294785	234.88068027210883	62	127
234.77619047619046	234.88068027210883	35	127
234.88068027210883	234.97356009070296	33	127
234.88068027210883	235.07804988662133	74	127
234.88068027210883	235.07804988662133	62	127
234.97356009070296	235.07804988662133	35	127
235.07804988662133	235.19414965986394	33	127
235.07804988662133	235.32185941043085	76	127
235.07804988662133	235.32185941043085	64	127
235.21736961451248	235.32185941043085	35	127
235.32185941043085	235.43795918367346	33	127
235.32185941043085	235.53083900226758	78	127
235.32185941043085	235.53083900226758	66	127
235.43795918367346	235.53083900226758	35	127
235.53083900226758	235.63532879818595	33	127
235.53083900226758	235.73981859410432	78	127
235.53083900226758	235.73981859410432	66	127
235.63532879818595	235.73981859410432	35	127
235.75142857142856	235.97201814058957	64	127
235.75142857142856	235.8443083900227	33	127
235.75142857142856	235.97201814058957	76	127
235.8443083900227	235.97201814058957	35	127
235.97201814058957	236.16938775510204	73	127
235.97201814058957	236.16938775510204	61	127
235.97201814058957	236.16938775510204	33	127
236.6570068027211	237.3187755102041	68	127
236.6570068027211	237.3187755102041	64	127
237.3187755102041	238.1314739229025	63	127
237.3187755102041	238.1314739229025	66	127
238.1314739229025	238.58426303854876	66	127
238.1314739229025	238.58426303854876	69	127
238.58426303854876	238.82807256235827	64	127
238.58426303854876	238.82807256235827	68	127
238.83968253968254	239.58272108843536	68	127
238.83968253968254	239.58272108843536	64	127
239.58272108843536	240.31414965986394	76	127
239.58272108843536	240.31414965986394	68	127
239.58272108843536	240.31414965986394	80	127
239.58272108843536	240.31414965986394	64	127
240.31414965986394	241.03396825396825	63	127
240.31414965986394	241.03396825396825	75	127
240.31414965986394	241.03396825396825	78	127
240.31414965986394	241.03396825396825	66	127
241.0571882086168	241.4867573696145	78	127
241.0571882086168	241.4867573696145	81	127
241.0571882086168	241.4867573696145	66	127
241.0571882086168	241.4867573696145	69	127
241.4867573696145	241.84666666666666	76	127
241.4867573696145	241.84666666666666	80	127
241.4867573696145	241.84666666666666	64	127
241.4867573696145	241.84666666666666	68	127
241.84666666666666	242.50843537414966	80	127
241.84666666666666	242.50843537414966	76	127
241.84666666666666	242.50843537414966	64	127
241.84666666666666	242.50843537414966	68	127
242.50843537414966	242.72902494331066	68	127
242.50843537414966	242.72902494331066	76	127
242.50843537414966	242.72902494331066	80	127
242.50843537414966	242.72902494331066	88	127
242.50843537414966	242.72902494331066	64	127
242.72902494331066	242.92639455782313	68	127
242.72902494331066	242.92639455782313	76	127
242.72902494331066	242.92639455782313	80	127
242.72902494331066	242.92639455782313	88	127
242.72902494331066	242.92639455782313	64	127
242.92639455782313	243.18181405895692	76	127
242.92639455782313	243.18181405895692	80	127
242.92639455782313	243.18181405895692	88	127
242.92639455782313	243.18181405895692	64	127
242.92639455782313	243.18181405895692	68	127
243.1934240362812	243.46045351473924	75	127
243.1934240362812	243.46045351473924	78	127
243.1934240362812	243.46045351473924	87	127
243.1934240362812	243.46045351473924	59	127
243.1934240362812	243.46045351473924	63	127
243.1934240362812	243.46045351473924	66	127
243.46045351473924	243.66943310657595	75	127
243.46045351473924	243.66943310657595	78	127
243.46045351473924	243.66943310657595	87	127
243.46045351473924	243.66943310657595	59	127
243.46045351473924	243.66943310657595	63	127
243.46045351473924	243.66943310657595	66	127
243.66943310657595	243.86680272108845	75	127
243.66943310657595	243.86680272108845	78	127
243.66943310657595	243.86680272108845	87	127
243.66943310657595	243.86680272108845	59	127
243.66943310657595	243.86680272108845	63	127
243.66943310657595	243.86680272108845	66	127
243.86680272108845	244.0990022675737	47	127
243.86680272108845	244.0990022675737	78	127
243.86680272108845	244.0990022675737	81	127
243.86680272108845	244.0990022675737	90	127
243.86680272108845	244.0990022675737	51	127
243.86680272108845	244.0990022675737	54	127
243.86680272108845	244.0990022675737	59	127
244.11061224489796	244.35442176870748	78	127
244.11061224489796	244.35442176870748	81	127
244.11061224489796	244.35442176870748	90	127
244.11061224489796	244.35442176870748	47	127
244.11061224489796	244.35442176870748	51	127
244.11061224489796	244.35442176870748	54	127
244.11061224489796	244.35442176870748	59	127
244.35442176870748	244.58662131519273	78	127
244.35442176870748	244.58662131519273	81	127
244.35442176870748	244.58662131519273	90	127
244.35442176870748	244.58662131519273	47	127
244.35442176870748	244.58662131519273	51	127
244.35442176870748	244.58662131519273	54	127
244.35442176870748	244.58662131519273	59	127
245.2251700680272	245.53863945578232	62	127
245.2251700680272	245.53863945578232	56	127
245.2251700680272	245.53863945578232	76	127
245.2251700680272	245.53863945578232	80	127
245.2251700680272	245.53863945578232	88	127
245.2251700680272	245.53863945578232	52	127
245.2251700680272	245.53863945578232	59	127
245.53863945578232	245.80566893424037	76	127
245.53863945578232	245.80566893424037	80	127
245.53863945578232	245.80566893424037	88	127
245.53863945578232	245.80566893424037	52	127
245.53863945578232	245.80566893424037	56	127
245.53863945578232	245.80566893424037	59	127
245.53863945578232	245.80566893424037	62	127
245.80566893424037	245.99142857142857	62	127
245.80566893424037	245.99142857142857	76	127
245.80566893424037	245.99142857142857	80	127
245.80566893424037	245.99142857142857	88	127
245.80566893424037	245.99142857142857	52	127
245.80566893424037	245.99142857142857	56	127
245.80566893424037	245.99142857142857	59	127
248.84748299319727	248.97519274376418	76	127
248.84748299319727	248.97519274376418	64	127
248.97519274376418	249.07968253968255	78	127
248.97519274376418	249.07968253968255	66	127
249.07968253968255	249.17256235827665	64	127
249.07968253968255	249.17256235827665	76	127
249.17256235827665	249.26544217687075	78	127
249.17256235827665	249.26544217687075	66	127
249.27705215419502	249.3815419501134	76	127
249.27705215419502	249.3815419501134	64	127
249.3815419501134	249.50925170068027	78	127
249.3815419501134	249.50925170068027	66	127
249.50925170068027	249.60213151927437	74	127
249.50925170068027	249.60213151927437	62	127
249.60213151927437	249.74145124716554	76	127
249.60213151927437	249.74145124716554	64	127
249.74145124716554	249.83433106575964	74	127
249.74145124716554	249.83433106575964	62	127
249.8459410430839	249.9736507936508	76	127
249.8459410430839	249.9736507936508	64	127
249.9736507936508	250.11297052154194	74	127
249.9736507936508	250.11297052154194	62	127
250.11297052154194	250.2174603174603	76	127
250.11297052154194	250.2174603174603	64	127
250.2174603174603	250.43804988662131	73	127
250.2174603174603	250.43804988662131	61	127
250.89083900226757	251.62226757369615	52	127
250.89083900226757	251.62226757369615	64	127
250.89083900226757	251.62226757369615	73	127
250.89083900226757	251.62226757369615	61	127
251.62226757369615	252.30725623582765	62	127
251.62226757369615	252.30725623582765	71	127
251.62226757369615	252.30725623582765	59	127
251.62226757369615	252.30725623582765	50	127
252.31886621315192	252.85292517006803	62	127
252.31886621315192	252.85292517006803	54	127
252.31886621315192	252.85292517006803	66	127
252.31886621315192	252.85292517006803	74	127
252.85292517006803	253.15478458049887	61	127
252.85292517006803	253.15478458049887	64	127
252.85292517006803	253.15478458049887	73	127
252.85292517006803	253.15478458049887	52	127
253.15478458049887	253.8629931972789	61	127
253.15478458049887	253.8629931972789	64	127
253.15478458049887	253.8629931972789	73	127
253.15478458049887	253.8629931972789	52	127
253.8629931972789	254.5944217687075	61	127
253.8629931972789	254.5944217687075	73	127
253.8629931972789	254.5944217687075	76	127
253.8629931972789	254.5944217687075	64	127
254.60603174603173	255.32585034013604	62	127
254.60603174603173	255.32585034013604	71	127
254.60603174603173	255.32585034013604	74	127
254.60603174603173	255.32585034013604	59	127
255.32585034013604	255.85990929705216	62	127
255.32585034013604	255.85990929705216	66	127
255.32585034013604	255.85990929705216	74	127
255.32585034013604	255.85990929705216	78	127
255.91795918367347	256.20820861678004	76	127
255.91795918367347	256.20820861678004	64	127
255.91795918367347	256.20820861678004	61	127
255.91795918367347	256.20820861678004	73	127
256.20820861678004	256.9860544217687	57	127
256.20820861678004	256.9860544217687	69	127
256.20820861678004	256.9860544217687	73	127
256.20820861678004	256.9860544217687	61	127
256.9976870748299	257.19503401360544	52	127
256.9976870748299	257.19503401360544	64	127
256.9976870748299	257.19503401360544	73	127
256.9976870748299	257.19503401360544	61	127
257.19503401360544	257.4156462585034	64	127
257.19503401360544	257.4156462585034	73	127
257.19503401360544	257.4156462585034	61	127
257.19503401360544	257.4156462585034	52	127
257.4156462585034	257.6362358276644	62	127
257.4156462585034	257.6362358276644	71	127
257.4156462585034	257.6362358276644	50	127
257.4156462585034	257.6362358276644	59	127
257.6362358276644	257.88004535147394	62	127
257.6362358276644	257.88004535147394	71	127
257.6362358276644	257.88004535147394	50	127
257.6362358276644	257.88004535147394	59	127
257.88004535147394	258.06580498866214	62	127
257.88004535147394	258.06580498866214	71	127
257.88004535147394	258.06580498866214	50	127
257.88004535147394	258.06580498866214	59	127
258.06580498866214	258.2631746031746	64	127
258.06580498866214	258.2631746031746	73	127
258.06580498866214	258.2631746031746	52	127
258.06580498866214	258.2631746031746	61	127
258.2631746031746	258.4605442176871	66	127
258.2631746031746	258.4605442176871	74	127
258.2631746031746	258.4605442176871	54	127
258.2631746031746	258.4605442176871	62	127
258.4605442176871	258.7159637188209	66	127
258.4605442176871	258.7159637188209	74	127
258.4605442176871	258.7159637188209	54	127
258.4605442176871	258.7159637188209	62	127
258.7159637188209	258.9946031746032	64	127
258.7159637188209	258.9946031746032	73	127
258.7159637188209	258.9946031746032	52	127
258.7159637188209	258.9946031746032	61	127
259.00621315192745	259.2732426303855	64	127
259.00621315192745	259.2732426303855	73	127
259.00621315192745	259.2732426303855	52	127
259.00621315192745	259.2732426303855	61	127
259.2732426303855	259.47061224489795	64	127
259.2732426303855	259.47061224489795	73	127
259.2732426303855	259.47061224489795	52	127
259.2732426303855	259.47061224489795	61	127
259.47061224489795	259.69120181405896	71	127
259.47061224489795	259.69120181405896	74	127
259.47061224489795	259.69120181405896	59	127
259.47061224489795	259.69120181405896	62	127
259.69120181405896	259.91179138321996	73	127
259.69120181405896	259.91179138321996	76	127
259.69120181405896	259.91179138321996	61	127
259.69120181405896	259.91179138321996	64	127
259.92340136054423	260.22526077097507	73	127
259.92340136054423	260.22526077097507	76	127
259.92340136054423	260.22526077097507	61	127
259.92340136054423	260.22526077097507	64	127
260.22526077097507	260.45746031746035	62	127
260.22526077097507	260.45746031746035	74	127
260.22526077097507	260.45746031746035	71	127
260.22526077097507	260.45746031746035	59	127
260.45746031746035	260.6780498866213	71	127
260.45746031746035	260.6780498866213	74	127
260.45746031746035	260.6780498866213	59	127
260.45746031746035	260.6780498866213	62	127
260.6780498866213	260.92185941043084	74	127
260.6780498866213	260.92185941043084	71	127
260.6780498866213	260.92185941043084	59	127
260.6780498866213	260.92185941043084	62	127
260.92185941043084	261.14244897959185	73	127
260.92185941043084	261.14244897959185	76	127
260.92185941043084	261.14244897959185	61	127
260.92185941043084	261.14244897959185	64	127
261.1540589569161	261.3862358276644	74	127
261.1540589569161	261.3862358276644	78	127
261.1540589569161	261.3862358276644	62	127
261.1540589569161	261.3862358276644	66	127
261.3862358276644	261.5720181405896	74	127
261.3862358276644	261.5720181405896	78	127
261.3862358276644	261.5720181405896	62	127
261.3862358276644	261.5720181405896	66	127
261.5720181405896	261.82743764172335	73	127
261.5720181405896	261.82743764172335	76	127
261.5720181405896	261.82743764172335	61	127
261.5720181405896	261.82743764172335	64	127
261.82743764172335	262.0712471655329	69	127
261.82743764172335	262.0712471655329	73	127
261.82743764172335	262.0712471655329	57	127
261.82743764172335	262.0712471655329	61	127
262.08285714285716	262.32666666666665	74	127
262.08285714285716	262.32666666666665	78	127
262.08285714285716	262.32666666666665	62	127
262.08285714285716	262.32666666666665	66	127
262.32666666666665	262.54725623582766	73	127
262.32666666666665	262.54725623582766	76	127
262.32666666666665	262.54725623582766	61	127
262.32666666666665	262.54725623582766	64	127
262.54725623582766	262.8026757369615	57	127
262.54725623582766	262.8026757369615	69	127
262.54725623582766	262.8026757369615	73	127
262.54725623582766	262.8026757369615	61	127
262.8026757369615	263.0116553287982	74	127
262.8026757369615	263.0116553287982	78	127
262.8026757369615	263.0116553287982	62	127
262.8026757369615	263.0116553287982	66	127
263.0116553287982	263.22061224489795	73	127
263.0116553287982	263.22061224489795	76	127
263.0116553287982	263.22061224489795	61	127
263.0116553287982	263.22061224489795	64	127
263.22061224489795	263.4180045351474	69	127
263.22061224489795	263.4180045351474	73	127
263.22061224489795	263.4180045351474	57	127
263.22061224489795	263.4180045351474	61	127
263.4180045351474	263.68503401360545	74	127
263.4180045351474	263.68503401360545	78	127
263.4180045351474	263.68503401360545	62	127
263.4180045351474	263.68503401360545	66	127
263.68503401360545	263.8824036281179	73	127
263.68503401360545	263.8824036281179	76	127
263.68503401360545	263.8824036281179	61	127
263.68503401360545	263.8824036281179	64	127
263.8824036281179	264.1029931972789	69	127
263.8824036281179	264.1029931972789	73	127
263.8824036281179	264.1029931972789	57	127
263.8824036281179	264.1029931972789	61	127
264.1610430839002	264.40485260770976	74	127
264.1610430839002	264.40485260770976	78	127
264.1610430839002	264.40485260770976	62	127
264.1610430839002	264.40485260770976	66	127
264.40485260770976	264.6951020408163	73	127
264.40485260770976	264.6951020408163	76	127
264.40485260770976	264.6951020408163	61	127
264.40485260770976	264.6951020408163	64	127
264.6951020408163	264.8924716553288	69	127
264.6951020408163	264.8924716553288	73	127
264.6951020408163	264.8924716553288	57	127
264.6951020408163	264.8924716553288	61	127
265.3452607709751	265.6122902494331	64	127
265.3452607709751	265.6122902494331	69	127
265.3452607709751	265.6122902494331	73	127
265.3452607709751	265.6122902494331	52	127
265.3452607709751	265.6122902494331	57	127
265.3452607709751	265.6122902494331	61	127
266.0302494331066	266.3321088435374	61	127
266.0302494331066	266.3321088435374	64	127
266.0302494331066	266.3321088435374	69	127
266.0302494331066	266.3321088435374	73	127
266.0302494331066	266.3321088435374	52	127
266.0302494331066	266.3321088435374	57	127
266.80809523809523	267.04031746031745	64	127
266.80809523809523	267.04031746031745	69	127
266.80809523809523	267.04031746031745	73	127
266.80809523809523	267.04031746031745	52	127
266.80809523809523	267.04031746031745	57	127
266.80809523809523	267.04031746031745	61	127
267.4698866213152	267.66725623582767	69	127
267.4698866213152	267.66725623582767	73	127
267.4698866213152	267.66725623582767	52	127
267.4698866213152	267.66725623582767	57	127
267.4698866213152	267.66725623582767	61	127
267.4698866213152	267.66725623582767	64	127
267.8762358276644	268.1897052154195	35	127
268.1897052154195	268.4799546485261	33	127
268.7237641723356	268.93274376417236	35	127
268.93274376417236	269.1649433106576	33	127
269.4087528344671	269.62934240362813	35	127
269.62934240362813	269.9079818594104	33	127
270.15179138322	270.4652607709751	35	127
270.4652607709751	270.66263038548755	33	127
270.8716099773243	271.2779591836735	64	127
271.4985487528345	271.78879818594106	35	127
271.78879818594106	272.0558276643991	33	127
272.28802721088437	272.7291836734694	64	127
272.92657596371885	273.1355555555556	35	127
273.1355555555556	273.3677551020408	33	127
273.5883446712018	274.0063038548753	64	127
274.2617006802721	274.6912925170068	64	127
274.9931519274376	275.46916099773244	64	127
275.7013378684807	276.15414965986395	64	127
275.9451700680272	276.15414965986395	57	127
275.9451700680272	276.15414965986395	60	127
276.37473922902495	276.7694784580499	69	127
276.60693877551023	276.7694784580499	57	127
276.60693877551023	276.7694784580499	60	127
277.0481179138322	277.50090702947847	71	127
277.2687074829932	277.50090702947847	52	127
277.2687074829932	277.50090702947847	56	127
277.2687074829932	277.50090702947847	59	127
277.50090702947847	277.68666666666667	52	127
277.50090702947847	277.59378684807257	72	127
277.50090702947847	277.68666666666667	56	127
277.50090702947847	277.68666666666667	59	127
277.5473469387755	277.64020408163265	71	127
277.59378684807257	277.68666666666667	69	127
277.68666666666667	277.95367346938775	71	127
277.68666666666667	277.95367346938775	52	127
277.68666666666667	277.95367346938775	56	127
277.68666666666667	277.95367346938775	59	127
277.95367346938775	278.23233560090705	60	127
277.95367346938775	278.23233560090705	72	127
277.95367346938775	278.23233560090705	57	127
278.47614512471654	278.96374149659863	74	127
278.7431746031746	278.96374149659863	55	127
278.7431746031746	278.96374149659863	59	127
278.7431746031746	278.96374149659863	62	127
279.1495238095238	279.6139229024943	76	127
279.4049433106576	279.6139229024943	60	127
279.4049433106576	279.6139229024943	64	127
279.86934240362814	280.0783219954649	74	127
279.86934240362814	280.0783219954649	55	127
279.86934240362814	280.0783219954649	59	127
280.0783219954649	280.2640816326531	60	127
280.0783219954649	280.171201814059	74	127
280.0783219954649	280.2640816326531	57	127
280.1247619047619	280.2640816326531	72	127
280.2640816326531	280.5078684807256	71	127
280.2640816326531	280.5078684807256	52	127
280.2640816326531	280.5078684807256	56	127
280.5078684807256	280.72848072562357	45	127
280.5078684807256	280.72848072562357	69	127
280.5078684807256	280.72848072562357	57	127
280.72848072562357	280.96068027210885	71	127
280.72848072562357	280.96068027210885	52	127
280.72848072562357	280.96068027210885	56	127
280.96068027210885	281.2044897959184	69	127
280.96068027210885	281.2044897959184	45	127
280.96068027210885	281.2044897959184	57	127
281.40185941043086	281.62242630385487	57	127
281.40185941043086	281.62242630385487	60	127
281.40185941043086	281.62242630385487	64	127
281.40185941043086	281.62242630385487	45	127
281.40185941043086	281.62242630385487	48	127
281.40185941043086	281.62242630385487	52	127
281.99396825396826	282.36548752834466	57	127
281.99396825396826	282.36548752834466	60	127
281.99396825396826	282.36548752834466	64	127
281.99396825396826	282.36548752834466	69	127
281.99396825396826	282.36548752834466	45	127
281.99396825396826	282.36548752834466	48	127
281.99396825396826	282.36548752834466	52	127
282.8066666666667	283.00403628117914	59	127
282.8066666666667	283.00403628117914	64	127
282.8066666666667	283.00403628117914	68	127
282.8066666666667	283.00403628117914	71	127
282.8066666666667	283.00403628117914	40	127
282.8066666666667	283.00403628117914	52	127
283.0156462585034	283.2362358276644	52	127
283.0156462585034	283.2362358276644	59	127
283.0156462585034	283.2362358276644	64	127
283.0156462585034	283.2362358276644	68	127
283.0156462585034	283.2362358276644	71	127
283.0156462585034	283.2362358276644	40	127
283.2362358276644	283.44521541950115	71	127
283.2362358276644	283.44521541950115	59	127
283.2362358276644	283.44521541950115	64	127
283.2362358276644	283.44521541950115	68	127
283.2362358276644	283.44521541950115	40	127
283.2362358276644	283.44521541950115	52	127
283.44521541950115	283.78190476190474	60	127
283.44521541950115	283.78190476190474	64	127
283.44521541950115	283.78190476190474	69	127
283.44521541950115	283.78190476190474	72	127
283.44521541950115	283.78190476190474	45	127
283.44521541950115	283.78190476190474	48	127
283.44521541950115	283.78190476190474	52	127
283.44521541950115	283.78190476190474	57	127
284.2114739229025	284.45528344671203	50	127
284.2114739229025	284.45528344671203	62	127
284.2114739229025	284.45528344671203	67	127
284.2114739229025	284.45528344671203	71	127
284.2114739229025	284.45528344671203	74	127
284.2114739229025	284.45528344671203	43	127
284.2114739229025	284.45528344671203	47	127
284.2114739229025	284.45528344671203	55	127
284.80356009070294	285.0125623582766	67	127
284.80356009070294	285.0125623582766	72	127
284.80356009070294	285.0125623582766	76	127
284.80356009070294	285.0125623582766	48	127
284.80356009070294	285.0125623582766	52	127
284.80356009070294	285.0125623582766	55	127
284.80356009070294	285.0125623582766	60	127
284.80356009070294	285.0125623582766	64	127
285.2795918367347	285.4769614512472	55	127
285.48857142857145	285.6859410430839	57	127
285.6859410430839	285.9413605442177	68	127
285.6859410430839	285.9413605442177	62	127
285.6859410430839	285.9413605442177	52	127
285.9413605442177	286.1503401360544	60	127
285.9413605442177	286.1503401360544	69	127
285.9413605442177	286.1503401360544	45	127
286.1619501133787	286.3825396825397	62	127
286.1619501133787	286.3825396825397	68	127
286.1619501133787	286.3825396825397	52	127
286.3825396825397	286.61473922902496	60	127
286.3825396825397	286.61473922902496	69	127
286.3825396825397	286.61473922902496	45	127
286.61473922902496	287.0559183673469	77	127
286.84691609977324	287.0559183673469	53	127
286.84691609977324	287.0559183673469	50	127
286.84691609977324	287.0559183673469	57	127
286.84691609977324	287.0559183673469	62	127
287.29972789115646	287.79895691609977	67	127
287.53192743764174	287.79895691609977	55	127
287.53192743764174	287.79895691609977	59	127
287.53192743764174	287.79895691609977	62	127
288.15886621315195	288.3562358276644	60	127
288.3562358276644	288.5419954648526	65	127
288.3562358276644	288.5419954648526	71	127
288.3562358276644	288.5419954648526	55	127
288.5419954648526	288.75097505668936	64	127
288.5419954648526	288.75097505668936	72	127
288.5419954648526	288.75097505668936	48	127
288.75097505668936	289.0412244897959	65	127
288.75097505668936	289.0412244897959	71	127
288.75097505668936	289.0412244897959	55	127
289.0412244897959	289.25020408163266	64	127
289.0412244897959	289.25020408163266	72	127
289.0412244897959	289.25020408163266	48	127
289.26181405895693	289.7262131519274	74	127
289.5404535147392	289.7262131519274	50	127
289.5404535147392	289.7262131519274	53	127
289.5404535147392	289.7262131519274	59	127
289.97002267573697	290.3995918367347	64	127
290.16739229024944	290.3995918367347	52	127
290.16739229024944	290.3995918367347	56	127
290.16739229024944	290.3995918367347	59	127
290.8175510204082	291.0497505668934	57	127
291.0497505668934	291.23548752834466	62	127
291.0497505668934	291.23548752834466	68	127
291.0497505668934	291.23548752834466	52	127
291.23548752834466	291.4677097505669	69	127
291.23548752834466	291.4677097505669	60	127
291.23548752834466	291.4677097505669	45	127
291.4677097505669	291.69990929705216	62	127
291.4677097505669	291.69990929705216	68	127
291.4677097505669	291.69990929705216	52	127
291.69990929705216	291.9437188208617	45	127
291.69990929705216	291.9437188208617	60	127
291.69990929705216	291.9437188208617	69	127
291.9437188208617	292.38489795918366	77	127
292.19913832199546	292.38489795918366	50	127
292.19913832199546	292.38489795918366	57	127
292.19913832199546	292.38489795918366	62	127
292.19913832199546	292.38489795918366	53	127
292.6403174603175	293.0698866213152	67	127
292.87249433106575	293.0698866213152	55	127
292.87249433106575	293.0698866213152	59	127
292.87249433106575	293.0698866213152	62	127
293.325306122449	293.812925170068	76	127
293.5807256235828	293.812925170068	64	127
293.5807256235828	293.812925170068	60	127
294.0683446712018	294.50950113378684	79	127
294.27732426303857	294.50950113378684	58	127
294.27732426303857	294.50950113378684	61	127
294.27732426303857	294.50950113378684	64	127
294.27732426303857	294.50950113378684	67	127
294.74172335600906	295.136462585034	83	127
294.93909297052153	295.136462585034	59	127
294.93909297052153	295.136462585034	64	127
294.93909297052153	295.136462585034	67	127
295.3918820861678	295.8678911564626	83	127
295.64730158730157	295.8678911564626	47	127
295.64730158730157	295.8678911564626	51	127
295.64730158730157	295.8678911564626	54	127
295.64730158730157	295.8678911564626	59	127
296.1117006802721	296.3090702947846	75	127
296.1117006802721	296.3090702947846	63	127
296.3090702947846	296.55285714285714	76	127
296.3090702947846	296.55285714285714	64	127
296.55285714285714	296.7734693877551	66	127
296.55285714285714	296.7734693877551	78	127
296.78507936507935	296.9824489795918	67	127
296.78507936507935	296.9824489795918	79	127
296.9824489795918	297.20303854875283	78	127
296.9824489795918	297.20303854875283	66	127
297.20303854875283	297.42362811791384	76	127
297.20303854875283	297.42362811791384	64	127
297.42362811791384	297.60938775510203	78	127
297.42362811791384	297.60938775510203	66	127
297.60938775510203	297.86480725623585	67	127
297.60938775510203	297.86480725623585	79	127
297.60938775510203	298.3175963718821	47	127
297.86480725623585	298.1318367346939	66	127
297.86480725623585	298.1318367346939	78	127
298.1318367346939	298.3175963718821	79	127
298.1318367346939	298.3175963718821	67	127
298.3175963718821	298.5381859410431	81	127
298.3175963718821	299.08385487528346	39	127
298.3175963718821	298.5381859410431	69	127
298.5381859410431	298.8168253968254	79	127
298.5381859410431	298.8168253968254	67	127
298.8168253968254	299.08385487528346	66	127
298.8168253968254	299.08385487528346	78	127
299.08385487528346	299.2928344671202	76	127
299.08385487528346	299.2928344671202	64	127
299.08385487528346	299.2928344671202	40	127
299.30444444444447	299.49020408163267	66	127
299.30444444444447	299.49020408163267	78	127
299.49020408163267	299.72238095238095	67	127
299.49020408163267	299.72238095238095	79	127
299.72238095238095	299.9313605442177	66	127
299.72238095238095	299.9313605442177	78	127
299.9429931972789	300.12873015873015	64	127
299.9429931972789	300.12873015873015	76	127
300.12873015873015	300.36095238095237	78	127
300.12873015873015	300.36095238095237	66	127
300.36095238095237	300.59315192743765	79	127
300.36095238095237	300.59315192743765	67	127
300.6163718820862	300.8021315192744	78	127
300.6163718820862	300.8021315192744	66	127
300.8021315192744	301.0111111111111	79	127
300.8021315192744	301.0111111111111	67	127
301.0111111111111	301.2433106575964	80	127
301.0111111111111	301.2433106575964	68	127
301.2433106575964	301.5103401360544	78	127
301.2433106575964	301.5103401360544	66	127
301.5103401360544	301.7077097505669	80	127
301.5103401360544	301.7077097505669	68	127
301.7077097505669	302.4391383219955	52	127
301.7077097505669	301.93990929705217	81	127
301.7077097505669	301.93990929705217	69	127
301.93990929705217	302.1604988662132	71	127
301.93990929705217	302.1604988662132	83	127
302.1604988662132	302.4391383219955	84	127
302.1604988662132	302.4391383219955	72	127
302.45074829931974	302.63650793650794	83	127
302.45074829931974	302.63650793650794	71	127
302.45074829931974	303.0544671201814	44	127
302.63650793650794	302.85709750566895	69	127
302.63650793650794	302.85709750566895	81	127
302.85709750566895	303.0544671201814	71	127
302.85709750566895	303.0544671201814	83	127
303.0660770975057	303.29825396825396	84	127
303.0660770975057	303.29825396825396	45	127
303.0660770975057	303.29825396825396	72	127
303.29825396825396	303.6233560090703	71	127
303.29825396825396	303.6233560090703	83	127
303.6233560090703	303.80909297052153	84	127
303.6233560090703	303.80909297052153	72	127
303.82072562358275	304.01807256235827	86	127
303.82072562358275	304.01807256235827	74	127
304.01807256235827	304.2502947845805	84	127
304.01807256235827	304.2502947845805	72	127
304.2502947845805	304.4592743764172	71	127
304.2502947845805	304.4592743764172	83	127
304.4592743764172	305.16748299319727	40	127
304.4592743764172	304.7263038548753	81	127
304.4592743764172	304.7263038548753	69	127
304.4592743764172	305.16748299319727	52	127
304.7263038548753	304.94689342403626	71	127
304.7263038548753	304.94689342403626	83	127
304.94689342403626	305.16748299319727	84	127
304.94689342403626	305.16748299319727	72	127
305.16748299319727	305.8292517006803	44	127
305.16748299319727	305.3880725623583	83	127
305.16748299319727	305.3880725623583	71	127
305.16748299319727	305.8292517006803	32	127
305.3880725623583	305.6086621315193	81	127
305.3880725623583	305.6086621315193	69	127
305.6086621315193	305.8292517006803	71	127
305.6086621315193	305.8292517006803	83	127
305.8292517006803	306.02662131519276	72	127
305.8292517006803	306.479410430839	33	127
305.8292517006803	306.479410430839	45	127
305.8292517006803	306.02662131519276	84	127
306.02662131519276	306.2820408163265	83	127
306.02662131519276	306.2820408163265	71	127
306.2936507936508	306.479410430839	84	127
306.2936507936508	306.479410430839	72	127
306.479410430839	306.7	85	127
306.479410430839	306.7	73	127
306.479410430839	307.0831065759637	43	127
306.479410430839	307.0831065759637	31	127
306.7	306.89736961451246	84	127
306.7	306.89736961451246	72	127
306.9089795918367	307.0831065759637	73	127
306.9089795918367	307.0831065759637	85	127
307.0831065759637	307.2688888888889	74	127
307.0831065759637	307.8261678004535	42	127
307.0831065759637	307.8261678004535	30	127
307.0831065759637	307.2688888888889	86	127
307.2688888888889	307.52430839002267	73	127
307.2688888888889	307.52430839002267	85	127
307.53591836734694	307.8261678004535	86	127
307.53591836734694	307.8261678004535	74	127
307.8261678004535	308.023537414966	90	127
307.8261678004535	308.023537414966	78	127
307.8261678004535	308.4298866213152	48	127
307.8261678004535	308.4298866213152	36	127
308.023537414966	308.22090702947844	89	127
308.023537414966	308.22090702947844	77	127
308.22090702947844	308.4298866213152	78	127
308.22090702947844	308.4298866213152	90	127
308.4298866213152	308.7201133786848	79	127
308.4298866213152	308.7201133786848	91	127
308.4298866213152	309.1380952380952	47	127
308.4298866213152	309.1380952380952	35	127
308.7201133786848	308.94072562358275	90	127
308.7201133786848	308.94072562358275	78	127
308.94072562358275	309.1380952380952	91	127
308.94072562358275	309.1380952380952	79	127
309.1380952380952	309.3702947845805	83	127
309.1380952380952	309.3702947845805	71	127
309.1380952380952	309.78825396825397	52	127
309.1380952380952	309.78825396825397	40	127
309.3702947845805	309.56766439909296	69	127
309.3702947845805	309.56766439909296	81	127
309.56766439909296	309.78825396825397	83	127
309.56766439909296	309.78825396825397	71	127
309.78825396825397	310.0320634920635	84	127
309.78825396825397	310.0320634920635	72	127
309.78825396825397	310.0320634920635	52	127
309.78825396825397	310.0320634920635	40	127
310.0436507936508	310.2526303854875	79	127
310.0436507936508	310.2526303854875	43	127
310.2526303854875	310.46160997732426	76	127
310.2526303854875	310.46160997732426	48	127
310.46160997732426	310.67061224489794	81	127
310.46160997732426	310.67061224489794	41	127
310.6822222222222	310.8795918367347	77	127
310.6822222222222	310.8795918367347	45	127
310.8795918367347	311.0769387755102	74	127
310.8795918367347	311.0769387755102	50	127
311.0769387755102	311.37879818594104	79	127
311.0769387755102	311.37879818594104	43	127
311.37879818594104	311.56458049886623	76	127
311.37879818594104	311.56458049886623	48	127
311.56458049886623	311.75034013605443	72	127
311.56458049886623	311.75034013605443	52	127
312.52820861678003	312.69074829931975	79	127
312.52820861678003	312.69074829931975	43	127
312.69074829931975	312.8997278911565	74	127
312.69074829931975	312.8997278911565	50	127
312.8997278911565	313.143537414966	71	127
312.8997278911565	313.143537414966	43	127
312.8997278911565	313.143537414966	50	127
312.8997278911565	313.143537414966	53	127
313.72401360544217	314.20004535147393	67	127
314.00267573696146	314.20004535147393	60	127
314.00267573696146	314.20004535147393	64	127
314.4322448979592	314.91986394557824	72	127
314.69927437641724	314.91986394557824	60	127
314.69927437641724	314.91986394557824	64	127
315.128843537415	315.6512925170068	74	127
315.47714285714284	315.6512925170068	65	127
315.47714285714284	315.6512925170068	55	127
315.47714285714284	315.6512925170068	59	127
315.47714285714284	315.6512925170068	62	127
315.6512925170068	315.87185941043083	55	127
315.6512925170068	315.87185941043083	62	127
315.6512925170068	315.87185941043083	65	127
315.6512925170068	315.7441723356009	76	127
315.6512925170068	315.87185941043083	59	127
315.69773242630384	315.79061224489794	74	127
315.7441723356009	315.87185941043083	72	127
315.87185941043083	316.0692517006803	74	127
315.87185941043083	316.0692517006803	55	127
315.87185941043083	316.0692517006803	59	127
315.87185941043083	316.0692517006803	62	127
315.87185941043083	316.0692517006803	65	127
316.0692517006803	316.27823129251703	76	127
316.0692517006803	316.27823129251703	64	127
316.0692517006803	316.27823129251703	60	127
316.498820861678	316.76585034013607	59	127
316.498820861678	316.76585034013607	43	127
316.498820861678	316.76585034013607	53	127
316.76585034013607	316.96321995464854	43	127
316.76585034013607	316.96321995464854	53	127
316.76585034013607	316.96321995464854	59	127
316.96321995464854	317.2070068027211	43	127
316.96321995464854	317.2070068027211	53	127
316.96321995464854	317.1025170068027	60	127
317.05609977324264	317.160589569161	59	127
317.1025170068027	317.2070068027211	57	127
317.2186394557823	317.4159863945578	59	127
317.2186394557823	317.4159863945578	43	127
317.2186394557823	317.4159863945578	53	127
317.4159863945578	317.68303854875285	60	127
317.4159863945578	317.68303854875285	48	127
317.4159863945578	317.68303854875285	52	127
317.90362811791385	318.12419501133786	71	127
318.12419501133786	318.3448072562358	71	127
318.12419501133786	318.3448072562358	52	127
318.12419501133786	318.3448072562358	56	127
318.12419501133786	318.3448072562358	59	127
318.12419501133786	318.3448072562358	62	127
318.3448072562358	318.5653968253968	62	127
318.3448072562358	318.43766439909297	72	127
318.3448072562358	318.5653968253968	52	127
318.3448072562358	318.5653968253968	56	127
318.3448072562358	318.5653968253968	59	127
318.3912471655329	318.49573696145126	71	127
318.43766439909297	318.5653968253968	69	127
318.5653968253968	318.7975963718821	52	127
318.5653968253968	318.7975963718821	56	127
318.5653968253968	318.7975963718821	62	127
318.5653968253968	318.7975963718821	59	127
318.5653968253968	318.7975963718821	71	127
318.7975963718821	318.99496598639456	72	127
318.7975963718821	318.99496598639456	52	127
318.7975963718821	318.99496598639456	57	127
318.7975963718821	318.99496598639456	60	127
319.2619954648526	319.5638321995465	52	127
319.2619954648526	319.5638321995465	56	127
319.2619954648526	319.5638321995465	40	127
319.5638321995465	319.76120181405895	56	127
319.5638321995465	319.76120181405895	40	127
319.5638321995465	319.76120181405895	52	127
319.76120181405895	319.94698412698415	40	127
319.76120181405895	319.94698412698415	56	127
319.76120181405895	319.94698412698415	52	127
319.94698412698415	320.1559637188209	52	127
319.94698412698415	320.1559637188209	56	127
319.94698412698415	320.1559637188209	40	127
320.16755102040815	320.4229931972789	45	127
320.16755102040815	320.4229931972789	57	127
320.16755102040815	320.4229931972789	52	127
320.6435827664399	320.88736961451247	71	127
320.88736961451247	321.07315192743766	52	127
320.88736961451247	321.07315192743766	56	127
320.88736961451247	321.07315192743766	59	127
320.88736961451247	321.07315192743766	71	127
321.0963492063492	321.2124716553288	72	127
321.1428117913832	321.3053514739229	71	127
321.2124716553288	321.35179138321996	69	127
321.35179138321996	321.5259410430839	71	127
321.5259410430839	321.7117006802721	72	127
321.5259410430839	321.7117006802721	52	127
321.5259410430839	321.7117006802721	57	127
321.5259410430839	321.7117006802721	60	127
321.72331065759636	321.839410430839	74	127
321.792970521542	321.9090476190476	72	127
321.839410430839	321.9671201814059	71	127
321.9671201814059	322.1877097505669	72	127
322.1877097505669	322.45473922902494	75	127
322.1877097505669	322.45473922902494	52	127
322.1877097505669	322.45473922902494	54	127
322.1877097505669	322.45473922902494	57	127
322.45473922902494	322.58244897959185	76	127
322.53600907029477	322.6288662131519	75	127
322.58244897959185	322.67532879818594	73	127
322.67532879818594	322.86108843537414	75	127
322.86108843537414	323.08167800453515	76	127
322.86108843537414	323.08167800453515	52	127
322.86108843537414	323.08167800453515	56	127
322.86108843537414	323.08167800453515	59	127
323.08167800453515	323.17455782312925	77	127
323.1281179138322	323.2209977324263	76	127
323.17455782312925	323.30226757369616	75	127
323.30226757369616	323.4996371882086	76	127
323.4996371882086	323.74342403628117	71	127
323.4996371882086	323.74342403628117	52	127
323.4996371882086	323.74342403628117	56	127
323.4996371882086	323.74342403628117	59	127
323.74342403628117	323.89437641723356	72	127
323.84791383219954	323.94081632653064	71	127
323.89437641723356	324.0104761904762	69	127
324.0104761904762	324.1846258503401	71	127
324.1962358276644	324.48648526077096	72	127
324.1962358276644	324.48648526077096	52	127
324.1962358276644	324.48648526077096	57	127
324.1962358276644	324.48648526077096	60	127
324.48648526077096	324.68385487528343	74	127
324.6025850340136	324.7419047619048	72	127
324.68385487528343	324.7883446712018	71	127
324.7883446712018	324.99732426303854	72	127
325.0089342403628	325.1830612244898	75	127
325.0089342403628	325.1830612244898	52	127
325.0089342403628	325.1830612244898	54	127
325.0089342403628	325.1830612244898	57	127
325.1830612244898	325.3224036281179	76	127
325.21791383219954	325.40367346938774	75	127
325.3224036281179	325.4501133786848	74	127
325.4501133786848	325.6823129251701	75	127
325.6823129251701	325.9028798185941	56	127
325.6823129251701	325.9028798185941	76	127
325.6823129251701	325.9028798185941	52	127
325.6823129251701	325.9028798185941	59	127
325.9028798185941	325.9957596371882	77	127
325.9493424036281	326.0422222222222	76	127
325.9957596371882	326.0886621315193	75	127
326.0886621315193	326.39052154195014	76	127
326.39052154195014	326.56467120181406	76	127
326.39052154195014	326.56467120181406	45	127
326.39052154195014	326.56467120181406	48	127
326.39052154195014	326.56467120181406	52	127
326.39052154195014	326.56467120181406	57	127
326.56467120181406	326.6807709750567	77	127
326.62272108843536	326.738820861678	76	127
326.6807709750567	326.78526077097507	75	127
326.78526077097507	327.01743764172335	76	127
327.01743764172335	327.24965986394557	76	127
327.01743764172335	327.24965986394557	40	127
327.01743764172335	327.24965986394557	44	127
327.01743764172335	327.24965986394557	47	127
327.01743764172335	327.24965986394557	52	127
327.24965986394557	327.3657596371882	77	127
327.3193197278912	327.4121995464853	76	127
327.3657596371882	327.4702494331066	75	127
327.48185941043084	327.70244897959185	76	127
327.70244897959185	327.9694784580499	76	127
327.70244897959185	327.9694784580499	33	127
327.70244897959185	327.9694784580499	36	127
327.70244897959185	327.9694784580499	40	127
327.70244897959185	327.9694784580499	45	127
327.9926984126984	328.0855782312925	77	127
328.0391156462585	328.14360544217686	76	127
328.0855782312925	328.20167800453515	75	127
328.20167800453515	328.43387755102043	76	127
328.43387755102043	328.65444444444444	76	127
328.43387755102043	328.65444444444444	40	127
328.43387755102043	328.65444444444444	44	127
328.43387755102043	328.65444444444444	47	127
328.43387755102043	328.65444444444444	52	127
328.9563265306123	329.39750566893423	76	127
329.6413151927438	330.09408163265306	76	127
330.3495238095238	330.755873015873	76	127
330.96485260770976	331.1738321995465	45	127
330.96485260770976	331.38281179138323	76	127
331.0693424036281	331.1738321995465	52	127
331.1738321995465	331.38281179138323	45	127
331.27832199546486	331.4873015873016	52	127
331.38281179138323	331.59179138321997	48	127
331.49891156462587	331.7078911564626	52	127
331.59179138321997	331.812380952381	45	127
331.59179138321997	332.00975056689344	81	127
331.7078911564626	331.812380952381	52	127
331.812380952381	332.00975056689344	45	127
331.8936507936508	332.1258503401361	52	127
332.00975056689344	332.34643990929703	48	127
332.13743764172335	332.4509297052154	52	127
332.34643990929703	332.55541950113377	40	127
332.34643990929703	332.741156462585	83	127
332.4509297052154	332.55541950113377	52	127
332.55541950113377	332.741156462585	40	127
332.6482766439909	332.8340589569161	52	127
332.69473922902495	332.78761904761905	84	127
332.741156462585	332.8340589569161	83	127
332.741156462585	332.9385487528345	47	127
332.8456462585034	332.9385487528345	81	127
332.8456462585034	333.05462585034013	52	127
332.9385487528345	333.1707482993197	83	127
332.9385487528345	333.1707482993197	40	127
333.05462585034013	333.1707482993197	52	127
333.1707482993197	333.44938775510207	84	127
333.1707482993197	333.44938775510207	45	127
333.3332879818594	333.55387755102043	52	127
333.46097505668934	333.64675736961453	48	127
333.55387755102043	333.73963718820863	52	127
333.64675736961453	333.83251700680273	43	127
333.64675736961453	334.01827664399093	86	127
333.73963718820863	333.83251700680273	47	127
333.83251700680273	334.01827664399093	43	127
333.92539682539683	334.1227664399093	47	127
334.0298866213152	334.2504761904762	50	127
334.1227664399093	334.36657596371884	53	127
334.2504761904762	334.4826530612245	48	127
334.2504761904762	334.6684353741497	88	127
334.36657596371884	334.4826530612245	52	127
334.4826530612245	334.6684353741497	48	127
334.5755555555556	334.77292517006805	52	127
334.68004535147395	334.8774149659864	55	127
334.77292517006805	334.95868480725625	60	127
334.8774149659864	335.05156462585035	43	127
334.8774149659864	335.2024716553288	86	127
334.95868480725625	335.05156462585035	47	127
335.05156462585035	335.2605442176871	43	127
335.167664399093	335.36503401360545	47	127
335.21410430839	335.30696145124716	88	127
335.2605442176871	335.36503401360545	86	127
335.2605442176871	335.4695238095238	50	127
335.36503401360545	335.64367346938775	53	127
335.36503401360545	335.4695238095238	84	127
335.4695238095238	335.73655328798185	86	127
335.4695238095238	335.73655328798185	43	127
335.64367346938775	335.73655328798185	55	127
335.73655328798185	335.9687528344671	88	127
335.73655328798185	335.9687528344671	48	127
335.8410430839002	336.1080725623583	52	127
335.9687528344671	336.23578231292515	48	127
336.1080725623583	336.3286394557823	52	127
336.23578231292515	336.4215192743764	40	127
336.23578231292515	336.6073015873016	83	127
336.3286394557823	336.4215192743764	44	127
336.4215192743764	336.6073015873016	40	127
336.5144217687075	336.7001814058957	44	127
336.6073015873016	336.8278911564626	47	127
336.7001814058957	336.932358276644	50	127
336.8278911564626	337.03684807256235	45	127
336.8278911564626	337.2458276643991	84	127
336.932358276644	337.03684807256235	48	127
337.04848072562356	337.2458276643991	45	127
337.1413378684807	337.35031746031746	48	127
337.2458276643991	337.44319727891155	52	127
337.35031746031746	337.5709297052154	57	127
337.44319727891155	337.68702947845804	40	127
337.44319727891155	337.9308390022676	83	127
337.5709297052154	337.68702947845804	44	127
337.7102494331066	337.9308390022676	40	127
337.81473922902495	338.0237188208617	44	127
337.86115646258503	337.9772789115646	84	127
337.9308390022676	338.0237188208617	83	127
337.9308390022676	338.1165986394558	47	127
338.0237188208617	338.1165986394558	81	127
338.0237188208617	338.22108843537416	50	127
338.1165986394558	338.40684807256235	83	127
338.1165986394558	338.40684807256235	40	127
338.2326984126984	338.40684807256235	50	127
338.40684807256235	338.6158276643991	81	127
338.40684807256235	338.6158276643991	45	127
338.49972789115645	338.73192743764173	48	127
338.6158276643991	338.85963718820864	52	127
338.73192743764173	338.95251700680274	57	127
338.85963718820864	339.13827664399093	71	127
338.85963718820864	339.13827664399093	83	127
338.85963718820864	339.13827664399093	50	127
338.964126984127	339.13827664399093	53	127
339.13827664399093	339.3820861678005	72	127
339.13827664399093	339.3820861678005	84	127
339.13827664399093	339.3820861678005	52	127
339.23115646258503	339.4749659863946	57	127
339.3820861678005	339.60267573696143	56	127
339.4749659863946	339.7071655328798	57	127
339.60267573696143	339.82326530612244	71	127
339.60267573696143	339.82326530612244	83	127
339.60267573696143	339.82326530612244	40	127
339.71877551020407	339.82326530612244	52	127
339.82326530612244	339.9974149659864	45	127
339.82326530612244	339.9974149659864	69	127
339.82326530612244	339.9974149659864	81	127
339.91614512471654	340.13673469387754	48	127
339.9974149659864	340.22961451247164	52	127
340.13673469387754	340.3457142857143	57	127
340.2412244897959	340.4153514739229	50	127
340.2412244897959	340.4153514739229	71	127
340.2412244897959	340.4153514739229	83	127
340.3457142857143	340.4153514739229	53	127
340.4153514739229	340.6011337868481	72	127
340.4153514739229	340.6011337868481	84	127
340.4153514739229	340.6011337868481	52	127
340.508253968254	340.72884353741495	57	127
340.6011337868481	340.92619047619047	56	127
340.72884353741495	341.04231292517005	57	127
340.9378231292517	341.1351700680272	71	127
340.9378231292517	341.1351700680272	83	127
340.9378231292517	341.1351700680272	40	127
341.04231292517005	341.1351700680272	52	127
341.1351700680272	341.3790022675737	69	127
341.1351700680272	341.3790022675737	81	127
341.1351700680272	341.3790022675737	45	127
341.2280498866213	341.48349206349206	52	127
341.3790022675737	341.57637188208616	48	127
341.48349206349206	341.6924716553288	52	127
341.58798185941043	341.80857142857144	71	127
341.58798185941043	341.80857142857144	83	127
341.58798185941043	341.80857142857144	40	127
341.6924716553288	341.80857142857144	52	127
341.80857142857144	342.0059410430839	45	127
341.80857142857144	342.0059410430839	69	127
341.80857142857144	342.0059410430839	81	127
341.9130612244898	342.098820861678	52	127
342.0059410430839	342.2265306122449	48	127
342.1452607709751	342.319410430839	52	127
342.2265306122449	342.43551020408165	71	127
342.2265306122449	342.43551020408165	83	127
342.2265306122449	342.43551020408165	40	127
342.319410430839	342.43551020408165	52	127
342.43551020408165	342.6444897959184	69	127
342.43551020408165	342.6444897959184	81	127
342.43551020408165	342.6444897959184	45	127
342.5516099773243	342.7954195011338	52	127
342.6444897959184	342.9463492063492	48	127
342.8186394557823	343.0508390022676	52	127
342.9463492063492	343.16693877551023	71	127
342.9463492063492	343.16693877551023	83	127
342.9463492063492	343.16693877551023	40	127
343.0508390022676	343.16693877551023	52	127
343.16693877551023	343.3875283446712	69	127
343.16693877551023	343.3875283446712	81	127
343.16693877551023	343.3875283446712	45	127
343.2946485260771	343.5036281179138	52	127
343.3875283446712	343.642947845805	48	127
343.5152380952381	343.7822448979592	52	127
343.642947845805	343.8751473922903	71	127
343.642947845805	343.8751473922903	83	127
343.642947845805	343.8751473922903	40	127
343.7822448979592	343.8751473922903	52	127
343.8751473922903	344.06090702947847	69	127
343.8751473922903	344.06090702947847	81	127
343.8751473922903	344.06090702947847	45	127
344.07251700680274	344.29308390022675	40	127
344.16539682539684	344.3975736961451	45	127
344.29308390022675	344.4904761904762	33	127
344.29308390022675	344.4904761904762	83	127
344.3975736961451	344.5833560090703	45	127
344.4904761904762	344.6878458049887	40	127
344.4904761904762	344.6878458049887	81	127
344.5833560090703	344.8271655328798	45	127
344.69945578231295	345.01290249433106	33	127
344.8271655328798	345.1406349206349	45	127
345.01290249433106	345.233514739229	71	127
345.01290249433106	345.233514739229	40	127
345.1406349206349	345.32637188208616	45	127
345.233514739229	345.44249433106575	33	127
345.233514739229	345.44249433106575	69	127
345.32637188208616	345.5469841269841	45	127
345.45410430839	345.6398639455782	40	127
345.5469841269841	345.7443537414966	45	127
345.6398639455782	345.8604535147392	33	127
345.6398639455782	345.8604535147392	59	127
345.7443537414966	346.01138321995467	45	127
345.8604535147392	346.1390702947846	57	127
345.8604535147392	346.1390702947846	40	127
346.01138321995467	346.2319727891157	45	127
346.1390702947846	346.33646258503404	33	127
346.2319727891157	346.42934240362814	45	127
346.33646258503404	346.56866213151926	47	127
346.33646258503404	346.56866213151926	40	127
346.42934240362814	346.69637188208617	45	127
346.56866213151926	346.80086167800454	45	127
346.56866213151926	346.80086167800454	33	127
347.07950113378683	347.4974603174603	64	127
347.7877097505669	347.9966893424036	35	127
347.9966893424036	348.2288888888889	33	127
348.46108843537417	349.01836734693876	64	127
349.23895691609977	349.4479365079365	35	127
349.4479365079365	349.69174603174605	33	127
349.91233560090706	350.37673469387755	64	127
350.63213151927437	351.13138321995467	64	127
351.38680272108843	351.8047619047619	64	127
352.0369614512472	352.54780045351475	64	127
352.28077097505667	352.54780045351475	40	127
352.7567800453515	353.1631292517007	69	127
352.9773696145125	353.1631292517007	45	127
353.4301587301587	353.929387755102	71	127
353.6971882086168	353.929387755102	47	127
354.1731972789116	354.6143764172336	72	127
354.4169841269841	354.6143764172336	48	127
354.8349433106576	355.3341723356009	71	127
355.1136054421769	355.3341723356009	47	127
355.5663945578231	355.94950113378684	69	127
355.77537414965985	355.94950113378684	45	127
356.18172335600906	356.6112925170068	67	127
356.44875283446714	356.6112925170068	43	127
356.8434920634921	357.35433106575965	65	127
357.1105215419501	357.35433106575965	41	127
357.57492063492066	358.08575963718823	64	127
357.8303401360544	358.08575963718823	40	127
359.002947845805	359.4209070294785	64	127
359.23514739229023	359.4209070294785	40	127
360.24519274376416	360.70961451247166	64	127
360.48902494331065	360.70961451247166	40	127
360.9998639455782	361.44104308390024	64	127
361.20884353741496	361.44104308390024	40	127
361.7661224489796	362.19566893424036	64	127
361.7661224489796	362.19566893424036	40	127
362.19566893424036	362.4975283446712	57	127
362.19566893424036	362.4975283446712	33	127
