# onset,offset,note,velocity
0.034058956916099774	2.2980045351473923	52	127
6.558866213151927	9.89092970521542	66	127
9.902539682539683	12.038775510204081	64	127
12.061995464852608	13.037233560090703	64	127
13.06045351473923	14.186621315192744	69	127
14.20984126984127	14.813560090702948	68	127
14.836780045351475	15.59142857142857	64	127
15.637868480725624	17.72766439909297	66	127
17.739274376417235	18.749319727891155	66	127
20.026439909297054	21.686666666666667	66	127
21.709886621315192	22.301972789115645	66	127
22.325215419501134	22.789614512471655	66	127
22.812834467120183	23.277233560090703	64	127
23.300453514739228	23.7184126984127	63	127
23.88095238095238	24.310521541950113	64	127
24.554331065759637	27.712244897959184	64	127
27.73546485260771	28.594603174603176	68	127
28.6178231292517	28.873242630385487	64	127
28.88485260770975	29.929750566893425	63	127
29.95297052154195	32.19369614512472	66	127
32.21691609977324	33.42433106575964	66	127
33.44757369614513	36.05981859410431	66	127
36.083015873015874	36.6287074829932	59	127
36.651927437641724	37.267256235827666	59	127
37.302086167800454	37.98705215419501	59	127
38.021904761904764	40.18136054421769	59	127
40.204580498866214	40.79668934240363	64	127
40.79668934240363	41.33074829931973	63	127
41.33074829931973	41.80673469387755	64	127
41.80673469387755	42.456916099773245	56	127
42.456916099773245	44.61637188208617	59	127
44.62798185941043	45.672879818594105	57	127
45.68448979591837	45.77736961451247	56	127
45.77736961451247	45.85861678004535	57	127
45.85861678004535	45.939909297052154	56	127
45.939909297052154	46.07922902494331	54	127
46.07922902494331	46.2069387755102	56	127
46.2069387755102	46.46235827664399	57	127
46.46235827664399	46.717777777777776	59	127
46.717777777777776	47.86716553287982	61	127
47.925215419501136	48.94689342403628	59	127
48.99333333333333	49.95696145124717	63	127
49.98018140589569	50.23560090702948	64	127
50.23560090702948	50.479410430839	63	127
50.479410430839	50.758049886621315	64	127
50.758049886621315	51.04829931972789	56	127
51.04829931972789	52.59242630385488	59	127
52.60403628117914	53.207755102040814	58	127
53.219365079365076	54.33392290249433	57	127
55.506530612244894	57.24802721088435	57	127
57.27124716553288	57.74725623582766	57	127
57.758866213151926	58.21165532879819	57	127
58.21165532879819	58.72249433106576	56	127
58.72249433106576	59.30299319727891	54	127
59.30299319727891	60.03442176870748	52	127
60.03442176870748	62.27514739229025	61	127
62.298367346938775	63.23877551020408	62	127
64.1443537414966	64.42299319727891	59	127
64.42299319727891	66.12965986394558	61	127
66.12965986394558	66.44312925170068	64	127
66.44312925170068	66.66371882086167	62	127
66.6869387755102	67.67378684807257	62	127
68.70707482993197	69.00891156462585	59	127
69.00891156462585	71.04068027210884	61	127
71.06390022675737	72.17843537414966	62	127
72.19006802721088	73.4439455782313	61	127
73.47877551020409	76.63668934240363	62	127
76.63668934240363	76.78761904761905	64	127
76.78761904761905	76.92693877551021	61	127
76.92693877551021	77.87893424036281	62	127
77.87893424036281	78.18081632653062	64	127
78.18081632653062	80.67696145124717	66	127
80.70018140589569	81.23424036281179	64	127
81.25746031746031	81.74507936507936	62	127
81.75668934240363	82.53455782312925	61	127
82.55777777777777	83.62589569160998	59	127
83.63750566893424	85.3790022675737	60	127
85.88984126984127	86.29619047619047	61	127
86.30780045351474	86.73736961451247	57	127
86.74895691609977	87.14371882086168	56	127
87.14371882086168	87.56167800453515	59	127
87.57328798185941	88.6762358276644	57	127
88.6762358276644	88.80394557823129	59	127
88.88521541950114	89.04773242630385	61	127
89.12902494331065	89.32639455782314	64	127
89.32639455782314	89.45410430839003	62	127
89.51215419501133	89.66308390022675	61	127
89.76757369614512	89.93011337868481	62	127
89.98816326530613	90.16231292517007	61	127
90.16231292517007	90.31324263038549	59	127
90.38290249433106	90.56866213151928	58	127
90.6267120181406	90.75442176870749	59	127
90.81244897959184	91.02145124716553	57	127
91.02145124716553	91.13755102040817	56	127
91.19557823129252	91.35814058956916	54	127
91.40458049886621	91.5322902494331	56	127
91.60195011337869	91.98507936507937	52	127
91.98507936507937	92.07795918367347	54	127
92.07795918367347	92.15922902494331	56	127
92.15922902494331	92.26371882086168	57	127
92.26371882086168	92.37981859410431	59	127
92.37981859410431	92.78616780045351	61	127
92.79777777777778	93.18090702947846	57	127
93.19251700680272	93.5756462585034	56	127
93.5756462585034	94.06326530612245	59	127
94.06326530612245	95.23587301587301	57	127
95.24748299319728	95.3635827664399	59	127
95.50290249433107	95.63061224489796	61	127
95.67705215419501	95.90925170068027	64	127
95.90925170068027	96.04857142857144	62	127
96.10662131519274	96.23433106575963	61	127
96.29238095238095	96.42009070294785	62	127
96.47814058956916	96.67551020408163	61	127
96.67551020408163	96.8148299319728	59	127
96.88448979591837	97.000589569161	58	127
97.07024943310658	97.19795918367348	59	127
97.24439909297053	97.6275283446712	57	127
99.05555555555556	107.47278911564626	45	127
107.47278911564626	107.9604081632653	44	127
107.97201814058957	108.34353741496598	45	127
108.38997732426304	108.73827664399093	43	127
108.7498866213152	109.14462585034013	42	127
109.14462585034013	109.52775510204081	38	127
109.53936507936508	109.92249433106576	40	127
109.92249433106576	110.3520634920635	52	127
110.36367346938775	110.73519274376417	45	127
111.14154195011338	111.95424036281179	61	127
111.96585034013606	113.50997732426303	62	127
113.56802721088435	115.15859410430839	61	127
115.17020408163265	116.74916099773243	62	127
116.76077097505669	116.93492063492063	61	127
116.93492063492063	117.12068027210884	61	127
117.13229024943311	117.29482993197279	61	127
117.81727891156463	117.9798185941043	63	127
117.99142857142857	118.18879818594104	63	127
118.18879818594104	118.44421768707483	63	127
118.69963718820861	118.94344671201814	64	127
118.9550566893424	119.12920634920636	64	127
119.14081632653061	119.3614058956916	64	127
119.3614058956916	119.55877551020409	66	127
119.57038548752834	119.8025850340136	66	127
119.8025850340136	119.98834467120182	66	127
120.01156462585034	120.16249433106576	66	127
120.17410430839003	120.2785941043084	64	127
120.2785941043084	120.35986394557823	66	127
120.35986394557823	120.47596371882086	68	127
120.47596371882086	120.60367346938776	66	127
120.60367346938776	120.69655328798186	64	127
120.69655328798186	120.78943310657597	66	127
120.78943310657597	120.9055328798186	68	127
120.9055328798186	120.9984126984127	66	127
120.9984126984127	121.10290249433106	64	127
121.10290249433106	121.19578231292518	66	127
121.19578231292518	121.30027210884354	68	127
121.30027210884354	121.39315192743764	66	127
121.39315192743764	121.49764172335601	64	127
121.49764172335601	121.6253514739229	66	127
121.6253514739229	121.70662131519275	68	127
121.70662131519275	121.79950113378685	66	127
121.79950113378685	121.89238095238095	64	127
121.89238095238095	121.97365079365079	66	127
121.97365079365079	122.07814058956916	68	127
122.07814058956916	122.18263038548753	66	127
122.18263038548753	122.26390022675737	64	127
122.26390022675737	122.39160997732426	66	127
122.39160997732426	122.48448979591836	68	127
122.48448979591836	122.57736961451248	66	127
122.57736961451248	122.68185941043085	64	127
122.68185941043085	122.77473922902495	66	127
122.77473922902495	122.86761904761904	68	127
122.86761904761904	122.96049886621316	66	127
122.96049886621316	123.04176870748299	64	127
123.04176870748299	123.15786848072563	68	127
123.15786848072563	123.262358276644	66	127
123.262358276644	123.39006802721089	64	127
123.39006802721089	123.48294784580499	63	127
123.48294784580499	123.59904761904762	59	127
123.59904761904762	123.6687074829932	61	127
123.6687074829932	123.72675736961452	63	127
123.72675736961452	123.81963718820862	64	127
123.81963718820862	123.90090702947846	66	127
123.90090702947846	123.99378684807256	68	127
123.99378684807256	124.09827664399093	70	127
124.09827664399093	125.18961451247165	71	127
125.20122448979592	125.32893424036281	71	127
125.37537414965986	125.50308390022676	66	127
125.5495238095238	125.66562358276644	63	127
125.73528344671202	125.93265306122449	59	127
130.20512471655329	130.32122448979592	64	127
130.28637188208617	130.91333333333333	76	127
130.9249433106576	131.50544217687076	75	127
131.50544217687076	131.77244897959184	76	127
131.77244897959184	132.75931972789115	66	127
136.8924716553288	137.00857142857143	64	127
136.98532879818595	137.69356009070296	76	127
137.7051700680272	138.26242630385488	75	127
138.26242630385488	138.47142857142856	76	127
138.47142857142856	139.74850340136055	66	127
144.57827664399093	146.85380952380953	76	127
146.86544217687074	147.05120181405897	78	127
147.05120181405897	147.23696145124717	76	127
147.23696145124717	147.43433106575964	75	127
147.43433106575964	147.50399092970522	76	127
147.50399092970522	147.56204081632654	75	127
147.56204081632654	147.64331065759637	73	127
147.64331065759637	147.8522902494331	75	127
147.8522902494331	148.07287981859412	76	127
148.07287981859412	148.28183673469388	78	127
148.28183673469388	148.421179138322	75	127
148.46761904761905	148.65337868480725	71	127
148.71142857142857	148.9204081632653	69	127
148.9900680272109	149.43124716553288	69	127
149.44285714285715	149.88403628117914	68	127
150.82444444444445	151.6835827664399	67	127
151.6835827664399	152.32210884353742	66	127
152.33374149659863	152.55433106575964	67	127
152.5659410430839	154.59768707482993	68	127
154.6092970521542	155.0156462585034	69	127
155.0272335600907	155.43360544217688	71	127
155.44521541950112	155.8631746031746	71	127
155.8631746031746	155.97927437641724	64	127
155.97927437641724	156.0837641723356	66	127
156.0837641723356	156.1766439909297	68	127
156.1766439909297	156.2695238095238	69	127
156.2695238095238	156.37401360544217	71	127
156.37401360544217	156.45528344671203	73	127
156.45528344671203	156.54816326530613	75	127
156.54816326530613	156.64104308390023	76	127
156.64104308390023	156.7455328798186	75	127
156.7455328798186	156.82680272108843	76	127
156.82680272108843	156.91965986394558	75	127
156.91965986394558	157.02414965986395	73	127
157.02414965986395	157.10544217687075	71	127
157.10544217687075	157.19832199546485	69	127
157.19832199546485	157.30281179138322	68	127
157.30281179138322	157.3840589569161	66	127
157.3840589569161	158.16195011337868	64	127
158.17356009070295	158.98625850340136	59	127
158.98625850340136	159.07913832199546	64	127
159.07913832199546	159.18362811791383	66	127
159.18362811791383	159.26489795918368	68	127
159.26489795918368	159.35777777777778	69	127
159.35777777777778	159.45065759637188	71	127
159.45065759637188	159.57834467120182	73	127
159.57834467120182	159.6712471655329	75	127
159.6712471655329	159.77573696145126	76	127
159.77573696145126	159.88022675736963	75	127
159.88022675736963	159.96149659863946	76	127
159.96149659863946	160.05437641723356	75	127
160.05437641723356	160.14725623582765	73	127
160.14725623582765	160.2285260770975	71	127
160.2285260770975	160.34460317460318	69	127
160.34460317460318	160.44909297052155	68	127
160.44909297052155	160.55358276643992	66	127
160.55358276643992	161.36628117913833	64	127
161.37791383219954	162.13256235827666	59	127
162.13256235827666	162.34151927437642	64	127
162.35315192743764	162.53891156462586	68	127
162.74786848072563	162.91043083900226	68	127
162.92204081632653	163.10777777777778	69	127
163.10777777777778	163.28195011337868	69	127
163.45609977324264	163.6534693877551	69	127
163.66507936507938	163.82761904761904	68	127
163.8392290249433	164.0598185941043	68	127
164.2455782312925	164.43133786848074	68	127
164.44294784580498	164.6287074829932	66	127
164.6287074829932	164.80285714285714	66	127
164.8144671201814	165.01183673469387	66	127
165.01183673469387	165.2208163265306	66	127
165.24403628117915	165.42979591836735	68	127
165.44140589569162	165.62716553287981	68	127
165.83614512471655	165.99868480725624	68	127
166.0102947845805	166.17281179138322	69	127
166.17281179138322	166.32376417233561	69	127
166.56757369614513	166.7649433106576	69	127
166.77655328798187	166.9855328798186	68	127
166.99714285714285	167.1712925170068	68	127
167.38027210884354	167.55439909297053	68	127
167.55439909297053	167.72857142857143	66	127
167.7401814058957	167.90272108843538	66	127
167.91430839002268	168.12331065759636	66	127
168.12331065759636	168.3206575963719	66	127
168.3322902494331	168.52965986394557	68	127
168.54126984126984	168.7154195011338	68	127
168.92439909297053	169.09854875283446	66	127
169.27269841269842	169.4468253968254	68	127
169.66743764172335	169.8415873015873	66	127
170.05056689342405	170.23632653061225	68	127
170.48013605442176	170.66589569161	66	127
170.87485260770976	171.0722448979592	68	127
171.39732426303854	171.62952380952382	66	127
171.64111111111112	172.11714285714285	68	127
177.6667120181406	177.8524716553288	59	127
177.8524716553288	178.04984126984127	61	127
178.04984126984127	178.22399092970522	62	127
178.22399092970522	178.43297052154196	56	127
178.43297052154196	178.63034013605443	57	127
178.63034013605443	178.81609977324263	59	127
178.81609977324263	179.03668934240363	52	127
179.03668934240363	179.22244897959183	54	127
179.22244897959183	179.4662358276644	56	127
179.4662358276644	179.7332879818594	57	127
179.7332879818594	179.97707482993198	59	127
179.97707482993198	180.25573696145125	61	127
180.25573696145125	180.46471655328799	62	127
180.46471655328799	180.66208616780045	63	127
180.66208616780045	180.89426303854876	64	127
180.89426303854876	181.1148752834467	65	127
181.1148752834467	181.30063492063493	66	127
181.30063492063493	181.48639455782313	59	127
181.48639455782313	181.69537414965987	64	127
181.69537414965987	181.97401360544217	62	127
181.97401360544217	182.36875283446713	61	127
182.38034013605443	182.82154195011339	57	127
182.83315192743765	183.21628117913832	56	127
183.2278911564626	183.57619047619048	59	127
183.57619047619048	184.6326984126984	57	127
184.64430839002267	184.77201814058958	59	127
184.83004535147393	185.12031746031747	61	127
185.18995464852608	185.41056689342403	64	127
185.41056689342403	185.54986394557824	62	127
185.5963038548753	185.7356462585034	61	127
185.78208616780046	185.8981859410431	62	127
185.96784580498866	186.16521541950112	61	127
186.16521541950112	186.3045351473923	59	127
186.38580498866213	186.51351473922904	58	127
186.5599546485261	186.73410430839002	59	127
186.8037641723356	187.00113378684807	57	127
187.00113378684807	187.12884353741498	56	127
187.17528344671203	187.38426303854877	54	127
187.45392290249433	187.57002267573696	56	127
187.6861224489796	188.01120181405895	52	127
188.02281179138322	188.11569160997732	54	127
188.11569160997732	188.20854875283447	56	127
188.20854875283447	188.3130612244898	57	127
188.3130612244898	188.498820861678	59	127
188.498820861678	188.89356009070295	61	127
188.89356009070295	189.3231292517007	57	127
189.33473922902493	189.6946485260771	56	127
189.70625850340136	190.2287074829932	59	127
190.2287074829932	191.366485260771	57	127
191.37809523809523	191.50580498866213	59	127
191.56385487528345	191.69156462585033	61	127
191.74961451247165	191.98181405895693	64	127
191.98181405895693	192.13274376417235	62	127
192.1791836734694	192.30689342403628	61	127
192.3649433106576	192.4926530612245	62	127
192.53909297052155	192.71324263038548	61	127
192.71324263038548	192.85256235827666	59	127
192.91061224489795	193.04993197278912	58	127
193.10798185941044	193.2473015873016	59	127
193.3053514739229	193.64204081632653	57	127
195.01201814058956	203.53374149659865	45	127
203.55696145124716	203.94009070294786	44	127
203.94009070294786	204.28839002267574	45	127
204.28839002267574	204.6715192743764	43	127
204.68312925170068	205.03142857142856	42	127
205.04303854875283	205.42616780045353	38	127
205.42616780045353	205.84412698412697	40	127
205.84412698412697	206.2156462585034	52	127
206.22725623582767	206.5987755102041	45	127
206.99351473922903	207.8178231292517	61	127
207.82943310657598	209.3271201814059	62	127
209.33873015873016	210.94090702947847	61	127
210.9525170068027	212.55469387755102	62	127
212.55469387755102	212.74045351473922	61	127
212.75206349206348	212.9378231292517	61	127
212.94943310657595	213.13519274376418	61	127
213.5647619047619	213.73891156462585	63	127
213.73891156462585	213.92467120181405	63	127
213.93628117913832	214.12204081632652	63	127
214.33102040816325	214.49356009070294	64	127
214.5051700680272	214.6909297052154	64	127
214.6909297052154	214.87668934240364	64	127
214.88829931972788	215.12049886621315	66	127
215.13210884353742	215.34108843537416	66	127
215.3526984126984	215.5152380952381	66	127
215.52684807256236	215.74743764172337	66	127
215.7590476190476	215.86353741496598	64	127
215.86353741496598	215.94480725623583	66	127
215.94480725623583	216.02607709750566	68	127
216.02607709750566	216.13056689342403	66	127
216.13056689342403	216.22344671201813	64	127
216.22344671201813	216.31632653061226	66	127
216.31632653061226	216.40920634920636	68	127
216.40920634920636	216.52530612244897	66	127
216.52530612244897	216.62979591836734	64	127
216.62979591836734	216.7110657596372	66	127
216.7110657596372	216.79233560090702	68	127
216.79233560090702	216.92004535147393	66	127
216.92004535147393	217.0245351473923	64	127
217.0245351473923	217.10580498866213	66	127
217.10580498866213	217.19868480725623	68	127
217.19868480725623	217.31478458049887	66	127
217.31478458049887	217.3960544217687	64	127
217.3960544217687	217.48893424036282	66	127
217.48893424036282	217.60503401360543	68	127
217.60503401360543	217.67469387755102	66	127
217.67469387755102	217.7791836734694	64	127
217.7791836734694	217.8720634920635	66	127
217.8720634920635	217.98816326530613	68	127
217.98816326530613	218.10426303854877	66	127
218.10426303854877	218.20875283446713	64	127
218.20875283446713	218.336462585034	66	127
218.336462585034	218.41773242630384	68	127
218.41773242630384	218.5222222222222	66	127
218.5222222222222	218.61510204081634	64	127
218.61510204081634	218.69637188208617	68	127
218.69637188208617	218.80086167800454	66	127
218.80086167800454	218.89374149659864	64	127
218.89374149659864	218.9750113378685	63	127
218.9750113378685	219.0678911564626	59	127
219.0678911564626	219.17238095238096	61	127
219.17238095238096	219.2536507936508	63	127
219.2536507936508	219.3465306122449	64	127
219.3465306122449	219.439410430839	66	127
219.439410430839	219.53229024943312	68	127
219.53229024943312	219.71804988662132	70	127
219.71804988662132	220.68167800453514	71	127
220.68167800453514	220.80938775510205	71	127
220.89065759637188	221.0183673469388	66	127
221.07641723356008	221.204126984127	63	127
221.25056689342404	221.41310657596372	59	127
225.58108843537414	225.67396825396824	64	127
225.63913832199546	226.4170068027211	76	127
226.4170068027211	226.96267573696144	75	127
226.96267573696144	227.1600453514739	76	127
227.1600453514739	228.28621315192743	66	127
232.0362358276644	232.15233560090704	64	127
232.11750566893423	233.034693877551	76	127
233.05791383219955	233.6384126984127	75	127
233.6384126984127	233.87061224489796	76	127
233.87061224489796	235.22897959183675	66	127
239.74526077097505	241.97437641723357	76	127
241.97437641723357	242.19496598639455	78	127
242.19496598639455	242.35750566893424	76	127
242.35750566893424	242.52004535147393	75	127
242.52004535147393	242.5897052154195	76	127
242.5897052154195	242.67097505668934	75	127
242.67097505668934	242.72902494331066	73	127
242.72902494331066	242.9380045351474	75	127
242.9380045351474	243.2166439909297	76	127
243.2166439909297	243.48367346938775	78	127
243.48367346938775	243.6229931972789	75	127
243.68104308390022	243.82036281179137	71	127
243.8784126984127	244.04095238095238	69	127
244.13383219954648	244.62145124716554	69	127
244.6330612244898	245.06263038548752	68	127
245.92176870748298	246.75768707482993	67	127
246.7692970521542	247.3614058956916	66	127
247.37301587301587	247.5819954648526	67	127
247.59360544217688	249.61374149659864	68	127
249.6253514739229	250.00848072562357	69	127
250.00848072562357	250.40321995464853	71	127
250.41482993197278	250.84439909297052	71	127
250.8560090702948	250.96049886621316	64	127
250.96049886621316	251.041768707483	66	127
251.041768707483	251.1346485260771	68	127
251.1346485260771	251.2275283446712	69	127
251.2275283446712	251.30879818594104	71	127
251.30879818594104	251.42489795918368	73	127
251.42489795918368	251.51777777777778	75	127
251.51777777777778	251.62226757369615	76	127
251.62226757369615	251.70353741496598	75	127
251.70353741496598	251.79641723356008	76	127
251.79641723356008	251.8892970521542	75	127
251.8892970521542	251.97056689342404	73	127
251.97056689342404	252.06344671201813	71	127
252.06344671201813	252.1679365079365	69	127
252.1679365079365	252.2608163265306	68	127
252.2608163265306	252.37691609977324	66	127
252.37691609977324	253.17800453514738	64	127
253.18961451247165	253.97909297052155	59	127
254.00231292517006	254.1184126984127	64	127
254.1184126984127	254.2112925170068	66	127
254.2112925170068	254.3041723356009	68	127
254.3041723356009	254.39705215419502	69	127
254.39705215419502	254.48993197278912	71	127
254.48993197278912	254.57120181405895	73	127
254.57120181405895	254.67569160997732	75	127
254.67569160997732	254.76857142857142	76	127
254.76857142857142	254.84984126984128	75	127
254.84984126984128	254.95433106575965	76	127
254.95433106575965	255.04721088435375	75	127
255.04721088435375	255.12848072562358	73	127
255.12848072562358	255.20975056689343	71	127
255.20975056689343	255.30263038548753	69	127
255.30263038548753	255.38390022675736	68	127
255.38390022675736	255.47678004535146	66	127
255.47678004535146	256.4520181405896	64	127
256.46362811791386	257.2298866213152	59	127
257.2298866213152	257.4388662131519	64	127
257.4504761904762	257.6246258503401	68	127
257.83360544217686	258.00773242630385	68	127
258.01936507936506	258.19351473922904	69	127
258.2051247165533	258.3908843537415	69	127
258.6114739229025	258.808843537415	69	127
258.808843537415	259.00621315192745	68	127
259.0410430839002	259.2151927437642	68	127
259.42417233560093	259.6099319727891	68	127
259.6215419501134	259.7956916099773	66	127
259.7956916099773	259.9814512471655	66	127
260.00467120181406	260.1672108843537	66	127
260.178820861678	260.31814058956917	66	127
260.31814058956917	260.4922902494331	68	127
260.50390022675737	260.6780498866213	68	127
260.8753968253968	261.061179138322	68	127
261.0727664399093	261.2469387755102	69	127
261.2469387755102	261.4443083900227	69	127
261.6532879818594	261.82743764172335	69	127
261.82743764172335	262.01319727891155	68	127
262.0248072562358	262.2221768707483	68	127
262.40791383219954	262.58208616780047	68	127
262.59369614512474	262.76784580498867	66	127
262.76784580498867	262.95360544217687	66	127
262.96521541950113	263.12773242630385	66	127
263.15097505668933	263.3483446712018	66	127
263.3483446712018	263.53408163265306	68	127
263.54571428571427	263.7314512471655	68	127
263.9520634920635	264.1146031746032	66	127
264.3003628117914	264.49773242630386	68	127
264.6951020408163	264.86925170068025	66	127
265.0665986394558	265.2407709750567	68	127
265.4613605442177	265.62390022675737	66	127
265.8444897959184	266.04185941043085	68	127
266.2856689342404	266.5178684807256	66	127
266.5178684807256	266.94743764172335	68	127
272.43895691609976	272.6363038548753	59	127
272.6363038548753	272.8104761904762	61	127
272.8104761904762	272.9962358276644	62	127
272.9962358276644	273.17038548752834	56	127
273.17038548752834	273.35614512471653	57	127
273.35614512471653	273.5999546485261	59	127
273.5999546485261	273.7857142857143	52	127
273.7857142857143	274.0063038548753	54	127
274.0063038548753	274.1804535147392	56	127
274.1804535147392	274.4126530612245	57	127
274.4126530612245	274.61002267573696	59	127
274.61002267573696	274.79578231292516	60	127
274.79578231292516	274.96993197278914	61	127
274.96993197278914	275.28337868480725	62	127
275.28337868480725	275.5039909297052	63	127
275.5039909297052	275.78263038548755	64	127
275.78263038548755	276.00319727891156	65	127
276.00319727891156	276.1773696145125	59	127
276.1773696145125	276.3979591836735	64	127
276.3979591836735	276.60693877551023	62	127
276.60693877551023	277.0248752834467	60	127
277.0248752834467	277.4428571428571	57	127
277.4428571428571	277.8143764172336	56	127
277.8143764172336	278.1742857142857	59	127
278.1742857142857	279.335283446712	57	127
279.35850340136057	279.45138321995466	59	127
279.45138321995466	279.5326530612245	61	127
279.5326530612245	279.6603628117914	62	127
279.6603628117914	279.7880498866213	64	127
279.7880498866213	280.2640816326531	65	127
280.2640816326531	280.64721088435374	62	127
280.64721088435374	280.99551020408165	61	127
280.99551020408165	281.3786394557823	64	127
281.3786394557823	282.50480725623584	62	127
282.50480725623584	282.7021768707483	50	127
282.7021768707483	282.85308390022675	52	127
282.85308390022675	282.9343764172336	54	127
282.9343764172336	283.0272562358277	56	127
283.0272562358277	283.1201360544218	57	127
283.1201360544218	283.4800453514739	59	127
283.4916553287982	283.8747619047619	55	127
283.8747619047619	284.188231292517	54	127
284.1998639455782	284.6062131519274	57	127
284.6178231292517	285.03578231292516	58	127
285.04739229024943	285.48857142857145	55	127
285.48857142857145	285.9065306122449	56	127
285.9065306122449	286.2548299319728	59	127
286.26643990929705	286.6960090702948	60	127
286.70761904761906	287.1952380952381	57	127
287.1952380952381	287.6015873015873	56	127
287.6015873015873	287.9614739229025	59	127
287.97308390022675	288.3330158730159	60	127
288.3562358276644	288.7393650793651	57	127
288.75097505668936	289.13410430839	58	127
289.13410430839	289.5520634920635	61	127
289.56367346938777	289.93519274376416	62	127
289.94680272108843	290.3299319727891	59	127
290.34154195011337	290.7246485260771	60	127
290.7246485260771	291.10780045351476	63	127
291.119410430839	291.4909297052154	64	127
291.51414965986396	291.93210884353743	60	127
291.9437188208617	292.3152380952381	61	127
292.3152380952381	292.69836734693877	64	127
292.70997732426304	293.0698866213152	65	127
293.0814739229025	293.4878231292517	62	127
293.4994557823129	293.88258503401363	67	127
293.88258503401363	294.27732426303857	64	127
294.27732426303857	294.66045351473923	69	127
294.69528344671204	295.06680272108844	65	127
295.0784126984127	295.4847619047619	71	127
295.4963718820862	295.8562811791383	67	127
295.8562811791383	296.22780045351476	72	127
297.42362811791384	297.9925170068027	64	127
297.42362811791384	297.9925170068027	36	127
297.42362811791384	297.9925170068027	43	127
297.42362811791384	297.9925170068027	72	127
297.9925170068027	298.1318367346939	72	127
298.1898639455782	298.3408163265306	71	127
298.39884353741496	298.5614058956916	69	127
298.6194557823129	298.73555555555555	67	127
298.80519274376417	298.9445351473923	65	127
299.0258049886621	299.40893424036284	64	127
300.55832199546484	301.09238095238095	72	127
300.55832199546484	301.09238095238095	36	127
300.55832199546484	301.09238095238095	43	127
300.55832199546484	301.09238095238095	64	127
301.1039909297052	301.22009070294786	70	127
301.27814058956915	301.40585034013606	67	127
301.45229024943313	301.59160997732425	64	127
301.6496598639456	301.7889795918367	60	127
301.8354195011338	301.974716553288	67	127
302.03278911564627	302.17208616780044	69	127
302.2533786848073	302.3926984126984	57	127
302.2533786848073	302.3926984126984	48	127
302.45074829931974	302.62489795918367	48	127
302.45074829931974	302.62489795918367	57	127
302.6945351473923	302.82226757369614	48	127
302.6945351473923	302.82226757369614	57	127
302.8803174603175	303.0196371882086	48	127
302.8803174603175	303.0196371882086	58	127
303.1008843537415	303.22861678004534	58	127
303.1008843537415	303.22861678004534	48	127
303.2866666666667	303.41437641723354	48	127
303.2866666666667	303.41437641723354	58	127
303.4724263038549	303.6465759637188	58	127
303.4724263038549	303.6465759637188	48	127
303.70460317460316	303.8439455782313	48	127
303.70460317460316	303.8439455782313	57	127
303.90199546485263	304.0297052154195	57	127
303.90199546485263	304.0297052154195	48	127
304.08775510204083	304.21546485260774	57	127
304.08775510204083	304.21546485260774	48	127
304.27351473922903	304.4244217687075	48	127
304.27351473922903	304.4244217687075	57	127
304.48249433106577	304.62181405895694	48	127
304.48249433106577	304.62181405895694	58	127
304.66825396825396	304.7959637188209	48	127
304.66825396825396	304.7959637188209	58	127
304.85401360544216	304.99333333333334	48	127
304.85401360544216	304.99333333333334	58	127
305.0397505668934	305.17909297052154	48	127
305.0397505668934	305.17909297052154	58	127
305.24873015873015	305.36485260770974	48	127
305.24873015873015	305.36485260770974	57	127
305.43451247165535	305.5622222222222	48	127
305.43451247165535	305.5622222222222	57	127
305.6086621315193	305.74798185941046	48	127
305.6086621315193	305.74798185941046	57	127
305.80603174603175	305.93374149659866	48	127
305.80603174603175	305.93374149659866	57	127
305.9801814058957	306.1078911564626	48	127
305.9801814058957	306.1078911564626	58	127
306.15433106575966	306.2704081632653	48	127
306.15433106575966	306.2704081632653	58	127
306.3284807256236	306.4561904761905	48	127
306.3284807256236	306.4561904761905	58	127
306.53746031746033	306.6883900226757	48	127
306.53746031746033	306.6883900226757	58	127
306.74643990929707	307.3965759637188	60	127
307.40820861678003	307.57074829931975	60	127
307.582358276644	307.75650793650794	59	127
307.75650793650794	307.9538775510204	57	127
307.9654875283447	308.1860770975057	55	127
308.1860770975057	308.3602267573696	53	127
308.3718367346939	308.88267573696146	52	127
308.89428571428573	309.0800453514739	64	127
309.0916553287982	309.33544217687074	62	127
309.34707482993196	309.5444217687075	60	127
309.5560544217687	309.7302040816327	59	127
309.7302040816327	309.9159637188209	57	127
309.92757369614515	310.496462585034	55	127
310.51968253968255	310.6938321995465	67	127
310.6938321995465	310.89120181405895	65	127
310.9028117913832	311.0769387755102	65	127
311.0885714285714	311.3091609977324	64	127
311.3091609977324	311.4949206349206	62	127
311.5065306122449	311.5877777777778	60	127
311.5877777777778	311.64585034013606	62	127
311.64585034013606	311.70390022675736	60	127
311.70390022675736	311.75034013605443	62	127
311.75034013605443	311.8083900226757	60	127
311.8083900226757	311.86643990929707	62	127
311.86643990929707	311.93609977324263	60	127
311.93609977324263	312.0057596371882	62	127
312.0057596371882	312.06380952380954	60	127
312.06380952380954	312.12185941043083	62	127
312.12185941043083	312.1799092970522	60	127
312.1799092970522	312.24956916099774	62	127
312.24956916099774	312.3192290249433	60	127
312.3192290249433	312.37727891156464	62	127
312.37727891156464	312.481768707483	60	127
312.481768707483	312.5398185941043	62	127
312.5398185941043	312.59786848072565	60	127
312.59786848072565	312.69074829931975	62	127
312.69074829931975	312.74879818594104	60	127
312.74879818594104	312.8184580498866	62	127
312.8184580498866	312.87650793650795	60	127
312.87650793650795	312.96938775510205	59	127
312.96938775510205	313.06226757369615	60	127
313.06226757369615	313.18997732426305	62	127
313.2364172335601	313.37573696145125	60	127
313.43378684807254	313.56149659863945	59	127
313.6195464852608	313.7588662131519	57	127
313.81691609977327	313.9446258503401	55	127
314.00267573696146	314.15360544217685	53	127
314.20004535147393	314.3393424036281	52	127
314.38580498866213	314.5251247165533	50	127
314.5831746031746	314.73410430839004	48	127
314.78054421768707	314.91986394557824	47	127
314.97791383219953	315.10562358276644	45	127
315.1636507936508	315.3029931972789	43	127
315.349433106576	315.5235827664399	41	127
315.57	315.6861224489796	40	127
315.7441723356009	315.87185941043083	38	127
315.9299319727891	316.0692517006803	36	127
316.1273015873016	316.5336507936508	41	127
317.71784580498866	318.1358276643991	43	127
321.00349206349205	321.1195918367347	55	127
321.1892290249433	321.3285714285714	55	127
321.39820861678004	321.54916099773243	55	127
321.5956009070295	321.80455782312924	55	127
321.86263038548753	322.0019501133787	55	127
322.04839002267573	322.17609977324264	55	127
322.23414965986393	322.35024943310657	55	127
322.4198866213152	322.5592290249433	55	127
322.6056689342404	323.0352154195011	55	127
324.40521541950113	324.52131519274377	55	127
324.57936507936506	324.70707482993197	55	127
324.7651247165533	324.90444444444444	55	127
324.9624943310658	325.0785714285714	55	127
325.12503401360544	325.2643537414966	55	127
325.3224036281179	325.4501133786848	56	127
325.5081632653061	325.635873015873	56	127
325.7055328798186	325.84485260770975	56	127
325.9145124716553	326.4485714285714	57	127
327.6792290249433	327.8649886621315	57	127
327.92303854875286	328.0507482993197	57	127
328.0971882086168	328.24809523809523	57	127
328.3061678004535	328.48031746031745	57	127
328.54995464852607	328.6892970521542	57	127
328.74734693877554	328.88666666666666	57	127
329.0027664399093	329.14208616780047	57	127
329.21174603174603	329.37426303854875	57	127
329.43233560090704	329.8154648526077	57	127
331.0809523809524	331.2202721088435	57	127
331.28993197278913	331.46408163265306	57	127
331.5337414965986	331.66145124716553	57	127
331.74272108843536	331.88204081632654	57	127
331.96331065759637	332.1258503401361	57	127
332.1839002267574	332.3580498866213	57	127
332.4277097505669	332.6250793650794	57	127
332.72956916099776	332.961768707483	57	127
333.05462585034013	333.47260770975055	61	127
333.4842176870748	333.82090702947846	57	127
333.83251700680273	334.18079365079365	56	127
334.18079365079365	334.5639455782313	59	127
334.5639455782313	335.82943310657595	57	127
335.8410430839002	335.9455328798186	59	127
336.00358276643993	336.2009523809524	61	127
336.2473922902494	336.4795918367347	64	127
336.4795918367347	336.6537414965986	62	127
336.71179138322	336.8975510204082	61	127
336.94396825396825	337.0717006802721	62	127
337.12975056689345	337.3271201814059	61	127
337.3271201814059	337.5128798185941	59	127
337.5709297052154	337.68702947845804	58	127
337.75666666666666	337.8843990929705	59	127
337.9308390022676	338.1514285714286	57	127
338.1514285714286	338.27913832199545	56	127
338.3371882086168	338.4648752834467	54	127
338.522947845805	338.6506575963719	56	127
338.743537414966	339.12666666666667	52	127
339.13827664399093	339.2427664399093	54	127
339.2427664399093	339.3704761904762	56	127
339.3704761904762	339.4749659863946	57	127
339.4749659863946	339.5678458049887	59	127
339.5678458049887	339.9974149659864	61	127
340.0090022675737	340.4037641723356	57	127
340.4269841269841	340.8449433106576	56	127
340.85655328798185	341.2861224489796	59	127
341.2861224489796	342.5051700680272	57	127
342.5167800453515	342.65609977324266	59	127
342.7025396825397	342.8302494331066	61	127
342.8766893424036	343.08566893424035	64	127
343.08566893424035	343.21337868480725	62	127
343.25981859410433	343.39913832199545	61	127
343.4571882086168	343.5965079365079	62	127
343.66616780045354	343.9215873015873	61	127
343.9215873015873	344.0492970521542	59	127
344.11895691609976	344.2698866213152	58	127
344.33954648526077	344.47886621315195	59	127
344.53691609977324	344.94326530612244	57	127
346.24356009070294	349.28539682539684	45	127
349.2970068027211	350.82952380952383	38	127
350.8411111111111	352.4433106575964	40	127
352.45492063492065	352.5710204081633	45	127
352.6174603174603	352.7451700680272	45	127
352.8148299319728	352.98895691609977	45	127
353.04702947845806	353.18634920634923	45	127
353.2443990929705	353.3837188208617	45	127
353.441768707483	353.5694784580499	45	127
353.6275283446712	353.77845804988664	45	127
353.82489795918366	353.99904761904764	45	127
354.0803174603175	354.24285714285713	45	127
354.2892970521542	354.40539682539685	45	127
354.4866666666667	354.62596371882086	44	127
354.68403628117915	354.81174603174605	44	127
354.8581859410431	355.0091156462585	45	127
355.0671655328798	355.1948752834467	45	127
355.22970521541953	355.3922448979592	43	127
355.46190476190475	355.6128344671202	43	127
355.6708843537415	355.7985941043084	42	127
355.85662131519274	356.00757369614513	42	127
356.0656235827664	356.21655328798187	38	127
356.26297052154194	356.4371428571429	38	127
356.4835827664399	356.6229024943311	40	127
356.68095238095236	356.8318820861678	40	127
356.8782993197279	357.00603174603174	52	127
357.09891156462584	357.2150113378685	52	127
357.2730612244898	357.59814058956914	45	127
357.99285714285713	358.85201814058956	61	127
358.86362811791383	360.43097505668936	62	127
360.4541723356009	360.5702947845805	61	127
360.5702947845805	360.6980045351474	64	127
360.6980045351474	360.7908843537415	62	127
360.7908843537415	360.8837641723356	61	127
360.8837641723356	360.9766439909297	62	127
360.9766439909297	361.06950113378684	64	127
361.06950113378684	361.16238095238094	66	127
361.16238095238094	361.25528344671204	68	127
361.25528344671204	361.33655328798187	69	127
361.33655328798187	361.42943310657597	68	127
361.42943310657597	361.56875283446715	66	127
361.56875283446715	361.66163265306125	64	127
361.66163265306125	361.7777097505669	62	127
361.7777097505669	361.870612244898	61	127
361.870612244898	361.9518820861678	59	127
361.9518820861678	362.0447619047619	57	127
362.0447619047619	362.16086167800455	56	127
362.16086167800455	362.2769614512472	57	127
362.2769614512472	362.38145124716556	59	127
362.38145124716556	362.4975283446712	61	127
362.4975283446712	362.578820861678	62	127
362.578820861678	362.6833106575964	61	127
362.6833106575964	362.7761904761905	59	127
362.7761904761905	362.88068027210886	57	127
362.88068027210886	362.9619501133787	56	127
362.9619501133787	363.06643990929706	57	127
363.06643990929706	363.1477097505669	59	127
363.1477097505669	363.2289795918367	57	127
363.2289795918367	363.29863945578234	56	127
363.29863945578234	363.39151927437644	52	127
363.39151927437644	363.48439909297053	54	127
363.48439909297053	363.57727891156463	56	127
363.57727891156463	363.69337868480727	57	127
363.69337868480727	363.87913832199547	59	127
363.87913832199547	364.01845804988665	61	127
364.01845804988665	364.11133786848075	59	127
364.11133786848075	364.2158276643991	57	127
364.2158276643991	364.29709750566894	59	127
364.29709750566894	364.38997732426304	61	127
364.38997732426304	364.4944671201814	59	127
364.4944671201814	364.5873469387755	57	127
364.5873469387755	364.6802267573696	59	127
364.6802267573696	364.784716553288	61	127
364.784716553288	364.88920634920635	59	127
364.88920634920635	364.98208616780045	57	127
364.98208616780045	365.0981859410431	59	127
365.0981859410431	365.1910657596372	61	127
365.1910657596372	365.29555555555555	59	127
365.29555555555555	365.38843537414965	57	127
365.38843537414965	365.492925170068	59	127
365.492925170068	365.5858049886621	61	127
365.5858049886621	365.6902947845805	59	127
365.6902947845805	365.7831746031746	57	127
365.7831746031746	365.87603174603174	59	127
365.87603174603174	365.96891156462584	61	127
365.96891156462584	366.0734013605442	59	127
366.0734013605442	366.1663038548753	57	127
366.1663038548753	366.2591836734694	59	127
366.2591836734694	366.39850340136053	61	127
366.39850340136053	366.4913832199546	59	127
366.4913832199546	366.5842403628118	57	127
366.5842403628118	366.70036281179136	61	127
366.70036281179136	366.816462585034	59	127
366.816462585034	366.9093424036281	57	127
366.9093424036281	367.037052154195	56	127
367.09507936507936	367.2344217687075	68	127
367.2924716553288	367.4201814058957	68	127
367.90780045351477	368.0238775510204	69	127
368.0703401360544	368.19804988662133	69	127
368.6392290249433	368.7669387755102	71	127
368.82498866213155	368.9526984126984	71	127
369.01074829931974	369.15006802721086	71	127
369.2081179138322	369.3358276643991	68	127
369.41709750566895	369.54478458049886	68	127
369.60285714285715	369.7537641723356	68	127
369.8118367346939	369.95115646258506	68	127
370.00920634920635	370.1136961451247	69	127
370.1136961451247	370.2065759637188	71	127
370.2065759637188	370.3110657596372	73	127
370.3110657596372	370.4039455782313	71	127
370.4039455782313	370.4968253968254	69	127
370.4968253968254	370.60131519274375	71	127
370.60131519274375	370.7058049886621	73	127
370.7058049886621	370.7986848072562	71	127
370.7986848072562	370.86834467120184	69	127
370.86834467120184	370.9728344671202	71	127
370.9728344671202	371.0657142857143	73	127
371.0657142857143	371.18179138321995	71	127
371.18179138321995	371.27469387755104	69	127
371.27469387755104	371.36757369614514	73	127
371.36757369614514	371.50689342403626	71	127
371.50689342403626	371.5997505668934	69	127
371.5997505668934	371.72748299319727	68	127
371.77392290249435	371.890022675737	68	127
371.95968253968255	372.08739229024945	69	127
372.14544217687074	372.27315192743765	69	127
372.33120181405894	372.45891156462585	71	127
372.5285714285714	372.6911111111111	71	127
372.7491609977324	372.8884807256236	68	127
372.9465306122449	373.09746031746033	68	127
373.14390022675735	373.27160997732426	73	127
373.3296371882086	373.4457596371882	73	127
373.49219954648527	373.63151927437644	71	127
373.68956916099773	373.81727891156464	71	127
373.87532879818593	374.00303854875284	69	127
374.0494557823129	374.17718820861677	69	127
374.22362811791385	374.35131519274375	69	127
374.4326077097506	374.583537414966	69	127
374.6996371882086	374.7925170068027	68	127
374.7925170068027	374.8853968253968	64	127
374.8853968253968	374.9666439909297	66	127
374.9666439909297	375.0595464852608	68	127
375.0595464852608	375.16403628117916	69	127
375.16403628117916	375.245306122449	71	127
375.245306122449	375.34979591836736	73	127
375.34979591836736	375.44267573696146	75	127
375.44267573696146	377.20739229024946	76	127
377.2189795918367	377.3467120181406	76	127
377.39315192743766	377.54408163265305	71	127
377.6021315192744	377.7298185941043	68	127
377.7762811791383	378.0665306122449	64	127
378.17102040816326	378.554126984127	40	127
381.514693877551	382.1532426303855	69	127
382.16485260770975	382.69891156462586	68	127
382.69891156462586	382.8730612244898	69	127
382.8730612244898	384.1269387755102	59	127
387.91179138321996	388.70126984126983	69	127
388.7128798185941	389.3746485260771	68	127
389.3746485260771	389.5836281179138	69	127
389.5836281179138	390.8026757369615	59	127
395.5975963718821	397.71061224489796	69	127
397.72222222222223	398.0008616780045	71	127
398.0008616780045	398.25628117913834	69	127
398.25628117913834	398.34916099773244	68	127
398.34916099773244	398.43043083900227	69	127
398.43043083900227	398.6045804988662	68	127
398.6045804988662	398.6974603174603	69	127
398.6974603174603	398.9528798185941	71	127
398.9528798185941	399.1386394557823	68	127
399.1386394557823	399.3360090702948	74	127
399.3360090702948	399.5565986394558	71	127
399.5565986394558	399.80040816326533	68	127
399.80040816326533	400.06743764172336	64	127
400.06743764172336	400.53183673469385	62	127
400.57827664399093	401.0310657596372	61	127
401.92503401360545	402.6912925170068	60	127
402.6912925170068	403.2834013605442	59	127
403.2834013605442	403.5504308390023	60	127
403.5504308390023	405.59378684807257	61	127
405.59378684807257	406.0233560090703	62	127
406.0349659863946	406.47614512471654	64	127
406.4877551020408	406.89410430839	64	127
406.9057142857143	407.01020408163265	57	127
407.01020408163265	407.114693877551	59	127
407.114693877551	407.19596371882085	61	127
407.19596371882085	407.28884353741495	62	127
407.28884353741495	407.3468934240363	64	127
407.3468934240363	407.4281632653061	66	127
407.4281632653061	407.5326530612245	68	127
407.5326530612245	407.63714285714286	69	127
407.63714285714286	407.7184126984127	68	127
407.7184126984127	407.8112925170068	69	127
407.8112925170068	407.8925623582766	68	127
407.8925623582766	407.9854421768708	66	127
407.9854421768708	408.0899319727891	64	127
408.0899319727891	408.18281179138324	62	127
408.18281179138324	408.27569160997734	61	127
408.27569160997734	408.3569614512472	59	127
408.3569614512472	409.1580498866213	57	127
409.1696598639456	409.9475283446712	52	127
409.9475283446712	410.05201814058955	57	127
410.05201814058955	410.1332879818594	59	127
410.1332879818594	410.23777777777775	61	127
410.23777777777775	410.3306575963719	62	127
410.3306575963719	410.423537414966	64	127
410.423537414966	410.49319727891157	66	127
410.49319727891157	410.58607709750567	68	127
410.58607709750567	410.67895691609976	69	127
410.67895691609976	410.8066666666667	68	127
410.8066666666667	410.89954648526077	69	127
410.89954648526077	410.9808163265306	68	127
410.9808163265306	411.1085260770975	66	127
411.1085260770975	411.18979591836734	64	127
411.18979591836734	411.31750566893425	62	127
411.31750566893425	411.44521541950115	61	127
411.44521541950115	411.53809523809525	59	127
411.53809523809525	412.35079365079366	57	127
412.36240362811793	413.1518820861678	52	127
413.1518820861678	413.32603174603173	57	127
413.3840816326531	413.54662131519274	57	127
413.70916099773245	413.8717006802721	57	127
413.8833106575964	414.04585034013604	62	127
414.0922902494331	414.2548299319728	62	127
414.440589569161	414.6495691609977	62	127
414.6495691609977	414.7888888888889	61	127
414.8701587301587	415.04430839002265	61	127
415.2416780045352	415.39260770975056	61	127
415.40421768707483	415.543537414966	59	127
415.6015873015873	415.75251700680275	59	127
415.84539682539685	416.0195464852608	59	127
416.0659863945578	416.1936961451247	59	127
416.2401360544218	416.3678458049887	61	127
416.43750566893425	416.646485260771	61	127
416.8206349206349	416.99478458049884	61	127
417.0063945578231	417.13410430839	62	127
417.1805442176871	417.35469387755103	62	127
417.52884353741496	417.76104308390023	62	127
417.7842630385488	417.97002267573697	61	127
418.63179138321993	418.7130612244898	61	127
418.7130612244898	418.8059410430839	62	127
418.8059410430839	418.898820861678	64	127
418.898820861678	418.9917006802721	66	127
418.9917006802721	419.07297052154195	64	127
419.07297052154195	419.16585034013605	66	127
419.16585034013605	419.2703401360544	68	127
419.2703401360544	419.35160997732424	69	127
419.35160997732424	419.44448979591834	64	127
419.44448979591834	419.5373696145125	66	127
419.5373696145125	419.61863945578233	68	127
419.61863945578233	419.7463492063492	69	127
419.7463492063492	419.8624489795918	68	127
419.8624489795918	419.9437188208617	69	127
419.9437188208617	420.0482086167801	71	127
420.0482086167801	420.23396825396827	73	127
421.0002267573696	421.104716553288	52	127
421.104716553288	421.19759637188207	54	127
421.19759637188207	421.2788662131519	56	127
421.2788662131519	421.37174603174606	57	127
421.37174603174606	421.46462585034016	56	127
421.46462585034016	421.54589569161	57	127
421.54589569161	421.6387755102041	59	127
421.6387755102041	421.7316553287982	61	127
421.7316553287982	421.83614512471655	56	127
421.83614512471655	421.92902494331065	57	127
421.92902494331065	422.02190476190475	59	127
422.02190476190475	422.11478458049885	61	127
422.11478458049885	422.20766439909295	59	127
422.20766439909295	422.3121541950113	61	127
422.3121541950113	422.4166439909297	62	127
422.4166439909297	422.77655328798187	64	127
428.23324263038546	428.46544217687074	61	127
428.46544217687074	428.68603174603174	52	127
428.68603174603174	428.8485714285714	54	127
428.8485714285714	429.0227210884354	56	127
429.0227210884354	429.2549206349206	57	127
429.2549206349206	429.5103401360544	49	127
429.5103401360544	429.75414965986397	50	127
429.75414965986397	429.91668934240363	52	127
429.91668934240363	430.1140589569161	54	127
430.1140589569161	430.28820861678	52	127
430.28820861678	430.49718820861676	50	127
430.49718820861676	430.67133786848075	49	127
430.67133786848075	430.8687074829932	47	127
430.8687074829932	431.0892970521542	49	127
431.0892970521542	431.39115646258506	50	127
431.39115646258506	431.5885260770975	51	127
431.5885260770975	431.7742857142857	52	127
431.7742857142857	431.98326530612246	47	127
431.98326530612246	432.2851247165533	52	127
432.2851247165533	432.49410430839004	50	127
432.49410430839004	432.85401360544216	49	127
432.86562358276643	433.3184126984127	47	127
433.330022675737	433.71315192743765	45	127
433.71315192743765	434.1311111111111	47	127
434.1427210884354	435.3849886621315	45	127
435.3849886621315	435.7797278911565	43	127
435.79133786848075	436.5459863945578	42	127
436.56920634920635	437.34707482993196	41	127
437.3586848072562	438.1249433106576	40	127
438.1365532879819	438.5312925170068	45	127
438.5312925170068	438.9724716553288	43	127
438.9724716553288	439.73873015873016	42	127
439.75034013605443	440.59786848072565	41	127
440.59786848072565	441.24802721088435	40	127
441.2596371882086	441.7008163265306	45	127
441.7124263038549	442.15360544217685	43	127
442.15360544217685	443.0011337868481	42	127
443.01274376417234	443.8022222222222	42	127
443.8138321995465	444.68458049886624	40	127
444.69619047619045	445.00965986394556	52	127
445.13736961451247	445.45083900226757	52	127
445.5785487528345	446.73954648526075	64	127
446.751156462585	446.96013605442175	61	127
446.96013605442175	447.19233560090703	62	127
447.19233560090703	447.4245351473923	64	127
447.4245351473923	447.63351473922904	57	127
447.63351473922904	447.90054421768707	59	127
447.90054421768707	448.074693877551	61	127
448.074693877551	448.28367346938774	52	127
448.28367346938774	448.469433106576	56	127
448.469433106576	448.7016326530612	57	127
448.7016326530612	448.9222222222222	49	127
448.9222222222222	449.09637188208615	50	127
449.09637188208615	449.31696145124715	52	127
449.31696145124715	449.6072108843537	45	127
449.6072108843537	449.81619047619046	47	127
449.81619047619046	450.0135600907029	49	127
450.0135600907029	450.1877097505669	40	127
450.1877097505669	450.3734693877551	42	127
450.3734693877551	450.61727891156465	44	127
450.61727891156465	450.9075283446712	45	127
450.9075283446712	451.1861678004535	47	127
455.4121995464853	455.5979591836735	40	127
455.5979591836735	455.8069387755102	42	127
455.8069387755102	456.03913832199544	44	127
456.03913832199544	456.29455782312925	45	127
456.29455782312925	456.4687074829932	47	127
456.4687074829932	456.6544671201814	49	127
456.6544671201814	456.82861678004537	50	127
456.82861678004537	457.0840362811791	52	127
457.0840362811791	457.2581859410431	51	127
457.2581859410431	457.47877551020406	52	127
457.47877551020406	457.6645351473923	50	127
457.6645351473923	457.8502947845805	49	127
457.8502947845805	458.02444444444444	47	127
458.02444444444444	458.2334240362812	45	127
458.2334240362812	458.46562358276645	44	127
458.46562358276645	458.6281632653061	45	127
458.6746031746032	458.88358276643993	45	127
458.88358276643993	459.09256235827667	47	127
459.09256235827667	459.37120181405896	49	127
459.37120181405896	459.56857142857143	52	127
459.56857142857143	459.69628117913834	50	127
459.74272108843536	459.9052607709751	49	127
459.9865306122449	460.2071201814059	50	127
460.2651700680272	460.4509297052154	49	127
460.4509297052154	460.56702947845804	47	127
460.64829931972787	460.8340589569161	46	127
460.88049886621314	460.9965986394558	47	127
461.0546485260771	461.24040816326533	45	127
461.24040816326533	461.4261678004535	44	127
461.4609977324263	461.60031746031746	42	127
461.69319727891155	461.83251700680273	44	127
461.91378684807256	462.04149659863947	45	127
462.14598639455784	462.3897959183673	45	127
462.3897959183673	462.5639455782313	47	127
462.5639455782313	462.7613151927438	49	127
462.7613151927438	462.95868480725625	52	127
462.95868480725625	463.1212244897959	50	127
463.167664399093	463.3069841269841	49	127
463.36503401360545	463.5275736961451	50	127
463.59723356009073	463.80621315192747	49	127
463.80621315192747	463.92231292517005	47	127
463.99197278911566	464.1661224489796	46	127
464.23578231292515	464.39832199546487	47	127
464.46798185941043	464.6305215419501	45	127
464.6305215419501	464.73501133786846	44	127
464.76984126984127	464.90916099773244	42	127
464.96721088435373	465.1065306122449	44	127
465.17619047619047	465.3967800453515	45	127
465.45482993197277	465.7334693877551	45	127
465.7334693877551	465.90761904761905	47	127
465.90761904761905	466.1049886621315	49	127
466.1049886621315	466.27913832199545	52	127
466.27913832199545	466.40684807256235	50	127
466.4300680272109	466.54616780045353	49	127
466.6042176870748	466.743537414966	50	127
466.789977324263	466.964126984127	52	127
466.964126984127	467.1034467120181	51	127
467.1498866213152	467.26598639455784	50	127
467.32403628117913	467.54462585034014	51	127
467.6607256235828	467.8697052154195	54	127
467.8697052154195	467.9974149659864	52	127
468.0554648526077	468.1947845804989	51	127
468.2412244897959	468.41537414965984	52	127
468.4734240362812	468.70562358276646	54	127
468.70562358276646	468.85655328798185	53	127
468.90299319727893	469.1235827664399	53	127
469.1932426303855	469.3673922902494	53	127
469.437052154195	471.1437188208617	54	127
471.1437188208617	472.8387755102041	56	127
472.8387755102041	473.69791383219956	57	127
473.7211337868481	474.557052154195	50	127
474.557052154195	475.2884807256236	52	127
475.30009070294784	476.1243990929705	40	127
476.1360090702948	477.73818594104307	42	127
477.73818594104307	479.31714285714287	44	127
479.31714285714287	480.14145124716555	45	127
480.1530612244898	480.95414965986396	38	127
480.9657596371882	481.73201814058956	40	127
481.74362811791383	482.52149659863943	40	127
482.54471655328797	483.3806349206349	45	127
483.3922448979592	484.1120634920635	38	127
484.12367346938777	485.0292517006803	40	127
485.0292517006803	485.8767800453515	40	127
485.9232199546485	486.0509297052154	45	127
486.09736961451244	486.2482993197279	57	127
486.29473922902497	486.4224489795918	57	127
486.50371882086165	486.63142857142856	57	127
486.67786848072564	486.81718820861676	57	127
486.8752380952381	486.99133786848074	57	127
487.0609977324263	487.21192743764175	54	127
487.25836734693877	487.3860770975057	51	127
487.44412698412697	487.5718367346939	52	127
487.61827664399095	487.7808163265306	52	127
487.8272562358277	487.95496598639454	49	127
488.0130158730159	488.152335600907	45	127
488.1987755102041	488.3497052154195	52	127
488.39614512471655	488.5586848072562	52	127
488.61673469387756	488.7560544217687	52	127
488.83732426303857	488.9998639455782	52	127
489.0695238095238	489.5107029478458	61	127
489.52231292517007	489.89383219954647	57	127
489.90544217687074	490.2769614512472	56	127
490.2885714285714	490.6717006802721	59	127
490.6833106575964	491.87913832199547	52	127
491.89074829931974	491.98362811791384	54	127
491.98362811791384	492.0997278911565	56	127
492.0997278911565	492.1926077097506	57	127
492.1926077097506	492.2854875283447	59	127
492.2854875283447	492.65700680272107	61	127
492.6802267573696	493.0865759637188	57	127
493.0981859410431	493.51614512471656	56	127
493.51614512471656	493.9573242630386	59	127
493.9689342403628	495.10671201814057	52	127
495.10671201814057	495.19959183673467	54	127
495.19959183673467	495.2924716553288	56	127
495.2924716553288	495.3969614512472	57	127
495.3969614512472	495.5130612244898	59	127
495.5130612244898	495.9542403628118	61	127
495.9542403628118	496.3489795918367	57	127
496.360589569161	496.79015873015874	56	127
496.79015873015874	497.16167800453513	59	127
497.1732879818594	497.56802721088434	57	127
497.56802721088434	497.9279365079365	52	127
497.95115646258506	498.32267573696146	51	127
498.3342857142857	498.7522448979592	54	127
498.7522448979592	499.1702040816327	52	127
499.1818140589569	499.51850340136053	49	127
499.5301133786848	499.890022675737	47	127
499.91324263038547	500.3079818594104	50	127
500.3195918367347	500.7259410430839	49	127
500.73755102040815	501.17873015873016	45	127
501.19034013605443	501.5618594104308	44	127
501.58507936507937	502.0262585034014	47	127
502.03786848072565	502.40938775510205	45	127
502.4209977324263	502.8273469387755	42	127
502.8273469387755	503.1524263038549	40	127
503.16403628117916	503.66326530612247	44	127
503.67487528344674	504.13927437641723	45	127
504.13927437641723	504.60367346938773	42	127
504.60367346938773	504.98680272108845	40	127
504.9984126984127	505.4279818594104	44	127
505.45120181405895	505.81111111111113	45	127
505.81111111111113	506.20585034013607	42	127
506.21746031746034	506.5657596371882	40	127
506.57736961451246	507.07659863945577	44	127
507.07659863945577	507.4597278911565	45	127
507.4713378684807	507.8776870748299	42	127
507.8892970521542	508.35369614512473	40	127
508.365306122449	508.93419501133786	44	127
508.98063492063494	510.13002267573694	45	127
510.6873015873016	512.161768707483	57	127
510.6873015873016	512.161768707483	45	127
510.6873015873016	512.161768707483	52	127
553.6674376417234	554.7123356009071	45	127
