# onset,offset,note,velocity
0.034058956916099774	4.260090702947846	71	127
0.034058956916099774	2.2980045351473923	52	127
2.414104308390023	3.157142857142857	59	127
3.180362811791383	3.6563718820861677	56	127
3.679591836734694	4.260090702947846	59	127
4.283310657596372	4.863809523809524	52	127
4.283310657596372	4.863809523809524	76	127
4.875419501133787	5.363038548752835	75	127
4.875419501133787	5.363038548752835	59	127
5.421065759637188	5.978367346938776	56	127
5.421065759637188	5.978367346938776	76	127
6.001587301587302	6.512426303854875	59	127
6.001587301587302	6.512426303854875	68	127
6.558866213151927	7.058095238095238	51	127
6.558866213151927	8.648639455782313	71	127
7.081315192743764	7.557324263038549	59	127
7.580544217687075	8.126213151927438	54	127
8.149433106575964	8.648639455782313	59	127
8.660272108843538	9.89092970521542	69	127
8.660272108843538	9.217528344671202	51	127
9.229160997732427	9.89092970521542	59	127
9.902539682539683	10.45981859410431	52	127
9.902539682539683	10.076666666666666	68	127
10.00702947845805	10.192789115646258	69	127
10.111519274376418	10.2740589569161	68	127
10.216009070294785	10.45981859410431	66	127
10.343718820861678	10.610748299319727	68	127
10.483038548752834	10.993854875283446	59	127
10.483038548752834	10.726848072562358	69	127
10.750068027210885	10.993854875283446	71	127
11.017097505668934	12.038775510204081	73	127
11.017097505668934	11.527936507936507	57	127
11.551156462585034	12.038775510204081	61	127
12.061995464852608	12.538004535147392	56	127
12.061995464852608	13.037233560090703	71	127
12.572834467120181	13.037233560090703	59	127
13.06045351473923	13.594512471655328	57	127
13.06045351473923	13.594512471655328	54	127
13.06045351473923	14.186621315192744	75	127
13.617732426303855	14.186621315192744	59	127
14.20984126984127	14.813560090702948	76	127
14.20984126984127	14.813560090702948	52	127
14.20984126984127	14.813560090702948	56	127
14.836780045351475	15.59142857142857	59	127
14.836780045351475	15.59142857142857	68	127
15.637868480725624	16.148684807256235	47	127
15.637868480725624	17.205215419501133	71	127
16.171927437641724	16.682766439909297	59	127
16.705986394557822	17.205215419501133	54	127
17.228412698412697	17.72766439909297	59	127
17.228412698412697	17.72766439909297	70	127
17.739274376417235	18.26172335600907	47	127
17.739274376417235	18.749319727891155	69	127
18.284943310657596	18.749319727891155	59	127
18.772562358276645	19.341451247165534	54	127
19.37628117913832	20.003219954648525	59	127
20.026439909297054	20.595328798185943	51	127
20.026439909297054	21.686666666666667	69	127
20.618548752834467	21.12938775510204	59	127
21.140997732426303	21.686666666666667	54	127
21.709886621315192	22.301972789115645	69	127
21.709886621315192	22.301972789115645	59	127
22.325215419501134	22.789614512471655	51	127
22.325215419501134	22.789614512471655	69	127
22.812834467120183	23.277233560090703	52	127
22.812834467120183	23.277233560090703	68	127
23.300453514739228	23.857732426303855	66	127
23.300453514739228	23.857732426303855	59	127
23.300453514739228	23.857732426303855	57	127
23.88095238095238	24.519501133786846	64	127
23.88095238095238	24.519501133786846	56	127
23.88095238095238	24.519501133786846	59	127
24.554331065759637	26.644126984126984	73	127
24.554331065759637	25.111609977324264	57	127
25.123219954648526	25.610839002267575	64	127
25.6340589569161	26.13328798185941	61	127
26.156507936507936	26.644126984126984	64	127
26.66734693877551	27.224625850340136	56	127
26.66734693877551	27.224625850340136	59	127
26.66734693877551	27.712244897959184	71	127
27.24784580498866	27.712244897959184	64	127
27.73546485260771	28.304353741496598	52	127
27.73546485260771	28.304353741496598	56	127
27.73546485260771	28.594603174603176	76	127
28.31596371882086	28.873242630385487	61	127
28.6178231292517	28.873242630385487	73	127
28.88485260770975	29.175102040816327	71	127
28.88485260770975	29.430521541950114	54	127
29.03578231292517	29.30281179138322	73	127
29.198321995464852	29.430521541950114	71	127
29.326031746031745	29.546621315192745	73	127
29.442131519274376	29.929750566893425	63	127
29.442131519274376	29.674331065759638	71	127
29.56984126984127	29.80204081632653	73	127
29.697551020408163	29.929750566893425	71	127
29.825260770975056	30.045850340136056	73	127
29.95297052154195	30.18517006802721	71	127
29.95297052154195	30.463809523809523	59	127
30.080680272108843	30.324489795918367	73	127
30.208390022675736	30.463809523809523	71	127
30.347709750566892	30.614739229024945	73	127
30.48702947845805	31.079138321995465	63	127
30.48702947845805	30.788888888888888	71	127
30.649569160997732	30.951428571428572	73	127
30.812108843537416	31.079138321995465	71	127
30.974648526077097	31.21845804988662	73	127
31.10235827664399	31.613197278911564	54	127
31.10235827664399	31.357777777777777	70	127
31.230068027210883	31.48548752834467	71	127
31.380997732426305	31.613197278911564	70	127
31.497097505668933	31.764126984126985	71	127
31.636417233560092	32.19369614512472	64	127
31.636417233560092	31.90344671201814	70	127
31.775736961451248	32.03113378684807	71	127
31.926666666666666	32.19369614512472	70	127
32.05437641723356	32.34462585034014	71	127
32.21691609977324	32.51877551020408	70	127
32.21691609977324	32.82063492063492	61	127
32.36784580498866	32.68131519274377	71	127
32.565215419501136	32.82063492063492	70	127
32.70453514739229	32.95995464852608	71	127
32.84385487528345	33.1108843537415	70	127
32.84385487528345	33.42433106575964	64	127
32.97156462585034	33.28503401360544	71	127
33.15732426303855	33.42433106575964	70	127
33.30825396825397	33.56367346938776	71	127
33.44757369614513	34.57371882086168	59	127
33.44757369614513	33.702993197278914	69	127
33.44757369614513	34.57371882086168	63	127
33.58689342403628	33.84231292517007	71	127
33.72621315192744	33.981632653061226	69	127
33.865532879818595	34.15578231292517	71	127
34.00485260770975	34.28349206349206	69	127
34.17900226757369	34.42281179138322	71	127
34.30668934240363	34.57371882086168	69	127
34.446009070294785	34.7130612244898	71	127
34.59696145124717	35.10780045351474	69	127
34.86399092970522	35.10780045351474	68	127
35.119410430839004	35.30517006802721	69	127
35.32836734693878	35.54897959183673	66	127
35.57219954648526	35.81600907029478	63	127
35.83920634920635	36.05981859410431	59	127
36.083015873015874	36.315238095238094	58	127
36.33843537414966	36.6287074829932	57	127
36.651927437641724	36.930566893424036	56	127
36.95378684807256	37.267256235827666	57	127
37.302086167800454	37.638775510204084	54	127
37.685215419501134	37.98705215419501	59	127
38.021904761904764	38.57918367346939	40	127
38.021904761904764	39.09002267573696	52	127
38.60240362811791	39.09002267573696	47	127
39.113242630385486	39.635668934240364	44	127
39.65891156462585	40.18136054421769	47	127
40.204580498866214	40.7734693877551	40	127
40.79668934240363	41.307528344671205	47	127
41.06371882086168	41.307528344671205	59	127
41.203038548752836	41.41199546485261	64	127
41.33074829931973	41.783537414965984	44	127
41.33074829931973	42.42208616780045	68	127
41.80673469387755	42.42208616780045	47	127
42.456916099773245	42.956145124716556	39	127
42.97936507936508	43.490204081632655	47	127
43.24639455782313	43.490204081632655	59	127
43.36249433106576	43.61791383219955	64	127
43.51342403628118	44.61637188208617	69	127
43.51342403628118	44.0707029478458	42	127
44.093922902494334	44.61637188208617	47	127
44.62798185941043	45.16204081632653	39	127
45.17365079365079	45.672879818594105	47	127
45.452290249433105	45.672879818594105	59	127
45.568390022675736	45.788979591836735	64	127
45.68448979591837	46.18371882086168	40	127
45.68448979591837	46.69455782312925	68	127
46.2069387755102	46.69455782312925	47	127
46.717777777777776	47.33310657596372	45	127
47.35632653061224	47.86716553287982	52	127
47.61174603174603	47.86716553287982	64	127
47.76267573696145	48.04131519274377	68	127
47.925215419501136	48.44766439909297	44	127
47.925215419501136	48.94689342403628	71	127
48.470884353741496	48.94689342403628	52	127
48.99333333333333	49.49256235827664	42	127
48.99333333333333	49.49256235827664	45	127
49.51578231292517	49.95696145124717	47	127
49.74798185941043	49.95696145124717	64	127
49.86408163265306	50.08467120181406	68	127
49.98018140589569	50.45619047619048	44	127
49.98018140589569	51.025079365079364	71	127
49.98018140589569	50.45619047619048	40	127
50.479410430839	51.025079365079364	47	127
51.04829931972789	51.55913832199546	39	127
51.582358276643994	52.011927437641724	47	127
51.77972789115646	52.011927437641724	59	127
51.89582766439909	52.16285714285714	66	127
52.03514739229025	52.59242630385488	42	127
52.03514739229025	53.207755102040814	71	127
52.60403628117914	53.207755102040814	47	127
53.219365079365076	53.776643990929706	39	127
53.78825396825397	54.33392290249433	47	127
54.11333333333334	54.33392290249433	59	127
54.24104308390023	54.48485260770975	66	127
54.357142857142854	55.48331065759637	71	127
54.357142857142854	54.94925170068027	42	127
54.972471655328796	55.48331065759637	47	127
55.506530612244894	56.063809523809525	39	127
56.08702947845805	56.63269841269841	47	127
56.3540589569161	56.63269841269841	59	127
56.493378684807254	56.81845804988662	66	127
56.69074829931973	57.24802721088435	42	127
56.69074829931973	57.74725623582766	69	127
57.27124716553288	57.74725623582766	47	127
57.758866213151926	58.18843537414966	47	127
57.758866213151926	58.18843537414966	39	127
58.21165532879819	58.699274376417236	64	127
58.21165532879819	58.699274376417236	47	127
58.21165532879819	58.699274376417236	40	127
58.72249433106576	59.279773242630384	47	127
58.72249433106576	59.279773242630384	63	127
58.72249433106576	59.279773242630384	45	127
59.30299319727891	60.01120181405896	64	127
59.30299319727891	60.01120181405896	44	127
59.30299319727891	60.01120181405896	47	127
60.03442176870748	60.68458049886621	45	127
60.707800453514736	61.28829931972789	52	127
61.05609977324263	61.28829931972789	64	127
61.18380952380952	61.42761904761905	69	127
61.311519274376415	61.799138321995464	49	127
61.311519274376415	62.27514739229025	73	127
61.82235827664399	62.27514739229025	52	127
62.298367346938775	62.75115646258504	44	127
62.77437641723356	63.23877551020408	52	127
63.018185941043086	63.23877551020408	64	127
63.14589569160998	63.35487528344671	71	127
63.26199546485261	63.74961451247165	47	127
63.26199546485261	64.39977324263039	74	127
63.76122448979592	64.39977324263039	52	127
64.42299319727891	65.03832199546486	45	127
65.06154195011338	65.60721088435375	52	127
65.32854875283446	65.60721088435375	64	127
65.50272108843538	65.73492063492064	69	127
65.63043083900227	66.09480725623582	49	127
65.63043083900227	66.66371882086167	73	127
66.12965986394558	66.66371882086167	52	127
66.6869387755102	67.162947845805	44	127
67.18616780045352	67.67378684807257	52	127
67.42997732426304	67.67378684807257	64	127
67.55768707482993	67.80149659863946	71	127
67.69700680272109	68.27750566893424	47	127
67.69700680272109	68.98571428571428	74	127
68.32394557823129	68.98571428571428	52	127
69.00891156462585	69.46172335600907	45	127
69.4849433106576	69.96095238095238	52	127
69.9841723356009	70.52984126984127	46	127
70.5530612244898	71.04068027210884	52	127
71.06390022675737	71.58634920634921	47	127
71.60956916099774	72.17843537414966	52	127
72.19006802721088	72.81698412698412	46	127
72.84022675736962	73.4439455782313	52	127
73.47877551020409	74.7907029478458	47	127
73.47877551020409	74.7907029478458	52	127
74.8255328798186	75.82399092970522	58	127
74.8255328798186	75.82399092970522	73	127
74.8255328798186	76.90371882086168	64	127
75.84721088435374	76.90371882086168	74	127
75.84721088435374	76.90371882086168	59	127
76.92693877551021	78.1575963718821	56	127
76.92693877551021	78.1575963718821	59	127
76.92693877551021	78.1575963718821	62	127
76.92693877551021	78.1575963718821	40	127
76.92693877551021	78.1575963718821	44	127
76.92693877551021	78.1575963718821	47	127
76.92693877551021	78.1575963718821	50	127
76.92693877551021	78.1575963718821	52	127
78.18081632653062	79.62045351473922	52	127
78.18081632653062	79.62045351473922	56	127
78.18081632653062	79.62045351473922	59	127
78.18081632653062	79.62045351473922	62	127
78.18081632653062	79.62045351473922	40	127
78.18081632653062	79.62045351473922	44	127
78.18081632653062	79.62045351473922	47	127
78.18081632653062	79.62045351473922	50	127
85.88984126984127	86.11043083900226	33	127
85.88984126984127	86.11043083900226	61	127
85.88984126984127	86.11043083900226	57	127
85.88984126984127	86.11043083900226	52	127
86.11043083900226	86.29619047619047	61	127
86.11043083900226	86.29619047619047	57	127
86.11043083900226	86.29619047619047	52	127
86.11043083900226	86.29619047619047	33	127
86.30780045351474	86.48195011337869	33	127
86.30780045351474	86.48195011337869	57	127
86.30780045351474	86.48195011337869	61	127
86.30780045351474	86.48195011337869	52	127
86.49353741496599	86.73736961451247	61	127
86.49353741496599	86.73736961451247	52	127
86.49353741496599	86.73736961451247	57	127
86.49353741496599	86.73736961451247	33	127
86.74895691609977	86.92312925170069	62	127
86.74895691609977	86.92312925170069	33	127
86.74895691609977	86.92312925170069	52	127
86.74895691609977	86.92312925170069	59	127
86.93473922902494	87.14371882086168	59	127
86.93473922902494	87.14371882086168	62	127
86.93473922902494	87.14371882086168	52	127
86.93473922902494	87.14371882086168	33	127
87.14371882086168	87.37591836734694	56	127
87.14371882086168	87.37591836734694	33	127
87.14371882086168	87.37591836734694	52	127
87.14371882086168	87.37591836734694	62	127
87.38750566893424	87.56167800453515	62	127
87.38750566893424	87.56167800453515	33	127
87.38750566893424	87.56167800453515	52	127
87.38750566893424	87.56167800453515	56	127
87.57328798185941	87.95641723356009	61	127
87.57328798185941	87.95641723356009	33	127
87.57328798185941	87.95641723356009	57	127
87.57328798185941	87.95641723356009	52	127
89.12902494331065	89.32639455782314	54	127
89.12902494331065	89.32639455782314	59	127
89.12902494331065	89.32639455782314	62	127
89.12902494331065	89.32639455782314	38	127
89.32639455782314	89.50054421768708	38	127
89.32639455782314	89.50054421768708	54	127
89.32639455782314	89.50054421768708	59	127
89.32639455782314	89.50054421768708	62	127
89.51215419501133	89.76757369614512	54	127
89.51215419501133	89.76757369614512	59	127
89.51215419501133	89.76757369614512	62	127
89.51215419501133	89.76757369614512	38	127
89.76757369614512	89.97655328798186	54	127
89.76757369614512	89.97655328798186	59	127
89.76757369614512	89.97655328798186	62	127
89.76757369614512	89.97655328798186	38	127
89.98816326530613	90.1507029478458	54	127
89.98816326530613	90.1507029478458	38	127
89.98816326530613	90.1507029478458	62	127
89.98816326530613	90.1507029478458	59	127
90.16231292517007	90.38290249433106	38	127
90.16231292517007	90.38290249433106	54	127
90.16231292517007	90.38290249433106	59	127
90.16231292517007	90.38290249433106	62	127
90.38290249433106	90.61510204081632	38	127
90.38290249433106	90.61510204081632	62	127
90.38290249433106	90.61510204081632	59	127
90.38290249433106	90.61510204081632	54	127
90.6267120181406	90.80086167800454	54	127
90.6267120181406	90.80086167800454	38	127
90.6267120181406	90.80086167800454	62	127
90.6267120181406	90.80086167800454	59	127
90.81244897959184	91.18399092970522	40	127
90.81244897959184	91.18399092970522	62	127
90.81244897959184	91.18399092970522	59	127
90.81244897959184	91.18399092970522	52	127
92.37981859410431	92.58879818594104	52	127
92.37981859410431	92.58879818594104	57	127
92.37981859410431	92.58879818594104	61	127
92.37981859410431	92.58879818594104	33	127
92.60038548752834	92.78616780045351	33	127
92.60038548752834	92.78616780045351	61	127
92.60038548752834	92.78616780045351	57	127
92.60038548752834	92.78616780045351	52	127
92.79777777777778	92.99514739229025	33	127
92.79777777777778	92.99514739229025	52	127
92.79777777777778	92.99514739229025	61	127
92.79777777777778	92.99514739229025	57	127
92.99514739229025	93.18090702947846	61	127
92.99514739229025	93.18090702947846	57	127
92.99514739229025	93.18090702947846	52	127
92.99514739229025	93.18090702947846	33	127
93.19251700680272	93.3666439909297	59	127
93.19251700680272	93.3666439909297	62	127
93.19251700680272	93.3666439909297	52	127
93.19251700680272	93.3666439909297	33	127
93.37827664399093	93.5756462585034	33	127
93.37827664399093	93.5756462585034	52	127
93.37827664399093	93.5756462585034	62	127
93.37827664399093	93.5756462585034	59	127
93.5756462585034	93.78462585034013	56	127
93.5756462585034	93.78462585034013	62	127
93.5756462585034	93.78462585034013	33	127
93.5756462585034	93.78462585034013	52	127
93.7962358276644	94.06326530612245	52	127
93.7962358276644	94.06326530612245	62	127
93.7962358276644	94.06326530612245	56	127
93.7962358276644	94.06326530612245	33	127
94.06326530612245	94.24902494331066	33	127
94.06326530612245	94.24902494331066	52	127
94.06326530612245	94.24902494331066	57	127
94.06326530612245	94.24902494331066	61	127
94.24902494331066	94.38832199546485	52	127
94.24902494331066	94.38832199546485	57	127
94.24902494331066	94.38832199546485	61	127
94.24902494331066	94.38832199546485	33	127
94.39995464852608	94.60893424036281	61	127
94.39995464852608	94.60893424036281	52	127
94.39995464852608	94.60893424036281	57	127
94.39995464852608	94.60893424036281	32	127
94.60893424036281	94.80630385487528	32	127
94.60893424036281	94.80630385487528	52	127
94.60893424036281	94.80630385487528	57	127
94.60893424036281	94.80630385487528	61	127
94.81791383219955	95.00365079365079	33	127
94.81791383219955	95.00365079365079	52	127
94.81791383219955	95.00365079365079	57	127
94.81791383219955	95.00365079365079	61	127
95.01528344671202	95.23587301587301	57	127
95.01528344671202	95.23587301587301	52	127
95.01528344671202	95.23587301587301	61	127
95.01528344671202	95.23587301587301	33	127
95.24748299319728	95.44485260770975	31	127
95.24748299319728	95.44485260770975	61	127
95.24748299319728	95.44485260770975	57	127
95.24748299319728	95.44485260770975	52	127
95.50290249433107	95.67705215419501	31	127
95.50290249433107	95.67705215419501	61	127
95.50290249433107	95.67705215419501	57	127
95.50290249433107	95.67705215419501	52	127
95.67705215419501	95.897641723356	57	127
95.67705215419501	95.897641723356	54	127
95.67705215419501	95.897641723356	62	127
95.67705215419501	95.897641723356	30	127
95.90925170068027	96.09501133786848	30	127
95.90925170068027	96.09501133786848	57	127
95.90925170068027	96.09501133786848	54	127
95.90925170068027	96.09501133786848	62	127
96.10662131519274	96.29238095238095	59	127
96.10662131519274	96.29238095238095	54	127
96.10662131519274	96.29238095238095	62	127
96.10662131519274	96.29238095238095	38	127
96.29238095238095	96.4665306122449	38	127
96.29238095238095	96.4665306122449	59	127
96.29238095238095	96.4665306122449	54	127
96.29238095238095	96.4665306122449	62	127
96.47814058956916	96.67551020408163	57	127
96.47814058956916	96.67551020408163	59	127
96.47814058956916	96.67551020408163	52	127
96.47814058956916	96.67551020408163	40	127
96.67551020408163	96.86126984126984	57	127
96.67551020408163	96.86126984126984	59	127
96.67551020408163	96.86126984126984	52	127
96.67551020408163	96.86126984126984	40	127
96.88448979591837	97.04702947845804	56	127
96.88448979591837	97.04702947845804	64	127
96.88448979591837	97.04702947845804	52	127
96.88448979591837	97.04702947845804	40	127
97.07024943310658	97.24439909297053	40	127
97.07024943310658	97.24439909297053	52	127
97.07024943310658	97.24439909297053	64	127
97.07024943310658	97.24439909297053	56	127
97.24439909297053	97.6275283446712	45	127
97.24439909297053	97.44176870748299	52	127
97.24439909297053	97.44176870748299	61	127
97.24439909297053	97.44176870748299	57	127
97.24439909297053	97.6275283446712	33	127
97.46498866213152	97.6275283446712	73	127
97.54625850340136	97.7552380952381	76	127
97.63913832199546	97.85972789115647	74	127
97.76684807256235	97.96421768707484	78	127
97.85972789115647	98.10353741496598	76	127
97.96421768707484	98.24285714285715	80	127
98.11514739229025	98.34734693877552	78	127
98.26607709750567	98.49827664399093	81	127
98.34734693877552	98.62598639455783	80	127
98.50988662131519	98.74208616780045	83	127
98.63759637188208	98.83496598639456	81	127
98.75369614512472	98.93945578231292	85	127
98.84657596371882	99.04394557823129	83	127
98.95106575963719	99.1368253968254	86	127
99.05555555555556	99.41546485260771	85	127
99.05555555555556	99.2297052154195	52	127
99.24131519274377	99.41546485260771	61	127
99.42707482993197	99.60122448979592	57	127
99.42707482993197	99.77537414965987	81	127
99.60122448979592	99.77537414965987	61	127
99.78698412698412	99.9843537414966	52	127
99.78698412698412	100.18172335600907	80	127
99.99596371882086	100.18172335600907	59	127
100.19333333333333	100.41392290249433	56	127
100.19333333333333	100.62290249433107	83	127
100.42553287981859	100.62290249433107	62	127
100.62290249433107	101.81873015873016	81	127
100.62290249433107	100.82027210884354	52	127
100.8318820861678	101.01764172335601	61	127
101.02925170068028	101.19179138321995	57	127
101.19179138321995	101.40077097505669	61	127
101.41238095238096	101.6213605442177	52	127
101.6213605442177	101.81873015873016	61	127
101.83034013605442	102.05092970521542	57	127
101.83034013605442	102.05092970521542	83	127
102.06253968253968	102.24829931972789	85	127
102.06253968253968	102.24829931972789	61	127
102.24829931972789	102.4340589569161	88	127
102.24829931972789	102.4340589569161	54	127
102.44566893424036	102.64303854875284	86	127
102.44566893424036	102.64303854875284	62	127
102.6546485260771	102.85201814058956	85	127
102.6546485260771	102.85201814058956	57	127
102.85201814058956	103.04938775510205	62	127
102.85201814058956	103.04938775510205	86	127
103.0609977324263	103.28158730158731	53	127
103.0609977324263	103.28158730158731	85	127
103.28158730158731	103.4673469387755	83	127
103.28158730158731	103.4673469387755	62	127
103.47895691609978	103.65310657596372	59	127
103.47895691609978	103.65310657596372	82	127
103.66471655328799	103.87369614512471	62	127
103.66471655328799	103.87369614512471	83	127
103.87369614512471	104.0710657596372	81	127
103.87369614512471	104.0710657596372	52	127
103.87369614512471	104.0710657596372	59	127
104.08267573696145	104.26843537414966	62	127
104.08267573696145	104.26843537414966	80	127
104.28004535147392	104.45419501133787	54	127
104.28004535147392	104.45419501133787	78	127
104.28004535147392	104.45419501133787	59	127
104.46580498866213	104.65156462585034	80	127
104.46580498866213	104.65156462585034	62	127
104.6631746031746	104.87215419501133	56	127
104.6631746031746	104.87215419501133	59	127
104.6631746031746	105.05791383219955	76	127
104.87215419501133	105.05791383219955	62	127
105.06952380952382	105.26689342403628	52	127
105.06952380952382	105.15079365079364	78	127
105.06952380952382	105.26689342403628	59	127
105.15079365079364	105.26689342403628	80	127
105.27850340136054	105.48748299319728	62	127
105.27850340136054	105.39460317460318	81	127
105.40621315192743	105.48748299319728	83	127
105.48748299319728	105.94027210884354	85	127
105.48748299319728	105.70807256235828	52	127
105.71968253968254	105.94027210884354	61	127
105.94027210884354	106.10281179138322	57	127
105.94027210884354	106.28857142857143	81	127
106.11442176870749	106.28857142857143	61	127
106.30018140589569	106.52077097505669	52	127
106.30018140589569	106.71814058956916	80	127
106.52077097505669	106.71814058956916	59	127
106.72975056689343	107.07804988662132	83	127
106.72975056689343	106.8922902494331	56	127
106.90390022675737	107.07804988662132	62	127
107.07804988662132	108.34353741496598	81	127
107.07804988662132	107.26380952380953	57	127
107.27541950113378	107.47278911564626	61	127
107.47278911564626	107.76303854875283	56	127
107.78625850340136	107.9604081632653	61	127
107.97201814058957	108.14616780045351	57	127
108.14616780045351	108.34353741496598	61	127
108.38997732426304	108.55251700680272	55	127
108.38997732426304	108.55251700680272	83	127
108.38997732426304	108.55251700680272	57	127
108.56412698412699	108.73827664399093	85	127
108.56412698412699	108.73827664399093	61	127
108.7498866213152	108.92403628117914	88	127
108.7498866213152	108.92403628117914	57	127
108.7498866213152	108.92403628117914	54	127
108.9356462585034	109.14462585034013	62	127
108.9356462585034	109.14462585034013	86	127
109.14462585034013	109.31877551020408	50	127
109.14462585034013	109.31877551020408	54	127
109.14462585034013	109.31877551020408	85	127
109.33038548752835	109.52775510204081	86	127
109.33038548752835	109.52775510204081	59	127
109.53936507936508	109.73673469387755	85	127
109.53936507936508	109.73673469387755	52	127
109.53936507936508	109.73673469387755	56	127
109.73673469387755	109.92249433106576	59	127
109.73673469387755	109.92249433106576	83	127
109.92249433106576	110.15469387755103	56	127
109.92249433106576	110.15469387755103	82	127
109.92249433106576	110.15469387755103	52	127
110.16630385487528	110.3520634920635	83	127
110.16630385487528	110.3520634920635	62	127
110.36367346938775	110.54943310657596	81	127
110.36367346938775	110.54943310657596	57	127
110.36367346938775	110.54943310657596	61	127
110.56104308390023	110.73519274376417	57	127
110.56104308390023	110.64231292517007	93	127
110.56104308390023	110.73519274376417	45	127
110.56104308390023	110.73519274376417	52	127
110.65392290249433	110.73519274376417	92	127
110.73519274376417	110.92095238095239	52	127
110.73519274376417	110.82807256235827	93	127
110.73519274376417	110.92095238095239	45	127
110.73519274376417	110.92095238095239	57	127
110.83968253968254	110.92095238095239	92	127
110.95578231292517	111.14154195011338	57	127
110.95578231292517	111.04866213151928	93	127
110.95578231292517	111.14154195011338	45	127
110.95578231292517	111.14154195011338	52	127
111.04866213151928	111.14154195011338	92	127
111.14154195011338	111.257641723356	93	127
111.2924716553288	111.3853514739229	92	127
111.39696145124717	111.57111111111111	57	127
111.39696145124717	111.57111111111111	52	127
111.39696145124717	111.57111111111111	45	127
111.39696145124717	111.47823129251701	90	127
111.47823129251701	111.57111111111111	88	127
111.58272108843538	111.76848072562358	52	127
111.58272108843538	111.67560090702948	86	127
111.58272108843538	111.76848072562358	45	127
111.58272108843538	111.76848072562358	57	127
111.68721088435375	111.76848072562358	85	127
111.76848072562358	111.95424036281179	57	127
111.76848072562358	111.95424036281179	45	127
111.76848072562358	111.84975056689342	83	127
111.76848072562358	111.95424036281179	52	127
111.87297052154194	111.95424036281179	81	127
111.96585034013606	112.0471201814059	80	127
112.0471201814059	112.12839002267573	81	127
112.14	112.22126984126984	83	127
112.14	112.33736961451247	59	127
112.14	112.33736961451247	52	127
112.14	112.33736961451247	45	127
112.2328798185941	112.33736961451247	85	127
112.33736961451247	112.44185941043084	86	127
112.33736961451247	112.55795918367347	45	127
112.33736961451247	112.55795918367347	52	127
112.33736961451247	112.55795918367347	59	127
112.4534693877551	112.55795918367347	85	127
112.56956916099773	112.75532879818594	45	127
112.56956916099773	112.65083900226757	83	127
112.56956916099773	112.75532879818594	52	127
112.56956916099773	112.75532879818594	59	127
112.66244897959184	112.75532879818594	81	127
112.75532879818594	112.88303854875284	80	127
112.89464852607709	112.97591836734694	81	127
112.9875283446712	113.15006802721088	59	127
112.9875283446712	113.06879818594105	83	127
112.9875283446712	113.15006802721088	45	127
112.9875283446712	113.15006802721088	52	127
113.06879818594105	113.15006802721088	81	127
113.16167800453515	113.24294784580499	80	127
113.16167800453515	113.32421768707484	59	127
113.16167800453515	113.32421768707484	52	127
113.16167800453515	113.32421768707484	45	127
113.25455782312925	113.32421768707484	76	127
113.32421768707484	113.41709750566893	78	127
113.32421768707484	113.50997732426303	45	127
113.32421768707484	113.50997732426303	52	127
113.32421768707484	113.50997732426303	59	127
113.4287074829932	113.50997732426303	80	127
113.56802721088435	113.6492970521542	81	127
113.6492970521542	113.7421768707483	76	127
113.75378684807256	113.97437641723356	57	127
113.75378684807256	113.97437641723356	52	127
113.75378684807256	113.88149659863946	78	127
113.75378684807256	113.97437641723356	45	127
113.89310657596371	113.97437641723356	80	127
113.97437641723356	114.1833560090703	57	127
113.97437641723356	114.0904761904762	81	127
113.97437641723356	114.1833560090703	52	127
113.97437641723356	114.1833560090703	45	127
114.0904761904762	114.1833560090703	83	127
114.19496598639456	114.38072562358276	45	127
114.19496598639456	114.28784580498866	85	127
114.19496598639456	114.38072562358276	52	127
114.19496598639456	114.38072562358276	57	127
114.29945578231292	114.38072562358276	83	127
114.38072562358276	114.47360544217688	81	127
114.48521541950113	114.56648526077097	80	127
114.57809523809524	114.67097505668934	78	127
114.57809523809524	114.75224489795919	57	127
114.57809523809524	114.75224489795919	52	127
114.57809523809524	114.75224489795919	45	127
114.67097505668934	114.75224489795919	76	127
114.76385487528344	114.94961451247165	52	127
114.76385487528344	114.94961451247165	57	127
114.76385487528344	114.84512471655329	74	127
114.76385487528344	114.94961451247165	45	127
114.86834467120181	114.94961451247165	73	127
114.94961451247165	115.15859410430839	45	127
114.94961451247165	115.04249433106575	71	127
114.94961451247165	115.15859410430839	57	127
114.94961451247165	115.15859410430839	52	127
115.05410430839002	115.15859410430839	69	127
115.17020408163265	115.25147392290249	68	127
115.25147392290249	115.35596371882086	69	127
115.35596371882086	115.44884353741497	71	127
115.35596371882086	115.58816326530612	45	127
115.35596371882086	115.58816326530612	52	127
115.35596371882086	115.58816326530612	59	127
115.46045351473923	115.58816326530612	73	127
115.59977324263039	115.78553287981859	45	127
115.59977324263039	115.68104308390022	74	127
115.59977324263039	115.78553287981859	52	127
115.59977324263039	115.78553287981859	59	127
115.68104308390022	115.78553287981859	73	127
115.79714285714286	115.98290249433107	59	127
115.79714285714286	115.98290249433107	52	127
115.79714285714286	115.98290249433107	45	127
115.79714285714286	115.8784126984127	71	127
115.89002267573696	115.98290249433107	69	127
115.98290249433107	116.05256235827665	68	127
116.0641723356009	116.16866213151927	69	127
116.18027210884354	116.34281179138323	59	127
116.18027210884354	116.34281179138323	52	127
116.18027210884354	116.34281179138323	45	127
116.18027210884354	116.26154195011338	71	127
116.26154195011338	116.34281179138323	69	127
116.35442176870748	116.45891156462585	68	127
116.35442176870748	116.55179138321995	45	127
116.35442176870748	116.55179138321995	52	127
116.35442176870748	116.55179138321995	59	127
116.47052154195012	116.55179138321995	64	127
116.55179138321995	116.64467120181406	66	127
116.55179138321995	116.74916099773243	52	127
116.55179138321995	116.74916099773243	59	127
116.55179138321995	116.74916099773243	45	127
116.66789115646259	116.74916099773243	68	127
116.76077097505669	116.84204081632653	69	127
116.76077097505669	117.12068027210884	57	127
116.76077097505669	117.12068027210884	45	127
116.8536507936508	116.93492063492063	71	127
116.93492063492063	117.02780045351474	73	127
117.039410430839	117.12068027210884	71	127
117.13229024943311	117.21356009070294	69	127
117.21356009070294	117.29482993197279	71	127
117.30643990929705	117.60829931972789	45	127
117.30643990929705	117.52702947845805	73	127
117.30643990929705	117.60829931972789	57	127
117.53863945578232	117.60829931972789	71	127
117.60829931972789	117.70117913832199	69	127
117.60829931972789	117.9798185941043	59	127
117.60829931972789	117.9798185941043	47	127
117.71278911564626	117.80566893424036	71	127
117.81727891156463	117.89854875283447	73	127
117.89854875283447	117.9798185941043	71	127
117.99142857142857	118.07269841269841	69	127
118.08430839002267	118.18879818594104	71	127
118.18879818594104	118.44421768707483	59	127
118.18879818594104	118.35133786848073	73	127
118.18879818594104	118.44421768707483	47	127
118.35133786848073	118.44421768707483	71	127
118.46743764172335	118.5487074829932	69	127
118.46743764172335	118.94344671201814	49	127
118.46743764172335	118.94344671201814	61	127
118.56031746031746	118.69963718820861	71	127
118.69963718820861	118.85056689342403	73	127
118.8621768707483	118.94344671201814	71	127
118.9550566893424	119.04793650793651	69	127
119.04793650793651	119.12920634920636	71	127
119.14081632653061	119.3614058956916	49	127
119.14081632653061	119.3614058956916	61	127
119.14081632653061	119.24530612244898	73	127
119.25691609977325	119.3614058956916	71	127
119.3614058956916	119.45428571428572	69	127
119.3614058956916	119.55877551020409	63	127
119.3614058956916	119.55877551020409	51	127
119.46589569160997	119.55877551020409	71	127
119.57038548752834	119.8025850340136	51	127
119.57038548752834	119.67487528344671	73	127
119.57038548752834	119.8025850340136	63	127
119.67487528344671	119.8025850340136	71	127
119.8025850340136	119.88385487528345	69	127
119.8025850340136	119.98834467120182	51	127
119.8025850340136	119.98834467120182	63	127
119.89546485260772	119.98834467120182	73	127
120.01156462585034	120.16249433106576	63	127
120.01156462585034	120.08122448979591	71	127
120.01156462585034	120.16249433106576	51	127
120.08122448979591	120.16249433106576	69	127
120.17410430839003	120.35986394557823	68	127
120.17410430839003	120.59206349206349	52	127
120.17410430839003	120.59206349206349	64	127
120.35986394557823	120.59206349206349	76	127
120.35986394557823	120.59206349206349	68	127
120.60367346938776	120.7778231292517	68	127
120.60367346938776	120.7778231292517	76	127
120.78943310657597	120.9984126984127	56	127
120.78943310657597	120.9984126984127	52	127
120.9984126984127	121.39315192743764	54	127
120.9984126984127	121.39315192743764	57	127
121.19578231292518	121.39315192743764	69	127
121.19578231292518	121.39315192743764	76	127
121.39315192743764	121.60213151927438	76	127
121.39315192743764	121.60213151927438	69	127
121.6253514739229	121.78789115646258	54	127
121.6253514739229	121.78789115646258	57	127
121.79950113378685	122.159410430839	56	127
121.79950113378685	122.159410430839	59	127
121.97365079365079	122.159410430839	71	127
121.97365079365079	122.159410430839	76	127
122.18263038548753	122.38	71	127
122.18263038548753	122.38	76	127
122.39160997732426	122.57736961451248	59	127
122.39160997732426	122.57736961451248	56	127
122.57736961451248	122.76312925170068	61	127
122.57736961451248	122.76312925170068	58	127
122.77473922902495	122.94888888888889	58	127
122.77473922902495	122.94888888888889	73	127
122.77473922902495	122.94888888888889	64	127
122.77473922902495	122.94888888888889	76	127
122.96049886621316	123.14625850340136	64	127
122.96049886621316	123.14625850340136	58	127
122.96049886621316	123.14625850340136	66	127
122.96049886621316	123.14625850340136	73	127
123.15786848072563	123.37845804988662	66	127
123.15786848072563	123.37845804988662	73	127
123.15786848072563	123.37845804988662	58	127
123.15786848072563	123.37845804988662	64	127
123.39006802721089	123.71514739229025	59	127
123.39006802721089	123.71514739229025	63	127
123.39006802721089	123.71514739229025	71	127
123.39006802721089	123.71514739229025	66	127
124.21437641723357	124.33047619047619	71	127
124.33047619047619	124.46979591836735	73	127
124.48140589569161	124.56267573696145	75	127
124.57428571428571	124.7019954648526	76	127
124.7019954648526	124.80648526077097	78	127
124.81809523809524	124.89936507936508	80	127
124.91097505668934	125.00385487528345	82	127
125.00385487528345	125.08512471655328	83	127
125.09673469387755	125.18961451247165	71	127
125.09673469387755	125.18961451247165	83	127
125.20122448979592	125.28249433106576	85	127
125.20122448979592	125.28249433106576	73	127
125.28249433106576	125.3637641723356	87	127
125.28249433106576	125.3637641723356	75	127
125.37537414965986	125.4566439909297	88	127
125.37537414965986	125.4566439909297	76	127
125.46825396825396	125.5495238095238	90	127
125.46825396825396	125.5495238095238	78	127
125.5495238095238	125.64240362811792	92	127
125.5495238095238	125.64240362811792	80	127
125.64240362811792	125.72367346938775	82	127
125.64240362811792	125.72367346938775	94	127
125.73528344671202	125.93265306122449	95	127
125.73528344671202	125.93265306122449	83	127
125.93265306122449	126.16485260770975	78	127
125.93265306122449	126.16485260770975	90	127
126.17646258503402	126.33900226757369	87	127
126.17646258503402	126.33900226757369	75	127
126.35061224489796	126.53637188208617	71	127
126.35061224489796	126.53637188208617	83	127
126.53637188208617	126.73374149659864	78	127
126.53637188208617	126.73374149659864	66	127
126.75696145124716	126.93111111111111	63	127
126.75696145124716	126.93111111111111	75	127
126.93111111111111	127.15170068027211	71	127
126.93111111111111	127.15170068027211	59	127
127.16331065759637	127.34907029478458	54	127
127.16331065759637	127.34907029478458	66	127
127.36068027210884	127.54643990929705	63	127
127.36068027210884	127.54643990929705	51	127
127.54643990929705	127.70897959183674	59	127
127.54643990929705	127.70897959183674	47	127
127.72058956916099	127.92956916099773	54	127
127.72058956916099	127.92956916099773	42	127
127.941179138322	128.15015873015872	39	127
127.941179138322	128.15015873015872	51	127
128.15015873015872	128.57972789115647	47	127
128.15015873015872	128.57972789115647	35	127
128.57972789115647	129.31115646258505	59	127
128.57972789115647	129.31115646258505	47	127
131.77244897959184	132.75931972789115	45	127
131.77244897959184	132.75931972789115	64	127
131.77244897959184	132.75931972789115	61	127
132.77092970521542	132.9682993197279	61	127
132.77092970521542	132.9682993197279	64	127
132.77092970521542	132.9682993197279	45	127
132.77092970521542	132.9682993197279	66	127
132.9682993197279	133.17727891156463	61	127
132.9682993197279	133.17727891156463	45	127
132.9682993197279	133.17727891156463	66	127
132.9682993197279	133.17727891156463	64	127
133.1888888888889	133.39786848072563	61	127
133.1888888888889	133.39786848072563	64	127
133.1888888888889	133.39786848072563	66	127
133.1888888888889	133.39786848072563	45	127
133.40945578231293	133.66487528344672	66	127
133.40945578231293	133.66487528344672	61	127
133.40945578231293	133.66487528344672	64	127
133.40945578231293	133.66487528344672	45	127
133.66487528344672	133.8738775510204	64	127
133.66487528344672	133.8738775510204	59	127
133.66487528344672	133.8738775510204	47	127
133.66487528344672	133.8738775510204	68	127
133.89709750566894	134.10607709750568	68	127
133.89709750566894	134.10607709750568	47	127
133.89709750566894	134.10607709750568	59	127
133.89709750566894	134.10607709750568	64	127
134.11768707482995	134.29183673469387	57	127
134.11768707482995	134.29183673469387	49	127
134.11768707482995	134.29183673469387	69	127
134.11768707482995	134.29183673469387	64	127
134.29183673469387	134.4775963718821	64	127
134.29183673469387	134.4775963718821	49	127
134.29183673469387	134.4775963718821	69	127
134.29183673469387	134.4775963718821	57	127
134.48920634920634	134.70979591836735	64	127
134.48920634920634	134.70979591836735	47	127
134.48920634920634	134.70979591836735	59	127
134.48920634920634	134.70979591836735	68	127
134.72140589569162	134.95360544217687	68	127
134.72140589569162	134.95360544217687	47	127
134.72140589569162	134.95360544217687	59	127
134.72140589569162	134.95360544217687	64	127
134.95360544217687	135.31351473922902	66	127
134.95360544217687	135.31351473922902	45	127
134.95360544217687	135.31351473922902	61	127
134.95360544217687	135.31351473922902	64	127
135.3251247165533	135.67342403628118	61	127
135.3251247165533	135.67342403628118	64	127
135.3251247165533	135.67342403628118	66	127
135.3251247165533	135.67342403628118	45	127
138.47142857142856	139.74850340136055	61	127
138.47142857142856	139.74850340136055	46	127
138.47142857142856	139.74850340136055	64	127
139.76013605442176	139.93428571428572	64	127
139.76013605442176	139.93428571428572	61	127
139.76013605442176	139.93428571428572	46	127
139.76013605442176	139.93428571428572	66	127
139.93428571428572	140.14326530612246	61	127
139.93428571428572	140.14326530612246	64	127
139.93428571428572	140.14326530612246	66	127
139.93428571428572	140.14326530612246	46	127
140.15485260770976	140.3174149659864	64	127
140.15485260770976	140.3174149659864	61	127
140.15485260770976	140.3174149659864	46	127
140.15485260770976	140.3174149659864	66	127
140.32902494331066	140.49156462585034	66	127
140.32902494331066	140.49156462585034	46	127
140.32902494331066	140.49156462585034	61	127
140.32902494331066	140.49156462585034	64	127
140.49156462585034	140.67732426303854	59	127
140.49156462585034	140.67732426303854	47	127
140.49156462585034	140.67732426303854	68	127
140.49156462585034	140.67732426303854	64	127
140.6889342403628	140.86308390022677	64	127
140.6889342403628	140.86308390022677	47	127
140.6889342403628	140.86308390022677	68	127
140.6889342403628	140.86308390022677	59	127
140.874693877551	141.11850340136056	64	127
140.874693877551	141.11850340136056	49	127
140.874693877551	141.11850340136056	58	127
140.874693877551	141.11850340136056	70	127
141.11850340136056	141.36231292517007	70	127
141.11850340136056	141.36231292517007	49	127
141.11850340136056	141.36231292517007	58	127
141.11850340136056	141.36231292517007	64	127
141.37392290249434	141.58290249433108	68	127
141.37392290249434	141.58290249433108	47	127
141.37392290249434	141.58290249433108	59	127
141.37392290249434	141.58290249433108	64	127
141.59451247165532	141.81510204081633	68	127
141.59451247165532	141.81510204081633	59	127
141.59451247165532	141.81510204081633	64	127
141.59451247165532	141.81510204081633	47	127
141.8267120181406	142.19820861678005	64	127
141.8267120181406	142.19820861678005	61	127
141.8267120181406	142.19820861678005	46	127
141.8267120181406	142.19820861678005	66	127
142.20984126984126	142.6742403628118	46	127
142.20984126984126	142.6742403628118	61	127
142.20984126984126	142.6742403628118	64	127
142.20984126984126	142.6742403628118	66	127
143.63786848072561	144.56666666666666	67	127
143.63786848072561	145.5302947845805	64	127
143.63786848072561	145.5302947845805	61	127
143.63786848072561	145.5302947845805	58	127
144.57827664399093	145.21680272108844	66	127
145.24004535147392	145.5302947845805	67	127
145.5302947845805	147.23696145124717	68	127
145.5302947845805	147.23696145124717	64	127
145.5302947845805	147.23696145124717	59	127
147.23696145124717	148.06126984126985	63	127
147.23696145124717	148.46761904761905	47	127
147.23696145124717	148.06126984126985	66	127
148.07287981859412	148.46761904761905	66	127
148.07287981859412	148.46761904761905	69	127
148.46761904761905	148.97845804988663	47	127
148.46761904761905	148.97845804988663	66	127
148.46761904761905	148.97845804988663	51	127
148.9900680272109	149.43124716553288	51	127
148.9900680272109	149.88403628117914	49	127
148.9900680272109	149.43124716553288	66	127
149.44285714285715	149.88403628117914	64	127
149.44285714285715	149.88403628117914	52	127
150.82444444444445	152.55433106575964	49	127
150.82444444444445	151.6835827664399	55	127
150.82444444444445	152.55433106575964	46	127
151.5907029478458	151.776462585034	76	127
151.6835827664399	152.32210884353742	54	127
151.6835827664399	152.76331065759638	88	127
152.33374149659863	152.55433106575964	55	127
152.5659410430839	153.40185941043083	52	127
152.5659410430839	153.40185941043083	56	127
152.5659410430839	153.40185941043083	47	127
152.77492063492065	152.96068027210885	87	127
152.96068027210885	153.20448979591836	85	127
153.20448979591836	153.40185941043083	83	127
153.4134693877551	153.62244897959184	82	127
153.4134693877551	154.59768707482993	47	127
153.4134693877551	154.59768707482993	56	127
153.4134693877551	154.59768707482993	59	127
153.6340589569161	153.80820861678004	83	127
153.8198185941043	153.99396825396826	82	127
154.00555555555556	154.2145351473923	83	127
154.2145351473923	154.41192743764174	82	127
154.42353741496598	154.59768707482993	83	127
154.6092970521542	155.0156462585034	57	127
154.6092970521542	154.78344671201813	81	127
154.6092970521542	155.0156462585034	47	127
154.6092970521542	155.0156462585034	54	127
154.78344671201813	155.0156462585034	83	127
155.0272335600907	155.24784580498866	80	127
155.0272335600907	155.43360544217688	47	127
155.0272335600907	155.43360544217688	52	127
155.0272335600907	155.43360544217688	56	127
155.25945578231293	155.43360544217688	83	127
155.44521541950112	155.8631746031746	51	127
155.44521541950112	155.8631746031746	54	127
155.44521541950112	155.63097505668935	78	127
155.44521541950112	155.8631746031746	47	127
155.44521541950112	155.8631746031746	59	127
155.63097505668935	155.8631746031746	83	127
155.8631746031746	156.07215419501134	56	127
155.8631746031746	156.2578911564626	76	127
155.8631746031746	156.07215419501134	52	127
155.97927437641724	156.1766439909297	59	127
156.0837641723356	156.2578911564626	56	127
156.0837641723356	156.2578911564626	52	127
156.1766439909297	156.36238095238096	59	127
156.2695238095238	156.45528344671203	52	127
156.2695238095238	156.45528344671203	56	127
156.37401360544217	156.53655328798186	59	127
156.45528344671203	156.62943310657596	56	127
156.45528344671203	156.62943310657596	52	127
156.54816326530613	156.73392290249433	59	127
156.64104308390023	156.82680272108843	57	127
156.64104308390023	156.82680272108843	52	127
156.7455328798186	156.90807256235829	59	127
156.82680272108843	157.01256235827665	52	127
156.82680272108843	157.01256235827665	57	127
156.91965986394558	157.10544217687075	59	127
157.02414965986395	157.18671201814058	52	127
157.02414965986395	157.18671201814058	57	127
157.10544217687075	157.27956916099774	59	127
157.19832199546485	157.3840589569161	52	127
157.19832199546485	157.3840589569161	57	127
157.30281179138322	157.3840589569161	59	127
157.3840589569161	157.56984126984128	56	127
157.3840589569161	157.4653514739229	76	127
157.3840589569161	157.56984126984128	52	127
157.47696145124718	157.56984126984128	78	127
157.47696145124718	157.68591836734694	59	127
157.58145124716555	157.68591836734694	80	127
157.58145124716555	157.778820861678	52	127
157.58145124716555	157.778820861678	56	127
157.68591836734694	157.778820861678	81	127
157.68591836734694	157.89489795918368	59	127
157.80204081632652	157.999410430839	56	127
157.80204081632652	157.999410430839	52	127
157.80204081632652	157.89489795918368	83	127
157.9065306122449	157.999410430839	85	127
157.9065306122449	158.08068027210885	59	127
157.999410430839	158.08068027210885	87	127
157.999410430839	158.16195011337868	56	127
157.999410430839	158.16195011337868	52	127
158.08068027210885	158.16195011337868	88	127
158.08068027210885	158.25482993197278	59	127
158.17356009070295	158.33609977324264	52	127
158.17356009070295	158.25482993197278	87	127
158.17356009070295	158.33609977324264	57	127
158.26643990929705	158.41736961451247	59	127
158.26643990929705	158.33609977324264	88	127
158.33609977324264	158.54507936507937	52	127
158.33609977324264	158.54507936507937	57	127
158.33609977324264	158.41736961451247	87	127
158.42897959183674	158.54507936507937	85	127
158.42897959183674	158.64956916099774	59	127
158.55666666666667	158.80049886621316	57	127
158.55666666666667	158.64956916099774	83	127
158.55666666666667	158.80049886621316	52	127
158.64956916099774	158.80049886621316	81	127
158.64956916099774	158.89337868480726	59	127
158.81208616780046	158.89337868480726	80	127
158.81208616780046	158.98625850340136	57	127
158.81208616780046	158.98625850340136	52	127
158.90498866213153	158.98625850340136	59	127
158.90498866213153	158.98625850340136	78	127
158.98625850340136	159.1719954648526	56	127
158.98625850340136	159.764126984127	76	127
158.98625850340136	159.1719954648526	52	127
159.07913832199546	159.26489795918368	59	127
159.18362811791383	159.35777777777778	52	127
159.18362811791383	159.35777777777778	56	127
159.26489795918368	159.4390476190476	59	127
159.35777777777778	159.56675736961452	52	127
159.35777777777778	159.56675736961452	56	127
159.45065759637188	159.6712471655329	59	127
159.57834467120182	159.764126984127	56	127
159.57834467120182	159.764126984127	52	127
159.6712471655329	159.86861678004536	59	127
159.77573696145126	160.55358276643992	71	127
159.77573696145126	159.96149659863946	52	127
159.77573696145126	159.96149659863946	57	127
159.88022675736963	160.04274376417234	59	127
159.96149659863946	160.1356462585034	52	127
159.96149659863946	160.1356462585034	57	127
160.05437641723356	160.2285260770975	59	127
160.14725623582765	160.33301587301588	52	127
160.14725623582765	160.33301587301588	57	127
160.2285260770975	160.43750566893425	59	127
160.34460317460318	160.55358276643992	57	127
160.34460317460318	160.55358276643992	52	127
160.44909297052155	160.55358276643992	59	127
160.55358276643992	160.75097505668936	52	127
160.55358276643992	160.75097505668936	56	127
160.55358276643992	160.65809523809523	76	127
160.6697052154195	160.91351473922902	59	127
160.6697052154195	160.75097505668936	78	127
160.7625850340136	161.00639455782314	52	127
160.7625850340136	161.00639455782314	56	127
160.7625850340136	160.91351473922902	80	127
160.92512471655328	161.08766439909297	59	127
160.92512471655328	161.00639455782314	81	127
161.00639455782314	161.19215419501134	52	127
161.00639455782314	161.08766439909297	83	127
161.00639455782314	161.19215419501134	56	127
161.09927437641724	161.19215419501134	85	127
161.09927437641724	161.28503401360544	59	127
161.2037641723356	161.28503401360544	87	127
161.2037641723356	161.36628117913833	52	127
161.2037641723356	161.36628117913833	56	127
161.28503401360544	161.36628117913833	88	127
161.28503401360544	161.44757369614513	59	127
161.37791383219954	161.44757369614513	87	127
161.37791383219954	161.54045351473923	57	127
161.37791383219954	161.54045351473923	52	127
161.4591836734694	161.54045351473923	88	127
161.4591836734694	161.6217006802721	59	127
161.54045351473923	161.72619047619048	57	127
161.54045351473923	161.6217006802721	87	127
161.54045351473923	161.72619047619048	52	127
161.63333333333333	161.81909297052155	59	127
161.63333333333333	161.72619047619048	85	127
161.7378231292517	161.92358276643992	52	127
161.7378231292517	161.92358276643992	57	127
161.7378231292517	161.81909297052155	83	127
161.81909297052155	161.92358276643992	81	127
161.81909297052155	162.01646258503402	59	127
161.93519274376416	162.13256235827666	57	127
161.93519274376416	162.01646258503402	80	127
161.93519274376416	162.13256235827666	52	127
162.0280725623583	162.13256235827666	59	127
162.0280725623583	162.13256235827666	78	127
162.13256235827666	162.34151927437642	80	127
162.13256235827666	162.23702947845806	52	127
162.23702947845806	162.34151927437642	54	127
162.35315192743764	162.457641723356	56	127
162.35315192743764	162.53891156462586	83	127
162.457641723356	162.53891156462586	57	127
162.53891156462586	162.64340136054423	59	127
162.65501133786847	162.73628117913833	61	127
162.74786848072563	162.82916099773243	63	127
162.74786848072563	162.91043083900226	83	127
162.82916099773243	162.91043083900226	64	127
162.92204081632653	163.10777777777778	85	127
162.92204081632653	163.01492063492063	57	127
163.0265306122449	163.10777777777778	59	127
163.10777777777778	163.18907029478459	61	127
163.10777777777778	163.28195011337868	85	127
163.20068027210885	163.28195011337868	62	127
163.29356009070295	163.37482993197278	64	127
163.37482993197278	163.45609977324264	66	127
163.45609977324264	163.560589569161	68	127
163.45609977324264	163.6534693877551	85	127
163.57219954648525	163.6534693877551	69	127
163.66507936507938	163.82761904761904	83	127
163.66507936507938	163.7463492063492	59	127
163.7463492063492	163.82761904761904	71	127
163.8392290249433	164.0598185941043	83	127
163.8392290249433	163.95532879818595	68	127
163.96693877551022	164.0598185941043	64	127
164.0598185941043	164.14108843537414	59	127
164.1526984126984	164.2339455782313	58	127
164.2455782312925	164.35006802721088	59	127
164.2455782312925	164.43133786848074	83	127
164.35006802721088	164.43133786848074	58	127
164.44294784580498	164.6287074829932	87	127
164.44294784580498	164.52421768707484	59	127
164.53580498866214	164.6287074829932	58	127
164.6287074829932	164.80285714285714	87	127
164.6287074829932	164.70997732426304	59	127
164.7215873015873	164.80285714285714	57	127
164.8144671201814	164.9073469387755	59	127
164.8144671201814	165.01183673469387	87	127
164.91895691609977	165.01183673469387	56	127
165.01183673469387	165.2208163265306	87	127
165.01183673469387	165.09310657596373	59	127
165.11632653061224	165.2208163265306	54	127
165.24403628117915	165.32530612244898	52	127
165.24403628117915	165.42979591836735	76	127
165.24403628117915	165.42979591836735	88	127
165.32530612244898	165.42979591836735	54	127
165.44140589569162	165.53428571428572	56	127
165.44140589569162	165.62716553287981	83	127
165.44140589569162	165.62716553287981	71	127
165.54589569160999	165.62716553287981	57	127
165.62716553287981	165.70843537414967	59	127
165.7200453514739	165.81292517006804	61	127
165.83614512471655	165.99868480725624	83	127
165.83614512471655	165.91739229024944	63	127
165.83614512471655	165.99868480725624	71	127
165.91739229024944	165.99868480725624	64	127
166.0102947845805	166.09156462585034	45	127
166.0102947845805	166.17281179138322	85	127
166.0102947845805	166.17281179138322	73	127
166.1031746031746	166.17281179138322	47	127
166.17281179138322	166.2657142857143	49	127
166.17281179138322	166.32376417233561	73	127
166.17281179138322	166.32376417233561	85	127
166.2657142857143	166.32376417233561	50	127
166.33537414965986	166.4514739229025	52	127
166.46308390022676	166.56757369614513	54	127
166.56757369614513	166.7649433106576	73	127
166.56757369614513	166.64884353741496	56	127
166.56757369614513	166.7649433106576	85	127
166.66045351473923	166.7649433106576	57	127
166.77655328798187	166.9855328798186	83	127
166.77655328798187	166.9855328798186	71	127
166.77655328798187	166.86943310657597	47	127
166.86943310657597	166.9855328798186	59	127
166.99714285714285	167.0784126984127	56	127
166.99714285714285	167.1712925170068	83	127
166.99714285714285	167.1712925170068	71	127
167.09002267573698	167.1712925170068	52	127
167.1712925170068	167.27578231292517	47	127
167.28739229024944	167.36866213151927	44	127
167.38027210884354	167.46154195011337	40	127
167.38027210884354	167.55439909297053	71	127
167.38027210884354	167.55439909297053	83	127
167.46154195011337	167.55439909297053	44	127
167.55439909297053	167.72857142857143	87	127
167.55439909297053	167.72857142857143	75	127
167.55439909297053	167.72857142857143	35	127
167.63569160997733	167.82145124716553	47	127
167.7401814058957	167.90272108843538	75	127
167.7401814058957	167.90272108843538	87	127
167.7401814058957	167.90272108843538	35	127
167.82145124716553	168.018820861678	47	127
167.91430839002268	168.12331065759636	87	127
167.91430839002268	168.12331065759636	75	127
167.91430839002268	168.12331065759636	35	127
168.04204081632653	168.21616780045352	47	127
168.12331065759636	168.3206575963719	35	127
168.12331065759636	168.3206575963719	87	127
168.12331065759636	168.3206575963719	75	127
168.239410430839	168.3206575963719	47	127
168.3322902494331	168.52965986394557	40	127
168.3322902494331	168.52965986394557	76	127
168.3322902494331	168.52965986394557	88	127
168.43678004535147	168.6225396825397	47	127
168.54126984126984	168.7154195011338	88	127
168.54126984126984	168.7154195011338	76	127
168.54126984126984	168.7154195011338	44	127
168.63414965986394	168.81990929705216	47	127
168.7154195011338	168.91278911564626	40	127
168.83149659863946	169.00566893424036	47	127
168.92439909297053	169.09854875283446	87	127
168.92439909297053	169.09854875283446	75	127
168.92439909297053	169.09854875283446	44	127
169.01727891156463	169.16820861678005	47	127
169.09854875283446	169.26108843537415	40	127
169.17981859410432	169.35396825396825	47	127
169.27269841269842	169.4468253968254	76	127
169.27269841269842	169.4468253968254	44	127
169.27269841269842	169.4468253968254	88	127
169.35396825396825	169.53972789115647	47	127
169.45845804988662	169.66743764172335	40	127
169.55133786848072	169.7487074829932	47	127
169.66743764172335	169.8415873015873	75	127
169.66743764172335	169.8415873015873	44	127
169.66743764172335	169.8415873015873	87	127
169.76031746031745	169.94607709750568	47	127
169.86480725623582	170.03895691609978	40	127
169.94607709750568	170.13183673469388	47	127
170.05056689342405	170.23632653061225	76	127
170.05056689342405	170.23632653061225	44	127
170.05056689342405	170.23632653061225	88	127
170.14344671201815	170.32920634920634	47	127
170.23632653061225	170.4336961451247	40	127
170.32920634920634	170.56140589569162	47	127
170.48013605442176	170.66589569161	75	127
170.48013605442176	170.66589569161	44	127
170.48013605442176	170.66589569161	87	127
170.57299319727892	170.7819954648526	47	127
170.66589569161	170.87485260770976	40	127
170.7819954648526	170.97934240362812	47	127
170.87485260770976	171.0722448979592	76	127
170.87485260770976	171.0722448979592	88	127
170.87485260770976	171.0722448979592	44	127
170.97934240362812	171.17673469387756	47	127
171.0838321995465	171.37410430839003	40	127
171.1883446712018	171.53664399092972	47	127
171.39732426303854	171.62952380952382	87	127
171.39732426303854	171.62952380952382	75	127
171.39732426303854	171.62952380952382	44	127
171.53664399092972	171.62952380952382	47	127
171.64111111111112	172.68603174603174	88	127
171.64111111111112	172.11714285714285	52	127
171.64111111111112	172.11714285714285	47	127
171.64111111111112	172.11714285714285	44	127
171.64111111111112	172.11714285714285	40	127
171.64111111111112	172.11714285714285	76	127
171.64111111111112	172.11714285714285	83	127
171.64111111111112	172.11714285714285	80	127
172.697641723356	172.96467120181407	83	127
172.96467120181407	173.138820861678	85	127
173.15043083900227	173.34780045351474	86	127
173.359410430839	174.36947845804988	80	127
174.38108843537415	174.47396825396825	81	127
174.4275283446712	174.56684807256235	80	127
174.48557823129252	174.6132879818594	78	127
174.57845804988662	174.67133786848072	80	127
174.62489795918367	174.79904761904763	81	127
174.79904761904763	175.00802721088436	83	127
175.01961451247166	175.20539682539683	74	127
175.2170068027211	175.4027664399093	76	127
175.41437641723357	175.6581859410431	78	127
175.66979591836736	175.89038548752833	71	127
175.89038548752833	176.07614512471656	73	127
176.07614512471656	176.2967120181406	74	127
176.3083446712018	176.49410430839004	68	127
176.49410430839004	176.72630385487528	69	127
176.73791383219955	176.98172335600907	71	127
177.0049433106576	177.16746031746032	62	127
177.16746031746032	177.4461224489796	64	127
177.49256235827664	177.65510204081633	66	127
177.6667120181406	177.8524716553288	59	127
180.66208616780045	181.28902494331066	56	127
180.66208616780045	181.28902494331066	40	127
181.30063492063493	181.47478458049886	56	127
181.30063492063493	181.47478458049886	40	127
181.48639455782313	181.69537414965987	57	127
181.48639455782313	181.69537414965987	42	127
181.69537414965987	181.95079365079366	59	127
181.69537414965987	181.95079365079366	44	127
181.97401360544217	182.14816326530612	52	127
181.97401360544217	182.14816326530612	57	127
181.97401360544217	182.14816326530612	61	127
181.97401360544217	182.14816326530612	33	127
182.1597732426304	182.36875283446713	52	127
182.1597732426304	182.36875283446713	61	127
182.1597732426304	182.36875283446713	57	127
182.1597732426304	182.36875283446713	33	127
182.38034013605443	182.5661224489796	33	127
182.38034013605443	182.5661224489796	57	127
182.38034013605443	182.5661224489796	61	127
182.38034013605443	182.5661224489796	52	127
182.5661224489796	182.82154195011339	52	127
182.5661224489796	182.82154195011339	57	127
182.5661224489796	182.82154195011339	61	127
182.5661224489796	182.82154195011339	33	127
182.83315192743765	183.01891156462585	33	127
182.83315192743765	183.01891156462585	59	127
182.83315192743765	183.01891156462585	52	127
182.83315192743765	183.01891156462585	62	127
183.01891156462585	183.21628117913832	33	127
183.01891156462585	183.21628117913832	62	127
183.01891156462585	183.21628117913832	59	127
183.01891156462585	183.21628117913832	52	127
183.2278911564626	183.40201814058958	56	127
183.2278911564626	183.40201814058958	62	127
183.2278911564626	183.40201814058958	52	127
183.2278911564626	183.40201814058958	33	127
183.4136507936508	183.57619047619048	33	127
183.4136507936508	183.57619047619048	62	127
183.4136507936508	183.57619047619048	56	127
183.4136507936508	183.57619047619048	52	127
183.57619047619048	183.91285714285715	57	127
183.57619047619048	183.91285714285715	52	127
183.57619047619048	183.91285714285715	33	127
183.57619047619048	183.91285714285715	61	127
185.18995464852608	185.39895691609976	54	127
185.18995464852608	185.39895691609976	59	127
185.18995464852608	185.39895691609976	62	127
185.18995464852608	185.39895691609976	38	127
185.41056689342403	185.584716553288	62	127
185.41056689342403	185.584716553288	54	127
185.41056689342403	185.584716553288	59	127
185.41056689342403	185.584716553288	38	127
185.5963038548753	185.78208616780046	38	127
185.5963038548753	185.78208616780046	54	127
185.5963038548753	185.78208616780046	59	127
185.5963038548753	185.78208616780046	62	127
185.78208616780046	185.95621315192744	62	127
185.78208616780046	185.95621315192744	54	127
185.78208616780046	185.95621315192744	59	127
185.78208616780046	185.95621315192744	38	127
185.96784580498866	186.16521541950112	38	127
185.96784580498866	186.16521541950112	54	127
185.96784580498866	186.16521541950112	59	127
185.96784580498866	186.16521541950112	62	127
186.16521541950112	186.36258503401362	62	127
186.16521541950112	186.36258503401362	54	127
186.16521541950112	186.36258503401362	59	127
186.16521541950112	186.36258503401362	38	127
186.38580498866213	186.54834467120182	54	127
186.38580498866213	186.54834467120182	59	127
186.38580498866213	186.54834467120182	62	127
186.38580498866213	186.54834467120182	38	127
186.5599546485261	186.8037641723356	38	127
186.5599546485261	186.8037641723356	54	127
186.5599546485261	186.8037641723356	59	127
186.5599546485261	186.8037641723356	62	127
186.8037641723356	187.17528344671203	40	127
186.8037641723356	187.17528344671203	62	127
186.8037641723356	187.17528344671203	59	127
186.8037641723356	187.17528344671203	52	127
188.498820861678	188.70780045351475	57	127
188.498820861678	188.70780045351475	61	127
188.498820861678	188.70780045351475	52	127
188.498820861678	188.70780045351475	33	127
188.71938775510205	188.89356009070295	57	127
188.71938775510205	188.89356009070295	61	127
188.71938775510205	188.89356009070295	33	127
188.71938775510205	188.89356009070295	52	127
188.89356009070295	189.07931972789115	52	127
188.89356009070295	189.07931972789115	57	127
188.89356009070295	189.07931972789115	61	127
188.89356009070295	189.07931972789115	33	127
189.09092970521542	189.3231292517007	52	127
189.09092970521542	189.3231292517007	33	127
189.09092970521542	189.3231292517007	57	127
189.09092970521542	189.3231292517007	61	127
189.33473922902493	189.53208616780046	52	127
189.33473922902493	189.53208616780046	59	127
189.33473922902493	189.53208616780046	62	127
189.33473922902493	189.53208616780046	33	127
189.53208616780046	189.6946485260771	52	127
189.53208616780046	189.6946485260771	59	127
189.53208616780046	189.6946485260771	62	127
189.53208616780046	189.6946485260771	33	127
189.70625850340136	190.042947845805	33	127
189.70625850340136	190.042947845805	52	127
189.70625850340136	190.042947845805	62	127
189.70625850340136	190.042947845805	56	127
190.05455782312924	190.2287074829932	56	127
190.05455782312924	190.2287074829932	62	127
190.05455782312924	190.2287074829932	52	127
190.05455782312924	190.2287074829932	33	127
190.2287074829932	190.43768707482994	52	127
190.2287074829932	190.43768707482994	33	127
190.2287074829932	190.43768707482994	61	127
190.2287074829932	190.43768707482994	57	127
190.4492970521542	190.64666666666668	61	127
190.4492970521542	190.64666666666668	52	127
190.4492970521542	190.64666666666668	57	127
190.4492970521542	190.64666666666668	33	127
190.64666666666668	190.8208163265306	32	127
190.64666666666668	190.8208163265306	52	127
190.64666666666668	190.8208163265306	57	127
190.64666666666668	190.8208163265306	61	127
190.83242630385487	191.00657596371883	61	127
190.83242630385487	191.00657596371883	52	127
190.83242630385487	191.00657596371883	57	127
190.83242630385487	191.00657596371883	32	127
191.01818594104307	191.19233560090703	33	127
191.01818594104307	191.19233560090703	52	127
191.01818594104307	191.19233560090703	57	127
191.01818594104307	191.19233560090703	61	127
191.19233560090703	191.366485260771	61	127
191.19233560090703	191.366485260771	52	127
191.19233560090703	191.366485260771	57	127
191.19233560090703	191.366485260771	33	127
191.37809523809523	191.56385487528345	61	127
191.37809523809523	191.56385487528345	31	127
191.37809523809523	191.56385487528345	52	127
191.37809523809523	191.56385487528345	57	127
191.56385487528345	191.73800453514738	61	127
191.56385487528345	191.73800453514738	52	127
191.56385487528345	191.73800453514738	57	127
191.56385487528345	191.73800453514738	31	127
191.74961451247165	191.97020408163266	57	127
191.74961451247165	191.97020408163266	54	127
191.74961451247165	191.97020408163266	62	127
191.74961451247165	191.97020408163266	30	127
191.98181405895693	192.1791836734694	57	127
191.98181405895693	192.1791836734694	54	127
191.98181405895693	192.1791836734694	62	127
191.98181405895693	192.1791836734694	30	127
192.1791836734694	192.35333333333332	38	127
192.1791836734694	192.35333333333332	62	127
192.1791836734694	192.35333333333332	54	127
192.1791836734694	192.35333333333332	59	127
192.3649433106576	192.52748299319728	62	127
192.3649433106576	192.52748299319728	59	127
192.3649433106576	192.52748299319728	54	127
192.3649433106576	192.52748299319728	38	127
192.53909297052155	192.71324263038548	57	127
192.53909297052155	192.71324263038548	59	127
192.53909297052155	192.71324263038548	52	127
192.53909297052155	192.71324263038548	40	127
192.71324263038548	192.8990022675737	52	127
192.71324263038548	192.8990022675737	57	127
192.71324263038548	192.8990022675737	59	127
192.71324263038548	192.8990022675737	40	127
192.91061224489795	193.10798185941044	40	127
192.91061224489795	193.10798185941044	56	127
192.91061224489795	193.10798185941044	64	127
192.91061224489795	193.10798185941044	52	127
193.10798185941044	193.29374149659864	40	127
193.10798185941044	193.29374149659864	56	127
193.10798185941044	193.29374149659864	64	127
193.10798185941044	193.29374149659864	52	127
193.3053514739229	193.44467120181406	57	127
193.3053514739229	193.64204081632653	45	127
193.3053514739229	193.64204081632653	33	127
193.3053514739229	193.44467120181406	52	127
193.3053514739229	193.44467120181406	61	127
193.45628117913833	193.64204081632653	73	127
193.54916099773243	193.82780045351473	76	127
193.64204081632653	193.9322902494331	74	127
193.839410430839	194.02517006802722	78	127
193.94390022675736	194.10643990929705	76	127
194.02517006802722	194.19931972789115	80	127
194.11804988662132	194.280589569161	78	127
194.21092970521542	194.39668934240362	81	127
194.280589569161	194.501179138322	80	127
194.39668934240362	194.61727891156463	83	127
194.51278911564626	194.76820861678004	81	127
194.6288888888889	194.8726984126984	85	127
194.76820861678004	194.98879818594105	83	127
194.88430839002268	195.09328798185942	86	127
195.01201814058956	195.38353741496599	85	127
195.01201814058956	195.17455782312925	52	127
195.18616780045352	195.38353741496599	61	127
195.38353741496599	195.73183673469387	81	127
195.38353741496599	195.55768707482994	57	127
195.56929705215418	195.73183673469387	61	127
195.73183673469387	195.9756462585034	52	127
195.73183673469387	196.1962358276644	80	127
195.98725623582766	196.1962358276644	59	127
196.20784580498866	196.61419501133787	83	127
196.20784580498866	196.4400453514739	56	127
196.4400453514739	196.61419501133787	62	127
196.62580498866214	196.78834467120183	52	127
196.62580498866214	197.75197278911565	81	127
196.79995464852607	196.96249433106576	61	127
196.96249433106576	197.15986394557822	57	127
197.1714739229025	197.3920634920635	61	127
197.3920634920635	197.58943310657597	52	127
197.60104308390024	197.75197278911565	61	127
197.7635827664399	197.9841723356009	83	127
197.7635827664399	197.9841723356009	57	127
197.9841723356009	198.2395918367347	85	127
197.9841723356009	198.2395918367347	61	127
198.25120181405896	198.41374149659865	54	127
198.25120181405896	198.41374149659865	88	127
198.42535147392292	198.61111111111111	86	127
198.42535147392292	198.61111111111111	62	127
198.61111111111111	198.82009070294785	85	127
198.61111111111111	198.82009070294785	57	127
198.83170068027212	199.04068027210883	62	127
198.83170068027212	199.04068027210883	86	127
199.04068027210883	199.22643990929706	85	127
199.04068027210883	199.22643990929706	53	127
199.23804988662133	199.41219954648525	83	127
199.23804988662133	199.41219954648525	62	127
199.4586394557823	199.65600907029477	82	127
199.4586394557823	199.65600907029477	59	127
199.65600907029477	199.81854875283446	62	127
199.65600907029477	199.81854875283446	83	127
199.83015873015873	200.0043083900227	52	127
199.83015873015873	200.0043083900227	81	127
199.83015873015873	200.0043083900227	59	127
200.0043083900227	200.19006802721088	80	127
200.0043083900227	200.19006802721088	62	127
200.20167800453515	200.38743764172335	59	127
200.20167800453515	200.38743764172335	78	127
200.20167800453515	200.38743764172335	54	127
200.39904761904762	200.58480725623582	80	127
200.39904761904762	200.58480725623582	62	127
200.58480725623582	200.97954648526078	76	127
200.58480725623582	200.79378684807256	56	127
200.58480725623582	200.79378684807256	59	127
200.80539682539683	200.97954648526078	62	127
201.0027664399093	201.1885260770975	52	127
201.0027664399093	201.08403628117915	78	127
201.0027664399093	201.1885260770975	59	127
201.0956462585034	201.1885260770975	80	127
201.1885260770975	201.28140589569162	81	127
201.1885260770975	201.38589569161	62	127
201.30462585034013	201.38589569161	83	127
201.39750566893423	201.58326530612246	52	127
201.39750566893423	201.76902494331065	85	127
201.58326530612246	201.76902494331065	61	127
201.82707482993197	202.00122448979593	57	127
201.82707482993197	202.18698412698413	81	127
202.01283446712017	202.18698412698413	61	127
202.18698412698413	202.40757369614514	52	127
202.18698412698413	202.6281632653061	80	127
202.41918367346938	202.6281632653061	59	127
202.63977324263038	203.11578231292518	83	127
202.63977324263038	202.87197278911566	56	127
202.87197278911566	203.11578231292518	62	127
203.12739229024945	204.28839002267574	81	127
203.12739229024945	203.34798185941042	57	127
203.34798185941042	203.53374149659865	61	127
203.55696145124716	203.7427210884354	56	127
203.7427210884354	203.94009070294786	61	127
203.94009070294786	204.09102040816327	57	127
204.10263038548752	204.28839002267574	61	127
204.28839002267574	204.46253968253967	83	127
204.28839002267574	204.46253968253967	55	127
204.28839002267574	204.46253968253967	57	127
204.47414965986394	204.6715192743764	61	127
204.47414965986394	204.6715192743764	85	127
204.68312925170068	204.85727891156463	57	127
204.68312925170068	204.85727891156463	54	127
204.68312925170068	204.85727891156463	88	127
204.85727891156463	205.03142857142856	62	127
204.85727891156463	205.03142857142856	86	127
205.04303854875283	205.2171882086168	50	127
205.04303854875283	205.2171882086168	54	127
205.04303854875283	205.2171882086168	85	127
205.22879818594103	205.42616780045353	86	127
205.22879818594103	205.42616780045353	59	127
205.42616780045353	205.65836734693877	85	127
205.42616780045353	205.65836734693877	52	127
205.42616780045353	205.65836734693877	56	127
205.66997732426304	205.84412698412697	83	127
205.66997732426304	205.84412698412697	59	127
205.84412698412697	206.04149659863947	82	127
205.84412698412697	206.04149659863947	56	127
205.84412698412697	206.04149659863947	52	127
206.0531065759637	206.2156462585034	62	127
206.0531065759637	206.2156462585034	83	127
206.22725623582767	206.41301587301587	81	127
206.22725623582767	206.41301587301587	57	127
206.22725623582767	206.41301587301587	61	127
206.41301587301587	206.5987755102041	52	127
206.41301587301587	206.50589569160996	93	127
206.41301587301587	206.5987755102041	45	127
206.41301587301587	206.5987755102041	57	127
206.51750566893423	206.5987755102041	92	127
206.61038548752833	206.6916553287982	93	127
206.61038548752833	206.7845351473923	52	127
206.61038548752833	206.7845351473923	45	127
206.61038548752833	206.7845351473923	57	127
206.6916553287982	206.7845351473923	92	127
206.79614512471656	206.99351473922903	45	127
206.79614512471656	206.99351473922903	57	127
206.79614512471656	206.99351473922903	52	127
206.79614512471656	206.90063492063493	93	127
206.91224489795917	206.99351473922903	92	127
206.99351473922903	207.1212244897959	93	127
207.1212244897959	207.20249433106576	92	127
207.21410430839003	207.4114739229025	52	127
207.21410430839003	207.29537414965986	90	127
207.21410430839003	207.4114739229025	45	127
207.21410430839003	207.4114739229025	57	127
207.30698412698413	207.4114739229025	88	127
207.4114739229025	207.49274376417233	86	127
207.4114739229025	207.62045351473924	45	127
207.4114739229025	207.62045351473924	57	127
207.4114739229025	207.62045351473924	52	127
207.5043537414966	207.62045351473924	85	127
207.63206349206348	207.8178231292517	52	127
207.63206349206348	207.7249433106576	83	127
207.63206349206348	207.8178231292517	45	127
207.63206349206348	207.8178231292517	57	127
207.7249433106576	207.8178231292517	81	127
207.82943310657598	207.9107029478458	80	127
207.92231292517008	208.01519274376417	81	127
208.01519274376417	208.20095238095237	59	127
208.01519274376417	208.10807256235827	83	127
208.01519274376417	208.20095238095237	45	127
208.01519274376417	208.20095238095237	52	127
208.11968253968254	208.20095238095237	85	127
208.21256235827664	208.29383219954647	86	127
208.21256235827664	208.4099319727891	59	127
208.21256235827664	208.4099319727891	52	127
208.21256235827664	208.4099319727891	45	127
208.29383219954647	208.4099319727891	85	127
208.4099319727891	208.5028117913832	83	127
208.4099319727891	208.59569160997734	59	127
208.4099319727891	208.59569160997734	52	127
208.4099319727891	208.59569160997734	45	127
208.51442176870748	208.59569160997734	81	127
208.60730158730158	208.73501133786849	80	127
208.73501133786849	208.81628117913831	81	127
208.82789115646258	208.89755102040817	83	127
208.82789115646258	208.99043083900227	59	127
208.82789115646258	208.99043083900227	52	127
208.82789115646258	208.99043083900227	45	127
208.9091609977324	208.99043083900227	81	127
208.99043083900227	209.15297052154196	59	127
208.99043083900227	209.06009070294783	80	127
208.99043083900227	209.15297052154196	45	127
208.99043083900227	209.15297052154196	52	127
209.0717006802721	209.15297052154196	76	127
209.1645804988662	209.3271201814059	59	127
209.1645804988662	209.24585034013606	78	127
209.1645804988662	209.3271201814059	45	127
209.1645804988662	209.3271201814059	52	127
209.24585034013606	209.3271201814059	80	127
209.33873015873016	209.43160997732426	81	127
209.44321995464853	209.52448979591836	76	127
209.52448979591836	209.65219954648526	78	127
209.52448979591836	209.7682993197279	45	127
209.52448979591836	209.7682993197279	52	127
209.52448979591836	209.7682993197279	57	127
209.66380952380953	209.7682993197279	80	127
209.77990929705214	210.00049886621315	45	127
209.77990929705214	209.861179138322	81	127
209.77990929705214	210.00049886621315	52	127
209.77990929705214	210.00049886621315	57	127
209.89600907029478	210.00049886621315	83	127
210.00049886621315	210.18625850340135	45	127
210.00049886621315	210.09337868480725	85	127
210.00049886621315	210.18625850340135	52	127
210.00049886621315	210.18625850340135	57	127
210.10498866213152	210.18625850340135	83	127
210.19786848072562	210.27913832199548	81	127
210.27913832199548	210.34879818594104	80	127
210.3604081632653	210.56938775510204	57	127
210.3604081632653	210.46489795918367	78	127
210.3604081632653	210.56938775510204	45	127
210.3604081632653	210.56938775510204	52	127
210.47650793650794	210.56938775510204	76	127
210.56938775510204	210.68548752834468	74	127
210.56938775510204	210.77836734693878	57	127
210.56938775510204	210.77836734693878	52	127
210.56938775510204	210.77836734693878	45	127
210.69709750566892	210.77836734693878	73	127
210.77836734693878	210.94090702947847	45	127
210.77836734693878	210.94090702947847	57	127
210.77836734693878	210.94090702947847	52	127
210.77836734693878	210.8596371882086	71	127
210.8596371882086	210.94090702947847	69	127
210.9525170068027	211.03378684807257	68	127
211.04539682539684	211.12666666666667	69	127
211.12666666666667	211.34725623582767	45	127
211.12666666666667	211.34725623582767	52	127
211.12666666666667	211.34725623582767	59	127
211.12666666666667	211.25437641723357	71	127
211.25437641723357	211.34725623582767	73	127
211.35886621315194	211.53301587301587	52	127
211.35886621315194	211.44013605442177	74	127
211.35886621315194	211.53301587301587	45	127
211.35886621315194	211.53301587301587	59	127
211.45174603174604	211.53301587301587	73	127
211.53301587301587	211.76521541950115	59	127
211.53301587301587	211.62589569160997	71	127
211.53301587301587	211.76521541950115	45	127
211.53301587301587	211.76521541950115	52	127
211.63750566893424	211.76521541950115	69	127
211.7768253968254	211.86970521541951	68	127
211.86970521541951	211.95097505668934	69	127
211.9625850340136	212.1483446712018	45	127
211.9625850340136	212.1483446712018	59	127
211.9625850340136	212.1483446712018	52	127
211.9625850340136	212.04385487528344	71	127
212.0554648526077	212.1483446712018	69	127
212.1483446712018	212.36893424036282	52	127
212.1483446712018	212.26444444444445	68	127
212.1483446712018	212.36893424036282	45	127
212.1483446712018	212.36893424036282	59	127
212.27605442176872	212.36893424036282	64	127
212.3805442176871	212.55469387755102	52	127
212.3805442176871	212.45020408163265	66	127
212.3805442176871	212.55469387755102	59	127
212.3805442176871	212.55469387755102	45	127
212.45020408163265	212.55469387755102	68	127
212.55469387755102	212.63596371882088	69	127
212.55469387755102	212.9378231292517	45	127
212.55469387755102	212.9378231292517	57	127
212.64757369614512	212.74045351473922	71	127
212.75206349206348	212.84494331065758	73	127
212.84494331065758	212.9378231292517	71	127
212.94943310657595	213.0307029478458	69	127
213.04231292517008	213.13519274376418	71	127
213.13519274376418	213.22807256235828	73	127
213.13519274376418	213.33256235827665	57	127
213.13519274376418	213.33256235827665	45	127
213.2512925170068	213.33256235827665	71	127
213.34417233560092	213.73891156462585	47	127
213.34417233560092	213.44866213151928	69	127
213.34417233560092	213.73891156462585	59	127
213.44866213151928	213.54154195011338	71	127
213.5647619047619	213.64603174603175	73	127
213.65764172335602	213.73891156462585	71	127
213.73891156462585	213.82018140589568	69	127
213.84340136054422	213.92467120181405	71	127
213.93628117913832	214.12204081632652	47	127
213.93628117913832	214.12204081632652	59	127
213.93628117913832	214.02916099773242	73	127
214.0407709750567	214.12204081632652	71	127
214.12204081632652	214.49356009070294	61	127
214.12204081632652	214.49356009070294	49	127
214.12204081632652	214.20331065759638	69	127
214.23814058956916	214.319410430839	71	127
214.33102040816325	214.4122902494331	73	127
214.4122902494331	214.49356009070294	71	127
214.5051700680272	214.58643990929704	69	127
214.5980498866213	214.6909297052154	71	127
214.6909297052154	214.77219954648527	73	127
214.6909297052154	214.87668934240364	49	127
214.6909297052154	214.87668934240364	61	127
214.78380952380954	214.87668934240364	71	127
214.88829931972788	215.00439909297052	69	127
214.88829931972788	215.12049886621315	51	127
214.88829931972788	215.12049886621315	63	127
215.01600907029479	215.12049886621315	71	127
215.13210884353742	215.22498866213152	73	127
215.13210884353742	215.34108843537416	51	127
215.13210884353742	215.34108843537416	63	127
215.2365986394558	215.34108843537416	71	127
215.3526984126984	215.5152380952381	63	127
215.3526984126984	215.422358276644	69	127
215.3526984126984	215.5152380952381	51	127
215.43396825396826	215.5152380952381	73	127
215.52684807256236	215.74743764172337	63	127
215.52684807256236	215.74743764172337	51	127
215.52684807256236	215.63133786848073	71	127
215.642947845805	215.74743764172337	69	127
215.7590476190476	216.13056689342403	64	127
215.7590476190476	215.93319727891156	68	127
215.7590476190476	216.13056689342403	52	127
215.94480725623583	216.13056689342403	76	127
215.94480725623583	216.13056689342403	68	127
216.13056689342403	216.304716553288	76	127
216.13056689342403	216.304716553288	68	127
216.31632653061226	216.52530612244897	56	127
216.31632653061226	216.52530612244897	52	127
216.52530612244897	216.90843537414966	54	127
216.52530612244897	216.90843537414966	57	127
216.7110657596372	216.90843537414966	69	127
216.7110657596372	216.90843537414966	76	127
216.92004535147393	217.10580498866213	76	127
216.92004535147393	217.10580498866213	69	127
217.10580498866213	217.29156462585033	54	127
217.10580498866213	217.29156462585033	57	127
217.31478458049887	217.67469387755102	59	127
217.31478458049887	217.67469387755102	56	127
217.48893424036282	217.67469387755102	76	127
217.48893424036282	217.67469387755102	71	127
217.67469387755102	217.86045351473922	76	127
217.67469387755102	217.86045351473922	71	127
217.8720634920635	218.10426303854877	56	127
217.8720634920635	218.10426303854877	59	127
218.10426303854877	218.32485260770974	61	127
218.10426303854877	218.32485260770974	58	127
218.336462585034	218.51061224489797	64	127
218.336462585034	218.51061224489797	73	127
218.336462585034	218.51061224489797	76	127
218.336462585034	218.51061224489797	58	127
218.5222222222222	218.69637188208617	64	127
218.5222222222222	218.69637188208617	66	127
218.5222222222222	218.69637188208617	73	127
218.5222222222222	218.69637188208617	58	127
218.69637188208617	218.88213151927437	73	127
218.69637188208617	218.88213151927437	58	127
218.69637188208617	218.88213151927437	64	127
218.69637188208617	218.88213151927437	66	127
218.89374149659864	219.2536507936508	63	127
218.89374149659864	219.2536507936508	66	127
218.89374149659864	219.2536507936508	59	127
218.89374149659864	219.2536507936508	71	127
219.81092970521541	219.91541950113378	71	127
219.92702947845805	220.01990929705215	73	127
220.01990929705215	220.10117913832198	75	127
220.11278911564625	220.1940589569161	76	127
220.20566893424035	220.2869387755102	78	127
220.2869387755102	220.39142857142858	80	127
220.40303854875285	220.48430839002268	82	127
220.49591836734695	220.58879818594104	83	127
220.58879818594104	220.68167800453514	71	127
220.58879818594104	220.68167800453514	83	127
220.68167800453514	220.762947845805	85	127
220.68167800453514	220.762947845805	73	127
220.77455782312924	220.86743764172334	87	127
220.77455782312924	220.86743764172334	75	127
220.89065759637188	220.98353741496598	88	127
220.89065759637188	220.98353741496598	76	127
220.98353741496598	221.06480725623584	90	127
220.98353741496598	221.06480725623584	78	127
221.07641723356008	221.15768707482994	80	127
221.07641723356008	221.15768707482994	92	127
221.1692970521542	221.25056689342404	82	127
221.1692970521542	221.25056689342404	94	127
221.25056689342404	221.41310657596372	83	127
221.25056689342404	221.41310657596372	95	127
221.424716553288	221.6104761904762	90	127
221.424716553288	221.6104761904762	78	127
221.62208616780046	221.81945578231293	87	127
221.62208616780046	221.81945578231293	75	127
221.81945578231293	221.99360544217686	71	127
221.81945578231293	221.99360544217686	83	127
222.00521541950113	222.21419501133786	78	127
222.00521541950113	222.21419501133786	66	127
222.21419501133786	222.41156462585033	75	127
222.21419501133786	222.41156462585033	63	127
222.4231746031746	222.59732426303856	59	127
222.4231746031746	222.59732426303856	71	127
222.6089342403628	222.79469387755103	66	127
222.6089342403628	222.79469387755103	54	127
222.79469387755103	222.96884353741495	51	127
222.79469387755103	222.96884353741495	63	127
222.98045351473922	223.1429931972789	59	127
222.98045351473922	223.1429931972789	47	127
223.15460317460318	223.35197278911565	42	127
223.15460317460318	223.35197278911565	54	127
223.35197278911565	223.53773242630385	51	127
223.35197278911565	223.53773242630385	39	127
223.54934240362812	224.12984126984128	35	127
223.54934240362812	224.12984126984128	47	127
224.1530612244898	224.73356009070295	59	127
224.1530612244898	224.73356009070295	47	127
227.1600453514739	228.28621315192743	61	127
227.1600453514739	228.28621315192743	64	127
227.1600453514739	228.28621315192743	45	127
228.28621315192743	228.47197278911565	66	127
228.28621315192743	228.47197278911565	61	127
228.28621315192743	228.47197278911565	64	127
228.28621315192743	228.47197278911565	45	127
228.48358276643992	228.65773242630385	45	127
228.48358276643992	228.65773242630385	61	127
228.48358276643992	228.65773242630385	64	127
228.48358276643992	228.65773242630385	66	127
228.66934240362812	228.91315192743764	66	127
228.66934240362812	228.91315192743764	61	127
228.66934240362812	228.91315192743764	64	127
228.66934240362812	228.91315192743764	45	127
228.91315192743764	229.0873015873016	45	127
228.91315192743764	229.0873015873016	66	127
228.91315192743764	229.0873015873016	61	127
228.91315192743764	229.0873015873016	64	127
229.09891156462584	229.2730612244898	47	127
229.09891156462584	229.2730612244898	59	127
229.09891156462584	229.2730612244898	64	127
229.09891156462584	229.2730612244898	68	127
229.2730612244898	229.47043083900226	68	127
229.2730612244898	229.47043083900226	59	127
229.2730612244898	229.47043083900226	64	127
229.2730612244898	229.47043083900226	47	127
229.48204081632653	229.71424036281178	69	127
229.48204081632653	229.71424036281178	57	127
229.48204081632653	229.71424036281178	64	127
229.48204081632653	229.71424036281178	49	127
229.73746031746032	229.92321995464852	69	127
229.73746031746032	229.92321995464852	57	127
229.73746031746032	229.92321995464852	64	127
229.73746031746032	229.92321995464852	49	127
229.93482993197279	230.1554195011338	68	127
229.93482993197279	230.1554195011338	59	127
229.93482993197279	230.1554195011338	64	127
229.93482993197279	230.1554195011338	47	127
230.16702947845806	230.37600907029477	68	127
230.16702947845806	230.37600907029477	59	127
230.16702947845806	230.37600907029477	64	127
230.16702947845806	230.37600907029477	47	127
230.38761904761904	230.71269841269842	45	127
230.38761904761904	230.71269841269842	61	127
230.38761904761904	230.71269841269842	64	127
230.38761904761904	230.71269841269842	66	127
230.72430839002268	231.09582766439908	61	127
230.72430839002268	231.09582766439908	64	127
230.72430839002268	231.09582766439908	66	127
230.72430839002268	231.09582766439908	45	127
233.87061224489796	235.22897959183675	64	127
233.87061224489796	235.22897959183675	61	127
233.87061224489796	235.22897959183675	46	127
235.240589569161	235.47278911564626	66	127
235.240589569161	235.47278911564626	61	127
235.240589569161	235.47278911564626	64	127
235.240589569161	235.47278911564626	46	127
235.47278911564626	235.6469387755102	66	127
235.47278911564626	235.6469387755102	61	127
235.47278911564626	235.6469387755102	64	127
235.47278911564626	235.6469387755102	46	127
235.65854875283446	235.80947845804988	66	127
235.65854875283446	235.80947845804988	61	127
235.65854875283446	235.80947845804988	64	127
235.65854875283446	235.80947845804988	46	127
235.82108843537415	235.9952380952381	46	127
235.82108843537415	235.9952380952381	61	127
235.82108843537415	235.9952380952381	64	127
235.82108843537415	235.9952380952381	66	127
236.00684807256235	236.15777777777777	47	127
236.00684807256235	236.15777777777777	59	127
236.00684807256235	236.15777777777777	64	127
236.00684807256235	236.15777777777777	68	127
236.15777777777777	236.33192743764172	68	127
236.15777777777777	236.33192743764172	59	127
236.15777777777777	236.33192743764172	64	127
236.15777777777777	236.33192743764172	47	127
236.343537414966	236.4944671201814	70	127
236.343537414966	236.4944671201814	58	127
236.343537414966	236.4944671201814	64	127
236.343537414966	236.4944671201814	49	127
236.50607709750568	236.73827664399093	70	127
236.50607709750568	236.73827664399093	58	127
236.50607709750568	236.73827664399093	64	127
236.50607709750568	236.73827664399093	49	127
236.73827664399093	236.99369614512472	68	127
236.73827664399093	236.99369614512472	59	127
236.73827664399093	236.99369614512472	64	127
236.73827664399093	236.99369614512472	47	127
237.00530612244899	237.19106575963718	68	127
237.00530612244899	237.19106575963718	59	127
237.00530612244899	237.19106575963718	64	127
237.00530612244899	237.19106575963718	47	127
237.20267573696145	237.60902494331066	61	127
237.20267573696145	237.60902494331066	64	127
237.20267573696145	237.60902494331066	66	127
237.20267573696145	237.60902494331066	46	127
237.60902494331066	237.99215419501132	46	127
237.60902494331066	237.99215419501132	61	127
237.60902494331066	237.99215419501132	64	127
237.60902494331066	237.99215419501132	66	127
238.7932426303855	240.70888888888888	61	127
238.7932426303855	239.65238095238095	67	127
238.7932426303855	240.70888888888888	64	127
238.7932426303855	240.70888888888888	58	127
239.74526077097505	240.4534693877551	66	127
240.4534693877551	240.70888888888888	67	127
240.72049886621315	242.35750566893424	59	127
240.72049886621315	242.35750566893424	64	127
240.72049886621315	242.35750566893424	68	127
242.35750566893424	243.2166439909297	66	127
242.35750566893424	243.66943310657595	47	127
242.35750566893424	243.2166439909297	63	127
243.2166439909297	243.66943310657595	69	127
243.2166439909297	243.66943310657595	66	127
243.68104308390022	244.0990022675737	47	127
243.68104308390022	244.0990022675737	66	127
243.68104308390022	244.0990022675737	51	127
244.13383219954648	244.62145124716554	66	127
244.13383219954648	244.62145124716554	51	127
244.13383219954648	245.06263038548752	49	127
244.6330612244898	245.06263038548752	64	127
244.6330612244898	245.06263038548752	52	127
245.92176870748298	246.75768707482993	55	127
245.92176870748298	247.5819954648526	46	127
245.92176870748298	247.5819954648526	49	127
246.66480725623583	246.88539682539684	76	127
246.7692970521542	247.3614058956916	54	127
246.7692970521542	247.7677551020408	88	127
247.37301587301587	247.5819954648526	55	127
247.59360544217688	248.41791383219956	56	127
247.59360544217688	248.41791383219956	47	127
247.59360544217688	248.41791383219956	52	127
247.77936507936508	247.97673469387755	87	127
247.98834467120182	248.16249433106577	85	127
248.17410430839	248.41791383219956	83	127
248.41791383219956	249.61374149659864	56	127
248.41791383219956	248.66172335600908	82	127
248.41791383219956	249.61374149659864	47	127
248.41791383219956	249.61374149659864	59	127
248.66172335600908	248.88231292517005	83	127
248.89392290249432	249.07968253968255	82	127
249.07968253968255	249.25383219954648	83	127
249.26544217687075	249.4395918367347	82	127
249.4395918367347	249.61374149659864	83	127
249.6253514739229	250.00848072562357	54	127
249.6253514739229	249.7878911564626	81	127
249.6253514739229	250.00848072562357	47	127
249.6253514739229	250.00848072562357	57	127
249.79950113378686	250.00848072562357	83	127
250.00848072562357	250.20585034013607	80	127
250.00848072562357	250.40321995464853	56	127
250.00848072562357	250.40321995464853	52	127
250.00848072562357	250.40321995464853	47	127
250.22907029478458	250.40321995464853	83	127
250.41482993197278	250.84439909297052	54	127
250.41482993197278	250.64702947845805	78	127
250.41482993197278	250.84439909297052	59	127
250.41482993197278	250.84439909297052	47	127
250.41482993197278	250.84439909297052	51	127
250.65863945578232	250.84439909297052	83	127
250.8560090702948	251.21591836734694	76	127
250.8560090702948	251.041768707483	52	127
250.8560090702948	251.041768707483	56	127
250.96049886621316	251.12303854875285	59	127
251.041768707483	251.21591836734694	52	127
251.041768707483	251.21591836734694	56	127
251.1346485260771	251.30879818594104	59	127
251.2275283446712	251.42489795918368	52	127
251.2275283446712	251.42489795918368	56	127
251.30879818594104	251.5061678004535	59	127
251.42489795918368	251.61065759637188	52	127
251.42489795918368	251.61065759637188	56	127
251.51777777777778	251.70353741496598	59	127
251.62226757369615	251.78480725623584	52	127
251.62226757369615	251.78480725623584	57	127
251.70353741496598	251.87768707482994	59	127
251.79641723356008	251.97056689342404	52	127
251.79641723356008	251.97056689342404	57	127
251.8892970521542	252.05183673469386	59	127
251.97056689342404	252.144716553288	57	127
251.97056689342404	252.144716553288	52	127
252.06344671201813	252.2608163265306	59	127
252.1679365079365	252.35369614512473	52	127
252.1679365079365	252.35369614512473	57	127
252.2608163265306	252.35369614512473	59	127
252.37691609977324	252.49301587301588	76	127
252.37691609977324	252.59750566893425	52	127
252.37691609977324	252.59750566893425	56	127
252.50462585034015	252.70199546485262	59	127
252.50462585034015	252.59750566893425	78	127
252.59750566893425	252.79487528344671	56	127
252.59750566893425	252.70199546485262	80	127
252.59750566893425	252.79487528344671	52	127
252.71360544217688	252.79487528344671	81	127
252.71360544217688	252.8877551020408	59	127
252.80648526077098	252.9806349206349	56	127
252.80648526077098	252.8877551020408	83	127
252.80648526077098	252.9806349206349	52	127
252.89936507936508	252.9806349206349	85	127
252.89936507936508	253.06190476190477	59	127
252.9806349206349	253.17800453514738	52	127
252.9806349206349	253.06190476190477	87	127
252.9806349206349	253.17800453514738	56	127
253.09673469387755	253.28249433106575	59	127
253.09673469387755	253.17800453514738	88	127
253.18961451247165	253.3637641723356	57	127
253.18961451247165	253.28249433106575	87	127
253.18961451247165	253.3637641723356	52	127
253.28249433106575	253.3637641723356	88	127
253.28249433106575	253.4566439909297	59	127
253.37537414965988	253.5495238095238	52	127
253.37537414965988	253.4566439909297	87	127
253.37537414965988	253.5495238095238	57	127
253.46825396825398	253.5495238095238	85	127
253.46825396825398	253.63079365079366	59	127
253.5495238095238	253.79333333333332	52	127
253.5495238095238	253.79333333333332	57	127
253.5495238095238	253.63079365079366	83	127
253.6424036281179	253.8978231292517	59	127
253.6424036281179	253.79333333333332	81	127
253.8049433106576	253.97909297052155	57	127
253.8049433106576	253.8978231292517	80	127
253.8049433106576	253.97909297052155	52	127
253.8978231292517	253.97909297052155	59	127
253.8978231292517	253.97909297052155	78	127
254.00231292517006	254.2112925170068	52	127
254.00231292517006	254.2112925170068	56	127
254.00231292517006	254.75696145124718	76	127
254.1184126984127	254.3041723356009	59	127
254.2112925170068	254.38544217687075	52	127
254.2112925170068	254.38544217687075	56	127
254.3041723356009	254.47832199546485	59	127
254.39705215419502	254.57120181405895	52	127
254.39705215419502	254.57120181405895	56	127
254.48993197278912	254.66408163265305	59	127
254.57120181405895	254.75696145124718	56	127
254.57120181405895	254.75696145124718	52	127
254.67569160997732	254.84984126984128	59	127
254.76857142857142	254.9311111111111	52	127
254.76857142857142	255.47678004535146	71	127
254.76857142857142	254.9311111111111	57	127
254.84984126984128	255.03560090702948	59	127
254.95433106575965	255.12848072562358	52	127
254.95433106575965	255.12848072562358	57	127
255.04721088435375	255.19814058956916	59	127
255.12848072562358	255.29102040816326	52	127
255.12848072562358	255.29102040816326	57	127
255.20975056689343	255.38390022675736	59	127
255.30263038548753	255.47678004535146	52	127
255.30263038548753	255.47678004535146	57	127
255.38390022675736	255.47678004535146	59	127
255.47678004535146	255.82507936507938	56	127
255.47678004535146	255.69736961451247	76	127
255.47678004535146	255.82507936507938	52	127
255.70897959183674	255.82507936507938	78	127
255.70897959183674	255.92956916099774	59	127
255.83668934240362	256.0108390022676	52	127
255.83668934240362	255.92956916099774	80	127
255.83668934240362	256.0108390022676	56	127
255.92956916099774	256.1037188208617	59	127
255.92956916099774	256.0108390022676	81	127
256.02244897959184	256.1965986394558	56	127
256.02244897959184	256.1037188208617	83	127
256.02244897959184	256.1965986394558	52	127
256.11532879818594	256.1965986394558	85	127
256.11532879818594	256.3126984126984	59	127
256.1965986394558	256.4520181405896	56	127
256.1965986394558	256.3126984126984	87	127
256.1965986394558	256.4520181405896	52	127
256.3243083900227	256.4520181405896	88	127
256.3243083900227	256.55650793650796	59	127
256.46362811791386	256.55650793650796	87	127
256.46362811791386	256.6377777777778	52	127
256.46362811791386	256.6377777777778	57	127
256.55650793650796	256.6377777777778	88	127
256.55650793650796	256.74226757369615	59	127
256.64938775510205	256.8467573696145	57	127
256.64938775510205	256.74226757369615	87	127
256.64938775510205	256.8467573696145	52	127
256.7538775510204	256.8467573696145	85	127
256.7538775510204	256.92802721088435	59	127
256.8467573696145	257.044126984127	52	127
256.8467573696145	256.92802721088435	83	127
256.8467573696145	257.044126984127	57	127
256.9396371882086	257.044126984127	81	127
256.9396371882086	257.1370068027211	59	127
257.05573696145126	257.2298866213152	57	127
257.05573696145126	257.2298866213152	52	127
257.05573696145126	257.1370068027211	80	127
257.14861678004536	257.2298866213152	59	127
257.14861678004536	257.2298866213152	78	127
257.2298866213152	257.4388662131519	80	127
257.2298866213152	257.311156462585	52	127
257.33437641723356	257.4388662131519	54	127
257.4504761904762	257.6246258503401	83	127
257.4504761904762	257.5433560090703	56	127
257.5433560090703	257.6246258503401	57	127
257.6362358276644	257.7175056689342	59	127
257.7291156462585	257.83360544217686	61	127
257.83360544217686	258.00773242630385	83	127
257.83360544217686	257.91485260770975	63	127
257.92648526077096	258.00773242630385	64	127
258.01936507936506	258.19351473922904	85	127
258.01936507936506	258.10063492063495	57	127
258.10063492063495	258.19351473922904	59	127
258.2051247165533	258.2980045351474	61	127
258.2051247165533	258.3908843537415	85	127
258.3096145124717	258.3908843537415	62	127
258.3908843537415	258.50698412698415	64	127
258.50698412698415	258.59986394557825	66	127
258.6114739229025	258.808843537415	85	127
258.6114739229025	258.69274376417235	68	127
258.72755102040816	258.808843537415	69	127
258.808843537415	259.00621315192745	83	127
258.808843537415	258.8901133786848	59	127
258.9017233560091	259.00621315192745	71	127
259.0410430839002	259.2151927437642	83	127
259.0410430839002	259.13390022675736	68	127
259.13390022675736	259.2151927437642	64	127
259.22680272108846	259.31968253968256	59	127
259.33129251700683	259.42417233560093	58	127
259.42417233560093	259.517052154195	59	127
259.42417233560093	259.6099319727891	83	127
259.5286621315193	259.6099319727891	58	127
259.6215419501134	259.7028117913832	59	127
259.6215419501134	259.7956916099773	87	127
259.7028117913832	259.7956916099773	58	127
259.7956916099773	259.9814512471655	87	127
259.7956916099773	259.8885714285714	59	127
259.9001814058957	259.9814512471655	57	127
260.00467120181406	260.1672108843537	87	127
260.00467120181406	260.0859410430839	59	127
260.0859410430839	260.1672108843537	56	127
260.178820861678	260.31814058956917	87	127
260.178820861678	260.2484807256236	59	127
260.2484807256236	260.31814058956917	54	127
260.31814058956917	260.4922902494331	76	127
260.31814058956917	260.399410430839	52	127
260.31814058956917	260.4922902494331	88	127
260.41102040816327	260.4922902494331	54	127
260.50390022675737	260.6780498866213	83	127
260.50390022675737	260.5851700680272	56	127
260.50390022675737	260.6780498866213	71	127
260.5851700680272	260.6780498866213	57	127
260.68965986394556	260.77090702947845	59	127
260.78253968253966	260.8753968253968	61	127
260.8753968253968	261.061179138322	83	127
260.8753968253968	261.061179138322	71	127
260.8753968253968	260.9682993197279	63	127
260.9798866213152	261.061179138322	64	127
261.0727664399093	261.2469387755102	73	127
261.0727664399093	261.1540589569161	45	127
261.0727664399093	261.2469387755102	85	127
261.1656689342404	261.2469387755102	47	127
261.2469387755102	261.4443083900227	73	127
261.2469387755102	261.3398185941043	49	127
261.2469387755102	261.4443083900227	85	127
261.3514285714286	261.4443083900227	50	127
261.45591836734695	261.5371882086168	52	127
261.5371882086168	261.64167800453515	54	127
261.6532879818594	261.82743764172335	85	127
261.6532879818594	261.722947845805	56	127
261.6532879818594	261.82743764172335	73	127
261.73455782312925	261.82743764172335	57	127
261.82743764172335	261.9087074829932	47	127
261.82743764172335	262.01319727891155	83	127
261.82743764172335	262.01319727891155	71	127
261.9319274376417	262.01319727891155	59	127
262.0248072562358	262.2221768707483	71	127
262.0248072562358	262.1292970521542	56	127
262.0248072562358	262.2221768707483	83	127
262.1292970521542	262.2221768707483	52	127
262.23378684807255	262.3150566893424	47	127
262.32666666666665	262.40791383219954	44	127
262.40791383219954	262.58208616780047	71	127
262.40791383219954	262.50081632653064	40	127
262.40791383219954	262.58208616780047	83	127
262.50081632653064	262.58208616780047	44	127
262.59369614512474	262.76784580498867	35	127
262.59369614512474	262.76784580498867	87	127
262.59369614512474	262.76784580498867	75	127
262.68657596371884	262.8491156462585	47	127
262.76784580498867	262.95360544217687	87	127
262.76784580498867	262.95360544217687	75	127
262.76784580498867	262.95360544217687	35	127
262.87233560090704	263.04648526077096	47	127
262.96521541950113	263.12773242630385	87	127
262.96521541950113	263.12773242630385	75	127
262.96521541950113	263.12773242630385	35	127
263.04648526077096	263.24385487528343	47	127
263.15097505668933	263.3483446712018	35	127
263.15097505668933	263.3483446712018	87	127
263.15097505668933	263.3483446712018	75	127
263.2554648526077	263.3483446712018	47	127
263.3483446712018	263.53408163265306	40	127
263.3483446712018	263.53408163265306	88	127
263.3483446712018	263.53408163265306	76	127
263.45283446712017	263.62698412698415	47	127
263.54571428571427	263.7314512471655	76	127
263.54571428571427	263.7314512471655	44	127
263.54571428571427	263.7314512471655	88	127
263.62698412698415	263.8243537414966	47	127
263.7314512471655	263.94043083900226	40	127
263.8359410430839	264.03333333333336	47	127
263.9520634920635	264.1146031746032	87	127
263.9520634920635	264.1146031746032	75	127
263.9520634920635	264.1146031746032	44	127
264.03333333333336	264.2074829931973	47	127
264.12621315192746	264.3003628117914	40	127
264.21909297052156	264.3816326530612	47	127
264.3003628117914	264.49773242630386	44	127
264.3003628117914	264.49773242630386	88	127
264.3003628117914	264.49773242630386	76	127
264.3932426303855	264.6022222222222	47	127
264.5093424036281	264.68349206349205	40	127
264.6022222222222	264.77637188208615	47	127
264.6951020408163	264.86925170068025	44	127
264.6951020408163	264.86925170068025	87	127
264.6951020408163	264.86925170068025	75	127
264.7879818594104	264.95052154195014	47	127
264.86925170068025	265.0550113378685	40	127
264.9621088435374	265.1478911564626	47	127
265.0665986394558	265.2407709750567	88	127
265.0665986394558	265.2407709750567	76	127
265.0665986394558	265.2407709750567	44	127
265.1595011337869	265.32204081632653	47	127
265.2407709750567	265.44975056689344	40	127
265.3336507936508	265.54263038548754	47	127
265.4613605442177	265.62390022675737	75	127
265.4613605442177	265.62390022675737	44	127
265.4613605442177	265.62390022675737	87	127
265.54263038548754	265.74	47	127
265.63551020408164	265.8328798185941	40	127
265.7516099773243	265.9373696145125	47	127
265.8444897959184	266.04185941043085	44	127
265.8444897959184	266.04185941043085	88	127
265.8444897959184	266.04185941043085	76	127
265.9373696145125	266.1579591836735	47	127
266.04185941043085	266.2856689342404	40	127
266.16956916099775	266.3785487528345	47	127
266.2856689342404	266.5178684807256	75	127
266.2856689342404	266.5178684807256	87	127
266.2856689342404	266.5178684807256	44	127
266.39013605442176	266.5178684807256	47	127
266.5178684807256	266.94743764172335	80	127
266.5178684807256	266.94743764172335	76	127
266.5178684807256	266.94743764172335	83	127
266.5178684807256	266.94743764172335	40	127
266.5178684807256	266.94743764172335	44	127
266.5178684807256	266.94743764172335	47	127
266.5178684807256	266.94743764172335	52	127
266.5178684807256	267.58598639455784	88	127
267.58598639455784	267.80657596371884	83	127
267.80657596371884	268.0968253968254	85	127
268.0968253968254	268.2825850340136	86	127
268.2825850340136	269.30426303854875	80	127
269.30426303854875	269.39714285714285	81	127
269.3622902494331	269.44358276643993	80	127
269.4087528344671	269.5016326530612	78	127
269.4551927437642	269.5480725623583	80	127
269.5016326530612	269.71061224489796	81	127
269.71061224489796	269.9079818594104	83	127
269.9079818594104	270.1053514739229	74	127
270.1053514739229	270.2911111111111	76	127
270.2911111111111	270.4884580498866	78	127
270.50009070294783	270.7322902494331	71	127
270.7439002267574	270.9644897959184	73	127
270.97609977324265	271.1502494331066	74	127
271.1502494331066	271.34761904761905	68	127
271.3592290249433	271.53337868480725	69	127
271.5565986394558	271.8236281179138	71	127
271.8236281179138	272.03260770975055	62	127
272.06743764172336	272.2415873015873	64	127
272.2415873015873	272.4157369614513	66	127
272.43895691609976	272.624693877551	59	127
275.28337868480725	276.00319727891156	40	127
275.28337868480725	276.00319727891156	56	127
276.00319727891156	276.1773696145125	40	127
276.00319727891156	276.1773696145125	56	127
276.1773696145125	276.3979591836735	42	127
276.1773696145125	276.3979591836735	57	127
276.3979591836735	276.59532879818596	44	127
276.3979591836735	276.59532879818596	59	127
276.60693877551023	276.7926984126984	33	127
276.60693877551023	276.7926984126984	52	127
276.60693877551023	276.7926984126984	60	127
276.7926984126984	277.0248752834467	60	127
276.7926984126984	277.0248752834467	64	127
276.7926984126984	277.0248752834467	33	127
277.0248752834467	277.24548752834465	60	127
277.0248752834467	277.24548752834465	64	127
277.0248752834467	277.24548752834465	33	127
277.2570975056689	277.4428571428571	60	127
277.2570975056689	277.4428571428571	64	127
277.2570975056689	277.4428571428571	33	127
277.4428571428571	277.60539682539684	62	127
277.4428571428571	277.60539682539684	65	127
277.4428571428571	277.60539682539684	33	127
277.6170068027211	277.8027664399093	33	127
277.6170068027211	277.8027664399093	62	127
277.6170068027211	277.8027664399093	65	127
277.8143764172336	278.0001360544218	62	127
277.8143764172336	278.0001360544218	64	127
277.8143764172336	278.0001360544218	33	127
278.0001360544218	278.16267573696143	64	127
278.0001360544218	278.16267573696143	62	127
278.0001360544218	278.16267573696143	33	127
278.1742857142857	278.406485260771	60	127
278.1742857142857	278.406485260771	64	127
278.1742857142857	278.60385487528345	45	127
278.41809523809525	278.60385487528345	60	127
278.41809523809525	278.60385487528345	69	127
278.60385487528345	278.95215419501136	41	127
278.60385487528345	278.76637188208616	62	127
278.60385487528345	278.76637188208616	69	127
278.7780045351474	278.95215419501136	69	127
278.7780045351474	278.95215419501136	62	127
278.95215419501136	279.335283446712	40	127
278.95215419501136	279.1495238095238	62	127
278.95215419501136	279.1495238095238	67	127
278.95215419501136	279.1495238095238	70	127
279.1611337868481	279.335283446712	62	127
279.1611337868481	279.335283446712	67	127
279.1611337868481	279.335283446712	70	127
279.35850340136057	279.7532426303855	45	127
279.35850340136057	279.5326530612245	61	127
279.35850340136057	279.5326530612245	67	127
279.35850340136057	279.5326530612245	69	127
279.5326530612245	279.7532426303855	61	127
279.5326530612245	279.7532426303855	67	127
279.5326530612245	279.7532426303855	69	127
279.7880498866213	280.05510204081634	62	127
279.7880498866213	280.05510204081634	65	127
279.7880498866213	280.05510204081634	69	127
279.7880498866213	280.05510204081634	38	127
280.0667120181406	280.24086167800453	65	127
280.0667120181406	280.24086167800453	69	127
280.0667120181406	280.24086167800453	38	127
280.2640816326531	280.46145124716554	38	127
280.2640816326531	280.46145124716554	65	127
280.2640816326531	280.46145124716554	69	127
280.4730612244898	280.64721088435374	65	127
280.4730612244898	280.64721088435374	69	127
280.4730612244898	280.64721088435374	38	127
280.64721088435374	280.82136054421767	67	127
280.64721088435374	280.82136054421767	69	127
280.64721088435374	280.82136054421767	38	127
280.83297052154194	280.9839002267574	67	127
280.83297052154194	280.9839002267574	69	127
280.83297052154194	280.9839002267574	38	127
280.99551020408165	281.18126984126985	67	127
280.99551020408165	281.18126984126985	69	127
280.99551020408165	281.18126984126985	38	127
281.18126984126985	281.36702947845805	67	127
281.18126984126985	281.36702947845805	69	127
281.18126984126985	281.36702947845805	38	127
281.3786394557823	281.7965986394558	38	127
281.3786394557823	281.5643990929705	65	127
281.3786394557823	281.5643990929705	69	127
281.5643990929705	281.7965986394558	69	127
281.5643990929705	281.7965986394558	74	127
281.5643990929705	281.7965986394558	66	127
281.80820861678006	281.982358276644	74	127
281.80820861678006	281.982358276644	67	127
281.80820861678006	282.2377551020408	34	127
281.99396825396826	282.2377551020408	67	127
281.99396825396826	282.2377551020408	74	127
282.2377551020408	282.49319727891157	72	127
282.2377551020408	282.49319727891157	75	127
282.2377551020408	282.69056689342403	33	127
282.2377551020408	282.49319727891157	67	127
282.50480725623584	282.69056689342403	67	127
282.50480725623584	282.69056689342403	72	127
282.50480725623584	282.69056689342403	75	127
282.7021768707483	283.1085260770975	38	127
282.7021768707483	282.9343764172336	66	127
282.7021768707483	282.9343764172336	72	127
282.7021768707483	282.9343764172336	74	127
282.9343764172336	283.1085260770975	66	127
282.9343764172336	283.1085260770975	72	127
282.9343764172336	283.1085260770975	74	127
283.1201360544218	283.28267573696144	71	127
283.1201360544218	283.28267573696144	67	127
283.1201360544218	283.28267573696144	74	127
283.1201360544218	283.28267573696144	31	127
283.28267573696144	283.4800453514739	31	127
283.4916553287982	283.6541950113379	31	127
283.66580498866216	283.8747619047619	31	127
283.8747619047619	284.0489342403628	31	127
284.0489342403628	284.188231292517	31	127
284.1998639455782	284.3972335600907	31	127
284.40884353741495	284.6062131519274	31	127
284.6178231292517	285.03578231292516	31	127
284.6178231292517	284.85002267573697	79	127
284.6178231292517	284.85002267573697	67	127
284.85002267573697	285.03578231292516	79	127
284.85002267573697	285.03578231292516	67	127
285.04739229024943	285.30278911564625	79	127
285.04739229024943	285.30278911564625	67	127
285.3143990929705	285.48857142857145	79	127
285.3143990929705	285.48857142857145	67	127
285.48857142857145	285.6627210884354	79	127
285.48857142857145	285.6627210884354	67	127
285.67433106575965	285.9065306122449	67	127
285.67433106575965	285.9065306122449	79	127
285.9065306122449	286.1039002267574	79	127
285.9065306122449	286.1039002267574	67	127
286.11551020408166	286.2548299319728	67	127
286.11551020408166	286.2548299319728	79	127
286.26643990929705	286.6960090702948	79	127
286.26643990929705	286.48702947845806	31	127
286.26643990929705	286.6960090702948	67	127
286.48702947845806	286.6960090702948	31	127
286.70761904761906	286.9630385487528	31	127
286.9746485260771	287.1952380952381	31	127
287.1952380952381	287.4158276643991	31	127
287.4274376417234	287.6015873015873	31	127
287.6015873015873	287.77573696145123	31	127
287.7873469387755	287.9614739229025	31	127
287.97308390022675	288.1472562358277	67	127
287.97308390022675	288.1472562358277	79	127
287.97308390022675	288.3330158730159	31	127
288.1472562358277	288.3330158730159	79	127
288.1472562358277	288.3330158730159	67	127
288.3562358276644	288.5419954648526	79	127
288.3562358276644	288.5419954648526	67	127
288.5536054421769	288.7393650793651	67	127
288.5536054421769	288.7393650793651	79	127
288.75097505668936	288.913514739229	67	127
288.75097505668936	288.913514739229	79	127
288.9251247165533	289.13410430839	79	127
288.9251247165533	289.13410430839	67	127
289.13410430839	289.3198639455782	79	127
289.13410430839	289.3198639455782	67	127
289.3314739229025	289.5520634920635	67	127
289.3314739229025	289.5520634920635	79	127
289.56367346938777	289.93519274376416	79	127
289.56367346938777	289.74943310657596	31	127
289.56367346938777	289.93519274376416	67	127
289.74943310657596	289.93519274376416	31	127
289.94680272108843	290.13256235827663	31	127
290.13256235827663	290.3299319727891	31	127
290.34154195011337	290.5272789115646	79	127
290.34154195011337	290.5272789115646	67	127
290.53891156462583	290.7246485260771	67	127
290.53891156462583	290.7246485260771	79	127
290.7246485260771	290.92204081632656	67	127
290.7246485260771	290.92204081632656	79	127
290.9336281179138	291.10780045351476	79	127
290.9336281179138	291.10780045351476	67	127
291.119410430839	291.3051700680272	31	127
291.3051700680272	291.4909297052154	31	127
291.51414965986396	291.73473922902497	31	127
291.73473922902497	291.93210884353743	31	127
291.9437188208617	292.10625850340136	67	127
291.9437188208617	292.10625850340136	79	127
292.11786848072563	292.3152380952381	79	127
292.11786848072563	292.3152380952381	67	127
292.3152380952381	292.48938775510203	79	127
292.3152380952381	292.48938775510203	67	127
292.51260770975057	292.69836734693877	67	127
292.51260770975057	292.69836734693877	79	127
292.70997732426304	292.9073469387755	31	127
292.70997732426304	292.9073469387755	43	127
292.9189569160998	293.0698866213152	43	127
292.9189569160998	293.0698866213152	31	127
293.0814739229025	293.29047619047617	79	127
293.0814739229025	293.29047619047617	67	127
293.29047619047617	293.4878231292517	67	127
293.29047619047617	293.4878231292517	79	127
293.4994557823129	293.65038548752835	55	127
293.4994557823129	293.65038548752835	43	127
293.6619954648526	293.88258503401363	43	127
293.6619954648526	293.88258503401363	55	127
293.88258503401363	294.0799546485261	79	127
293.88258503401363	294.0799546485261	67	127
294.09156462585037	294.27732426303857	79	127
294.09156462585037	294.27732426303857	67	127
294.27732426303857	294.46308390022676	53	127
294.27732426303857	294.46308390022676	41	127
294.47469387755103	294.66045351473923	53	127
294.47469387755103	294.66045351473923	41	127
294.69528344671204	294.88104308390024	81	127
294.69528344671204	294.88104308390024	69	127
294.69528344671204	294.88104308390024	77	127
294.88104308390024	295.06680272108844	77	127
294.88104308390024	295.06680272108844	69	127
294.88104308390024	295.06680272108844	81	127
295.0784126984127	295.25256235827663	50	127
295.0784126984127	295.25256235827663	38	127
295.2641723356009	295.4847619047619	38	127
295.2641723356009	295.4847619047619	50	127
295.4963718820862	295.65891156462584	77	127
295.4963718820862	295.65891156462584	83	127
295.4963718820862	295.65891156462584	71	127
295.4963718820862	295.65891156462584	79	127
295.6705215419501	295.8562811791383	77	127
295.6705215419501	295.8562811791383	79	127
295.6705215419501	295.8562811791383	71	127
295.6705215419501	295.8562811791383	83	127
295.8562811791383	295.97238095238095	48	127
295.8562811791383	295.97238095238095	36	127
295.8562811791383	296.06526077097504	72	127
295.8562811791383	296.06526077097504	76	127
295.8562811791383	296.06526077097504	79	127
295.8562811791383	296.06526077097504	84	127
295.9839909297052	296.06526077097504	50	127
296.0768707482993	296.22780045351476	64	127
296.0768707482993	296.22780045351476	67	127
296.0768707482993	296.14650793650793	52	127
296.14650793650793	296.22780045351476	53	127
296.23941043083903	296.41356009070296	64	127
296.23941043083903	296.41356009070296	67	127
296.23941043083903	296.32068027210886	55	127
296.33229024943313	296.41356009070296	57	127
296.41356009070296	296.59931972789116	67	127
296.41356009070296	296.59931972789116	64	127
296.41356009070296	296.4948299319728	59	127
296.50643990929706	296.59931972789116	60	127
296.6109297052154	296.78507936507935	65	127
296.6109297052154	296.7038095238095	59	127
296.6109297052154	296.78507936507935	62	127
296.6109297052154	296.78507936507935	67	127
296.7038095238095	296.78507936507935	60	127
296.7966893424036	296.97083900226755	62	127
296.7966893424036	296.87795918367345	59	127
296.7966893424036	296.97083900226755	65	127
296.7966893424036	296.97083900226755	67	127
296.8895691609977	296.97083900226755	57	127
296.9824489795918	297.1681859410431	67	127
296.9824489795918	297.05210884353744	55	127
296.9824489795918	297.1681859410431	59	127
296.9824489795918	297.1681859410431	62	127
297.05210884353744	297.1681859410431	53	127
297.1798185941043	297.42362811791384	67	127
297.1798185941043	297.3075283446712	52	127
297.1798185941043	297.42362811791384	59	127
297.1798185941043	297.42362811791384	62	127
297.31913832199547	297.42362811791384	50	127
297.42362811791384	297.59777777777776	67	127
297.42362811791384	297.59777777777776	64	127
297.42362811791384	297.59777777777776	60	127
297.42362811791384	297.77192743764175	48	127
297.60938775510203	297.77192743764175	60	127
297.60938775510203	297.77192743764175	67	127
297.60938775510203	297.77192743764175	64	127
297.783514739229	297.9925170068027	67	127
297.783514739229	297.9925170068027	60	127
297.783514739229	297.9925170068027	64	127
297.9925170068027	298.17827664399096	64	127
297.9925170068027	298.17827664399096	60	127
297.9925170068027	298.17827664399096	67	127
298.1898639455782	298.39884353741496	65	127
298.1898639455782	298.39884353741496	62	127
298.1898639455782	298.39884353741496	67	127
298.39884353741496	298.60784580498864	65	127
298.39884353741496	298.60784580498864	62	127
298.39884353741496	298.60784580498864	67	127
298.6194557823129	298.7936054421769	67	127
298.6194557823129	298.7936054421769	59	127
298.6194557823129	298.7936054421769	62	127
298.80519274376417	299.0258049886621	67	127
298.80519274376417	299.0258049886621	59	127
298.80519274376417	299.0258049886621	62	127
299.0258049886621	299.1999546485261	67	127
299.0258049886621	299.107052154195	48	127
299.0258049886621	299.1999546485261	60	127
299.0258049886621	299.1999546485261	64	127
299.1186848072562	299.1999546485261	50	127
299.21154195011337	299.40893424036284	64	127
299.21154195011337	299.40893424036284	67	127
299.21154195011337	299.3392743764172	52	127
299.3392743764172	299.40893424036284	53	127
299.4205215419501	299.6295238095238	67	127
299.4205215419501	299.50181405895694	55	127
299.4205215419501	299.6295238095238	64	127
299.5134013605442	299.6295238095238	57	127
299.6295238095238	299.8268707482993	64	127
299.6295238095238	299.8268707482993	67	127
299.6295238095238	299.73401360544216	59	127
299.73401360544216	299.8268707482993	60	127
299.8385034013605	300.0242403628118	62	127
299.8385034013605	300.0242403628118	67	127
299.8385034013605	299.9197732426304	59	127
299.8385034013605	300.0242403628118	65	127
299.9313605442177	300.0242403628118	60	127
300.0242403628118	300.1055328798186	59	127
300.0242403628118	300.1984126984127	67	127
300.0242403628118	300.1984126984127	62	127
300.0242403628118	300.1984126984127	65	127
300.1171428571429	300.1984126984127	57	127
300.1984126984127	300.37256235827664	67	127
300.1984126984127	300.26807256235827	55	127
300.1984126984127	300.37256235827664	59	127
300.1984126984127	300.37256235827664	62	127
300.26807256235827	300.37256235827664	53	127
300.3841723356009	300.55832199546484	62	127
300.3841723356009	300.55832199546484	67	127
300.3841723356009	300.46544217687074	52	127
300.3841723356009	300.55832199546484	59	127
300.477052154195	300.55832199546484	50	127
300.55832199546484	300.7324716553288	64	127
300.55832199546484	300.7324716553288	60	127
300.55832199546484	300.7324716553288	67	127
300.55832199546484	300.90662131519275	48	127
300.7440589569161	300.90662131519275	67	127
300.7440589569161	300.90662131519275	64	127
300.7440589569161	300.90662131519275	60	127
300.918231292517	301.09238095238095	67	127
300.918231292517	301.09238095238095	60	127
300.918231292517	301.09238095238095	64	127
301.1039909297052	301.2665306122449	64	127
301.1039909297052	301.2665306122449	60	127
301.1039909297052	301.2665306122449	67	127
301.27814058956915	301.45229024943313	64	127
301.27814058956915	301.45229024943313	60	127
301.27814058956915	301.45229024943313	70	127
301.45229024943313	301.63804988662133	64	127
301.45229024943313	301.63804988662133	60	127
301.45229024943313	301.63804988662133	70	127
301.6496598639456	301.82380952380953	64	127
301.6496598639456	301.82380952380953	60	127
301.6496598639456	301.82380952380953	70	127
301.8354195011338	302.03278911564627	70	127
301.8354195011338	302.03278911564627	60	127
301.8354195011338	302.03278911564627	64	127
302.03278911564627	302.45074829931974	60	127
302.03278911564627	302.45074829931974	65	127
302.03278911564627	302.12566893424037	41	127
302.03278911564627	302.45074829931974	69	127
302.13727891156464	302.241768707483	44	127
302.2533786848073	302.3346485260771	45	127
302.3346485260771	302.45074829931974	46	127
302.45074829931974	302.57845804988665	48	127
302.5900453514739	302.67133786848075	50	127
302.6945351473923	302.7874149659864	52	127
302.7874149659864	302.8687074829932	53	127
302.8803174603175	302.9731972789116	52	127
302.98480725623585	303.1008843537415	53	127
303.1008843537415	303.1821768707483	52	127
303.1937641723356	303.2750566893424	50	127
303.2866666666667	303.3679365079365	48	127
303.3679365079365	303.4608163265306	46	127
303.4724263038549	303.57691609977326	45	127
303.5885260770975	303.70460317460316	44	127
303.70460317460316	304.26190476190476	89	127
303.70460317460316	304.08775510204083	41	127
303.70460317460316	304.26190476190476	77	127
304.27351473922903	304.4708843537415	89	127
304.27351473922903	304.4708843537415	77	127
304.48249433106577	304.66825396825396	76	127
304.48249433106577	304.66825396825396	88	127
304.66825396825396	304.8424036281179	74	127
304.66825396825396	304.8424036281179	86	127
304.85401360544216	305.02816326530615	84	127
304.85401360544216	305.02816326530615	72	127
305.0397505668934	305.2371428571429	82	127
305.0397505668934	305.2371428571429	70	127
305.24873015873015	305.330022675737	41	127
305.24873015873015	305.6086621315193	69	127
305.24873015873015	305.6086621315193	81	127
305.330022675737	305.4229024943311	44	127
305.43451247165535	305.5157823129252	45	127
305.52739229024945	305.6086621315193	46	127
305.6086621315193	305.7015419501134	48	127
305.71315192743765	305.7944217687075	50	127
305.80603174603175	305.8873015873016	52	127
305.8873015873016	305.9685714285714	54	127
305.9801814058957	306.53746031746033	70	127
305.9801814058957	306.0150113378685	55	127
305.9801814058957	306.53746031746033	82	127
306.0730612244898	306.15433106575966	53	127
306.15433106575966	306.2239909297052	52	127
306.2356009070295	306.3168707482993	50	127
306.3284807256236	306.4097505668934	48	127
306.4097505668934	306.53746031746033	46	127
306.53746031746033	306.63034013605443	45	127
306.53746031746033	306.7348299319728	82	127
306.53746031746033	306.7348299319728	70	127
306.6419501133787	306.7348299319728	44	127
306.74643990929707	306.920589569161	69	127
306.74643990929707	306.8277097505669	45	127
306.74643990929707	306.920589569161	81	127
306.8277097505669	306.920589569161	47	127
306.93219954648526	307.21083900226756	67	127
306.93219954648526	307.0947392290249	48	127
306.93219954648526	307.21083900226756	79	127
307.1063492063492	307.21083900226756	50	127
307.21083900226756	307.3965759637188	77	127
307.21083900226756	307.3965759637188	65	127
307.21083900226756	307.29208616780045	52	127
307.30371882086166	307.3965759637188	53	127
307.40820861678003	307.57074829931975	76	127
307.40820861678003	307.4894557823129	55	127
307.40820861678003	307.57074829931975	64	127
307.4894557823129	307.57074829931975	57	127
307.582358276644	307.66362811791385	47	127
307.582358276644	308.1860770975057	74	127
307.582358276644	308.1860770975057	62	127
307.6752380952381	307.75650793650794	48	127
307.75650793650794	307.84938775510204	50	127
307.84938775510204	307.9538775510204	52	127
307.9654875283447	308.06997732426305	53	127
308.0815873015873	308.1860770975057	55	127
308.1860770975057	308.3602267573696	86	127
308.1860770975057	308.2673469387755	57	127
308.1860770975057	308.3602267573696	74	127
308.2789569160998	308.3602267573696	59	127
308.3718367346939	308.4531065759637	48	127
308.3718367346939	308.53437641723355	84	127
308.3718367346939	308.53437641723355	72	127
308.4531065759637	308.53437641723355	50	127
308.5459863945578	308.62725623582764	52	127
308.5459863945578	308.70852607709753	83	127
308.5459863945578	308.70852607709753	71	127
308.6388662131519	308.70852607709753	53	127
308.70852607709753	308.88267573696146	81	127
308.70852607709753	308.78979591836736	55	127
308.70852607709753	308.88267573696146	69	127
308.80140589569163	308.88267573696146	57	127
308.89428571428573	308.9987755102041	59	127
308.89428571428573	309.0800453514739	79	127
308.89428571428573	309.0800453514739	67	127
308.9987755102041	309.0800453514739	60	127
309.0916553287982	309.7302040816327	77	127
309.0916553287982	309.7302040816327	65	127
309.0916553287982	309.2193650793651	50	127
309.2309523809524	309.33544217687074	52	127
309.34707482993196	309.4631746031746	53	127
309.4631746031746	309.5444217687075	55	127
309.5560544217687	309.6373015873016	57	127
309.6489342403628	309.7302040816327	59	127
309.7302040816327	309.9159637188209	77	127
309.7302040816327	309.79986394557824	60	127
309.7302040816327	309.9159637188209	89	127
309.8230839002268	309.9159637188209	62	127
309.92757369614515	310.1017233560091	76	127
309.92757369614515	310.02045351473924	52	127
309.92757369614515	310.1017233560091	88	127
310.02045351473924	310.1017233560091	53	127
310.11333333333334	310.3223129251701	74	127
310.11333333333334	310.3223129251701	86	127
310.11333333333334	310.2178231292517	55	127
310.24104308390025	310.3223129251701	57	127
310.3223129251701	310.4035827664399	59	127
310.3223129251701	310.496462585034	84	127
310.3223129251701	310.496462585034	72	127
310.4151927437642	310.496462585034	60	127
310.51968253968255	310.6938321995465	71	127
310.51968253968255	310.6009523809524	62	127
310.51968253968255	310.6938321995465	83	127
310.6009523809524	310.6938321995465	64	127
310.6938321995465	310.7751020408163	53	127
310.6938321995465	310.89120181405895	69	127
310.6938321995465	310.89120181405895	81	127
310.8099319727891	310.89120181405895	55	127
310.9028117913832	311.0769387755102	81	127
310.9028117913832	310.98408163265304	57	127
310.9028117913832	311.0769387755102	93	127
310.98408163265304	311.0769387755102	59	127
311.0885714285714	311.3091609977324	79	127
311.0885714285714	311.3091609977324	91	127
311.0885714285714	311.2162811791383	60	127
311.2278911564626	311.3091609977324	62	127
311.3091609977324	311.4949206349206	89	127
311.3091609977324	311.39043083900225	64	127
311.3091609977324	311.4949206349206	77	127
311.4020408163265	311.4949206349206	65	127
311.5065306122449	311.6922902494331	76	127
311.5065306122449	311.61102040816326	55	127
311.5065306122449	311.6922902494331	88	127
311.61102040816326	311.6922902494331	57	127
311.70390022675736	311.773560090703	59	127
311.70390022675736	311.86643990929707	74	127
311.70390022675736	311.86643990929707	86	127
311.78514739229024	311.86643990929707	60	127
311.86643990929707	312.05219954648527	84	127
311.86643990929707	312.05219954648527	72	127
311.86643990929707	311.97092970521544	62	127
311.97092970521544	312.05219954648527	64	127
312.06380952380954	312.14507936507937	65	127
312.06380952380954	312.24956916099774	71	127
312.06380952380954	312.24956916099774	83	127
312.15668934240364	312.24956916099774	67	127
312.24956916099774	312.4469387755102	69	127
312.24956916099774	312.34244897959184	57	127
312.24956916099774	312.4469387755102	81	127
312.3540589569161	312.4469387755102	59	127
312.481768707483	312.65591836734694	79	127
312.481768707483	312.56303854875284	60	127
312.56303854875284	312.65591836734694	62	127
312.69074829931975	312.87650793650795	77	127
312.69074829931975	312.78362811791385	64	127
312.7952380952381	312.87650793650795	65	127
312.87650793650795	313.0506575963719	76	127
312.87650793650795	312.9577777777778	67	127
312.96938775510205	313.0506575963719	69	127
313.06226757369615	313.43378684807254	62	127
313.06226757369615	313.43378684807254	59	127
313.06226757369615	313.43378684807254	74	127
314.5831746031746	314.96630385487526	64	127
314.5831746031746	314.96630385487526	60	127
314.5831746031746	314.96630385487526	67	127
314.5831746031746	314.96630385487526	72	127
314.5831746031746	314.96630385487526	76	127
314.5831746031746	314.96630385487526	55	127
316.1273015873016	316.5336507936508	74	127
316.1273015873016	316.5336507936508	57	127
316.1273015873016	316.5336507936508	77	127
316.1273015873016	316.5336507936508	53	127
316.1273015873016	316.5336507936508	62	127
316.1273015873016	316.5336507936508	69	127
317.71784580498866	318.1358276643991	55	127
317.71784580498866	318.1358276643991	59	127
317.71784580498866	318.1358276643991	65	127
317.71784580498866	318.1358276643991	71	127
317.71784580498866	318.1358276643991	74	127
317.71784580498866	318.1358276643991	62	127
319.3316553287982	319.7147845804989	63	127
319.3316553287982	319.7147845804989	51	127
319.72639455782314	320.19079365079364	60	127
319.72639455782314	320.19079365079364	48	127
320.2024036281179	320.6087528344671	59	127
320.2024036281179	320.6087528344671	47	127
320.6783900226757	321.00349206349205	50	127
320.6783900226757	321.00349206349205	62	127
321.00349206349205	321.38662131519277	51	127
321.00349206349205	321.38662131519277	63	127
321.39820861678004	321.85102040816327	48	127
321.39820861678004	321.85102040816327	60	127
321.86263038548753	322.22253968253966	49	127
321.86263038548753	322.22253968253966	61	127
322.23414965986393	322.6056689342404	52	127
322.23414965986393	322.6056689342404	64	127
322.6056689342404	323.0352154195011	65	127
322.6056689342404	323.0352154195011	53	127
323.0584580498866	323.44156462585033	62	127
323.0584580498866	323.44156462585033	50	127
323.45319727891155	323.9175963718821	51	127
323.45319727891155	323.9175963718821	63	127
323.92920634920637	324.40521541950113	66	127
323.92920634920637	324.40521541950113	54	127
324.40521541950113	324.7651247165533	67	127
324.40521541950113	324.7651247165533	55	127
324.7651247165533	325.12503401360544	52	127
324.7651247165533	325.12503401360544	64	127
325.12503401360544	325.49655328798184	65	127
325.12503401360544	325.49655328798184	53	127
325.5081632653061	325.9145124716553	68	127
325.5081632653061	325.9145124716553	56	127
325.9145124716553	326.4485714285714	69	127
325.9145124716553	326.4485714285714	57	127
326.4485714285714	326.85492063492063	66	127
326.4485714285714	326.85492063492063	54	127
326.8665306122449	327.2380498866213	69	127
326.8665306122449	327.2380498866213	57	127
327.24965986394557	327.6792290249433	65	127
327.24965986394557	327.6792290249433	53	127
327.6792290249433	328.0971882086168	57	127
327.6792290249433	328.0971882086168	69	127
328.0971882086168	328.5383673469388	52	127
328.0971882086168	328.5383673469388	64	127
328.54995464852607	328.991156462585	69	127
328.54995464852607	328.991156462585	57	127
329.0027664399093	329.43233560090704	51	127
329.0027664399093	329.6297052154195	63	127
329.43233560090704	329.8154648526077	57	127
329.6297052154195	330.0360544217687	69	127
329.827074829932	330.268253968254	52	127
330.047664399093	330.4540136054422	64	127
330.27986394557826	330.68621315192746	57	127
330.46562358276645	330.8951927437642	69	127
330.69780045351473	331.0693424036281	53	127
330.90678004535147	331.27832199546486	65	127
331.0809523809524	331.5221088435374	57	127
331.28993197278913	331.7311111111111	69	127
331.5337414965986	331.9400907029478	52	127
331.74272108843536	332.1722902494331	64	127
331.96331065759637	332.41609977324265	57	127
332.1839002267574	332.6831292517007	69	127
332.4277097505669	333.04303854875286	51	127
332.72956916099776	333.04303854875286	63	127
333.05462585034013	334.5639455782313	52	127
333.05462585034013	333.28684807256235	57	127
333.182358276644	333.37972789115645	61	127
333.182358276644	333.37972789115645	64	127
333.2984580498866	333.47260770975055	69	127
333.3913378684807	333.5654648526077	64	127
333.3913378684807	333.5654648526077	61	127
333.4842176870748	333.64675736961453	57	127
333.5654648526077	333.72802721088436	61	127
333.5654648526077	333.72802721088436	64	127
333.64675736961453	333.82090702947846	69	127
333.73963718820863	333.92539682539683	61	127
333.73963718820863	333.92539682539683	64	127
333.83251700680273	334.00666666666666	59	127
333.92539682539683	334.09954648526076	62	127
333.92539682539683	334.09954648526076	64	127
334.01827664399093	334.18079365079365	68	127
334.11115646258503	334.18079365079365	62	127
334.11115646258503	334.285283446712	64	127
334.18079365079365	334.36657596371884	62	127
334.285283446712	334.45945578231294	68	127
334.3781632653061	334.5639455782313	64	127
334.4710657596372	334.5639455782313	62	127
334.5639455782313	336.2473922902494	45	127
334.5639455782313	334.77292517006805	61	127
334.6684353741497	334.9006349206349	64	127
334.8077551020408	334.9819047619048	69	127
334.9006349206349	335.08639455782316	64	127
334.99349206349206	335.21410430839	61	127
335.0979818594104	335.3534240362812	64	127
335.21410430839	335.45791383219955	68	127
335.3766439909297	335.55079365079365	64	127
335.4695238095238	335.655283446712	61	127
335.55079365079365	335.73655328798185	64	127
335.655283446712	335.82943310657595	69	127
335.7481632653061	335.92231292517005	64	127
335.8410430839002	335.99197278911566	61	127
335.92231292517005	336.08485260770976	64	127
336.00358276643993	336.2473922902494	67	127
336.09646258503403	336.2473922902494	64	127
336.2473922902494	336.46798185941043	57	127
336.2473922902494	337.9308390022676	38	127
336.2473922902494	337.9308390022676	50	127
336.3867120181406	336.6073015873016	62	127
336.4795918367347	336.7001814058957	66	127
336.6073015873016	336.8278911564626	62	127
336.71179138322	336.94396825396825	58	127
336.8511111111111	337.0252607709751	62	127
336.94396825396825	337.1181405895692	66	127
337.03684807256235	337.22263038548755	62	127
337.12975056689345	337.3271201814059	59	127
337.22263038548755	337.40839002267575	62	127
337.3271201814059	337.55931972789114	66	127
337.42	337.6521768707483	62	127
337.5709297052154	337.7334693877551	59	127
337.6521768707483	337.8379591836735	62	127
337.75666666666666	337.9308390022676	66	127
337.84956916099776	338.0469387755102	62	127
337.9308390022676	338.1398185941043	59	127
337.9308390022676	339.5678458049887	52	127
337.9308390022676	339.5678458049887	40	127
338.0585260770975	338.2326984126984	62	127
338.1514285714286	338.31396825396826	64	127
338.2326984126984	338.4184580498866	62	127
338.3371882086168	338.522947845805	59	127
338.4300680272109	338.6158276643991	62	127
338.522947845805	338.72031746031746	64	127
338.6158276643991	338.8364172335601	62	127
338.743537414966	338.964126984127	56	127
338.84802721088437	339.0570068027211	62	127
338.964126984127	339.12666666666667	64	127
339.0686167800454	339.2427664399093	62	127
339.13827664399093	339.35886621315194	59	127
339.2427664399093	339.4633560090703	62	127
339.3704761904762	339.5678458049887	64	127
339.4749659863946	339.5678458049887	62	127
339.5678458049887	339.8348752834467	57	127
339.5678458049887	339.8348752834467	33	127
339.6955328798186	339.9277551020408	61	127
339.846485260771	339.9974149659864	64	127
339.846485260771	339.9974149659864	33	127
339.9277551020408	340.11349206349206	61	127
340.0090022675737	340.22961451247164	33	127
340.0090022675737	340.22961451247164	57	127
340.1251247165533	340.32249433106574	61	127
340.2412244897959	340.4037641723356	33	127
340.2412244897959	340.4037641723356	64	127
340.32249433106574	340.51984126984127	61	127
340.4269841269841	340.61272108843536	59	127
340.4269841269841	340.61272108843536	33	127
340.5314739229025	340.72884353741495	62	127
340.61272108843536	340.8449433106576	33	127
340.61272108843536	340.8449433106576	64	127
340.76367346938775	340.99587301587303	62	127
340.85655328798185	341.07714285714286	33	127
340.85655328798185	341.07714285714286	56	127
340.99587301587303	341.1932426303855	62	127
341.08875283446713	341.2861224489796	33	127
341.08875283446713	341.2861224489796	64	127
341.20485260770977	341.3673922902494	62	127
341.2861224489796	341.4602721088435	57	127
341.2861224489796	341.4602721088435	33	127
341.3790022675737	341.57637188208616	61	127
341.4718820861678	341.68086167800453	64	127
341.4718820861678	341.68086167800453	33	127
341.57637188208616	341.76213151927436	61	127
341.68086167800453	341.878231292517	57	127
341.68086167800453	341.878231292517	33	127
341.77374149659863	341.98272108843537	61	127
341.88984126984127	342.0639909297052	33	127
341.88984126984127	342.0639909297052	64	127
341.98272108843537	342.15684807256235	61	127
342.07560090702947	342.26136054421767	57	127
342.07560090702947	342.26136054421767	33	127
342.16848072562357	342.4122902494331	61	127
342.26136054421767	342.5051700680272	33	127
342.26136054421767	342.5051700680272	64	127
342.4239002267574	342.6096598639456	61	127
342.5167800453515	342.6909297052154	31	127
342.5167800453515	342.6909297052154	57	127
342.6096598639456	342.7838095238095	61	127
342.7025396825397	342.8766893424036	31	127
342.7025396825397	342.8766893424036	64	127
342.7954195011338	342.981179138322	61	127
342.8766893424036	343.06244897959186	30	127
342.8766893424036	343.06244897959186	57	127
342.981179138322	343.16693877551023	62	127
343.08566893424035	343.25981859410433	66	127
343.08566893424035	343.25981859410433	30	127
343.1785260770975	343.34108843537416	62	127
343.25981859410433	343.44557823129253	38	127
343.25981859410433	343.44557823129253	59	127
343.35269841269843	343.5500680272109	62	127
343.4571882086168	343.65455782312927	38	127
343.4571882086168	343.65455782312927	66	127
343.5500680272109	343.8170975056689	62	127
343.66616780045354	343.9215873015873	56	127
343.66616780045354	343.9215873015873	40	127
343.8287074829932	344.0028571428571	62	127
343.9215873015873	344.0957142857143	40	127
343.9215873015873	344.0957142857143	64	127
344.0144671201814	344.21183673469386	62	127
344.11895691609976	344.3279365079365	40	127
344.11895691609976	344.3279365079365	56	127
344.21183673469386	344.43242630385487	62	127
344.33954648526077	344.52530612244897	64	127
344.33954648526077	344.52530612244897	40	127
344.44403628117914	344.52530612244897	62	127
344.53691609977324	344.7342857142857	33	127
344.53691609977324	344.7342857142857	57	127
344.53691609977324	344.7342857142857	61	127
344.53691609977324	344.7342857142857	64	127
344.74589569161	344.94326530612244	73	127
344.8619954648526	345.03614512471654	76	127
344.94326530612244	345.1406349206349	74	127
345.0477551020408	345.2451247165533	78	127
345.1522448979592	345.3147619047619	76	127
345.2451247165533	345.4308843537415	80	127
345.32637188208616	345.52374149659863	78	127
345.44249433106575	345.60503401360546	81	127
345.52374149659863	345.73272108843537	80	127
345.61664399092973	345.94172335600905	83	127
345.75596371882085	346.0462131519274	81	127
345.9533333333333	346.1274829931973	85	127
346.0578231292517	346.2203628117914	83	127
346.1274829931973	346.2203628117914	86	127
346.24356009070294	346.61510204081634	85	127
346.24356009070294	346.42934240362814	52	127
346.33646258503404	346.52222222222224	61	127
346.4409297052154	346.61510204081634	57	127
346.5338321995465	346.70798185941044	61	127
346.61510204081634	346.8124716553288	64	127
346.61510204081634	346.97501133786847	81	127
346.7195918367347	346.89374149659864	61	127
346.8240816326531	346.97501133786847	57	127
346.89374149659864	347.07950113378683	61	127
346.98662131519274	347.1839909297052	52	127
346.98662131519274	347.36972789115646	80	127
347.0911111111111	347.2884807256236	62	127
347.1839909297052	347.36972789115646	59	127
347.2884807256236	347.48585034013604	62	127
347.39297052154194	347.7877097505669	83	127
347.39297052154194	347.61356009070295	52	127
347.5090702947846	347.6948299319728	62	127
347.61356009070295	347.7877097505669	56	127
347.70643990929705	347.7877097505669	62	127
347.79931972789115	348.93709750566893	81	127
347.79931972789115	347.97344671201813	52	127
347.89219954648524	348.06634920634923	61	127
347.9850566893424	348.15922902494333	57	127
348.0779365079365	348.2637188208617	61	127
348.15922902494333	348.36820861678007	64	127
348.27532879818597	348.4494784580499	61	127
348.37981859410434	348.5307482993197	57	127
348.4494784580499	348.65845804988663	61	127
348.542358276644	348.762947845805	52	127
348.6700680272109	348.84421768707483	61	127
348.762947845805	348.93709750566893	57	127
348.84421768707483	349.02997732426303	61	127
348.9487074829932	349.11124716553286	83	127
348.9487074829932	349.11124716553286	52	127
349.0415873015873	349.19251700680275	61	127
349.11124716553286	349.28539682539684	55	127
349.11124716553286	349.28539682539684	85	127
349.20410430839	349.28539682539684	61	127
349.2970068027211	349.47115646258504	88	127
349.2970068027211	349.47115646258504	54	127
349.3898866213152	349.5756462585034	62	127
349.4827664399093	349.69174603174605	86	127
349.4827664399093	349.69174603174605	57	127
349.5872562358277	349.7730158730159	62	127
349.69174603174605	349.8542857142857	85	127
349.69174603174605	349.8542857142857	54	127
349.7730158730159	349.9819954648526	62	127
349.87750566893425	350.086485260771	86	127
349.87750566893425	350.086485260771	58	127
349.9819954648526	350.1677551020408	62	127
350.086485260771	350.2606349206349	85	127
350.086485260771	350.2606349206349	54	127
350.1793650793651	350.353514739229	62	127
350.2722448979592	350.4347619047619	83	127
350.2722448979592	350.4347619047619	59	127
350.353514739229	350.53925170068027	62	127
350.4580045351474	350.63213151927437	82	127
350.4580045351474	350.63213151927437	54	127
350.5508843537415	350.72503401360547	62	127
350.63213151927437	350.82952380952383	59	127
350.63213151927437	350.82952380952383	83	127
350.73662131519274	350.82952380952383	62	127
350.8411111111111	351.05009070294784	81	127
350.8411111111111	351.05009070294784	56	127
350.9456009070295	351.1545804988662	62	127
351.06172335600905	351.2474603174603	80	127
351.06172335600905	351.2474603174603	59	127
351.1662131519274	351.41002267573697	62	127
351.2474603174603	351.50290249433107	78	127
351.2474603174603	351.50290249433107	56	127
351.41002267573697	351.59578231292517	62	127
351.51451247165534	351.68866213151927	80	127
351.51451247165534	351.68866213151927	59	127
351.60739229024944	351.7699319727891	62	127
351.68866213151927	352.0369614512472	76	127
351.68866213151927	351.88603174603173	56	127
351.78154195011336	351.9672789115646	62	127
351.897641723356	352.0369614512472	59	127
351.9672789115646	352.1298412698413	62	127
352.04857142857145	352.1298412698413	78	127
352.04857142857145	352.23433106575965	52	127
352.14145124716555	352.3156009070295	62	127
352.14145124716555	352.23433106575965	80	127
352.23433106575965	352.4433106575964	59	127
352.23433106575965	352.3156009070295	81	127
352.36204081632656	352.4433106575964	83	127
352.36204081632656	352.5361904761905	62	127
352.45492063492065	352.60585034013604	52	127
352.45492063492065	352.8032199546485	85	127
352.5361904761905	352.69873015873014	61	127
352.6174603174603	352.8032199546485	57	127
352.7103401360544	352.9425396825397	61	127
352.8148299319728	353.2443990929705	81	127
352.8148299319728	353.0354195011338	64	127
352.9425396825397	353.1282993197279	61	127
353.04702947845806	353.2443990929705	57	127
353.13990929705216	353.32566893424035	61	127
353.2443990929705	353.6159183673469	80	127
353.2443990929705	353.4301587301587	52	127
353.3372789115646	353.5230385487528	62	127
353.441768707483	353.6159183673469	59	127
353.5230385487528	353.73201814058956	62	127
353.6275283446712	354.0687074829932	83	127
353.6275283446712	353.82489795918366	52	127
353.74362811791383	353.9409977324263	62	127
353.82489795918366	354.0687074829932	56	127
353.95260770975057	354.0687074829932	62	127
354.0803174603175	355.21809523809526	81	127
354.0803174603175	354.2892970521542	57	127
354.18480725623584	354.35895691609977	64	127
354.2892970521542	354.4750566893424	61	127
354.37056689342404	354.59115646258505	64	127
354.4866666666667	354.6724263038549	56	127
354.59115646258505	354.765306122449	64	127
354.68403628117915	354.8581859410431	61	127
354.77691609977325	354.9394557823129	64	127
354.8581859410431	355.05555555555554	57	127
354.9510657596372	355.14843537414964	64	127
355.0671655328798	355.21809523809526	61	127
355.14843537414964	355.34578231292517	64	127
355.22970521541953	355.46190476190475	55	127
355.22970521541953	355.46190476190475	83	127
355.3574149659864	355.5780045351474	64	127
355.46190476190475	355.6592743764172	57	127
355.46190476190475	355.6592743764172	85	127
355.5780045351474	355.6592743764172	64	127
355.6708843537415	355.85662131519274	54	127
355.6708843537415	355.85662131519274	88	127
355.7637641723356	355.94950113378684	62	127
355.85662131519274	356.0539909297052	86	127
355.85662131519274	356.0539909297052	57	127
355.96113378684805	356.1584807256236	62	127
356.0656235827664	356.2513832199547	50	127
356.0656235827664	356.2513832199547	85	127
356.1584807256236	356.35587301587304	59	127
356.26297052154194	356.4835827664399	54	127
356.26297052154194	356.4835827664399	86	127
356.3674603174603	356.576462585034	59	127
356.4835827664399	356.66931972789115	52	127
356.4835827664399	356.66931972789115	85	127
356.58807256235826	356.78544217687073	59	127
356.68095238095236	356.8667120181406	56	127
356.68095238095236	356.8667120181406	83	127
356.78544217687073	356.9595918367347	59	127
356.8782993197279	357.07566893424035	82	127
356.8782993197279	357.07566893424035	52	127
356.971179138322	357.1801587301587	62	127
357.09891156462584	357.26145124716555	56	127
357.09891156462584	357.26145124716555	83	127
357.1801587301587	357.26145124716555	62	127
357.2730612244898	357.44721088435375	45	127
357.2730612244898	357.44721088435375	81	127
357.44721088435375	357.50526077097504	93	127
357.44721088435375	357.59814058956914	57	127
357.44721088435375	357.59814058956914	45	127
357.44721088435375	357.59814058956914	52	127
357.5168707482993	357.59814058956914	92	127
357.6097505668934	357.76068027210886	52	127
357.6097505668934	357.679410430839	93	127
357.6097505668934	357.76068027210886	57	127
357.6097505668934	357.76068027210886	45	127
357.679410430839	357.76068027210886	92	127
357.7722902494331	357.99285714285713	52	127
357.7722902494331	357.88839002267576	93	127
357.7722902494331	357.99285714285713	45	127
357.7722902494331	357.99285714285713	57	127
357.89997732426303	357.99285714285713	92	127
357.99285714285713	358.08575963718823	93	127
358.0973469387755	358.1902494331066	92	127
358.20183673469387	358.2831292517007	90	127
358.20183673469387	358.4340589569161	45	127
358.20183673469387	358.4340589569161	52	127
358.20183673469387	358.4340589569161	57	127
358.2831292517007	358.4340589569161	88	127
358.4340589569161	358.67786848072564	57	127
358.4340589569161	358.67786848072564	45	127
358.4340589569161	358.67786848072564	52	127
358.4340589569161	358.58498866213154	86	127
358.5965986394558	358.67786848072564	85	127
358.6894784580499	358.77074829931973	83	127
358.6894784580499	358.85201814058956	57	127
358.6894784580499	358.85201814058956	45	127
358.6894784580499	358.85201814058956	52	127
358.77074829931973	358.85201814058956	81	127
358.86362811791383	358.9681179138322	80	127
358.9797278911565	359.0609977324263	81	127
359.0609977324263	359.14226757369613	83	127
359.0609977324263	359.2467573696145	45	127
359.0609977324263	359.2467573696145	52	127
359.0609977324263	359.2467573696145	59	127
359.1538775510204	359.2467573696145	85	127
359.25836734693877	359.43249433106575	59	127
359.25836734693877	359.35124716553287	86	127
359.25836734693877	359.43249433106575	45	127
359.25836734693877	359.43249433106575	52	127
359.35124716553287	359.43249433106575	85	127
359.44412698412697	359.52539682539685	83	127
359.44412698412697	359.64149659863943	45	127
359.44412698412697	359.64149659863943	59	127
359.44412698412697	359.64149659863943	52	127
359.5369841269841	359.64149659863943	81	127
359.64149659863943	359.7459863945578	80	127
359.7459863945578	359.8272562358277	81	127
359.83884353741496	360.0478231292517	52	127
359.83884353741496	359.95496598639454	83	127
359.83884353741496	360.0478231292517	45	127
359.83884353741496	360.0478231292517	59	127
359.9665759637188	360.0478231292517	81	127
360.0478231292517	360.1291156462585	80	127
360.0478231292517	360.2336054421769	45	127
360.0478231292517	360.2336054421769	59	127
360.0478231292517	360.2336054421769	52	127
360.1407029478458	360.2336054421769	76	127
360.24519274376416	360.43097505668936	52	127
360.24519274376416	360.43097505668936	45	127
360.24519274376416	360.43097505668936	59	127
360.24519274376416	360.326485260771	78	127
360.326485260771	360.43097505668936	80	127
360.4541723356009	360.8721541950113	81	127
360.6980045351474	360.8721541950113	57	127
360.6980045351474	360.8721541950113	45	127
360.6980045351474	360.8721541950113	52	127
360.8837641723356	361.0579138321996	45	127
360.8837641723356	361.0579138321996	52	127
360.8837641723356	361.0579138321996	57	127
361.06950113378684	361.2436734693878	57	127
361.06950113378684	361.2436734693878	45	127
361.06950113378684	361.2436734693878	52	127
361.25528344671204	361.66163265306125	64	127
361.25528344671204	361.66163265306125	73	127
361.42943310657597	361.66163265306125	57	127
361.42943310657597	361.66163265306125	52	127
361.42943310657597	361.66163265306125	45	127
361.66163265306125	361.8590022675737	52	127
361.66163265306125	361.8590022675737	57	127
361.66163265306125	361.8590022675737	45	127
361.870612244898	362.03315192743764	45	127
361.870612244898	362.03315192743764	52	127
361.870612244898	362.03315192743764	57	127
362.0447619047619	362.4859410430839	74	127
362.0447619047619	362.4859410430839	64	127
362.2769614512472	362.4859410430839	59	127
362.2769614512472	362.4859410430839	45	127
362.2769614512472	362.4859410430839	52	127
362.4975283446712	362.6833106575964	59	127
362.4975283446712	362.6833106575964	52	127
362.4975283446712	362.6833106575964	45	127
362.6833106575964	362.8690702947846	45	127
362.6833106575964	362.8690702947846	52	127
362.6833106575964	362.8690702947846	59	127
362.88068027210886	363.2289795918367	64	127
362.88068027210886	363.2289795918367	74	127
363.06643990929706	363.2289795918367	59	127
363.06643990929706	363.2289795918367	52	127
363.06643990929706	363.2289795918367	45	127
363.2289795918367	363.37990929705217	52	127
363.2289795918367	363.37990929705217	59	127
363.2289795918367	363.37990929705217	45	127
363.39151927437644	363.56566893424036	45	127
363.39151927437644	363.56566893424036	52	127
363.39151927437644	363.56566893424036	59	127
363.57727891156463	363.87913832199547	64	127
363.57727891156463	364.0997278911565	52	127
363.57727891156463	363.87913832199547	73	127
363.57727891156463	364.0997278911565	45	127
363.57727891156463	364.0997278911565	57	127
363.87913832199547	364.0997278911565	73	127
363.87913832199547	364.0997278911565	61	127
364.11133786848075	364.29709750566894	73	127
364.11133786848075	364.29709750566894	61	127
364.29709750566894	364.48285714285714	57	127
364.29709750566894	364.48285714285714	45	127
364.4944671201814	364.88920634920635	47	127
364.4944671201814	364.88920634920635	59	127
364.6802267573696	364.88920634920635	62	127
364.6802267573696	364.88920634920635	74	127
364.88920634920635	365.0865759637188	62	127
364.88920634920635	365.0865759637188	74	127
365.0981859410431	365.2839455782313	47	127
365.0981859410431	365.2839455782313	59	127
365.29555555555555	365.6786848072562	49	127
365.29555555555555	365.6786848072562	61	127
365.492925170068	365.6786848072562	64	127
365.492925170068	365.6786848072562	76	127
365.6902947845805	365.87603174603174	76	127
365.6902947845805	365.87603174603174	64	127
365.87603174603174	366.06181405895694	64	127
365.87603174603174	366.06181405895694	61	127
365.87603174603174	366.06181405895694	49	127
365.87603174603174	366.06181405895694	76	127
366.0734013605442	366.24757369614514	78	127
366.0734013605442	366.24757369614514	66	127
366.0734013605442	366.24757369614514	63	127
366.0734013605442	366.24757369614514	51	127
366.2591836734694	366.4913832199546	66	127
366.2591836734694	366.4913832199546	63	127
366.2591836734694	366.4913832199546	51	127
366.2591836734694	366.4913832199546	78	127
366.4913832199546	366.68873015873015	78	127
366.4913832199546	366.68873015873015	66	127
366.4913832199546	366.68873015873015	63	127
366.4913832199546	366.68873015873015	51	127
366.70036281179136	366.9093424036281	66	127
366.70036281179136	366.9093424036281	51	127
366.70036281179136	366.9093424036281	63	127
366.70036281179136	366.9093424036281	78	127
366.9093424036281	366.990589569161	74	127
366.9093424036281	367.28086167800456	52	127
366.9093424036281	367.28086167800456	56	127
367.0022222222222	367.0834920634921	76	127
367.09507936507936	367.1763718820862	78	127
367.1763718820862	367.28086167800456	76	127
367.2924716553288	367.37374149659865	74	127
367.3853514739229	367.4898412698413	76	127
367.4898412698413	367.6639909297052	56	127
367.4898412698413	367.6639909297052	52	127
367.4898412698413	367.5711111111111	78	127
367.5827210884354	367.6639909297052	76	127
367.6756009070295	368.0703401360544	57	127
367.6756009070295	368.0703401360544	54	127
367.6756009070295	367.7684807256236	74	127
367.7684807256236	367.8613605442177	76	127
367.90780045351477	367.9890702947846	78	127
368.00068027210887	368.0703401360544	76	127
368.0703401360544	368.1632199546485	74	127
368.1632199546485	368.24448979591835	76	127
368.2560997732426	368.4418594104308	54	127
368.2560997732426	368.4418594104308	57	127
368.2560997732426	368.33736961451245	78	127
368.3489795918367	368.4418594104308	76	127
368.4418594104308	368.8133786848073	56	127
368.4418594104308	368.8133786848073	59	127
368.4418594104308	368.534716553288	74	127
368.5463492063492	368.6275963718821	76	127
368.6392290249433	368.73208616780045	78	127
368.73208616780045	368.8133786848073	76	127
368.82498866213155	368.9062585034014	74	127
368.91786848072564	369.01074829931974	76	127
369.01074829931974	369.19650793650794	56	127
369.01074829931974	369.19650793650794	59	127
369.01074829931974	369.10362811791384	78	127
369.1152380952381	369.19650793650794	76	127
369.2081179138322	369.28938775510204	74	127
369.2081179138322	369.4054875283447	56	127
369.2081179138322	369.4054875283447	52	127
369.3009977324263	369.4054875283447	76	127
369.41709750566895	369.60285714285715	56	127
369.41709750566895	369.4983673469388	78	127
369.41709750566895	369.60285714285715	52	127
369.4983673469388	369.60285714285715	76	127
369.60285714285715	369.8118367346939	52	127
369.60285714285715	369.69573696145125	74	127
369.60285714285715	369.8118367346939	56	127
369.69573696145125	369.8118367346939	78	127
369.8118367346939	369.904716553288	76	127
369.8118367346939	370.00920634920635	52	127
369.8118367346939	370.00920634920635	56	127
369.91632653061225	370.00920634920635	74	127
370.00920634920635	370.2065759637188	73	127
370.00920634920635	370.2065759637188	57	127
370.00920634920635	370.2065759637188	61	127
370.2065759637188	370.392335600907	57	127
370.2065759637188	370.392335600907	61	127
370.4039455782313	370.60131519274375	59	127
370.4039455782313	370.60131519274375	63	127
370.60131519274375	370.78707482993195	63	127
370.60131519274375	370.78707482993195	59	127
370.7986848072562	370.94961451247167	64	127
370.7986848072562	370.94961451247167	61	127
370.9728344671202	371.18179138321995	61	127
370.9728344671202	371.18179138321995	64	127
371.18179138321995	371.3559637188209	63	127
371.18179138321995	371.3559637188209	66	127
371.36757369614514	371.58816326530615	66	127
371.36757369614514	371.58816326530615	63	127
371.5997505668934	371.77392290249435	52	127
371.5997505668934	371.68104308390025	86	127
371.5997505668934	371.77392290249435	56	127
371.6926303854875	371.77392290249435	88	127
371.77392290249435	371.8551927437642	90	127
371.77392290249435	371.9480725623583	56	127
371.77392290249435	371.9480725623583	52	127
371.8551927437642	371.9480725623583	88	127
371.95968253968255	372.14544217687074	54	127
371.95968253968255	372.14544217687074	57	127
371.95968253968255	372.0409523809524	86	127
372.05256235827665	372.14544217687074	88	127
372.14544217687074	372.2267120181406	90	127
372.14544217687074	372.3195918367347	57	127
372.14544217687074	372.3195918367347	54	127
372.23832199546484	372.3195918367347	88	127
372.33120181405894	372.5169387755102	56	127
372.33120181405894	372.41244897959183	86	127
372.33120181405894	372.5169387755102	59	127
372.41244897959183	372.5169387755102	88	127
372.5285714285714	372.62142857142857	90	127
372.5285714285714	372.7491609977324	59	127
372.5285714285714	372.7491609977324	56	127
372.6330612244898	372.7491609977324	88	127
372.7491609977324	372.9349206349206	56	127
372.7491609977324	372.9349206349206	52	127
372.7491609977324	372.8420408163265	86	127
372.8536507936508	372.9349206349206	90	127
372.9465306122449	373.05102040816325	88	127
372.9465306122449	373.13226757369614	56	127
372.9465306122449	373.13226757369614	52	127
373.05102040816325	373.13226757369614	86	127
373.14390022675735	373.31804988662134	57	127
373.14390022675735	373.22517006802724	85	127
373.14390022675735	373.31804988662134	61	127
373.2367573696145	373.31804988662134	88	127
373.3296371882086	373.41092970521544	86	127
373.3296371882086	373.49219954648527	61	127
373.3296371882086	373.49219954648527	57	127
373.41092970521544	373.49219954648527	85	127
373.49219954648527	373.68956916099773	56	127
373.49219954648527	373.68956916099773	59	127
373.49219954648527	373.5734693877551	86	127
373.58507936507937	373.68956916099773	86	127
373.58507936507937	373.68956916099773	88	127
373.68956916099773	373.86371882086166	59	127
373.68956916099773	373.77083900226756	90	127
373.68956916099773	373.86371882086166	56	127
373.78244897959183	373.86371882086166	92	127
373.87532879818593	373.95659863945576	93	127
373.87532879818593	374.03786848072565	57	127
373.87532879818593	374.03786848072565	54	127
373.95659863945576	374.03786848072565	92	127
374.0494557823129	374.22362811791385	57	127
374.0494557823129	374.22362811791385	54	127
374.0494557823129	374.13074829931975	93	127
374.142358276644	374.22362811791385	92	127
374.22362811791385	374.3048979591837	93	127
374.22362811791385	374.40938775510205	54	127
374.22362811791385	374.40938775510205	47	127
374.31650793650795	374.40938775510205	90	127
374.4326077097506	374.5254875283447	88	127
374.4326077097506	374.6996371882086	47	127
374.4326077097506	374.6996371882086	54	127
374.5254875283447	374.6996371882086	87	127
374.6996371882086	374.8737641723356	56	127
374.6996371882086	374.8737641723356	88	127
374.6996371882086	374.8737641723356	52	127
375.58197278911564	375.66326530612247	64	127
375.58197278911564	375.66326530612247	76	127
375.67487528344674	375.7909523809524	66	127
375.67487528344674	375.7909523809524	78	127
375.8025850340136	375.90707482993196	80	127
375.8025850340136	375.90707482993196	68	127
375.90707482993196	376.0115646258503	69	127
375.90707482993196	376.0115646258503	81	127
376.0115646258503	376.1160544217687	71	127
376.0115646258503	376.1160544217687	83	127
376.12766439909296	376.22054421768706	85	127
376.12766439909296	376.22054421768706	73	127
376.23215419501133	376.31342403628116	87	127
376.23215419501133	376.31342403628116	75	127
376.31342403628116	376.39467120181405	76	127
376.31342403628116	376.39467120181405	88	127
376.4062811791383	376.48757369614515	68	127
376.4062811791383	376.48757369614515	80	127
376.4991609977324	376.58045351473925	69	127
376.4991609977324	376.58045351473925	81	127
376.58045351473925	376.6617233560091	71	127
376.58045351473925	376.6617233560091	83	127
376.67333333333335	376.7546031746032	85	127
376.67333333333335	376.7546031746032	73	127
376.76621315192745	376.8474829931973	87	127
376.76621315192745	376.8474829931973	75	127
376.8474829931973	376.9287528344671	88	127
376.8474829931973	376.9287528344671	76	127
376.9403628117914	377.0332426303855	90	127
376.9403628117914	377.0332426303855	78	127
377.04485260770974	377.1261224489796	80	127
377.04485260770974	377.1261224489796	92	127
377.1261224489796	377.20739229024946	83	127
377.1261224489796	377.20739229024946	71	127
377.2189795918367	377.30027210884356	73	127
377.2189795918367	377.30027210884356	85	127
377.3118820861678	377.39315192743766	75	127
377.3118820861678	377.39315192743766	87	127
377.39315192743766	377.5092517006803	76	127
377.39315192743766	377.5092517006803	88	127
377.5092517006803	377.5905215419501	78	127
377.5092517006803	377.5905215419501	90	127
377.6021315192744	377.6834013605442	80	127
377.6021315192744	377.6834013605442	92	127
377.6950113378685	377.7762811791383	93	127
377.6950113378685	377.7762811791383	81	127
377.7762811791383	377.9736507936508	83	127
377.7762811791383	377.9736507936508	95	127
377.98526077097506	378.1478004535147	92	127
377.98526077097506	378.1478004535147	80	127
378.17102040816326	378.38	88	127
378.17102040816326	378.38	76	127
378.38	378.554126984127	83	127
378.38	378.554126984127	71	127
378.5657596371882	378.75149659863945	80	127
378.5657596371882	378.75149659863945	68	127
378.75149659863945	378.9256689342404	76	127
378.75149659863945	378.9256689342404	64	127
378.93727891156465	379.0998185941043	71	127
378.93727891156465	379.0998185941043	59	127
379.18108843537414	379.3668253968254	56	127
379.18108843537414	379.3668253968254	68	127
379.3668253968254	379.7731746031746	64	127
379.3668253968254	379.7731746031746	52	127
379.7848072562358	380.7019954648526	52	127
379.7848072562358	380.7019954648526	40	127
382.8730612244898	384.1269387755102	54	127
382.8730612244898	384.1269387755102	57	127
382.8730612244898	384.1269387755102	38	127
384.1385487528345	384.30108843537414	66	127
384.1385487528345	384.30108843537414	50	127
384.1385487528345	384.30108843537414	69	127
384.1385487528345	384.30108843537414	71	127
384.3126984126984	384.5100680272109	66	127
384.3126984126984	384.5100680272109	69	127
384.3126984126984	384.5100680272109	71	127
384.3126984126984	384.5100680272109	50	127
384.5100680272109	384.6958276643991	66	127
384.5100680272109	384.6958276643991	69	127
384.5100680272109	384.6958276643991	50	127
384.5100680272109	384.6958276643991	71	127
384.70743764172335	384.92802721088435	66	127
384.70743764172335	384.92802721088435	69	127
384.70743764172335	384.92802721088435	71	127
384.70743764172335	384.92802721088435	50	127
384.92802721088435	385.11378684807255	64	127
384.92802721088435	385.11378684807255	52	127
384.92802721088435	385.11378684807255	69	127
384.92802721088435	385.11378684807255	73	127
385.1253968253968	385.311156462585	64	127
385.1253968253968	385.311156462585	69	127
385.1253968253968	385.311156462585	52	127
385.1253968253968	385.311156462585	73	127
385.3227664399093	385.52013605442176	62	127
385.3227664399093	385.52013605442176	69	127
385.3227664399093	385.52013605442176	54	127
385.3227664399093	385.52013605442176	74	127
385.5433560090703	385.7291156462585	62	127
385.5433560090703	385.7291156462585	69	127
385.5433560090703	385.7291156462585	74	127
385.5433560090703	385.7291156462585	54	127
385.7291156462585	385.9148752834467	64	127
385.7291156462585	385.9148752834467	52	127
385.7291156462585	385.9148752834467	69	127
385.7291156462585	385.9148752834467	73	127
385.9148752834467	386.1354648526077	64	127
385.9148752834467	386.1354648526077	69	127
385.9148752834467	386.1354648526077	52	127
385.9148752834467	386.1354648526077	73	127
386.1354648526077	386.5418140589569	66	127
386.1354648526077	386.5418140589569	69	127
386.1354648526077	386.5418140589569	50	127
386.1354648526077	386.5418140589569	71	127
386.5418140589569	387.02943310657594	69	127
386.5418140589569	387.02943310657594	50	127
386.5418140589569	387.02943310657594	66	127
386.5418140589569	387.02943310657594	71	127
389.5836281179138	390.8026757369615	39	127
389.5836281179138	390.8026757369615	54	127
389.5836281179138	390.8026757369615	57	127
390.8026757369615	391.0116553287982	69	127
390.8026757369615	391.0116553287982	71	127
390.8026757369615	391.0116553287982	51	127
390.8026757369615	391.0116553287982	66	127
391.0232653061224	391.2554648526077	71	127
391.0232653061224	391.2554648526077	69	127
391.0232653061224	391.2554648526077	51	127
391.0232653061224	391.2554648526077	66	127
391.26707482993197	391.45283446712017	69	127
391.26707482993197	391.45283446712017	71	127
391.26707482993197	391.45283446712017	51	127
391.26707482993197	391.45283446712017	66	127
391.46444444444444	391.62698412698415	71	127
391.46444444444444	391.62698412698415	69	127
391.46444444444444	391.62698412698415	51	127
391.46444444444444	391.62698412698415	66	127
391.63859410430837	391.7895238095238	69	127
391.63859410430837	391.7895238095238	52	127
391.63859410430837	391.7895238095238	73	127
391.63859410430837	391.7895238095238	64	127
391.8011337868481	391.975283446712	52	127
391.8011337868481	391.975283446712	69	127
391.8011337868481	391.975283446712	73	127
391.8011337868481	391.975283446712	64	127
391.975283446712	392.2539229024943	69	127
391.975283446712	392.2539229024943	75	127
391.975283446712	392.2539229024943	63	127
391.975283446712	392.2539229024943	54	127
392.2539229024943	392.5209523809524	75	127
392.2539229024943	392.5209523809524	69	127
392.2539229024943	392.5209523809524	54	127
392.2539229024943	392.5209523809524	63	127
392.5209523809524	392.72993197278913	69	127
392.5209523809524	392.72993197278913	52	127
392.5209523809524	392.72993197278913	73	127
392.5209523809524	392.72993197278913	64	127
392.7415419501134	392.9273015873016	69	127
392.7415419501134	392.9273015873016	52	127
392.7415419501134	392.9273015873016	64	127
392.7415419501134	392.9273015873016	73	127
392.93891156462587	393.3452607709751	69	127
392.93891156462587	393.3452607709751	71	127
392.93891156462587	393.3452607709751	51	127
392.93891156462587	393.3452607709751	66	127
393.35687074829934	393.80965986394557	66	127
393.35687074829934	393.80965986394557	51	127
393.35687074829934	393.80965986394557	69	127
393.35687074829934	393.80965986394557	71	127
394.5875283446712	396.4799546485261	51	127
394.5875283446712	396.4799546485261	54	127
394.5875283446712	395.5975963718821	60	127
394.5875283446712	395.5975963718821	72	127
395.5975963718821	396.14326530612243	59	127
395.5975963718821	396.14326530612243	71	127
396.1548752834467	396.4799546485261	60	127
396.1548752834467	396.4799546485261	72	127
396.49156462585034	398.25628117913834	61	127
396.49156462585034	398.25628117913834	73	127
396.49156462585034	398.25628117913834	52	127
396.49156462585034	398.25628117913834	57	127
398.25628117913834	399.5565986394558	62	127
398.25628117913834	399.5565986394558	52	127
398.25628117913834	399.5565986394558	59	127
398.25628117913834	399.5565986394558	74	127
399.5565986394558	400.03260770975055	71	127
399.5565986394558	400.03260770975055	52	127
399.5565986394558	400.03260770975055	56	127
399.5565986394558	400.03260770975055	59	127
400.06743764172336	400.53183673469385	71	127
400.06743764172336	400.53183673469385	59	127
400.06743764172336	400.53183673469385	56	127
400.06743764172336	401.0310657596372	54	127
400.57827664399093	401.0310657596372	57	127
400.57827664399093	401.0310657596372	69	127
401.92503401360545	403.538820861678	54	127
401.92503401360545	403.538820861678	50	127
402.6912925170068	403.78263038548755	69	127
402.6912925170068	403.78263038548755	81	127
403.5504308390023	404.3863492063492	57	127
403.5504308390023	404.3863492063492	52	127
403.79424036281176	403.9916099773243	80	127
403.9916099773243	404.18897959183676	78	127
404.18897959183676	404.3863492063492	76	127
404.3863492063492	404.5721088435374	75	127
404.3863492063492	405.59378684807257	61	127
404.3863492063492	405.59378684807257	64	127
404.3863492063492	405.59378684807257	52	127
404.5837188208617	404.7694784580499	76	127
404.7926984126984	404.9900680272109	75	127
405.00167800453517	405.19904761904763	76	127
405.2106575963719	405.40802721088437	75	127
405.40802721088437	405.59378684807257	76	127
405.59378684807257	406.0233560090703	62	127
405.59378684807257	406.0233560090703	52	127
405.59378684807257	405.79115646258504	74	127
405.59378684807257	406.0233560090703	59	127
405.8027664399093	406.0233560090703	76	127
406.0349659863946	406.27877551020407	73	127
406.0349659863946	406.47614512471654	61	127
406.0349659863946	406.47614512471654	57	127
406.0349659863946	406.47614512471654	52	127
406.29038548752834	406.47614512471654	76	127
406.4877551020408	406.6851247165533	71	127
406.4877551020408	406.89410430839	44	127
406.4877551020408	406.89410430839	40	127
406.4877551020408	406.89410430839	52	127
406.4877551020408	406.89410430839	47	127
406.69673469387754	406.89410430839	76	127
406.9057142857143	407.2772335600907	69	127
406.9057142857143	407.10308390022675	45	127
406.9057142857143	407.10308390022675	49	127
407.01020408163265	407.19596371882085	52	127
407.114693877551	407.2772335600907	49	127
407.114693877551	407.2772335600907	45	127
407.19596371882085	407.3468934240363	52	127
407.28884353741495	407.4281632653061	45	127
407.28884353741495	407.4281632653061	49	127
407.3468934240363	407.5210430839002	52	127
407.4281632653061	407.6255328798186	45	127
407.4281632653061	407.6255328798186	49	127
407.5326530612245	407.6255328798186	52	127
407.63714285714286	407.7996825396825	50	127
407.63714285714286	407.7996825396825	45	127
407.7184126984127	407.8809523809524	52	127
407.8112925170068	407.9854421768708	45	127
407.8112925170068	407.9854421768708	50	127
407.8925623582766	408.0899319727891	52	127
407.9854421768708	408.171201814059	50	127
407.9854421768708	408.171201814059	45	127
408.0899319727891	408.2640816326531	52	127
408.18281179138324	408.3569614512472	45	127
408.18281179138324	408.3569614512472	50	127
408.27569160997734	408.3569614512472	52	127
408.3569614512472	408.54272108843537	49	127
408.3569614512472	408.54272108843537	45	127
408.3569614512472	408.4498412698413	69	127
408.46145124716554	408.63560090702947	52	127
408.46145124716554	408.54272108843537	71	127
408.55433106575964	408.74009070294784	45	127
408.55433106575964	408.74009070294784	49	127
408.55433106575964	408.63560090702947	73	127
408.63560090702947	408.83297052154194	52	127
408.63560090702947	408.74009070294784	74	127
408.7517006802721	408.9839002267574	49	127
408.7517006802721	408.83297052154194	76	127
408.7517006802721	408.9839002267574	45	127
408.8445804988662	409.0651700680272	52	127
408.8445804988662	408.9839002267574	78	127
408.9839002267574	409.1580498866213	49	127
408.9839002267574	409.1580498866213	45	127
408.9839002267574	409.0651700680272	80	127
409.0767800453515	409.1580498866213	52	127
409.0767800453515	409.1580498866213	81	127
409.1696598639456	409.3786394557823	45	127
409.1696598639456	409.3786394557823	50	127
409.1696598639456	409.27414965986395	80	127
409.27414965986395	409.45990929705215	52	127
409.27414965986395	409.3786394557823	81	127
409.3786394557823	409.58761904761906	45	127
409.3786394557823	409.58761904761906	50	127
409.3786394557823	409.45990929705215	80	127
409.4831292517007	409.68049886621316	52	127
409.4831292517007	409.58761904761906	78	127
409.5992290249433	409.761768707483	45	127
409.5992290249433	409.761768707483	50	127
409.5992290249433	409.68049886621316	76	127
409.68049886621316	409.8546485260771	52	127
409.68049886621316	409.761768707483	74	127
409.77337868480726	409.9475283446712	45	127
409.77337868480726	409.9475283446712	50	127
409.77337868480726	409.8546485260771	73	127
409.86625850340135	409.9475283446712	52	127
409.86625850340135	409.9475283446712	71	127
409.9475283446712	410.6673469387755	69	127
409.9475283446712	410.12167800453517	45	127
409.9475283446712	410.12167800453517	49	127
410.05201814058955	410.23777777777775	52	127
410.1332879818594	410.31904761904764	45	127
410.1332879818594	410.31904761904764	49	127
410.23777777777775	410.41192743764174	52	127
410.3306575963719	410.49319727891157	45	127
410.3306575963719	410.49319727891157	49	127
410.423537414966	410.5744671201814	52	127
410.49319727891157	410.6673469387755	49	127
410.49319727891157	410.6673469387755	45	127
410.58607709750567	410.6673469387755	52	127
410.67895691609976	411.53809523809525	64	127
410.67895691609976	410.89954648526077	45	127
410.67895691609976	410.89954648526077	50	127
410.8066666666667	410.96920634920633	52	127
410.89954648526077	411.09691609977324	50	127
410.89954648526077	411.09691609977324	45	127
410.9808163265306	411.18979591836734	52	127
411.1085260770975	411.30589569161	45	127
411.1085260770975	411.30589569161	50	127
411.18979591836734	411.4336054421769	52	127
411.31750566893425	411.53809523809525	50	127
411.31750566893425	411.53809523809525	45	127
411.44521541950115	411.53809523809525	52	127
411.53809523809525	411.747074829932	45	127
411.53809523809525	411.6541950113379	69	127
411.53809523809525	411.747074829932	49	127
411.66580498866216	411.747074829932	71	127
411.66580498866216	411.8631746031746	52	127
411.75868480725626	411.8631746031746	73	127
411.75868480725626	411.967664399093	45	127
411.75868480725626	411.967664399093	49	127
411.8631746031746	412.0605442176871	52	127
411.8631746031746	411.967664399093	74	127
411.9792743764172	412.16503401360546	45	127
411.9792743764172	412.0605442176871	76	127
411.9792743764172	412.16503401360546	49	127
412.07215419501136	412.16503401360546	78	127
412.07215419501136	412.26952380952383	52	127
412.16503401360546	412.35079365079366	49	127
412.16503401360546	412.35079365079366	45	127
412.16503401360546	412.26952380952383	80	127
412.26952380952383	412.35079365079366	81	127
412.26952380952383	412.35079365079366	52	127
412.36240362811793	412.54816326530613	50	127
412.36240362811793	412.45528344671203	80	127
412.36240362811793	412.54816326530613	45	127
412.4668934240363	412.6874829931973	52	127
412.4668934240363	412.54816326530613	81	127
412.54816326530613	412.7803628117914	50	127
412.54816326530613	412.7803628117914	45	127
412.54816326530613	412.6874829931973	80	127
412.6990929705215	412.7803628117914	78	127
412.6990929705215	412.8732426303855	52	127
412.7919727891156	412.8732426303855	76	127
412.7919727891156	412.95451247165533	45	127
412.7919727891156	412.95451247165533	50	127
412.8732426303855	412.95451247165533	74	127
412.8732426303855	413.0590022675737	52	127
412.9661224489796	413.1518820861678	50	127
412.9661224489796	413.0590022675737	73	127
412.9661224489796	413.1518820861678	45	127
413.070612244898	413.1518820861678	71	127
413.070612244898	413.1518820861678	52	127
413.1518820861678	413.2447619047619	45	127
413.1518820861678	413.3724716553288	73	127
413.291201814059	413.3724716553288	47	127
413.3840816326531	413.4653514739229	49	127
413.3840816326531	413.54662131519274	73	127
413.4653514739229	413.54662131519274	50	127
413.54662131519274	413.6046712018141	52	127
413.6162811791383	413.6975510204082	54	127
413.70916099773245	413.8717006802721	73	127
413.70916099773245	413.7904308390023	56	127
413.7904308390023	413.8717006802721	57	127
413.8833106575964	413.9645804988662	50	127
413.8833106575964	414.0922902494331	78	127
414.0110204081633	414.0922902494331	52	127
414.0922902494331	414.17356009070295	54	127
414.0922902494331	414.2548299319728	78	127
414.1851700680272	414.2548299319728	55	127
414.26643990929705	414.3477097505669	57	127
414.3477097505669	414.4289795918367	59	127
414.440589569161	414.54507936507935	61	127
414.440589569161	414.6495691609977	78	127
414.5566893424036	414.6495691609977	62	127
414.6495691609977	414.7424489795918	52	127
414.6495691609977	414.85854875283445	76	127
414.7540589569161	414.85854875283445	54	127
414.8701587301587	414.95142857142855	56	127
414.8701587301587	415.04430839002265	76	127
414.9630385487528	415.04430839002265	57	127
415.04430839002265	415.1371882086168	59	127
415.148798185941	415.2300680272109	61	127
415.2416780045352	415.31133786848073	62	127
415.2416780045352	415.39260770975056	76	127
415.31133786848073	415.39260770975056	64	127
415.40421768707483	415.6015873015873	80	127
415.40421768707483	415.48548752834466	63	127
415.5087074829932	415.6015873015873	64	127
415.6015873015873	415.8337868480726	80	127
415.6015873015873	415.6944671201814	63	127
415.70607709750567	415.8337868480726	64	127
415.84539682539685	415.9614965986394	63	127
415.84539682539685	416.0543764172336	80	127
415.9614965986394	416.0543764172336	64	127
416.0659863945578	416.2401360544218	80	127
416.0659863945578	416.1472562358277	63	127
416.15886621315195	416.2401360544218	64	127
416.2401360544218	416.42589569161	69	127
416.2401360544218	416.42589569161	81	127
416.2401360544218	416.3330158730159	45	127
416.3330158730159	416.42589569161	47	127
416.43750566893425	416.646485260771	69	127
416.43750566893425	416.646485260771	81	127
416.43750566893425	416.5419954648526	49	127
416.5536054421769	416.646485260771	50	127
416.646485260771	416.71614512471655	52	127
416.7277551020408	416.80902494331065	54	127
416.8206349206349	416.99478458049884	81	127
416.8206349206349	416.99478458049884	69	127
416.8206349206349	416.913514739229	56	127
416.913514739229	416.99478458049884	57	127
417.0063945578231	417.1805442176871	78	127
417.0063945578231	417.1805442176871	66	127
417.0063945578231	417.08766439909294	50	127
417.0992743764172	417.1805442176871	52	127
417.1805442176871	417.26181405895693	54	127
417.1805442176871	417.35469387755103	78	127
417.1805442176871	417.35469387755103	66	127
417.2734240362812	417.35469387755103	55	127
417.3663038548753	417.43596371882086	57	127
417.43596371882086	417.52884353741496	59	127
417.52884353741496	417.76104308390023	78	127
417.52884353741496	417.76104308390023	66	127
417.52884353741496	417.6333333333333	61	127
417.6449433106576	417.76104308390023	62	127
417.7842630385488	417.8655328798186	52	127
417.7842630385488	417.97002267573697	64	127
417.7842630385488	417.97002267573697	76	127
417.8655328798186	417.97002267573697	52	127
417.9932426303855	418.0861224489796	54	127
418.0977324263039	418.190612244898	56	127
418.190612244898	418.2718820861678	57	127
418.2718820861678	418.3647619047619	56	127
418.3763718820862	418.457641723356	57	127
418.457641723356	418.53891156462583	59	127
418.5505215419501	418.7130612244898	61	127
420.1410884353742	420.23396825396827	73	127
420.23396825396827	420.32684807256237	74	127
420.32684807256237	420.4081179138322	76	127
420.41972789115647	420.57065759637186	78	127
420.58226757369613	420.6867573696145	76	127
420.6867573696145	420.7680272108843	78	127
420.7796371882086	420.8725170068027	80	127
420.88412698412696	421.0002267573696	81	127
421.0002267573696	421.104716553288	76	127
421.0002267573696	421.104716553288	40	127
421.104716553288	421.19759637188207	42	127
421.104716553288	421.19759637188207	78	127
421.19759637188207	421.2788662131519	80	127
421.19759637188207	421.2788662131519	44	127
421.2788662131519	421.37174603174606	81	127
421.2788662131519	421.37174603174606	45	127
421.37174603174606	421.46462585034016	80	127
421.37174603174606	421.46462585034016	44	127
421.46462585034016	421.54589569161	81	127
421.46462585034016	421.54589569161	45	127
421.54589569161	421.6387755102041	83	127
421.54589569161	421.6387755102041	47	127
421.6387755102041	421.7316553287982	85	127
421.6387755102041	421.7316553287982	49	127
421.7316553287982	421.83614512471655	80	127
421.7316553287982	421.83614512471655	44	127
421.83614512471655	421.92902494331065	45	127
421.83614512471655	421.92902494331065	81	127
421.92902494331065	422.02190476190475	83	127
421.92902494331065	422.02190476190475	47	127
422.02190476190475	422.11478458049885	49	127
422.02190476190475	422.11478458049885	85	127
422.11478458049885	422.20766439909295	83	127
422.11478458049885	422.20766439909295	47	127
422.20766439909295	422.3121541950113	49	127
422.20766439909295	422.3121541950113	85	127
422.3121541950113	422.4166439909297	86	127
422.3121541950113	422.4166439909297	50	127
422.4166439909297	422.77655328798187	52	127
422.4166439909297	423.3918820861678	88	127
423.41510204081635	423.60086167800455	85	127
423.6124716553288	423.798231292517	86	127
423.8098412698413	423.9956009070295	88	127
424.00721088435375	424.2045804988662	81	127
424.2161904761905	424.4367800453515	83	127
424.4367800453515	424.65736961451245	85	127
424.65736961451245	424.8895691609977	76	127
424.901179138322	425.06371882086165	80	127
425.0869387755102	425.31913832199547	81	127
425.342358276644	425.5397278911565	73	127
425.5397278911565	425.7138775510204	74	127
425.7254875283447	425.95768707482995	76	127
425.95768707482995	426.1202267573696	69	127
426.1318367346939	426.29437641723354	71	127
426.3059863945578	426.5381859410431	73	127
426.5381859410431	426.73555555555555	64	127
426.7587755102041	426.9677551020408	68	127
426.9793650793651	427.14190476190475	69	127
427.14190476190475	427.40893424036284	61	127
427.42054421768705	427.6063038548753	62	127
427.6063038548753	427.81528344671204	64	127
427.82689342403626	428.05909297052153	57	127
428.0707029478458	428.23324263038546	59	127
428.23324263038546	428.45383219954647	61	127
431.7742857142857	431.98326530612246	64	127
431.98326530612246	432.2502947845805	66	127
432.2851247165533	432.48249433106577	68	127
432.49410430839004	432.67986394557823	57	127
432.49410430839004	432.67986394557823	69	127
432.49410430839004	432.67986394557823	61	127
432.67986394557823	432.85401360544216	52	127
432.67986394557823	432.85401360544216	71	127
432.86562358276643	433.03977324263036	57	127
432.86562358276643	433.03977324263036	73	127
432.86562358276643	433.03977324263036	61	127
433.07460317460317	433.3184126984127	52	127
433.07460317460317	433.3184126984127	74	127
433.330022675737	433.5157823129252	76	127
433.330022675737	433.5157823129252	59	127
433.330022675737	433.5157823129252	62	127
433.52739229024945	433.71315192743765	75	127
433.52739229024945	433.71315192743765	52	127
433.71315192743765	433.93374149659866	76	127
433.71315192743765	433.93374149659866	62	127
433.71315192743765	433.93374149659866	59	127
433.9453514739229	434.1311111111111	52	127
433.9453514739229	434.1311111111111	74	127
434.1427210884354	434.35170068027213	61	127
434.1427210884354	434.35170068027213	57	127
434.1427210884354	434.35170068027213	73	127
434.35170068027213	434.58390022675735	71	127
434.35170068027213	434.58390022675735	52	127
434.5955102040816	434.85092970521544	69	127
434.5955102040816	434.85092970521544	57	127
434.5955102040816	434.85092970521544	61	127
434.85092970521544	435.0018594104308	68	127
434.85092970521544	435.0018594104308	52	127
435.0134693877551	435.1760090702948	57	127
435.0134693877551	435.1760090702948	69	127
435.0134693877551	435.1760090702948	61	127
435.187619047619	435.3849886621315	52	127
435.187619047619	435.3849886621315	69	127
435.3849886621315	435.582358276644	57	127
435.3849886621315	435.582358276644	71	127
435.3849886621315	435.582358276644	61	127
435.5939682539682	435.7797278911565	73	127
435.5939682539682	435.7797278911565	52	127
435.79133786848075	435.97709750566895	76	127
435.79133786848075	435.97709750566895	62	127
435.97709750566895	436.1512471655329	57	127
435.97709750566895	436.1512471655329	74	127
436.16285714285715	436.3253968253968	62	127
436.16285714285715	436.3253968253968	73	127
436.3253968253968	436.5459863945578	57	127
436.3253968253968	436.5459863945578	74	127
436.56920634920635	436.7665759637188	73	127
436.56920634920635	436.7665759637188	63	127
436.80140589569163	436.9987755102041	57	127
436.80140589569163	436.9987755102041	71	127
436.9987755102041	437.172925170068	63	127
436.9987755102041	437.172925170068	70	127
437.1845351473923	437.34707482993196	71	127
437.1845351473923	437.34707482993196	57	127
437.3586848072562	437.5560544217687	64	127
437.3586848072562	437.5560544217687	69	127
437.56766439909296	437.70698412698414	59	127
437.56766439909296	437.70698412698414	68	127
437.7185941043084	437.9043537414966	66	127
437.7185941043084	437.9043537414966	64	127
437.9043537414966	438.1249433106576	68	127
437.9043537414966	438.1249433106576	62	127
438.1365532879819	438.29909297052154	61	127
438.1365532879819	438.29909297052154	69	127
438.33392290249435	438.5312925170068	57	127
438.33392290249435	438.47324263038547	69	127
438.39197278911564	438.5312925170068	71	127
438.47324263038547	438.6009523809524	69	127
438.5312925170068	438.717052154195	71	127
438.5312925170068	438.717052154195	64	127
438.7286621315193	438.9724716553288	57	127
438.7286621315193	438.9724716553288	73	127
438.9724716553288	439.16984126984124	76	127
438.9724716553288	439.16984126984124	62	127
439.1930612244898	439.3556009070295	57	127
439.1930612244898	439.3556009070295	74	127
439.39043083900225	439.5761904761905	62	127
439.39043083900225	439.5761904761905	73	127
439.5761904761905	439.73873015873016	74	127
439.5761904761905	439.73873015873016	57	127
439.75034013605443	439.95931972789117	63	127
439.75034013605443	439.95931972789117	73	127
439.9825396825397	440.20312925170066	71	127
439.9825396825397	440.20312925170066	57	127
440.20312925170066	440.4004988662131	70	127
440.20312925170066	440.4004988662131	63	127
440.4121088435374	440.59786848072565	71	127
440.4121088435374	440.59786848072565	57	127
440.59786848072565	440.78362811791385	69	127
440.59786848072565	440.78362811791385	64	127
440.7952380952381	440.93455782312924	68	127
440.7952380952381	440.93455782312924	59	127
440.9461678004535	441.0854875283447	66	127
440.9461678004535	441.0854875283447	64	127
441.0854875283447	441.24802721088435	62	127
441.0854875283447	441.24802721088435	68	127
441.2596371882086	441.4918367346939	61	127
441.2596371882086	441.4918367346939	69	127
441.50344671201816	441.6427664399093	69	127
441.50344671201816	441.7008163265306	57	127
441.56149659863945	441.7008163265306	71	127
441.6427664399093	441.7588662131519	69	127
441.7124263038549	441.8865759637188	64	127
441.7124263038549	441.8865759637188	71	127
441.8981859410431	442.15360544217685	57	127
441.8981859410431	442.15360544217685	73	127
442.15360544217685	442.38580498866213	76	127
442.15360544217685	442.38580498866213	62	127
442.28131519274376	442.50190476190477	59	127
442.3974149659864	442.5831746031746	62	127
442.3974149659864	442.5831746031746	74	127
442.50190476190477	442.7224943310658	59	127
442.59478458049887	442.8153741496599	73	127
442.59478458049887	442.8153741496599	62	127
442.73410430839004	442.908253968254	59	127
442.8153741496599	443.0011337868481	74	127
442.8153741496599	443.0011337868481	62	127
442.91986394557824	443.09401360544217	59	127
443.01274376417234	443.2565532879819	60	127
443.01274376417234	443.2565532879819	76	127
443.09401360544217	443.349433106576	57	127
443.2565532879819	443.4423129251701	60	127
443.2565532879819	443.4423129251701	75	127
443.3610430839002	443.5351927437642	57	127
443.45392290249436	443.6280725623583	60	127
443.45392290249436	443.6280725623583	74	127
443.5351927437642	443.7209523809524	57	127
443.6280725623583	443.8022222222222	60	127
443.6280725623583	443.8022222222222	75	127
443.7209523809524	443.91832199546485	57	127
443.8138321995465	444.0344217687075	61	127
443.8138321995465	444.0344217687075	76	127
443.9299319727891	444.1273015873016	57	127
444.04603174603176	444.2201814058957	61	127
444.04603174603176	444.1273015873016	78	127
444.13891156462586	444.3362811791383	57	127
444.13891156462586	444.2201814058957	80	127
444.23179138321996	444.3362811791383	81	127
444.23179138321996	444.4291609977324	61	127
444.3362811791383	444.5684807256236	57	127
444.3362811791383	444.4291609977324	83	127
444.4407709750567	444.68458049886624	61	127
444.4407709750567	444.5684807256236	85	127
444.5684807256236	444.8006802721088	57	127
444.5684807256236	444.68458049886624	86	127
444.69619047619045	445.1257596371882	62	127
444.69619047619045	445.1257596371882	52	127
444.69619047619045	445.1257596371882	59	127
444.69619047619045	445.1257596371882	88	127
445.13736961451247	445.55532879818594	59	127
445.13736961451247	445.55532879818594	62	127
445.13736961451247	445.55532879818594	80	127
445.13736961451247	445.55532879818594	52	127
450.9075283446712	451.17455782312925	47	127
451.1861678004535	451.42997732426306	49	127
451.4415873015873	451.61573696145126	50	127
451.61573696145126	451.824716553288	52	127
451.83632653061227	452.0569160997732	54	127
452.0685260770975	452.31233560090703	56	127
452.31233560090703	452.52131519274377	57	127
452.53292517006804	452.68385487528343	59	127
452.68385487528343	452.97410430839	49	127
452.68385487528343	452.97410430839	61	127
452.98571428571427	453.1134240362812	62	127
452.98571428571427	453.1134240362812	50	127
453.12503401360544	453.31079365079364	52	127
453.12503401360544	453.31079365079364	64	127
453.31079365079364	453.53138321995465	54	127
453.31079365079364	453.53138321995465	66	127
453.5429931972789	453.7984126984127	56	127
453.5429931972789	453.7984126984127	68	127
453.81002267573695	453.9609523809524	57	127
453.81002267573695	453.9609523809524	69	127
453.97256235827666	454.1118820861678	59	127
453.97256235827666	454.1118820861678	71	127
454.12349206349205	454.29764172335604	61	127
454.12349206349205	454.29764172335604	73	127
454.29764172335604	454.57628117913833	74	127
454.29764172335604	454.57628117913833	62	127
454.5995011337869	454.7736507936508	75	127
454.5995011337869	454.7736507936508	63	127
454.78526077097507	454.94780045351473	76	127
454.78526077097507	454.94780045351473	64	127
454.94780045351473	455.2148299319728	77	127
454.94780045351473	455.2148299319728	65	127
455.226439909297	455.4121995464853	78	127
455.226439909297	455.4121995464853	66	127
455.4121995464853	455.5863492063492	71	127
455.4121995464853	455.5863492063492	59	127
455.5979591836735	455.79532879818595	64	127
455.5979591836735	455.79532879818595	76	127
455.8069387755102	456.0043083900227	62	127
455.8069387755102	456.0043083900227	74	127
456.03913832199544	456.2713378684807	57	127
456.03913832199544	456.4687074829932	73	127
456.03913832199544	456.2713378684807	61	127
456.29455782312925	456.4687074829932	64	127
456.4687074829932	456.64285714285717	61	127
456.4687074829932	456.8170068027211	69	127
456.4687074829932	456.64285714285717	57	127
456.6544671201814	456.8170068027211	64	127
456.82861678004537	457.24657596371884	68	127
456.82861678004537	457.0840362811791	59	127
456.82861678004537	457.0840362811791	56	127
457.0840362811791	457.24657596371884	64	127
457.2581859410431	457.47877551020406	59	127
457.2581859410431	457.65292517006804	71	127
457.2581859410431	457.47877551020406	56	127
457.47877551020406	457.65292517006804	64	127
457.6645351473923	457.83868480725624	57	127
457.6645351473923	458.87197278911566	69	127
457.6645351473923	457.83868480725624	61	127
457.8502947845805	458.02444444444444	64	127
458.02444444444444	458.2218140589569	57	127
458.02444444444444	458.2218140589569	61	127
458.2334240362812	458.4540136054422	64	127
458.46562358276645	458.6746031746032	61	127
458.46562358276645	458.6746031746032	57	127
458.6746031746032	458.87197278911566	64	127
458.88358276643993	459.09256235827667	64	127
458.88358276643993	459.3595918367347	79	127
458.88358276643993	459.09256235827667	57	127
459.09256235827667	459.3595918367347	67	127
459.37120181405896	459.55696145124716	57	127
459.37120181405896	460.25356009070293	78	127
459.37120181405896	459.55696145124716	62	127
459.56857142857143	459.74272108843536	66	127
459.74272108843536	459.97492063492064	62	127
459.74272108843536	459.97492063492064	57	127
459.9865306122449	460.25356009070293	66	127
460.2651700680272	461.04303854875286	77	127
460.2651700680272	460.4509297052154	59	127
460.2651700680272	460.4509297052154	62	127
460.4509297052154	460.6134693877551	65	127
460.64829931972787	460.88049886621314	59	127
460.64829931972787	460.88049886621314	62	127
460.88049886621314	461.04303854875286	65	127
461.0546485260771	462.37818594104306	76	127
461.0546485260771	461.22879818594106	59	127
461.0546485260771	461.22879818594106	62	127
461.24040816326533	461.4609977324263	64	127
461.4609977324263	461.6815873015873	59	127
461.4609977324263	461.6815873015873	62	127
461.69319727891155	461.91378684807256	64	127
461.91378684807256	462.13437641723357	57	127
461.91378684807256	462.13437641723357	61	127
462.14598639455784	462.37818594104306	64	127
462.2736961451247	462.4826757369614	79	127
462.3897959183673	462.5639455782313	64	127
462.3897959183673	462.5639455782313	57	127
462.3897959183673	462.7497052154195	91	127
462.5639455782313	462.7497052154195	67	127
462.6684353741497	462.86580498866215	78	127
462.7613151927438	462.947074829932	57	127
462.7613151927438	462.947074829932	62	127
462.7613151927438	463.59723356009073	90	127
462.95868480725625	463.167664399093	66	127
463.167664399093	463.3534240362812	62	127
463.167664399093	463.3534240362812	57	127
463.36503401360545	463.59723356009073	66	127
463.45791383219955	463.7017233560091	77	127
463.59723356009073	463.7946031746032	59	127
463.59723356009073	464.4447619047619	89	127
463.59723356009073	463.7946031746032	62	127
463.80621315192747	463.9803628117914	65	127
463.99197278911566	464.23578231292515	59	127
463.99197278911566	464.23578231292515	62	127
464.23578231292515	464.4447619047619	65	127
464.36349206349206	464.54925170068026	76	127
464.46798185941043	465.72185941043085	88	127
464.46798185941043	464.6189115646259	62	127
464.46798185941043	464.6189115646259	59	127
464.6305215419501	464.76984126984127	64	127
464.76984126984127	464.95560090702946	62	127
464.76984126984127	464.95560090702946	59	127
464.96721088435373	465.17619047619047	64	127
465.17619047619047	465.4432199546485	57	127
465.17619047619047	465.4432199546485	61	127
465.45482993197277	465.72185941043085	64	127
465.55931972789114	465.81473922902495	79	127
465.7334693877551	465.90761904761905	57	127
465.7334693877551	466.09337868480725	91	127
465.7334693877551	465.90761904761905	64	127
465.90761904761905	466.09337868480725	67	127
466.0121088435374	466.18625850340135	78	127
466.1049886621315	466.789977324263	90	127
466.1049886621315	466.27913832199545	57	127
466.18625850340135	466.36040816326533	66	127
466.27913832199545	466.4300680272109	62	127
466.37201814058955	466.5113378684807	66	127
466.4300680272109	466.59260770975055	57	127
466.5113378684807	466.68548752834465	66	127
466.6042176870748	466.789977324263	62	127
466.6970975056689	466.8712471655329	81	127
466.6970975056689	466.8712471655329	66	127
466.789977324263	467.6491156462585	93	127
466.789977324263	466.95251700680274	57	127
466.8828571428571	467.04539682539684	66	127
466.964126984127	467.13827664399093	60	127
467.04539682539684	467.23115646258503	66	127
467.1498866213152	467.32403628117913	57	127
467.2427664399093	467.48657596371885	66	127
467.32403628117913	467.6491156462585	60	127
467.49818594104306	467.6491156462585	66	127
467.49818594104306	467.7536054421769	81	127
467.6607256235828	468.4618140589569	93	127
467.6607256235828	467.85809523809525	57	127
467.76521541950115	467.95097505668934	64	127
467.8697052154195	468.0554648526077	61	127
467.95097505668934	468.1483446712018	64	127
468.0554648526077	468.2412244897959	57	127
468.1483446712018	468.3457142857143	64	127
468.2412244897959	468.4618140589569	61	127
468.3689342403628	468.5895238095238	81	127
468.3689342403628	468.5895238095238	64	127
468.4734240362812	468.6940136054422	57	127
468.4734240362812	469.4254421768708	93	127
468.6011337868481	468.79850340136056	65	127
468.70562358276646	468.89138321995466	61	127
468.81011337868483	469.0074829931973	65	127
468.90299319727893	469.18163265306123	57	127
469.01909297052157	469.29773242630387	65	127
469.1932426303855	469.4254421768708	61	127
469.3325623582766	469.4254421768708	65	127
469.3325623582766	469.57637188208616	81	127
469.437052154195	469.66925170068026	57	127
469.437052154195	470.66770975056687	93	127
469.58798185941043	469.7853514739229	66	127
469.68086167800453	469.878231292517	62	127
469.7853514739229	469.98272108843537	66	127
469.88984126984127	470.07560090702947	57	127
469.99433106575964	470.16848072562357	66	127
470.07560090702947	470.26136054421767	62	127
470.18009070294784	470.35424036281177	66	127
470.27297052154194	470.45873015873013	57	127
470.35424036281177	470.5748299319728	66	127
470.45873015873013	470.66770975056687	62	127
470.58643990929704	470.7838095238095	66	127
470.67931972789114	470.86507936507934	92	127
470.67931972789114	470.86507936507934	57	127
470.7838095238095	471.0043990929705	66	127
470.8766893424036	471.1437188208617	62	127
470.8766893424036	471.1437188208617	90	127
471.0160090702948	471.24820861678006	88	127
471.0160090702948	471.1437188208617	66	127
471.1437188208617	471.3643083900227	59	127
471.1437188208617	471.3643083900227	90	127
471.25981859410433	471.49201814058955	64	127
471.25981859410433	471.49201814058955	92	127
471.3759183673469	471.6081179138322	90	127
471.3759183673469	471.6081179138322	62	127
471.49201814058955	471.71260770975056	64	127
471.61972789115646	471.80548752834466	59	127
471.61972789115646	472.4556462585034	88	127
471.7242176870748	471.89836734693876	64	127
471.80548752834466	472.0028571428571	62	127
471.89836734693876	472.11895691609976	64	127
472.0144671201814	472.2350566893424	59	127
472.13056689342403	472.3627664399093	64	127
472.2350566893424	472.4556462585034	62	127
472.3743764172336	472.5833560090703	64	127
472.4672562358277	472.8387755102041	86	127
472.4672562358277	472.6530158730159	59	127
472.5833560090703	472.74589569161	64	127
472.66462585034014	472.8387755102041	62	127
472.75750566893424	472.8387755102041	64	127
472.8387755102041	473.03614512471654	86	127
472.8387755102041	473.03614512471654	57	127
472.94326530612244	473.1522448979592	64	127
473.0477551020408	473.2451247165533	85	127
473.0477551020408	473.2451247165533	61	127
473.1522448979592	473.38444444444445	64	127
473.2799546485261	473.47732426303855	61	127
473.2799546485261	473.47732426303855	84	127
473.3960544217687	473.60503401360546	64	127
473.4889342403628	473.69791383219956	85	127
473.4889342403628	473.69791383219956	61	127
473.60503401360546	473.8140136054422	64	127
473.7211337868481	473.91850340136057	88	127
473.7211337868481	473.91850340136057	59	127
473.82562358276647	473.9997732426304	66	127
473.91850340136057	474.0810430839002	59	127
473.91850340136057	474.0810430839002	86	127
473.9997732426304	474.2319727891157	66	127
474.0926530612245	474.3248526077098	78	127
474.0926530612245	474.3248526077098	59	127
474.2319727891157	474.4641723356009	66	127
474.3596825396825	474.557052154195	83	127
474.3596825396825	474.557052154195	59	127
474.47578231292516	474.557052154195	66	127
474.557052154195	474.75442176870746	83	127
474.557052154195	474.75442176870746	61	127
474.66154195011336	474.8473015873016	64	127
474.76603174603173	474.9401814058957	81	127
474.76603174603173	474.9401814058957	61	127
474.8473015873016	475.02145124716554	64	127
474.9401814058957	475.11433106575964	61	127
474.9401814058957	475.11433106575964	80	127
475.0330612244898	475.20721088435374	64	127
475.1259410430839	475.2884807256236	81	127
475.1259410430839	475.2884807256236	61	127
475.20721088435374	475.4045804988662	64	127
475.30009070294784	475.5090702947846	56	127
475.30009070294784	475.5090702947846	85	127
475.4161904761905	475.6019501133787	64	127
475.52068027210885	475.67160997732424	56	127
475.52068027210885	475.67160997732424	83	127
475.6019501133787	475.7877097505669	64	127
475.67160997732424	475.89219954648524	82	127
475.67160997732424	475.89219954648524	56	127
475.79931972789115	476.0082993197279	64	127
475.89219954648524	476.1243990929705	83	127
475.89219954648524	476.1243990929705	56	127
476.0082993197279	476.1243990929705	64	127
476.1360090702948	476.3449886621315	54	127
476.1360090702948	476.3449886621315	81	127
476.24049886621316	476.4494784580499	62	127
476.3565986394558	476.542358276644	81	127
476.3565986394558	476.542358276644	93	127
476.3565986394558	476.542358276644	57	127
476.46108843537417	476.6352380952381	62	127
476.55396825396826	476.73972789115646	54	127
476.55396825396826	476.73972789115646	81	127
476.55396825396826	476.73972789115646	93	127
476.64684807256236	476.84421768707483	62	127
476.75133786848073	476.92548752834466	93	127
476.75133786848073	476.92548752834466	81	127
476.75133786848073	476.92548752834466	57	127
476.84421768707483	477.0067573696145	62	127
476.92548752834466	477.12285714285713	54	127
476.92548752834466	477.12285714285713	93	127
476.92548752834466	477.12285714285713	81	127
477.01836734693876	477.2157369614512	62	127
477.12285714285713	477.3202267573696	81	127
477.12285714285713	477.3202267573696	57	127
477.12285714285713	477.3202267573696	93	127
477.23895691609977	477.42471655328796	62	127
477.3202267573696	477.51759637188206	80	127
477.3202267573696	477.51759637188206	92	127
477.3202267573696	477.51759637188206	54	127
477.42471655328796	477.6336961451247	62	127
477.5408163265306	477.73818594104307	78	127
477.5408163265306	477.73818594104307	90	127
477.5408163265306	477.73818594104307	57	127
477.64530612244897	477.84267573696144	62	127
477.73818594104307	477.9471655328798	78	127
477.73818594104307	477.9471655328798	56	127
477.73818594104307	477.9471655328798	90	127
477.8542857142857	478.0400453514739	64	127
477.9587755102041	478.132925170068	76	127
477.9587755102041	478.132925170068	59	127
477.9587755102041	478.132925170068	88	127
478.0516553287982	478.2141950113379	64	127
478.132925170068	478.307074829932	56	127
478.132925170068	478.307074829932	76	127
478.132925170068	478.307074829932	88	127
478.2258049886621	478.3883446712018	64	127
478.31868480725626	478.46961451247165	76	127
478.31868480725626	478.46961451247165	88	127
478.31868480725626	478.46961451247165	59	127
478.3883446712018	478.56249433106575	64	127
478.4812244897959	478.65537414965985	76	127
478.4812244897959	478.65537414965985	56	127
478.4812244897959	478.65537414965985	88	127
478.57410430839	478.7714739229025	64	127
478.65537414965985	478.8991836734694	59	127
478.65537414965985	478.8991836734694	88	127
478.65537414965985	478.8991836734694	76	127
478.78308390022676	479.01528344671203	64	127
478.91079365079366	479.1197732426304	56	127
478.91079365079366	479.1197732426304	76	127
478.91079365079366	479.1197732426304	88	127
479.01528344671203	479.22426303854877	64	127
479.13138321995467	479.31714285714287	59	127
479.13138321995467	479.31714285714287	74	127
479.13138321995467	479.31714285714287	86	127
479.23587301587304	479.4332426303855	64	127
479.31714285714287	479.51451247165534	74	127
479.31714285714287	479.51451247165534	86	127
479.31714285714287	479.51451247165534	57	127
479.4332426303855	479.60739229024944	64	127
479.5261224489796	479.78154195011336	85	127
479.5261224489796	479.78154195011336	73	127
479.5261224489796	479.78154195011336	61	127
479.65383219954646	479.8628117913832	64	127
479.78154195011336	479.96730158730156	57	127
479.78154195011336	479.96730158730156	72	127
479.78154195011336	479.96730158730156	84	127
479.87442176870746	480.0601814058957	64	127
479.97891156462583	480.14145124716555	61	127
479.97891156462583	480.14145124716555	85	127
479.97891156462583	480.14145124716555	73	127
480.0601814058957	480.23433106575965	64	127
480.1530612244898	480.338820861678	88	127
480.1530612244898	480.338820861678	76	127
480.1530612244898	480.338820861678	50	127
480.2459410430839	480.4897505668934	59	127
480.338820861678	480.5826303854875	86	127
480.338820861678	480.5826303854875	54	127
480.338820861678	480.5826303854875	74	127
480.5013605442177	480.67551020408166	59	127
480.5942403628118	480.76839002267576	50	127
480.5942403628118	480.76839002267576	78	127
480.5942403628118	480.76839002267576	66	127
480.67551020408166	480.8496598639456	59	127
480.76839002267576	480.95414965986396	83	127
480.76839002267576	480.95414965986396	54	127
480.76839002267576	480.95414965986396	71	127
480.87287981859413	481.08185941043087	59	127
480.9657596371882	481.1631292517007	71	127
480.9657596371882	481.1631292517007	52	127
480.9657596371882	481.1631292517007	83	127
481.08185941043087	481.27922902494333	61	127
481.17473922902496	481.37210884353743	69	127
481.17473922902496	481.37210884353743	81	127
481.17473922902496	481.37210884353743	57	127
481.29083900226755	481.46498866213153	61	127
481.37210884353743	481.55786848072563	68	127
481.37210884353743	481.55786848072563	80	127
481.37210884353743	481.55786848072563	52	127
481.4765986394558	481.65074829931973	61	127
481.5694784580499	481.73201814058956	81	127
481.5694784580499	481.73201814058956	57	127
481.5694784580499	481.73201814058956	69	127
481.65074829931973	481.82489795918366	61	127
481.74362811791383	481.929387755102	73	127
481.74362811791383	481.929387755102	52	127
481.74362811791383	481.929387755102	85	127
481.8365079365079	482.01065759637186	59	127
481.929387755102	482.13836734693876	71	127
481.929387755102	482.13836734693876	83	127
481.929387755102	482.13836734693876	56	127
482.0338775510204	482.23124716553286	59	127
482.14997732426303	482.33573696145123	70	127
482.14997732426303	482.33573696145123	52	127
482.14997732426303	482.33573696145123	82	127
482.24285714285713	482.42861678004533	59	127
482.33573696145123	482.52149659863943	83	127
482.33573696145123	482.52149659863943	56	127
482.33573696145123	482.52149659863943	71	127
482.4402267573696	482.52149659863943	59	127
482.54471655328797	482.71886621315195	57	127
482.54471655328797	482.71886621315195	74	127
482.63759637188207	482.8465759637188	86	127
482.63759637188207	482.8465759637188	64	127
482.73047619047617	482.9742857142857	61	127
482.73047619047617	482.9742857142857	73	127
482.8581859410431	483.09038548752835	85	127
482.8581859410431	483.09038548752835	64	127
482.9742857142857	483.206485260771	72	127
482.9742857142857	483.206485260771	57	127
483.1019954648526	483.2993650793651	64	127
483.1019954648526	483.2993650793651	84	127
483.21809523809526	483.3806349206349	61	127
483.21809523809526	483.3806349206349	73	127
483.2993650793651	483.473514739229	85	127
483.2993650793651	483.473514739229	64	127
483.3922448979592	483.5780045351474	50	127
483.3922448979592	483.5780045351474	76	127
483.4851247165533	483.6708843537415	88	127
483.4851247165533	483.6708843537415	59	127
483.5780045351474	483.7521541950113	54	127
483.5780045351474	483.7521541950113	74	127
483.6708843537415	483.8334240362812	59	127
483.6708843537415	483.8334240362812	86	127
483.7637641723356	483.91469387755103	50	127
483.7637641723356	483.91469387755103	66	127
483.84503401360547	484.0191836734694	78	127
483.84503401360547	484.0191836734694	59	127
483.91469387755103	484.1120634920635	71	127
483.91469387755103	484.1120634920635	54	127
484.03079365079367	484.27460317460316	83	127
484.03079365079367	484.27460317460316	59	127
484.12367346938777	484.3907029478458	52	127
484.12367346938777	484.3907029478458	71	127
484.27460317460316	484.4835827664399	83	127
484.27460317460316	484.4835827664399	61	127
484.40231292517007	484.59968253968253	69	127
484.40231292517007	484.59968253968253	57	127
484.49519274376416	484.69256235827663	61	127
484.49519274376416	484.69256235827663	81	127
484.59968253968253	484.797052154195	52	127
484.59968253968253	484.797052154195	68	127
484.7041723356009	484.8899319727891	61	127
484.7041723356009	484.8899319727891	80	127
484.80866213151927	485.0292517006803	69	127
484.80866213151927	485.0292517006803	57	127
484.8899319727891	485.1221315192744	61	127
484.8899319727891	485.1221315192744	81	127
485.0292517006803	485.2034013605442	52	127
485.0292517006803	485.2034013605442	73	127
485.13374149659865	485.28467120181404	59	127
485.13374149659865	485.28467120181404	85	127
485.2034013605442	485.3891609977324	71	127
485.2034013605442	485.3891609977324	56	127
485.28467120181404	485.4820408163265	59	127
485.28467120181404	485.4820408163265	83	127
485.4007709750567	485.66780045351476	52	127
485.4007709750567	485.66780045351476	70	127
485.54009070294785	485.76068027210886	82	127
485.54009070294785	485.76068027210886	59	127
485.66780045351476	485.8767800453515	71	127
485.66780045351476	485.8767800453515	56	127
485.7722902494331	485.8767800453515	59	127
485.7722902494331	485.8767800453515	83	127
485.9232199546485	486.08575963718823	57	127
485.9232199546485	486.08575963718823	52	127
485.9232199546485	486.08575963718823	49	127
485.9232199546485	486.08575963718823	73	127
485.9232199546485	486.08575963718823	45	127
486.00448979591835	486.17863945578233	85	127
486.09736961451244	486.29473922902497	81	127
486.09736961451244	486.29473922902497	45	127
486.1902494331066	486.3760090702948	93	127
486.29473922902497	486.49210884353744	45	127
486.29473922902497	486.49210884353744	81	127
486.38761904761907	486.58498866213154	93	127
486.50371882086165	486.67786848072564	45	127
486.50371882086165	486.67786848072564	81	127
486.5965986394558	486.77074829931973	93	127
486.67786848072564	486.86362811791383	81	127
486.67786848072564	486.86362811791383	45	127
486.782358276644	486.95650793650793	93	127
486.8752380952381	487.04938775510203	45	127
486.8752380952381	487.04938775510203	81	127
486.95650793650793	487.1538775510204	93	127
487.0609977324263	487.25836734693877	42	127
487.0609977324263	487.25836734693877	78	127
487.16548752834467	487.3396371882086	90	127
487.25836734693877	487.4325170068027	39	127
487.25836734693877	487.4325170068027	75	127
487.35124716553287	487.52539682539685	87	127
487.44412698412697	487.6066666666667	76	127
487.44412698412697	487.6066666666667	40	127
487.52539682539685	487.7227664399093	88	127
487.61827664399095	487.8272562358277	76	127
487.61827664399095	487.8272562358277	40	127
487.73437641723353	487.9201360544218	88	127
487.8272562358277	488.0014058956916	37	127
487.8272562358277	488.0014058956916	73	127
487.9201360544218	488.10589569161	85	127
488.0130158730159	488.1987755102041	69	127
488.0130158730159	488.1987755102041	33	127
488.11750566893426	488.30326530612246	81	127
488.1987755102041	488.39614512471655	40	127
488.1987755102041	488.39614512471655	76	127
488.1987755102041	488.39614512471655	73	127
488.30326530612246	488.5122448979592	85	127
488.30326530612246	488.5122448979592	88	127
488.39614512471655	488.6051247165533	76	127
488.39614512471655	488.6051247165533	40	127
488.5122448979592	488.6980045351474	88	127
488.61673469387756	488.8257142857143	64	127
488.61673469387756	488.8257142857143	40	127
488.70961451247166	488.9185941043084	76	127
488.83732426303857	489.0579138321996	64	127
488.83732426303857	489.0579138321996	40	127
488.93020408163267	489.0579138321996	76	127
489.0695238095238	489.2901133786848	64	127
489.0695238095238	489.5107029478458	45	127
489.0695238095238	489.5107029478458	33	127
489.1507936507937	489.39460317460316	73	127
489.1507936507937	489.39460317460316	69	127
489.2901133786848	489.5107029478458	76	127
489.39460317460316	489.6035827664399	73	127
489.39460317460316	489.6035827664399	69	127
489.52231292517007	489.696462585034	64	127
489.61519274376417	489.7893424036281	69	127
489.61519274376417	489.7893424036281	73	127
489.70807256235827	489.89383219954647	76	127
489.80095238095237	490.0215419501134	73	127
489.80095238095237	490.0215419501134	69	127
489.90544217687074	490.1144217687075	64	127
490.0215419501134	490.1956916099773	74	127
490.0215419501134	490.1956916099773	71	127
490.1144217687075	490.2769614512472	76	127
490.1956916099773	490.3698412698413	74	127
490.1956916099773	490.3698412698413	71	127
490.2885714285714	490.4859410430839	64	127
490.38145124716556	490.5904308390023	68	127
490.38145124716556	490.5904308390023	74	127
490.49755102040814	490.6717006802721	76	127
490.6020408163265	490.6717006802721	74	127
490.6020408163265	490.6717006802721	68	127
490.6833106575964	491.0432199546485	49	127
490.6833106575964	490.8690702947846	64	127
490.7761904761905	490.9619501133787	69	127
490.7761904761905	490.9619501133787	73	127
490.8690702947846	491.0432199546485	76	127
490.9619501133787	491.1709297052154	73	127
490.9619501133787	491.1709297052154	69	127
491.0548299319728	491.4495691609977	45	127
491.0548299319728	491.2638095238095	64	127
491.1825396825397	491.3566893424036	73	127
491.1825396825397	491.3566893424036	69	127
491.2754195011338	491.4495691609977	76	127
491.3682993197279	491.5540589569161	73	127
491.3682993197279	491.5540589569161	69	127
491.461179138322	491.87913832199547	44	127
491.461179138322	491.681768707483	64	127
491.5540589569161	491.78625850340137	71	127
491.5540589569161	491.78625850340137	74	127
491.681768707483	491.87913832199547	76	127
491.78625850340137	491.97201814058957	74	127
491.78625850340137	491.97201814058957	71	127
491.89074829931974	492.07650793650794	64	127
491.89074829931974	492.2738775510204	47	127
491.98362811791384	492.1809977324263	71	127
491.98362811791384	492.1809977324263	74	127
492.0997278911565	492.2738775510204	76	127
492.1926077097506	492.2738775510204	74	127
492.1926077097506	492.2738775510204	71	127
492.2854875283447	493.51614512471656	40	127
492.2854875283447	492.4712471655329	64	127
492.4015873015873	492.564126984127	73	127
492.4015873015873	492.564126984127	69	127
492.4712471655329	492.65700680272107	76	127
492.564126984127	492.784716553288	73	127
492.564126984127	492.784716553288	69	127
492.6802267573696	492.88920634920635	64	127
492.79632653061225	492.9936961451247	73	127
492.79632653061225	492.9936961451247	69	127
492.9008163265306	493.0865759637188	76	127
493.005306122449	493.16784580498864	69	127
493.005306122449	493.16784580498864	73	127
493.0981859410431	493.26072562358274	64	127
493.1794557823129	493.35360544217684	71	127
493.1794557823129	493.35360544217684	74	127
493.26072562358274	493.51614512471656	76	127
493.35360544217684	493.5974149659864	71	127
493.35360544217684	493.5974149659864	74	127
493.51614512471656	493.73673469387757	64	127
493.51614512471656	493.73673469387757	42	127
493.60902494331066	493.84122448979593	71	127
493.60902494331066	493.84122448979593	74	127
493.60902494331066	493.84122448979593	44	127
493.74834467120183	493.9573242630386	45	127
493.74834467120183	493.9573242630386	76	127
493.8528344671202	493.9573242630386	71	127
493.8528344671202	493.9573242630386	47	127
493.8528344671202	493.9573242630386	74	127
493.9689342403628	494.3520634920635	49	127
493.9689342403628	494.15469387755104	64	127
494.06181405895694	494.2591836734694	73	127
494.06181405895694	494.2591836734694	69	127
494.15469387755104	494.3520634920635	76	127
494.2591836734694	494.43333333333334	69	127
494.2591836734694	494.43333333333334	73	127
494.3520634920635	494.52621315192744	64	127
494.3520634920635	494.71197278911563	45	127
494.4449433106576	494.60748299319727	73	127
494.4449433106576	494.60748299319727	69	127
494.52621315192744	494.71197278911563	76	127
494.61909297052154	494.80485260770973	69	127
494.61909297052154	494.80485260770973	73	127
494.7235827664399	494.89773242630383	64	127
494.7235827664399	495.10671201814057	44	127
494.816462585034	495.01383219954647	69	127
494.816462585034	495.01383219954647	73	127
494.89773242630383	495.10671201814057	76	127
495.01383219954647	495.18798185941046	73	127
495.01383219954647	495.18798185941046	69	127
495.10671201814057	495.4898412698413	47	127
495.10671201814057	495.28086167800456	64	127
495.19959183673467	495.3853514739229	69	127
495.19959183673467	495.3853514739229	73	127
495.2924716553288	495.4898412698413	76	127
495.3969614512472	495.4898412698413	73	127
495.3969614512472	495.4898412698413	69	127
495.5130612244898	495.7220408163265	69	127
495.5130612244898	495.9542403628118	49	127
495.6407709750567	495.8613605442177	73	127
495.7220408163265	495.9542403628118	76	127
495.8613605442177	496.0355102040816	73	127
495.9542403628118	496.3489795918367	45	127
495.9542403628118	496.1283900226757	69	127
496.0471201814059	496.24448979591835	73	127
496.14	496.3489795918367	76	127
496.2560997732426	496.4534693877551	73	127
496.360589569161	496.79015873015874	44	127
496.360589569161	496.581179138322	69	127
496.46507936507936	496.6740589569161	73	127
496.59278911564627	496.79015873015874	76	127
496.6740589569161	496.87142857142857	73	127
496.79015873015874	496.96430839002267	69	127
496.79015873015874	497.16167800453513	47	127
496.88303854875284	497.06879818594103	73	127
496.97591836734694	497.16167800453513	76	127
497.0804081632653	497.16167800453513	73	127
497.1732879818594	497.56802721088434	45	127
497.1732879818594	497.34743764172333	73	127
497.2661678004535	497.4867573696145	76	127
497.3590476190476	497.56802721088434	81	127
497.4867573696145	497.64929705215417	76	127
497.56802721088434	497.9279365079365	40	127
497.56802721088434	497.73056689342405	73	127
497.64929705215417	497.8350566893424	76	127
497.75378684807254	497.9279365079365	81	127
497.8466666666667	498.04403628117916	76	127
497.95115646258506	498.125306122449	73	127
497.95115646258506	498.32267573696146	39	127
498.05564625850343	498.2181859410431	76	127
498.13691609977326	498.32267573696146	81	127
498.22979591836736	498.4271655328798	76	127
498.3342857142857	498.7522448979592	42	127
498.3342857142857	498.55487528344673	73	127
498.4271655328798	498.6593650793651	76	127
498.55487528344673	498.7522448979592	81	127
498.6593650793651	498.7522448979592	76	127
498.7522448979592	499.00766439909296	76	127
498.7522448979592	499.1702040816327	40	127
498.87995464852605	499.0773242630386	81	127
499.01927437641723	499.1702040816327	85	127
499.0889342403628	499.2630839002268	81	127
499.1818140589569	499.36757369614514	76	127
499.1818140589569	499.51850340136053	37	127
499.27469387755104	499.46045351473924	81	127
499.36757369614514	499.51850340136053	85	127
499.4720634920635	499.61138321995463	81	127
499.5301133786848	499.890022675737	35	127
499.5301133786848	499.69265306122446	76	127
499.6229931972789	499.7855328798186	81	127
499.69265306122446	499.890022675737	85	127
499.8087528344671	500.01773242630384	81	127
499.91324263038547	500.3079818594104	38	127
499.91324263038547	500.11061224489794	76	127
500.01773242630384	500.2151020408163	81	127
500.1222222222222	500.3079818594104	85	127
500.2151020408163	500.3079818594104	81	127
500.3195918367347	500.7259410430839	37	127
500.3195918367347	500.51696145124714	81	127
500.42408163265304	500.6098412698413	85	127
500.5285714285714	500.7259410430839	88	127
500.6098412698413	500.8536507936508	85	127
500.73755102040815	500.9697505668934	81	127
500.73755102040815	501.17873015873016	33	127
500.86526077097506	501.0626303854875	85	127
500.9697505668934	501.17873015873016	88	127
501.0742403628118	501.26	85	127
501.19034013605443	501.36448979591836	81	127
501.19034013605443	501.5618594104308	32	127
501.27160997732426	501.4689795918367	85	127
501.37609977324263	501.5618594104308	88	127
501.480589569161	501.67795918367347	85	127
501.58507936507937	502.0262585034014	35	127
501.58507936507937	501.78244897959183	81	127
501.68956916099773	501.8985487528345	85	127
501.7940589569161	502.0262585034014	88	127
501.8985487528345	502.0262585034014	85	127
502.03786848072565	502.40938775510205	85	127
502.03786848072565	502.40938775510205	81	127
502.03786848072565	502.22362811791385	33	127
502.03786848072565	502.40938775510205	88	127
502.2352380952381	502.40938775510205	33	127
502.4209977324263	502.62997732426305	33	127
502.6415873015873	502.8273469387755	33	127
502.8273469387755	502.9898866213152	33	127
502.9898866213152	503.1524263038549	33	127
503.16403628117916	503.4310657596372	33	127
503.44267573696146	503.66326530612247	33	127
503.67487528344674	503.86063492063494	81	127
503.67487528344674	503.86063492063494	85	127
503.67487528344674	503.86063492063494	33	127
503.67487528344674	503.86063492063494	88	127
503.8838548752834	504.13927437641723	88	127
503.8838548752834	504.13927437641723	81	127
503.8838548752834	504.13927437641723	33	127
503.8838548752834	504.13927437641723	85	127
504.13927437641723	504.41791383219953	81	127
504.13927437641723	504.41791383219953	88	127
504.13927437641723	504.41791383219953	33	127
504.13927437641723	504.41791383219953	85	127
504.41791383219953	504.60367346938773	33	127
504.41791383219953	504.60367346938773	81	127
504.41791383219953	504.60367346938773	88	127
504.41791383219953	504.60367346938773	85	127
504.60367346938773	504.7778231292517	88	127
504.60367346938773	504.7778231292517	85	127
504.60367346938773	504.7778231292517	33	127
504.60367346938773	504.7778231292517	81	127
504.789433106576	504.98680272108845	88	127
504.789433106576	504.98680272108845	33	127
504.789433106576	504.98680272108845	81	127
504.789433106576	504.98680272108845	85	127
504.9984126984127	505.21900226757367	85	127
504.9984126984127	505.21900226757367	33	127
504.9984126984127	505.21900226757367	81	127
504.9984126984127	505.21900226757367	88	127
505.23061224489794	505.4279818594104	81	127
505.23061224489794	505.4279818594104	88	127
505.23061224489794	505.4279818594104	85	127
505.23061224489794	505.4279818594104	33	127
505.45120181405895	505.63696145124715	33	127
505.63696145124715	505.81111111111113	33	127
505.81111111111113	506.0317006802721	33	127
506.04331065759635	506.20585034013607	33	127
506.21746031746034	506.40321995464853	33	127
506.4148299319728	506.5657596371882	33	127
506.57736961451246	506.79795918367347	85	127
506.57736961451246	506.79795918367347	81	127
506.57736961451246	506.79795918367347	33	127
506.57736961451246	506.79795918367347	88	127
506.86761904761903	507.07659863945577	85	127
506.86761904761903	507.07659863945577	81	127
506.86761904761903	507.07659863945577	33	127
506.86761904761903	507.07659863945577	88	127
507.07659863945577	507.2855782312925	88	127
507.07659863945577	507.2855782312925	33	127
507.07659863945577	507.2855782312925	85	127
507.07659863945577	507.2855782312925	81	127
507.2971882086168	507.4597278911565	85	127
507.2971882086168	507.4597278911565	81	127
507.2971882086168	507.4597278911565	33	127
507.2971882086168	507.4597278911565	88	127
507.4713378684807	507.68031746031744	85	127
507.4713378684807	507.68031746031744	33	127
507.4713378684807	507.68031746031744	88	127
507.4713378684807	507.68031746031744	81	127
507.68031746031744	507.8776870748299	81	127
507.68031746031744	507.8776870748299	88	127
507.68031746031744	507.8776870748299	85	127
507.68031746031744	507.8776870748299	33	127
507.8892970521542	508.0982766439909	81	127
507.8892970521542	508.0982766439909	88	127
507.8892970521542	508.0982766439909	85	127
507.8892970521542	508.0982766439909	33	127
508.1098866213152	508.35369614512473	93	127
508.1098866213152	508.35369614512473	88	127
508.1098866213152	508.35369614512473	85	127
508.1098866213152	508.35369614512473	37	127
508.1098866213152	508.35369614512473	33	127
508.1098866213152	508.35369614512473	81	127
508.1098866213152	508.35369614512473	45	127
508.1098866213152	508.35369614512473	40	127
508.365306122449	508.62072562358276	33	127
508.365306122449	508.62072562358276	88	127
508.365306122449	508.62072562358276	45	127
508.365306122449	508.62072562358276	85	127
508.365306122449	508.62072562358276	81	127
508.365306122449	508.62072562358276	40	127
508.365306122449	508.62072562358276	93	127
508.365306122449	508.62072562358276	37	127
508.632335600907	508.93419501133786	40	127
508.632335600907	508.93419501133786	37	127
508.632335600907	508.93419501133786	45	127
508.632335600907	508.93419501133786	33	127
508.632335600907	508.93419501133786	88	127
508.632335600907	508.93419501133786	85	127
508.632335600907	508.93419501133786	81	127
508.632335600907	508.93419501133786	93	127
508.98063492063494	510.13002267573694	40	127
508.98063492063494	510.13002267573694	37	127
508.98063492063494	510.13002267573694	81	127
508.98063492063494	510.13002267573694	85	127
508.98063492063494	510.13002267573694	88	127
508.98063492063494	510.13002267573694	93	127
508.98063492063494	510.13002267573694	33	127
508.98063492063494	510.13002267573694	45	127
510.6873015873016	512.161768707483	40	127
510.6873015873016	512.161768707483	81	127
510.6873015873016	512.161768707483	69	127
510.6873015873016	512.161768707483	45	127
510.6873015873016	512.161768707483	76	127
510.6873015873016	512.161768707483	37	127
510.6873015873016	512.161768707483	73	127
510.6873015873016	512.161768707483	33	127
553.6674376417234	554.7123356009071	61	127
553.6674376417234	554.7123356009071	69	127
553.6674376417234	554.7123356009071	57	127
553.6674376417234	554.7123356009071	64	127
553.6674376417234	554.7123356009071	37	127
553.6674376417234	554.7123356009071	45	127
553.6674376417234	554.7123356009071	40	127
553.6674376417234	554.7123356009071	33	127
