# onset,offset,note,velocity
21.01328798185941	22.46453514739229	79	127
22.38326530612245	22.592244897959183	75	127
22.510975056689343	22.719954648526077	77	127
22.638684807256237	22.812834467120183	79	127
22.74315192743764	22.917324263038548	75	127
22.917324263038548	23.300453514739228	72	127
24.995510204081633	26.43514739229025	84	127
26.353877551020407	26.551247165532878	80	127
26.469977324263038	26.66734693877551	82	127
26.59768707482993	26.760226757369615	84	127
26.67895691609977	26.88793650793651	80	127
26.88793650793651	27.224625850340136	77	127
28.989342403628118	30.266439909297052	77	127
30.266439909297052	30.37092970521542	75	127
30.301269841269843	30.52185941043084	74	127
30.41736961451247	30.661179138321994	72	127
30.55668934240363	30.788888888888888	71	127
30.696009070294785	32.170476190476194	79	127
32.07759637188209	32.28655328798186	77	127
32.20530612244898	32.414263038548754	75	127
32.333015873015874	32.54197278911565	74	127
32.46072562358277	32.66968253968254	72	127
32.66968253968254	33.644943310657595	72	127
33.55204081632653	34.585351473922906	71	127
34.585351473922906	34.93365079365079	72	127
36.814467120181405	37.06988662131519	72	127
36.988616780045355	37.302086167800454	74	127
37.20920634920635	37.51106575963719	72	127
37.44140589569161	38.77655328798186	71	127
38.77655328798186	39.00873015873016	74	127
38.91587301587302	39.22934240362812	75	127
39.14807256235828	39.438321995464854	71	127
39.438321995464854	40.204580498866214	72	127
40.12331065759637	40.483219954648526	69	127
40.483219954648526	41.06371882086168	63	127
40.970839002267574	42.073786848072565	67	127
42.073786848072565	42.60784580498866	67	127
42.60784580498866	42.85165532879819	61	127
42.770385487528344	43.09546485260771	62	127
43.01419501133787	43.31603174603175	63	127
43.23478458049887	43.536643990929704	64	127
43.46698412698413	43.768843537414966	65	127
43.69916099773243	43.96621315192744	66	127
43.90816326530612	44.23324263038549	67	127
44.23324263038549	45.405850340136055	67	127
45.405850340136055	45.521950113378686	68	127
45.452290249433105	45.603197278911566	67	127
45.521950113378686	45.73090702947846	65	127
45.64965986394558	45.84702947845805	63	127
45.76575963718821	45.96312925170068	62	127
45.88185941043084	46.11403628117914	60	127
46.11403628117914	47.042857142857144	60	127
47.042857142857144	47.158956916099775	60	127
47.042857142857144	47.100907029478456	59	127
47.089297052154194	47.21700680272109	59	127
47.14734693877551	47.29827664399093	60	127
47.19378684807256	47.37952380952381	59	127
47.27505668934241	47.43759637188209	60	127
47.367936507936506	47.4956462585034	59	127
47.425986394557825	47.57691609977324	60	127
47.4956462585034	47.65818594104309	59	127
47.57691609977324	47.72784580498866	60	127
47.65818594104309	47.82072562358277	59	127
47.72784580498866	47.91360544217687	69	127
47.82072562358277	48.018095238095235	59	127
48.018095238095235	48.16902494331066	60	127
48.517324263038546	48.92367346938776	55	127
48.517324263038546	48.92367346938776	63	127
48.517324263038546	48.92367346938776	72	127
49.52739229024943	49.86408163265306	74	127
49.52739229024943	49.86408163265306	59	127
49.52739229024943	49.86408163265306	67	127
50.50263038548753	50.86253968253968	60	127
50.50263038548753	50.86253968253968	67	127
50.50263038548753	50.86253968253968	75	127
52.31378684807256	52.557596371882084	78	127
52.48793650793651	52.80140589569161	79	127
52.731746031746034	52.9291156462585	78	127
52.9291156462585	53.393514739229026	79	127
56.69074829931973	57.02743764172335	55	127
56.69074829931973	57.02743764172335	63	127
56.69074829931973	57.02743764172335	72	127
57.67759637188209	58.04911564625851	74	127
57.67759637188209	58.04911564625851	58	127
57.67759637188209	58.04911564625851	65	127
58.676054421768704	59.012743764172335	62	127
58.676054421768704	59.012743764172335	70	127
58.676054421768704	59.012743764172335	80	127
59.570022675736965	59.674512471655326	70	127
59.941541950113375	59.96476190476191	70	127
60.046031746031744	60.1853514739229	75	127
60.55687074829932	60.661360544217686	75	127
60.91678004535147	60.95160997732426	75	127
61.032879818594104	61.195419501133784	70	127
61.578548752834465	61.68303854875283	70	127
61.92684807256236	61.961678004535145	70	127
62.031337868480726	63.32004535147392	67	127
63.23877551020408	63.35487528344671	63	127
63.447755102040816	63.56385487528345	65	127
63.784444444444446	63.81927437641723	67	127
63.877324263038545	64.08630385487528	68	127
63.888934240362815	63.94698412698413	70	127
64.39977324263039	64.49265306122449	68	127
64.75968253968254	64.79451247165532	67	127
64.84095238095239	65.03832199546486	65	127
64.86417233560091	64.92222222222222	67	127
65.35179138321996	65.45625850340136	65	127
65.80458049886622	65.83938775510204	63	127
65.90907029478458	66.39668934240363	62	127
66.39668934240363	67.162947845805	65	127
67.38353741496599	67.47639455782313	62	127
67.70861678004535	67.74344671201814	63	127
67.82471655328798	67.96403628117913	65	127
68.30072562358276	68.4168253968254	65	127
68.66063492063492	68.68385487528344	67	127
68.75349206349206	68.85800453514739	68	127
69.12503401360544	69.15986394557824	70	127
69.21791383219954	69.33401360544218	72	127
69.60104308390022	69.63587301587302	74	127
69.71714285714286	70.76204081632653	75	127
71.14517006802721	71.24965986394558	72	127
71.50507936507937	71.55151927437642	68	127
71.7140589569161	71.86498866213152	70	127
72.15523809523809	72.2481179138322	70	127
72.49192743764172	72.53834467120181	70	127
72.61963718820861	72.75895691609978	70	127
73.09564625850341	73.2001133786848	70	127
73.4439455782313	73.47877551020409	70	127
73.56002267573696	73.64131519274376	63	127
73.80385487528345	73.87351473922902	67	127
74.03605442176871	74.10571428571428	70	127
74.2566439909297	74.32628117913832	75	127
74.48884353741497	74.55850340136054	79	127
74.72104308390023	74.74426303854875	75	127
74.89519274376417	74.96482993197279	74	127
75.15061224489796	75.22024943310657	77	127
75.41764172335601	75.47566893424036	75	127
75.68467120181406	75.75433106575964	79	127
75.92848072562359	75.99814058956916	77	127
76.18390022675737	76.25356009070295	75	127
76.42770975056689	76.48575963718821	74	127
76.67151927437642	76.741179138322	80	127
76.91532879818594	76.98496598639456	77	127
77.17074829931973	77.22879818594105	74	127
77.40294784580499	77.4609977324263	75	127
77.63514739229025	77.6815873015873	79	127
77.85573696145124	77.91378684807256	82	127
78.0879365079365	78.14598639455782	80	127
78.29691609977324	78.37818594104309	79	127
78.5291156462585	78.59877551020408	77	127
78.76131519274377	78.88902494331066	75	127
79.05156462585035	79.10961451247165	73	127
79.24893424036281	79.37664399092971	72	127
79.27215419501134	79.31859410430839	73	127
79.49274376417233	79.53916099773242	71	127
79.70172335600907	79.78299319727891	72	127
79.9455328798186	80.01519274376417	76	127
80.16612244897959	80.28219954648526	77	127
80.17770975056689	80.23578231292517	79	127
80.39832199546485	80.46798185941043	75	127
80.64213151927437	80.71179138321996	77	127
80.87433106575963	80.92074829931973	79	127
81.08331065759637	81.14136054421769	80	127
81.35034013605443	81.42	79	127
81.57092970521542	81.640589569161	80	127
81.79151927437641	81.861179138322	79	127
82.07013605442177	82.13981859410431	80	127
82.33718820861678	82.40684807256235	79	127
82.58097505668934	82.63904761904762	77	127
82.8015873015873	82.85963718820862	75	127
83.04539682539682	83.13827664399093	74	127
83.31242630385488	83.38208616780045	75	127
83.52140589569161	83.59106575963719	77	127
83.76521541950113	83.83485260770975	75	127
83.97419501133787	84.04385487528344	74	127
84.22961451247166	84.28766439909298	72	127
84.46181405895692	84.51986394557824	70	127
84.70562358276644	84.77528344671202	68	127
84.97265306122449	85.04231292517007	67	127
85.19324263038548	85.27451247165533	70	127
85.42544217687075	85.49507936507936	75	127
85.63442176870748	85.71569160997733	79	127
85.87820861678004	85.95950113378684	82	127
86.12204081632653	86.16848072562358	79	127
86.33102040816327	86.38904761904762	80	127
86.59804988662131	86.6677097505669	84	127
86.81863945578232	86.88829931972789	82	127
87.17854875283447	87.39913832199547	82	127
87.32947845804989	87.61972789115646	79	127
87.55006802721088	87.85192743764172	75	127
87.85192743764172	87.89834467120181	80	127
88.08412698412698	88.35115646258504	80	127
88.2350566893424	88.5833560090703	77	127
88.51369614512471	88.74589569160997	74	127
88.80394557823129	89.01292517006803	66	127
88.95487528344671	89.23351473922902	70	127
89.15224489795918	89.50054421768708	75	127
89.41927437641723	89.73274376417234	78	127
89.73274376417234	89.97655328798186	82	127
89.87206349206349	90.04619047619047	87	127
90.1971201814059	90.29002267573696	87	127
90.45253968253968	90.52222222222223	87	127
90.68473922902494	90.998231292517	87	127
90.91696145124716	91.06786848072562	78	127
91.23043083900227	91.24204081632654	78	127
91.35814058956916	91.40458049886621	78	127
91.59034013605442	91.82253968253968	87	127
91.75287981859411	91.89219954648526	78	127
92.08954648526077	92.15922902494331	78	127
92.31015873015873	92.37981859410431	78	127
92.53074829931973	92.96031746031746	77	127
94.60893424036281	94.71342403628118	69	127
94.71342403628118	94.8295238095238	57	127
94.8295238095238	94.93401360544217	58	127
94.93401360544217	95.06172335600907	60	127
95.06172335600907	95.15460317460318	62	127
95.15460317460318	95.25909297052154	63	127
95.25909297052154	95.3635827664399	65	127
95.37519274376417	95.47968253968254	67	127
95.47968253968254	95.60739229024944	69	127
95.60739229024944	95.7118820861678	70	127
95.7118820861678	95.81637188208617	72	127
95.81637188208617	95.92086167800454	74	127
95.92086167800454	96.03696145124717	75	127
96.03696145124717	96.11823129251701	77	127
96.12984126984126	96.23433106575963	79	127
96.23433106575963	96.35043083900227	81	127
96.35043083900227	96.47814058956916	80	127
96.75678004535148	96.9077097505669	56	127
97.24439909297053	98.11514739229025	80	127
98.35895691609977	98.47505668934241	55	127
98.47505668934241	98.56793650793651	56	127
98.57954648526078	98.68403628117913	58	127
98.68403628117913	98.81174603174603	60	127
98.8233560090703	98.92784580498866	62	127
98.92784580498866	99.04394557823129	63	127
99.04394557823129	99.16004535147393	65	127
99.16004535147393	99.2645351473923	67	127
99.2645351473923	99.36902494331066	68	127
99.38063492063492	99.48512471655329	70	127
99.48512471655329	99.58961451247166	72	127
99.6360544217687	99.75215419501134	74	127
99.75215419501134	99.86825396825397	75	127
99.86825396825397	99.97274376417234	77	127
99.97274376417234	100.12367346938775	79	127
100.12367346938775	100.23977324263039	80	127
100.1701133786848	100.37909297052154	79	127
100.2978231292517	100.53002267573696	77	127
100.43714285714286	100.63451247165533	79	127
100.56485260770975	100.76222222222222	80	127
100.66934240362812	100.86671201814059	79	127
100.79705215419501	100.98281179138321	80	127
100.91315192743764	101.1105215419501	79	127
101.1105215419501	101.21501133786848	80	127
101.15696145124717	101.33111111111111	79	127
101.24984126984127	101.44721088435374	77	127
101.3659410430839	101.5865306122449	79	127
101.48204081632653	101.70263038548752	80	127
101.6213605442177	101.83034013605442	79	127
101.74907029478459	101.93482993197279	80	127
101.86517006802721	102.0857596371882	79	127
102.0857596371882	102.22507936507937	80	127
102.120589569161	102.31795918367347	79	127
102.24829931972789	102.42244897959183	77	127
102.34117913832199	102.5269387755102	79	127
102.45727891156463	102.6546485260771	77	127
102.58498866213152	102.75913832199547	75	127
102.68947845804989	102.87523809523809	74	127
102.80557823129251	102.99133786848073	75	127
102.99133786848073	103.0958276643991	74	127
103.02616780045352	103.22353741496599	72	127
103.13065759637188	103.37446712018141	70	127
103.26997732426304	103.5021768707483	72	127
103.42090702947846	103.60666666666667	70	127
103.5370068027211	103.79242630385488	68	127
103.66471655328799	103.9085260770975	67	127
103.82725623582766	104.01301587301587	68	127
104.01301587301587	104.18716553287982	67	127
104.24521541950114	104.37292517006803	79	127
104.28004535147392	104.45419501133787	77	127
104.48902494331065	104.5702947845805	75	127
104.60512471655329	104.68639455782314	74	127
104.72122448979592	104.79088435374149	72	127
104.82571428571428	104.90698412698413	70	127
104.94181405895692	105.02308390022675	68	127
105.06952380952382	105.15079365079364	67	127
105.18562358276644	105.26689342403628	65	127
105.29011337868481	105.3829931972789	63	127
105.40621315192743	105.48748299319728	62	127
105.5107029478458	105.58036281179139	60	127
105.60358276643991	105.68485260770976	58	127
105.71968253968254	105.83578231292518	56	127
105.8590022675737	105.9518820861678	55	127
105.97510204081632	106.05637188208617	58	127
106.07959183673469	106.17247165532879	63	127
106.19569160997733	106.27696145124716	67	127
106.31179138321995	106.42789115646258	68	127
106.34662131519275	106.50916099773242	65	127
106.56721088435374	106.63687074829932	62	127
106.67170068027211	106.76458049886621	56	127
106.799410430839	106.88068027210885	55	127
106.91551020408163	107.00839002267574	58	127
107.04321995464852	107.14770975056689	63	127
107.18253968253968	107.27541950113378	67	127
107.31024943310658	107.44956916099773	68	127
107.35668934240363	107.5540589569161	65	127
107.57727891156462	107.67015873015873	62	127
107.69337868480726	107.78625850340136	56	127
107.79786848072563	107.97201814058957	55	127
108.01845804988662	108.13455782312926	79	127
108.05328798185941	108.21582766439909	77	127
108.25065759637188	108.33192743764172	75	127
108.36675736961452	108.44802721088435	74	127
108.48285714285714	108.56412698412699	72	127
108.58734693877551	108.69183673469388	70	127
108.72666666666667	108.8079365079365	68	127
108.8427664399093	108.92403628117914	67	127
108.95886621315192	109.04013605442177	65	127
109.07496598639456	109.1562358276644	63	127
109.20267573696145	109.29555555555555	62	127
109.31877551020408	109.42326530612245	60	127
109.45809523809524	109.55097505668934	58	127
109.57419501133786	109.67868480725623	56	127
109.6902947845805	109.7831746031746	55	127
109.80639455782313	109.9108843537415	58	127
109.93410430839002	110.05020408163266	67	127
110.07342403628118	110.15469387755103	68	127
110.21274376417233	110.3172335600907	70	127
110.24757369614512	110.39850340136054	67	127
110.43333333333334	110.51460317460318	64	127
110.54943310657596	110.64231292517007	58	127
110.67714285714285	110.74680272108843	56	127
110.78163265306122	110.86290249433107	68	127
110.89773242630386	110.97900226757369	70	127
111.01383219954648	111.10671201814058	72	127
111.12993197278911	111.24603174603175	73	127
111.17637188208617	111.33891156462585	70	127
111.36213151927437	111.45501133786848	67	127
111.47823129251701	111.57111111111111	61	127
111.59433106575963	111.698820861678	60	127
111.72204081632653	111.81492063492064	72	127
111.83814058956916	111.93102040816326	77	127
111.95424036281179	112.03551020408163	79	127
112.07034013605443	112.18643990929705	80	127
112.1051700680272	112.30253968253969	77	127
112.33736961451247	112.41863945578231	74	127
112.4534693877551	112.53473922902495	68	127
112.56956916099773	112.6392290249433	67	127
112.6740589569161	112.75532879818594	75	127
112.79015873015874	112.87142857142857	77	127
112.90625850340136	112.9875283446712	79	127
113.01074829931973	113.12684807256235	80	127
113.05718820861678	113.21972789115647	77	127
113.24294784580499	113.33582766439909	74	127
113.35904761904762	113.45192743764173	68	127
113.47514739229025	113.5564172335601	67	127
113.57963718820862	113.69573696145125	79	127
113.6144671201814	113.83505668934241	80	127
113.73056689342404	113.95115646258503	77	127
113.95115646258503	114.03242630385488	79	127
114.06725623582767	114.19496598639456	79	127
114.10208616780045	114.31106575963719	80	127
114.22979591836734	114.42716553287981	77	127
114.42716553287981	114.50843537414966	79	127
114.54326530612245	114.65936507936507	79	127
114.57809523809524	114.77546485260771	80	127
114.69419501133787	114.87995464852608	77	127
114.87995464852608	114.96122448979592	79	127
114.98444444444445	115.10054421768707	79	127
115.0308843537415	115.21664399092971	80	127
115.14698412698412	115.33274376417233	77	127
115.26308390022676	115.76231292517006	82	127
117.45736961451247	118.44421768707483	75	127
117.45736961451247	118.44421768707483	56	127
117.45736961451247	118.44421768707483	65	127
118.35133786848073	119.3962358276644	66	127
118.35133786848073	119.3962358276644	57	127
119.29174603174603	119.91868480725624	58	127
119.29174603174603	119.91868480725624	67	127
119.8374149659864	120.9055328798186	67	127
119.8374149659864	120.9055328798186	58	127
120.82426303854875	121.76467120181405	67	127
120.82426303854875	121.76467120181405	58	127
121.69501133786848	122.7282993197279	58	127
121.69501133786848	122.7282993197279	67	127
122.6586394557823	123.20430839002267	58	127
122.6586394557823	123.20430839002267	68	127
123.1346485260771	123.27396825396825	67	127
123.1346485260771	123.27396825396825	58	127
123.43650793650794	123.84285714285714	70	127
123.97056689342404	124.31886621315192	70	127
124.46979591836735	124.94580498866213	70	127
124.88775510204081	125.06190476190476	72	127
124.98063492063493	125.1780045351474	74	127
125.09673469387755	125.22444444444444	75	127
125.38698412698413	125.94426303854875	70	127
125.86299319727891	126.06036281179138	72	127
125.9907029478458	126.18807256235827	74	127
126.10680272108844	126.25773242630386	75	127
126.48993197278912	126.94272108843538	82	127
126.86145124716553	127.03560090702948	84	127
126.97755102040816	127.15170068027211	86	127
127.07043083900227	127.19814058956916	87	127
127.36068027210884	127.72058956916099	70	127
127.9063492063492	128.26625850340136	70	127
128.382358276644	128.85834467120182	70	127
128.76548752834466	128.98607709750567	72	127
128.8815873015873	129.1137641723356	74	127
129.03251700680272	129.17183673469387	75	127
129.33437641723356	129.79877551020408	72	127
129.72909297052155	129.91487528344672	74	127
129.83360544217686	130.03095238095239	76	127
129.9497052154195	130.12385487528346	77	127
130.28637188208617	130.7391836734694	75	127
130.65791383219954	130.89011337868482	77	127
130.77401360544218	131.00619047619048	79	127
130.9249433106576	131.07587301587301	80	127
131.28485260770975	131.76086167800455	82	127
131.69120181405896	131.88857142857142	84	127
131.79569160997733	132.00467120181406	86	127
131.92337868480726	132.06272108843538	87	127
132.22526077097507	132.72448979591837	82	127
132.64319727891157	132.840589569161	84	127
132.75931972789115	132.97990929705216	86	127
132.97990929705216	133.01473922902494	87	127
133.08439909297053	133.2004761904762	82	127
133.13083900226758	133.31659863945578	84	127
133.24693877551022	133.43269841269841	86	127
133.43269841269841	133.4675283446712	87	127
133.54879818594105	133.66487528344672	82	127
133.5952380952381	133.7809977324263	84	127
133.71131519274377	133.89709750566894	86	127
133.89709750566894	133.93192743764172	87	127
134.02480725623582	134.14090702947846	82	127
134.05963718820863	134.2570068027211	84	127
134.1757142857143	134.37310657596373	86	127
134.37310657596373	134.4079365079365	87	127
134.48920634920634	134.61691609977325	82	127
134.5356462585034	134.72140589569162	84	127
134.65174603174603	134.8491156462585	86	127
134.7562358276644	135.67342403628118	87	127
135.59215419501135	135.80113378684808	63	127
135.77791383219954	135.94045351473923	65	127
135.80113378684808	135.87079365079364	63	127
135.84757369614513	135.99850340136055	63	127
135.92884353741496	136.06814058956917	65	127
135.98689342403628	136.16104308390024	63	127
136.05655328798187	136.25392290249434	65	127
136.14943310657597	136.32356009070295	63	127
136.2190702947846	136.38163265306122	65	127
136.3003628117914	136.4512925170068	63	127
136.37	136.5209523809524	65	127
136.43968253968254	136.59061224489795	63	127
136.59061224489795	136.75315192743764	62	127
136.6718820861678	136.88083900226758	63	127
136.88083900226758	138.35532879818595	72	127
138.76167800453516	139.6904761904762	80	127
139.58598639455784	139.8065759637188	59	127
139.7949433106576	139.95750566893423	61	127
139.8065759637188	139.88784580498867	59	127
139.8762358276644	140.0503628117914	59	127
139.94589569161	140.10843537414965	61	127
140.02716553287982	140.16648526077097	59	127
140.0968253968254	140.2245351473923	61	127
140.15485260770976	140.29419501133788	59	127
140.21292517006802	140.3522448979592	61	127
140.2825850340136	140.42190476190476	59	127
140.3522448979592	140.47995464852607	61	127
140.39868480725625	140.52639455782312	59	127
140.5380045351474	140.66569160997733	58	127
140.58444444444444	140.79342403628118	59	127
140.79342403628118	142.19820861678005	58	127
140.79342403628118	142.19820861678005	68	127
142.69746031746033	143.1154195011338	58	127
142.69746031746033	143.1154195011338	67	127
143.75396825396825	144.1487074829932	56	127
143.75396825396825	144.1487074829932	63	127
143.75396825396825	144.1487074829932	72	127
144.9033560090703	145.3445351473923	55	127
144.9033560090703	145.3445351473923	63	127
144.9033560090703	145.3445351473923	70	127
146.67968253968255	147.10922902494332	58	127
146.67968253968255	147.10922902494332	65	127
146.67968253968255	147.10922902494332	74	127
151.41655328798186	151.90417233560092	75	127
151.82290249433106	152.40340136054422	79	127
152.31052154195012	152.77492063492065	75	127
152.93743764172336	153.42507936507937	75	127
153.34378684807257	155.31750566893425	74	127
155.31750566893425	155.81673469387755	83	127
155.73546485260772	156.2578911564626	74	127
156.18825396825397	156.60621315192745	82	127
156.73392290249433	157.18671201814058	82	127
157.10544217687075	159.14879818594105	75	127
159.14879818594105	159.61319727891157	78	127
159.14879818594105	159.61319727891157	75	127
159.61319727891157	160.05437641723356	78	127
159.61319727891157	160.05437641723356	75	127
160.05437641723356	160.51877551020408	78	127
160.05437641723356	160.51877551020408	75	127
160.51877551020408	162.99170068027212	75	127
160.51877551020408	162.99170068027212	78	127
162.99170068027212	163.49092970521542	83	127
163.4096598639456	164.03659863945578	87	127
163.95532879818595	164.41972789115647	83	127
164.55904761904762	165.0466439909297	83	127
164.96539682539682	166.99714285714285	82	127
166.99714285714285	167.50798185941042	91	127
167.41510204081632	168.10009070294785	82	127
168.018820861678	168.43678004535147	90	127
168.56448979591838	169.0521088435374	90	127
168.98242630385488	170.8284126984127	83	127
170.74716553287982	171.3160544217687	71	127
170.74716553287982	171.3160544217687	74	127
171.3160544217687	171.80367346938775	71	127
171.3160544217687	171.80367346938775	74	127
171.80367346938775	172.27968253968254	71	127
171.80367346938775	172.27968253968254	74	127
172.27968253968254	174.8687074829932	74	127
172.27968253968254	174.8687074829932	71	127
174.8687074829932	175.39115646258503	79	127
175.3098866213152	175.78587301587302	83	127
175.75106575963719	176.23868480725625	79	127
176.23868480725625	176.73791383219955	79	127
176.65662131519275	178.68839002267575	78	127
178.68839002267575	179.24566893424037	87	127
179.1643990929705	179.7100680272109	78	127
179.62879818594104	180.08156462585035	86	127
180.19768707482993	180.7085260770975	86	127
180.62725623582767	182.62417233560092	79	127
182.54290249433106	182.74027210884353	71	127
182.6590022675737	182.86798185941043	72	127
182.78668934240363	182.98408163265307	74	127
182.90281179138321	183.08857142857144	71	127
183.08857142857144	183.20467120181405	67	127
183.61102040816326	183.7271201814059	71	127
183.64585034013606	183.8548299319728	72	127
183.76192743764173	183.9709297052154	74	127
183.90126984126985	184.07541950113378	71	127
184.07541950113378	184.21473922902496	67	127
184.57462585034014	184.702358276644	71	127
184.62108843537416	184.83004535147393	72	127
184.73718820861677	184.95777777777778	74	127
184.87650793650795	185.0854648526077	71	127
185.0854648526077	185.22480725623583	67	127
185.57310657596372	185.68920634920636	72	127
185.61954648526077	185.81691609977324	74	127
185.7356462585034	185.9214058956916	75	127
185.84013605442178	186.03750566893424	72	127
186.03750566893424	186.16521541950112	67	127
186.4902947845805	186.5831746031746	74	127
186.51351473922904	186.69927437641724	75	127
186.62961451247165	186.82696145124717	77	127
186.74571428571429	186.93145124716554	74	127
186.93145124716554	187.08238095238096	67	127
187.4422902494331	187.53519274376418	75	127
187.48873015873016	187.6512925170068	77	127
187.57002267573696	187.76739229024943	79	127
187.6977097505669	187.89510204081634	75	127
187.89510204081634	188.1040589569161	80	127
188.42916099773242	188.498820861678	80	127
188.73102040816326	188.7658276643991	80	127
188.8471201814059	188.98643990929705	75	127
189.36956916099774	189.4740589569161	75	127
189.7294784580499	189.76430839002268	75	127
189.8455782312925	191.1110657596372	72	127
191.01818594104307	191.14589569160998	68	127
191.2968253968254	191.40131519274377	70	127
191.65673469387755	191.69156462585033	72	127
191.74961451247165	191.97020408163266	73	127
191.7728344671202	191.84249433106575	75	127
192.26045351473923	192.35333333333332	73	127
192.57392290249433	192.6087528344671	72	127
192.69002267573697	192.8990022675737	70	127
192.7016326530612	192.75968253968253	72	127
193.2473015873016	193.3401814058957	70	127
193.5607709750567	193.59560090702948	68	127
193.6768707482993	193.8742403628118	67	127
193.70009070294785	193.75814058956917	68	127
194.1528798185941	194.25736961451247	67	127
194.52439909297053	194.54761904761904	65	127
194.6288888888889	194.69854875283445	63	127
194.8726984126984	194.942358276644	75	127
195.07006802721088	195.13972789115647	77	127
195.3138775510204	195.38353741496599	79	127
195.55768707482994	195.67378684807255	80	127
196.06852607709752	196.18462585034013	80	127
196.4400453514739	196.47487528344672	80	127
196.55614512471655	196.68385487528346	75	127
197.0437641723356	197.1366439909297	75	127
197.3920634920635	197.42689342403628	75	127
197.49655328798187	198.54145124716553	72	127
198.85492063492063	198.90136054421768	72	127
198.99424036281178	199.09873015873015	74	127
199.35414965986394	199.38897959183674	76	127
199.47024943310657	199.60956916099772	77	127
199.96947845804988	200.07396825396825	77	127
200.3177777777778	200.35260770975057	77	127
200.4338775510204	200.58480725623582	72	127
200.9331065759637	201.03759637188207	72	127
201.25818594104308	201.29301587301586	72	127
201.37428571428572	202.73265306122448	68	127
202.63977324263038	202.7674829931973	60	127
202.8603628117914	202.96485260770976	61	127
203.20866213151928	203.2318820861678	63	127
203.3247619047619	203.4524716553288	65	127
203.62662131519275	203.73111111111112	73	127
203.66145124716553	203.81238095238095	75	127
203.75433106575963	203.91687074829932	77	127
203.858820861678	204.02136054421769	75	127
203.94009070294786	204.12585034013605	77	127
204.05619047619047	204.2419501133787	78	127
204.2419501133787	204.3580498866213	80	127
204.27678004535147	204.4857596371882	79	127
204.3928798185941	204.59024943310658	80	127
204.520589569161	204.70634920634922	82	127
204.63668934240363	204.91532879818595	84	127
204.75278911564627	205.01981859410432	80	127
204.95015873015873	205.13591836734693	82	127
205.0546485260771	205.2404081632653	84	127
205.2404081632653	205.56548752834468	85	127
205.56548752834468	205.6815873015873	73	127
205.6815873015873	205.78607709750568	73	127
205.79768707482992	205.92539682539683	72	127
205.92539682539683	206.0298866213152	72	127
206.04149659863947	206.1459863945578	70	127
206.1459863945578	206.27369614512472	70	127
206.27369614512472	206.38979591836735	69	127
206.38979591836735	206.50589569160996	69	127
206.50589569160996	206.61038548752833	66	127
206.6219954648526	206.72648526077097	66	127
206.72648526077097	206.8425850340136	65	127
206.85419501133788	206.95868480725625	65	127
206.95868480725625	207.07478458049886	63	127
207.07478458049886	207.1908843537415	63	127
207.1908843537415	207.48113378684806	61	127
207.48113378684806	207.5972335600907	70	127
207.5275736961451	207.74816326530612	72	127
207.63206349206348	207.8526530612245	73	127
207.7829931972789	207.96875283446713	72	127
207.88748299319727	208.08485260770976	73	127
208.0035827664399	208.20095238095237	75	127
208.20095238095237	208.30544217687074	77	127
208.23578231292518	208.43315192743765	76	127
208.3518820861678	208.54925170068026	77	127
208.46798185941043	208.65374149659863	79	127
208.58408163265307	208.76984126984127	81	127
208.68857142857144	208.87433106575963	77	127
208.80467120181405	209.00204081632654	79	127
208.92077097505668	209.1065306122449	81	127
209.1065306122449	209.3619501133787	82	127
209.28068027210884	209.46643990929707	70	127
209.46643990929707	209.58253968253968	70	127
209.58253968253968	209.68702947845804	68	127
209.68702947845804	209.81473922902495	68	127
209.81473922902495	209.91922902494332	66	127
209.91922902494332	210.03532879818593	66	127
210.03532879818593	210.1398185941043	65	127
210.15142857142857	210.25591836734694	65	127
210.25591836734694	210.37201814058957	63	127
210.37201814058957	210.46489795918367	63	127
210.46489795918367	210.5809977324263	61	127
210.5809977324263	210.6738775510204	61	127
210.6738775510204	210.78997732426305	59	127
210.78997732426305	210.9292970521542	59	127
210.94090702947847	211.3356462585034	58	127
211.45174603174604	212.0902947845805	85	127
212.33410430839	212.5895238095238	70	127
212.7172335600907	212.79850340136053	70	127
212.83333333333334	212.9726530612245	70	127
213.32095238095238	213.95950113378686	84	127
214.20331065759638	214.48195011337867	60	127
214.56321995464853	214.6328798185941	60	127
214.6677097505669	214.78380952380954	60	127
215.15532879818593	215.8287074829932	80	127
216.09573696145125	216.37437641723355	65	127
216.46725623582768	216.53691609977324	65	127
216.57174603174604	216.7110657596372	65	127
217.03614512471654	217.72113378684807	86	127
217.98816326530613	218.26680272108842	55	127
217.98816326530613	218.26680272108842	65	127
218.32485260770974	218.4061224489796	55	127
218.32485260770974	218.4061224489796	65	127
218.44095238095238	218.5918820861678	63	127
218.44095238095238	218.5918820861678	55	127
218.9401814058957	219.5903401360544	84	127
219.81092970521541	220.07795918367347	84	127
220.14761904761906	220.21727891156462	84	127
220.25210884353743	220.321768707483	84	127
220.48430839002268	220.55396825396826	78	127
220.71650793650792	220.77455782312924	79	127
220.92548752834466	220.99514739229025	74	127
221.1344671201814	221.204126984127	75	127
221.36666666666667	221.43632653061223	71	127
221.6104761904762	221.69174603174602	72	127
221.91233560090703	221.99360544217686	68	127
222.15614512471655	222.4928344671202	67	127
224.54780045351475	224.78	71	127
224.69873015873017	225.000589569161	72	127
224.93092970521542	225.23278911564626	74	127
225.16312925170067	225.4998185941043	75	127
225.41854875283445	225.73201814058956	77	127
225.65074829931973	225.90616780045352	78	127
225.96421768707484	226.39378684807255	79	127
226.49827664399092	226.99750566893425	79	127
227.4154648526077	227.53156462585034	79	127
227.46190476190475	227.64766439909297	77	127
227.56639455782312	227.77537414965985	75	127
227.68249433106575	227.8914739229025	74	127
227.8914739229025	228.22816326530614	75	127
228.35587301587302	228.8667120181406	75	127
229.38916099773243	229.50526077097507	77	127
229.43560090702948	229.63297052154195	75	127
229.55170068027212	229.7490702947846	74	127
229.66780045351473	229.87678004535147	72	127
229.87678004535147	230.36439909297053	67	127
232.32648526077097	232.55868480725624	71	127
232.47741496598638	232.8257142857143	72	127
232.70961451247166	233.05791383219955	74	127
232.98825396825396	233.30172335600906	75	127
233.2320634920635	233.53392290249434	77	127
233.46426303854875	233.77773242630386	78	127
233.77773242630386	234.14925170068028	79	127
234.34662131519275	234.69492063492063	79	127
235.25219954648526	235.3682993197279	79	127
235.2986394557823	235.50761904761904	77	127
235.41473922902495	235.6469387755102	75	127
235.54244897959182	235.76303854875283	74	127
235.76303854875283	236.122947845805	75	127
236.23904761904762	236.5873469387755	75	127
237.27233560090704	237.38843537414965	77	127
237.3187755102041	237.49292517006802	75	127
237.4348752834467	237.62063492063493	74	127
237.52775510204083	237.75995464852608	72	127
237.75995464852608	238.23596371882087	67	127
238.154693877551	238.58426303854876	79	127
239.16476190476192	239.32730158730158	77	127
239.25764172335602	239.44340136054421	75	127
239.37374149659863	239.55950113378685	74	127
239.48984126984126	239.66399092970522	72	127
239.66399092970522	240.14	67	127
240.05873015873016	240.61600907029478	79	127
241.13845804988662	241.242947845805	77	127
241.1732879818594	241.35904761904763	75	127
241.28938775510204	241.4867573696145	74	127
241.41709750566892	241.60285714285715	72	127
241.5215873015873	241.80022675736961	79	127
241.85827664399093	242.2181859410431	55	127
241.85827664399093	242.2181859410431	67	127
242.34589569160997	242.69419501133788	67	127
242.34589569160997	242.69419501133788	55	127
242.82190476190476	243.20503401360546	67	127
242.82190476190476	243.20503401360546	55	127
243.3443537414966	243.70426303854876	55	127
243.3443537414966	243.70426303854876	67	127
243.8435827664399	244.21510204081633	55	127
243.8435827664399	244.21510204081633	67	127
244.33120181405894	244.70272108843537	55	127
244.33120181405894	244.70272108843537	67	127
244.818820861678	244.9117006802721	69	127
244.94653061224489	245.039410430839	71	127
245.0742403628118	245.19034013605443	72	127
245.21356009070294	245.3180498866213	74	127
245.35287981859412	245.44575963718822	75	127
245.480589569161	245.5734693877551	77	127
245.6082993197279	247.1756462585034	79	127
247.1756462585034	247.29174603174604	75	127
247.22208616780046	247.4310657596372	77	127
247.3381859410431	247.54716553287983	79	127
247.46589569160997	247.69809523809525	75	127
247.69809523809525	248.09283446712018	72	127
249.77628117913832	251.0069387755102	84	127
251.2275283446712	251.3552380952381	80	127
251.27396825396826	251.45972789115646	82	127
251.40167800453514	251.5758276643991	84	127
251.5061678004535	251.71514739229025	80	127
251.71514739229025	252.08666666666667	77	127
253.85138321995464	254.97755102040816	77	127
254.88467120181406	255.2445804988662	75	127
255.1517006802721	255.3374603174603	74	127
255.53482993197278	255.61609977324264	72	127
255.82507936507938	256.15015873015875	71	127
256.2662585034014	256.64938775510205	70	127
256.77709750566896	257.2182766439909	69	127
257.3575963718821	257.8219954648526	68	127
257.96131519274377	258.9829931972789	67	127
259.0874829931973	260.31814058956917	67	127
260.31814058956917	262.50081632653064	67	127
274.7261224489796	275.1673015873016	80	127
275.32984126984127	275.7361904761905	80	127
275.8871201814059	276.3282993197279	80	127
276.4560090702948	277.7098866213152	80	127
277.60539682539684	278.19750566893424	79	127
278.36002267573696	278.89410430839	79	127
279.0334240362812	280.5775510204082	79	127
280.4846712018141	280.6936507936508	75	127
280.61238095238093	280.82136054421767	77	127
280.74009070294784	280.96068027210885	79	127
280.879410430839	281.0767800453515	75	127
281.0767800453515	281.41346938775513	72	127
283.03886621315195	284.36240362811793	84	127
284.2927437641723	284.47850340136057	80	127
284.40884353741495	284.54816326530613	82	127
284.5249433106576	284.66426303854877	84	127
284.58299319727894	284.76875283446714	80	127
284.76875283446714	285.1518820861678	77	127
286.98625850340136	288.53038548752835	77	127
288.53038548752835	288.646485260771	75	127
288.56521541950116	288.7741950113379	74	127
288.692925170068	288.87868480725626	72	127
288.80902494331065	289.0063945578231	71	127
288.9251247165533	290.411201814059	79	127
290.3299319727891	290.53891156462583	77	127
290.457641723356	290.6550113378685	75	127
290.57374149659864	290.7711111111111	74	127
290.6898412698413	290.8639909297052	72	127
290.898820861678	291.92049886621317	72	127
291.83922902494334	292.87249433106575	71	127
292.87249433106575	293.2208163265306	72	127
295.22931972789115	295.50798185941045	72	127
295.41510204081635	295.8098412698413	74	127
295.7169614512472	296.018820861678	72	127
296.018820861678	297.0636961451247	71	127
297.0636961451247	297.3075283446712	74	127
297.23786848072564	297.5745351473923	75	127
297.4816780045351	297.79514739229023	71	127
297.79514739229023	298.58462585034016	72	127
298.4801360544218	298.80519274376417	69	127
298.89809523809527	299.4437641723356	63	127
299.36249433106576	300.1984126984127	67	127
300.477052154195	301.0691609977324	67	127
301.0691609977324	301.31297052154196	61	127
301.2433106575964	301.56836734693877	62	127
301.4755102040816	301.800589569161	63	127
301.71931972789116	302.07920634920634	64	127
301.99795918367346	302.2998185941043	65	127
302.23015873015873	302.57845804988665	66	127
302.49718820861676	302.7758276643991	67	127
302.82226757369614	303.9716553287982	67	127
303.9716553287982	304.11097505668937	68	127
304.01807256235827	304.227052154195	67	127
304.1458049886621	304.35478458049886	65	127
304.27351473922903	304.4592743764172	63	127
304.40122448979594	304.57537414965986	62	127
304.49410430839004	304.6334013605442	60	127
304.66825396825396	305.58544217687074	60	127
305.5738321995465	305.7247619047619	60	127
305.58544217687074	305.65507936507936	59	127
305.6434920634921	305.7828117913832	59	127
305.71315192743765	305.8640589569161	60	127
305.77120181405894	305.9453514739229	59	127
305.8524489795918	306.0150113378685	60	127
305.93374149659866	306.08467120181405	59	127
306.0034013605442	306.16591836734693	60	127
306.08467120181405	306.24721088435376	59	127
306.16591836734693	306.35170068027213	60	127
306.24721088435376	306.44458049886623	59	127
306.35170068027213	306.52585034013606	69	127
306.44458049886623	306.6419501133787	59	127
306.65356009070297	306.8277097505669	60	127
307.1760090702948	307.5475283446712	55	127
307.1760090702948	307.5475283446712	63	127
307.1760090702948	307.5475283446712	72	127
308.2092743764172	308.53437641723355	74	127
308.2092743764172	308.53437641723355	59	127
308.2092743764172	308.53437641723355	67	127
309.1380952380952	309.48639455782313	67	127
309.1380952380952	309.48639455782313	60	127
309.1380952380952	309.48639455782313	75	127
310.92603174603175	311.1814512471655	78	127
311.1001814058957	311.42526077097506	79	127
311.3556009070295	311.6342403628118	78	127
311.6342403628118	311.97092970521544	79	127
315.47714285714284	315.86027210884356	55	127
315.47714285714284	315.86027210884356	63	127
315.47714285714284	315.86027210884356	72	127
316.5684807256236	316.9748299319728	56	127
316.5684807256236	316.9748299319728	65	127
316.5684807256236	316.9748299319728	74	127
317.72947845804987	318.46090702947845	80	127
318.46090702947845	318.5421768707483	79	127
318.5073469387755	318.6698866213152	77	127
318.58861678004536	318.7627664399093	75	127
318.704716553288	318.91369614512473	74	127
319.6451247165533	320.35333333333335	70	127
319.6451247165533	320.35333333333335	82	127
320.35333333333335	320.4346031746032	80	127
320.35333333333335	320.515873015873	79	127
320.48102040816326	320.6087528344671	77	127
320.5507029478458	320.7945124716553	76	127
321.4678911564626	321.7000680272109	72	127
321.4678911564626	321.7000680272109	84	127
322.39668934240365	322.48956916099775	84	127
322.7449886621315	322.76820861678004	84	127
322.86108843537414	323.0120181405896	83	127
323.39514739229026	323.53446712018143	79	127
324.57936507936506	324.61419501133787	79	127
324.6954648526077	324.8347845804989	84	127
325.1830612244898	325.2991836734694	84	127
325.589410430839	325.635873015873	84	127
325.71714285714285	325.8332426303855	79	127
326.16993197278913	326.2628117913832	79	127
326.5530612244898	326.57628117913833	79	127
326.6807709750567	327.98108843537415	76	127
327.92303854875286	328.01591836734696	72	127
328.0971882086168	328.2248979591837	74	127
328.4919274376417	328.52675736961453	76	127
328.5964172335601	328.8053968253968	77	127
328.60802721088436	328.6892970521542	79	127
329.14208616780047	329.24657596371884	77	127
329.5019954648526	329.5368253968254	76	127
329.5948752834467	329.80385487528343	74	127
329.6297052154195	329.6877551020408	76	127
330.1289342403628	330.21020408163264	74	127
330.46562358276645	330.50043083900226	72	127
330.59331065759636	331.0809523809524	71	127
331.0809523809524	331.82396825396825	74	127
332.05619047619047	332.14907029478456	71	127
332.3928798185941	332.4277097505669	72	127
332.5321995464853	332.6831292517007	74	127
333.0314285714286	333.1126984126984	74	127
333.37972789115645	333.41455782312926	76	127
333.50743764172336	333.6119274376417	77	127
333.85573696145127	333.890566893424	79	127
333.9718140589569	334.064716553288	81	127
334.41301587301587	334.4478458049887	83	127
334.5291156462585	335.5624036281179	84	127
335.91068027210883	335.9339229024943	81	127
336.22414965986394	336.2590022675737	77	127
336.3402721088435	336.50281179138324	79	127
336.8859410430839	337.00204081632654	79	127
337.2342403628118	337.2574603174603	79	127
337.3387301587302	337.55931972789114	79	127
337.87278911564624	337.9656462585034	79	127
338.16301587301587	338.1978684807256	79	127
338.26750566893423	338.3371882086168	72	127
338.6158276643991	338.68548752834465	64	127
338.8364172335601	338.90607709750566	67	127
339.0686167800454	339.12666666666667	72	127
339.3008163265306	339.3704761904762	76	127
339.5678458049887	339.6491156462585	72	127
339.81165532879817	339.8813151927438	71	127
340.0554648526077	340.1251247165533	74	127
340.3689342403628	340.4385941043084	72	127
340.6011337868481	340.67079365079366	76	127
340.8449433106576	340.9146031746032	74	127
341.07714285714286	341.1468027210884	72	127
341.30934240362814	341.3790022675737	71	127
341.52993197278914	341.5995918367347	77	127
341.79696145124717	341.878231292517	74	127
342.0407709750567	342.1104308390023	71	127
342.27297052154194	342.34263038548755	72	127
342.56319727891156	342.62126984126985	76	127
342.8302494331066	342.89990929705215	79	127
343.07403628117913	343.1321088435374	77	127
343.25981859410433	343.35269841269843	76	127
343.56167800453517	343.61972789115646	74	127
343.7822448979592	343.84031746031746	72	127
344.02607709750566	344.0957142857143	70	127
344.2814965986395	344.35115646258504	69	127
344.5020634920635	344.57174603174604	73	127
344.72267573696143	344.79233560090705	74	127
344.9548752834467	345.01290249433106	76	127
345.16385487528345	345.3147619047619	77	127
345.1754648526077	345.233514739229	79	127
345.44249433106575	345.4889342403628	76	127
345.6514739229025	345.7211337868481	77	127
345.93009070294784	345.9997732426304	78	127
346.1274829931973	346.25519274376416	79	127
346.1507029478458	346.20875283446713	81	127
346.39451247165533	346.48739229024943	78	127
346.7195918367347	346.78925170068027	79	127
346.97501133786847	347.0446712018141	81	127
347.1956009070295	347.2536507936508	83	127
347.439410430839	347.5090702947846	84	127
347.6715873015873	347.74126984126985	86	127
347.9038095238095	347.97344671201813	88	127
348.14761904761906	348.2172789115646	89	127
348.36820861678007	348.37981859410434	88	127
348.61201814058956	348.6816780045352	86	127
348.9022448979592	348.96031746031747	84	127
349.12285714285713	349.1809070294785	83	127
349.34344671201814	349.41308390022675	81	127
349.6685260770975	349.73818594104307	79	127
349.8891156462585	349.9587755102041	77	127
350.09809523809525	350.1793650793651	76	127
350.33027210884353	350.3999546485261	79	127
350.5508843537415	350.6089342403628	84	127
350.7714739229025	350.82952380952383	79	127
351.0268934240363	351.0849433106576	76	127
351.23587301587304	351.3055328798186	72	127
351.51451247165534	351.5841723356009	77	127
351.7582993197279	351.82798185941044	81	127
352.071768707483	352.1646485260771	76	127
352.338820861678	352.54780045351475	79	127
352.4665306122449	352.8496598639456	76	127
352.7567800453515	353.09344671201814	72	127
353.09344671201814	353.1631292517007	71	127
353.37210884353743	353.59269841269844	77	127
353.49979591836734	353.8016553287982	74	127
353.74362811791383	354.04548752834467	71	127
354.04548752834467	354.1151247165533	72	127
354.3009070294785	354.5214739229025	79	127
354.42861678004533	354.71886621315195	84	127
354.6724263038549	354.8814058956916	79	127
354.9510657596372	355.18326530612245	75	127
355.1019954648526	355.3806349206349	72	127
355.4154648526077	355.4851247165533	84	127
355.647641723356	355.7057142857143	84	127
355.86825396825395	356.1120634920635	84	127
356.03079365079367	356.18172335600906	75	127
356.3442630385488	356.41392290249433	75	127
356.58807256235826	356.6577324263039	75	127
356.82027210884354	357.1105215419501	84	127
357.04086167800455	357.1801587301587	75	127
357.3427210884354	357.458820861678	75	127
357.6561904761905	357.7142403628118	75	127
357.88839002267576	358.22507936507935	74	127
360.0478231292517	360.1639455782313	60	127
360.1639455782313	360.26843537414965	62	127
360.2800453514739	360.3845351473923	63	127
360.3845351473923	360.5006349206349	65	127
360.5006349206349	360.6051247165533	67	127
360.6051247165533	360.74444444444447	68	127
360.74444444444447	360.84893424036284	70	127
360.84893424036284	360.9650113378685	72	127
360.9650113378685	361.06950113378684	74	127
361.08113378684806	361.1856235827664	75	127
361.1856235827664	361.30172335600906	77	127
361.30172335600906	361.39460317460316	79	127
361.39460317460316	361.5107029478458	80	127
361.5107029478458	361.61519274376417	82	127
361.61519274376417	361.7312925170068	84	127
361.7312925170068	361.870612244898	86	127
362.2305215419501	362.3698412698413	62	127
362.7297505668934	363.8094784580499	74	127
363.7281859410431	363.9139682539683	63	127
363.9139682539683	364.01845804988665	65	127
364.01845804988665	364.122947845805	67	127
364.122947845805	364.23902494331065	68	127
364.23902494331065	364.343514739229	70	127
364.35514739229023	364.64537414965986	72	127
364.64537414965986	364.76149659863944	74	127
364.76149659863944	364.8659863945578	75	127
364.79632653061225	364.98208616780045	74	127
364.9124263038549	365.0865759637188	75	127
365.01691609977325	365.1910657596372	74	127
365.1330158730159	365.3071655328798	75	127
365.22589569161	365.4116553287982	74	127
365.34199546485263	365.5277551020408	75	127
365.446485260771	365.6322448979592	76	127
365.6322448979592	365.73673469387757	77	127
365.667052154195	365.84122448979593	76	127
365.7715419501134	365.9573242630386	77	127
365.88766439909296	366.0734013605442	76	127
365.9921541950113	366.1663038548753	77	127
366.0966439909297	366.28238095238095	75	127
366.20113378684806	366.46816326530615	74	127
366.3172335600907	366.5726530612245	75	127
366.60748299319727	366.71197278911563	77	127
366.6423129251701	366.8280725623583	76	127
366.7584126984127	366.9557823129252	77	127
366.8629024943311	367.06027210884355	76	127
366.990589569161	367.1763718820862	77	127
367.09507936507936	367.28086167800456	75	127
367.21120181405894	367.4434013605442	74	127
367.3505215419501	367.52467120181404	75	127
367.5478911564626	367.6639909297052	77	127
367.59433106575966	367.78009070294786	79	127
367.69882086167803	367.8845804988662	77	127
367.81489795918367	368.01226757369614	75	127
367.91938775510204	368.1167573696145	74	127
368.0471201814059	368.2560997732426	75	127
368.1632199546485	368.38380952380953	74	127
368.29092970521543	368.4882993197279	72	127
368.4302267573696	368.5231065759637	71	127
368.60439909297054	368.68566893424037	71	127
368.7088888888889	368.8133786848073	59	127
368.84820861678	368.9410657596372	59	127
368.96430839002267	369.0804081632653	60	127
369.1268480725624	369.2197278911565	60	127
369.242925170068	369.3474149659864	62	127
369.37065759637187	369.45190476190476	62	127
369.4867573696145	369.5796371882086	63	127
369.6144671201814	369.8350566893424	79	127
369.6492743764172	369.95115646258506	78	127
369.8698866213152	370.0672335600907	79	127
369.9859863945578	370.1833560090703	77	127
370.10208616780045	370.28784580498865	75	127
370.2181859410431	370.4039455782313	74	127
370.3342857142857	370.4968253968254	72	127
370.4387755102041	370.60131519274375	71	127
370.54326530612246	370.7058049886621	72	127
370.63614512471656	370.85673469387757	74	127
370.7522448979592	370.9728344671202	72	127
370.8915646258503	371.08891156462585	71	127
371.00766439909296	371.2050340136054	68	127
371.1237641723356	371.32113378684807	67	127
371.23986394557824	371.4372335600907	65	127
371.3559637188209	371.5417233560091	63	127
371.5765532879819	371.6578231292517	67	127
371.6926303854875	371.77392290249435	72	127
371.8551927437642	371.936462585034	75	127
371.9712925170068	372.08739229024945	77	127
372.0060997732426	372.1686621315193	74	127
372.2499319727891	372.3428117913832	71	127
372.36603174603175	372.45891156462585	65	127
372.49374149659866	372.58662131519276	63	127
372.6098412698413	372.7027210884354	67	127
372.71430839002267	372.7956009070295	72	127
372.81879818594103	372.91170068027213	75	127
372.9349206349206	373.05102040816325	77	127
372.9697505668934	373.13226757369614	74	127
373.17873015873016	373.26	71	127
373.2948299319728	373.3877097505669	65	127
373.5270294784581	373.6431065759637	63	127
373.67795918367347	373.81727891156464	79	127
373.7360090702948	373.9333786848073	78	127
373.8521088435374	374.0146485260771	79	127
373.96820861678003	374.13074829931975	77	127
374.0494557823129	374.2352380952381	75	127
374.1655782312925	374.35131519274375	74	127
374.28167800453514	374.46743764172334	72	127
374.3977777777778	374.5602947845805	71	127
374.50226757369614	374.66478458049886	72	127
374.59514739229024	374.78090702947844	74	127
374.7112471655329	374.90861678004535	72	127
374.8273469387755	375.024716553288	71	127
374.94344671201816	375.17562358276643	68	127
375.0595464852608	375.291746031746	67	127
375.2104761904762	375.4310657596372	65	127
375.3265759637188	375.53555555555556	63	127
375.57038548752837	375.6516553287982	72	127
375.686462585034	375.76775510204084	75	127
375.8025850340136	375.8838321995465	77	127
375.9186848072562	375.98832199546484	78	127
375.94190476190477	376.0580045351474	75	127
376.08122448979594	376.17410430839004	72	127
376.1857142857143	376.26698412698414	66	127
376.2902040816327	376.39467120181405	65	127
376.41791383219953	376.51079365079363	77	127
376.53401360544217	376.62689342403627	79	127
376.6617233560091	376.7546031746032	80	127
376.80104308390025	376.9171201814059	82	127
376.835873015873	377.01	79	127
377.056462585034	377.1493424036281	76	127
377.1957823129252	377.277052154195	70	127
377.3118820861678	377.39315192743766	68	127
377.42795918367347	377.5092517006803	77	127
377.5673015873016	377.6485714285714	83	127
377.6950113378685	377.7762811791383	84	127
377.81111111111113	377.90399092970523	86	127
377.8459410430839	377.9620408163265	83	127
377.99687074829933	378.08975056689343	79	127
378.12458049886624	378.21746031746034	77	127
378.2406575963719	378.3683900226757	75	127
378.39160997732426	378.4728798185941	79	127
378.49609977324263	378.58897959183673	83	127
378.6121995464853	378.70507936507937	84	127
378.7282993197279	378.84439909297055	86	127
378.76312925170066	378.93727891156465	83	127
378.9604761904762	379.041768707483	79	127
379.07659863945577	379.1462585034014	77	127
379.18108843537414	379.262335600907	75	127
379.2971882086168	379.4132879818594	75	127
379.3320181405896	379.52938775510205	77	127
379.4481179138322	379.6454875283447	74	127
379.56419501133786	379.71514739229025	75	127
379.74997732426306	379.8660770975057	75	127
379.7848072562358	379.97056689342406	77	127
379.90090702947845	380.0866439909297	74	127
380.0170068027211	380.1795238095238	75	127
380.2027664399093	380.3188662131519	75	127
380.24920634920636	380.43496598639456	77	127
380.365306122449	380.5510657596372	74	127
380.48140589569164	380.65555555555557	75	127
380.6787755102041	380.7948752834467	75	127
380.71360544217686	380.96902494331067	77	127
380.8297052154195	381.13156462585033	74	127
381.0038548752834	381.5611337868481	79	127
383.2445804988662	383.9992290249433	60	127
383.2445804988662	383.9992290249433	68	127
384.2662585034014	385.3227664399093	62	127
384.2662585034014	385.3227664399093	60	127
385.2298866213152	385.88004535147394	63	127
385.2298866213152	385.88004535147394	60	127
385.7987755102041	386.6695238095238	63	127
385.7987755102041	386.6695238095238	60	127
386.62308390022673	387.72603174603177	63	127
386.62308390022673	387.72603174603177	60	127
387.6215419501134	388.68965986394556	63	127
387.6215419501134	388.68965986394556	60	127
388.62	389.1540589569161	59	127
388.62	389.1540589569161	65	127
389.0843990929705	389.2237188208617	60	127
389.0843990929705	389.2237188208617	63	127
389.3514285714286	389.8390476190476	67	127
389.8390476190476	390.3498866213152	67	127
390.3498866213152	390.82589569160996	67	127
390.73301587301586	390.9419954648526	69	127
390.86072562358277	391.0697052154195	71	127
390.9884353741497	391.15097505668933	72	127
391.3483446712018	391.83596371882084	67	127
391.754693877551	391.9520634920635	69	127
391.87079365079364	392.05655328798184	71	127
391.9868934240363	392.13782312925173	72	127
392.3235827664399	392.7995918367347	79	127
392.71832199546486	392.9273015873016	81	127
392.8344217687075	393.04340136054424	83	127
392.96213151927435	393.12467120181407	84	127
393.32204081632653	393.82126984126984	67	127
393.82126984126984	394.32049886621314	67	127
394.32049886621314	394.7848979591837	67	127
394.7152380952381	394.8661678004535	69	127
394.8081179138322	394.99387755102043	71	127
394.9009977324263	395.063537414966	72	127
395.27251700680273	395.7485260770975	68	127
395.66725623582767	395.89945578231294	70	127
395.80657596371884	396.0271655328798	72	127
395.94589569160996	396.0968253968254	73	127
396.23614512471653	396.6657142857143	72	127
396.58444444444444	396.7934240362812	74	127
396.71215419501135	396.874693877551	76	127
396.7934240362812	396.94435374149657	77	127
397.1301133786848	397.52485260770976	79	127
397.4668027210884	397.6409523809524	81	127
397.5596825396825	397.76866213151925	83	127
397.6873922902494	397.8267120181406	84	127
397.98925170068026	398.5117006802721	79	127
398.418820861678	398.62780045351474	81	127
398.5465306122449	398.75551020408165	83	127
398.75551020408165	398.84839002267574	84	127
398.88321995464855	399.0109297052154	79	127
398.9180498866213	399.1154195011338	81	127
399.0457596371882	399.2431292517007	83	127
399.2431292517007	399.3360090702948	84	127
399.3708390022676	399.4637188208617	79	127
399.3940589569161	399.56820861678005	81	127
399.4985487528345	399.69591836734696	83	127
399.69591836734696	399.78879818594106	84	127
399.8236281179138	399.962947845805	79	127
399.8700680272109	400.0906575963719	81	127
399.9977777777778	400.20675736961454	83	127
400.20675736961454	400.29963718820864	84	127
400.3344671201814	400.4621768707483	79	127
400.38090702947846	400.5898866213152	81	127
400.4970068027211	400.70598639455784	83	127
400.70598639455784	401.553514739229	84	127
401.4722448979592	401.66961451247164	60	127
401.65800453514737	401.8089342403628	62	127
401.66961451247164	401.73927437641726	60	127
401.727664399093	401.89020408163265	60	127
401.79732426303855	401.9598639455782	62	127
401.8785941043084	402.0295238095238	60	127
401.9366439909297	402.0875736961451	62	127
402.0063038548753	402.15723356009073	60	127
402.07596371882084	402.2268934240363	62	127
402.14562358276646	402.2849433106576	60	127
402.215283446712	402.3662131519274	62	127
402.2733333333333	402.435873015873	60	127
402.435873015873	402.56358276643994	59	127
402.48231292517005	402.7261224489796	60	127
402.7261224489796	404.10770975056687	68	127
404.61854875283444	405.4428571428571	77	127
405.37319727891156	405.5821768707483	56	127
405.55895691609976	405.7098866213152	58	127
405.5821768707483	405.6402267573696	56	127
405.6286167800454	405.77954648526077	56	127
405.69827664399094	405.8492063492063	58	127
405.7679365079365	405.91886621315194	56	127
405.8375963718821	405.9885260770975	58	127
405.8956462585034	406.0465759637188	56	127
405.96530612244896	406.1162358276644	58	127
406.0349659863946	406.19750566893424	56	127
406.10462585034014	406.27877551020407	58	127
406.18589569160997	406.3484353741497	56	127
406.3484353741497	406.4877551020408	55	127
406.406485260771	406.627074829932	56	127
406.627074829932	408.00866213151926	55	127
406.627074829932	408.00866213151926	65	127
408.46145124716554	408.86780045351475	55	127
408.46145124716554	408.86780045351475	63	127
408.46145124716554	408.86780045351475	72	127
409.541179138322	409.95913832199545	65	127
409.541179138322	409.95913832199545	72	127
409.541179138322	409.95913832199545	80	127
410.7137868480726	411.13174603174605	63	127
410.7137868480726	411.13174603174605	72	127
410.7137868480726	411.13174603174605	79	127
412.57138321995467	413.0241723356009	62	127
412.57138321995467	413.0241723356009	55	127
412.57138321995467	413.0241723356009	71	127
417.5868934240363	418.0861224489796	72	127
418.0048526077097	418.57374149659864	76	127
418.4924716553288	419.0497505668934	72	127
419.0497505668934	419.2122902494331	72	127
419.0497505668934	419.13102040816324	71	127
419.13102040816324	419.3051700680272	74	127
419.2122902494331	419.560589569161	72	127
419.47931972789115	421.54589569161	71	127
421.54589569161	422.1263945578231	74	127
422.033514739229	422.6256235827664	77	127
422.5327437641723	423.1248526077097	71	127
423.1248526077097	423.65891156462584	74	127
423.577641723356	425.33074829931974	72	127
425.33074829931974	425.59777777777776	79	127
425.51650793650794	425.8531972789116	78	127
425.7603174603175	426.09700680272107	79	127
426.01573696145124	426.3408163265306	77	127
426.2479365079365	426.5614058956916	75	127
426.4801360544218	426.7936054421769	74	127
426.712335600907	427.01419501133785	72	127
427.01419501133785	427.09546485260773	71	127
427.01419501133785	427.18834467120183	72	127
427.09546485260773	427.2580045351474	74	127
427.18834467120183	427.51342403628115	72	127
427.4321541950113	429.45229024943313	71	127
429.45229024943313	429.9282993197279	74	127
429.84702947845807	430.3926984126984	77	127
430.2998185941043	430.85709750566895	71	127
430.85709750566895	433.27197278911564	64	127
430.85709750566895	433.27197278911564	72	127
433.27197278911564	433.7363718820862	64	127
433.27197278911564	433.7363718820862	72	127
433.7363718820862	434.21238095238095	64	127
433.7363718820862	434.21238095238095	72	127
434.21238095238095	434.6883900226757	64	127
434.21238095238095	434.6883900226757	72	127
434.6883900226757	436.31378684807254	79	127
434.6883900226757	436.31378684807254	72	127
434.6883900226757	436.31378684807254	64	127
436.31378684807254	436.44149659863945	76	127
436.34861678004535	436.5808163265306	77	127
436.4879365079365	436.70852607709753	79	127
436.62725623582764	436.8130158730159	76	127
436.7433560090703	437.2193650793651	72	127
438.9028117913832	440.7952380952381	84	127
440.7952380952381	440.8648979591837	80	127
440.84167800453514	440.8648979591837	82	127
440.8648979591837	440.92294784580497	84	127
440.8648979591837	441.06226757369615	80	127
440.96938775510205	441.41056689342406	77	127
444.4872108843537	444.6149206349206	80	127
444.5336507936508	444.69619047619045	82	127
444.6149206349206	444.8122902494331	84	127
444.73102040816326	444.94	80	127
444.94	445.0677097505669	85	127
445.4856689342404	445.59015873015875	85	127
445.8455782312925	445.8804081632653	85	127
445.9732879818594	446.1590476190476	80	127
446.530566893424	446.64666666666665	80	127
446.925306122449	446.96013605442175	80	127
447.0414058956916	448.31850340136054	82	127
448.248843537415	448.35333333333335	82	127
448.4346031746032	448.53909297052155	84	127
448.8061224489796	448.8409523809524	85	127
448.9222222222222	449.1544217687075	87	127
449.58399092970524	449.7000907029478	87	127
449.9787301587302	450.0135600907029	85	127
450.0716099773243	450.25736961451247	84	127
450.08321995464854	450.14126984126983	85	127
450.53600907029477	450.64049886621314	84	127
450.8843083900227	450.9307482993197	82	127
451.02362811791386	452.3819954648526	81	127
452.31233560090703	452.4168253968254	81	127
452.49809523809523	452.6025850340136	82	127
452.927664399093	452.9624943310658	84	127
453.0553741496599	453.1714739229025	85	127
453.4501133786848	453.5197732426304	79	127
453.6010430839002	453.7287528344671	80	127
454.0190022675737	454.0538321995465	82	127
454.1351020408163	454.2628117913832	84	127
454.5414512471655	454.57628117913833	77	127
454.65755102040816	454.76204081632653	79	127
455.0058503401361	455.0522902494331	80	127
455.13356009070293	455.2380498866213	82	127
455.48185941043084	455.52829931972786	76	127
455.66761904761904	455.7721088435374	77	127
456.0275283446712	456.062358276644	79	127
456.1436281179138	456.6892970521542	80	127
456.60802721088436	457.1885260770975	79	127
457.10725623582766	458.15215419501135	77	127
458.09410430839	459.1738321995465	78	127
459.09256235827667	459.69628117913834	79	127
460.75278911564624	461.2171882086168	77	127
461.2171882086168	462.1692063492064	76	127
462.0879365079365	463.08639455782316	75	127
463.08639455782316	464.0732426303855	74	127
463.99197278911566	465.0717006802721	73	127
465.0717006802721	466.0121088435374	72	127
465.9308390022676	466.5113378684807	74	127
466.4184580498866	467.3008163265306	75	127
467.3008163265306	467.62589569160997	79	127
467.76521541950115	468.13673469387754	84	127
468.2528344671202	468.6011337868481	87	127
468.72884353741495	469.1235827664399	91	127
469.26290249433106	469.3441723356009	91	127
469.49510204081633	469.5647619047619	91	127
469.77374149659863	469.8434013605442	91	127
470.0407709750567	470.1104308390023	91	127
470.2961904761905	470.36585034013603	91	127
470.5167800453515	470.5980498866213	91	127
470.77219954648524	470.84185941043086	91	127
471.0740589569161	472.5949659863946	91	127
472.5949659863946	472.72267573696143	87	127
472.6414058956916	472.81555555555553	89	127
472.7691156462585	472.94326530612244	91	127
472.85038548752834	473.0593650793651	87	127
472.97809523809525	473.4192743764172	84	127
475.218820861678	476.6236281179138	84	127
476.6236281179138	476.73972789115646	80	127
476.65845804988663	476.83260770975056	82	127
476.77455782312927	476.96031746031747	84	127
476.87904761904764	477.0880272108844	80	127
477.0067573696145	477.4595464852608	77	127
479.1662131519274	480.6290702947846	77	127
480.6290702947846	480.7567800453515	75	127
480.67551020408166	480.88448979591834	74	127
480.8032199546485	481.000589569161	72	127
480.91931972789115	481.10507936507935	71	127
481.0354195011338	482.55632653061224	79	127
482.4750566893424	482.6724263038549	77	127
482.59115646258505	482.77691609977325	75	127
482.7072562358277	482.90462585034015	74	127
482.82335600907027	483.0091156462585	72	127
483.0091156462585	484.00757369614513	72	127
483.9263038548753	484.97120181405893	71	127
484.97120181405893	485.1569614512472	72	127
485.238231292517	485.6213605442177	84	127
485.7839002267574	486.1554195011338	84	127
486.2831292517007	486.35278911564626	84	127
486.5153287981859	486.57337868480727	86	127
486.72430839002266	486.7939682539683	87	127
486.9797278911565	487.0958276643991	89	127
487.4789569160998	488.14072562358274	89	127
488.4077551020408	488.52385487528346	87	127
488.44258503401363	488.6515646258503	86	127
488.5702947845805	488.76766439909295	84	127
488.6863945578231	488.8837641723356	83	127
488.80249433106576	489.03469387755104	91	127
489.44104308390024	490.0795918367347	91	127
490.4859410430839	490.578820861678	89	127
490.53238095238095	490.6833106575964	87	127
490.6020408163265	490.78780045351476	86	127
490.71814058956915	490.9155102040816	84	127
490.9155102040816	491.85591836734693	84	127
491.7746485260771	492.76149659863944	83	127
492.76149659863944	493.0981859410431	84	127
495.5014512471655	495.6059410430839	79	127
495.6059410430839	496.1748299319728	91	127
496.3954195011338	496.4882993197279	91	127
496.51151927437644	496.9991383219955	87	127
499.14698412698414	499.2630839002268	79	127
499.2630839002268	499.82036281179137	91	127
500.00612244897957	500.0757823129252	91	127
500.0990022675737	500.598231292517	87	127
500.9465306122449	501.0626303854875	79	127
501.0626303854875	501.6547392290249	91	127
501.8521088435374	501.9333786848073	91	127
501.96820861678003	502.3977777777778	87	127
502.6531972789116	502.7925170068027	67	127
502.6996371882086	502.9202267573696	79	127
502.8273469387755	503.03632653061226	78	127
502.9550566893424	503.1524263038549	79	127
503.071156462585	503.26852607709753	78	127
503.18725623582765	503.3846258503401	79	127
503.3033560090703	503.50072562358275	78	127
503.4194557823129	503.6168253968254	79	127
503.54716553287983	503.7445351473923	78	127
503.66326530612247	503.8838548752834	79	127
503.7909750566893	504.2553741496599	75	127
504.89392290249435	505.13773242630384	67	127
504.89392290249435	505.13773242630384	75	127
504.89392290249435	505.13773242630384	84	127
505.7414512471655	506.1478004535147	55	127
505.7414512471655	506.1478004535147	63	127
505.7414512471655	506.1478004535147	72	127
