# onset,offset,note,velocity
3.4938321995464854	5.11922902494331	55	127
3.4938321995464854	5.11922902494331	67	127
5.11922902494331	5.223718820861678	51	127
5.11922902494331	5.223718820861678	63	127
5.223718820861678	5.363038548752835	53	127
5.223718820861678	5.363038548752835	65	127
5.363038548752835	5.502358276643991	55	127
5.363038548752835	5.502358276643991	67	127
5.502358276643991	5.664897959183674	63	127
5.502358276643991	5.664897959183674	51	127
5.664897959183674	5.908707482993197	48	127
5.664897959183674	5.908707482993197	60	127
7.940453514739229	9.600657596371882	60	127
7.940453514739229	9.600657596371882	72	127
9.600657596371882	9.693537414965986	56	127
9.600657596371882	9.693537414965986	68	127
9.693537414965986	9.82124716553288	58	127
9.693537414965986	9.82124716553288	70	127
9.82124716553288	9.97219954648526	60	127
9.82124716553288	9.97219954648526	72	127
9.97219954648526	10.15795918367347	56	127
9.97219954648526	10.15795918367347	68	127
10.15795918367347	10.332108843537416	53	127
10.15795918367347	10.332108843537416	65	127
12.421904761904761	13.652562358276644	53	127
12.421904761904761	13.652562358276644	65	127
13.652562358276644	13.931201814058957	51	127
13.652562358276644	13.931201814058957	63	127
13.931201814058957	14.035691609977324	50	127
13.931201814058957	14.035691609977324	62	127
14.221451247165533	14.267891156462586	48	127
14.221451247165533	14.267891156462586	60	127
14.430430839002268	14.86	47	127
14.430430839002268	14.86	59	127
14.86	15.405668934240364	46	127
14.86	15.405668934240364	58	127
15.405668934240364	15.951337868480726	57	127
15.405668934240364	15.951337868480726	45	127
15.951337868480726	16.566666666666666	56	127
15.951337868480726	16.566666666666666	44	127
16.566666666666666	17.588344671201813	43	127
16.566666666666666	17.588344671201813	55	127
17.588344671201813	18.702902494331067	36	127
17.588344671201813	18.702902494331067	43	127
17.588344671201813	18.702902494331067	48	127
17.588344671201813	18.702902494331067	51	127
17.588344671201813	18.702902494331067	55	127
18.702902494331067	21.01328798185941	31	127
18.702902494331067	21.01328798185941	43	127
18.702902494331067	21.01328798185941	47	127
18.702902494331067	21.01328798185941	50	127
18.702902494331067	21.01328798185941	55	127
21.01328798185941	22.917324263038548	36	127
21.01328798185941	21.12938775510204	48	127
21.12938775510204	21.23387755102041	51	127
21.23387755102041	21.349954648526076	55	127
21.349954648526076	21.47766439909297	51	127
21.47766439909297	21.605396825396827	48	127
21.605396825396827	21.73310657596372	51	127
21.73310657596372	21.849206349206348	55	127
21.849206349206348	21.97691609977324	51	127
21.97691609977324	22.104603174603174	48	127
22.104603174603174	22.220725623582766	51	127
22.220725623582766	22.336825396825397	55	127
22.336825396825397	22.46453514739229	51	127
22.46453514739229	22.592244897959183	48	127
22.592244897959183	22.719954648526077	51	127
22.719954648526077	22.812834467120183	55	127
22.812834467120183	22.917324263038548	51	127
22.917324263038548	24.995510204081633	55	127
22.917324263038548	23.010204081632654	36	127
22.917324263038548	24.995510204081633	48	127
22.917324263038548	24.995510204081633	52	127
23.03342403628118	23.137913832199548	35	127
23.172743764172335	23.26562358276644	36	127
23.300453514739228	23.381723356009072	35	127
23.404943310657597	23.509433106575965	36	127
23.555873015873015	23.660362811791384	35	127
23.69517006802721	23.788072562358277	36	127
23.822902494331064	23.88095238095238	35	127
23.904172335600908	23.99705215419501	36	127
24.0318820861678	24.124761904761904	35	127
24.159591836734695	24.275691609977326	36	127
24.322131519274375	24.426621315192744	35	127
24.44984126984127	24.5659410430839	36	127
24.623990929705215	24.71687074829932	35	127
24.75170068027211	24.821360544217686	36	127
24.86780045351474	24.960680272108842	35	127
24.995510204081633	26.88793650793651	36	127
24.995510204081633	25.111609977324264	48	127
25.111609977324264	25.239319727891157	53	127
25.239319727891157	25.355419501133788	56	127
25.355419501133788	25.471519274376416	53	127
25.471519274376416	25.587619047619047	48	127
25.587619047619047	25.703718820861678	53	127
25.703718820861678	25.83142857142857	56	127
25.83142857142857	25.959138321995464	53	127
25.959138321995464	26.063628117913833	48	127
26.063628117913833	26.191337868480726	53	127
26.191337868480726	26.31904761904762	56	127
26.31904761904762	26.43514739229025	53	127
26.43514739229025	26.551247165532878	48	127
26.551247165532878	26.66734693877551	53	127
26.66734693877551	26.760226757369615	56	127
26.760226757369615	26.88793650793651	53	127
26.88793650793651	28.989342403628118	53	127
26.88793650793651	26.96920634920635	36	127
26.88793650793651	28.989342403628118	56	127
26.88793650793651	28.989342403628118	48	127
27.00403628117914	27.073696145124718	35	127
27.096916099773242	27.18979591836735	36	127
27.224625850340136	27.329115646258504	35	127
27.375555555555554	27.491655328798185	36	127
27.526485260770976	27.630975056689344	35	127
27.65419501133787	27.73546485260771	36	127
27.7702947845805	27.863174603174603	35	127
27.88639455782313	27.96766439909297	36	127
28.00249433106576	28.106984126984127	35	127
28.13020408163265	28.23469387755102	36	127
28.257913832199545	28.35079365079365	35	127
28.374013605442176	28.466893424036282	36	127
28.50172335600907	28.594603174603176	35	127
28.65265306122449	28.76875283446712	36	127
28.791972789115647	28.942902494331065	35	127
28.989342403628118	30.788888888888888	36	127
29.093832199546487	29.22154195011338	50	127
29.22154195011338	29.349251700680274	53	127
29.349251700680274	29.476961451247167	56	127
29.476961451247167	29.60467120181406	59	127
29.60467120181406	29.732380952380954	62	127
29.732380952380954	29.84848072562358	65	127
29.84848072562358	29.976190476190474	68	127
29.976190476190474	30.103900226757368	71	127
30.103900226757368	30.196780045351474	68	127
30.196780045351474	30.266439909297052	62	127
30.266439909297052	30.37092970521542	59	127
30.37092970521542	30.52185941043084	56	127
30.52185941043084	30.661179138321994	53	127
30.661179138321994	30.788888888888888	50	127
30.788888888888888	32.170476190476194	36	127
30.91659863945578	31.02108843537415	51	127
31.02108843537415	31.148798185941043	55	127
31.148798185941043	31.264897959183674	60	127
31.264897959183674	31.392607709750568	63	127
31.392607709750568	31.473877551020408	67	127
31.473877551020408	31.6015873015873	72	127
31.6015873015873	31.70607709750567	67	127
31.70607709750567	31.833786848072563	72	127
31.833786848072563	31.915056689342403	67	127
31.915056689342403	32.0427664399093	63	127
32.0427664399093	32.170476190476194	60	127
32.170476190476194	32.66968253968254	39	127
32.170476190476194	32.28655328798186	55	127
32.28655328798186	32.414263038548754	60	127
32.414263038548754	32.54197278911565	55	127
32.54197278911565	32.66968253968254	51	127
32.66968253968254	34.585351473922906	43	127
32.936734693877554	33.06444444444445	51	127
33.06444444444445	33.2037641723356	55	127
33.2037641723356	33.296621315192745	60	127
33.296621315192745	33.40113378684807	55	127
33.40113378684807	33.50562358276644	51	127
33.50562358276644	33.644943310657595	55	127
33.644943310657595	34.585351473922906	31	127
33.88875283446712	34.01646258503401	50	127
34.01646258503401	34.144172335600906	55	127
34.144172335600906	34.23705215419501	59	127
34.23705215419501	34.32993197278912	55	127
34.32993197278912	34.45764172335601	50	127
34.45764172335601	34.585351473922906	55	127
34.585351473922906	34.7130612244898	51	127
34.68981859410431	34.8059410430839	36	127
34.8059410430839	34.93365079365079	39	127
34.93365079365079	35.07294784580499	43	127
35.07294784580499	35.2471201814059	48	127
35.20065759637188	35.32836734693878	51	127
35.32836734693878	35.4328798185941	55	127
35.4328798185941	35.57219954648526	60	127
35.57219954648526	35.59541950113379	63	127
35.69990929705215	35.827619047619045	48	127
35.69990929705215	35.827619047619045	63	127
35.827619047619045	35.932108843537414	51	127
35.827619047619045	35.932108843537414	67	127
35.932108843537414	36.048208616780045	72	127
35.932108843537414	36.048208616780045	55	127
36.048208616780045	36.1875283446712	60	127
36.048208616780045	36.164308390022676	75	127
36.164308390022676	36.268798185941044	72	127
36.268798185941044	36.39650793650794	74	127
36.39650793650794	36.52421768707483	75	127
36.52421768707483	37.77809523809524	68	127
36.52421768707483	36.68675736961451	77	127
36.52421768707483	37.77809523809524	62	127
36.52421768707483	37.77809523809524	65	127
37.06988662131519	38.04512471655329	77	127
37.77809523809524	38.04512471655329	65	127
37.77809523809524	38.04512471655329	62	127
37.77809523809524	38.04512471655329	68	127
38.04512471655329	38.28893424036281	62	127
38.04512471655329	38.17283446712018	75	127
38.04512471655329	38.28893424036281	65	127
38.04512471655329	38.28893424036281	68	127
38.17283446712018	38.28893424036281	74	127
38.28893424036281	38.405034013605444	72	127
38.28893424036281	38.53274376417234	62	127
38.28893424036281	38.53274376417234	65	127
38.28893424036281	38.53274376417234	68	127
38.405034013605444	38.53274376417234	71	127
38.53274376417234	39.62408163265306	67	127
38.53274376417234	38.672063492063494	79	127
38.53274376417234	39.62408163265306	63	127
39.00873015873016	39.90269841269841	79	127
39.62408163265306	39.90269841269841	63	127
39.90269841269841	40.06526077097506	77	127
39.90269841269841	40.204580498866214	68	127
40.06526077097506	40.204580498866214	75	127
40.204580498866214	40.33229024943311	74	127
40.204580498866214	40.483219954648526	66	127
40.33229024943311	40.483219954648526	72	127
40.483219954648526	41.551315192743765	72	127
40.483219954648526	41.06371882086168	67	127
40.483219954648526	41.551315192743765	55	127
41.06371882086168	41.551315192743765	63	127
41.551315192743765	42.35242630385488	55	127
41.551315192743765	42.073786848072565	65	127
41.551315192743765	42.35242630385488	71	127
41.551315192743765	42.073786848072565	62	127
42.073786848072565	42.35242630385488	65	127
42.35242630385488	42.85165532879819	63	127
42.35242630385488	42.60784580498866	72	127
42.35242630385488	42.85165532879819	60	127
42.60784580498866	42.85165532879819	73	127
42.85165532879819	43.09546485260771	74	127
43.09546485260771	43.31603174603175	75	127
43.31603174603175	43.536643990929704	76	127
43.536643990929704	43.768843537414966	77	127
43.768843537414966	43.96621315192744	78	127
43.96621315192744	44.23324263038549	79	127
44.23324263038549	45.405850340136055	79	127
44.46541950113379	44.686031746031745	47	127
44.686031746031745	44.91823129251701	48	127
44.91823129251701	45.185260770975056	50	127
45.185260770975056	45.405850340136055	51	127
45.405850340136055	45.521950113378686	80	127
45.405850340136055	45.603197278911566	48	127
45.521950113378686	45.603197278911566	79	127
45.603197278911566	45.84702947845805	45	127
45.603197278911566	45.73090702947846	77	127
45.73090702947846	45.84702947845805	75	127
45.84702947845805	46.11403628117914	42	127
45.84702947845805	45.96312925170068	74	127
45.96312925170068	46.11403628117914	72	127
46.11403628117914	46.19532879818594	43	127
46.11403628117914	47.042857142857144	72	127
46.38108843537415	46.57845804988662	51	127
46.38108843537415	46.57845804988662	55	127
46.38108843537415	46.57845804988662	48	127
46.38108843537415	46.57845804988662	43	127
46.57845804988662	46.822267573696145	51	127
46.57845804988662	46.822267573696145	55	127
46.57845804988662	46.822267573696145	43	127
46.57845804988662	46.822267573696145	48	127
46.822267573696145	47.042857142857144	43	127
46.822267573696145	47.042857142857144	48	127
46.822267573696145	47.042857142857144	51	127
46.822267573696145	47.042857142857144	55	127
47.042857142857144	47.100907029478456	71	127
47.100907029478456	47.158956916099775	72	127
47.158956916099775	47.21700680272109	71	127
47.21700680272109	47.29827664399093	72	127
47.25181405895692	47.4956462585034	50	127
47.25181405895692	47.4956462585034	53	127
47.25181405895692	47.4956462585034	43	127
47.25181405895692	47.4956462585034	55	127
47.29827664399093	47.37952380952381	71	127
47.37952380952381	47.43759637188209	72	127
47.43759637188209	47.4956462585034	71	127
47.4956462585034	47.57691609977324	72	127
47.4956462585034	47.72784580498866	50	127
47.4956462585034	47.72784580498866	53	127
47.4956462585034	47.72784580498866	55	127
47.4956462585034	47.72784580498866	43	127
47.57691609977324	47.65818594104309	71	127
47.65818594104309	47.72784580498866	72	127
47.72784580498866	47.82072562358277	71	127
47.72784580498866	48.018095238095235	53	127
47.72784580498866	48.018095238095235	43	127
47.72784580498866	48.018095238095235	50	127
47.72784580498866	48.018095238095235	55	127
47.82072562358277	47.91360544217687	69	127
47.91360544217687	48.018095238095235	71	127
48.018095238095235	48.16902494331066	72	127
48.018095238095235	48.16902494331066	43	127
48.018095238095235	48.16902494331066	36	127
48.018095238095235	48.16902494331066	39	127
48.018095238095235	48.16902494331066	48	127
48.018095238095235	48.16902494331066	60	127
48.018095238095235	48.16902494331066	63	127
48.018095238095235	48.16902494331066	67	127
49.05138321995465	49.21392290249433	43	127
49.05138321995465	49.21392290249433	31	127
49.05138321995465	49.21392290249433	35	127
49.05138321995465	49.21392290249433	38	127
49.05138321995465	49.21392290249433	62	127
49.05138321995465	49.21392290249433	67	127
49.05138321995465	49.21392290249433	71	127
49.05138321995465	49.21392290249433	74	127
49.991791383219955	50.154331065759635	36	127
49.991791383219955	50.154331065759635	39	127
49.991791383219955	50.154331065759635	43	127
49.991791383219955	50.154331065759635	48	127
49.991791383219955	50.154331065759635	63	127
49.991791383219955	50.154331065759635	67	127
49.991791383219955	50.154331065759635	72	127
49.991791383219955	50.154331065759635	75	127
51.46625850340136	51.582358276643994	77	127
51.582358276643994	51.75650793650794	75	127
51.75650793650794	51.91904761904762	74	127
51.91904761904762	52.05836734693877	72	127
52.05836734693877	53.393514739229026	65	127
52.05836734693877	52.557596371882084	72	127
52.05836734693877	53.393514739229026	62	127
52.05836734693877	53.393514739229026	67	127
52.557596371882084	53.25419501133787	71	127
53.25419501133787	53.393514739229026	72	127
53.393514739229026	53.91596371882086	60	127
53.393514739229026	53.4631746031746	72	127
53.393514739229026	53.91596371882086	63	127
53.393514739229026	54.55451247165533	67	127
53.4631746031746	53.53283446712018	74	127
53.53283446712018	53.602494331065756	72	127
53.602494331065756	53.706984126984125	74	127
53.706984126984125	53.776643990929706	72	127
53.776643990929706	53.85791383219954	71	127
53.85791383219954	53.91596371882086	72	127
53.91596371882086	55.08857142857143	76	127
53.91596371882086	54.55451247165533	72	127
53.91596371882086	55.727120181405894	55	127
54.55451247165533	55.08857142857143	66	127
54.55451247165533	55.08857142857143	69	127
55.08857142857143	55.727120181405894	74	127
55.08857142857143	55.727120181405894	67	127
55.08857142857143	55.727120181405894	71	127
56.21473922902494	56.36566893424036	39	127
56.21473922902494	56.36566893424036	43	127
56.21473922902494	56.36566893424036	36	127
56.21473922902494	56.36566893424036	48	127
56.21473922902494	56.36566893424036	60	127
56.21473922902494	56.36566893424036	63	127
56.21473922902494	56.36566893424036	67	127
56.21473922902494	56.36566893424036	72	127
57.143537414965984	57.317687074829934	34	127
57.143537414965984	57.317687074829934	38	127
57.143537414965984	57.317687074829934	41	127
57.143537414965984	57.317687074829934	46	127
57.143537414965984	57.317687074829934	62	127
57.143537414965984	57.317687074829934	65	127
57.143537414965984	57.317687074829934	68	127
57.143537414965984	57.317687074829934	70	127
57.143537414965984	57.317687074829934	74	127
58.16521541950113	58.246485260770974	46	127
58.16521541950113	58.246485260770974	50	127
58.16521541950113	58.246485260770974	53	127
58.16521541950113	58.246485260770974	58	127
58.16521541950113	58.246485260770974	68	127
58.16521541950113	58.246485260770974	74	127
58.16521541950113	58.246485260770974	77	127
58.16521541950113	58.246485260770974	80	127
58.42063492063492	58.55995464852608	58	127
58.55995464852608	58.676054421768704	60	127
58.676054421768704	58.745714285714286	62	127
58.896643990929704	58.966303854875285	63	127
59.1172335600907	59.175283446712015	65	127
59.349433106575965	59.41909297052154	67	127
59.570022675736965	59.63968253968254	68	127
59.81383219954648	59.895102040816326	65	127
60.046031746031744	60.115691609977326	67	127
60.324671201814056	60.4059410430839	70	127
60.55687074829932	60.6265306122449	67	127
60.77746031746032	60.85873015873016	63	127
61.032879818594104	61.102539682539685	62	127
61.311519274376415	61.381179138322	65	127
61.578548752834465	61.648208616780046	62	127
61.83396825396825	61.90362811791383	58	127
62.031337868480726	62.1009977324263	63	127
62.26353741496599	62.33319727891156	58	127
62.50734693877551	62.57700680272109	60	127
62.739546485260774	62.80920634920635	62	127
62.97174603174603	63.04140589569161	63	127
63.20394557823129	63.27360544217687	65	127
63.447755102040816	63.52902494331066	63	127
63.67995464852608	63.74961451247165	61	127
63.888934240362815	63.95859410430839	60	127
64.1443537414966	64.22562358276645	63	127
64.39977324263039	64.48104308390023	60	127
64.65519274376418	64.72485260770975	58	127
64.86417233560091	64.93383219954649	56	127
65.09637188208617	65.16603174603175	60	127
65.35179138321996	65.42145124716554	56	127
65.6536507936508	65.75814058956917	57	127
65.90907029478458	65.97873015873016	58	127
66.1528798185941	66.23414965986395	57	127
66.39668934240363	66.5592290249433	58	127
66.721768707483	66.79142857142857	57	127
66.95396825396826	67.02362811791383	58	127
67.162947845805	67.22097505668934	57	127
67.38353741496599	67.4415873015873	58	127
67.60410430839002	67.67378684807257	60	127
67.82471655328798	67.8827664399093	62	127
68.05691609977325	68.12657596371882	58	127
68.30072562358276	68.38199546485261	62	127
68.5445351473923	68.61419501133787	63	127
68.75349206349206	68.81156462585034	65	127
68.99732426303855	69.06698412698412	67	127
69.21791383219954	69.28757369614513	68	127
69.47333333333333	69.55460317460317	65	127
69.71714285714286	69.78680272108843	67	127
69.94934240362812	70.0190022675737	70	127
70.18154195011338	70.25120181405896	75	127
70.41371882086167	70.48340136054422	79	127
70.64591836734694	70.71560090702948	82	127
70.87814058956916	70.94780045351474	79	127
71.14517006802721	71.21482993197279	80	127
71.37736961451247	71.45863945578232	84	127
71.7140589569161	71.79530612244898	79	127
71.95786848072562	72.0275283446712	82	127
72.15523809523809	72.21328798185941	79	127
72.3758276643991	72.44548752834467	75	127
72.61963718820861	72.68927437641723	74	127
72.85183673469388	72.93310657596372	80	127
73.09564625850341	73.16530612244898	77	127
73.3278231292517	73.39750566893424	74	127
73.56002267573696	73.64131519274376	75	127
73.80385487528345	73.87351473922902	70	127
74.03605442176871	74.10571428571428	67	127
74.2566439909297	74.32628117913832	63	127
74.48884353741497	74.55850340136054	58	127
74.72104308390023	74.74426303854875	63	127
74.89519274376417	74.96482993197279	56	127
74.89519274376417	74.99968253968254	46	127
75.15061224489796	75.22024943310657	62	127
75.2667120181406	75.30154195011337	46	127
75.41764172335601	75.47566893424036	55	127
75.41764172335601	75.55696145124716	51	127
75.68467120181406	75.75433106575964	67	127
75.92848072562359	75.99814058956916	65	127
75.92848072562359	76.04458049886621	51	127
76.18390022675737	76.25356009070295	63	127
76.3	76.33482993197279	51	127
76.42770975056689	76.48575963718821	62	127
76.42770975056689	76.56702947845805	46	127
76.67151927437642	76.741179138322	68	127
76.91532879818594	76.98496598639456	65	127
76.91532879818594	77.01981859410431	46	127
77.17074829931973	77.22879818594105	62	127
77.2752380952381	77.32167800453514	46	127
77.40294784580499	78.6568253968254	43	127
77.40294784580499	77.4609977324263	63	127
77.63514739229025	77.6815873015873	67	127
77.85573696145124	77.91378684807256	70	127
78.0879365079365	78.14598639455782	68	127
78.29691609977324	78.37818594104309	67	127
78.5291156462585	78.59877551020408	65	127
78.6568253968254	78.69165532879819	39	127
78.76131519274377	78.88902494331066	63	127
78.76131519274377	78.93546485260771	41	127
79.05156462585035	79.10961451247165	61	127
79.15603174603174	79.1908843537415	43	127
79.27215419501134	79.31859410430839	61	127
79.27215419501134	79.39986394557823	44	127
79.31859410430839	79.37664399092971	60	127
79.49274376417233	79.53916099773242	59	127
79.70172335600907	79.80621315192744	44	127
79.70172335600907	79.78299319727891	60	127
79.9455328798186	80.01519274376417	64	127
80.06163265306122	80.08485260770975	43	127
80.17770975056689	80.23578231292517	67	127
80.17770975056689	80.31705215419501	41	127
80.23578231292517	80.28219954648526	65	127
80.39832199546485	80.46798185941043	63	127
80.64213151927437	80.71179138321996	65	127
80.64213151927437	80.74662131519274	41	127
80.87433106575963	80.92074829931973	67	127
80.96721088435375	81.00204081632653	39	127
81.08331065759637	81.57092970521542	38	127
81.08331065759637	81.14136054421769	68	127
81.35034013605443	81.42	67	127
81.57092970521542	81.640589569161	68	127
81.57092970521542	82.33718820861678	41	127
81.79151927437641	81.861179138322	67	127
82.07013605442177	82.13981859410431	68	127
82.33718820861678	82.40684807256235	67	127
82.58097505668934	82.63904761904762	65	127
82.58097505668934	82.67387755102041	38	127
82.8015873015873	82.85963718820862	63	127
82.90607709750567	82.96410430839002	39	127
83.04539682539682	83.13827664399093	62	127
83.04539682539682	83.18471655328798	41	127
83.31242630385488	83.38208616780045	63	127
83.52140589569161	83.59106575963719	65	127
83.52140589569161	83.62589569160998	41	127
83.76521541950113	83.83485260770975	63	127
83.88131519274377	83.91614512471655	43	127
83.97419501133787	84.04385487528344	62	127
83.97419501133787	84.07868480725624	44	127
84.22961451247166	84.28766439909298	60	127
84.33410430839002	84.36893424036282	46	127
84.46181405895692	84.51986394557824	58	127
84.46181405895692	84.55469387755102	48	127
84.70562358276644	84.77528344671202	56	127
84.8101133786848	84.8449433106576	50	127
84.97265306122449	85.04231292517007	55	127
84.97265306122449	86.00591836734694	51	127
85.19324263038548	85.27451247165533	58	127
85.42544217687075	85.49507936507936	63	127
85.63442176870748	85.71569160997733	67	127
85.87820861678004	85.95950113378684	70	127
86.12204081632653	86.16848072562358	67	127
86.33102040816327	86.41229024943311	48	127
86.33102040816327	86.38904761904762	68	127
86.59804988662131	86.6677097505669	72	127
86.70253968253968	86.73736961451247	44	127
86.81863945578232	86.88829931972789	63	127
86.81863945578232	86.88829931972789	67	127
86.81863945578232	86.95795918367347	46	127
87.17854875283447	87.24820861678005	58	127
87.39913832199547	87.50362811791383	46	127
87.39913832199547	87.46879818594104	63	127
87.39913832199547	87.46879818594104	67	127
87.61972789115646	87.68938775510205	58	127
87.7358276643991	87.77063492063492	46	127
87.85192743764172	87.89834467120181	65	127
87.85192743764172	87.89834467120181	68	127
87.85192743764172	87.96802721088436	46	127
88.08412698412698	88.1421768707483	58	127
88.35115646258504	88.46725623582766	46	127
88.35115646258504	88.43242630385488	65	127
88.35115646258504	88.43242630385488	68	127
88.5833560090703	88.65301587301587	58	127
88.69945578231292	88.72267573696145	46	127
88.80394557823129	89.83723356009071	51	127
88.80394557823129	88.87360544217687	54	127
89.01292517006803	89.07097505668935	58	127
89.23351473922902	89.30315192743764	63	127
89.50054421768708	89.55857142857143	66	127
89.73274376417234	89.79077097505669	70	127
89.97655328798186	90.04619047619047	66	127
89.97655328798186	90.04619047619047	63	127
90.1971201814059	90.32482993197279	47	127
90.1971201814059	90.29002267573696	63	127
90.1971201814059	90.29002267573696	66	127
90.45253968253968	90.52222222222223	63	127
90.45253968253968	90.52222222222223	66	127
90.56866213151928	90.60349206349207	46	127
90.68473922902494	90.75442176870749	63	127
90.68473922902494	90.75442176870749	66	127
90.68473922902494	90.9053514739229	45	127
90.998231292517	91.06786848072562	60	127
91.23043083900227	91.24204081632654	63	127
91.23043083900227	91.24204081632654	66	127
91.23043083900227	91.24204081632654	45	127
91.35814058956916	91.40458049886621	60	127
91.4509977324263	91.48585034013605	45	127
91.59034013605442	91.67160997732427	63	127
91.59034013605442	91.67160997732427	66	127
91.59034013605442	91.72965986394559	45	127
91.82253968253968	91.89219954648526	60	127
92.08954648526077	92.15922902494331	63	127
92.08954648526077	92.15922902494331	66	127
92.08954648526077	92.1940589569161	45	127
92.31015873015873	92.37981859410431	60	127
92.42625850340136	92.46108843537415	45	127
92.53074829931973	92.62362811791384	34	127
92.53074829931973	92.64684807256236	62	127
92.53074829931973	92.64684807256236	65	127
92.64684807256236	92.77455782312926	58	127
92.64684807256236	92.73972789115646	46	127
92.77455782312926	92.93709750566893	34	127
92.77455782312926	92.96031746031746	60	127
92.96031746031746	93.06480725623582	62	127
92.96031746031746	93.02997732426304	46	127
93.06480725623582	93.16929705215419	34	127
93.06480725623582	93.21571428571428	63	127
93.21571428571428	93.33183673469388	46	127
93.21571428571428	93.3666439909297	65	127
93.3666439909297	93.45954648526077	34	127
93.3666439909297	93.4827664399093	67	127
93.4827664399093	93.5756462585034	46	127
93.4827664399093	93.62206349206349	69	127
93.62206349206349	93.70335600907029	34	127
93.62206349206349	93.73818594104308	70	127
93.73818594104308	93.83106575963718	46	127
93.73818594104308	93.83106575963718	72	127
93.83106575963718	93.90072562358277	34	127
93.83106575963718	93.93555555555555	74	127
93.93555555555555	94.0168253968254	46	127
93.93555555555555	94.04004535147392	75	127
94.04004535147392	94.14453514739229	34	127
94.04004535147392	94.17936507936508	77	127
94.17936507936508	94.26061224489796	46	127
94.17936507936508	94.30707482993198	79	127
94.30707482993198	94.39995464852608	34	127
94.30707482993198	94.43478458049887	81	127
94.43478458049887	94.53927437641724	46	127
94.43478458049887	94.60893424036281	82	127
94.60893424036281	94.69020408163266	34	127
94.60893424036281	94.73664399092971	84	127
94.71342403628118	94.79469387755103	46	127
94.8295238095238	94.91079365079365	34	127
94.93401360544217	95.02689342403629	46	127
95.06172335600907	95.14299319727891	34	127
95.06172335600907	95.1778231292517	60	127
95.15460317460318	95.23587301587301	46	127
95.25909297052154	95.34036281179138	34	127
95.37519274376417	95.45646258503402	46	127
95.47968253968254	95.57256235827664	34	127
95.47968253968254	96.35043083900227	84	127
95.60739229024944	95.68866213151928	46	127
95.7118820861678	95.78154195011338	34	127
95.81637188208617	95.897641723356	46	127
95.92086167800454	96.01374149659864	34	127
96.03696145124717	96.09501133786848	46	127
96.12984126984126	96.21111111111111	34	127
96.23433106575963	96.31560090702948	46	127
96.35043083900227	96.43170068027212	34	127
96.35043083900227	96.45492063492064	82	127
96.45492063492064	96.52458049886621	46	127
96.45492063492064	96.55941043083901	62	127
96.55941043083901	96.60585034013606	34	127
96.55941043083901	96.62907029478458	63	127
96.62907029478458	96.73356009070295	46	127
96.62907029478458	96.75678004535148	65	127
96.75678004535148	96.89609977324263	67	127
96.75678004535148	96.86126984126984	34	127
96.89609977324263	96.98897959183674	68	127
96.89609977324263	96.96575963718821	46	127
96.98897959183674	97.11668934240363	70	127
96.98897959183674	97.08185941043084	34	127
97.11668934240363	97.221179138322	46	127
97.11668934240363	97.24439909297053	72	127
97.24439909297053	97.32566893424037	34	127
97.24439909297053	97.36049886621315	74	127
97.36049886621315	97.49981859410431	75	127
97.36049886621315	97.47659863945579	46	127
97.49981859410431	97.6275283446712	34	127
97.49981859410431	97.65074829931973	77	127
97.65074829931973	97.76684807256235	79	127
97.65074829931973	97.73201814058957	46	127
97.76684807256235	97.88294784580499	80	127
97.76684807256235	97.85972789115647	34	127
97.88294784580499	97.99904761904762	82	127
97.88294784580499	97.96421768707484	46	127
97.99904761904762	98.11514739229025	34	127
97.99904761904762	98.13836734693878	84	127
98.13836734693878	98.21963718820862	46	127
98.13836734693878	98.2544671201814	86	127
98.2544671201814	98.33573696145125	34	127
98.2544671201814	98.3821768707483	87	127
98.35895691609977	98.45183673469388	46	127
98.47505668934241	98.54471655328798	34	127
98.57954648526078	98.66081632653061	46	127
98.68403628117913	98.77691609977325	34	127
98.68403628117913	98.84657596371882	63	127
98.8233560090703	98.90462585034014	46	127
98.92784580498866	99.00911564625851	34	127
99.04394557823129	99.1368253968254	46	127
99.16004535147393	100.12367346938775	87	127
99.16004535147393	99.24131519274377	34	127
99.2645351473923	99.34580498866214	46	127
99.38063492063492	99.46190476190476	34	127
99.48512471655329	99.56639455782313	46	127
99.6360544217687	99.72893424036282	34	127
99.75215419501134	99.83342403628117	46	127
99.86825396825397	99.94952380952381	34	127
99.97274376417234	100.0772335600907	46	127
100.12367346938775	100.21655328798185	34	127
100.12367346938775	100.23977324263039	89	127
100.23977324263039	100.37909297052154	87	127
100.23977324263039	100.35587301587302	46	127
100.37909297052154	100.48358276643991	34	127
100.37909297052154	100.53002267573696	86	127
100.53002267573696	100.63451247165533	87	127
100.53002267573696	100.6112925170068	46	127
100.63451247165533	100.72739229024943	34	127
100.63451247165533	100.76222222222222	89	127
100.76222222222222	100.86671201814059	88	127
100.76222222222222	100.84349206349206	46	127
100.86671201814059	100.95959183673469	34	127
100.86671201814059	100.98281179138321	89	127
100.98281179138321	101.1105215419501	88	127
100.98281179138321	101.06408163265306	46	127
101.1105215419501	101.19179138321995	34	127
101.1105215419501	101.21501133786848	89	127
101.21501133786848	101.33111111111111	87	127
101.21501133786848	101.29628117913832	46	127
101.33111111111111	101.42399092970521	34	127
101.33111111111111	101.44721088435374	86	127
101.44721088435374	101.5865306122449	87	127
101.44721088435374	101.5517006802721	46	127
101.5865306122449	101.679410430839	34	127
101.5865306122449	101.70263038548752	89	127
101.70263038548752	101.83034013605442	88	127
101.70263038548752	101.80712018140589	46	127
101.83034013605442	101.91160997732426	34	127
101.83034013605442	101.93482993197279	89	127
101.93482993197279	102.0857596371882	88	127
101.93482993197279	102.06253968253968	46	127
102.0857596371882	102.17863945578232	34	127
102.0857596371882	102.22507936507937	89	127
102.22507936507937	102.31795918367347	87	127
102.22507936507937	102.29473922902494	46	127
102.31795918367347	102.38761904761905	34	127
102.31795918367347	102.42244897959183	86	127
102.42244897959183	102.5269387755102	87	127
102.42244897959183	102.50371882086168	46	127
102.5269387755102	102.63142857142857	34	127
102.5269387755102	102.6546485260771	86	127
102.6546485260771	102.73591836734694	46	127
102.6546485260771	102.75913832199547	84	127
102.75913832199547	102.87523809523809	82	127
102.75913832199547	102.85201814058956	34	127
102.87523809523809	102.95650793650793	46	127
102.87523809523809	102.99133786848073	84	127
102.99133786848073	103.07260770975057	36	127
102.99133786848073	103.0958276643991	82	127
103.0958276643991	103.22353741496599	80	127
103.0958276643991	103.17709750566894	46	127
103.22353741496599	103.31641723356009	36	127
103.22353741496599	103.37446712018141	79	127
103.37446712018141	103.5021768707483	80	127
103.37446712018141	103.45573696145125	46	127
103.5021768707483	103.58344671201814	38	127
103.5021768707483	103.60666666666667	79	127
103.60666666666667	103.79242630385488	77	127
103.60666666666667	103.73437641723356	46	127
103.79242630385488	103.87369614512471	38	127
103.79242630385488	103.9085260770975	75	127
103.9085260770975	104.01301587301587	77	127
103.9085260770975	103.98979591836735	46	127
104.01301587301587	104.08267573696145	75	127
104.01301587301587	104.48902494331065	39	127
104.24521541950114	104.60512471655329	70	127
104.72122448979592	105.06952380952382	70	127
105.18562358276644	105.29011337868481	50	127
105.18562358276644	105.5107029478458	70	127
105.29011337868481	105.40621315192743	51	127
105.40621315192743	105.46426303854875	53	127
105.60358276643991	105.66163265306122	46	127
105.60358276643991	105.71968253968254	72	127
105.71968253968254	105.8590022675737	74	127
105.8590022675737	105.92866213151927	75	127
105.8590022675737	106.19569160997733	39	127
105.8590022675737	106.19569160997733	51	127
106.07959183673469	106.56721088435374	70	127
106.56721088435374	106.74136054421768	34	127
106.56721088435374	106.74136054421768	46	127
106.56721088435374	106.67170068027211	72	127
106.67170068027211	106.799410430839	74	127
106.799410430839	106.86907029478458	75	127
106.799410430839	107.18253968253968	39	127
106.799410430839	107.18253968253968	51	127
107.04321995464852	107.57727891156462	82	127
107.57727891156462	107.75142857142858	58	127
107.57727891156462	107.69337868480726	84	127
107.57727891156462	107.75142857142858	46	127
107.69337868480726	107.79786848072563	86	127
107.79786848072563	108.13455782312926	63	127
107.79786848072563	108.13455782312926	51	127
107.79786848072563	107.8675283446712	87	127
108.01845804988662	108.36675736961452	70	127
108.48285714285714	108.8427664399093	70	127
108.95886621315192	109.07496598639456	50	127
108.95886621315192	109.31877551020408	70	127
109.07496598639456	109.20267573696145	51	127
109.20267573696145	109.27233560090703	53	127
109.45809523809524	109.52775510204081	46	127
109.45809523809524	109.57419501133786	72	127
109.57419501133786	109.6902947845805	74	127
109.6902947845805	109.75995464852608	51	127
109.6902947845805	109.75995464852608	75	127
109.93410430839002	110.07342403628118	52	127
109.93410430839002	110.43333333333334	72	127
110.07342403628118	110.21274376417233	53	127
110.21274376417233	110.28240362811792	55	127
110.43333333333334	110.54943310657596	74	127
110.43333333333334	110.50299319727891	48	127
110.54943310657596	110.67714285714285	76	127
110.67714285714285	110.73519274376417	53	127
110.67714285714285	110.73519274376417	77	127
110.89773242630386	111.01383219954648	55	127
110.89773242630386	111.36213151927437	75	127
111.01383219954648	111.12993197278911	56	127
111.12993197278911	111.1995918367347	58	127
111.36213151927437	111.43179138321996	51	127
111.36213151927437	111.47823129251701	77	127
111.47823129251701	111.59433106575963	79	127
111.59433106575963	111.67560090702948	56	127
111.59433106575963	111.67560090702948	80	127
111.83814058956916	111.95424036281179	50	127
111.83814058956916	112.33736961451247	82	127
111.95424036281179	112.07034013605443	51	127
112.07034013605443	112.14	53	127
112.33736961451247	112.40702947845806	46	127
112.33736961451247	112.4534693877551	84	127
112.4534693877551	112.56956916099773	86	127
112.56956916099773	112.62761904761905	51	127
112.56956916099773	112.62761904761905	87	127
112.79015873015874	113.24294784580499	82	127
112.79015873015874	112.90625850340136	50	127
112.90625850340136	113.01074829931973	51	127
113.01074829931973	113.0804081632653	53	127
113.24294784580499	113.31260770975057	46	127
113.24294784580499	113.35904761904762	84	127
113.35904761904762	113.47514739229025	86	127
113.47514739229025	113.49836734693878	87	127
113.47514739229025	113.53319727891156	51	127
113.57963718820862	113.69573696145125	82	127
113.69573696145125	113.83505668934241	84	127
113.69573696145125	113.77700680272109	46	127
113.69573696145125	113.77700680272109	58	127
113.83505668934241	113.95115646258503	86	127
113.95115646258503	113.98598639455783	87	127
113.95115646258503	114.0208163265306	51	127
113.95115646258503	114.0208163265306	63	127
114.06725623582767	114.19496598639456	82	127
114.19496598639456	114.26462585034014	58	127
114.19496598639456	114.26462585034014	46	127
114.19496598639456	114.31106575963719	84	127
114.31106575963719	114.42716553287981	86	127
114.42716553287981	114.4619954648526	87	127
114.42716553287981	114.4968253968254	51	127
114.42716553287981	114.4968253968254	63	127
114.54326530612245	114.65936507936507	82	127
114.65936507936507	114.72902494331066	46	127
114.65936507936507	114.72902494331066	58	127
114.65936507936507	114.77546485260771	84	127
114.77546485260771	114.87995464852608	86	127
114.87995464852608	114.9031746031746	87	127
114.87995464852608	114.93800453514739	51	127
114.87995464852608	114.93800453514739	63	127
114.98444444444445	115.10054421768707	82	127
115.10054421768707	115.17020408163265	58	127
115.10054421768707	115.17020408163265	46	127
115.10054421768707	115.21664399092971	84	127
115.21664399092971	115.33274376417233	86	127
115.33274376417233	116.07578231292517	43	127
115.33274376417233	116.07578231292517	55	127
115.33274376417233	116.20349206349206	87	127
116.20349206349206	116.38925170068028	63	127
116.38925170068028	117.26	43	127
116.38925170068028	116.47052154195012	63	127
116.38925170068028	117.26	31	127
116.47052154195012	116.55179138321995	65	127
116.55179138321995	116.6330612244898	63	127
116.6330612244898	116.71433106575964	65	127
116.71433106575964	116.78399092970521	63	127
116.78399092970521	116.86526077097506	65	127
116.86526077097506	116.9465306122449	63	127
116.9465306122449	117.02780045351474	65	127
117.02780045351474	117.09746031746032	63	127
117.09746031746032	117.16712018140589	65	127
117.16712018140589	117.24839002267574	63	127
117.26	117.37609977324263	62	127
117.37609977324263	117.45736961451247	63	127
117.45736961451247	118.68802721088436	84	127
117.45736961451247	118.18879818594104	32	127
117.45736961451247	118.18879818594104	44	127
118.44421768707483	119.12920634920636	33	127
118.44421768707483	119.12920634920636	45	127
118.68802721088436	118.7692970521542	87	127
118.7692970521542	118.8970068027211	86	127
118.8970068027211	119.01310657596372	89	127
119.01310657596372	119.12920634920636	87	127
119.12920634920636	119.24530612244898	86	127
119.24530612244898	119.3962358276644	84	127
119.3962358276644	119.91868480725624	84	127
119.3962358276644	119.54716553287982	34	127
119.3962358276644	119.54716553287982	46	127
119.59360544217687	119.72131519274376	51	127
119.76775510204082	119.88385487528345	55	127
119.91868480725624	120.03478458049887	58	127
119.91868480725624	120.65011337868481	82	127
120.08122448979591	120.17410430839003	55	127
120.22054421768708	120.34825396825397	51	127
120.38308390022675	120.52240362811791	46	127
120.56884353741496	120.6849433106576	51	127
120.65011337868481	120.84748299319727	87	127
120.7429931972789	120.8707029478458	55	127
120.9055328798186	121.03324263038549	58	127
120.9055328798186	121.12612244897959	87	127
121.07968253968254	121.17256235827665	55	127
121.12612244897959	121.28866213151927	79	127
121.20739229024943	121.3118820861678	51	127
121.33510204081632	121.42798185941044	46	127
121.33510204081632	121.55569160997733	79	127
121.47442176870749	121.60213151927438	51	127
121.55569160997733	121.70662131519275	82	127
121.63696145124716	121.72984126984127	55	127
121.76467120181405	121.88077097505669	58	127
121.76467120181405	121.98526077097506	82	127
121.90399092970522	122.03170068027211	55	127
121.98526077097506	122.17102040816326	75	127
122.0665306122449	122.1942403628118	51	127
122.24068027210885	122.36839002267574	46	127
122.24068027210885	122.32195011337869	75	127
122.32195011337869	122.36839002267574	77	127
122.36839002267574	122.43804988662131	75	127
122.41482993197279	122.53092970521541	51	127
122.43804988662131	122.48448979591836	77	127
122.48448979591836	122.55414965986395	75	127
122.55414965986395	122.61219954648526	77	127
122.56575963718821	122.68185941043085	55	127
122.61219954648526	122.67024943310658	75	127
122.67024943310658	122.7282993197279	77	127
122.7282993197279	123.08820861678005	79	127
122.7282993197279	122.84439909297052	46	127
122.87922902494331	122.99532879818594	50	127
123.03015873015873	123.15786848072563	56	127
123.08820861678005	123.20430839002267	77	127
123.20430839002267	123.37845804988662	75	127
123.20430839002267	123.27396825396825	51	127
123.20430839002267	123.27396825396825	55	127
123.43650793650794	123.5758276643991	67	127
123.43650793650794	123.5758276643991	79	127
123.5758276643991	123.703537414966	65	127
123.5758276643991	123.73836734693877	77	127
123.73836734693877	123.83124716553289	75	127
123.73836734693877	123.83124716553289	63	127
123.84285714285714	123.93573696145124	62	127
123.84285714285714	123.93573696145124	74	127
123.97056689342404	124.05183673469388	60	127
123.97056689342404	124.05183673469388	72	127
124.06344671201813	124.15632653061225	70	127
124.06344671201813	124.15632653061225	58	127
124.17954648526077	124.27242630385487	68	127
124.17954648526077	124.27242630385487	56	127
124.31886621315192	124.43496598639456	67	127
124.31886621315192	124.43496598639456	55	127
124.46979591836735	124.56267573696145	65	127
124.46979591836735	124.56267573696145	53	127
124.58589569160998	124.66716553287982	63	127
124.58589569160998	124.66716553287982	51	127
124.72521541950114	124.81809523809524	50	127
124.72521541950114	124.81809523809524	62	127
124.84131519274376	124.92258503401361	60	127
124.84131519274376	124.92258503401361	48	127
124.94580498866213	125.02707482993198	46	127
124.94580498866213	125.02707482993198	58	127
125.06190476190476	125.15478458049887	56	127
125.06190476190476	125.15478458049887	44	127
125.1780045351474	125.24766439909297	43	127
125.1780045351474	125.24766439909297	55	127
125.2708843537415	125.35215419501134	46	127
125.2708843537415	125.35215419501134	58	127
125.38698412698413	125.47986394557823	63	127
125.38698412698413	125.47986394557823	51	127
125.53791383219955	125.64240362811792	67	127
125.53791383219955	125.64240362811792	55	127
125.66562358276644	125.81655328798186	68	127
125.66562358276644	125.81655328798186	56	127
125.81655328798186	125.92104308390023	65	127
125.81655328798186	125.92104308390023	53	127
125.94426303854875	125.97909297052155	62	127
125.94426303854875	125.97909297052155	50	127
126.06036281179138	126.10680272108844	44	127
126.06036281179138	126.10680272108844	56	127
126.18807256235827	126.28095238095239	43	127
126.18807256235827	126.28095238095239	55	127
126.38544217687075	126.46671201814058	46	127
126.38544217687075	126.46671201814058	58	127
126.48993197278912	126.57120181405895	51	127
126.48993197278912	126.57120181405895	63	127
126.60603174603175	126.69891156462585	55	127
126.60603174603175	126.69891156462585	67	127
126.72213151927437	126.83823129251701	68	127
126.72213151927437	126.83823129251701	56	127
126.83823129251701	126.90789115646258	53	127
126.83823129251701	126.90789115646258	65	127
126.94272108843538	126.97755102040816	62	127
126.94272108843538	126.97755102040816	50	127
127.03560090702948	127.058820861678	44	127
127.03560090702948	127.058820861678	56	127
127.15170068027211	127.19814058956916	43	127
127.15170068027211	127.19814058956916	55	127
127.36068027210884	127.45356009070295	67	127
127.36068027210884	127.45356009070295	79	127
127.47678004535148	127.58126984126984	77	127
127.47678004535148	127.58126984126984	65	127
127.60448979591837	127.69736961451247	75	127
127.60448979591837	127.69736961451247	63	127
127.72058956916099	127.87151927437641	74	127
127.72058956916099	127.87151927437641	62	127
127.9063492063492	127.9992290249433	60	127
127.9063492063492	127.9992290249433	72	127
128.02244897959184	128.11532879818594	70	127
128.02244897959184	128.11532879818594	58	127
128.13854875283448	128.2198185941043	56	127
128.13854875283448	128.2198185941043	68	127
128.26625850340136	128.34750566893425	67	127
128.26625850340136	128.34750566893425	55	127
128.382358276644	128.4752380952381	53	127
128.382358276644	128.4752380952381	65	127
128.51006802721088	128.57972789115647	63	127
128.51006802721088	128.57972789115647	51	127
128.61455782312925	128.6958276643991	62	127
128.61455782312925	128.6958276643991	50	127
128.73065759637188	128.8119274376417	60	127
128.73065759637188	128.8119274376417	48	127
128.85834467120182	128.9512471655329	58	127
128.85834467120182	128.9512471655329	46	127
128.98607709750567	129.07895691609977	44	127
128.98607709750567	129.07895691609977	56	127
129.1137641723356	129.17183673469387	55	127
129.1137641723356	129.27632653061224	43	127
129.33437641723356	129.40403628117915	67	127
129.33437641723356	129.42725623582766	52	127
129.42725623582766	129.5433560090703	53	127
129.42725623582766	129.5201133786848	68	127
129.5433560090703	129.61301587301588	55	127
129.5433560090703	129.6710657596372	70	127
129.6710657596372	129.7755328798186	67	127
129.79877551020408	129.86843537414967	48	127
129.79877551020408	129.83360544217686	64	127
129.91487528344672	129.9497052154195	58	127
130.03095238095239	130.12385487528346	53	127
130.03095238095239	130.12385487528346	56	127
130.28637188208617	130.40249433106575	55	127
130.28637188208617	130.36766439909297	70	127
130.40249433106575	130.5185941043084	56	127
130.40249433106575	130.4837641723356	72	127
130.5185941043084	130.5766439909297	58	127
130.5185941043084	130.62308390022676	73	127
130.62308390022676	130.7043537414966	70	127
130.7391836734694	130.77401360544218	67	127
130.7391836734694	130.80884353741496	51	127
130.89011337868482	130.9249433106576	61	127
131.00619047619048	131.07587301587301	60	127
131.00619047619048	131.07587301587301	56	127
131.28485260770975	131.37773242630385	77	127
131.28485260770975	131.4009523809524	62	127
131.4009523809524	131.4938321995465	79	127
131.4009523809524	131.52866213151927	63	127
131.52866213151927	131.6447619047619	80	127
131.52866213151927	131.59832199546486	65	127
131.6447619047619	131.737641723356	77	127
131.76086167800455	131.8305215419501	58	127
131.76086167800455	131.79569160997733	74	127
131.88857142857142	131.92337868480726	68	127
132.00467120181406	132.16721088435375	63	127
132.00467120181406	132.0859410430839	67	127
132.10916099773243	132.19043083900226	75	127
132.22526077097507	132.3065306122449	77	127
132.22526077097507	132.34136054421768	62	127
132.34136054421768	132.4922902494331	63	127
132.34136054421768	132.42263038548754	79	127
132.4922902494331	132.56195011337869	65	127
132.4922902494331	132.60839002267574	80	127
132.60839002267574	132.68963718820862	77	127
132.72448979591837	132.794126984127	58	127
132.72448979591837	132.75931972789115	74	127
132.840589569161	132.8754195011338	68	127
132.97990929705216	133.01473922902494	67	127
132.97990929705216	133.04954648526078	63	127
133.08439909297053	133.17727891156463	79	127
133.2004761904762	133.31659863945578	80	127
133.2004761904762	133.27015873015873	58	127
133.2004761904762	133.27015873015873	46	127
133.31659863945578	133.43269841269841	77	127
133.43269841269841	133.4675283446712	79	127
133.43269841269841	133.502358276644	63	127
133.43269841269841	133.502358276644	51	127
133.54879818594105	133.66487528344672	79	127
133.66487528344672	133.7809977324263	80	127
133.66487528344672	133.73455782312925	46	127
133.66487528344672	133.73455782312925	58	127
133.7809977324263	133.89709750566894	77	127
133.89709750566894	133.96673469387756	63	127
133.89709750566894	133.96673469387756	51	127
133.89709750566894	133.93192743764172	79	127
134.02480725623582	134.14090702947846	79	127
134.14090702947846	134.2570068027211	80	127
134.14090702947846	134.21056689342404	46	127
134.14090702947846	134.21056689342404	58	127
134.2570068027211	134.37310657596373	77	127
134.37310657596373	134.4427664399093	63	127
134.37310657596373	134.4427664399093	51	127
134.37310657596373	134.4079365079365	79	127
134.48920634920634	134.61691609977325	79	127
134.61691609977325	134.68655328798187	46	127
134.61691609977325	134.68655328798187	58	127
134.61691609977325	134.72140589569162	80	127
134.72140589569162	134.8491156462585	77	127
134.8491156462585	135.5457142857143	55	127
134.8491156462585	135.4180045351474	82	127
134.8491156462585	135.5457142857143	43	127
135.80113378684808	136.59061224489795	31	127
135.80113378684808	136.59061224489795	43	127
136.88083900226758	138.35532879818595	32	127
136.88083900226758	138.35532879818595	44	127
137.0201814058957	137.14789115646258	60	127
137.14789115646258	137.27560090702949	61	127
137.27560090702949	137.39167800453515	63	127
137.39167800453515	137.50780045351473	65	127
137.50780045351473	137.62390022675737	67	127
137.62390022675737	137.74	68	127
137.74	137.89092970521543	70	127
137.89092970521543	138.0070068027211	72	127
138.0070068027211	138.11149659863946	73	127
138.11149659863946	138.2392290249433	75	127
138.2392290249433	138.35532879818595	77	127
138.35532879818595	138.43659863945578	79	127
138.43659863945578	138.52947845804988	80	127
138.52947845804988	138.64557823129252	82	127
138.64557823129252	138.76167800453516	84	127
138.76167800453516	139.29573696145124	68	127
138.76167800453516	139.55115646258503	29	127
138.76167800453516	139.55115646258503	41	127
139.8065759637188	140.5380045351474	51	127
139.8065759637188	140.5380045351474	39	127
140.79342403628118	142.19820861678005	38	127
140.79342403628118	142.19820861678005	46	127
140.79342403628118	142.19820861678005	50	127
140.92111111111112	141.06045351473924	70	127
141.06045351473924	141.18816326530612	72	127
141.18816326530612	141.3507029478458	74	127
141.3507029478458	141.46680272108844	75	127
141.46680272108844	141.59451247165532	77	127
141.59451247165532	141.72222222222223	79	127
141.72222222222223	141.81510204081633	80	127
141.81510204081633	141.9195918367347	82	127
141.9195918367347	142.03569160997733	84	127
142.03569160997733	142.1053514739229	86	127
142.1053514739229	142.19820861678005	87	127
142.19820861678005	142.30269841269842	89	127
142.30269841269842	142.43043083900227	86	127
142.43043083900227	142.5581179138322	82	127
142.5581179138322	142.69746031746033	80	127
142.69746031746033	142.87160997732425	39	127
142.69746031746033	142.87160997732425	51	127
142.69746031746033	143.25473922902495	79	127
143.25473922902495	143.3940589569161	67	127
143.25473922902495	143.3940589569161	70	127
143.25473922902495	143.3940589569161	75	127
143.25473922902495	143.3940589569161	79	127
143.75396825396825	143.90489795918367	32	127
143.75396825396825	143.90489795918367	44	127
144.26480725623583	144.40412698412698	72	127
144.26480725623583	144.40412698412698	75	127
144.26480725623583	144.40412698412698	80	127
144.26480725623583	144.40412698412698	84	127
144.9033560090703	145.07750566893424	34	127
144.9033560090703	145.07750566893424	46	127
145.47222222222223	145.6812244897959	75	127
145.47222222222223	145.6812244897959	70	127
145.47222222222223	145.6812244897959	79	127
145.47222222222223	145.6812244897959	82	127
146.67968253968255	147.10922902494332	46	127
146.67968253968255	147.10922902494332	34	127
147.30662131519276	147.52721088435374	70	127
147.30662131519276	147.52721088435374	62	127
147.30662131519276	147.52721088435374	65	127
147.30662131519276	147.52721088435374	68	127
147.30662131519276	147.52721088435374	74	127
148.90879818594104	150.40648526077098	46	127
148.90879818594104	149.02489795918368	55	127
149.02489795918368	149.2338775510204	58	127
149.2338775510204	149.31514739229024	63	127
149.31514739229024	149.43124716553288	58	127
149.43124716553288	149.57056689342403	55	127
149.57056689342403	149.68666666666667	58	127
149.68666666666667	149.83759637188209	63	127
149.83759637188209	149.94208616780045	58	127
149.94208616780045	150.0581859410431	55	127
150.0581859410431	150.17426303854876	58	127
150.17426303854876	150.3019954648526	63	127
150.3019954648526	150.40648526077098	58	127
150.40648526077098	150.5341723356009	43	127
150.40648526077098	150.5341723356009	55	127
150.5341723356009	150.69673469387754	44	127
150.5341723356009	150.69673469387754	58	127
150.69673469387754	150.81283446712018	46	127
150.69673469387754	150.81283446712018	63	127
150.81283446712018	150.94052154195012	58	127
150.81283446712018	150.94052154195012	43	127
150.94052154195012	151.0566439909297	55	127
150.94052154195012	152.93743764172336	39	127
151.0566439909297	151.1843537414966	58	127
151.1843537414966	151.30043083900227	63	127
151.30043083900227	151.41655328798186	58	127
151.41655328798186	151.54426303854876	55	127
151.54426303854876	151.67197278911564	58	127
151.67197278911564	151.78807256235828	63	127
151.78807256235828	151.90417233560092	58	127
151.90417233560092	152.0318820861678	55	127
152.0318820861678	152.1595918367347	58	127
152.1595918367347	152.27569160997732	63	127
152.27569160997732	152.40340136054422	58	127
152.40340136054422	152.51950113378686	55	127
152.51950113378686	152.64721088435374	58	127
152.64721088435374	152.77492063492065	63	127
152.77492063492065	152.93743764172336	58	127
152.93743764172336	153.05356009070294	53	127
152.93743764172336	154.30743764172337	47	127
153.05356009070294	153.18126984126985	56	127
153.18126984126985	153.29736961451246	63	127
153.29736961451246	153.42507936507937	56	127
153.42507936507937	153.55278911564625	53	127
153.55278911564625	153.65727891156462	56	127
153.65727891156462	153.75013605442177	62	127
153.75013605442177	153.86625850340135	56	127
153.86625850340135	153.99396825396826	53	127
153.99396825396826	154.09845804988663	56	127
154.09845804988663	154.17972789115646	62	127
154.17972789115646	154.30743764172337	56	127
154.30743764172337	154.43514739229025	44	127
154.30743764172337	154.43514739229025	53	127
154.43514739229025	154.55124716553289	46	127
154.43514739229025	154.55124716553289	56	127
154.55124716553289	154.67895691609976	62	127
154.55124716553289	154.67895691609976	47	127
154.67895691609976	154.85310657596372	44	127
154.67895691609976	154.85310657596372	56	127
154.85310657596372	156.73392290249433	39	127
154.85310657596372	154.98079365079366	53	127
154.98079365079366	155.09691609977324	56	127
155.09691609977324	155.21301587301588	62	127
155.21301587301588	155.31750566893425	56	127
155.31750566893425	155.44521541950112	53	127
155.44521541950112	155.57292517006803	56	127
155.57292517006803	155.68902494331067	62	127
155.68902494331067	155.81673469387755	56	127
155.81673469387755	155.9328344671202	53	127
155.9328344671202	156.0257142857143	56	127
156.0257142857143	156.14181405895692	62	127
156.14181405895692	156.2578911564626	56	127
156.2578911564626	156.38562358276644	53	127
156.38562358276644	156.51331065759638	56	127
156.51331065759638	156.60621315192745	62	127
156.60621315192745	156.73392290249433	56	127
156.73392290249433	158.13873015873017	46	127
156.73392290249433	156.87321995464853	54	127
156.87321995464853	157.00095238095238	58	127
157.00095238095238	157.09383219954648	63	127
157.09383219954648	157.18671201814058	58	127
157.18671201814058	157.3144217687075	54	127
157.3144217687075	157.45374149659864	58	127
157.45374149659864	157.58145124716555	63	127
157.58145124716555	157.69755102040816	58	127
157.69755102040816	157.82526077097506	54	127
157.82526077097506	157.94133786848073	58	127
157.94133786848073	158.0342403628118	63	127
158.0342403628118	158.13873015873017	58	127
158.13873015873017	158.26643990929705	42	127
158.13873015873017	158.26643990929705	54	127
158.26643990929705	158.39414965986396	44	127
158.26643990929705	158.39414965986396	58	127
158.39414965986396	158.52185941043084	63	127
158.39414965986396	158.52185941043084	46	127
158.52185941043084	158.63795918367347	42	127
158.52185941043084	158.63795918367347	58	127
158.63795918367347	160.51877551020408	39	127
158.63795918367347	158.76566893424035	54	127
158.76566893424035	158.89337868480726	58	127
158.89337868480726	159.0094784580499	63	127
159.0094784580499	159.14879818594105	58	127
159.14879818594105	159.27648526077098	54	127
159.27648526077098	159.40421768707483	58	127
159.27648526077098	159.40421768707483	63	127
159.40421768707483	159.49709750566893	66	127
159.49709750566893	159.61319727891157	63	127
159.49709750566893	159.61319727891157	58	127
159.61319727891157	159.7292970521542	54	127
159.7292970521542	159.8570068027211	63	127
159.7292970521542	159.8570068027211	58	127
159.8570068027211	159.92666666666668	66	127
159.92666666666668	160.05437641723356	63	127
159.92666666666668	160.05437641723356	58	127
160.05437641723356	160.1356462585034	54	127
160.1356462585034	160.2633560090703	58	127
160.1356462585034	160.2633560090703	63	127
160.2633560090703	160.3910657596372	66	127
160.3910657596372	160.51877551020408	58	127
160.3910657596372	160.51877551020408	63	127
160.51877551020408	160.63487528344672	54	127
160.51877551020408	161.97002267573697	42	127
160.63487528344672	160.75097505668936	63	127
160.63487528344672	160.75097505668936	59	127
160.75097505668936	160.87868480725623	66	127
160.87868480725623	160.99478458049887	59	127
160.87868480725623	160.99478458049887	63	127
160.99478458049887	161.12249433106575	54	127
161.12249433106575	161.22698412698412	63	127
161.12249433106575	161.22698412698412	59	127
161.22698412698412	161.35469387755103	66	127
161.35469387755103	161.4824036281179	63	127
161.35469387755103	161.4824036281179	59	127
161.4824036281179	161.59850340136055	54	127
161.59850340136055	161.71460317460318	63	127
161.59850340136055	161.71460317460318	59	127
161.71460317460318	161.84231292517006	66	127
161.84231292517006	161.97002267573697	63	127
161.84231292517006	161.97002267573697	59	127
161.97002267573697	162.09773242630385	54	127
161.97002267573697	162.09773242630385	39	127
162.09773242630385	162.2138321995465	59	127
162.09773242630385	162.2138321995465	40	127
162.09773242630385	162.2138321995465	63	127
162.2138321995465	162.34151927437642	66	127
162.2138321995465	162.34151927437642	42	127
162.34151927437642	162.49244897959184	39	127
162.34151927437642	162.49244897959184	59	127
162.34151927437642	162.49244897959184	63	127
162.49244897959184	164.55904761904762	35	127
162.49244897959184	162.6201814058957	54	127
162.6201814058957	162.74786848072563	63	127
162.6201814058957	162.74786848072563	59	127
162.74786848072563	162.8639909297052	66	127
162.8639909297052	162.99170068027212	63	127
162.8639909297052	162.99170068027212	59	127
162.99170068027212	163.10777777777778	54	127
163.10777777777778	163.23551020408163	59	127
163.10777777777778	163.23551020408163	63	127
163.23551020408163	163.35160997732427	66	127
163.35160997732427	163.49092970521542	59	127
163.35160997732427	163.49092970521542	63	127
163.49092970521542	163.6534693877551	54	127
163.6534693877551	163.79278911564626	63	127
163.6534693877551	163.79278911564626	59	127
163.79278911564626	163.9088888888889	66	127
163.9088888888889	164.03659863945578	59	127
163.9088888888889	164.03659863945578	63	127
164.03659863945578	164.16430839002268	54	127
164.16430839002268	164.30362811791383	63	127
164.16430839002268	164.30362811791383	59	127
164.30362811791383	164.41972789115647	66	127
164.41972789115647	164.55904761904762	59	127
164.41972789115647	164.55904761904762	63	127
164.55904761904762	164.68675736961453	55	127
164.55904761904762	165.99868480725624	43	127
164.68675736961453	164.8144671201814	59	127
164.68675736961453	164.8144671201814	61	127
164.8144671201814	164.93056689342404	64	127
164.93056689342404	165.0466439909297	61	127
164.93056689342404	165.0466439909297	59	127
165.0466439909297	165.17437641723356	55	127
165.17437641723356	165.2904761904762	58	127
165.17437641723356	165.2904761904762	61	127
165.2904761904762	165.39496598639457	64	127
165.39496598639457	165.49945578231294	58	127
165.39496598639457	165.49945578231294	61	127
165.49945578231294	165.62716553287981	55	127
165.62716553287981	165.75487528344672	61	127
165.62716553287981	165.75487528344672	58	127
165.75487528344672	165.8825850340136	64	127
165.8825850340136	165.99868480725624	58	127
165.8825850340136	165.99868480725624	61	127
165.99868480725624	166.12639455782312	40	127
165.99868480725624	166.12639455782312	55	127
166.12639455782312	166.25410430839003	58	127
166.12639455782312	166.25410430839003	42	127
166.12639455782312	166.25410430839003	61	127
166.25410430839003	166.38179138321996	64	127
166.25410430839003	166.38179138321996	43	127
166.38179138321996	166.5095238095238	58	127
166.38179138321996	166.5095238095238	61	127
166.38179138321996	166.5095238095238	40	127
166.5095238095238	168.56448979591838	35	127
166.5095238095238	166.62562358276645	55	127
166.62562358276645	166.74172335600906	61	127
166.62562358276645	166.74172335600906	58	127
166.74172335600906	166.86943310657597	64	127
166.86943310657597	166.99714285714285	61	127
166.86943310657597	166.99714285714285	58	127
166.99714285714285	167.11324263038549	55	127
167.11324263038549	167.25256235827663	58	127
167.11324263038549	167.25256235827663	61	127
167.25256235827663	167.38027210884354	64	127
167.38027210884354	167.50798185941042	58	127
167.38027210884354	167.50798185941042	61	127
167.50798185941042	167.6473015873016	54	127
167.6473015873016	167.84467120181407	61	127
167.6473015873016	167.84467120181407	58	127
167.84467120181407	167.97238095238095	64	127
167.97238095238095	168.10009070294785	61	127
167.97238095238095	168.10009070294785	58	127
168.10009070294785	168.21616780045352	54	127
168.21616780045352	168.3322902494331	58	127
168.21616780045352	168.3322902494331	61	127
168.3322902494331	168.43678004535147	64	127
168.43678004535147	168.56448979591838	58	127
168.43678004535147	168.56448979591838	61	127
168.56448979591838	169.8531746031746	42	127
168.56448979591838	168.69219954648526	54	127
168.69219954648526	168.8082993197279	59	127
168.8082993197279	168.93598639455783	62	127
168.93598639455783	169.0521088435374	59	127
169.0521088435374	169.16820861678005	54	127
169.16820861678005	169.27269841269842	59	127
169.27269841269842	169.38879818594106	62	127
169.38879818594106	169.4468253968254	59	127
169.4468253968254	169.51650793650794	54	127
169.51650793650794	169.60938775510203	59	127
169.60938775510203	169.73709750566894	62	127
169.73709750566894	169.8531746031746	59	127
169.8531746031746	169.98090702947846	38	127
169.8531746031746	169.98090702947846	54	127
169.98090702947846	170.1085941043084	59	127
169.98090702947846	170.1085941043084	40	127
170.1085941043084	170.21308390022676	42	127
170.1085941043084	170.21308390022676	62	127
170.21308390022676	170.32920634920634	59	127
170.21308390022676	170.32920634920634	38	127
170.32920634920634	172.27968253968254	35	127
170.32920634920634	170.45691609977325	54	127
170.45691609977325	170.58462585034013	59	127
170.58462585034013	170.70072562358277	62	127
170.70072562358277	170.8284126984127	59	127
170.8284126984127	170.95614512471656	54	127
170.95614512471656	171.0838321995465	59	127
171.0838321995465	171.19995464852607	62	127
171.19995464852607	171.3160544217687	59	127
171.3160544217687	171.4437641723356	54	127
171.4437641723356	171.55986394557823	59	127
171.55986394557823	171.67596371882087	62	127
171.67596371882087	171.80367346938775	59	127
171.80367346938775	171.91977324263038	54	127
171.91977324263038	172.03587301587302	59	127
172.03587301587302	172.1635827664399	62	127
172.1635827664399	172.27968253968254	59	127
172.27968253968254	172.43061224489796	55	127
172.27968253968254	173.800589569161	38	127
172.43061224489796	172.55832199546487	59	127
172.55832199546487	172.697641723356	62	127
172.697641723356	172.81374149659865	59	127
172.81374149659865	172.94145124716553	55	127
172.94145124716553	173.06916099773244	59	127
173.06916099773244	173.18526077097505	62	127
173.18526077097505	173.3013605442177	59	127
173.3013605442177	173.4290702947846	55	127
173.4290702947846	173.55678004535147	59	127
173.55678004535147	173.6728798185941	62	127
173.6728798185941	173.800589569161	59	127
173.800589569161	173.91668934240363	55	127
173.800589569161	173.91668934240363	35	127
173.91668934240363	174.05600907029478	59	127
173.91668934240363	174.05600907029478	36	127
174.05600907029478	174.17210884353742	38	127
174.05600907029478	174.17210884353742	62	127
174.17210884353742	174.29979591836735	35	127
174.17210884353742	174.29979591836735	59	127
174.29979591836735	176.23868480725625	31	127
174.29979591836735	174.41591836734693	55	127
174.41591836734693	174.5900680272109	59	127
174.5900680272109	174.71777777777777	62	127
174.71777777777777	174.8687074829932	59	127
174.8687074829932	174.9964172335601	55	127
174.9964172335601	175.13573696145124	59	127
175.13573696145124	175.26344671201815	62	127
175.26344671201815	175.39115646258503	59	127
175.39115646258503	175.4956462585034	55	127
175.4956462585034	175.60013605442177	59	127
175.60013605442177	175.7162358276644	62	127
175.7162358276644	175.78587301587302	59	127
175.78587301587302	175.8787755102041	55	127
175.8787755102041	175.9948752834467	59	127
175.9948752834467	176.11097505668934	62	127
176.11097505668934	176.23868480725625	59	127
176.23868480725625	176.36639455782313	55	127
176.23868480725625	177.72473922902495	39	127
176.36639455782313	176.48249433106577	57	127
176.36639455782313	176.48249433106577	60	127
176.48249433106577	176.61020408163265	63	127
176.61020408163265	176.73791383219955	57	127
176.61020408163265	176.73791383219955	60	127
176.73791383219955	176.8540136054422	55	127
176.8540136054422	176.9701133786848	60	127
176.8540136054422	176.9701133786848	57	127
176.9701133786848	177.0978231292517	63	127
177.0978231292517	177.23714285714286	57	127
177.0978231292517	177.23714285714286	60	127
177.23714285714286	177.36485260770976	55	127
177.36485260770976	177.48095238095237	60	127
177.36485260770976	177.48095238095237	57	127
177.48095238095237	177.597052154195	63	127
177.597052154195	177.72473922902495	60	127
177.597052154195	177.72473922902495	57	127
177.72473922902495	177.8524716553288	36	127
177.72473922902495	177.8524716553288	55	127
177.8524716553288	177.98015873015873	60	127
177.8524716553288	177.98015873015873	38	127
177.8524716553288	177.98015873015873	57	127
177.98015873015873	178.11950113378686	63	127
177.98015873015873	178.11950113378686	39	127
178.11950113378686	178.24721088435373	36	127
178.11950113378686	178.24721088435373	57	127
178.11950113378686	178.24721088435373	60	127
178.24721088435373	178.3400680272109	55	127
178.24721088435373	180.19768707482993	31	127
178.3400680272109	178.46780045351474	60	127
178.3400680272109	178.46780045351474	57	127
178.46780045351474	178.56068027210884	63	127
178.56068027210884	178.68839002267575	60	127
178.56068027210884	178.68839002267575	57	127
178.68839002267575	178.85090702947846	55	127
178.85090702947846	179.00183673469388	57	127
178.85090702947846	179.00183673469388	60	127
179.00183673469388	179.11795918367346	66	127
179.11795918367346	179.24566893424037	60	127
179.11795918367346	179.24566893424037	57	127
179.24566893424037	179.35015873015874	55	127
179.35015873015874	179.47786848072562	57	127
179.35015873015874	179.47786848072562	60	127
179.47786848072562	179.59396825396826	66	127
179.59396825396826	179.7100680272109	60	127
179.59396825396826	179.7100680272109	57	127
179.7100680272109	179.83777777777777	55	127
179.83777777777777	179.96548752834468	60	127
179.83777777777777	179.96548752834468	57	127
179.96548752834468	180.08156462585035	66	127
180.08156462585035	180.19768707482993	57	127
180.08156462585035	180.19768707482993	60	127
180.19768707482993	181.69537414965987	38	127
180.19768707482993	180.33698412698413	55	127
180.33698412698413	180.46471655328799	59	127
180.33698412698413	180.46471655328799	62	127
180.46471655328799	180.59240362811792	67	127
180.59240362811792	180.7085260770975	59	127
180.59240362811792	180.7085260770975	62	127
180.7085260770975	180.8362358276644	55	127
180.8362358276644	180.97555555555556	59	127
180.8362358276644	180.97555555555556	62	127
180.97555555555556	181.1032426303855	67	127
181.1032426303855	181.2077551020408	62	127
181.1032426303855	181.2077551020408	59	127
181.2077551020408	181.32385487528344	55	127
181.32385487528344	181.45156462585035	62	127
181.32385487528344	181.45156462585035	59	127
181.45156462585035	181.57927437641723	67	127
181.57927437641723	181.69537414965987	62	127
181.57927437641723	181.69537414965987	59	127
181.69537414965987	181.8114739229025	55	127
181.69537414965987	181.8114739229025	35	127
181.8114739229025	181.9391836734694	59	127
181.8114739229025	181.9391836734694	62	127
181.8114739229025	181.9391836734694	36	127
181.9391836734694	182.0668934240363	67	127
181.9391836734694	182.0668934240363	38	127
182.0668934240363	182.19460317460317	35	127
182.0668934240363	182.19460317460317	59	127
182.0668934240363	182.19460317460317	62	127
182.19460317460317	182.35714285714286	55	127
182.19460317460317	182.35714285714286	31	127
182.62417233560092	182.74027210884353	35	127
182.62417233560092	182.74027210884353	59	127
182.74027210884353	182.86798185941043	60	127
182.74027210884353	182.86798185941043	36	127
182.86798185941043	182.98408163265307	38	127
182.86798185941043	182.98408163265307	62	127
182.98408163265307	183.08857142857144	35	127
182.98408163265307	183.08857142857144	59	127
183.08857142857144	183.20467120181405	31	127
183.08857142857144	183.20467120181405	55	127
183.61102040816326	183.7271201814059	59	127
183.61102040816326	183.7271201814059	35	127
183.7271201814059	183.8548299319728	36	127
183.7271201814059	183.8548299319728	60	127
183.8548299319728	183.9709297052154	38	127
183.8548299319728	183.9709297052154	62	127
183.9709297052154	184.07541950113378	35	127
183.9709297052154	184.07541950113378	59	127
184.07541950113378	184.21473922902496	31	127
184.07541950113378	184.21473922902496	55	127
184.57462585034014	184.702358276644	35	127
184.57462585034014	184.702358276644	59	127
184.702358276644	184.83004535147393	60	127
184.702358276644	184.83004535147393	36	127
184.83004535147393	184.95777777777778	38	127
184.83004535147393	184.95777777777778	62	127
184.95777777777778	185.0854648526077	59	127
184.95777777777778	185.0854648526077	35	127
185.0854648526077	185.22480725623583	31	127
185.0854648526077	185.22480725623583	55	127
185.57310657596372	185.68920634920636	36	127
185.57310657596372	185.68920634920636	60	127
185.68920634920636	185.81691609977324	38	127
185.68920634920636	185.81691609977324	62	127
185.81691609977324	185.9214058956916	63	127
185.81691609977324	185.9214058956916	39	127
185.9214058956916	186.03750566893424	36	127
185.9214058956916	186.03750566893424	60	127
186.03750566893424	186.16521541950112	31	127
186.03750566893424	186.16521541950112	55	127
186.4902947845805	186.5831746031746	62	127
186.4902947845805	186.5831746031746	38	127
186.5831746031746	186.69927437641724	39	127
186.5831746031746	186.69927437641724	63	127
186.69927437641724	186.82696145124717	41	127
186.69927437641724	186.82696145124717	65	127
186.82696145124717	186.93145124716554	62	127
186.82696145124717	186.93145124716554	38	127
186.93145124716554	187.08238095238096	55	127
186.93145124716554	187.08238095238096	31	127
187.4422902494331	187.53519274376418	39	127
187.4422902494331	187.53519274376418	63	127
187.53519274376418	187.6512925170068	41	127
187.53519274376418	187.6512925170068	65	127
187.6512925170068	187.76739229024943	43	127
187.6512925170068	187.76739229024943	67	127
187.76739229024943	187.89510204081634	39	127
187.76739229024943	187.89510204081634	63	127
187.89510204081634	188.33628117913833	68	127
187.89510204081634	188.33628117913833	32	127
187.89510204081634	188.33628117913833	44	127
187.89510204081634	188.33628117913833	56	127
188.42916099773242	188.498820861678	68	127
188.42916099773242	188.498820861678	56	127
188.73102040816326	188.7658276643991	56	127
188.73102040816326	188.7658276643991	68	127
188.8471201814059	188.98643990929705	51	127
188.8471201814059	188.98643990929705	63	127
189.36956916099774	189.4740589569161	63	127
189.36956916099774	189.4740589569161	51	127
189.7294784580499	189.76430839002268	63	127
189.7294784580499	189.76430839002268	51	127
189.8455782312925	191.1110657596372	60	127
189.8455782312925	191.1110657596372	48	127
191.1110657596372	191.14589569160998	44	127
191.1110657596372	191.14589569160998	56	127
191.2968253968254	191.40131519274377	46	127
191.2968253968254	191.40131519274377	58	127
191.65673469387755	191.69156462585033	48	127
191.65673469387755	191.69156462585033	60	127
191.7728344671202	191.93537414965985	49	127
191.7728344671202	191.84249433106575	63	127
191.84249433106575	191.97020408163266	61	127
192.26045351473923	192.35333333333332	61	127
192.26045351473923	192.35333333333332	49	127
192.57392290249433	192.6087528344671	48	127
192.57392290249433	192.6087528344671	60	127
192.7016326530612	192.8409523809524	46	127
192.7016326530612	192.75968253968253	60	127
192.75968253968253	192.8990022675737	58	127
193.2473015873016	193.3401814058957	58	127
193.2473015873016	193.3401814058957	46	127
193.5607709750567	193.59560090702948	56	127
193.5607709750567	193.59560090702948	44	127
193.70009070294785	193.839410430839	43	127
193.70009070294785	193.75814058956917	56	127
193.75814058956917	193.8742403628118	55	127
194.1528798185941	194.25736961451247	55	127
194.1528798185941	194.25736961451247	43	127
194.52439909297053	194.54761904761904	41	127
194.52439909297053	194.54761904761904	53	127
194.6288888888889	194.69854875283445	39	127
194.6288888888889	194.80303854875282	51	127
194.8726984126984	194.942358276644	63	127
195.07006802721088	195.13972789115647	62	127
195.3138775510204	195.38353741496599	61	127
195.55768707482994	195.9175963718821	60	127
195.55768707482994	195.65056689342404	32	127
195.65056689342404	195.80149659863946	44	127
195.80149659863946	195.9175963718821	34	127
195.9175963718821	196.06852607709752	46	127
196.06852607709752	196.1962358276644	36	127
196.1962358276644	196.30072562358276	48	127
196.30072562358276	196.4400453514739	37	127
196.4400453514739	196.55614512471655	49	127
196.55614512471655	196.6722448979592	39	127
196.6722448979592	196.79995464852607	51	127
196.79995464852607	196.92766439909298	41	127
196.92766439909298	197.0437641723356	53	127
197.0437641723356	197.14825396825398	43	127
197.14825396825398	197.27596371882086	55	127
197.27596371882086	197.3920634920635	39	127
197.3920634920635	197.49655328798187	51	127
197.49655328798187	197.60104308390024	56	127
197.49655328798187	197.93773242630385	44	127
197.60104308390024	197.7055328798186	68	127
197.7055328798186	197.83324263038548	55	127
197.83324263038548	197.93773242630385	67	127
197.93773242630385	198.077052154195	56	127
198.077052154195	198.21637188208618	68	127
198.21637188208618	198.3673015873016	58	127
198.3673015873016	198.51823129251702	70	127
198.51823129251702	198.62272108843538	60	127
198.62272108843538	198.738820861678	72	127
198.738820861678	198.85492063492063	58	127
198.738820861678	198.99424036281178	36	127
198.85492063492063	198.99424036281178	70	127
198.99424036281178	199.09873015873015	56	127
198.99424036281178	199.23804988662133	36	127
199.09873015873015	199.23804988662133	68	127
199.23804988662133	199.35414965986394	55	127
199.23804988662133	199.47024943310657	36	127
199.35414965986394	199.47024943310657	67	127
199.47024943310657	199.96947845804988	53	127
199.47024943310657	199.5863492063492	29	127
199.47024943310657	199.96947845804988	65	127
199.5863492063492	199.70244897959185	41	127
199.70244897959185	199.81854875283446	31	127
199.81854875283446	199.96947845804988	43	127
199.96947845804988	200.08557823129252	32	127
200.08557823129252	200.20167800453515	44	127
200.20167800453515	200.3177777777778	34	127
200.3177777777778	200.4338775510204	46	127
200.4338775510204	200.5615873015873	36	127
200.5615873015873	200.67768707482992	48	127
200.67768707482992	200.80539682539683	38	127
200.80539682539683	200.9331065759637	50	127
200.9331065759637	201.04920634920634	40	127
201.04920634920634	201.16530612244898	52	127
201.16530612244898	201.25818594104308	36	127
201.25818594104308	201.37428571428572	48	127
201.37428571428572	201.49038548752836	65	127
201.37428571428572	201.9083446712018	41	127
201.37428571428572	201.9083446712018	53	127
201.49038548752836	201.6297052154195	77	127
201.6297052154195	201.75741496598638	64	127
201.75741496598638	201.9083446712018	76	127
201.9083446712018	202.0360544217687	65	127
202.0360544217687	202.1289342403628	77	127
202.1289342403628	202.24503401360545	66	127
202.24503401360545	202.3611337868481	78	127
202.3611337868481	202.4772335600907	68	127
202.4772335600907	202.6049433106576	80	127
202.6049433106576	202.73265306122448	66	127
202.73265306122448	202.7674829931973	32	127
202.73265306122448	202.7674829931973	44	127
202.73265306122448	202.8603628117914	78	127
202.8603628117914	202.96485260770976	46	127
202.8603628117914	202.96485260770976	34	127
202.8603628117914	202.976462585034	65	127
202.976462585034	203.1041723356009	77	127
203.1041723356009	203.20866213151928	63	127
203.20866213151928	203.2318820861678	36	127
203.20866213151928	203.2318820861678	48	127
203.20866213151928	203.3247619047619	75	127
203.3247619047619	203.81238095238095	61	127
203.3247619047619	203.52213151927438	37	127
203.3247619047619	203.52213151927438	49	127
203.3247619047619	203.81238095238095	73	127
203.81238095238095	203.90526077097505	37	127
203.81238095238095	203.90526077097505	49	127
204.12585034013605	204.16068027210883	37	127
204.12585034013605	204.16068027210883	49	127
204.2419501133787	204.38126984126984	44	127
204.2419501133787	204.38126984126984	32	127
204.70634920634922	204.90371882086168	44	127
204.70634920634922	204.90371882086168	32	127
205.13591836734693	205.17074829931974	32	127
205.13591836734693	205.17074829931974	44	127
205.2404081632653	206.38979591836735	41	127
205.2404081632653	205.39133786848072	77	127
205.2404081632653	205.39133786848072	89	127
205.2404081632653	206.38979591836735	29	127
205.79768707482992	205.91378684807256	89	127
205.79768707482992	205.91378684807256	77	127
206.1459863945578	206.18081632653062	77	127
206.1459863945578	206.18081632653062	89	127
206.27369614512472	206.41301587301587	72	127
206.27369614512472	206.41301587301587	84	127
206.72648526077097	206.8425850340136	41	127
206.72648526077097	206.8425850340136	53	127
206.72648526077097	206.8425850340136	72	127
206.72648526077097	206.8425850340136	84	127
207.07478458049886	207.10961451247167	41	127
207.07478458049886	207.10961451247167	53	127
207.07478458049886	207.10961451247167	72	127
207.07478458049886	207.10961451247167	84	127
207.1908843537415	207.35342403628118	73	127
207.1908843537415	207.35342403628118	46	127
207.1908843537415	207.35342403628118	58	127
207.1908843537415	207.35342403628118	85	127
207.74816326530612	207.84104308390022	46	127
207.74816326530612	207.84104308390022	58	127
208.08485260770976	208.11968253968254	58	127
208.08485260770976	208.11968253968254	46	127
208.20095238095237	208.32866213151928	41	127
208.20095238095237	208.32866213151928	53	127
208.65374149659863	208.758231292517	53	127
208.65374149659863	208.758231292517	41	127
209.00204081632654	209.03687074829932	41	127
209.00204081632654	209.03687074829932	53	127
209.1065306122449	209.53609977324263	49	127
209.1065306122449	209.26907029478457	73	127
209.1065306122449	209.26907029478457	85	127
209.1065306122449	209.53609977324263	37	127
209.58253968253968	209.67541950113377	73	127
209.58253968253968	209.67541950113377	85	127
209.91922902494332	209.9540589569161	73	127
209.91922902494332	209.9540589569161	85	127
210.03532879818593	210.1746485260771	80	127
210.03532879818593	210.1746485260771	68	127
210.46489795918367	210.56938775510204	80	127
210.46489795918367	210.56938775510204	68	127
210.46489795918367	210.56938775510204	37	127
210.46489795918367	210.56938775510204	49	127
210.78997732426305	210.82480725623583	49	127
210.78997732426305	210.82480725623583	37	127
210.78997732426305	210.82480725623583	68	127
210.78997732426305	210.82480725623583	80	127
210.94090702947847	211.1150566893424	42	127
210.94090702947847	210.9989569160998	82	127
210.94090702947847	211.1150566893424	30	127
210.94090702947847	210.9989569160998	70	127
211.2079365079365	211.28920634920635	46	127
211.3356462585034	211.37047619047618	58	127
211.45174603174604	211.5214058956916	49	127
211.56784580498865	211.60267573696146	61	127
211.67233560090702	211.7419954648526	53	127
211.78843537414966	211.82326530612244	65	127
211.9045351473923	211.97419501133786	54	127
212.0902947845805	212.15995464852608	58	127
212.2180045351474	212.25283446712018	70	127
212.33410430839	212.39215419501133	61	127
212.43859410430838	212.4734240362812	73	127
212.5663038548753	212.67079365079366	53	127
212.7172335600907	212.75206349206348	65	127
212.83333333333334	212.9029931972789	52	127
212.94943310657595	212.98426303854876	64	127
213.08875283446713	213.17002267573696	55	127
213.216462585034	213.23968253968255	67	127
213.32095238095238	213.3790022675737	58	127
213.42544217687075	213.44866213151928	70	127
213.50671201814058	213.55315192743765	55	127
213.5995918367347	213.63442176870748	67	127
213.72730158730158	213.79696145124717	52	127
213.84340136054422	213.878231292517	64	127
213.95950113378686	214.02916099773242	55	127
214.08721088435374	214.12204081632652	67	127
214.20331065759638	214.27297052154196	52	127
214.34263038548752	214.3774603174603	64	127
214.45873015873016	214.51678004535148	48	127
214.56321995464853	214.5980498866213	60	127
214.6677097505669	214.72575963718822	41	127
214.6677097505669	214.72575963718822	53	127
214.77219954648527	214.79541950113378	65	127
214.88829931972788	214.96956916099774	56	127
215.01600907029479	215.0740589569161	68	127
215.15532879818593	215.21337868480725	60	127
215.2598185941043	215.2946485260771	72	127
215.37591836734694	215.43396825396826	64	127
215.4804081632653	215.5152380952381	76	127
215.59650793650795	215.6661678004535	65	127
215.71260770975056	215.74743764172337	77	127
215.8287074829932	215.89836734693878	67	127
215.99124716553288	216.02607709750566	79	127
216.09573696145125	216.1653968253968	68	127
216.2118367346939	216.24666666666667	80	127
216.3279365079365	216.4208163265306	60	127
216.46725623582768	216.50208616780046	72	127
216.57174603174604	216.6414058956916	59	127
216.68784580498865	216.72267573696146	71	127
216.8039455782313	216.8619954648526	62	127
216.90843537414966	216.94326530612244	74	127
217.03614512471654	217.10580498866213	65	127
217.15224489795918	217.18707482993196	77	127
217.26834467120182	217.32639455782314	62	127
217.37283446712019	217.40766439909297	74	127
217.48893424036282	217.55859410430838	59	127
217.60503401360543	217.63986394557824	71	127
217.72113378684807	217.79079365079366	62	127
217.84884353741498	217.88367346938776	74	127
217.98816326530613	218.0578231292517	59	127
218.10426303854877	218.15070294784582	71	127
218.23197278911564	218.29002267573696	55	127
218.32485260770974	218.35968253968255	67	127
218.44095238095238	218.51061224489797	36	127
218.44095238095238	218.51061224489797	48	127
218.56866213151926	218.60349206349207	60	127
218.6847619047619	218.777641723356	51	127
218.82408163265305	218.85891156462586	63	127
218.9401814058957	218.998231292517	55	127
219.04467120181405	219.07950113378683	67	127
219.1607709750567	219.218820861678	59	127
219.2536507936508	219.28848072562357	71	127
219.36975056689343	219.439410430839	60	127
219.48585034013607	219.52068027210885	72	127
219.5903401360544	219.66	62	127
219.70643990929705	219.74126984126985	74	127
219.81092970521541	219.880589569161	63	127
219.92702947845805	219.96185941043083	75	127
220.0431292517007	220.11278911564625	59	127
220.14761904761906	220.17083900226757	71	127
220.25210884353743	220.321768707483	60	127
220.36820861678004	220.40303854875285	72	127
220.48430839002268	220.55396825396826	54	127
220.6004081632653	220.6352380952381	66	127
220.71650793650792	220.77455782312924	55	127
220.8209977324263	220.84421768707483	67	127
220.92548752834466	220.99514739229025	50	127
221.0415873015873	221.06480725623584	62	127
221.1344671201814	221.204126984127	51	127
221.25056689342404	221.28539682539682	63	127
221.36666666666667	221.43632653061223	47	127
221.48276643990928	221.5175963718821	59	127
221.6104761904762	221.69174603174602	48	127
221.73818594104307	221.77301587301588	60	127
221.91233560090703	221.99360544217686	44	127
222.04004535147394	222.07487528344672	56	127
222.15614512471655	222.19097505668935	55	127
222.15614512471655	222.27224489795918	43	127
222.27224489795918	222.30707482993196	56	127
222.27224489795918	222.38834467120182	44	127
222.38834467120182	222.4231746031746	55	127
222.38834467120182	222.4928344671202	43	127
222.4928344671202	222.52766439909297	57	127
222.4928344671202	222.6089342403628	45	127
222.6089342403628	222.6437641723356	55	127
222.6089342403628	222.72503401360544	43	127
222.72503401360544	222.75986394557822	58	127
222.72503401360544	222.84113378684808	46	127
222.84113378684808	222.98045351473922	43	127
222.84113378684808	222.88757369614513	55	127
222.98045351473922	223.0849433106576	47	127
222.98045351473922	223.00367346938776	59	127
223.0849433106576	223.11977324263037	55	127
223.0849433106576	223.2126530612245	43	127
223.2126530612245	223.24748299319728	60	127
223.2126530612245	223.3287528344671	48	127
223.3287528344671	223.44485260770975	43	127
223.3287528344671	223.36358276643992	55	127
223.44485260770975	223.5841723356009	49	127
223.44485260770975	223.4912925170068	61	127
223.5841723356009	223.6190022675737	55	127
223.5841723356009	223.67705215419502	43	127
223.67705215419502	223.79315192743763	50	127
223.67705215419502	223.7118820861678	62	127
223.79315192743763	223.82798185941044	55	127
223.79315192743763	223.95569160997732	43	127
223.95569160997732	223.9905215419501	63	127
223.95569160997732	224.07179138321996	51	127
224.07179138321996	224.118231292517	55	127
224.07179138321996	224.19950113378684	43	127
224.19950113378684	224.23433106575965	64	127
224.19950113378684	224.3039909297052	52	127
224.3039909297052	224.35043083900226	55	127
224.3039909297052	224.43170068027212	43	127
224.43170068027212	224.54780045351475	53	127
224.43170068027212	224.4665306122449	65	127
224.54780045351475	224.58263038548753	55	127
224.54780045351475	224.66390022675736	43	127
224.66390022675736	224.78	56	127
224.66390022675736	224.69873015873017	68	127
224.78	224.81482993197278	55	127
224.78	224.89609977324264	43	127
224.89609977324264	224.93092970521542	67	127
224.89609977324264	225.000589569161	55	127
225.000589569161	225.11668934240362	43	127
225.000589569161	225.0354195011338	55	127
225.11668934240362	225.23278911564626	53	127
225.11668934240362	225.15151927437643	65	127
225.23278911564626	225.26761904761904	55	127
225.23278911564626	225.3488888888889	43	127
225.3488888888889	225.4998185941043	51	127
225.3488888888889	225.4069387755102	63	127
225.4998185941043	225.5346485260771	55	127
225.4998185941043	225.61591836734695	43	127
225.61591836734695	225.65074829931973	62	127
225.61591836734695	225.73201814058956	50	127
225.73201814058956	225.76684807256237	55	127
225.73201814058956	225.8481179138322	43	127
225.8481179138322	225.96421768707484	48	127
225.8481179138322	225.88294784580498	60	127
225.96421768707484	226.09192743764171	43	127
225.96421768707484	225.99904761904762	55	127
226.09192743764171	226.27768707482994	47	127
226.09192743764171	226.12675736961452	59	127
226.27768707482994	226.31251700680272	62	127
226.27768707482994	226.39378684807255	50	127
226.39378684807255	226.4170068027211	59	127
226.39378684807255	226.49827664399092	47	127
226.49827664399092	226.54471655328797	55	127
226.49827664399092	226.6027664399093	43	127
226.6027664399093	226.7304761904762	47	127
226.6027664399093	226.6375963718821	59	127
226.7304761904762	226.89301587301588	50	127
226.7304761904762	226.80013605442176	62	127
226.89301587301588	226.99750566893425	47	127
226.89301587301588	226.92784580498866	59	127
226.99750566893425	227.11360544217686	43	127
226.99750566893425	227.03233560090703	55	127
227.11360544217686	227.1368253968254	59	127
227.11360544217686	227.19487528344672	47	127
227.19487528344672	227.2297052154195	62	127
227.19487528344672	227.2993650793651	50	127
227.2993650793651	227.33419501133787	59	127
227.2993650793651	227.4154648526077	47	127
227.4154648526077	227.4502947845805	55	127
227.4154648526077	227.53156462585034	43	127
227.53156462585034	227.56639455782312	59	127
227.53156462585034	227.64766439909297	47	127
227.64766439909297	227.77537414965985	50	127
227.64766439909297	227.68249433106575	62	127
227.77537414965985	227.81020408163266	59	127
227.77537414965985	227.8914739229025	47	127
227.8914739229025	228.00757369614513	43	127
227.8914739229025	227.92630385487527	55	127
228.00757369614513	228.12367346938777	48	127
228.00757369614513	228.0424036281179	60	127
228.12367346938777	228.15850340136055	63	127
228.12367346938777	228.22816326530614	51	127
228.22816326530614	228.35587301587302	48	127
228.22816326530614	228.26299319727892	60	127
228.35587301587302	228.47197278911565	43	127
228.35587301587302	228.3907029478458	55	127
228.47197278911565	228.63451247165534	48	127
228.47197278911565	228.5184126984127	60	127
228.63451247165534	228.75061224489795	51	127
228.63451247165534	228.66934240362812	63	127
228.75061224489795	228.8667120181406	48	127
228.75061224489795	228.78544217687076	60	127
228.8667120181406	228.90154195011337	55	127
228.8667120181406	228.9944217687075	43	127
228.9944217687075	229.02925170068028	60	127
228.9944217687075	229.1105215419501	48	127
229.1105215419501	229.14535147392291	63	127
229.1105215419501	229.24984126984128	51	127
229.24984126984128	229.30789115646257	60	127
229.24984126984128	229.38916099773243	48	127
229.38916099773243	229.4239909297052	55	127
229.38916099773243	229.50526077097507	43	127
229.50526077097507	229.63297052154195	48	127
229.50526077097507	229.54009070294785	60	127
229.63297052154195	229.7490702947846	51	127
229.63297052154195	229.66780045351473	63	127
229.7490702947846	229.78390022675737	60	127
229.7490702947846	229.87678004535147	48	127
229.87678004535147	229.9928798185941	43	127
229.87678004535147	229.91160997732428	55	127
229.9928798185941	230.10897959183674	47	127
229.9928798185941	230.02770975056688	59	127
230.10897959183674	230.2482993197279	43	127
230.10897959183674	230.16702947845806	55	127
230.2482993197279	230.28312925170067	57	127
230.2482993197279	230.36439909297053	45	127
230.36439909297053	230.50371882086168	43	127
230.36439909297053	230.3992290249433	55	127
230.50371882086168	230.53854875283446	58	127
230.50371882086168	230.63142857142856	46	127
230.63142857142856	230.68947845804988	55	127
230.63142857142856	230.73591836734693	43	127
230.73591836734693	230.77074829931973	59	127
230.73591836734693	230.8404081632653	47	127
230.8404081632653	230.85201814058956	55	127
230.8404081632653	230.92167800453515	43	127
230.92167800453515	230.94489795918366	60	127
230.92167800453515	231.00294784580498	48	127
231.00294784580498	231.02616780045352	55	127
231.00294784580498	231.10743764172335	43	127
231.10743764172335	231.14226757369613	61	127
231.10743764172335	231.223537414966	49	127
231.223537414966	231.26997732426304	55	127
231.223537414966	231.36285714285714	43	127
231.36285714285714	231.39768707482995	62	127
231.36285714285714	231.5370068027211	50	127
231.5370068027211	231.57183673469387	55	127
231.5370068027211	231.7227664399093	43	127
231.7227664399093	231.76920634920634	63	127
231.7227664399093	231.8504761904762	51	127
231.8504761904762	231.88530612244898	55	127
231.8504761904762	231.97818594104308	43	127
231.97818594104308	232.01301587301586	64	127
231.97818594104308	232.09428571428572	52	127
232.09428571428572	232.1291156462585	55	127
232.09428571428572	232.2219954648526	43	127
232.2219954648526	232.32648526077097	53	127
232.2219954648526	232.2568253968254	65	127
232.32648526077097	232.36131519274377	55	127
232.32648526077097	232.4425850340136	43	127
232.4425850340136	232.47741496598638	68	127
232.4425850340136	232.55868480725624	56	127
232.55868480725624	232.67478458049888	43	127
232.55868480725624	232.59351473922902	55	127
232.67478458049888	232.70961451247166	67	127
232.67478458049888	232.8257142857143	55	127
232.8257142857143	232.86054421768708	55	127
232.8257142857143	232.9418140589569	43	127
232.9418140589569	232.97664399092972	65	127
232.9418140589569	233.05791383219955	53	127
233.05791383219955	233.18562358276645	43	127
233.05791383219955	233.09274376417233	55	127
233.18562358276645	233.30172335600906	51	127
233.18562358276645	233.22045351473923	63	127
233.30172335600906	233.33655328798187	55	127
233.30172335600906	233.4178231292517	43	127
233.4178231292517	233.53392290249434	50	127
233.4178231292517	233.45265306122448	62	127
233.53392290249434	233.56875283446712	55	127
233.53392290249434	233.65002267573695	43	127
233.65002267573695	233.77773242630386	48	127
233.65002267573695	233.68485260770976	60	127
233.77773242630386	233.917052154195	55	127
233.77773242630386	233.917052154195	43	127
233.917052154195	234.0447619047619	47	127
233.917052154195	234.0447619047619	59	127
234.0447619047619	234.14925170068028	50	127
234.0447619047619	234.14925170068028	62	127
234.14925170068028	234.34662131519275	47	127
234.14925170068028	234.34662131519275	59	127
234.34662131519275	234.47433106575963	43	127
234.34662131519275	234.47433106575963	55	127
234.47433106575963	234.59043083900227	59	127
234.47433106575963	234.59043083900227	47	127
234.59043083900227	234.69492063492063	50	127
234.59043083900227	234.69492063492063	62	127
234.69492063492063	234.76458049886622	59	127
234.69492063492063	234.76458049886622	47	127
234.76458049886622	234.8922902494331	43	127
234.76458049886622	234.8922902494331	55	127
234.8922902494331	235.02	47	127
234.8922902494331	235.02	59	127
235.02	235.12448979591838	50	127
235.02	235.12448979591838	62	127
235.12448979591838	235.25219954648526	59	127
235.12448979591838	235.25219954648526	47	127
235.25219954648526	235.3682993197279	55	127
235.25219954648526	235.3682993197279	43	127
235.3682993197279	235.50761904761904	47	127
235.3682993197279	235.50761904761904	59	127
235.50761904761904	235.6469387755102	62	127
235.50761904761904	235.6469387755102	50	127
235.6469387755102	235.76303854875283	47	127
235.6469387755102	235.76303854875283	59	127
235.76303854875283	235.8675283446712	43	127
235.76303854875283	235.8675283446712	55	127
235.8675283446712	235.9952380952381	60	127
235.8675283446712	235.9952380952381	48	127
235.9952380952381	236.122947845805	51	127
235.9952380952381	236.122947845805	63	127
236.122947845805	236.23904761904762	48	127
236.122947845805	236.23904761904762	60	127
236.23904761904762	236.35514739229026	55	127
236.23904761904762	236.35514739229026	43	127
236.35514739229026	236.4944671201814	60	127
236.35514739229026	236.4944671201814	48	127
236.4944671201814	236.5873469387755	51	127
236.4944671201814	236.5873469387755	63	127
236.5873469387755	236.7498866213152	60	127
236.5873469387755	236.7498866213152	48	127
236.7498866213152	236.90081632653062	55	127
236.7498866213152	236.90081632653062	43	127
236.90081632653062	237.01691609977325	48	127
236.90081632653062	237.01691609977325	60	127
237.01691609977325	237.13301587301586	51	127
237.01691609977325	237.13301587301586	63	127
237.13301587301586	237.27233560090704	48	127
237.13301587301586	237.27233560090704	60	127
237.27233560090704	237.38843537414965	43	127
237.27233560090704	237.38843537414965	55	127
237.38843537414965	237.49292517006802	60	127
237.38843537414965	237.49292517006802	48	127
237.49292517006802	237.62063492063493	51	127
237.49292517006802	237.62063492063493	63	127
237.62063492063493	237.75995464852608	60	127
237.62063492063493	237.75995464852608	48	127
237.75995464852608	237.88766439909298	43	127
237.75995464852608	237.88766439909298	55	127
237.88766439909298	238.0037641723356	47	127
237.88766439909298	238.0037641723356	59	127
238.0037641723356	238.11986394557823	50	127
238.0037641723356	238.11986394557823	62	127
238.11986394557823	238.23596371882087	47	127
238.11986394557823	238.23596371882087	59	127
238.23596371882087	238.35206349206348	43	127
238.23596371882087	238.35206349206348	55	127
238.35206349206348	238.4797732426304	47	127
238.35206349206348	238.4797732426304	59	127
238.4797732426304	238.58426303854876	50	127
238.4797732426304	238.58426303854876	62	127
238.58426303854876	238.7003628117914	47	127
238.58426303854876	238.7003628117914	59	127
238.7003628117914	238.78163265306122	55	127
238.7003628117914	238.78163265306122	43	127
238.78163265306122	238.92095238095237	48	127
238.78163265306122	238.92095238095237	60	127
238.92095238095237	239.06027210884355	51	127
238.92095238095237	239.06027210884355	63	127
239.06027210884355	239.16476190476192	48	127
239.06027210884355	239.16476190476192	60	127
239.16476190476192	239.32730158730158	43	127
239.16476190476192	239.32730158730158	55	127
239.32730158730158	239.44340136054421	48	127
239.32730158730158	239.44340136054421	60	127
239.44340136054421	239.55950113378685	63	127
239.44340136054421	239.55950113378685	51	127
239.55950113378685	239.66399092970522	60	127
239.55950113378685	239.66399092970522	48	127
239.66399092970522	239.7917006802721	43	127
239.66399092970522	239.7917006802721	55	127
239.7917006802721	239.90780045351474	59	127
239.7917006802721	239.90780045351474	47	127
239.90780045351474	240.02390022675738	50	127
239.90780045351474	240.02390022675738	62	127
240.02390022675738	240.14	59	127
240.02390022675738	240.14	47	127
240.14	240.25609977324262	55	127
240.14	240.25609977324262	43	127
240.25609977324262	240.360589569161	59	127
240.25609977324262	240.360589569161	47	127
240.360589569161	240.47668934240363	62	127
240.360589569161	240.47668934240363	50	127
240.47668934240363	240.61600907029478	47	127
240.47668934240363	240.61600907029478	59	127
240.61600907029478	240.73210884353742	43	127
240.61600907029478	240.73210884353742	55	127
240.73210884353742	240.84820861678006	48	127
240.73210884353742	240.84820861678006	60	127
240.84820861678006	240.99913832199547	51	127
240.84820861678006	240.99913832199547	63	127
240.99913832199547	241.13845804988662	60	127
240.99913832199547	241.13845804988662	48	127
241.13845804988662	241.242947845805	43	127
241.13845804988662	241.242947845805	55	127
241.242947845805	241.35904761904763	60	127
241.242947845805	241.35904761904763	48	127
241.35904761904763	241.4867573696145	51	127
241.35904761904763	241.4867573696145	63	127
241.4867573696145	241.60285714285715	48	127
241.4867573696145	241.60285714285715	60	127
241.60285714285715	241.73056689342403	47	127
241.60285714285715	241.73056689342403	59	127
241.73056689342403	241.85827664399093	55	127
241.73056689342403	241.85827664399093	43	127
241.85827664399093	241.97437641723357	44	127
241.85827664399093	241.97437641723357	56	127
241.97437641723357	242.10208616780045	43	127
241.97437641723357	242.10208616780045	55	127
242.10208616780045	242.2181859410431	44	127
242.10208616780045	242.2181859410431	56	127
242.2181859410431	242.34589569160997	55	127
242.2181859410431	242.34589569160997	43	127
242.34589569160997	242.4619954648526	56	127
242.34589569160997	242.4619954648526	44	127
242.4619954648526	242.57809523809524	43	127
242.4619954648526	242.57809523809524	55	127
242.57809523809524	242.69419501133788	44	127
242.57809523809524	242.69419501133788	56	127
242.69419501133788	242.82190476190476	55	127
242.69419501133788	242.82190476190476	43	127
242.82190476190476	242.9380045351474	56	127
242.82190476190476	242.9380045351474	44	127
242.9380045351474	243.07732426303855	43	127
242.9380045351474	243.07732426303855	55	127
243.07732426303855	243.20503401360546	44	127
243.07732426303855	243.20503401360546	56	127
243.20503401360546	243.3443537414966	55	127
243.20503401360546	243.3443537414966	43	127
243.3443537414966	243.46045351473924	56	127
243.3443537414966	243.46045351473924	44	127
243.46045351473924	243.57655328798185	43	127
243.46045351473924	243.57655328798185	55	127
243.57655328798185	243.70426303854876	56	127
243.57655328798185	243.70426303854876	44	127
243.70426303854876	243.8435827664399	43	127
243.70426303854876	243.8435827664399	55	127
243.8435827664399	243.95968253968255	44	127
243.8435827664399	243.95968253968255	56	127
243.95968253968255	244.08739229024943	55	127
243.95968253968255	244.08739229024943	43	127
244.08739229024943	244.21510204081633	41	127
244.08739229024943	244.21510204081633	53	127
244.21510204081633	244.33120181405894	43	127
244.21510204081633	244.33120181405894	55	127
244.33120181405894	244.45891156462585	41	127
244.33120181405894	244.45891156462585	53	127
244.45891156462585	244.598231292517	55	127
244.45891156462585	244.598231292517	43	127
244.598231292517	244.70272108843537	51	127
244.598231292517	244.70272108843537	39	127
244.70272108843537	244.818820861678	43	127
244.70272108843537	244.818820861678	55	127
244.818820861678	244.94653061224489	51	127
244.818820861678	244.94653061224489	39	127
244.94653061224489	245.0742403628118	43	127
244.94653061224489	245.0742403628118	55	127
245.0742403628118	245.21356009070294	38	127
245.0742403628118	245.21356009070294	50	127
245.21356009070294	245.35287981859412	43	127
245.21356009070294	245.35287981859412	55	127
245.35287981859412	245.480589569161	38	127
245.35287981859412	245.480589569161	50	127
245.480589569161	245.6082993197279	43	127
245.480589569161	245.6082993197279	55	127
245.6082993197279	246.9550566893424	39	127
245.6082993197279	246.9550566893424	36	127
245.6082993197279	246.9550566893424	43	127
245.6082993197279	246.9550566893424	48	127
245.6082993197279	246.9550566893424	51	127
245.6082993197279	246.9550566893424	55	127
247.1756462585034	247.29174603174604	51	127
247.1756462585034	247.29174603174604	63	127
247.29174603174604	247.4310657596372	53	127
247.29174603174604	247.4310657596372	65	127
247.4310657596372	247.54716553287983	55	127
247.4310657596372	247.54716553287983	67	127
247.54716553287983	247.69809523809525	63	127
247.54716553287983	247.69809523809525	51	127
247.69809523809525	247.84902494331067	48	127
247.69809523809525	247.84902494331067	60	127
249.77628117913832	251.2275283446712	60	127
249.77628117913832	251.2275283446712	72	127
251.2275283446712	251.3552380952381	68	127
251.2275283446712	251.3552380952381	56	127
251.3552380952381	251.45972789115646	58	127
251.3552380952381	251.45972789115646	70	127
251.45972789115646	251.5758276643991	60	127
251.45972789115646	251.5758276643991	72	127
251.5758276643991	251.71514739229025	68	127
251.5758276643991	251.71514739229025	56	127
251.71514739229025	251.86607709750567	53	127
251.71514739229025	251.86607709750567	65	127
253.85138321995464	254.97755102040816	65	127
253.85138321995464	254.97755102040816	53	127
254.97755102040816	255.2445804988662	51	127
254.97755102040816	255.2445804988662	63	127
255.2445804988662	255.3374603174603	50	127
255.2445804988662	255.3374603174603	62	127
255.53482993197278	255.61609977324264	60	127
255.53482993197278	255.61609977324264	48	127
255.82507936507938	256.15015873015875	59	127
255.82507936507938	256.15015873015875	47	127
256.2662585034014	256.64938775510205	58	127
256.2662585034014	256.64938775510205	46	127
256.77709750566896	257.2182766439909	57	127
256.77709750566896	257.2182766439909	45	127
257.3575963718821	257.8219954648526	56	127
257.3575963718821	257.8219954648526	44	127
257.96131519274377	258.84367346938774	55	127
257.96131519274377	258.84367346938774	43	127
259.0874829931973	260.03950113378687	55	127
259.0874829931973	260.03950113378687	36	127
259.0874829931973	260.03950113378687	43	127
259.0874829931973	260.03950113378687	48	127
259.0874829931973	260.03950113378687	51	127
260.31814058956917	262.50081632653064	55	127
260.31814058956917	262.50081632653064	31	127
260.31814058956917	262.50081632653064	43	127
260.31814058956917	262.50081632653064	47	127
260.31814058956917	262.50081632653064	50	127
263.2902947845805	264.27714285714285	44	127
263.2902947845805	264.27714285714285	56	127
264.66024943310657	265.5658503401361	44	127
264.66024943310657	265.5658503401361	49	127
264.66024943310657	265.5658503401361	53	127
264.66024943310657	265.5658503401361	37	127
264.66024943310657	265.5658503401361	56	127
265.90253968253967	268.0619954648526	56	127
265.90253968253967	268.0619954648526	32	127
265.90253968253967	268.0619954648526	44	127
265.90253968253967	268.0619954648526	48	127
265.90253968253967	268.0619954648526	51	127
268.77020408163264	269.72222222222223	56	127
270.07049886621314	271.25473922902495	53	127
270.07049886621314	270.9528798185941	29	127
270.07049886621314	270.9528798185941	41	127
270.07049886621314	271.25473922902495	48	127
270.07049886621314	271.25473922902495	56	127
271.25473922902495	273.2748752834467	47	127
271.25473922902495	273.2748752834467	31	127
271.25473922902495	273.2748752834467	43	127
271.25473922902495	273.2748752834467	50	127
271.25473922902495	273.2748752834467	55	127
274.05274376417236	275.8871201814059	60	127
274.05274376417236	275.8871201814059	63	127
274.05274376417236	275.8871201814059	48	127
274.05274376417236	275.8871201814059	51	127
275.32984126984127	277.7098866213152	56	127
275.32984126984127	277.7098866213152	68	127
276.4560090702948	278.36002267573696	62	127
276.4560090702948	278.36002267573696	47	127
276.4560090702948	278.36002267573696	50	127
276.4560090702948	278.36002267573696	59	127
277.7098866213152	278.36002267573696	55	127
277.7098866213152	278.36002267573696	67	127
278.36002267573696	279.0334240362812	53	127
278.36002267573696	279.0334240362812	65	127
279.0334240362812	279.17272108843537	63	127
279.0334240362812	279.17272108843537	55	127
279.0334240362812	279.17272108843537	60	127
279.0334240362812	281.0767800453515	36	127
279.17272108843537	279.3120634920635	51	127
279.3120634920635	279.4281632653061	55	127
279.4281632653061	279.54426303854876	51	127
279.54426303854876	279.6603628117914	48	127
279.6603628117914	279.77646258503404	51	127
279.77646258503404	279.9041723356009	55	127
279.9041723356009	280.0318820861678	51	127
280.0318820861678	280.1943990929705	48	127
280.1943990929705	280.32213151927436	51	127
280.32213151927436	280.4498412698413	55	127
280.4498412698413	280.5775510204082	51	127
280.5775510204082	280.6936507936508	48	127
280.6936507936508	280.82136054421767	51	127
280.82136054421767	280.96068027210885	55	127
280.96068027210885	281.0767800453515	51	127
281.0767800453515	281.1696598639456	36	127
281.0767800453515	282.58607709750567	48	127
281.0767800453515	282.58607709750567	52	127
281.0767800453515	282.58607709750567	55	127
281.1928798185941	281.2973696145125	35	127
281.30897959183676	281.3902494331066	36	127
281.41346938775513	281.49473922902496	35	127
281.52954648526077	281.6108390022676	36	127
281.63403628117914	281.72691609977323	35	127
281.7501587301587	281.8430385487528	36	127
281.8778684807256	281.9707482993197	35	127
282.0171882086168	282.12167800453517	36	127
282.1565079365079	282.28421768707483	35	127
282.31904761904764	282.41192743764174	36	127
282.45836734693876	282.5628571428571	35	127
282.58607709750567	282.67895691609976	36	127
282.7021768707483	282.78344671201813	35	127
282.8066666666667	282.89954648526077	36	127
282.9227664399093	283.0156462585034	35	127
283.03886621315195	284.36240362811793	36	127
283.03886621315195	283.16655328798186	48	127
283.16655328798186	283.2942857142857	53	127
283.2942857142857	283.41038548752834	56	127
283.41038548752834	283.53809523809525	53	127
283.53809523809525	283.6541950113379	48	127
283.6541950113379	283.75868480725626	53	127
283.75868480725626	283.8631746031746	56	127
283.8631746031746	283.97925170068027	53	127
283.97925170068027	284.0605442176871	48	127
284.0605442176871	284.188231292517	53	127
284.188231292517	284.2463038548753	56	127
284.2463038548753	284.36240362811793	53	127
284.36240362811793	284.47850340136057	48	127
284.47850340136057	284.54816326530613	53	127
284.54816326530613	284.66426303854877	56	127
284.66426303854877	284.76875283446714	53	127
284.76875283446714	284.86163265306124	36	127
284.76875283446714	286.4173696145125	48	127
284.76875283446714	286.4173696145125	53	127
284.76875283446714	286.4173696145125	56	127
284.89643990929704	284.98934240362814	35	127
285.0241723356009	285.117052154195	36	127
285.1518820861678	285.2795918367347	35	127
285.30278911564625	285.39569160997735	36	127
285.41891156462583	285.53501133786847	35	127
285.58145124716555	285.70916099773245	36	127
285.76721088435374	285.8717006802721	35	127
285.9181179138322	286.0110204081633	36	127
286.04585034013604	286.13873015873014	35	127
286.17356009070295	286.2432199546485	36	127
286.2780498866213	286.39414965986396	35	127
286.4173696145125	286.4754195011338	36	127
286.4986394557823	286.62634920634923	35	127
286.70761904761906	286.80049886621316	36	127
286.83532879818597	286.93979591836734	35	127
286.98625850340136	289.0063945578231	36	127
287.102358276644	287.26489795918366	50	127
287.26489795918366	287.39260770975056	53	127
287.39260770975056	287.5551247165533	56	127
287.5551247165533	287.67124716553286	59	127
287.67124716553286	287.79895691609977	62	127
287.79895691609977	287.9150566893424	65	127
287.9150566893424	288.0427664399093	68	127
288.0427664399093	288.15886621315195	71	127
288.15886621315195	288.2865759637188	68	127
288.2865759637188	288.4142857142857	65	127
288.4142857142857	288.53038548752835	62	127
288.53038548752835	288.646485260771	59	127
288.646485260771	288.7741950113379	56	127
288.7741950113379	288.87868480725626	53	127
288.87868480725626	289.0063945578231	50	127
289.0063945578231	290.411201814059	36	127
289.13410430839	289.26181405895693	51	127
289.26181405895693	289.38952380952384	55	127
289.38952380952384	289.5056009070295	60	127
289.5056009070295	289.6333333333333	63	127
289.6333333333333	289.74943310657596	67	127
289.74943310657596	289.85392290249433	72	127
289.85392290249433	289.9584126984127	67	127
289.9584126984127	290.0861224489796	72	127
290.0861224489796	290.190612244898	67	127
290.190612244898	290.2834920634921	63	127
290.2834920634921	290.411201814059	60	127
290.411201814059	290.53891156462583	55	127
290.411201814059	290.898820861678	39	127
290.53891156462583	290.6550113378685	60	127
290.6550113378685	290.7711111111111	55	127
290.7711111111111	290.898820861678	51	127
290.898820861678	292.87249433106575	43	127
291.1309977324263	291.2471201814059	51	127
291.2471201814059	291.38643990929705	55	127
291.38643990929705	291.51414965986396	60	127
291.51414965986396	291.66507936507935	55	127
291.66507936507935	291.79278911564626	51	127
291.79278911564626	291.92049886621317	55	127
291.92049886621317	292.87249433106575	31	127
292.1759183673469	292.29201814058956	50	127
292.29201814058956	292.41972789115647	55	127
292.41972789115647	292.52421768707484	59	127
292.52421768707484	292.6403174603175	55	127
292.6403174603175	292.7564172335601	50	127
292.7564172335601	292.87249433106575	55	127
292.87249433106575	293.0002267573696	51	127
292.98861678004533	293.0931065759637	36	127
293.0931065759637	293.2208163265306	39	127
293.2208163265306	293.3485260770975	43	127
293.3485260770975	293.4994557823129	48	127
293.4762358276644	293.6039455782313	51	127
293.6039455782313	293.70843537414964	55	127
293.70843537414964	293.812925170068	60	127
293.812925170068	293.96385487528346	63	127
293.96385487528346	294.0102947845805	63	127
293.96385487528346	294.0799546485261	48	127
294.0799546485261	294.2308843537415	51	127
294.0799546485261	294.2308843537415	67	127
294.2308843537415	294.3934240362812	55	127
294.2308843537415	294.3934240362812	72	127
294.3934240362812	294.52113378684805	75	127
294.3934240362812	294.5443537414966	60	127
294.52113378684805	294.6372335600907	72	127
294.6372335600907	294.75333333333333	74	127
294.75333333333333	294.93909297052153	75	127
294.93909297052153	295.97238095238095	68	127
294.93909297052153	295.090022675737	77	127
294.93909297052153	295.97238095238095	62	127
294.93909297052153	295.97238095238095	65	127
295.50798185941045	296.3090702947846	77	127
296.1117006802721	296.2626303854875	65	127
296.1117006802721	296.2626303854875	68	127
296.1117006802721	296.2626303854875	62	127
296.3090702947846	296.4948299319728	65	127
296.3090702947846	296.4367800453515	75	127
296.3090702947846	296.4948299319728	62	127
296.3090702947846	296.4948299319728	68	127
296.4367800453515	296.5760997732426	74	127
296.5760997732426	296.7038095238095	72	127
296.5760997732426	296.7734693877551	62	127
296.5760997732426	296.7734693877551	65	127
296.5760997732426	296.7734693877551	68	127
296.7038095238095	296.83151927437643	71	127
296.83151927437643	297.73709750566894	63	127
296.83151927437643	296.97083900226755	79	127
296.83151927437643	297.73709750566894	67	127
297.3075283446712	298.2943537414966	79	127
298.0273469387755	298.224716553288	63	127
298.2943537414966	298.4336961451247	77	127
298.2943537414966	298.50333333333333	68	127
298.4336961451247	298.58462585034016	75	127
298.58462585034016	298.80519274376417	66	127
298.58462585034016	298.7471655328798	74	127
298.7471655328798	298.86326530612246	72	127
298.89809523809527	299.4437641723356	67	127
298.89809523809527	299.9197732426304	55	127
298.89809523809527	299.9197732426304	72	127
299.4437641723356	299.9197732426304	63	127
299.9197732426304	300.477052154195	62	127
299.9197732426304	300.477052154195	65	127
299.9197732426304	300.8601814058957	55	127
299.9197732426304	300.8601814058957	71	127
300.477052154195	300.8601814058957	65	127
300.8601814058957	301.18526077097505	60	127
300.8601814058957	301.0691609977324	72	127
300.8601814058957	301.18526077097505	63	127
301.0691609977324	301.31297052154196	73	127
301.31297052154196	301.56836734693877	74	127
301.56836734693877	301.800589569161	75	127
301.800589569161	302.07920634920634	76	127
302.07920634920634	302.2998185941043	77	127
302.2998185941043	302.57845804988665	78	127
302.57845804988665	302.7758276643991	79	127
302.82226757369614	303.9716553287982	79	127
303.0544671201814	303.2866666666667	47	127
303.2866666666667	303.5304761904762	48	127
303.5304761904762	303.7510657596372	50	127
303.7510657596372	303.9716553287982	51	127
303.9716553287982	304.227052154195	48	127
303.9716553287982	304.11097505668937	80	127
304.11097505668937	304.227052154195	79	127
304.227052154195	304.4592743764172	45	127
304.227052154195	304.35478458049886	77	127
304.35478458049886	304.4592743764172	75	127
304.4592743764172	304.57537414965986	74	127
304.4592743764172	304.66825396825396	42	127
304.57537414965986	304.66825396825396	72	127
304.66825396825396	304.7263038548753	43	127
304.66825396825396	305.58544217687074	72	127
304.85401360544216	305.0397505668934	51	127
304.85401360544216	305.0397505668934	43	127
304.85401360544216	305.0397505668934	48	127
304.85401360544216	305.0397505668934	55	127
305.0978231292517	305.26036281179137	55	127
305.0978231292517	305.26036281179137	48	127
305.0978231292517	305.26036281179137	43	127
305.0978231292517	305.26036281179137	51	127
305.3184126984127	305.5041723356009	51	127
305.3184126984127	305.5041723356009	55	127
305.3184126984127	305.5041723356009	43	127
305.3184126984127	305.5041723356009	48	127
305.58544217687074	305.65507936507936	71	127
305.65507936507936	305.7247619047619	72	127
305.7247619047619	305.7828117913832	71	127
305.7828117913832	305.8640589569161	72	127
305.817641723356	306.02662131519276	53	127
305.817641723356	306.02662131519276	43	127
305.817641723356	306.02662131519276	50	127
305.817641723356	306.02662131519276	55	127
305.8640589569161	305.9453514739229	71	127
305.9453514739229	306.0150113378685	72	127
306.0150113378685	306.08467120181405	71	127
306.08467120181405	306.16591836734693	72	127
306.0962811791383	306.2704081632653	43	127
306.0962811791383	306.2704081632653	50	127
306.0962811791383	306.2704081632653	53	127
306.0962811791383	306.2704081632653	55	127
306.16591836734693	306.24721088435376	71	127
306.24721088435376	306.35170068027213	72	127
306.35170068027213	306.44458049886623	71	127
306.35170068027213	306.57226757369614	53	127
306.35170068027213	306.57226757369614	43	127
306.35170068027213	306.57226757369614	50	127
306.35170068027213	306.57226757369614	55	127
306.44458049886623	306.52585034013606	69	127
306.52585034013606	306.6419501133787	71	127
306.6419501133787	306.8160997732426	60	127
306.6419501133787	306.8160997732426	63	127
306.6419501133787	306.8160997732426	67	127
306.6419501133787	306.8160997732426	72	127
306.65356009070297	306.8277097505669	36	127
306.65356009070297	306.8277097505669	39	127
306.65356009070297	306.8277097505669	43	127
306.65356009070297	306.8277097505669	48	127
307.6868480725624	307.8609977324263	62	127
307.6868480725624	307.8609977324263	67	127
307.6868480725624	307.8609977324263	71	127
307.6868480725624	307.8609977324263	74	127
307.6868480725624	307.8609977324263	31	127
307.6868480725624	307.8609977324263	35	127
307.6868480725624	307.8609977324263	38	127
307.6868480725624	307.8609977324263	43	127
308.6388662131519	308.8130158730159	67	127
308.6388662131519	308.8130158730159	63	127
308.6388662131519	308.8130158730159	72	127
308.6388662131519	308.8130158730159	75	127
308.6388662131519	308.8130158730159	36	127
308.6388662131519	308.8130158730159	39	127
308.6388662131519	308.8130158730159	43	127
308.6388662131519	308.8130158730159	48	127
310.1017233560091	310.26426303854873	77	127
310.1017233560091	310.51968253968255	63	127
310.1017233560091	310.51968253968255	60	127
310.1017233560091	310.51968253968255	67	127
310.26426303854873	310.3803628117914	75	127
310.3803628117914	310.5080725623583	74	127
310.5080725623583	310.64739229024946	72	127
310.64739229024946	311.1814512471655	72	127
310.64739229024946	311.7271201814059	65	127
310.64739229024946	311.7271201814059	62	127
310.64739229024946	311.7271201814059	67	127
311.1814512471655	311.95931972789117	71	127
311.95931972789117	312.0870294784581	72	127
312.0870294784581	312.261179138322	72	127
312.09861678004535	312.59786848072565	63	127
312.09861678004535	312.59786848072565	60	127
312.09861678004535	313.37573696145125	67	127
312.261179138322	312.34244897959184	74	127
312.34244897959184	312.43532879818594	72	127
312.43532879818594	312.50496598639455	74	127
312.50496598639455	312.5862585034014	72	127
312.5862585034014	312.65591836734694	71	127
312.65591836734694	312.74879818594104	72	127
312.74879818594104	313.96784580498866	72	127
312.74879818594104	313.96784580498866	75	127
312.7604081632653	314.09555555555556	55	127
313.364126984127	313.96784580498866	69	127
313.37573696145125	313.9794557823129	66	127
313.96784580498866	314.4438321995465	74	127
313.96784580498866	314.4438321995465	71	127
313.9794557823129	314.4554648526077	67	127
314.97791383219953	315.10562358276644	63	127
314.97791383219953	315.10562358276644	60	127
314.97791383219953	315.10562358276644	67	127
314.97791383219953	315.10562358276644	72	127
314.9895238095238	315.10562358276644	36	127
314.9895238095238	315.10562358276644	39	127
314.9895238095238	315.10562358276644	43	127
314.9895238095238	315.10562358276644	48	127
315.9879818594104	316.17374149659867	62	127
315.9879818594104	316.17374149659867	65	127
315.9879818594104	316.17374149659867	68	127
315.9879818594104	316.17374149659867	70	127
315.9879818594104	316.17374149659867	74	127
316.01120181405895	316.18532879818594	34	127
316.01120181405895	316.18532879818594	38	127
316.01120181405895	316.18532879818594	41	127
316.01120181405895	316.18532879818594	46	127
317.09092970521544	317.2999092970522	68	127
317.09092970521544	317.2999092970522	74	127
317.09092970521544	317.2999092970522	77	127
317.09092970521544	317.2999092970522	80	127
317.1025170068027	317.2999092970522	46	127
317.1025170068027	317.2999092970522	50	127
317.1025170068027	317.2999092970522	53	127
317.1025170068027	317.2999092970522	58	127
318.90208616780046	319.2039455782313	70	127
318.90208616780046	319.2039455782313	76	127
318.90208616780046	319.2039455782313	79	127
318.90208616780046	319.2039455782313	82	127
318.91369614512473	319.21555555555557	43	127
318.91369614512473	319.21555555555557	46	127
318.91369614512473	319.21555555555557	52	127
318.91369614512473	319.21555555555557	55	127
320.75968253968256	321.07315192743766	72	127
320.75968253968256	321.07315192743766	77	127
320.75968253968256	321.07315192743766	84	127
320.7945124716553	321.08473922902493	44	127
320.7945124716553	321.08473922902493	48	127
320.7945124716553	321.08473922902493	53	127
320.7945124716553	321.08473922902493	56	127
321.7813605442177	321.9671201814059	60	127
321.7813605442177	321.9671201814059	66	127
321.7813605442177	321.9671201814059	72	127
321.792970521542	321.9787301587302	32	127
321.792970521542	321.9787301587302	44	127
322.86108843537414	322.93072562358276	59	127
322.86108843537414	322.93072562358276	62	127
322.86108843537414	322.93072562358276	67	127
322.86108843537414	322.93072562358276	71	127
322.86108843537414	323.0120181405896	31	127
322.86108843537414	323.0120181405896	43	127
323.1513378684807	323.26743764172335	67	127
323.26743764172335	323.30226757369616	69	127
323.39514739229026	323.4648072562358	71	127
323.62734693877553	323.70861678004536	72	127
323.871156462585	323.94081632653064	74	127
324.12657596371884	324.1846258503401	76	127
324.4516553287982	324.52131519274377	74	127
324.6954648526077	324.7651247165533	76	127
324.9160544217687	324.98571428571427	79	127
325.1830612244898	325.25274376417235	76	127
325.43850340136055	325.5429931972789	72	127
325.7055328798186	325.7751927437642	71	127
325.9145124716553	325.98417233560093	74	127
326.16993197278913	326.2395918367347	71	127
326.3673015873016	326.52984126984126	67	127
326.6807709750567	326.76204081632653	72	127
326.93619047619046	327.0058503401361	67	127
327.16839002267574	327.24965986394557	69	127
327.4121995464853	327.48185941043084	71	127
327.6560090702948	327.7140589569161	72	127
327.8765986394558	327.9346258503401	74	127
328.0971882086168	328.1900680272109	72	127
328.3758276643991	328.4454875283447	70	127
328.60802721088436	328.70090702947846	69	127
328.8634240362812	328.96791383219954	72	127
329.14208616780047	329.21174603174603	69	127
329.38589569160996	329.4555555555556	67	127
329.61809523809524	329.6877551020408	65	127
329.8619047619048	329.93156462585034	69	127
330.11732426303854	330.18696145124716	66	127
330.33791383219955	330.4191836734694	69	127
330.59331065759636	330.6746031746032	67	127
330.83714285714285	330.90678004535147	66	127
331.0809523809524	331.15061224489796	67	127
331.3131292517007	331.3944217687075	66	127
331.55696145124716	331.6265986394558	67	127
331.812380952381	331.8936507936508	66	127
332.0445804988662	332.1142403628118	67	127
332.2767800453515	332.34643990929703	69	127
332.5321995464853	332.6134693877551	71	127
332.7760090702948	332.8688888888889	67	127
333.0314285714286	333.0894784580499	71	127
333.2171882086168	333.3100680272109	72	127
333.4958276643991	333.5654648526077	74	127
333.72802721088436	333.7976870748299	76	127
333.96022675736964	334.0298866213152	77	127
334.23886621315194	334.3549659863946	74	127
334.5291156462585	334.59877551020406	76	127
334.7497052154195	334.81936507936507	79	127
334.9819047619048	335.05156462585035	84	127
335.21410430839	335.2837641723356	88	127
335.434693877551	335.50433106575963	87	127
335.6668934240363	335.73655328798185	88	127
335.89909297052156	335.9339229024943	89	127
336.0732426303855	336.17773242630386	86	127
336.3402721088435	336.4215192743764	84	127
336.6073015873016	336.68857142857144	88	127
336.8859410430839	336.96721088435373	84	127
337.12975056689345	337.199410430839	88	127
337.3271201814059	337.3967800453515	83	127
337.6521768707483	337.72185941043085	86	127
337.86115646258503	337.9192290249433	83	127
338.0469387755102	338.1165986394558	86	127
338.26750566893423	338.3371882086168	84	127
338.6158276643991	338.68548752834465	79	127
338.8364172335601	338.90607709750566	76	127
339.0686167800454	339.12666666666667	72	127
339.2775963718821	339.35886621315194	67	127
339.5562358276644	339.63750566893424	64	127
339.80002267573695	339.8697052154195	62	127
339.81165532879817	339.91614512471654	43	127
340.0554648526077	340.1251247165533	65	127
340.17156462585035	340.20637188208616	43	127
340.3689342403628	340.4385941043084	64	127
340.3689342403628	340.508253968254	48	127
340.6011337868481	340.67079365079366	64	127
340.8449433106576	340.9146031746032	62	127
340.8449433106576	340.94943310657595	48	127
341.07714285714286	341.1468027210884	60	127
341.1932426303855	341.2280498866213	48	127
341.30934240362814	341.3790022675737	59	127
341.30934240362814	341.43702947845804	43	127
341.52993197278914	341.5995918367347	65	127
341.79696145124717	341.9130612244898	43	127
341.79696145124717	341.878231292517	62	127
342.0407709750567	342.1104308390023	59	127
342.15684807256235	342.1917006802721	43	127
342.27297052154194	342.34263038548755	60	127
342.27297052154194	343.66616780045354	40	127
342.56319727891156	342.62126984126985	64	127
342.8302494331066	342.89990929705215	67	127
343.07403628117913	343.1321088435374	65	127
343.25981859410433	343.35269841269843	64	127
343.56167800453517	343.61972789115646	62	127
343.66616780045354	343.7009977324263	36	127
343.7822448979592	343.84031746031746	60	127
343.7822448979592	343.8751473922903	38	127
344.02607709750566	344.0957142857143	58	127
344.1421768707483	344.1770068027211	40	127
344.2814965986395	344.40920634920633	41	127
344.2814965986395	344.35115646258504	57	127
344.5020634920635	344.57174603174604	61	127
344.72267573696143	344.79233560090705	62	127
344.72267573696143	344.8271655328798	41	127
344.9548752834467	345.01290249433106	64	127
345.07097505668935	345.10580498866216	40	127
345.1754648526077	345.19868480725626	67	127
345.1754648526077	345.3380045351474	38	127
345.233514739229	345.3147619047619	65	127
345.44249433106575	345.4889342403628	64	127
345.6514739229025	345.7443537414966	38	127
345.6514739229025	345.7211337868481	65	127
345.93009070294784	345.9997732426304	66	127
346.0345804988662	346.06943310657596	36	127
346.1507029478458	346.7195918367347	35	127
346.1507029478458	346.16231292517006	69	127
346.20875283446713	346.25519274376416	67	127
346.39451247165533	346.48739229024943	66	127
346.7195918367347	347.439410430839	38	127
346.7195918367347	346.78925170068027	67	127
346.97501133786847	347.0446712018141	69	127
347.1956009070295	347.2536507936508	71	127
347.439410430839	347.5090702947846	72	127
347.6715873015873	347.77607709750566	35	127
347.6715873015873	347.74126984126985	74	127
347.9038095238095	347.97344671201813	76	127
348.01990929705215	348.0431292517007	36	127
348.14761904761906	348.28691609977324	38	127
348.14761904761906	348.2172789115646	77	127
348.36820861678007	348.37981859410434	76	127
348.61201814058956	348.6816780045352	74	127
348.61201814058956	348.7165079365079	38	127
348.9022448979592	348.96031746031747	72	127
349.00673469387755	349.0415873015873	40	127
349.12285714285713	349.1809070294785	71	127
349.12285714285713	349.2157369614512	41	127
349.34344671201814	349.41308390022675	69	127
349.4479365079365	349.4827664399093	43	127
349.6685260770975	349.73818594104307	67	127
349.6685260770975	349.7730158730159	45	127
349.8891156462585	349.9587755102041	65	127
349.9936054421769	350.0284126984127	47	127
350.09809523809525	351.1197732426304	48	127
350.09809523809525	350.1793650793651	64	127
350.33027210884353	350.3999546485261	67	127
350.5508843537415	350.6089342403628	72	127
350.7714739229025	350.82952380952383	67	127
351.0268934240363	351.0849433106576	64	127
351.23587301587304	351.3055328798186	60	127
351.51451247165534	351.5841723356009	65	127
351.51451247165534	351.6190022675737	45	127
351.7582993197279	351.82798185941044	69	127
351.87442176870746	351.9092517006803	41	127
352.071768707483	352.23433106575965	43	127
352.071768707483	352.338820861678	60	127
352.071768707483	352.338820861678	64	127
352.338820861678	352.54780045351475	55	127
352.54780045351475	352.7103401360544	43	127
352.54780045351475	352.8496598639456	60	127
352.54780045351475	352.8496598639456	64	127
352.8496598639456	353.09344671201814	55	127
352.95414965986396	352.98895691609977	43	127
353.09344671201814	353.37210884353743	62	127
353.09344671201814	353.23278911564626	43	127
353.09344671201814	353.37210884353743	65	127
353.37210884353743	353.59269841269844	55	127
353.59269841269844	353.6971882086168	43	127
353.59269841269844	353.8016553287982	62	127
353.59269841269844	353.8016553287982	65	127
353.8016553287982	354.04548752834467	55	127
353.91777777777776	353.95260770975057	43	127
354.04548752834467	355.0671655328798	48	127
354.04548752834467	354.1151247165533	60	127
354.04548752834467	354.1151247165533	63	127
354.3009070294785	354.5214739229025	67	127
354.5214739229025	354.71886621315195	72	127
354.71886621315195	354.9510657596372	67	127
354.9510657596372	355.18326530612245	63	127
355.18326530612245	355.4154648526077	60	127
355.4154648526077	355.5199546485261	44	127
355.4154648526077	355.4851247165533	60	127
355.4154648526077	355.4851247165533	63	127
355.647641723356	355.7057142857143	60	127
355.647641723356	355.7057142857143	63	127
355.75213151927437	355.7869841269841	43	127
355.86825396825395	356.0191836734694	42	127
355.86825396825395	356.1120634920635	60	127
355.86825396825395	356.1120634920635	63	127
356.1120634920635	356.3442630385488	57	127
356.3442630385488	356.58807256235826	60	127
356.3442630385488	356.4603401360544	42	127
356.3442630385488	356.58807256235826	63	127
356.58807256235826	356.82027210884354	57	127
356.69256235827663	356.72739229024944	42	127
356.82027210884354	357.1105215419501	63	127
356.82027210884354	357.017641723356	42	127
356.82027210884354	357.1105215419501	60	127
357.1105215419501	357.3427210884354	57	127
357.3427210884354	357.6561904761905	60	127
357.3427210884354	357.50526077097504	42	127
357.3427210884354	357.6561904761905	63	127
357.6561904761905	357.88839002267576	57	127
357.7490702947846	357.79548752834467	42	127
357.88839002267576	357.9580498866213	62	127
357.88839002267576	357.9580498866213	31	127
357.88839002267576	357.9580498866213	59	127
357.98126984126986	358.0973469387755	43	127
357.98126984126986	358.0973469387755	55	127
358.120589569161	358.20183673469387	31	127
358.120589569161	358.20183673469387	57	127
358.22507936507935	358.30632653061224	43	127
358.22507936507935	358.30632653061224	59	127
358.3295691609977	358.44566893424036	31	127
358.3295691609977	358.44566893424036	60	127
358.53854875283446	358.6430385487528	43	127
358.53854875283446	358.6430385487528	62	127
358.66625850340137	358.75913832199547	31	127
358.66625850340137	358.75913832199547	64	127
358.80557823129254	358.8868480725624	66	127
358.80557823129254	358.8868480725624	43	127
358.9100680272109	359.002947845805	67	127
358.9100680272109	359.002947845805	31	127
359.02614512471655	359.0958276643991	43	127
359.02614512471655	359.0958276643991	69	127
359.13065759637186	359.21192743764175	31	127
359.13065759637186	359.21192743764175	71	127
359.23514739229023	359.3164172335601	72	127
359.23514739229023	359.3164172335601	43	127
359.35124716553287	359.44412698412697	31	127
359.35124716553287	359.44412698412697	74	127
359.4673469387755	359.54861678004534	43	127
359.4673469387755	359.54861678004534	76	127
359.58344671201814	359.6531065759637	31	127
359.58344671201814	359.6531065759637	78	127
359.67632653061224	359.9201360544218	43	127
359.67632653061224	359.9201360544218	79	127
359.9433333333333	360.02462585034016	31	127
359.9433333333333	360.0594557823129	80	127
360.0478231292517	360.1291156462585	43	127
360.1639455782313	360.24519274376416	31	127
360.2800453514739	360.36131519274375	43	127
360.3845351473923	360.4658049886621	31	127
360.3845351473923	360.52385487528346	56	127
360.5006349206349	360.58190476190475	43	127
360.6051247165533	360.6980045351474	31	127
360.74444444444447	360.8257142857143	43	127
360.84893424036284	360.94181405895694	31	127
360.84893424036284	361.5107029478458	80	127
360.9650113378685	361.0463038548753	43	127
361.08113378684806	361.16238095238094	31	127
361.1856235827664	361.2668707482993	43	127
361.30172335600906	361.3713605442177	31	127
361.39460317460316	361.48748299319726	43	127
361.5107029478458	361.59197278911563	31	127
361.61519274376417	361.70807256235827	43	127
361.7312925170068	361.81256235827664	31	127
361.7312925170068	361.81256235827664	83	127
361.84739229024945	361.9286621315193	59	127
361.84739229024945	361.9286621315193	43	127
361.9518820861678	362.03315192743764	31	127
361.9518820861678	362.03315192743764	60	127
362.1028117913832	362.2073015873016	43	127
362.1028117913832	362.2073015873016	62	127
362.2305215419501	362.3234013605442	31	127
362.2305215419501	362.3234013605442	63	127
362.34662131519275	362.4278911564626	65	127
362.34662131519275	362.4278911564626	43	127
362.4511111111111	362.5556009070295	31	127
362.4511111111111	362.5556009070295	67	127
362.578820861678	362.6833106575964	43	127
362.578820861678	362.6833106575964	69	127
362.7297505668934	362.81102040816324	31	127
362.7297505668934	362.81102040816324	71	127
362.8342403628118	362.93873015873015	72	127
362.8342403628118	362.93873015873015	43	127
362.97356009070296	363.0548299319728	74	127
362.97356009070296	363.0548299319728	31	127
363.07804988662133	363.19414965986397	75	127
363.07804988662133	363.19414965986397	43	127
363.2173469387755	363.29863945578234	77	127
363.2173469387755	363.29863945578234	31	127
363.3218594104308	363.414716553288	79	127
363.3218594104308	363.414716553288	43	127
363.43795918367346	363.51920634920634	81	127
363.43795918367346	363.51920634920634	31	127
363.5540589569161	363.6353287981859	83	127
363.5540589569161	363.6353287981859	43	127
363.681768707483	363.8326984126984	84	127
363.681768707483	363.7746485260771	31	127
363.8094784580499	363.89074829931974	43	127
363.9139682539683	364.0068480725624	31	127
364.01845804988665	364.0997278911565	43	127
364.122947845805	364.2158276643991	31	127
364.122947845805	364.26226757369614	60	127
364.23902494331065	364.3203174603175	43	127
364.35514739229023	364.6221768707483	31	127
364.64537414965986	364.7266666666667	43	127
364.76149659863944	365.24911564625853	84	127
364.76149659863944	364.8427437641723	31	127
364.8659863945578	364.9472335600907	43	127
364.98208616780045	365.0633560090703	31	127
365.0865759637188	365.16784580498864	43	127
365.1910657596372	365.272335600907	31	127
365.3071655328798	365.38843537414965	43	127
365.4116553287982	365.492925170068	31	127
365.4116553287982	365.5858049886621	85	127
365.5277551020408	365.60902494331066	43	127
365.6322448979592	365.70190476190476	31	127
365.6322448979592	365.73673469387757	86	127
365.73673469387757	365.84122448979593	85	127
365.73673469387757	365.8180045351474	43	127
365.84122448979593	365.9573242630386	86	127
365.84122448979593	365.93410430839003	31	127
365.9573242630386	366.0385941043084	43	127
365.9573242630386	366.0734013605442	85	127
366.0734013605442	366.14308390022677	31	127
366.0734013605442	366.1663038548753	86	127
366.1663038548753	366.28238095238095	84	127
366.1663038548753	366.24757369614514	43	127
366.28238095238095	366.3636734693878	31	127
366.28238095238095	366.46816326530615	83	127
366.46816326530615	366.60748299319727	84	127
366.46816326530615	366.5726530612245	43	127
366.60748299319727	366.71197278911563	86	127
366.60748299319727	366.68873015873015	31	127
366.71197278911563	366.8280725623583	85	127
366.71197278911563	366.80485260770973	43	127
366.8280725623583	366.9093424036281	31	127
366.8280725623583	366.9557823129252	86	127
366.9557823129252	367.06027210884355	85	127
366.9557823129252	367.037052154195	43	127
367.06027210884355	367.1415419501134	31	127
367.06027210884355	367.1763718820862	86	127
367.1763718820862	367.28086167800456	84	127
367.1763718820862	367.257641723356	43	127
367.28086167800456	367.3969614512472	31	127
367.28086167800456	367.4434013605442	83	127
367.4434013605442	367.52467120181404	43	127
367.4434013605442	367.5478911564626	84	127
367.5478911564626	367.6639909297052	86	127
367.5478911564626	367.6407709750567	31	127
367.6639909297052	367.78009070294786	87	127
367.6639909297052	367.74526077097505	43	127
367.78009070294786	367.8613605442177	31	127
367.78009070294786	367.8845804988662	86	127
367.8845804988662	367.9774603174603	43	127
367.8845804988662	368.01226757369614	84	127
368.01226757369614	368.09356009070297	31	127
368.01226757369614	368.1167573696145	83	127
368.1167573696145	368.2096598639456	43	127
368.1167573696145	368.2560997732426	84	127
368.2560997732426	368.38380952380953	83	127
368.2560997732426	368.33736961451245	31	127
368.38380952380953	368.46507936507936	43	127
368.38380952380953	368.4882993197279	81	127
368.4882993197279	368.56956916099773	31	127
368.4882993197279	368.60439909297054	79	127
368.60439909297054	368.68566893424037	43	127
368.60439909297054	368.7088888888889	81	127
368.7088888888889	368.8133786848073	31	127
368.7088888888889	368.84820861678	79	127
368.84820861678	368.9410657596372	43	127
368.84820861678	368.96430839002267	78	127
368.96430839002267	369.0804081632653	33	127
368.96430839002267	369.1268480725624	79	127
369.1268480725624	369.2197278911565	43	127
369.1268480725624	369.242925170068	77	127
369.242925170068	369.3474149659864	35	127
369.242925170068	369.37065759637187	76	127
369.37065759637187	369.4867573696145	74	127
369.37065759637187	369.45190476190476	43	127
369.4867573696145	369.95115646258506	36	127
369.4867573696145	369.8350566893424	72	127
369.8350566893424	370.1833560090703	67	127
370.28784580498865	370.60131519274375	67	127
370.7058049886621	370.85673469387757	47	127
370.7058049886621	371.2050340136054	67	127
370.85673469387757	370.9728344671202	48	127
370.9728344671202	371.04249433106577	50	127
371.2050340136054	371.32113378684807	69	127
371.2050340136054	371.27469387755104	43	127
371.32113378684807	371.4372335600907	71	127
371.4372335600907	371.5997505668934	48	127
371.4372335600907	371.5301133786848	72	127
371.6926303854875	372.2499319727891	67	127
372.2499319727891	372.36603174603175	69	127
372.2499319727891	372.3195918367347	43	127
372.2499319727891	372.3195918367347	55	127
372.36603174603175	372.49374149659866	71	127
372.49374149659866	372.5634013605442	72	127
372.49374149659866	372.6330612244898	48	127
372.49374149659866	372.6330612244898	60	127
372.71430839002267	373.17873015873016	79	127
373.17873015873016	373.2483900226757	43	127
373.17873015873016	373.2483900226757	55	127
373.17873015873016	373.2948299319728	81	127
373.2948299319728	373.5270294784581	83	127
373.5270294784581	373.6199092970522	84	127
373.5270294784581	373.701179138322	48	127
373.5270294784581	373.701179138322	60	127
373.81727891156464	374.13074829931975	67	127
374.2352380952381	374.5602947845805	67	127
374.66478458049886	374.78090702947844	47	127
374.66478458049886	375.17562358276643	67	127
374.78090702947844	374.90861678004535	48	127
374.90861678004535	374.9782766439909	50	127
375.17562358276643	375.245306122449	43	127
375.17562358276643	375.291746031746	69	127
375.291746031746	375.4310657596372	71	127
375.4310657596372	375.5239455782313	48	127
375.4310657596372	375.5239455782313	72	127
375.686462585034	375.8025850340136	48	127
375.686462585034	376.08122448979594	68	127
375.8025850340136	375.9186848072562	49	127
375.9186848072562	375.9651247165533	51	127
376.08122448979594	376.1508843537415	44	127
376.08122448979594	376.1857142857143	70	127
376.1857142857143	376.2902040816327	72	127
376.2902040816327	376.3714739229025	49	127
376.2902040816327	376.3714739229025	73	127
376.53401360544217	377.056462585034	72	127
376.53401360544217	376.6617233560091	52	127
376.6617233560091	376.80104308390025	53	127
376.80104308390025	376.8707029478458	55	127
377.056462585034	377.13773242630384	48	127
377.056462585034	377.1957823129252	74	127
377.1957823129252	377.3118820861678	76	127
377.3118820861678	377.3815419501134	77	127
377.3118820861678	377.3815419501134	53	127
377.5673015873016	377.6950113378685	62	127
377.5673015873016	377.99687074829933	79	127
377.6950113378685	377.81111111111113	63	127
377.81111111111113	377.8807709750567	65	127
377.99687074829933	378.0665306122449	55	127
377.99687074829933	378.12458049886624	81	127
378.12458049886624	378.2406575963719	83	127
378.2406575963719	378.34514739229024	84	127
378.2406575963719	378.34514739229024	60	127
378.49609977324263	378.9604761904762	79	127
378.49609977324263	378.6121995464853	62	127
378.6121995464853	378.7282993197279	63	127
378.7282993197279	378.79795918367347	65	127
378.9604761904762	379.03015873015875	55	127
378.9604761904762	379.07659863945577	81	127
379.07659863945577	379.18108843537414	83	127
379.18108843537414	379.21591836734694	84	127
379.18108843537414	379.25074829931975	60	127
379.2971882086168	379.4132879818594	79	127
379.4132879818594	379.482947845805	43	127
379.4132879818594	379.482947845805	55	127
379.4132879818594	379.52938775510205	81	127
379.52938775510205	379.6454875283447	83	127
379.6454875283447	379.68031746031744	84	127
379.6454875283447	379.703537414966	48	127
379.6454875283447	379.703537414966	60	127
379.74997732426306	379.8660770975057	79	127
379.8660770975057	379.924126984127	43	127
379.8660770975057	379.924126984127	55	127
379.8660770975057	379.97056689342406	81	127
379.97056689342406	380.0866439909297	83	127
380.0866439909297	380.12149659863945	84	127
380.0866439909297	380.15632653061226	48	127
380.0866439909297	380.15632653061226	60	127
380.2027664399093	380.3188662131519	79	127
380.3188662131519	380.38850340136054	55	127
380.3188662131519	380.38850340136054	43	127
380.3188662131519	380.43496598639456	81	127
380.43496598639456	380.5510657596372	83	127
380.5510657596372	380.58589569161	84	127
380.5510657596372	380.632335600907	48	127
380.5510657596372	380.632335600907	60	127
380.6787755102041	380.7948752834467	79	127
380.7948752834467	380.8645351473923	43	127
380.7948752834467	380.8645351473923	55	127
380.7948752834467	380.96902494331067	81	127
380.96902494331067	381.13156462585033	83	127
381.13156462585033	381.85138321995464	84	127
381.13156462585033	381.9210430839002	39	127
381.13156462585033	381.9210430839002	51	127
382.0487528344671	382.1416326530612	60	127
382.176462585034	382.94272108843535	52	127
382.176462585034	382.22290249433104	60	127
382.176462585034	382.94272108843535	40	127
382.2461224489796	382.29256235827665	62	127
382.3157823129252	382.3622222222222	60	127
382.38544217687075	382.4318820861678	62	127
382.44349206349204	382.5015419501134	60	127
382.51315192743766	382.5595918367347	62	127
382.5828117913832	382.6292517006803	60	127
382.6524716553288	382.71052154195013	62	127
382.7337414965986	382.7801814058957	60	127
382.8034013605442	382.84984126984125	62	127
382.8614512471655	382.91950113378687	60	127
382.94272108843535	383.0356009070295	59	127
383.0820408163265	383.19814058956916	60	127
383.2445804988662	384.4404081632653	80	127
383.2445804988662	383.9992290249433	41	127
383.2445804988662	383.9992290249433	53	127
384.2662585034014	385.06734693877553	29	127
384.2662585034014	385.06734693877553	41	127
384.4404081632653	384.57972789115644	83	127
384.57972789115644	384.6958276643991	84	127
384.6958276643991	384.823537414966	83	127
384.823537414966	384.9512471655329	86	127
384.9512471655329	385.06734693877553	84	127
385.06734693877553	385.18344671201817	82	127
385.18344671201817	385.3227664399093	80	127
385.3227664399093	385.88004535147394	80	127
385.3227664399093	385.485306122449	31	127
385.3227664399093	385.485306122449	43	127
385.55496598639456	385.6710657596372	48	127
385.7175056689342	385.84521541950113	51	127
385.88004535147394	385.9845351473923	55	127
385.88004535147394	386.51859410430836	79	127
386.01936507936506	386.11224489795916	51	127
386.1354648526077	386.2631746031746	48	127
386.2980045351474	386.4024943310658	43	127
386.43732426303853	386.55342403628117	48	127
386.51859410430836	386.62308390022673	84	127
386.588253968254	386.64630385487527	51	127
386.6695238095238	386.78562358276645	55	127
386.6695238095238	386.92494331065757	84	127
386.83206349206347	386.97138321995465	51	127
386.92494331065757	387.1107029478458	75	127
387.00621315192745	387.1339229024943	48	127
387.1803628117914	387.4357823129252	75	127
387.1803628117914	387.296462585034	43	127
387.34290249433104	387.4938321995465	48	127
387.4357823129252	387.6447619047619	79	127
387.5286621315193	387.6679818594104	51	127
387.72603174603177	387.8421315192744	55	127
387.72603174603177	387.9814512471655	79	127
387.9001814058957	388.0278911564626	51	127
387.9814512471655	388.15560090702945	72	127
388.0511111111111	388.178820861678	48	127
388.22526077097507	388.2717006802721	72	127
388.22526077097507	388.32975056689344	43	127
388.2717006802721	388.32975056689344	74	127
388.32975056689344	388.399410430839	72	127
388.37619047619046	388.50390022675737	48	127
388.399410430839	388.45746031746035	74	127
388.45746031746035	388.5271201814059	72	127
388.5271201814059	388.5851700680272	74	127
388.5387301587302	388.6548299319728	51	127
388.5851700680272	388.6316099773243	72	127
388.6316099773243	388.68965986394556	74	127
388.68965986394556	389.0379591836735	75	127
388.68965986394556	388.79414965986393	43	127
388.840589569161	388.95668934240365	47	127
388.9915192743764	389.10761904761904	53	127
389.0379591836735	389.1540589569161	74	127
389.1540589569161	389.23532879818595	48	127
389.1540589569161	389.23532879818595	72	127
389.2585487528345	389.32820861678005	55	127
389.2585487528345	389.32820861678005	67	127
389.3514285714286	389.4326984126984	54	127
389.3514285714286	389.4326984126984	66	127
389.4675283446712	389.54879818594105	67	127
389.4675283446712	389.54879818594105	55	127
389.5720181405896	389.6648979591837	65	127
389.5720181405896	389.6648979591837	53	127
389.7113378684807	389.8158276643991	63	127
389.7113378684807	389.8158276643991	51	127
389.8390476190476	389.9319274376417	50	127
389.8390476190476	389.9319274376417	62	127
389.9667573696145	390.0596371882086	60	127
389.9667573696145	390.0596371882086	48	127
390.0944671201814	390.19895691609975	47	127
390.0944671201814	390.19895691609975	59	127
390.23378684807255	390.32666666666665	48	127
390.23378684807255	390.32666666666665	60	127
390.3498866213152	390.45437641723356	50	127
390.3498866213152	390.45437641723356	62	127
390.4775963718821	390.5704761904762	48	127
390.4775963718821	390.5704761904762	60	127
390.605306122449	390.6633560090703	47	127
390.605306122449	390.6633560090703	59	127
390.6981859410431	390.7910657596372	44	127
390.6981859410431	390.7910657596372	56	127
390.82589569160996	390.91877551020406	55	127
390.82589569160996	390.91877551020406	43	127
390.9419954648526	391.0348752834467	53	127
390.9419954648526	391.0348752834467	41	127
391.0697052154195	391.1741950113379	39	127
391.0697052154195	391.1741950113379	51	127
391.2090249433107	391.31351473922905	43	127
391.2090249433107	391.31351473922905	55	127
391.3483446712018	391.4412244897959	48	127
391.3483446712018	391.4412244897959	60	127
391.46444444444444	391.5689342403628	51	127
391.46444444444444	391.5689342403628	63	127
391.6037641723356	391.71986394557825	53	127
391.6037641723356	391.71986394557825	65	127
391.71986394557825	391.8011337868481	50	127
391.71986394557825	391.8011337868481	62	127
391.83596371882084	391.87079365079364	47	127
391.83596371882084	391.87079365079364	59	127
391.9520634920635	391.9868934240363	41	127
391.9520634920635	391.9868934240363	53	127
392.05655328798184	392.14943310657594	51	127
392.05655328798184	392.14943310657594	39	127
392.18426303854875	392.3003628117914	55	127
392.18426303854875	392.3003628117914	43	127
392.3235827664399	392.416462585034	60	127
392.3235827664399	392.416462585034	48	127
392.43968253968256	392.53256235827666	63	127
392.43968253968256	392.53256235827666	51	127
392.55578231292515	392.68349206349205	65	127
392.55578231292515	392.68349206349205	53	127
392.68349206349205	392.7647619047619	62	127
392.68349206349205	392.7647619047619	50	127
392.7995918367347	392.8344217687075	59	127
392.7995918367347	392.8344217687075	47	127
392.9273015873016	392.96213151927435	53	127
392.9273015873016	393.0201814058957	41	127
393.04340136054424	393.13628117913834	39	127
393.04340136054424	393.13628117913834	51	127
393.1943310657596	393.2872108843537	67	127
393.1943310657596	393.2872108843537	55	127
393.32204081632653	393.41492063492063	66	127
393.32204081632653	393.41492063492063	54	127
393.4265306122449	393.49619047619046	67	127
393.4265306122449	393.49619047619046	55	127
393.519410430839	393.6122902494331	53	127
393.519410430839	393.6122902494331	65	127
393.67034013605445	393.76321995464855	51	127
393.67034013605445	393.76321995464855	63	127
393.82126984126984	393.91414965986394	50	127
393.82126984126984	393.91414965986394	62	127
393.94897959183675	394.04185941043085	60	127
393.94897959183675	394.04185941043085	48	127
394.0650793650794	394.16956916099775	47	127
394.0650793650794	394.16956916099775	59	127
394.19278911564624	394.2856689342404	48	127
394.19278911564624	394.2856689342404	60	127
394.32049886621314	394.41337868480724	62	127
394.32049886621314	394.41337868480724	50	127
394.44820861678005	394.5294784580499	60	127
394.44820861678005	394.5294784580499	48	127
394.5526984126984	394.6455782312925	59	127
394.5526984126984	394.6455782312925	47	127
394.66879818594106	394.7500680272109	56	127
394.66879818594106	394.7500680272109	44	127
394.7848979591837	394.85455782312926	43	127
394.7848979591837	394.85455782312926	55	127
394.8661678004535	394.9590476190476	53	127
394.8661678004535	394.9590476190476	41	127
394.99387755102043	395.0983673469388	51	127
394.99387755102043	395.063537414966	39	127
395.1215873015873	395.22607709750565	60	127
395.27251700680273	395.36539682539683	63	127
395.27251700680273	395.40022675736964	48	127
395.40022675736964	395.5279365079365	50	127
395.40022675736964	395.49310657596374	65	127
395.5279365079365	395.5975963718821	51	127
395.5279365079365	395.63242630385486	66	127
395.63242630385486	395.71369614512474	63	127
395.7485260770975	395.8414058956916	44	127
395.7485260770975	395.7949659863946	60	127
395.89945578231294	395.9342857142857	54	127
396.0271655328798	396.0968253968254	50	127
396.0271655328798	396.12004535147395	53	127
396.14326530612243	396.21292517006805	65	127
396.23614512471653	396.36385487528344	52	127
396.23614512471653	396.3290249433107	67	127
396.36385487528344	396.4799546485261	53	127
396.36385487528344	396.44512471655327	68	127
396.4799546485261	396.54961451247163	70	127
396.4799546485261	396.53800453514737	55	127
396.54961451247163	396.64249433106573	67	127
396.6657142857143	396.71215419501135	64	127
396.6657142857143	396.7469841269841	48	127
396.874693877551	396.94435374149657	53	127
396.874693877551	396.9675736961451	56	127
397.0024036281179	397.095283446712	65	127
397.1301133786848	397.24621315192746	59	127
397.1301133786848	397.21138321995466	74	127
397.24621315192746	397.36231292517004	60	127
397.24621315192746	397.33909297052156	75	127
397.36231292517004	397.39714285714285	62	127
397.36231292517004	397.44358276643993	77	127
397.44358276643993	397.5016326530612	74	127
397.52485260770976	397.5596825396825	71	127
397.52485260770976	397.5945124716553	55	127
397.6409523809524	397.67578231292515	65	127
397.76866213151925	397.8267120181406	60	127
397.76866213151925	397.83832199546487	63	127
397.8731519274376	397.9660317460318	67	127
397.98925170068026	398.1053514739229	59	127
397.98925170068026	398.0937414965986	74	127
398.1053514739229	398.24467120181407	60	127
398.1053514739229	398.198231292517	75	127
398.24467120181407	398.3839909297052	77	127
398.24467120181407	398.3259410430839	62	127
398.3839909297052	398.47687074829935	74	127
398.5117006802721	398.5465306122449	71	127
398.5117006802721	398.58136054421766	55	127
398.62780045351474	398.6742403628118	65	127
398.75551020408165	398.7903401360544	63	127
398.75551020408165	398.8367800453515	60	127
398.88321995464855	399.0109297052154	75	127
399.0109297052154	399.1154195011338	77	127
399.0109297052154	399.080589569161	43	127
399.0109297052154	399.080589569161	55	127
399.1154195011338	399.2431292517007	74	127
399.2431292517007	399.3243990929705	60	127
399.2431292517007	399.2779591836735	75	127
399.2431292517007	399.3243990929705	48	127
399.3708390022676	399.4637188208617	75	127
399.4637188208617	399.56820861678005	77	127
399.4637188208617	399.521768707483	43	127
399.4637188208617	399.521768707483	55	127
399.56820861678005	399.69591836734696	74	127
399.69591836734696	399.7771882086168	48	127
399.69591836734696	399.7307482993197	75	127
399.69591836734696	399.7771882086168	60	127
399.8236281179138	399.962947845805	75	127
399.962947845805	400.03260770975055	43	127
399.962947845805	400.03260770975055	55	127
399.962947845805	400.0906575963719	77	127
400.0906575963719	400.20675736961454	74	127
400.20675736961454	400.25319727891156	75	127
400.20675736961454	400.28802721088437	60	127
400.20675736961454	400.28802721088437	48	127
400.3344671201814	400.4621768707483	75	127
400.4621768707483	400.5898866213152	77	127
400.4621768707483	400.53183673469385	43	127
400.4621768707483	400.53183673469385	55	127
400.5898866213152	400.70598639455784	74	127
400.70598639455784	401.44902494331063	39	127
400.70598639455784	401.44902494331063	51	127
400.70598639455784	401.11233560090704	79	127
401.66961451247164	402.435873015873	40	127
401.66961451247164	402.435873015873	52	127
402.7261224489796	404.10770975056687	53	127
402.7261224489796	404.10770975056687	41	127
402.83061224489796	402.92349206349206	56	127
402.96993197278914	403.05120181405897	58	127
403.097641723356	403.1905215419501	60	127
403.20213151927436	403.2834013605442	61	127
403.318231292517	403.37628117913835	63	127
403.4111111111111	403.4923809523809	65	127
403.51560090702947	403.5968707482993	67	127
403.6433106575964	403.7361904761905	68	127
403.759410430839	403.8522902494331	70	127
403.87551020408165	403.96839002267575	72	127
404.0032199546485	404.09609977324266	73	127
404.10770975056687	404.21219954648524	75	127
404.2354195011338	404.3282993197279	77	127
404.37473922902495	404.4792290249433	79	127
404.50244897959186	404.59532879818596	80	127
404.61854875283444	404.9552380952381	68	127
404.61854875283444	405.32675736961454	49	127
404.61854875283444	405.32675736961454	37	127
405.5821768707483	406.3484353741497	36	127
405.5821768707483	406.3484353741497	48	127
406.627074829932	408.00866213151926	35	127
406.627074829932	408.00866213151926	47	127
406.627074829932	408.00866213151926	43	127
406.7547845804989	406.847664399093	67	127
406.8708843537415	406.9637641723356	69	127
406.9985941043084	407.05664399092973	71	127
407.0914739229025	407.1843537414966	72	127
407.2075736961451	407.3004535147392	74	127
407.335283446712	407.41655328798186	75	127
407.45138321995466	407.5326530612245	77	127
407.55587301587303	407.63714285714286	79	127
407.67197278911567	407.73002267573696	81	127
407.76485260770977	407.85773242630387	83	127
407.8809523809524	407.9738321995465	84	127
408.00866213151926	408.10154195011336	86	127
408.1247619047619	408.22925170068027	87	127
408.2524716553288	408.3453514739229	89	127
408.3801814058957	408.438231292517	86	127
408.46145124716554	408.6239909297052	36	127
408.46145124716554	408.6239909297052	48	127
408.46145124716554	408.6239909297052	87	127
409.0071201814059	409.1348299319728	79	127
409.0071201814059	409.1348299319728	72	127
409.0071201814059	409.1348299319728	75	127
409.0071201814059	409.1348299319728	84	127
409.541179138322	409.71532879818596	29	127
409.541179138322	409.71532879818596	41	127
410.08684807256236	410.2958276643991	68	127
410.08684807256236	410.2958276643991	72	127
410.08684807256236	410.2958276643991	77	127
410.08684807256236	410.2958276643991	80	127
410.7137868480726	410.86471655328796	31	127
410.7137868480726	410.86471655328796	43	127
411.27106575963717	411.50326530612244	67	127
411.27106575963717	411.50326530612244	72	127
411.27106575963717	411.50326530612244	75	127
411.27106575963717	411.50326530612244	79	127
412.57138321995467	412.76875283446714	31	127
412.57138321995467	412.76875283446714	43	127
413.17510204081634	413.3724716553288	59	127
413.17510204081634	413.3724716553288	62	127
413.17510204081634	413.3724716553288	65	127
413.17510204081634	413.3724716553288	67	127
413.17510204081634	413.3724716553288	71	127
414.881768707483	415.0094784580499	52	127
414.881768707483	416.42589569161	43	127
415.03269841269844	415.12557823129254	55	127
415.1604081632653	415.26489795918366	60	127
415.322947845805	415.4158276643991	55	127
415.45065759637185	415.5551473922902	52	127
415.58997732426303	415.67124716553286	55	127
415.70607709750567	415.77573696145123	60	127
415.81056689342404	415.90344671201814	55	127
415.93827664399095	416.0195464852608	52	127
416.0427664399093	416.1472562358277	55	127
416.18208616780043	416.27496598639453	60	127
416.30979591836734	416.3910657596372	55	127
416.42589569161	416.53038548752835	52	127
416.42589569161	416.56521541950116	40	127
416.56521541950116	416.7625850340136	41	127
416.56521541950116	416.7393650793651	55	127
416.7625850340136	416.8902947845805	43	127
416.7625850340136	416.8554648526077	60	127
416.8902947845805	417.06444444444446	40	127
416.8902947845805	416.99478458049884	55	127
417.06444444444446	417.16893424036283	52	127
417.06444444444446	419.0497505668934	36	127
417.2037641723356	417.2966439909297	55	127
417.3198639455782	417.4243537414966	60	127
417.4591836734694	417.5520634920635	55	127
417.5868934240363	417.6797732426304	52	127
417.71460317460316	417.79587301587304	55	127
417.8190929705215	417.93519274376416	60	127
417.9584126984127	418.0512925170068	55	127
418.0861224489796	418.16739229024944	52	127
418.20222222222225	418.2834920634921	55	127
418.3183219954648	418.4228117913832	60	127
418.44603174603174	418.53891156462583	55	127
418.57374149659864	418.66662131519274	52	127
418.70145124716555	418.79433106575965	55	127
418.8175510204082	418.898820861678	60	127
418.92204081632656	419.01492063492066	55	127
419.0497505668934	420.52421768707484	44	127
419.0497505668934	419.1426303854875	50	127
419.1774603174603	419.2703401360544	53	127
419.1774603174603	419.2703401360544	56	127
419.3051700680272	419.3980498866213	60	127
419.42126984126986	419.52575963718823	53	127
419.42126984126986	419.52575963718823	56	127
419.560589569161	419.6534693877551	50	127
419.6882993197279	419.79278911564626	53	127
419.6882993197279	419.79278911564626	56	127
419.82761904761907	419.92049886621317	59	127
419.9437188208617	420.0482086167801	53	127
419.9437188208617	420.0482086167801	56	127
420.07142857142856	420.16430839002265	50	127
420.19913832199546	420.29201814058956	56	127
420.19913832199546	420.29201814058956	53	127
420.32684807256237	420.4081179138322	59	127
420.4081179138322	420.5009977324263	56	127
420.4081179138322	420.5009977324263	53	127
420.52421768707484	420.65192743764175	41	127
420.52421768707484	420.61709750566894	50	127
420.65192743764175	420.7564172335601	53	127
420.65192743764175	420.7564172335601	56	127
420.65192743764175	420.79124716553287	43	127
420.79124716553287	420.9189569160998	44	127
420.79124716553287	420.88412698412696	59	127
420.9189569160998	421.0118367346939	56	127
420.9189569160998	421.0118367346939	53	127
420.9189569160998	421.0350566893424	41	127
421.0350566893424	423.1248526077097	36	127
421.0350566893424	421.1279365079365	50	127
421.1627664399093	421.2556462585034	56	127
421.1627664399093	421.2556462585034	53	127
421.29047619047617	421.38335600907027	59	127
421.42979591836735	421.52267573696145	53	127
421.42979591836735	421.52267573696145	56	127
421.54589569161	421.65038548752835	50	127
421.6968253968254	421.80131519274374	56	127
421.6968253968254	421.80131519274374	53	127
421.8477551020408	421.9522448979592	59	127
421.987074829932	422.09156462585037	53	127
421.987074829932	422.09156462585037	56	127
422.1263945578231	422.2308843537415	50	127
422.25410430839	422.3469841269841	56	127
422.25410430839	422.3469841269841	53	127
422.38181405895693	422.46308390022676	59	127
422.4979138321996	422.59079365079367	53	127
422.4979138321996	422.59079365079367	56	127
422.6256235827664	422.7185034013605	50	127
422.74172335600906	422.83460317460316	56	127
422.74172335600906	422.83460317460316	53	127
422.86943310657597	422.96231292517007	59	127
422.9971428571429	423.090022675737	53	127
422.9971428571429	423.090022675737	56	127
423.1248526077097	423.2177324263039	52	127
423.1248526077097	424.59931972789116	43	127
423.24095238095236	423.33383219954646	55	127
423.3686621315193	423.47315192743764	59	127
423.50798185941045	423.6240816326531	55	127
423.65891156462584	423.75179138321994	52	127
423.7750113378685	423.87950113378685	55	127
423.9027210884354	423.9956009070295	60	127
424.018820861678	424.1117006802721	55	127
424.1465306122449	424.23941043083903	52	127
424.2742403628118	424.3671201814059	55	127
424.3903401360544	424.4483900226757	60	127
424.47160997732425	424.56448979591835	55	127
424.59931972789116	424.680589569161	52	127
424.59931972789116	424.7154195011338	40	127
424.7154195011338	424.8082993197279	55	127
424.7154195011338	424.83151927437643	41	127
424.83151927437643	424.92439909297053	60	127
424.83151927437643	424.9592290249433	43	127
424.9592290249433	425.0869387755102	40	127
424.9592290249433	425.05210884353744	55	127
425.0869387755102	427.01419501133785	36	127
425.0869387755102	425.1798185941043	52	127
425.2146485260771	425.3075283446712	55	127
425.33074829931974	425.4352380952381	60	127
425.47006802721086	425.562947845805	55	127
425.59777777777776	425.69065759637186	52	127
425.7254875283447	425.81836734693877	55	127
425.8531972789116	425.9460770975057	60	127
425.9692970521542	426.0621768707483	55	127
426.09700680272107	426.18988662131517	52	127
426.224716553288	426.3059863945578	55	127
426.3408163265306	426.4104761904762	60	127
426.4336961451247	426.5265759637188	55	127
426.5614058956916	426.6542857142857	52	127
426.68911564625853	426.77038548752836	55	127
426.7936054421769	426.8748752834467	60	127
426.89809523809527	426.9793650793651	55	127
427.01419501133785	428.430612244898	44	127
427.01419501133785	427.10707482993195	50	127
427.14190476190475	427.2231746031746	56	127
427.14190476190475	427.2231746031746	53	127
427.2580045351474	427.36249433106576	60	127
427.3857142857143	427.49020408163267	53	127
427.3857142857143	427.49020408163267	56	127
427.51342403628115	427.6063038548753	50	127
427.64113378684806	427.7456235827664	56	127
427.64113378684806	427.7456235827664	53	127
427.78045351473924	427.87333333333333	59	127
427.90816326530614	428.00104308390024	53	127
427.90816326530614	428.00104308390024	56	127
428.0126530612245	428.09392290249434	50	127
428.1287528344671	428.1984126984127	56	127
428.1287528344671	428.1984126984127	53	127
428.22163265306125	428.27968253968254	59	127
428.31451247165535	428.40739229024945	56	127
428.31451247165535	428.40739229024945	53	127
428.430612244898	428.55832199546484	41	127
428.430612244898	428.5234920634921	50	127
428.55832199546484	428.65120181405894	53	127
428.55832199546484	428.65120181405894	56	127
428.55832199546484	428.68603174603174	43	127
428.68603174603174	428.81374149659865	44	127
428.68603174603174	428.77891156462584	59	127
428.81374149659865	428.918231292517	41	127
428.81374149659865	428.8950113378685	53	127
428.81374149659865	428.8950113378685	56	127
428.918231292517	429.03433106575966	50	127
428.918231292517	430.85709750566895	36	127
429.05755102040814	429.1620408163265	53	127
429.05755102040814	429.1620408163265	56	127
429.1968707482993	429.2897505668934	59	127
429.3245804988662	429.4174603174603	56	127
429.3245804988662	429.4174603174603	53	127
429.45229024943313	429.54517006802723	50	127
429.5683900226757	429.6612698412698	56	127
429.5683900226757	429.6612698412698	53	127
429.6960997732426	429.7889795918367	59	127
429.82380952380953	429.90507936507936	53	127
429.82380952380953	429.90507936507936	56	127
429.9282993197279	430.021179138322	50	127
430.04439909297054	430.13727891156464	56	127
430.04439909297054	430.13727891156464	53	127
430.1721088435374	430.241768707483	59	127
430.26498866213154	430.35786848072564	56	127
430.26498866213154	430.35786848072564	53	127
430.3926984126984	430.4855782312925	50	127
430.5204081632653	430.6132879818594	53	127
430.5204081632653	430.6132879818594	56	127
430.6481179138322	430.72938775510204	59	127
430.76421768707485	430.8338775510204	53	127
430.76421768707485	430.8338775510204	56	127
430.85709750566895	430.94997732426305	36	127
430.85709750566895	430.94997732426305	52	127
430.9615873015873	431.0660770975057	55	127
430.9615873015873	431.0660770975057	43	127
431.0892970521542	431.1821768707483	36	127
431.0892970521542	431.1821768707483	60	127
431.22861678004534	431.32149659863944	55	127
431.22861678004534	431.32149659863944	43	127
431.35632653061225	431.44920634920635	36	127
431.35632653061225	431.44920634920635	64	127
431.4956462585034	431.57691609977326	43	127
431.4956462585034	431.57691609977326	60	127
431.6001360544218	431.6930158730159	67	127
431.6001360544218	431.6930158730159	36	127
431.72784580498865	431.82072562358275	64	127
431.72784580498865	431.82072562358275	43	127
431.85555555555555	431.9368253968254	72	127
431.85555555555555	431.9368253968254	36	127
431.9600453514739	432.04131519274375	43	127
431.9600453514739	432.04131519274375	67	127
432.0645351473923	432.1574149659864	36	127
432.0645351473923	432.1574149659864	76	127
432.1922448979592	432.27351473922903	43	127
432.1922448979592	432.27351473922903	72	127
432.30834467120184	432.38961451247167	36	127
432.30834467120184	432.38961451247167	79	127
432.4244444444444	432.5173242630386	43	127
432.4244444444444	432.5173242630386	76	127
432.54054421768706	432.63342403628116	36	127
432.54054421768706	432.63342403628116	84	127
432.6566439909297	432.7495238095238	43	127
432.6566439909297	432.7495238095238	79	127
432.7843537414966	432.8772335600907	88	127
432.7843537414966	432.8772335600907	36	127
432.9120634920635	433.0049433106576	43	127
432.9120634920635	433.0049433106576	84	127
433.02816326530615	433.1326530612245	79	127
433.02816326530615	433.1326530612245	36	127
433.155873015873	433.2487528344671	43	127
433.155873015873	433.2487528344671	84	127
433.27197278911564	433.35324263038547	76	127
433.27197278911564	433.35324263038547	36	127
433.3880725623583	433.49256235827664	79	127
433.3880725623583	433.49256235827664	43	127
433.52739229024945	433.62027210884355	36	127
433.52739229024945	433.62027210884355	72	127
433.6318820861678	433.7015419501134	76	127
433.6318820861678	433.7015419501134	43	127
433.7363718820862	433.8292517006803	36	127
433.7363718820862	433.8292517006803	67	127
433.86408163265304	433.9453514739229	43	127
433.86408163265304	433.9453514739229	72	127
433.9801814058957	434.0614512471655	36	127
433.9801814058957	434.0614512471655	64	127
434.08467120181405	434.17755102040815	43	127
434.08467120181405	434.17755102040815	67	127
434.21238095238095	434.2936507936508	60	127
434.21238095238095	434.2936507936508	36	127
434.3284807256236	434.4097505668934	64	127
434.3284807256236	434.4097505668934	43	127
434.44458049886623	434.53746031746033	55	127
434.44458049886623	434.53746031746033	36	127
434.56068027210887	434.66517006802724	60	127
434.56068027210887	434.66517006802724	43	127
434.6883900226757	434.83931972789117	52	127
434.6883900226757	434.83931972789117	55	127
434.6883900226757	434.83931972789117	60	127
434.6883900226757	434.83931972789117	34	127
434.6883900226757	434.83931972789117	46	127
435.2340589569161	435.39659863945576	67	127
435.2340589569161	435.39659863945576	46	127
435.2340589569161	435.39659863945576	52	127
435.2340589569161	435.39659863945576	55	127
435.2340589569161	435.39659863945576	60	127
435.2340589569161	435.39659863945576	64	127
435.2340589569161	435.39659863945576	72	127
437.3586848072562	437.48639455782313	52	127
437.3586848072562	437.48639455782313	64	127
437.48639455782313	437.5908843537415	53	127
437.48639455782313	437.5908843537415	65	127
437.5908843537415	437.7185941043084	55	127
437.5908843537415	437.7185941043084	67	127
437.7185941043084	437.8695238095238	52	127
437.7185941043084	437.8695238095238	64	127
437.8695238095238	438.02045351473924	48	127
437.8695238095238	438.02045351473924	60	127
438.9028117913832	439.1814512471655	48	127
438.9028117913832	439.1814512471655	32	127
438.9028117913832	439.1814512471655	44	127
438.9028117913832	439.1814512471655	53	127
438.9028117913832	439.1814512471655	56	127
438.9028117913832	439.1814512471655	60	127
439.6806802721088	440.1799092970522	48	127
439.6806802721088	440.1799092970522	53	127
439.6806802721088	440.1799092970522	56	127
439.6806802721088	440.1799092970522	60	127
439.6806802721088	440.1799092970522	65	127
439.6806802721088	440.1799092970522	68	127
439.6806802721088	440.1799092970522	72	127
439.6806802721088	440.1799092970522	44	127
441.4802267573696	441.631156462585	56	127
441.4802267573696	441.631156462585	68	127
441.631156462585	441.7704761904762	58	127
441.631156462585	441.7704761904762	70	127
441.7704761904762	441.90979591836737	60	127
441.7704761904762	441.90979591836737	72	127
441.90979591836737	442.06072562358275	56	127
441.90979591836737	442.06072562358275	68	127
442.06072562358275	442.2116553287982	53	127
442.06072562358275	442.2116553287982	65	127
442.5483446712018	442.65283446712016	56	127
442.5483446712018	442.65283446712016	68	127
442.65283446712016	442.7689342403628	58	127
442.65283446712016	442.7689342403628	70	127
442.7689342403628	442.8618140589569	60	127
442.7689342403628	442.8618140589569	72	127
442.8618140589569	442.9895238095238	56	127
442.8618140589569	442.9895238095238	68	127
442.9895238095238	443.16367346938773	61	127
442.9895238095238	443.16367346938773	73	127
443.51197278911565	443.63968253968255	61	127
443.51197278911565	443.63968253968255	73	127
443.8718820861678	443.9067120181406	61	127
443.8718820861678	443.9067120181406	73	127
443.9879818594104	444.1505215419501	56	127
443.9879818594104	444.1505215419501	68	127
444.4872108843537	444.60331065759635	56	127
444.4872108843537	444.60331065759635	68	127
444.8122902494331	444.8471201814059	68	127
444.8122902494331	444.8471201814059	56	127
444.94	446.3796371882086	53	127
444.94	446.3796371882086	65	127
446.3796371882086	446.4260770975057	49	127
446.3796371882086	446.4260770975057	61	127
446.530566893424	446.64666666666665	63	127
446.530566893424	446.64666666666665	51	127
446.925306122449	446.96013605442175	65	127
446.925306122449	446.96013605442175	53	127
447.0414058956916	447.19233560090703	54	127
447.0414058956916	447.19233560090703	66	127
447.5174149659864	447.6219047619048	66	127
447.5174149659864	447.6219047619048	54	127
447.86571428571426	447.90054421768707	53	127
447.86571428571426	447.90054421768707	65	127
447.97020408163263	448.1095238095238	63	127
447.97020408163263	448.1095238095238	51	127
448.4346031746032	448.53909297052155	51	127
448.4346031746032	448.53909297052155	63	127
448.8061224489796	448.8409523809524	49	127
448.8061224489796	448.8409523809524	61	127
448.9222222222222	450.41990929705213	48	127
448.9222222222222	450.41990929705213	60	127
450.41990929705213	450.45473922902494	48	127
450.41990929705213	450.45473922902494	60	127
450.53600907029477	450.64049886621314	61	127
450.53600907029477	450.64049886621314	49	127
450.8843083900227	450.9307482993197	63	127
450.8843083900227	450.9307482993197	51	127
451.02362811791386	451.1861678004535	53	127
451.02362811791386	451.1861678004535	65	127
451.52285714285716	451.62734693877553	65	127
451.52285714285716	451.62734693877553	53	127
451.89437641723356	451.92920634920637	63	127
451.89437641723356	451.92920634920637	51	127
452.02208616780047	452.17301587301586	49	127
452.02208616780047	452.17301587301586	61	127
452.49809523809523	452.6025850340136	61	127
452.49809523809523	452.6025850340136	49	127
452.927664399093	452.9624943310658	48	127
452.927664399093	452.9624943310658	60	127
453.0553741496599	453.1714739229025	46	127
453.0553741496599	453.1714739229025	58	127
453.4501133786848	453.5197732426304	61	127
453.4501133786848	453.5197732426304	49	127
453.6010430839002	453.7287528344671	48	127
453.6010430839002	453.7287528344671	60	127
454.0190022675737	454.0538321995465	46	127
454.0190022675737	454.0538321995465	58	127
454.1351020408163	454.2628117913832	44	127
454.1351020408163	454.2628117913832	56	127
454.5414512471655	454.57628117913833	48	127
454.5414512471655	454.57628117913833	60	127
454.65755102040816	454.76204081632653	46	127
454.65755102040816	454.76204081632653	58	127
455.0058503401361	455.0522902494331	44	127
455.0058503401361	455.0522902494331	56	127
455.13356009070293	455.2380498866213	43	127
455.13356009070293	455.2380498866213	55	127
455.48185941043084	455.52829931972786	58	127
455.48185941043084	455.52829931972786	46	127
455.66761904761904	455.7721088435374	44	127
455.66761904761904	455.7721088435374	56	127
456.0275283446712	456.062358276644	43	127
456.0275283446712	456.062358276644	55	127
456.1436281179138	456.6892970521542	41	127
456.1436281179138	456.6892970521542	53	127
456.6892970521542	457.1885260770975	55	127
456.6892970521542	457.1885260770975	43	127
457.1885260770975	458.15215419501135	44	127
457.1885260770975	458.15215419501135	56	127
458.15215419501135	459.1738321995465	44	127
458.15215419501135	459.1738321995465	48	127
458.15215419501135	459.1738321995465	60	127
458.15215419501135	459.1738321995465	32	127
459.1738321995465	459.2667120181406	43	127
459.1738321995465	459.69628117913834	50	127
459.1738321995465	459.69628117913834	59	127
459.1738321995465	459.2667120181406	31	127
459.3015419501134	459.4060317460318	44	127
459.4408616780045	459.5337414965986	43	127
459.56857142857143	459.66145124716553	47	127
459.69628117913834	459.8239909297052	43	127
459.84721088435373	459.96331065759637	44	127
459.9981405895692	460.079410430839	43	127
460.1142403628118	460.2187301587302	47	127
460.25356009070293	460.3580498866213	43	127
460.38126984126984	460.4857596371882	44	127
460.4973696145125	460.60185941043085	43	127
460.63668934240366	460.7179591836735	47	127
460.75278911564624	460.84566893424034	43	127
460.75278911564624	461.69319727891155	86	127
460.88049886621314	460.97337868480724	44	127
460.9965986394558	461.0778684807256	43	127
461.1126984126984	461.19396825396825	47	127
461.2171882086168	461.3100680272109	43	127
461.3448979591837	461.4377777777778	44	127
461.4609977324263	461.55387755102043	43	127
461.5887074829932	461.6583673469388	48	127
461.69319727891155	461.7744671201814	43	127
461.69319727891155	462.6219954648526	84	127
461.8092970521542	461.9021768707483	44	127
461.92539682539683	462.01827664399093	43	127
462.04149659863947	462.13437641723357	48	127
462.1692063492064	462.23886621315194	43	127
462.2620861678005	462.3549659863946	44	127
462.3897959183673	462.4710657596372	43	127
462.4942857142857	462.5871655328798	48	127
462.6219954648526	462.7148752834467	43	127
462.6219954648526	463.5740136054422	84	127
462.7497052154195	462.8425850340136	44	127
462.86580498866215	462.947074829932	43	127
462.9702947845805	463.05156462585035	48	127
463.08639455782316	463.17927437641725	43	127
463.21410430839	463.3069841269841	44	127
463.3418140589569	463.434693877551	43	127
463.45791383219955	463.5391836734694	50	127
463.5740136054422	463.6668934240363	43	127
463.5740136054422	464.5724716553288	83	127
463.7017233560091	463.7946031746032	44	127
463.82943310657595	463.92231292517005	43	127
463.9455328798186	464.05002267573695	50	127
464.0732426303855	464.1545124716553	43	127
464.18934240362813	464.28222222222223	44	127
464.31705215419504	464.40993197278914	43	127
464.4447619047619	464.537641723356	52	127
464.5724716553288	464.6653514739229	43	127
464.5724716553288	465.53609977324265	82	127
464.7001814058957	464.7930612244898	44	127
464.8278911564626	464.9207709750567	43	127
464.95560090702946	465.04848072562356	52	127
465.0717006802721	465.1645804988662	43	127
465.199410430839	465.28068027210884	53	127
465.31551020408165	465.3967800453515	43	127
465.42	465.5128798185941	53	127
465.53609977324265	465.62897959183675	43	127
465.53609977324265	466.0121088435374	81	127
465.640589569161	465.7334693877551	53	127
465.7682993197279	465.861179138322	43	127
465.8960090702948	465.9772789115646	53	127
466.0121088435374	466.1049886621315	43	127
466.0121088435374	466.5113378684807	83	127
466.12820861678006	466.22108843537416	53	127
466.25591836734696	466.34879818594106	43	127
466.3836281179138	466.4765079365079	53	127
466.5113378684807	466.6158276643991	43	127
466.5113378684807	467.3008163265306	84	127
466.63904761904763	466.76675736961454	54	127
466.8015873015873	466.8944671201814	43	127
466.94090702947847	467.03378684807257	54	127
467.0686167800454	467.1498866213152	43	127
467.17310657596374	467.26598639455784	55	127
467.3008163265306	467.76521541950115	72	127
467.3008163265306	467.3936961451247	60	127
467.3008163265306	467.76521541950115	67	127
467.3008163265306	467.76521541950115	75	127
467.40530612244896	467.4749659863946	55	127
467.50979591836733	467.60267573696143	51	127
467.62589569160997	467.73038548752834	55	127
467.76521541950115	468.2528344671202	72	127
467.76521541950115	467.85809523809525	48	127
467.76521541950115	468.2528344671202	79	127
467.76521541950115	468.2528344671202	75	127
467.89292517006805	467.98580498866215	51	127
468.0206349206349	468.10190476190473	43	127
468.13673469387754	468.22961451247164	48	127
468.2528344671202	468.33410430839	39	127
468.2528344671202	468.72884353741495	75	127
468.2528344671202	468.72884353741495	79	127
468.2528344671202	468.72884353741495	84	127
468.3689342403628	468.4618140589569	43	127
468.4966439909297	468.5663038548753	36	127
468.6011337868481	468.6940136054422	43	127
468.72884353741495	468.82172335600904	39	127
468.72884353741495	468.98426303854876	79	127
468.72884353741495	468.98426303854876	84	127
468.72884353741495	468.98426303854876	87	127
468.85655328798185	468.94943310657595	36	127
468.98426303854876	469.08875283446713	32	127
468.98426303854876	469.26290249433106	74	127
468.98426303854876	469.26290249433106	77	127
468.98426303854876	469.26290249433106	83	127
469.1235827664399	469.22807256235825	43	127
469.26290249433106	469.49510204081633	83	127
469.26290249433106	469.3673922902494	31	127
469.26290249433106	469.49510204081633	74	127
469.26290249433106	469.49510204081633	77	127
469.3673922902494	469.4602721088435	43	127
469.49510204081633	469.77374149659863	77	127
469.49510204081633	469.58798185941043	32	127
469.49510204081633	469.77374149659863	74	127
469.49510204081633	469.77374149659863	83	127
469.62281179138324	469.71569160997734	43	127
469.77374149659863	469.86662131519273	31	127
469.77374149659863	470.0407709750567	74	127
469.77374149659863	470.0407709750567	77	127
469.77374149659863	470.0407709750567	83	127
469.88984126984127	469.99433106575964	43	127
470.0407709750567	470.2961904761905	77	127
470.0407709750567	470.1336507936508	32	127
470.0407709750567	470.2961904761905	74	127
470.0407709750567	470.2961904761905	83	127
470.16848072562357	470.26136054421767	43	127
470.2961904761905	470.3890702947846	31	127
470.2961904761905	470.5167800453515	74	127
470.2961904761905	470.5167800453515	77	127
470.2961904761905	470.5167800453515	83	127
470.40068027210884	470.4819501133787	43	127
470.5167800453515	470.77219954648524	74	127
470.5167800453515	470.6096598639456	32	127
470.5167800453515	470.77219954648524	77	127
470.5167800453515	470.77219954648524	83	127
470.6444897959184	470.7373696145125	43	127
470.77219954648524	471.0740589569161	77	127
470.77219954648524	470.86507936507934	31	127
470.77219954648524	471.0740589569161	83	127
470.77219954648524	471.0740589569161	74	127
470.8882993197279	471.0392290249433	43	127
471.0740589569161	471.3294784580499	72	127
471.0740589569161	471.16693877551023	36	127
471.0740589569161	471.3294784580499	75	127
471.0740589569161	471.3294784580499	84	127
471.201768707483	471.2946485260771	48	127
471.3294784580499	471.422358276644	35	127
471.3294784580499	471.58489795918365	59	127
471.4571882086168	471.56167800453517	47	127
471.58489795918365	471.85192743764173	60	127
471.58489795918365	471.689387755102	36	127
471.7242176870748	471.8170975056689	48	127
471.85192743764173	471.94480725623583	38	127
471.85192743764173	472.11895691609976	62	127
471.97963718820864	472.084126984127	50	127
472.11895691609976	472.35115646258504	63	127
472.11895691609976	472.21183673469386	39	127
472.24666666666667	472.31632653061223	51	127
472.35115646258504	472.5949659863946	65	127
472.35115646258504	472.44403628117914	41	127
472.47886621315195	472.57174603174604	53	127
472.5949659863946	472.6878458049887	43	127
472.5949659863946	472.81555555555553	67	127
472.72267573696143	472.7807256235828	55	127
472.81555555555553	472.90843537414963	39	127
472.81555555555553	473.0593650793651	63	127
472.94326530612244	473.03614512471654	51	127
473.0593650793651	473.3031746031746	60	127
473.0593650793651	473.1522448979592	36	127
473.1754648526077	473.2683446712018	48	127
473.3031746031746	473.3960544217687	35	127
473.3031746031746	473.5469841269841	59	127
473.4192743764172	473.5237641723356	47	127
473.5469841269841	473.6398639455782	36	127
473.5469841269841	473.84884353741495	60	127
473.70952380952383	473.80240362811793	48	127
473.84884353741495	473.94172335600905	38	127
473.84884353741495	474.16231292517006	62	127
473.9881632653061	474.11587301587304	50	127
474.16231292517006	474.38290249433106	63	127
474.16231292517006	474.2668027210884	39	127
474.29002267573696	474.3712925170068	51	127
474.38290249433106	474.47578231292516	40	127
474.38290249433106	474.6499319727891	64	127
474.51061224489797	474.61510204081634	52	127
474.6499319727891	474.74281179138325	41	127
474.6499319727891	474.89374149659864	65	127
474.76603174603173	474.8589115646258	53	127
474.89374149659864	475.0098412698413	43	127
474.89374149659864	475.218820861678	67	127
475.0446712018141	475.1839909297052	55	127
475.218820861678	475.3117006802721	44	127
475.218820861678	475.4510204081633	68	127
475.33492063492065	475.42780045351475	56	127
475.4510204081633	475.6948299319728	64	127
475.4510204081633	475.5322902494331	40	127
475.56712018140587	475.66	52	127
475.6948299319728	475.9038095238095	65	127
475.6948299319728	475.7528798185941	41	127
475.7877097505669	475.880589569161	53	127
475.9038095238095	475.9966893424036	43	127
475.9038095238095	476.14761904761906	67	127
476.0315192743764	476.11278911564625	55	127
476.14761904761906	476.39142857142855	68	127
476.14761904761906	476.24049886621316	44	127
476.27532879818597	476.36820861678007	56	127
476.39142857142855	476.48430839002265	46	127
476.39142857142855	476.6236281179138	70	127
476.51913832199546	476.588798185941	58	127
476.6236281179138	476.70489795918365	48	127
476.6236281179138	476.83260770975056	72	127
476.73972789115646	476.809387755102	60	127
476.83260770975056	477.0880272108844	68	127
476.83260770975056	476.93709750566893	44	127
476.96031746031747	477.05319727891157	56	127
477.0880272108844	477.1809070294785	41	127
477.0880272108844	477.34344671201814	65	127
477.2157369614512	477.3086167800453	53	127
477.34344671201814	477.43632653061223	43	127
477.34344671201814	477.5756462585034	67	127
477.4595464852608	477.5408163265306	55	127
477.5756462585034	477.64530612244897	44	127
477.5756462585034	477.84267573696144	68	127
477.69174603174605	477.8078458049887	56	127
477.84267573696144	478.15614512471655	67	127
477.84267573696144	477.93555555555554	43	127
477.97038548752835	478.086485260771	55	127
478.15614512471655	478.3883446712018	65	127
478.15614512471655	478.2606349206349	41	127
478.2954648526077	478.353514739229	53	127
478.3883446712018	478.6437641723356	63	127
478.3883446712018	478.50444444444446	39	127
478.51605442176873	478.6089342403628	51	127
478.6437641723356	478.72503401360547	38	127
478.6437641723356	478.91079365079366	62	127
478.7714739229025	478.8643537414966	50	127
478.91079365079366	479.1662131519274	60	127
478.91079365079366	479.01528344671203	36	127
479.0385034013606	479.1429931972789	48	127
479.1662131519274	479.2590929705215	35	127
479.1662131519274	479.41002267573697	59	127
479.29392290249433	479.37519274376416	47	127
479.41002267573697	479.677052154195	62	127
479.41002267573697	479.51451247165534	38	127
479.54934240362815	479.65383219954646	50	127
479.677052154195	479.7699319727891	41	127
479.677052154195	479.9324716553288	65	127
479.8047619047619	479.897641723356	53	127
479.9324716553288	480.1530612244898	67	127
479.9324716553288	480.0253514739229	43	127
480.0601814058957	480.1298412698413	55	127
480.1530612244898	480.23433106575965	44	127
480.1530612244898	480.38526077097504	68	127
480.2691609977324	480.3504308390023	56	127
480.38526077097504	480.6290702947846	62	127
480.38526077097504	480.47814058956914	38	127
480.51297052154194	480.60585034013604	50	127
480.6290702947846	480.73356009070295	43	127
480.6290702947846	480.88448979591834	67	127
480.7567800453515	480.8496598639456	55	127
480.88448979591834	480.9657596371882	41	127
480.88448979591834	481.10507936507935	65	127
481.000589569161	481.0702494331066	53	127
481.10507936507935	481.36049886621316	63	127
481.10507936507935	481.2095691609977	39	127
481.23278911564626	481.32566893424035	51	127
481.36049886621316	481.45337868480726	43	127
481.36049886621316	481.6159183673469	67	127
481.48820861678007	481.58108843537417	55	127
481.6159183673469	481.82489795918366	71	127
481.6159183673469	481.708798185941	47	127
481.73201814058956	481.7900680272109	59	127
481.82489795918366	481.91777777777776	48	127
481.82489795918366	482.0687074829932	72	127
481.95260770975057	482.0338775510204	60	127
482.0687074829932	482.3009070294785	75	127
482.0687074829932	482.14997732426303	51	127
482.1731972789116	482.2660770975057	63	127
482.3009070294785	482.3937868480726	48	127
482.3009070294785	482.55632653061224	72	127
482.42861678004533	482.52149659863943	60	127
482.55632653061224	482.64920634920634	44	127
482.55632653061224	482.77691609977325	68	127
482.6724263038549	482.7536961451247	56	127
482.77691609977325	483.0091156462585	66	127
482.77691609977325	482.86979591836734	42	127
482.90462585034015	482.9742857142857	54	127
483.0091156462585	483.1019954648526	43	127
483.0091156462585	483.24131519274374	67	127
483.1368253968254	483.21809523809526	55	127
483.24131519274374	483.33419501133784	48	127
483.24131519274374	483.5083446712018	72	127
483.36902494331065	483.473514739229	60	127
483.5083446712018	483.7637641723356	75	127
483.5083446712018	483.6012244897959	51	127
483.63605442176873	483.7405442176871	63	127
483.7637641723356	483.84503401360547	48	127
483.7637641723356	484.00757369614513	72	127
483.8798639455782	483.9727437641723	60	127
484.00757369614513	484.2397732426304	67	127
484.00757369614513	484.10045351473923	43	127
484.13528344671204	484.21655328798187	55	127
484.2397732426304	484.3442630385488	47	127
484.2397732426304	484.49519274376416	71	127
484.36748299319726	484.46036281179136	59	127
484.49519274376416	484.58807256235826	50	127
484.49519274376416	484.71578231292517	74	127
484.59968253968253	484.69256235827663	62	127
484.71578231292517	484.97120181405893	79	127
484.71578231292517	484.82027210884354	55	127
484.8434920634921	484.9363718820862	67	127
484.97120181405893	485.238231292517	51	127
484.97120181405893	485.0640816326531	63	127
485.09891156462584	485.2034013605442	75	127
485.238231292517	485.3311111111111	67	127
485.238231292517	485.4820408163265	55	127
485.35433106575965	485.44721088435375	79	127
485.4820408163265	485.7839002267574	54	127
485.4820408163265	485.57492063492066	66	127
485.6213605442177	485.7490702947846	78	127
485.7839002267574	485.8767800453515	67	127
485.7839002267574	486.0277097505669	55	127
485.9	485.9928798185941	79	127
486.0277097505669	486.2831292517007	53	127
486.0277097505669	486.120589569161	65	127
486.1554195011338	486.2482993197279	77	127
486.2831292517007	486.3760090702948	63	127
486.2831292517007	486.5153287981859	51	127
486.39922902494334	486.49210884353744	75	127
486.5153287981859	486.58498866213154	62	127
486.5153287981859	486.72430839002266	50	127
486.6198185941043	486.7010884353742	74	127
486.72430839002266	486.9797278911565	48	127
486.72430839002266	486.81718820861676	60	127
486.85201814058956	486.94489795918366	72	127
486.9797278911565	487.2003174603175	47	127
486.9797278911565	487.0609977324263	59	127
487.08421768707484	487.16548752834467	71	127
487.2003174603175	487.2815873015873	62	127
487.2003174603175	487.4789569160998	50	127
487.36285714285714	487.45573696145124	74	127
487.4789569160998	487.71115646258505	53	127
487.4789569160998	487.5718367346939	65	127
487.6066666666667	487.67632653061224	77	127
487.71115646258505	487.95496598639454	55	127
487.71115646258505	487.80403628117915	67	127
487.8272562358277	487.9201360544218	79	127
487.95496598639454	488.14072562358274	56	127
487.95496598639454	488.0130158730159	68	127
488.02462585034016	488.11750566893426	80	127
488.14072562358274	488.4077551020408	50	127
488.14072562358274	488.2336054421769	62	127
488.26843537414965	488.372925170068	74	127
488.4077551020408	488.5006349206349	67	127
488.4077551020408	488.6515646258503	55	127
488.52385487528346	488.61673469387756	79	127
488.6515646258503	488.8837641723356	53	127
488.6515646258503	488.7328344671202	65	127
488.76766439909295	488.86054421768705	77	127
488.8837641723356	489.1391836734694	51	127
488.8837641723356	488.9766439909297	63	127
489.0114739229025	489.0927437641723	75	127
489.1391836734694	489.2436734693878	67	127
489.1391836734694	489.44104308390024	55	127
489.26689342403625	489.40621315192743	79	127
489.44104308390024	489.650022675737	59	127
489.44104308390024	489.49909297052153	71	127
489.53392290249434	489.62680272108844	83	127
489.650022675737	489.89383219954647	60	127
489.650022675737	489.7429024943311	72	127
489.7777324263038	489.8590022675737	84	127
489.89383219954647	490.0795918367347	63	127
489.89383219954647	489.9286621315193	75	127
489.9518820861678	490.0447619047619	87	127
490.0795918367347	490.4859410430839	60	127
490.0795918367347	490.1956916099773	72	127
490.2305215419501	490.4511111111111	84	127
490.4859410430839	490.6833106575964	56	127
490.4859410430839	490.578820861678	68	127
490.578820861678	490.6484807256236	80	127
490.6833106575964	490.9155102040816	54	127
490.6833106575964	490.7645804988662	66	127
490.78780045351476	490.88068027210886	78	127
490.9155102040816	490.9967800453515	67	127
490.9155102040816	491.1477097505669	55	127
491.03160997732425	491.12448979591835	79	127
491.1477097505669	491.39151927437644	51	127
491.1477097505669	491.240589569161	63	127
491.2754195011338	491.3566893424036	75	127
491.39151927437644	491.6353287981859	48	127
491.39151927437644	491.48439909297053	60	127
491.5076190476191	491.6004988662132	72	127
491.6353287981859	491.85591836734693	51	127
491.6353287981859	491.7165986394558	63	127
491.7398185941043	491.8210884353741	75	127
491.85591836734693	491.9255782312925	67	127
491.85591836734693	492.07650793650794	55	127
491.9604081632653	492.04167800453513	79	127
492.07650793650794	492.15777777777777	66	127
492.07650793650794	492.3203174603175	54	127
492.1926077097506	492.2738775510204	78	127
492.3203174603175	492.4015873015873	67	127
492.3203174603175	492.54090702947843	55	127
492.42480725623585	492.5060770975057	79	127
492.54090702947843	492.76149659863944	43	127
492.54090702947843	492.6221768707483	55	127
492.6453968253968	492.73827664399096	67	127
492.76149659863944	492.8195464852608	48	127
492.76149659863944	492.8195464852608	60	127
492.8659863945578	492.9588662131519	72	127
492.98208616780045	493.051746031746	55	127
492.98208616780045	493.051746031746	67	127
493.0981859410431	493.1794557823129	79	127
493.20267573696145	493.272335600907	51	127
493.20267573696145	493.272335600907	63	127
493.3187755102041	493.4116553287982	75	127
493.43487528344673	493.51614512471656	48	127
493.43487528344673	493.51614512471656	60	127
493.5625850340136	493.65546485260774	72	127
493.70190476190476	493.7831746031746	55	127
493.70190476190476	493.7831746031746	43	127
493.82961451247166	493.8644444444444	67	127
493.8992743764172	493.9689342403628	48	127
493.8992743764172	493.9689342403628	60	127
494.02698412698413	494.0966439909297	72	127
494.1314739229025	494.24757369614514	43	127
494.1314739229025	494.24757369614514	55	127
494.3172335600907	494.39850340136053	67	127
494.4449433106576	494.51460317460317	39	127
494.4449433106576	494.51460317460317	51	127
494.549433106576	494.6655328798186	63	127
494.6887528344671	494.770022675737	36	127
494.6887528344671	494.770022675737	48	127
494.816462585034	494.93256235827664	60	127
494.9557823129252	495.02544217687074	43	127
494.9557823129252	495.02544217687074	55	127
495.0718820861678	495.1415419501134	67	127
495.1647619047619	495.21120181405894	39	127
495.1647619047619	495.21120181405894	51	127
495.2692517006803	495.3621315192744	63	127
495.3853514739229	495.4550113378685	36	127
495.3853514739229	495.4550113378685	48	127
495.5014512471655	495.5711111111111	60	127
495.6059410430839	495.6756009070295	35	127
495.6059410430839	495.6756009070295	47	127
495.69882086167803	495.78009070294786	59	127
495.8033106575964	495.87297052154196	50	127
495.8033106575964	495.87297052154196	38	127
495.919410430839	496.00068027210887	62	127
496.0355102040816	496.10517006802723	43	127
496.0355102040816	496.10517006802723	31	127
496.15160997732426	496.24448979591835	55	127
496.27931972789116	496.360589569161	35	127
496.27931972789116	496.360589569161	47	127
496.3954195011338	496.4882993197279	59	127
496.51151927437644	496.581179138322	36	127
496.51151927437644	496.581179138322	48	127
496.627619047619	496.75532879818593	60	127
496.77854875283447	496.84820861678	67	127
496.77854875283447	496.84820861678	55	127
496.8946485260771	496.97591836734694	79	127
496.9991383219955	497.06879818594103	51	127
496.9991383219955	497.06879818594103	63	127
497.1152380952381	497.19650793650794	75	127
497.2197278911565	497.27777777777777	48	127
497.2197278911565	497.27777777777777	60	127
497.3126077097506	497.3938775510204	72	127
497.46353741496597	497.5331972789116	43	127
497.46353741496597	497.5331972789116	55	127
497.5796371882086	497.66090702947844	67	127
497.69573696145125	497.7653968253968	48	127
497.69573696145125	497.7653968253968	60	127
497.8118367346939	497.904716553288	72	127
497.9395464852608	498.0208163265306	43	127
497.9395464852608	498.0208163265306	55	127
498.06725623582764	498.13691609977326	67	127
498.16013605442174	498.2065759637188	39	127
498.16013605442174	498.2065759637188	51	127
498.2530158730159	498.3110657596372	63	127
498.3342857142857	498.4039455782313	36	127
498.3342857142857	498.4039455782313	48	127
498.45038548752837	498.55487528344673	60	127
498.5780952380952	498.63614512471656	43	127
498.5780952380952	498.63614512471656	55	127
498.6709750566893	498.7522448979592	67	127
498.78707482993195	498.85673469387757	39	127
498.78707482993195	498.85673469387757	51	127
498.8915646258503	498.9728344671202	63	127
498.9960544217687	499.0889342403628	36	127
498.9960544217687	499.0889342403628	48	127
499.14698412698414	499.22825396825397	60	127
499.2630839002268	499.33274376417233	47	127
499.2630839002268	499.33274376417233	35	127
499.3791836734694	499.448843537415	59	127
499.4836734693878	499.55333333333334	38	127
499.4836734693878	499.55333333333334	50	127
499.59977324263036	499.64621315192744	62	127
499.68104308390025	499.7507029478458	43	127
499.68104308390025	499.7507029478458	31	127
499.79714285714283	499.86680272108845	55	127
499.9016326530612	499.9829024943311	35	127
499.9016326530612	499.9829024943311	47	127
500.00612244897957	500.0757823129252	59	127
500.0990022675737	500.1686621315193	36	127
500.0990022675737	500.1686621315193	48	127
500.2267120181406	500.3195918367347	60	127
500.3428117913832	500.42408163265304	55	127
500.3428117913832	500.42408163265304	43	127
500.4705215419501	500.5750113378685	67	127
500.598231292517	500.6678911564626	51	127
500.598231292517	500.6678911564626	39	127
500.7143310657596	500.7956009070295	63	127
500.818820861678	500.90009070294786	36	127
500.818820861678	500.90009070294786	48	127
500.9465306122449	501.039410430839	60	127
501.0626303854875	501.14390022675735	35	127
501.0626303854875	501.14390022675735	47	127
501.19034013605443	501.27160997732426	59	127
501.30643990929707	501.37609977324263	38	127
501.30643990929707	501.37609977324263	50	127
501.4225396825397	501.49219954648527	62	127
501.5270294784581	501.5734693877551	31	127
501.5270294784581	501.5734693877551	43	127
501.6199092970522	501.701179138322	55	127
501.72439909297054	501.8056689342404	35	127
501.72439909297054	501.8056689342404	47	127
501.8521088435374	501.9333786848073	59	127
501.96820861678003	502.00303854875284	36	127
501.96820861678003	502.06108843537413	60	127
502.08430839002267	502.17718820861677	72	127
502.08430839002267	502.1191383219955	48	127
502.2120181405896	502.28167800453514	67	127
502.2120181405896	502.2352380952381	43	127
502.31650793650795	502.37455782312924	79	127
502.31650793650795	502.3513378684807	55	127
502.3977777777778	502.4906575963719	63	127
502.3977777777778	502.4326077097506	39	127
502.53709750566895	502.5719274376417	51	127
502.53709750566895	502.6183673469388	75	127
502.6531972789116	502.68802721088434	36	127
502.6531972789116	502.75768707482996	60	127
502.7925170068027	502.8273469387755	48	127
502.7925170068027	502.8853968253968	72	127
502.9202267573696	502.9550566893424	35	127
502.9202267573696	503.0131065759637	59	127
503.03632653061226	503.1175963718821	71	127
503.03632653061226	503.071156462585	47	127
503.1524263038549	503.2336961451247	62	127
503.1524263038549	503.1756462585034	38	127
503.26852607709753	503.36140589569163	74	127
503.26852607709753	503.3033560090703	50	127
503.3846258503401	503.4194557823129	31	127
503.3846258503401	503.4775056689342	55	127
503.50072562358275	503.54716553287983	43	127
503.50072562358275	503.59360544217685	67	127
503.6168253968254	503.6516553287982	35	127
503.6168253968254	503.7097052154195	59	127
503.7445351473923	503.7793650793651	47	127
503.7445351473923	503.8374149659864	71	127
503.8838548752834	504.03478458049887	48	127
503.8838548752834	504.03478458049887	60	127
503.8838548752834	504.03478458049887	72	127
503.8838548752834	504.03478458049887	36	127
504.89392290249435	504.9635827664399	36	127
504.89392290249435	504.9635827664399	39	127
504.89392290249435	504.9635827664399	43	127
504.89392290249435	504.9635827664399	48	127
504.89392290249435	504.9635827664399	60	127
504.89392290249435	504.9635827664399	63	127
504.89392290249435	504.9635827664399	67	127
504.89392290249435	504.9635827664399	72	127
505.7414512471655	505.9156009070295	36	127
505.7414512471655	505.9156009070295	39	127
505.7414512471655	505.9156009070295	43	127
505.7414512471655	505.9156009070295	48	127
505.7414512471655	505.9156009070295	51	127
505.7414512471655	505.9156009070295	55	127
505.7414512471655	505.9156009070295	60	127
