# onset,offset,note,velocity
0.521655328798186	8.219092970521542	56	127
0.521655328798186	1.7175056689342403	72	127
0.521655328798186	8.219092970521542	44	127
0.521655328798186	6.1873469387755105	63	127
2.007755102040816	7.603764172335601	72	127
8.219092970521542	10.332108843537416	53	127
8.219092970521542	10.332108843537416	46	127
8.219092970521542	10.332108843537416	61	127
8.219092970521542	9.635510204081633	72	127
9.635510204081633	10.599138321995465	70	127
10.599138321995465	10.819727891156463	68	127
10.970657596371883	11.539546485260772	68	127
10.970657596371883	11.864625850340136	58	127
10.970657596371883	11.864625850340136	51	127
11.539546485260772	12.10843537414966	67	127
12.10843537414966	13.095283446712019	58	127
12.10843537414966	12.781814058956916	65	127
12.10843537414966	13.095283446712019	49	127
12.10843537414966	13.095283446712019	51	127
12.781814058956916	13.234603174603174	67	127
13.385532879818594	14.97609977324263	60	127
13.385532879818594	14.801950113378684	68	127
13.385532879818594	14.97609977324263	48	127
13.385532879818594	14.97609977324263	51	127
14.801950113378684	15.254739229024944	63	127
16.090657596371884	16.97299319727891	72	127
16.090657596371884	16.97299319727891	75	127
16.090657596371884	17.983061224489795	56	127
16.090657596371884	17.983061224489795	60	127
17.309705215419502	18.308163265306124	72	127
17.309705215419502	18.308163265306124	75	127
17.983061224489795	18.308163265306124	58	127
17.983061224489795	18.308163265306124	61	127
18.308163265306124	18.551972789115645	63	127
18.308163265306124	18.551972789115645	60	127
18.63324263038549	21.47766439909297	61	127
18.63324263038549	20.54888888888889	72	127
18.63324263038549	20.54888888888889	75	127
18.63324263038549	21.47766439909297	65	127
20.54888888888889	21.152607709750566	73	127
20.54888888888889	21.152607709750566	70	127
21.152607709750566	21.47766439909297	69	127
21.152607709750566	21.47766439909297	72	127
21.47766439909297	21.825986394557823	70	127
21.47766439909297	21.825986394557823	73	127
21.825986394557823	22.151065759637188	72	127
21.825986394557823	22.151065759637188	75	127
22.151065759637188	22.510975056689343	70	127
22.151065759637188	22.510975056689343	73	127
22.510975056689343	23.41655328798186	58	127
22.510975056689343	23.14952380952381	77	127
22.510975056689343	23.14952380952381	73	127
22.510975056689343	23.41655328798186	61	127
23.41655328798186	23.753242630385486	61	127
23.41655328798186	23.753242630385486	65	127
23.41655328798186	23.753242630385486	70	127
23.41655328798186	23.753242630385486	73	127
23.822902494331064	25.262539682539682	68	127
23.822902494331064	25.262539682539682	72	127
23.822902494331064	25.262539682539682	63	127
25.262539682539682	25.796598639455784	51	127
25.262539682539682	25.796598639455784	67	127
25.262539682539682	25.796598639455784	70	127
26.59768707482993	27.421995464852607	63	127
26.59768707482993	27.421995464852607	72	127
26.59768707482993	27.805124716553287	56	127
26.59768707482993	27.805124716553287	60	127
27.805124716553287	29.128662131519274	53	127
27.805124716553287	28.72231292517007	68	127
27.805124716553287	28.72231292517007	72	127
27.805124716553287	29.128662131519274	56	127
29.128662131519274	30.103900226757368	72	127
29.128662131519274	31.067528344671203	50	127
29.128662131519274	31.067528344671203	56	127
29.128662131519274	31.067528344671203	65	127
30.103900226757368	30.440589569161	70	127
30.440589569161	32.8902947845805	77	127
31.648027210884354	33.50562358276644	46	127
31.648027210884354	33.50562358276644	50	127
32.8902947845805	33.16891156462585	75	127
33.16891156462585	33.50562358276644	74	127
33.50562358276644	33.79587301587301	48	127
33.50562358276644	33.79587301587301	51	127
33.50562358276644	33.79587301587301	72	127
33.79587301587301	34.028072562358275	50	127
33.79587301587301	34.028072562358275	53	127
33.79587301587301	34.028072562358275	70	127
34.086122448979594	35.281950113378684	68	127
34.086122448979594	35.4328798185941	51	127
34.086122448979594	35.4328798185941	55	127
35.281950113378684	35.80439909297052	67	127
36.64031746031746	37.4762358276644	55	127
36.64031746031746	37.4762358276644	58	127
36.64031746031746	37.4762358276644	63	127
36.64031746031746	37.81292517006803	70	127
37.81292517006803	38.14961451247166	72	127
37.81292517006803	38.7649433106576	55	127
37.81292517006803	38.7649433106576	58	127
37.81292517006803	38.7649433106576	63	127
38.14961451247166	38.463083900226756	70	127
38.463083900226756	38.7649433106576	68	127
38.7649433106576	38.98553287981859	67	127
39.055192743764174	41.00566893424036	63	127
39.055192743764174	40.436780045351476	65	127
39.055192743764174	41.00566893424036	60	127
39.055192743764174	41.00566893424036	56	127
40.436780045351476	40.56448979591837	67	127
40.56448979591837	40.703809523809525	65	127
40.703809523809525	40.84312925170068	64	127
40.84312925170068	41.00566893424036	65	127
41.00566893424036	41.307528344671205	58	127
41.00566893424036	41.307528344671205	55	127
41.00566893424036	41.307528344671205	67	127
41.307528344671205	41.551315192743765	53	127
41.307528344671205	41.551315192743765	56	127
41.307528344671205	41.551315192743765	68	127
41.620997732426304	42.73555555555556	67	127
41.620997732426304	42.73555555555556	58	127
41.620997732426304	42.73555555555556	63	127
43.1302947845805	43.385714285714286	67	127
43.1302947845805	44.11714285714286	34	127
43.1302947845805	44.11714285714286	46	127
43.1302947845805	44.11714285714286	56	127
43.1302947845805	44.11714285714286	62	127
43.385714285714286	44.11714285714286	65	127
44.11714285714286	44.39578231292517	63	127
44.569931972789114	46.009569160997735	55	127
44.569931972789114	46.009569160997735	63	127
44.569931972789114	46.775827664399095	39	127
44.569931972789114	46.775827664399095	51	127
46.009569160997735	47.29827664399093	55	127
46.009569160997735	47.29827664399093	58	127
46.009569160997735	47.29827664399093	61	127
47.65818594104309	48.71469387755102	56	127
47.65818594104309	48.71469387755102	51	127
47.65818594104309	48.71469387755102	60	127
47.65818594104309	49.64349206349206	32	127
47.65818594104309	49.64349206349206	44	127
49.03977324263039	49.95696145124717	51	127
49.03977324263039	49.95696145124717	60	127
50.23560090702948	51.408208616780044	60	127
50.23560090702948	51.5475283446712	49	127
50.23560090702948	51.9887074829932	34	127
50.23560090702948	51.9887074829932	46	127
51.408208616780044	52.23251700680272	58	127
51.9887074829932	52.47632653061225	48	127
51.9887074829932	52.23251700680272	36	127
52.23251700680272	52.65047619047619	56	127
52.23251700680272	52.72013605442177	37	127
52.72013605442177	53.974013605442174	39	127
52.72013605442177	53.381904761904764	56	127
52.72013605442177	53.69537414965986	46	127
53.381904761904764	53.974013605442174	55	127
53.974013605442174	54.856371882086165	51	127
53.974013605442174	54.856371882086165	37	127
53.974013605442174	54.55451247165533	53	127
53.974013605442174	54.856371882086165	46	127
54.55451247165533	54.99569160997732	55	127
55.135011337868484	56.45854875283447	56	127
55.135011337868484	56.08702947845805	51	127
55.135011337868484	57.097097505668934	36	127
55.135011337868484	57.097097505668934	44	127
56.45854875283447	56.93455782312925	51	127
57.758866213151926	59.50036281179138	48	127
57.758866213151926	59.50036281179138	44	127
57.758866213151926	58.7108843537415	63	127
57.758866213151926	58.7108843537415	60	127
58.98952380952381	59.81383219954648	63	127
58.98952380952381	59.81383219954648	60	127
59.50036281179138	59.81383219954648	46	127
59.50036281179138	59.81383219954648	49	127
59.81383219954648	60.17374149659864	48	127
59.81383219954648	60.17374149659864	51	127
60.28984126984127	63.02979591836735	49	127
60.28984126984127	63.02979591836735	53	127
60.28984126984127	62.05455782312925	63	127
60.28984126984127	62.05455782312925	60	127
62.05455782312925	62.75115646258504	61	127
62.05455782312925	62.75115646258504	58	127
62.75115646258504	63.02979591836735	57	127
62.75115646258504	63.02979591836735	60	127
63.02979591836735	63.2968253968254	58	127
63.02979591836735	63.2968253968254	61	127
63.2968253968254	63.56385487528345	63	127
63.2968253968254	63.56385487528345	60	127
63.56385487528345	63.86571428571428	58	127
63.56385487528345	63.86571428571428	61	127
64.01664399092971	64.96866213151928	65	127
64.01664399092971	64.96866213151928	46	127
64.01664399092971	64.96866213151928	49	127
64.01664399092971	64.96866213151928	61	127
64.96866213151928	65.31696145124717	53	127
64.96866213151928	65.31696145124717	49	127
64.96866213151928	65.31696145124717	61	127
64.96866213151928	65.31696145124717	58	127
65.40984126984127	66.69854875283447	51	127
65.40984126984127	66.69854875283447	56	127
65.40984126984127	66.69854875283447	60	127
66.69854875283447	67.17455782312925	55	127
66.69854875283447	67.17455782312925	58	127
66.69854875283447	67.17455782312925	39	127
68.32394557823129	69.39204081632653	44	127
68.32394557823129	69.39204081632653	48	127
68.32394557823129	69.39204081632653	51	127
68.32394557823129	69.39204081632653	56	127
68.32394557823129	69.39204081632653	60	127
69.65909297052154	70.71560090702948	56	127
69.65909297052154	70.71560090702948	41	127
69.65909297052154	70.71560090702948	48	127
69.65909297052154	70.71560090702948	53	127
69.65909297052154	70.71560090702948	60	127
71.00585034013605	73.21174603174603	38	127
71.00585034013605	73.21174603174603	46	127
71.00585034013605	73.21174603174603	53	127
71.00585034013605	73.21174603174603	56	127
71.00585034013605	73.21174603174603	58	127
73.6297052154195	75.44086167800454	46	127
73.6297052154195	75.44086167800454	34	127
73.6297052154195	75.44086167800454	50	127
73.6297052154195	75.44086167800454	58	127
75.44086167800454	75.75433106575964	36	127
75.44086167800454	75.75433106575964	51	127
75.75433106575964	76.02136054421769	38	127
75.75433106575964	76.02136054421769	53	127
76.19551020408163	78.64519274376417	39	127
76.19551020408163	77.5887074829932	50	127
76.19551020408163	77.5887074829932	53	127
76.19551020408163	77.5887074829932	58	127
76.19551020408163	78.64519274376417	46	127
77.5887074829932	78.50589569160998	58	127
77.5887074829932	78.50589569160998	51	127
77.5887074829932	78.50589569160998	55	127
79.1908843537415	80.23578231292517	43	127
79.1908843537415	80.23578231292517	31	127
79.1908843537415	80.50281179138322	51	127
79.1908843537415	80.50281179138322	58	127
80.50281179138322	81.35034013605443	52	127
80.50281179138322	81.35034013605443	31	127
80.50281179138322	81.35034013605443	43	127
80.50281179138322	81.35034013605443	58	127
80.50281179138322	81.35034013605443	61	127
81.62897959183674	83.60265306122449	60	127
81.62897959183674	83.60265306122449	44	127
81.62897959183674	83.60265306122449	53	127
81.62897959183674	83.60265306122449	56	127
81.62897959183674	83.60265306122449	32	127
83.60265306122449	83.95097505668934	31	127
83.60265306122449	83.95097505668934	43	127
83.60265306122449	83.95097505668934	58	127
83.60265306122449	83.95097505668934	64	127
83.95097505668934	84.42698412698412	41	127
83.95097505668934	84.42698412698412	60	127
83.95097505668934	84.42698412698412	65	127
83.95097505668934	84.42698412698412	29	127
84.51986394557824	85.43705215419502	46	127
84.51986394557824	85.43705215419502	34	127
85.12358276643991	85.43705215419502	58	127
85.43705215419502	85.66925170068028	63	127
85.9130612244898	87.00437641723356	34	127
85.9130612244898	87.00437641723356	46	127
86.67931972789115	87.00437641723356	56	127
87.00437641723356	87.53843537414966	62	127
87.7009977324263	89.67469387755102	39	127
88.38598639455782	88.59496598639456	55	127
88.7110657596372	88.9897052154195	58	127
89.07097505668935	89.19868480725624	63	127
89.41927437641723	89.50054421768708	65	127
89.67469387755102	89.77918367346939	67	127
90.04619047619047	90.13909297052155	68	127
90.35968253968254	90.94015873015873	55	127
90.35968253968254	91.20721088435374	70	127
90.94015873015873	91.4509977324263	51	127
91.4509977324263	92.07795918367347	55	127
91.4509977324263	92.14761904761905	70	127
92.07795918367347	92.65845804988662	51	127
92.36820861678005	92.65845804988662	71	127
92.65845804988662	93.80784580498866	72	127
92.65845804988662	93.23893424036281	56	127
93.23893424036281	93.80784580498866	51	127
93.80784580498866	94.37673469387755	60	127
93.80784580498866	94.22580498866213	68	127
94.37673469387755	94.8991836734694	51	127
94.64376417233561	94.8991836734694	70	127
94.8991836734694	95.94408163265307	72	127
94.8991836734694	95.41002267573697	56	127
95.41002267573697	95.94408163265307	51	127
95.94408163265307	96.48975056689342	56	127
95.94408163265307	96.2459410430839	73	127
96.2459410430839	96.48975056689342	72	127
96.48975056689342	96.84965986394558	70	127
96.48975056689342	97.17473922902494	57	127
96.84965986394558	97.10507936507936	72	127
97.17473922902494	97.70879818594105	58	127
97.17473922902494	98.1615873015873	73	127
97.70879818594105	98.1615873015873	51	127
98.1615873015873	98.66081632653061	55	127
98.1615873015873	98.32412698412699	70	127
98.66081632653061	99.16004535147393	51	127
98.9162358276644	99.16004535147393	72	127
99.16004535147393	100.23977324263039	73	127
99.16004535147393	99.70571428571428	58	127
99.70571428571428	100.23977324263039	51	127
100.23977324263039	100.75061224489797	59	127
100.23977324263039	101.35433106575964	74	127
100.75061224489797	101.35433106575964	51	127
101.35433106575964	101.96965986394558	60	127
101.35433106575964	102.72430839002267	75	127
101.96965986394558	102.46888888888888	63	127
102.46888888888888	103.10743764172335	60	127
102.72430839002267	103.10743764172335	76	127
103.10743764172335	103.65310657596372	56	127
103.10743764172335	103.39768707482993	77	127
103.39768707482993	103.65310657596372	75	127
103.65310657596372	104.18716553287982	55	127
103.65310657596372	104.18716553287982	75	127
104.18716553287982	104.41936507936508	73	127
104.18716553287982	104.81410430839003	51	127
104.81410430839003	105.46426303854875	73	127
104.81410430839003	105.46426303854875	56	127
105.46426303854875	105.68485260770976	72	127
105.46426303854875	105.83578231292518	60	127
105.96349206349207	106.97356009070295	72	127
105.96349206349207	106.36984126984127	63	127
106.49755102040817	106.8342403628118	51	127
106.97356009070295	107.5540589569161	70	127
106.97356009070295	107.37990929705215	51	127
107.5540589569161	108.05328798185941	51	127
107.5540589569161	108.05328798185941	63	127
107.5540589569161	108.05328798185941	67	127
107.5540589569161	108.05328798185941	71	127
108.21582766439909	109.10979591836735	63	127
108.21582766439909	109.10979591836735	68	127
108.21582766439909	109.10979591836735	72	127
108.21582766439909	109.4697052154195	44	127
108.21582766439909	109.4697052154195	56	127
109.4697052154195	110.57265306122449	63	127
109.4697052154195	110.57265306122449	66	127
109.4697052154195	110.57265306122449	72	127
109.4697052154195	110.88612244897959	45	127
109.4697052154195	110.88612244897959	57	127
110.88612244897959	112.16321995464853	72	127
110.88612244897959	112.30253968253969	61	127
110.88612244897959	112.30253968253969	65	127
110.88612244897959	112.79015873015874	46	127
110.88612244897959	112.79015873015874	58	127
112.16321995464853	113.05718820861678	70	127
112.79015873015874	113.33582766439909	47	127
112.79015873015874	113.33582766439909	59	127
112.79015873015874	113.33582766439909	62	127
112.79015873015874	113.33582766439909	65	127
113.05718820861678	113.24294784580499	68	127
113.33582766439909	114.25301587301587	48	127
113.33582766439909	113.99759637188208	65	127
113.33582766439909	113.99759637188208	68	127
113.33582766439909	114.25301587301587	60	127
113.99759637188208	114.57809523809524	67	127
113.99759637188208	114.57809523809524	64	127
114.57809523809524	115.49528344671202	48	127
114.57809523809524	115.49528344671202	58	127
114.57809523809524	114.93800453514739	65	127
114.57809523809524	114.93800453514739	62	127
115.14698412698412	115.77392290249433	64	127
115.14698412698412	115.77392290249433	67	127
115.77392290249433	116.71433106575964	68	127
115.77392290249433	116.71433106575964	56	127
115.77392290249433	116.71433106575964	65	127
115.77392290249433	117.039410430839	41	127
115.77392290249433	117.039410430839	53	127
117.039410430839	118.27006802721088	43	127
117.039410430839	118.27006802721088	51	127
117.039410430839	118.27006802721088	55	127
117.039410430839	118.27006802721088	58	127
117.039410430839	118.27006802721088	63	127
118.75768707482993	119.91868480725624	44	127
118.75768707482993	119.65165532879818	75	127
118.75768707482993	119.91868480725624	56	127
119.99995464852607	120.95197278911564	75	127
120.29020408163265	120.60367346938776	60	127
120.29020408163265	120.60367346938776	56	127
120.60367346938776	120.95197278911564	58	127
120.60367346938776	120.95197278911564	61	127
120.95197278911564	121.2190022675737	60	127
120.95197278911564	121.2190022675737	63	127
121.30027210884354	121.67179138321995	75	127
121.30027210884354	122.39160997732426	65	127
121.30027210884354	122.39160997732426	61	127
121.67179138321995	122.02009070294784	73	127
122.02009070294784	122.29873015873015	72	127
122.39160997732426	122.64702947845805	73	127
122.73990929705215	123.03015873015873	60	127
122.73990929705215	123.03015873015873	63	127
122.73990929705215	123.03015873015873	75	127
123.12303854875283	123.39006802721089	58	127
123.12303854875283	123.39006802721089	61	127
123.12303854875283	123.39006802721089	77	127
123.64548752834467	123.72675736961452	68	127
123.64548752834467	124.02861678004535	63	127
123.64548752834467	124.45818594104308	51	127
123.72675736961452	123.83124716553289	70	127
123.83124716553289	123.93573696145124	68	127
123.93573696145124	124.02861678004535	70	127
124.02861678004535	124.2956462585034	60	127
124.02861678004535	124.12149659863945	68	127
124.12149659863945	124.21437641723357	70	127
124.21437641723357	124.2956462585034	68	127
124.2956462585034	124.36530612244898	70	127
124.36530612244898	124.48140589569161	60	127
124.36530612244898	124.45818594104308	68	127
124.45818594104308	124.55106575963718	70	127
124.55106575963718	124.65555555555555	67	127
124.65555555555555	124.79487528344671	68	127
124.79487528344671	125.31732426303854	55	127
124.79487528344671	125.79333333333334	72	127
124.79487528344671	125.79333333333334	51	127
125.31732426303854	125.59596371882085	61	127
125.70045351473922	125.82816326530612	61	127
125.79333333333334	126.15324263038549	70	127
126.15324263038549	126.26934240362812	56	127
126.15324263038549	126.26934240362812	60	127
126.15324263038549	126.26934240362812	68	127
126.51315192743765	126.81501133786848	63	127
126.51315192743765	126.81501133786848	51	127
126.81501133786848	127.058820861678	65	127
126.81501133786848	127.058820861678	53	127
127.058820861678	127.30263038548753	51	127
127.058820861678	127.30263038548753	63	127
127.30263038548753	127.58126984126984	61	127
127.30263038548753	127.58126984126984	49	127
127.58126984126984	127.91795918367347	60	127
127.58126984126984	127.91795918367347	48	127
127.91795918367347	128.18498866213153	46	127
127.91795918367347	128.18498866213153	58	127
128.18498866213153	128.41718820861678	56	127
128.18498866213153	128.41718820861678	44	127
128.48684807256237	129.1021768707483	43	127
128.48684807256237	129.1021768707483	55	127
129.1021768707483	129.6362358276644	39	127
129.1021768707483	129.6362358276644	51	127
129.6362358276644	130.20512471655329	55	127
129.6362358276644	130.20512471655329	43	127
130.20512471655329	130.7507709750567	39	127
130.20512471655329	130.7507709750567	51	127
130.7507709750567	131.3080725623583	44	127
130.7507709750567	131.3080725623583	56	127
131.3080725623583	131.9001814058957	39	127
131.3080725623583	131.9001814058957	51	127
131.9001814058957	132.48068027210886	48	127
131.9001814058957	132.48068027210886	60	127
132.48068027210886	132.8754195011338	51	127
132.48068027210886	132.8754195011338	39	127
133.00312925170067	133.51396825396824	56	127
133.00312925170067	133.51396825396824	44	127
133.51396825396824	133.96673469387756	39	127
133.51396825396824	133.96673469387756	51	127
133.96673469387756	134.4775963718821	44	127
133.96673469387756	134.4775963718821	56	127
134.4775963718821	135.02326530612245	45	127
134.4775963718821	135.02326530612245	57	127
135.02326530612245	135.59215419501135	46	127
135.02326530612245	135.59215419501135	58	127
135.59215419501135	136.14943310657597	39	127
135.59215419501135	136.14943310657597	51	127
136.14943310657597	136.81120181405896	43	127
136.14943310657597	136.81120181405896	55	127
136.81120181405896	137.25238095238095	51	127
136.81120181405896	137.39167800453515	39	127
137.39167800453515	137.91414965986394	46	127
137.39167800453515	137.91414965986394	58	127
137.91414965986394	138.47142857142856	51	127
137.91414965986394	138.47142857142856	39	127
138.47142857142856	139.02868480725624	59	127
138.47142857142856	139.02868480725624	47	127
139.02868480725624	139.55115646258503	51	127
139.02868480725624	139.55115646258503	39	127
139.55115646258503	140.07360544217687	48	127
139.55115646258503	140.07360544217687	60	127
140.07360544217687	140.60766439909298	63	127
140.07360544217687	140.60766439909298	51	127
140.60766439909298	141.19977324263039	68	127
140.60766439909298	141.19977324263039	48	127
141.19977324263039	141.78027210884355	44	127
141.19977324263039	141.6061224489796	72	127
141.78027210884355	142.43043083900227	43	127
141.78027210884355	142.43043083900227	70	127
142.43043083900227	142.5813605442177	67	127
142.43043083900227	142.94126984126984	39	127
142.94126984126984	143.521768707483	44	127
142.94126984126984	143.521768707483	63	127
143.521768707483	143.75396825396825	68	127
143.521768707483	144.16031746031746	48	127
144.35768707482993	144.81047619047618	51	127
144.35768707482993	145.48385487528344	68	127
144.94979591836736	145.3445351473923	39	127
145.48385487528344	145.89020408163265	39	127
145.48385487528344	145.89020408163265	67	127
146.04113378684806	146.52875283446713	39	127
146.04113378684806	146.52875283446713	51	127
146.04113378684806	146.52875283446713	55	127
146.66807256235828	147.81746031746033	32	127
146.66807256235828	147.81746031746033	44	127
146.66807256235828	147.81746031746033	51	127
146.66807256235828	147.81746031746033	56	127
147.81746031746033	149.19904761904763	51	127
147.81746031746033	149.19904761904763	33	127
147.81746031746033	149.19904761904763	45	127
147.81746031746033	149.19904761904763	54	127
149.19904761904763	150.83603174603175	34	127
149.19904761904763	150.83603174603175	46	127
149.19904761904763	150.83603174603175	49	127
149.19904761904763	150.83603174603175	53	127
150.83603174603175	151.3120634920635	35	127
150.83603174603175	151.3120634920635	47	127
150.83603174603175	151.3120634920635	50	127
150.83603174603175	151.3120634920635	53	127
151.50943310657595	152.33374149659863	48	127
151.50943310657595	152.06668934240363	53	127
151.50943310657595	152.33374149659863	36	127
152.06668934240363	152.62399092970523	52	127
152.62399092970523	153.494716553288	48	127
152.62399092970523	153.19285714285715	50	127
152.62399092970523	153.494716553288	36	127
153.19285714285715	153.6340589569161	52	127
153.77337868480726	155.12013605442178	53	127
153.77337868480726	155.12013605442178	48	127
153.77337868480726	155.12013605442178	29	127
153.77337868480726	155.12013605442178	41	127
155.12013605442178	156.75714285714287	43	127
155.12013605442178	156.75714285714287	31	127
155.12013605442178	156.75714285714287	46	127
155.12013605442178	156.75714285714287	51	127
155.12013605442178	156.75714285714287	58	127
156.75714285714287	157.6394784580499	51	127
156.75714285714287	157.6394784580499	48	127
156.75714285714287	157.6394784580499	60	127
156.75714285714287	158.24321995464854	32	127
156.75714285714287	158.24321995464854	44	127
157.9645804988662	158.91657596371883	60	127
157.9645804988662	158.91657596371883	63	127
158.24321995464854	158.54507936507937	48	127
158.24321995464854	158.54507936507937	44	127
158.54507936507937	158.91657596371883	49	127
158.54507936507937	158.91657596371883	46	127
158.91657596371883	159.18362811791383	48	127
158.91657596371883	159.18362811791383	51	127
159.25328798185942	160.40267573696144	53	127
159.25328798185942	159.6828344671202	60	127
159.25328798185942	159.6828344671202	63	127
159.25328798185942	160.40267573696144	49	127
159.6828344671202	159.97310657596373	61	127
159.6828344671202	159.97310657596373	58	127
160.06598639455783	160.30979591836734	60	127
160.06598639455783	160.30979591836734	57	127
160.40267573696144	160.65809523809523	61	127
160.40267573696144	160.65809523809523	58	127
160.77419501133787	161.04122448979592	48	127
160.77419501133787	161.04122448979592	51	127
160.77419501133787	161.04122448979592	60	127
160.77419501133787	161.04122448979592	63	127
161.15732426303856	161.43596371882086	61	127
161.15732426303856	161.43596371882086	46	127
161.15732426303856	161.43596371882086	49	127
161.15732426303856	161.43596371882086	65	127
161.52884353741496	162.46925170068027	51	127
161.91197278911565	162.35315192743764	60	127
161.91197278911565	162.35315192743764	56	127
162.35315192743764	162.68984126984128	63	127
162.8407709750567	163.9088888888889	39	127
163.22390022675737	163.67668934240362	55	127
163.22390022675737	163.67668934240362	61	127
163.67668934240362	164.11786848072563	63	127
164.4893650793651	165.0350566893424	32	127
164.4893650793651	165.0350566893424	44	127
164.4893650793651	165.0350566893424	56	127
164.4893650793651	165.0350566893424	60	127
165.6968253968254	166.90426303854875	59	127
165.6968253968254	166.90426303854875	63	127
165.6968253968254	166.90426303854875	68	127
165.6968253968254	166.90426303854875	75	127
166.90426303854875	168.29746031746032	58	127
166.90426303854875	168.29746031746032	61	127
166.90426303854875	168.29746031746032	67	127
166.90426303854875	168.29746031746032	73	127
168.29746031746032	169.4352380952381	61	127
168.29746031746032	169.17981859410432	63	127
168.29746031746032	169.17981859410432	67	127
168.29746031746032	169.17981859410432	70	127
168.29746031746032	169.4352380952381	51	127
168.29746031746032	169.4352380952381	58	127
169.4352380952381	169.55133786848072	63	127
169.4352380952381	169.55133786848072	68	127
169.4352380952381	169.55133786848072	71	127
169.4352380952381	170.0970068027211	56	127
169.4352380952381	170.0970068027211	59	127
169.77192743764172	169.88802721088436	63	127
170.0970068027211	170.16666666666666	68	127
170.30598639455783	170.3756462585034	71	127
170.51496598639457	170.58462585034013	75	127
170.71233560090704	170.7819954648526	80	127
170.95614512471656	171.02580498866214	83	127
171.1883446712018	171.2580045351474	87	127
171.42054421768708	171.52503401360545	88	127
171.61791383219955	171.69918367346938	37	127
171.86172335600907	171.95460317460316	40	127
172.12875283446712	172.1984126984127	44	127
172.36092970521543	172.43061224489796	49	127
172.59315192743765	172.66281179138323	52	127
172.8253514739229	172.89501133786848	56	127
173.06916099773244	173.138820861678	61	127
173.3013605442177	173.73092970521543	51	127
173.59160997732425	173.68448979591838	59	127
173.84702947845804	173.89344671201815	63	127
174.06761904761905	174.14886621315193	68	127
174.31142857142856	174.38108843537415	71	127
174.5204081632653	174.5900680272109	75	127
174.7409977324263	174.79904761904763	80	127
174.97319727891156	175.04285714285714	83	127
175.20539682539683	175.34471655328798	79	127
175.39115646258503	175.44920634920635	37	127
175.63496598639455	175.70462585034014	43	127
175.8787755102041	175.94843537414965	46	127
176.11097505668934	176.18063492063493	49	127
176.34317460317462	176.447641723356	55	127
176.61020408163265	176.74952380952382	58	127
176.92367346938775	176.99333333333334	61	127
177.15587301587303	177.56222222222223	47	127
177.4461224489796	177.51578231292518	56	127
177.6782993197279	177.74798185941043	59	127
177.93371882086169	178.00340136054422	63	127
178.15433106575964	178.21238095238095	68	127
178.3400680272109	178.39814058956915	71	127
178.56068027210884	178.63034013605443	75	127
178.79287981859412	178.89736961451248	80	127
179.08312925170068	179.22244897959183	82	127
179.31532879818593	179.3965986394558	31	127
179.55913832199548	179.60557823129253	34	127
179.7681179138322	179.83777777777777	39	127
179.9887074829932	180.05836734693878	43	127
180.22090702947847	180.29056689342403	46	127
180.44149659863945	180.51115646258503	51	127
180.67369614512472	180.74333333333334	55	127
180.91750566893424	181.32385487528344	44	127
180.91750566893424	181.32385487528344	56	127
181.2077551020408	181.2774149659864	59	127
181.47478458049886	181.54444444444445	63	127
181.71859410430838	181.78825396825397	68	127
181.95079365079366	182.3455328798186	50	127
181.95079365079366	182.3455328798186	38	127
182.22943310657595	182.29909297052154	59	127
182.4732426303855	182.54290249433106	65	127
182.70544217687075	182.77510204081634	68	127
182.93764172335602	183.23950113378686	67	127
182.93764172335602	183.23950113378686	39	127
182.93764172335602	183.23950113378686	51	127
183.23950113378686	183.52975056689343	70	127
183.23950113378686	183.52975056689343	58	127
183.52975056689343	183.79678004535148	55	127
183.52975056689343	183.79678004535148	67	127
183.79678004535148	184.00575963718822	64	127
183.79678004535148	184.00575963718822	52	127
184.00575963718822	184.2263492063492	63	127
184.00575963718822	184.2263492063492	51	127
184.2263492063492	184.47015873015874	49	127
184.2263492063492	184.47015873015874	61	127
184.47015873015874	184.83004535147393	47	127
184.47015873015874	184.83004535147393	59	127
184.83004535147393	185.22480725623583	58	127
184.83004535147393	185.28285714285715	46	127
185.28285714285715	185.72403628117914	44	127
185.28285714285715	185.36412698412698	56	127
185.52666666666667	185.5963038548753	63	127
185.84013605442178	185.8981859410431	68	127
186.0607029478458	186.13038548752834	71	127
186.24648526077098	186.3161224489796	75	127
186.47868480725623	186.54834467120182	80	127
186.7224716553288	186.79215419501134	83	127
186.94308390022675	187.01274376417234	87	127
187.07079365079366	187.2101133786848	88	127
187.3029931972789	187.41909297052155	37	127
187.58163265306123	187.6512925170068	40	127
187.83705215419502	187.90671201814058	44	127
188.06925170068027	188.13891156462586	49	127
188.30145124716555	188.3711111111111	52	127
188.5336507936508	188.60331065759638	56	127
188.7658276643991	188.85873015873017	61	127
189.0328798185941	189.42761904761906	47	127
189.29990929705215	189.38115646258504	63	127
189.54371882086167	189.63657596371883	68	127
189.822358276644	189.8919954648526	71	127
190.05455782312924	190.12421768707483	75	127
190.28675736961452	190.3912471655329	80	127
190.5770068027211	190.64666666666668	83	127
190.75115646258504	190.8208163265306	87	127
190.9485260770975	191.25038548752835	79	127
191.15750566893425	191.21555555555557	39	127
191.35487528344672	191.43614512471655	46	127
191.6102947845805	191.67995464852606	49	127
191.84249433106575	191.91215419501134	51	127
192.07469387755103	192.1443537414966	55	127
192.295283446712	192.37655328798186	58	127
192.53909297052155	192.6087528344671	61	127
192.7712925170068	193.2473015873016	52	127
193.10798185941044	193.20086167800454	56	127
193.35179138321996	193.42145124716552	59	127
193.59560090702948	193.66526077097507	64	127
193.839410430839	193.90907029478458	68	127
194.0832199546485	194.14126984126983	71	127
194.30380952380952	194.36185941043084	76	127
194.52439909297053	194.5940589569161	80	127
194.75659863945577	194.88430839002268	82	127
194.942358276644	195.0584580498866	38	127
195.20938775510203	195.27904761904762	41	127
195.45319727891157	195.52285714285713	46	127
195.68539682539682	195.7550566893424	50	127
195.90598639455783	195.9756462585034	53	127
196.13818594104308	196.1962358276644	58	127
196.35877551020408	196.42843537414967	62	127
196.59097505668933	196.92766439909298	51	127
196.8231746031746	196.88122448979593	87	127
197.0089342403628	197.0785941043084	82	127
197.2295238095238	197.2991836734694	78	127
197.49655328798187	197.56621315192743	75	127
197.72875283446712	197.7984126984127	70	127
197.99578231292517	198.06544217687076	66	127
198.22798185941042	198.297641723356	70	127
198.4601814058957	198.80848072562358	63	127
198.69238095238094	198.91297052154195	54	127
198.91297052154195	199.1451700680272	53	127
199.1451700680272	199.4586394557823	51	127
199.4586394557823	200.14362811791383	65	127
199.4586394557823	199.7488888888889	49	127
199.4586394557823	200.14362811791383	77	127
199.7488888888889	200.0043083900227	48	127
200.0043083900227	200.25972789115647	46	127
200.25972789115647	200.53836734693877	45	127
200.39904761904762	200.49192743764172	65	127
200.39904761904762	200.49192743764172	77	127
200.53836734693877	200.6892970521542	46	127
200.53836734693877	201.96639455782312	65	127
200.53836734693877	201.96639455782312	70	127
200.53836734693877	201.96639455782312	73	127
200.53836734693877	201.96639455782312	77	127
200.88666666666666	200.95632653061224	34	127
201.11886621315193	201.17691609977325	37	127
201.3162358276644	201.36267573696145	41	127
201.5019954648526	201.5716553287982	46	127
201.7225850340136	201.7922448979592	49	127
201.96639455782312	202.02444444444444	53	127
202.21020408163264	202.2914739229025	58	127
202.74426303854875	204.19551020408164	70	127
202.74426303854875	203.1390022675737	51	127
202.74426303854875	204.19551020408164	66	127
202.74426303854875	204.19551020408164	73	127
202.74426303854875	204.19551020408164	78	127
204.46253968253967	205.9602267573696	70	127
204.46253968253967	205.9602267573696	65	127
204.46253968253967	205.9602267573696	73	127
204.46253968253967	205.9602267573696	77	127
204.70634920634922	204.77600907029478	29	127
204.97337868480724	205.04303854875283	34	127
205.20557823129252	205.29845804988662	37	127
205.47260770975058	205.5538775510204	41	127
205.75124716553287	205.84412698412697	46	127
205.9602267573696	206.01827664399093	49	127
206.25047619047618	206.32013605442177	53	127
206.47106575963718	206.8425850340136	41	127
206.47106575963718	207.96875283446713	63	127
206.47106575963718	207.96875283446713	57	127
206.47106575963718	207.96875283446713	69	127
208.39832199546484	209.81473922902495	58	127
208.39832199546484	209.81473922902495	70	127
208.39832199546484	209.81473922902495	61	127
208.6421315192744	208.71179138321995	30	127
208.87433106575963	208.93238095238095	34	127
209.1065306122449	209.17619047619047	37	127
209.30390022675738	209.37356009070294	42	127
209.51287981859412	209.58253968253968	46	127
209.81473922902495	209.90761904761905	49	127
210.07015873015874	210.19786848072562	54	127
210.46489795918367	212.0554648526077	58	127
210.46489795918367	211.0221768707483	43	127
210.46489795918367	212.0554648526077	63	127
210.46489795918367	212.0554648526077	61	127
210.46489795918367	212.0554648526077	70	127
212.17156462585035	213.64603174603175	71	127
212.17156462585035	213.64603174603175	59	127
212.17156462585035	213.64603174603175	63	127
212.3805442176871	212.45020408163265	32	127
212.61274376417234	212.69401360544217	35	127
212.91460317460317	212.995873015873	39	127
213.17002267573696	213.23968253968255	44	127
213.3790022675737	213.46027210884353	47	127
213.64603174603175	213.70408163265307	51	127
213.8550113378685	213.95950113378686	56	127
214.14526077097506	214.52839002267575	40	127
214.14526077097506	215.61972789115646	74	127
214.14526077097506	215.61972789115646	62	127
214.14526077097506	215.61972789115646	68	127
216.08412698412698	217.5469841269841	63	127
216.08412698412698	217.5469841269841	67	127
216.08412698412698	217.5469841269841	75	127
216.3627664399093	216.43242630385487	39	127
216.6181859410431	216.68784580498865	43	127
216.85038548752834	216.92004535147393	46	127
217.05936507936508	217.1174149659864	51	127
217.2799546485261	217.34961451247165	55	127
217.5469841269841	217.62825396825397	58	127
217.84884353741498	217.91850340136054	63	127
218.115873015873	219.60195011337868	68	127
218.115873015873	218.56866213151926	51	127
218.115873015873	219.60195011337868	65	127
218.115873015873	219.60195011337868	74	127
218.115873015873	219.60195011337868	71	127
219.9734693877551	221.41310657596372	70	127
219.9734693877551	221.41310657596372	67	127
219.9734693877551	221.41310657596372	75	127
220.24049886621316	220.31015873015872	39	127
220.4726984126984	220.542358276644	43	127
220.70489795918368	220.75133786848073	46	127
220.90226757369615	220.96031746031747	51	127
221.15768707482994	221.2273469387755	55	127
221.41310657596372	221.48276643990928	58	127
221.7033560090703	221.77301587301588	63	127
221.93555555555557	223.54934240362812	68	127
221.93555555555557	222.44639455782314	51	127
221.93555555555557	223.54934240362812	62	127
221.93555555555557	223.54934240362812	65	127
221.93555555555557	223.54934240362812	71	127
223.9905215419501	225.4998185941043	63	127
223.9905215419501	225.4998185941043	67	127
223.9905215419501	225.4998185941043	70	127
224.26916099773243	224.33882086167802	39	127
224.47814058956916	224.53619047619048	43	127
224.74517006802722	224.86126984126983	46	127
225.0354195011338	225.10507936507938	51	127
225.2560090702948	225.32566893424035	46	127
225.4998185941043	225.55786848072563	43	127
225.69718820861678	225.7784580498866	39	127
226.01065759637189	227.40385487528346	67	127
226.01065759637189	227.40385487528346	58	127
226.01065759637189	227.40385487528346	63	127
226.20802721088435	226.27768707482994	39	127
226.4170068027211	226.48666666666668	43	127
226.68403628117915	226.81174603174603	46	127
226.9742857142857	227.02072562358276	51	127
227.17165532879818	227.24131519274377	46	127
227.40385487528346	227.47351473922902	43	127
227.6360544217687	227.75215419501134	39	127
227.97274376417235	231.02616780045352	55	127
227.97274376417235	231.02616780045352	58	127
227.97274376417235	231.02616780045352	63	127
228.23977324263038	228.47197278911565	39	127
228.47197278911565	228.7041723356009	43	127
228.7041723356009	228.93637188208618	46	127
228.93637188208618	229.16857142857143	51	127
229.16857142857143	229.41238095238094	46	127
229.41238095238094	229.64458049886622	43	127
229.64458049886622	229.87678004535147	39	127
229.87678004535147	230.10897959183674	51	127
230.10897959183674	230.341179138322	46	127
230.341179138322	230.5849886621315	43	127
230.5849886621315	230.81718820861678	39	127
230.81718820861678	231.08421768707484	51	127
231.08421768707484	231.33963718820863	46	127
231.33963718820863	231.57183673469387	43	127
231.57183673469387	231.82725623582766	39	127
231.82725623582766	232.07106575963718	84	127
231.82725623582766	232.07106575963718	79	127
231.82725623582766	232.07106575963718	49	127
231.82725623582766	232.07106575963718	75	127
232.07106575963718	232.3497052154195	72	127
232.07106575963718	232.3497052154195	46	127
232.3497052154195	232.6283446712018	75	127
232.3497052154195	232.6283446712018	43	127
232.6283446712018	232.86054421768708	79	127
232.6283446712018	232.86054421768708	39	127
232.86054421768708	233.1043537414966	82	127
232.86054421768708	233.1043537414966	49	127
233.1043537414966	233.37138321995465	46	127
233.1043537414966	233.37138321995465	79	127
233.37138321995465	233.6035827664399	75	127
233.37138321995465	233.6035827664399	43	127
233.6035827664399	233.83578231292518	39	127
233.6035827664399	233.83578231292518	72	127
233.83578231292518	234.0795918367347	82	127
233.83578231292518	234.0795918367347	49	127
234.0795918367347	234.31179138321994	79	127
234.0795918367347	234.31179138321994	46	127
234.31179138321994	234.5556009070295	43	127
234.31179138321994	234.5556009070295	75	127
234.5556009070295	234.78780045351473	72	127
234.5556009070295	234.78780045351473	39	127
234.78780045351473	235.02	49	127
234.78780045351473	235.02	82	127
235.02	235.25219954648526	46	127
235.02	235.25219954648526	79	127
235.25219954648526	235.51922902494331	43	127
235.25219954648526	235.51922902494331	75	127
235.51922902494331	235.69337868480724	39	127
235.51922902494331	235.69337868480724	72	127
235.75142857142856	235.9952380952381	49	127
235.75142857142856	235.9952380952381	61	127
235.9952380952381	236.22743764172336	58	127
235.9952380952381	236.22743764172336	46	127
236.22743764172336	236.7150566893424	43	127
236.22743764172336	236.7150566893424	55	127
236.7150566893424	237.05174603174603	44	127
236.7150566893424	237.05174603174603	56	127
237.05174603174603	237.2491156462585	58	127
237.05174603174603	237.2491156462585	46	127
237.2491156462585	237.49292517006802	48	127
237.2491156462585	237.49292517006802	60	127
237.49292517006802	237.73673469387754	49	127
237.49292517006802	237.73673469387754	61	127
237.73673469387754	237.94571428571427	51	127
237.73673469387754	237.94571428571427	63	127
237.94571428571427	238.154693877551	65	127
237.94571428571427	238.154693877551	53	127
238.154693877551	238.36367346938775	55	127
238.154693877551	238.36367346938775	67	127
238.36367346938775	238.58426303854876	56	127
238.36367346938775	238.58426303854876	68	127
238.58426303854876	238.816462585034	58	127
238.58426303854876	238.816462585034	70	127
238.816462585034	239.04866213151928	60	127
238.816462585034	239.04866213151928	72	127
239.04866213151928	239.30408163265307	61	127
239.04866213151928	239.30408163265307	73	127
239.30408163265307	239.54789115646258	75	127
239.30408163265307	239.54789115646258	63	127
239.54789115646258	239.83814058956915	77	127
239.54789115646258	239.83814058956915	65	127
239.83814058956915	240.12839002267575	79	127
239.83814058956915	240.12839002267575	67	127
240.12839002267575	240.39541950113377	68	127
240.12839002267575	240.39541950113377	80	127
240.39541950113377	240.61600907029478	70	127
240.39541950113377	240.61600907029478	82	127
240.61600907029478	240.90625850340135	72	127
240.61600907029478	240.90625850340135	84	127
240.90625850340135	241.16167800453513	73	127
240.90625850340135	241.16167800453513	85	127
241.16167800453513	241.41709750566892	87	127
241.16167800453513	241.41709750566892	75	127
241.41709750566892	241.6492970521542	89	127
241.41709750566892	241.6492970521542	77	127
241.6492970521542	241.84666666666666	75	127
241.6492970521542	241.84666666666666	87	127
241.84666666666666	242.06725623582767	85	127
241.84666666666666	242.06725623582767	73	127
242.06725623582767	242.32267573696146	72	127
242.06725623582767	242.32267573696146	84	127
242.32267573696146	242.57809523809524	70	127
242.32267573696146	242.57809523809524	82	127
242.57809523809524	242.83351473922903	68	127
242.57809523809524	242.83351473922903	80	127
242.83351473922903	243.08893424036282	79	127
242.83351473922903	243.08893424036282	67	127
243.08893424036282	243.32113378684807	68	127
243.08893424036282	243.32113378684807	80	127
243.32113378684807	243.56494331065758	82	127
243.32113378684807	243.56494331065758	70	127
243.56494331065758	243.83197278911564	72	127
243.56494331065758	243.83197278911564	84	127
243.83197278911564	244.13383219954648	85	127
243.83197278911564	244.13383219954648	73	127
244.13383219954648	244.38925170068026	72	127
244.13383219954648	244.38925170068026	84	127
244.38925170068026	244.6911111111111	70	127
244.38925170068026	244.6911111111111	82	127
244.6911111111111	244.99297052154196	68	127
244.6911111111111	244.99297052154196	80	127
244.99297052154196	245.28321995464853	79	127
244.99297052154196	245.28321995464853	67	127
245.28321995464853	245.56185941043083	65	127
245.28321995464853	245.56185941043083	77	127
245.56185941043083	246.11913832199548	75	127
245.56185941043083	246.11913832199548	63	127
246.11913832199548	246.49065759637188	73	127
246.11913832199548	246.49065759637188	61	127
246.5487074829932	247.82580498866213	56	127
246.5487074829932	247.44267573696146	72	127
246.5487074829932	247.82580498866213	60	127
247.82580498866213	248.73138321995464	63	127
247.82580498866213	248.73138321995464	72	127
247.82580498866213	249.02163265306123	44	127
247.82580498866213	249.02163265306123	56	127
249.02163265306123	250.8560090702948	46	127
249.02163265306123	250.33356009070295	72	127
249.02163265306123	250.8560090702948	53	127
249.02163265306123	250.8560090702948	61	127
250.33356009070295	251.12303854875285	70	127
251.12303854875285	251.36684807256236	68	127
251.47133786848073	252.06344671201813	68	127
251.47133786848073	252.3304761904762	51	127
251.47133786848073	252.3304761904762	58	127
252.06344671201813	252.58589569160998	67	127
252.58589569160998	253.13156462585033	58	127
252.58589569160998	253.13156462585033	65	127
252.58589569160998	253.38698412698412	49	127
252.58589569160998	253.38698412698412	51	127
253.13156462585033	253.56113378684807	67	127
253.70045351473922	254.73374149659864	68	127
253.70045351473922	254.97755102040816	48	127
253.70045351473922	254.97755102040816	51	127
253.70045351473922	254.97755102040816	60	127
254.73374149659864	255.23297052154194	63	127
255.91795918367347	256.7654875283447	75	127
255.91795918367347	257.5897959183674	56	127
255.91795918367347	257.5897959183674	60	127
255.91795918367347	256.7654875283447	72	127
257.02090702947845	257.92648526077096	75	127
257.02090702947845	257.92648526077096	72	127
257.5897959183674	258.19351473922904	57	127
257.5897959183674	258.19351473922904	60	127
258.19351473922904	258.7043537414966	58	127
258.19351473922904	258.7043537414966	61	127
258.19351473922904	259.83052154195013	72	127
258.19351473922904	259.83052154195013	75	127
258.7043537414966	259.3428798185941	60	127
258.7043537414966	259.3428798185941	63	127
259.3428798185941	261.01473922902494	65	127
259.3428798185941	261.01473922902494	61	127
259.83052154195013	260.4458503401361	70	127
259.83052154195013	260.4458503401361	73	127
260.4458503401361	260.68965986394556	72	127
260.4458503401361	260.68965986394556	69	127
260.68965986394556	261.01473922902494	70	127
260.68965986394556	261.01473922902494	73	127
261.01473922902494	261.3049886621315	75	127
261.01473922902494	261.3049886621315	72	127
261.3049886621315	261.6648979591837	73	127
261.3049886621315	261.6648979591837	70	127
261.6648979591837	262.55886621315193	58	127
261.6648979591837	262.55886621315193	61	127
261.6648979591837	262.55886621315193	73	127
261.6648979591837	262.55886621315193	77	127
262.55886621315193	262.8491156462585	61	127
262.55886621315193	262.8491156462585	65	127
262.55886621315193	262.8491156462585	70	127
262.55886621315193	262.8491156462585	73	127
262.9303854875283	263.9172335600907	63	127
262.9303854875283	263.9172335600907	68	127
262.9303854875283	263.9172335600907	72	127
263.9172335600907	264.40485260770976	51	127
263.9172335600907	264.40485260770976	67	127
263.9172335600907	264.40485260770976	70	127
265.04340136054424	266.1463492063492	60	127
265.04340136054424	265.8792970521542	63	127
265.04340136054424	265.8792970521542	72	127
265.04340136054424	266.1463492063492	56	127
266.1463492063492	267.0170975056689	56	127
266.1463492063492	267.0170975056689	68	127
266.1463492063492	267.0170975056689	53	127
266.1463492063492	267.0170975056689	72	127
267.330566893424	269.2810430839002	56	127
267.330566893424	268.4451020408163	72	127
267.330566893424	269.2810430839002	50	127
267.330566893424	269.2810430839002	65	127
268.4451020408163	268.7237641723356	70	127
268.7237641723356	270.8948072562358	77	127
269.8267120181406	271.3708390022676	50	127
269.8267120181406	271.3708390022676	46	127
270.8948072562358	271.1154195011338	75	127
271.1154195011338	271.3708390022676	74	127
271.3708390022676	271.80040816326533	48	127
271.3708390022676	271.80040816326533	51	127
271.3708390022676	271.80040816326533	72	127
271.80040816326533	272.0558276643991	53	127
271.80040816326533	272.0558276643991	50	127
271.80040816326533	272.0558276643991	70	127
272.1370975056689	273.24002267573695	68	127
272.1370975056689	273.39097505668934	51	127
272.1370975056689	273.39097505668934	55	127
273.24002267573695	273.73927437641726	67	127
274.38943310657595	275.19049886621315	55	127
274.38943310657595	275.19049886621315	58	127
274.38943310657595	275.56204081632654	63	127
274.38943310657595	275.56204081632654	70	127
275.56204081632654	276.4443990929705	58	127
275.56204081632654	276.4443990929705	61	127
275.56204081632654	276.69981859410433	64	127
275.56204081632654	276.4443990929705	55	127
275.56204081632654	275.9103401360544	72	127
275.9103401360544	276.1309297052154	70	127
276.1309297052154	276.4443990929705	68	127
276.4443990929705	276.60693877551023	67	127
276.69981859410433	278.29038548752834	56	127
276.69981859410433	278.29038548752834	60	127
276.69981859410433	277.73310657596375	65	127
277.73310657596375	277.8608163265306	67	127
277.8608163265306	278.0001360544218	65	127
278.0001360544218	278.1278458049887	64	127
278.1278458049887	278.29038548752834	65	127
278.29038548752834	278.69673469387754	55	127
278.29038548752834	278.69673469387754	58	127
278.29038548752834	278.69673469387754	67	127
278.69673469387754	278.9057142857143	53	127
278.69673469387754	278.9057142857143	56	127
278.69673469387754	278.9057142857143	68	127
278.96374149659863	279.9738321995465	67	127
278.96374149659863	279.9738321995465	58	127
278.96374149659863	279.9738321995465	63	127
280.171201814059	280.32213151927436	67	127
280.171201814059	281.2857596371882	46	127
280.171201814059	281.2857596371882	56	127
280.171201814059	281.2857596371882	62	127
280.171201814059	281.2857596371882	34	127
280.32213151927436	281.1115873015873	65	127
281.2857596371882	281.4715192743764	63	127
281.5179591836735	283.7122448979592	51	127
281.5179591836735	282.96920634920633	63	127
281.5179591836735	283.7122448979592	39	127
281.5179591836735	282.96920634920633	55	127
282.96920634920633	284.09537414965985	55	127
282.96920634920633	284.09537414965985	58	127
282.96920634920633	284.09537414965985	61	127
284.35079365079366	284.7339229024943	56	127
284.35079365079366	284.7339229024943	51	127
284.35079365079366	284.7339229024943	60	127
284.49009070294784	284.6178231292517	32	127
284.6178231292517	284.7339229024943	34	127
284.7339229024943	284.8732426303855	36	127
284.8732426303855	285.0125623582766	37	127
285.0125623582766	285.1518820861678	39	127
285.1518820861678	285.30278911564625	41	127
285.30278911564625	285.4072789115646	43	127
285.4072789115646	285.5698412698413	44	127
285.5698412698413	285.6975510204082	46	127
285.6975510204082	285.8252380952381	48	127
285.8252380952381	285.9413605442177	46	127
285.9413605442177	286.0690702947846	44	127
286.0690702947846	286.2315873015873	43	127
286.2315873015873	286.3477097505669	41	127
286.3477097505669	286.48702947845806	39	127
286.48702947845806	286.85854875283445	37	127
286.5915192743764	286.7308390022676	49	127
286.7308390022676	286.85854875283445	51	127
286.85854875283445	286.99786848072563	53	127
286.99786848072563	287.1371882086168	55	127
287.1371882086168	287.26489795918366	57	127
287.26489795918366	287.39260770975056	58	127
287.39260770975056	287.53192743764174	60	127
287.53192743764174	287.65961451247165	61	127
287.65961451247165	287.79895691609977	63	127
287.79895691609977	287.93827664399095	65	127
287.93827664399095	288.06596371882085	63	127
288.06596371882085	288.1936961451247	61	127
288.1936961451247	288.30979591836734	60	127
288.30979591836734	288.4491156462585	58	127
288.4491156462585	288.5536054421769	56	127
288.5536054421769	288.9599546485261	55	127
288.6812925170068	288.8322448979592	39	127
288.8322448979592	288.9599546485261	41	127
288.9599546485261	289.07605442176873	43	127
289.07605442176873	289.2037641723356	44	127
289.2037641723356	289.34308390022676	46	127
289.34308390022676	289.47079365079367	48	127
289.47079365079367	289.5984807256236	50	127
289.5984807256236	289.7262131519274	51	127
289.7262131519274	289.87714285714287	53	127
289.87714285714287	289.98163265306124	51	127
289.98163265306124	290.0977324263039	53	127
290.0977324263039	290.237052154195	49	127
290.237052154195	290.35315192743764	51	127
290.35315192743764	290.5040816326531	49	127
290.5040816326531	290.63179138321993	51	127
290.63179138321993	290.9684807256236	48	127
290.75950113378684	290.8639909297052	56	127
290.8639909297052	290.9684807256236	58	127
290.9684807256236	291.0845804988662	60	127
291.0845804988662	291.23548752834466	61	127
291.23548752834466	291.3632199546485	63	127
291.3632199546485	291.4909297052154	65	127
291.4909297052154	291.60702947845806	67	127
291.60702947845806	291.7231292517007	68	127
291.7231292517007	291.8508163265306	72	127
291.8508163265306	291.9901587301587	70	127
291.9901587301587	292.15267573696144	68	127
292.15267573696144	292.3152380952381	67	127
292.3152380952381	292.43133786848074	65	127
292.43133786848074	292.55904761904765	63	127
292.55904761904765	292.6867573696145	61	127
292.6867573696145	292.7796371882086	60	127
292.8144671201814	292.9421768707483	33	127
292.8144671201814	292.9421768707483	48	127
292.9421768707483	293.0814739229025	34	127
292.9421768707483	293.0814739229025	49	127
293.0814739229025	293.20920634920634	51	127
293.0814739229025	293.20920634920634	36	127
293.20920634920634	293.33691609977325	37	127
293.20920634920634	293.33691609977325	53	127
293.33691609977325	293.46462585034016	39	127
293.33691609977325	293.46462585034016	55	127
293.46462585034016	293.59231292517006	41	127
293.46462585034016	293.59231292517006	57	127
293.59231292517006	293.74326530612245	43	127
293.59231292517006	293.74326530612245	58	127
293.74326530612245	293.87097505668936	45	127
293.74326530612245	293.87097505668936	60	127
293.87097505668936	294.0102947845805	61	127
293.87097505668936	294.0102947845805	46	127
294.0102947845805	294.1263945578231	63	127
294.0102947845805	294.1263945578231	48	127
294.1263945578231	294.24249433106576	65	127
294.1263945578231	294.24249433106576	49	127
294.24249433106576	294.38181405895693	67	127
294.24249433106576	294.38181405895693	51	127
294.38181405895693	294.50950113378684	53	127
294.38181405895693	294.50950113378684	69	127
294.50950113378684	294.64884353741496	70	127
294.50950113378684	294.64884353741496	55	127
294.64884353741496	294.7649433106576	56	127
294.64884353741496	294.7649433106576	72	127
294.7649433106576	294.78816326530614	73	127
294.7649433106576	294.78816326530614	58	127
294.86943310657597	294.9855328798186	61	127
294.86943310657597	294.9855328798186	46	127
295.0203401360544	295.136462585034	65	127
295.0203401360544	295.136462585034	49	127
295.1712925170068	295.28739229024944	61	127
295.1712925170068	295.28739229024944	46	127
295.3338095238095	295.4499319727891	65	127
295.3338095238095	295.4499319727891	49	127
295.4847619047619	295.5892517006803	61	127
295.4847619047619	295.5892517006803	46	127
295.6240816326531	295.72857142857146	65	127
295.6240816326531	295.72857142857146	49	127
295.75179138321994	295.8446485260771	61	127
295.75179138321994	295.8446485260771	46	127
295.8678911564626	295.9607709750567	65	127
295.8678911564626	295.9607709750567	49	127
295.9956009070295	296.10009070294785	46	127
295.9956009070295	296.10009070294785	61	127
296.13492063492066	296.22780045351476	65	127
296.13492063492066	296.22780045351476	49	127
296.2626303854875	296.3671201814059	46	127
296.2626303854875	296.3671201814059	61	127
296.4019501133787	296.4948299319728	49	127
296.4019501133787	296.4948299319728	65	127
296.5296598639456	296.63414965986397	61	127
296.5296598639456	296.63414965986397	46	127
296.6689795918367	296.73863945578233	49	127
296.6689795918367	296.73863945578233	65	127
296.7618367346939	296.87795918367345	46	127
296.7618367346939	296.87795918367345	61	127
296.92439909297053	297.0288888888889	34	127
296.92439909297053	297.0288888888889	53	127
297.0636961451247	297.1565986394558	61	127
297.0636961451247	297.1565986394558	46	127
297.19142857142856	297.28430839002266	34	127
297.19142857142856	297.28430839002266	53	127
297.3075283446712	297.4004081632653	46	127
297.3075283446712	297.4004081632653	61	127
297.4352380952381	297.51650793650794	34	127
297.4352380952381	297.51650793650794	53	127
297.562947845805	297.67902494331065	61	127
297.562947845805	297.67902494331065	46	127
297.70226757369613	297.8067573696145	53	127
297.70226757369613	297.8067573696145	34	127
297.8415873015873	297.92285714285714	61	127
297.8415873015873	297.92285714285714	46	127
297.95768707482995	298.05056689342405	58	127
297.95768707482995	298.05056689342405	37	127
298.08537414965986	298.17827664399096	49	127
298.08537414965986	298.17827664399096	65	127
298.2131065759637	298.3059863945578	37	127
298.2131065759637	298.3059863945578	58	127
298.3408163265306	298.4336961451247	65	127
298.3408163265306	298.4336961451247	49	127
298.4685260770975	298.5730158730159	34	127
298.4685260770975	298.5730158730159	53	127
298.59621315192743	298.7007029478458	61	127
298.59621315192743	298.7007029478458	46	127
298.7239455782313	298.82843537414965	34	127
298.7239455782313	298.82843537414965	53	127
298.886485260771	299.0141723356009	61	127
298.886485260771	299.0141723356009	46	127
299.04902494331066	300.17519274376417	56	127
299.04902494331066	300.17519274376417	60	127
299.23478458049885	299.36249433106576	39	127
299.36249433106576	299.49020408163267	41	127
299.49020408163267	299.6295238095238	43	127
299.6295238095238	299.76884353741497	44	127
299.76884353741497	299.90816326530614	46	127
299.90816326530614	300.03585034013605	48	127
300.03585034013605	300.17519274376417	50	127
300.17519274376417	300.3029024943311	51	127
300.17519274376417	300.55832199546484	55	127
300.17519274376417	300.55832199546484	58	127
300.3029024943311	300.430612244898	50	127
300.430612244898	300.55832199546484	51	127
300.55832199546484	300.68603174603174	53	127
300.68603174603174	300.81374149659865	51	127
300.81374149659865	300.96467120181404	49	127
300.96467120181404	301.1039909297052	48	127
301.138820861678	301.25489795918367	46	127
301.25489795918367	301.3826303854875	44	127
301.25489795918367	302.021179138322	51	127
301.25489795918367	302.021179138322	56	127
301.25489795918367	302.021179138322	60	127
301.3826303854875	301.5219501133787	32	127
301.5219501133787	301.63804988662133	34	127
301.63804988662133	301.77736961451245	36	127
301.77736961451245	301.8934693877551	37	127
301.8934693877551	302.021179138322	39	127
302.021179138322	302.1488888888889	41	127
302.1488888888889	302.28820861678	43	127
302.28820861678	303.0660770975057	51	127
302.28820861678	302.45074829931974	44	127
302.28820861678	303.0660770975057	60	127
302.28820861678	303.0660770975057	56	127
302.45074829931974	302.5668480725624	46	127
302.5668480725624	302.6945351473923	48	127
302.6945351473923	302.8338775510204	46	127
302.8338775510204	302.94997732426305	44	127
302.94997732426305	303.0660770975057	43	127
303.0660770975057	303.1937641723356	41	127
303.1937641723356	303.32149659863944	39	127
303.32149659863944	303.44920634920635	56	127
303.32149659863944	303.44920634920635	53	127
303.32149659863944	303.44920634920635	58	127
303.32149659863944	303.76267573696146	38	127
303.4724263038549	303.6001360544218	46	127
303.6233560090703	303.72784580498865	48	127
303.76267573696146	303.8439455782313	50	127
303.8787755102041	303.9716553287982	51	127
304.006485260771	304.0993650793651	53	127
304.13419501133785	304.227052154195	55	127
304.2851247165533	304.40122448979594	57	127
304.4360544217687	304.54054421768706	58	127
304.5637641723356	304.66825396825396	60	127
304.7030839002268	304.7959637188209	62	127
304.8307709750567	304.9236734693878	63	127
304.95850340136053	305.05138321995463	65	127
305.08621315192744	305.17909297052154	67	127
305.21392290249435	305.2371428571429	68	127
305.26036281179137	305.36485260770974	69	127
305.3880725623583	305.7595691609977	70	127
305.5041723356009	305.597052154195	34	127
305.6318820861678	305.7247619047619	36	127
305.7595691609977	305.84086167800456	38	127
305.8756916099773	305.9685714285714	39	127
306.0034013605442	306.0962811791383	41	127
306.1311111111111	306.2356009070295	43	127
306.25882086167803	306.3632879818594	45	127
306.3865306122449	306.5026303854875	46	127
306.53746031746033	306.61873015873016	45	127
306.65356009070297	306.74643990929707	46	127
306.7812471655329	306.874126984127	48	127
306.9089795918367	307.0018594104308	49	127
307.03668934240363	307.11795918367346	46	127
307.141179138322	307.25727891156464	48	127
307.2804988662132	307.38496598639455	49	127
307.4198185941043	307.50108843537413	51	127
307.5475283446712	307.6752380952381	51	127
307.71006802721087	307.802925170068	53	127
307.8377777777778	307.94226757369614	55	127
307.97709750566895	308.06997732426305	56	127
308.0931972789116	308.19768707482996	58	127
308.22090702947844	308.29056689342406	60	127
308.3137641723356	308.38344671201816	62	127
308.41825396825396	308.5227664399093	63	127
308.5575963718821	308.6504761904762	65	127
308.685306122449	308.7781859410431	67	127
308.8130158730159	308.91750566893427	68	127
308.952335600907	309.0800453514739	70	127
309.0916553287982	309.19614512471657	68	127
309.2309523809524	309.3238548752835	67	127
309.3702947845805	309.4631746031746	65	127
309.4980045351474	309.8462811791383	63	127
309.61410430839004	309.69537414965987	31	127
309.7185941043084	309.8114739229025	32	127
309.8462811791383	309.9507709750567	34	127
309.97401360544217	310.07850340136054	36	127
310.1017233560091	310.2178231292517	38	127
310.2526303854875	310.3687528344671	39	127
310.4035827664399	310.5080725623583	41	127
310.5429024943311	310.6357823129252	43	127
310.67061224489794	310.7634693877551	44	127
310.8099319727891	310.92603174603175	46	127
310.9492517006803	311.06535147392293	48	127
311.0885714285714	311.1930612244898	46	127
311.2278911564626	311.3091609977324	48	127
311.3439909297052	311.4484807256236	50	127
311.4832879818594	311.5761904761905	51	127
311.6342403628118	312.84167800453514	32	127
311.6342403628118	312.84167800453514	44	127
311.78514739229024	311.8896371882086	48	127
311.92448979591836	312.02897959183673	53	127
312.05219954648527	312.15668934240364	56	127
312.19149659863945	312.28439909297055	60	127
312.307619047619	312.4004761904762	53	127
312.43532879818594	312.5514285714286	56	127
312.5862585034014	312.6791383219955	60	127
312.7139455782313	312.8068253968254	65	127
312.84167800453514	312.9461678004535	56	127
312.96938775510205	313.06226757369615	60	127
313.09709750566896	313.1783673469388	65	127
313.22478458049886	313.3525170068027	68	127
313.22478458049886	313.7008163265306	29	127
313.22478458049886	313.7008163265306	41	127
313.3873469387755	313.4802267573696	65	127
313.5498866213152	313.65437641723355	60	127
313.7008163265306	313.8633560090703	56	127
313.8981859410431	314.7108843537415	46	127
313.8981859410431	314.7108843537415	34	127
314.0374829931973	314.15360544217685	55	127
314.1768253968254	314.28131519274376	58	127
314.31614512471657	314.42063492063494	55	127
314.4554648526077	314.54832199546485	63	127
314.5715646258503	314.6644444444444	55	127
314.7108843537415	314.82698412698414	58	127
314.8618140589569	314.97791383219953	55	127
315.0011337868481	315.9879818594104	46	127
315.0011337868481	315.9879818594104	34	127
315.1172335600907	315.26814058956916	56	127
315.3146031746032	315.41909297052155	58	127
315.47714285714284	315.69773242630384	56	127
315.73256235827665	315.82544217687075	62	127
315.86027210884356	315.95315192743766	56	127
315.9879818594104	316.0924716553288	58	127
316.1273015873016	316.41755102040815	56	127
316.4407709750567	316.95160997732427	39	127
316.4407709750567	316.95160997732427	51	127
316.4407709750567	316.63814058956916	55	127
316.67297052154197	316.77746031746034	51	127
316.8122902494331	316.90514739229025	53	127
316.95160997732427	317.1025170068027	55	127
317.14897959183673	317.2534693877551	56	127
317.2882993197279	317.381179138322	58	127
317.4159863945578	317.5321088435374	60	127
317.55532879818594	317.6598185941043	62	127
317.6946485260771	317.74108843537414	65	127
317.7526984126984	317.7991383219955	63	127
317.83396825396824	317.9500680272109	62	127
317.9848979591837	318.0777777777778	63	127
318.14743764172334	318.263537414966	65	127
318.30997732426306	318.3564172335601	68	127
318.3796371882086	318.46090702947845	67	127
318.4725170068027	318.6118367346939	65	127
318.63503401360543	318.77437641723355	67	127
318.7975963718821	319.0529931972789	68	127
319.08784580498866	319.7031746031746	55	127
319.08784580498866	319.9353741496599	70	127
319.7031746031746	320.13274376417235	51	127
320.13274376417235	320.66680272108846	55	127
320.13274376417235	321.0151020408163	70	127
320.66680272108846	321.25891156462586	51	127
321.0151020408163	321.25891156462586	71	127
321.25891156462586	321.76975056689344	56	127
321.25891156462586	322.2921995464853	72	127
321.76975056689344	322.2921995464853	51	127
322.2921995464853	322.6288662131519	68	127
322.2921995464853	322.7565986394558	60	127
322.7565986394558	323.3719274376417	51	127
323.02362811791386	323.30226757369616	70	127
323.3719274376417	323.94081632653064	56	127
323.3719274376417	324.4168253968254	72	127
323.94081632653064	324.4168253968254	51	127
324.4168253968254	324.93927437641725	56	127
324.4168253968254	324.68385487528343	73	127
324.68385487528343	324.93927437641725	72	127
324.93927437641725	325.21791383219954	70	127
324.93927437641725	325.4617233560091	57	127
325.21791383219954	325.40367346938774	72	127
325.4617233560091	325.9493424036281	58	127
325.4617233560091	326.4601814058957	73	127
325.9493424036281	326.4601814058957	51	127
326.4601814058957	326.8200680272109	70	127
326.4601814058957	326.92455782312925	55	127
326.92455782312925	327.48185941043084	51	127
327.1916099773243	327.42378684807255	72	127
327.48185941043084	327.57473922902494	73	127
327.48185941043084	328.01591836734696	58	127
327.57473922902494	327.6560090702948	75	127
327.6560090702948	327.74888888888887	73	127
327.74888888888887	327.841746031746	75	127
327.841746031746	327.92303854875286	73	127
327.92303854875286	328.01591836734696	75	127
328.01591836734696	328.0971882086168	73	127
328.01591836734696	328.4919274376417	51	127
328.0971882086168	328.1784580498866	75	127
328.1784580498866	328.24809523809523	73	127
328.24809523809523	328.34099773242633	75	127
328.34099773242633	328.3990476190476	73	127
328.3990476190476	328.4919274376417	75	127
328.4919274376417	329.0027664399093	59	127
328.4919274376417	328.5615873015873	74	127
328.5615873015873	328.64285714285717	75	127
328.64285714285717	328.7589342403628	74	127
328.7589342403628	328.84022675736963	75	127
328.84022675736963	328.944716553288	74	127
328.944716553288	329.0027664399093	75	127
329.0027664399093	329.0956462585034	74	127
329.0027664399093	329.5019954648526	51	127
329.0956462585034	329.165283446712	75	127
329.165283446712	329.23496598639457	74	127
329.23496598639457	329.32784580498867	75	127
329.32784580498867	329.4091156462585	74	127
329.4091156462585	329.5019954648526	75	127
329.5019954648526	329.5716326530612	75	127
329.5019954648526	330.0128344671202	60	127
329.5716326530612	329.65292517006804	77	127
329.65292517006804	329.74580498866214	75	127
329.74580498866214	329.83868480725624	77	127
329.83868480725624	329.93156462585034	75	127
329.93156462585034	330.0128344671202	77	127
330.0128344671202	330.10571428571427	75	127
330.0128344671202	330.5468934240363	63	127
330.10571428571427	330.18696145124716	77	127
330.18696145124716	330.2566439909297	75	127
330.2566439909297	330.3495238095238	77	127
330.3495238095238	330.43079365079365	74	127
330.43079365079365	330.5468934240363	75	127
330.5468934240363	331.0809523809524	60	127
330.5468934240363	330.8255328798186	80	127
330.8255328798186	331.0809523809524	79	127
331.0809523809524	331.37120181405896	77	127
331.0809523809524	331.6265986394558	56	127
331.37120181405896	331.6265986394558	75	127
331.6265986394558	331.84721088435373	75	127
331.6265986394558	332.1142403628118	55	127
331.84721088435373	331.9052607709751	73	127
332.1142403628118	332.6134693877551	51	127
332.1142403628118	332.19551020408164	73	127
332.36965986394557	332.4392970521542	73	127
332.6134693877551	332.9037188208617	73	127
332.6134693877551	333.19396825396825	56	127
332.9037188208617	332.9849886621315	72	127
333.19396825396825	333.5654648526077	60	127
333.19396825396825	333.26360544217687	72	127
333.4377777777778	333.4958276643991	72	127
333.72802721088436	334.14598639455784	63	127
333.72802721088436	334.8541950113379	72	127
334.3433560090703	334.7497052154195	51	127
334.8541950113379	335.3766439909297	70	127
334.8541950113379	335.2489342403628	51	127
335.3766439909297	335.7946031746032	51	127
335.3766439909297	335.91068027210883	63	127
335.3766439909297	335.91068027210883	67	127
335.3766439909297	335.91068027210883	71	127
335.91068027210883	336.7466213151927	63	127
335.91068027210883	336.7466213151927	68	127
335.91068027210883	336.7466213151927	72	127
335.91068027210883	337.199410430839	44	127
335.91068027210883	337.199410430839	56	127
337.199410430839	338.16301587301587	63	127
337.199410430839	338.16301587301587	66	127
337.199410430839	338.16301587301587	72	127
337.199410430839	338.4184580498866	45	127
337.199410430839	338.4184580498866	57	127
338.4184580498866	339.6491156462585	61	127
338.4184580498866	339.50979591836733	72	127
338.4184580498866	339.6491156462585	65	127
338.4184580498866	340.0322448979592	46	127
338.4184580498866	340.0322448979592	58	127
339.50979591836733	340.33410430839	70	127
340.0322448979592	340.6011337868481	47	127
340.0322448979592	340.4734240362812	62	127
340.0322448979592	340.4734240362812	65	127
340.0322448979592	340.6011337868481	59	127
340.33410430839	340.5314739229025	68	127
340.6011337868481	341.21646258503404	65	127
340.6011337868481	341.21646258503404	68	127
340.6011337868481	341.48349206349206	48	127
340.6011337868481	341.48349206349206	60	127
341.21646258503404	341.7388888888889	64	127
341.21646258503404	341.7388888888889	67	127
341.7388888888889	342.26136054421767	65	127
341.7388888888889	342.26136054421767	62	127
341.7388888888889	342.6328798185941	46	127
341.7388888888889	342.6328798185941	58	127
342.26136054421767	342.760566893424	64	127
342.26136054421767	342.760566893424	67	127
342.8766893424036	344.0492970521542	68	127
342.8766893424036	344.0492970521542	65	127
342.8766893424036	344.0492970521542	41	127
342.8766893424036	344.0492970521542	53	127
342.8766893424036	344.0492970521542	56	127
344.0492970521542	345.4889342403628	55	127
344.0492970521542	345.19868480725626	58	127
344.0492970521542	345.19868480725626	63	127
344.0492970521542	345.19868480725626	70	127
344.0492970521542	345.4889342403628	43	127
344.0492970521542	345.4889342403628	51	127
345.4889342403628	346.42934240362814	75	127
345.4889342403628	346.42934240362814	72	127
345.4889342403628	346.97501133786847	44	127
345.4889342403628	346.97501133786847	56	127
346.69637188208617	347.52068027210885	75	127
346.97501133786847	347.2652380952381	56	127
346.97501133786847	347.2652380952381	60	127
347.2652380952381	347.52068027210885	58	127
347.2652380952381	347.52068027210885	61	127
347.52068027210885	347.79931972789115	63	127
347.52068027210885	347.79931972789115	60	127
347.9386394557823	348.2172789115646	75	127
347.9386394557823	348.5075283446712	61	127
347.9386394557823	348.5075283446712	65	127
348.2172789115646	348.5075283446712	73	127
348.5075283446712	348.73972789115646	63	127
348.5075283446712	348.73972789115646	66	127
348.5075283446712	348.73972789115646	72	127
348.73972789115646	349.00673469387755	61	127
348.73972789115646	349.00673469387755	65	127
348.73972789115646	349.00673469387755	73	127
349.00673469387755	349.28539682539684	66	127
349.00673469387755	349.28539682539684	72	127
349.00673469387755	349.28539682539684	63	127
349.28539682539684	349.56403628117914	61	127
349.28539682539684	349.56403628117914	65	127
349.28539682539684	349.56403628117914	73	127
349.56403628117914	349.8542857142857	75	127
349.56403628117914	349.8542857142857	60	127
349.56403628117914	349.8542857142857	63	127
349.8542857142857	350.0516553287982	61	127
349.8542857142857	350.0516553287982	58	127
349.8542857142857	350.0516553287982	77	127
350.13290249433106	351.2707029478458	51	127
350.13290249433106	350.22578231292516	68	127
350.13290249433106	350.6785941043084	63	127
350.22578231292516	350.33027210884353	70	127
350.33027210884353	350.42317460317463	68	127
350.42317460317463	350.50444444444446	70	127
350.50444444444446	350.59732426303856	68	127
350.59732426303856	350.6785941043084	70	127
350.6785941043084	350.794693877551	68	127
350.6785941043084	351.2707029478458	60	127
350.794693877551	350.8991836734694	70	127
350.8991836734694	351.01528344671203	68	127
351.01528344671203	351.1197732426304	67	127
351.1197732426304	351.2707029478458	68	127
351.2707029478458	352.4433106575964	67	127
351.2707029478458	352.4433106575964	51	127
351.2707029478458	351.7699319727891	58	127
351.2707029478458	352.0369614512472	72	127
351.7699319727891	352.17625850340136	61	127
352.0369614512472	352.3039909297052	70	127
352.4433106575964	353.01219954648525	56	127
352.4433106575964	353.01219954648525	60	127
352.4433106575964	353.01219954648525	68	127
355.0091156462585	355.4502947845805	39	127
355.18326530612245	355.2877551020408	51	127
355.3225850340136	355.427074829932	55	127
355.4502947845805	355.5663945578231	58	127
355.58961451247166	355.71732426303856	63	127
355.75213151927437	355.85662131519274	58	127
355.90308390022676	355.99596371882086	55	127
356.03079365079367	356.08884353741496	51	127
356.12367346938777	356.1584807256236	63	127
356.18172335600906	356.35587301587304	58	127
356.3790929705215	356.49519274376416	55	127
356.5184126984127	356.63451247165534	51	127
356.7041723356009	356.797052154195	63	127
356.8318820861678	356.971179138322	59	127
357.00603174603174	357.13374149659865	55	127
357.16857142857145	357.2730612244898	51	127
357.3078911564626	357.7374603174603	63	127
357.458820861678	357.5865079365079	39	127
357.6097505668934	357.7026303854875	44	127
357.7374603174603	357.8303401360544	48	127
357.8651700680272	357.9580498866213	51	127
357.98126984126986	358.0625396825397	48	127
358.0973469387755	358.1902494331066	44	127
358.22507936507935	358.31795918367345	39	127
358.36439909297053	358.4688888888889	51	127
358.5036961451247	358.63142857142856	48	127
358.66625850340137	358.77074829931973	44	127
358.8171655328798	358.94489795918366	39	127
358.9681179138322	359.08421768707484	51	127
359.14226757369613	359.2467573696145	48	127
359.2815873015873	359.3860770975057	44	127
359.4209070294785	359.5718367346939	39	127
359.5950566893424	359.9781859410431	51	127
359.7227664399093	359.8272562358277	51	127
359.86208616780044	359.9433333333333	56	127
359.9781859410431	360.0710657596372	60	127
360.10589569161	360.1987755102041	63	127
360.2336054421769	360.3148752834467	60	127
360.34968253968253	360.4541723356009	56	127
360.4774149659864	360.58190476190475	51	127
360.6051247165533	360.70961451247166	63	127
360.74444444444447	360.8257142857143	60	127
360.8605215419501	360.9534240362812	56	127
360.98825396825396	361.08113378684806	51	127
361.11596371882086	361.20884353741496	63	127
361.25528344671204	361.3597732426304	60	127
361.39460317460316	361.48748299319726	57	127
361.5107029478458	361.61519274376417	51	127
361.650022675737	362.03315192743764	63	127
361.75451247165535	361.84739229024945	39	127
361.917052154195	361.99832199546483	46	127
362.03315192743764	362.1144217687075	49	127
362.1492517006803	362.2769614512472	51	127
362.31179138321994	362.4162811791383	49	127
362.43950113378685	362.5439909297052	46	127
362.578820861678	362.6717006802721	39	127
362.71814058956915	362.8574603174603	49	127
362.89229024943313	362.9967800453515	46	127
363.03160997732425	363.12448979591835	43	127
363.15931972789116	363.25219954648526	37	127
363.28702947845807	363.4031292517007	48	127
363.4263492063492	363.5540589569161	44	127
363.6004988662132	363.70498866213154	39	127
363.7398185941043	363.8326984126984	36	127
363.8675283446712	364.9472335600907	34	127
363.8675283446712	364.9472335600907	46	127
364.0068480725624	364.0997278911565	51	127
364.1461678004535	364.23902494331065	63	127
364.2854875283447	364.4015873015873	51	127
364.42480725623585	364.5408843537415	63	127
364.564126984127	364.66861678004534	51	127
364.70344671201815	364.784716553288	63	127
364.8195464852608	364.9124263038549	51	127
364.9472335600907	366.06181405895694	35	127
364.9472335600907	365.0401360544218	63	127
364.9472335600907	366.06181405895694	47	127
365.07496598639455	365.16784580498864	51	127
365.20267573696145	365.29555555555555	63	127
365.33038548752836	365.4697052154195	51	127
365.492925170068	365.60902494331066	63	127
365.64385487528347	365.7599546485261	51	127
365.79478458049886	365.88766439909296	63	127
365.93410430839003	366.02698412698413	51	127
366.06181405895694	366.5726530612245	48	127
366.06181405895694	366.1895238095238	63	127
366.06181405895694	366.5726530612245	36	127
366.1895238095238	366.30562358276643	51	127
366.30562358276643	366.43333333333334	56	127
366.43333333333334	366.5726530612245	60	127
366.5726530612245	367.0718820861678	51	127
366.5726530612245	367.0718820861678	39	127
366.68873015873015	366.8280725623583	56	127
366.8280725623583	366.9557823129252	60	127
366.9557823129252	367.0718820861678	63	127
367.0718820861678	367.61755102040814	48	127
367.0718820861678	367.61755102040814	36	127
367.21120181405894	367.3505215419501	60	127
367.3505215419501	367.478231292517	63	127
367.478231292517	367.61755102040814	68	127
367.61755102040814	368.1748299319728	32	127
367.61755102040814	368.1748299319728	44	127
367.7568707482993	367.8845804988662	63	127
367.8845804988662	368.0238775510204	68	127
368.0238775510204	368.1748299319728	72	127
368.1748299319728	368.73208616780045	31	127
368.1748299319728	368.73208616780045	43	127
368.314149659864	368.4418594104308	63	127
368.4418594104308	368.59278911564627	70	127
368.59278911564627	368.73208616780045	73	127
368.73208616780045	369.2661678004535	39	127
368.73208616780045	369.2661678004535	27	127
368.8598185941043	368.9875283446712	58	127
368.9875283446712	369.1152380952381	61	127
369.1152380952381	369.2661678004535	63	127
369.2661678004535	369.8350566893424	44	127
369.2661678004535	369.8350566893424	32	127
369.3938775510204	369.5563945578231	56	127
369.5563945578231	369.6725170068027	60	127
369.6725170068027	369.8350566893424	63	127
369.8350566893424	370.64775510204083	48	127
369.8350566893424	370.64775510204083	36	127
369.96274376417233	370.0904761904762	56	127
370.0904761904762	370.2181859410431	60	127
370.2181859410431	370.64775510204083	63	127
370.64775510204083	371.92485260770974	39	127
370.83351473922903	370.94961451247167	51	127
370.9844217687075	371.0773242630386	56	127
371.1121541950113	371.2050340136054	60	127
371.23986394557824	371.33274376417233	63	127
371.36757369614514	371.46045351473924	60	127
371.49526077097505	371.5997505668934	56	127
371.6229931972789	371.72748299319727	51	127
371.7507029478458	371.8784126984127	63	127
371.92485260770974	372.01773242630384	58	127
372.05256235827665	372.1686621315193	55	127
372.2034693877551	372.2963718820862	51	127
372.33120181405894	372.4356916099773	63	127
372.33120181405894	372.72591836734694	39	127
372.4705215419501	372.5750113378685	59	127
372.598231292517	372.7027210884354	55	127
372.72591836734694	372.83043083900225	51	127
372.86526077097506	373.02777777777777	44	127
372.86526077097506	373.36448979591836	56	127
372.86526077097506	373.36448979591836	60	127
372.86526077097506	373.02777777777777	32	127
372.86526077097506	373.36448979591836	51	127
373.08585034013606	373.17873015873016	32	127
373.2367573696145	373.3296371882086	34	127
373.36448979591836	373.4689795918367	36	127
373.50380952380954	373.5734693877551	37	127
373.6082993197279	373.7360090702948	39	127
373.7592290249433	373.86371882086166	41	127
373.8985487528345	374.00303854875284	43	127
374.03786848072565	374.13074829931975	44	127
374.1655782312925	374.25843537414966	46	127
374.2932879818594	374.3977777777778	48	127
374.4326077097506	374.53709750566895	46	127
374.5602947845805	374.66478458049886	44	127
374.68802721088434	374.804126984127	43	127
374.8621541950113	374.9550566893424	41	127
374.9898866213152	375.07113378684807	39	127
375.1059863945578	375.4891156462585	37	127
375.2336961451247	375.3265759637188	50	127
375.36140589569163	375.45428571428573	51	127
375.4891156462585	375.58197278911564	53	127
375.6052154195011	375.7097052154195	55	127
375.73292517006803	375.81419501133786	57	127
375.84902494331067	375.9186848072562	58	127
375.95351473922904	376.03478458049887	60	127
376.0696145124717	376.1624943310658	61	127
376.1973015873016	376.2902040816327	63	127
376.32503401360543	376.4295238095238	65	127
376.45274376417234	376.5572335600907	63	127
376.58045351473925	376.6849433106576	61	127
376.71977324263037	376.8126303854875	60	127
376.8474829931973	376.9403628117914	58	127
376.98680272108845	377.0680725623583	56	127
377.11448979591836	377.4744217687075	55	127
377.2189795918367	377.3118820861678	39	127
377.3467120181406	377.45120181405895	41	127
377.4744217687075	377.5673015873016	43	127
377.5905215419501	377.6834013605442	44	127
377.71823129251703	377.81111111111113	46	127
377.8459410430839	377.93879818594104	48	127
377.98526077097506	378.07814058956916	50	127
378.11297052154197	378.21746031746034	51	127
378.2522902494331	378.3683900226757	53	127
378.39160997732426	378.48448979591836	51	127
378.5193197278912	378.6121995464853	53	127
378.6470068027211	378.75149659863945	49	127
378.7863492063492	378.8792290249433	51	127
378.9140589569161	379.03015873015875	49	127
379.06496598639455	379.15784580498865	51	127
379.1926984126984	379.6338775510204	48	127
379.3320181405896	379.47131519274376	56	127
379.49455782312924	379.5990476190476	58	127
379.6338775510204	379.7267573696145	60	127
379.7615873015873	379.8544671201814	61	127
379.8892970521542	379.98215419501133	63	127
380.0170068027211	380.07505668934243	65	127
380.1098866213152	380.1795238095238	67	127
380.2027664399093	380.2956462585034	68	127
380.3188662131519	380.43496598639456	72	127
380.46979591836737	380.56267573696147	70	127
380.5975056689342	380.6903854875283	68	127
380.7252154195011	380.8180952380952	67	127
380.8645351473923	380.9574149659864	65	127
381.0038548752834	381.11995464852606	63	127
381.16639455782314	381.2824943310658	61	127
381.30571428571426	381.3637641723356	60	127
381.38698412698415	381.44503401360544	45	127
381.38698412698415	381.44503401360544	60	127
381.47986394557824	381.57274376417234	46	127
381.47986394557824	381.57274376417234	61	127
381.60757369614515	381.70045351473925	63	127
381.60757369614515	381.70045351473925	48	127
381.735283446712	381.8397732426304	49	127
381.735283446712	381.8397732426304	65	127
381.8746031746032	381.9907029478458	67	127
381.8746031746032	381.9907029478458	51	127
382.02553287981857	382.1184126984127	53	127
382.02553287981857	382.1184126984127	69	127
382.1532426303855	382.22290249433104	70	127
382.1532426303855	382.22290249433104	55	127
382.2461224489796	382.35061224489795	57	127
382.2461224489796	382.35061224489795	72	127
382.38544217687075	382.47832199546485	73	127
382.38544217687075	382.47832199546485	58	127
382.5015419501134	382.5828117913832	75	127
382.5015419501134	382.5828117913832	60	127
382.6292517006803	382.7221315192744	77	127
382.6292517006803	382.7221315192744	61	127
382.75696145124715	382.838231292517	63	127
382.75696145124715	382.838231292517	79	127
382.8614512471655	382.9659410430839	65	127
382.8614512471655	382.9659410430839	81	127
383.0007709750567	383.11687074829933	82	127
383.0007709750567	383.11687074829933	67	127
383.16331065759636	383.2678004535147	84	127
383.16331065759636	383.2678004535147	69	127
383.29102040816326	383.48839002267573	85	127
383.29102040816326	383.48839002267573	70	127
383.5580498866213	383.7554195011338	37	127
383.5580498866213	383.7554195011338	58	127
383.79024943310657	383.88312925170067	70	127
383.79024943310657	383.88312925170067	49	127
383.9527891156463	384.06888888888886	39	127
383.9527891156463	384.06888888888886	57	127
384.11532879818594	384.24303854875285	51	127
384.11532879818594	384.24303854875285	69	127
384.2662585034014	384.39396825396824	37	127
384.2662585034014	384.39396825396824	58	127
384.42879818594105	384.52167800453515	49	127
384.42879818594105	384.52167800453515	70	127
384.55650793650796	384.6842176870748	39	127
384.55650793650796	384.6842176870748	57	127
384.7306575963719	384.823537414966	69	127
384.7306575963719	384.823537414966	51	127
384.86997732426306	384.96285714285716	37	127
384.86997732426306	384.96285714285716	58	127
385.05573696145126	385.14861678004536	70	127
385.05573696145126	385.14861678004536	49	127
385.18344671201817	385.28793650793654	36	127
385.18344671201817	385.28793650793654	60	127
385.311156462585	385.4156462585034	72	127
385.311156462585	385.4156462585034	48	127
385.46208616780046	385.55496598639456	61	127
385.46208616780046	385.55496598639456	34	127
385.5897959183674	385.69428571428574	73	127
385.5897959183674	385.69428571428574	46	127
385.7291156462585	386.75079365079364	39	127
385.7291156462585	386.75079365079364	51	127
385.92648526077096	386.05419501133787	60	127
386.0890249433107	386.1702947845805	63	127
386.2051247165533	386.367664399093	68	127
386.42571428571426	386.59986394557825	72	127
386.62308390022673	386.7159637188209	68	127
386.75079365079364	386.83206349206347	63	127
386.855283446712	386.9481632653061	60	127
386.9829931972789	387.9350113378685	39	127
387.1107029478458	387.19197278911565	61	127
387.22680272108846	387.3661224489796	63	127
387.3893424036281	387.5286621315193	61	127
387.5518820861678	387.6679818594104	70	127
387.7028117913832	387.8421315192744	61	127
387.9350113378685	388.0743310657596	63	127
388.10916099773243	388.2484807256236	61	127
388.352970521542	388.6316099773243	32	127
388.352970521542	388.6316099773243	44	127
388.352970521542	388.7593197278912	60	127
388.7244897959184	388.97990929705213	63	127
389.061179138322	389.3049886621315	63	127
389.3978684807256	389.5952380952381	63	127
389.6881179138322	389.92031746031745	63	127
390.0015873015873	390.3382766439909	63	127
390.431156462585	391.487664399093	72	127
390.431156462585	390.68657596371884	68	127
390.431156462585	390.76784580498867	75	127
390.76784580498867	391.0116553287982	63	127
390.76784580498867	391.1161451247166	80	127
391.1161451247166	391.40639455782315	63	127
391.1161451247166	391.487664399093	84	127
391.487664399093	391.754693877551	70	127
391.487664399093	391.7895238095238	85	127
391.487664399093	392.416462585034	73	127
391.7895238095238	391.975283446712	63	127
391.7895238095238	392.05655328798184	82	127
392.05655328798184	392.416462585034	79	127
392.05655328798184	392.31197278911566	63	127
392.416462585034	393.9257596371882	72	127
392.416462585034	392.5209523809524	80	127
392.416462585034	393.9257596371882	68	127
392.5209523809524	392.59061224489795	82	127
392.59061224489795	392.68349206349205	80	127
392.68349206349205	392.7531519274376	82	127
392.7531519274376	392.99696145124716	63	127
392.7531519274376	392.8344217687075	80	127
392.8344217687075	392.91569160997733	82	127
392.91569160997733	392.99696145124716	80	127
392.99696145124716	393.1130612244898	79	127
393.1130612244898	393.1943310657596	80	127
393.1130612244898	393.3452607709751	63	127
393.1943310657596	393.3800907029478	84	127
393.4613605442177	393.7051700680272	63	127
393.4613605442177	394.4598185941043	75	127
393.78643990929703	394.0186394557823	63	127
394.09990929705214	394.35532879818595	63	127
394.4598185941043	394.7036281179138	68	127
394.4598185941043	394.8081179138322	75	127
394.4598185941043	395.5163265306122	72	127
394.8081179138322	395.07514739229026	63	127
394.8081179138322	395.16802721088436	80	127
395.16802721088436	395.5163265306122	84	127
395.16802721088436	395.4234467120181	63	127
395.5163265306122	396.6308843537415	73	127
395.5163265306122	395.72530612244896	70	127
395.5163265306122	395.80657596371884	85	127
395.80657596371884	396.0968253968254	82	127
395.80657596371884	396.0271655328798	63	127
396.0968253968254	396.5147845804989	63	127
396.0968253968254	396.6308843537415	79	127
396.6308843537415	397.08367346938775	72	127
396.6308843537415	397.08367346938775	68	127
396.6308843537415	397.2229931972789	80	127
398.5581405895692	398.8716099773243	36	127
398.5581405895692	398.8716099773243	48	127
398.5581405895692	398.8716099773243	55	127
398.5581405895692	398.8716099773243	60	127
398.5581405895692	398.8716099773243	64	127
398.9644897959184	399.2779591836735	60	127
398.9644897959184	399.2779591836735	36	127
398.9644897959184	399.2779591836735	48	127
398.9644897959184	399.2779591836735	55	127
398.9644897959184	399.2779591836735	64	127
399.3708390022676	399.6378684807256	36	127
399.3708390022676	399.6378684807256	48	127
399.3708390022676	399.6378684807256	55	127
399.3708390022676	399.6378684807256	60	127
399.3708390022676	399.6378684807256	64	127
399.71913832199544	400.00938775510207	36	127
399.71913832199544	400.00938775510207	48	127
399.71913832199544	400.00938775510207	55	127
399.71913832199544	400.00938775510207	60	127
399.71913832199544	400.00938775510207	64	127
400.10226757369617	400.404126984127	36	127
400.10226757369617	400.404126984127	48	127
400.10226757369617	400.404126984127	55	127
400.10226757369617	400.404126984127	60	127
400.10226757369617	400.404126984127	64	127
400.5086167800454	400.8336961451247	36	127
400.5086167800454	400.8336961451247	48	127
400.5086167800454	400.8336961451247	55	127
400.5086167800454	400.8336961451247	60	127
400.5086167800454	400.8336961451247	64	127
400.94979591836733	401.76249433106574	48	127
400.94979591836733	401.76249433106574	36	127
400.94979591836733	401.76249433106574	55	127
400.94979591836733	401.76249433106574	60	127
400.94979591836733	401.76249433106574	64	127
402.8073922902494	402.9002721088435	48	127
402.8073922902494	402.92349206349206	36	127
402.92349206349206	402.98154195011335	50	127
402.92349206349206	402.9931519274376	38	127
402.9931519274376	403.0395918367347	52	127
402.9931519274376	403.06281179138324	40	127
403.06281179138324	403.12086167800453	53	127
403.06281179138324	403.14408163265307	41	127
403.14408163265307	403.20213151927436	55	127
403.14408163265307	403.21374149659863	43	127
403.21374149659863	403.2834013605442	57	127
403.21374149659863	403.29501133786846	45	127
403.29501133786846	403.3530612244898	59	127
403.29501133786846	403.37628117913835	47	127
403.37628117913835	404.2354195011338	60	127
403.37628117913835	404.46761904761905	48	127
405.349977324263	405.43124716553285	48	127
405.349977324263	405.41963718820864	60	127
405.43124716553285	405.5821768707483	50	127
405.43124716553285	405.55895691609976	62	127
405.5821768707483	405.6286167800454	64	127
405.5821768707483	405.65183673469386	52	127
405.65183673469386	405.69827664399094	65	127
405.65183673469386	405.7098866213152	53	127
405.7098866213152	405.77954648526077	67	127
405.7098866213152	405.79115646258504	55	127
405.79115646258504	405.82598639455784	69	127
405.79115646258504	405.8375963718821	57	127
405.8375963718821	405.9072562358277	59	127
405.8375963718821	405.88403628117914	71	127
405.9072562358277	406.60385487528345	72	127
405.9072562358277	406.82444444444445	60	127
409.0651700680272	410.9343764172336	41	127
409.0651700680272	410.9343764172336	57	127
409.0651700680272	410.9343764172336	65	127
409.0651700680272	410.9343764172336	60	127
410.9343764172336	411.18979591836734	43	127
411.18979591836734	411.72385487528345	45	127
411.72385487528345	413.45374149659864	65	127
411.72385487528345	413.0590022675737	46	127
411.72385487528345	413.45374149659864	55	127
411.72385487528345	413.45374149659864	62	127
413.0590022675737	413.45374149659864	43	127
413.45374149659864	413.76721088435374	45	127
413.76721088435374	414.04585034013604	46	127
414.04585034013604	415.68285714285713	64	127
414.04585034013604	415.4158276643991	48	127
414.04585034013604	415.68285714285713	55	127
414.04585034013604	415.68285714285713	60	127
415.4158276643991	415.68285714285713	50	127
415.68285714285713	416.08920634920634	46	127
416.08920634920634	416.4142857142857	48	127
416.4142857142857	418.21383219954646	45	127
416.4142857142857	417.7842630385488	57	127
416.4142857142857	417.7842630385488	60	127
416.4142857142857	417.7842630385488	65	127
418.7711111111111	420.0598185941043	85	127
418.7711111111111	419.7231292517007	70	127
418.7711111111111	419.7231292517007	73	127
420.0598185941043	420.58226757369613	82	127
420.0598185941043	420.7215873015873	77	127
420.0598185941043	420.7215873015873	73	127
421.2788662131519	423.19451247165534	63	127
421.2788662131519	423.82145124716556	43	127
421.2788662131519	423.82145124716556	51	127
421.2788662131519	423.19451247165534	58	127
421.2788662131519	423.19451247165534	55	127
423.82145124716556	425.59777777777776	56	127
423.82145124716556	424.7154195011338	84	127
423.82145124716556	425.59777777777776	60	127
425.0753287981859	425.95768707482995	84	127
425.59777777777776	425.95768707482995	61	127
425.59777777777776	425.95768707482995	58	127
425.95768707482995	426.3408163265306	63	127
425.95768707482995	426.3408163265306	60	127
426.3408163265306	426.64267573696145	84	127
426.3408163265306	426.932925170068	61	127
426.3408163265306	426.932925170068	65	127
426.64267573696145	426.932925170068	82	127
426.932925170068	427.23478458049885	81	127
426.932925170068	427.23478458049885	63	127
426.932925170068	427.23478458049885	66	127
427.23478458049885	427.51342403628115	61	127
427.23478458049885	427.51342403628115	82	127
427.23478458049885	427.51342403628115	65	127
427.51342403628115	427.81528344671204	63	127
427.51342403628115	427.81528344671204	66	127
427.51342403628115	427.81528344671204	81	127
427.81528344671204	428.1055328798186	82	127
427.81528344671204	428.1055328798186	61	127
427.81528344671204	428.1055328798186	65	127
428.1055328798186	428.4422222222222	60	127
428.1055328798186	428.4422222222222	63	127
428.1055328798186	428.4422222222222	84	127
428.4422222222222	428.8253514739229	58	127
428.4422222222222	428.8253514739229	61	127
428.4422222222222	428.8253514739229	85	127
428.8253514739229	428.918231292517	80	127
428.8253514739229	429.63804988662133	63	127
428.918231292517	429.0227210884354	82	127
429.0227210884354	429.1039909297052	80	127
429.1039909297052	429.1968707482993	82	127
429.1968707482993	429.27814058956915	80	127
429.27814058956915	429.3826303854875	82	127
429.3826303854875	429.46390022675735	80	127
429.46390022675735	429.54517006802723	82	127
429.54517006802723	429.63804988662133	80	127
429.63804988662133	429.75414965986397	82	127
429.75414965986397	429.85863945578234	79	127
429.85863945578234	430.12566893424037	80	127
430.12566893424037	430.23015873015873	55	127
430.12566893424037	431.2402267573696	84	127
430.12566893424037	431.6814058956916	51	127
430.23015873015873	430.31142857142856	56	127
430.31142857142856	430.40430839002266	55	127
430.40430839002266	430.50879818594103	56	127
430.50879818594103	430.59006802721086	55	127
430.59006802721086	430.7409977324263	56	127
430.7409977324263	430.8454875283447	55	127
430.8454875283447	430.9383673469388	56	127
430.9383673469388	431.0312471655329	55	127
431.0312471655329	431.1125170068027	56	127
431.1125170068027	431.565306122449	53	127
431.2402267573696	431.6465759637188	82	127
431.565306122449	431.6814058956916	55	127
431.6814058956916	431.9600453514739	44	127
431.6814058956916	431.9600453514739	56	127
431.6814058956916	431.9600453514739	80	127
432.052925170068	432.30834467120184	63	127
432.052925170068	432.30834467120184	51	127
432.38961451247167	432.66825396825396	63	127
432.38961451247167	432.66825396825396	51	127
432.76113378684806	433.08621315192744	51	127
432.76113378684806	433.08621315192744	63	127
433.1907029478458	433.4112925170068	51	127
433.1907029478458	433.4112925170068	63	127
433.49256235827664	433.80603174603175	51	127
433.49256235827664	433.80603174603175	63	127
433.89891156462585	434.1659410430839	68	127
433.89891156462585	434.89736961451246	60	127
433.89891156462585	434.89736961451246	72	127
433.89891156462585	434.1659410430839	56	127
434.24721088435376	434.49102040816325	63	127
434.24721088435376	434.49102040816325	51	127
434.56068027210887	434.8160997732426	51	127
434.56068027210887	434.8160997732426	63	127
434.89736961451246	435.16439909297054	58	127
434.89736961451246	435.16439909297054	70	127
434.89736961451246	435.6404081632653	73	127
434.89736961451246	435.9306575963719	61	127
435.24566893424037	435.4662585034014	51	127
435.24566893424037	435.4662585034014	63	127
435.5591383219955	435.8261678004535	63	127
435.5591383219955	435.8261678004535	51	127
435.9306575963719	436.25573696145125	75	127
435.9306575963719	437.4051247165533	56	127
435.9306575963719	437.4051247165533	60	127
436.25573696145125	436.5227664399093	51	127
436.25573696145125	436.5227664399093	80	127
436.60403628117916	436.8362358276644	51	127
436.60403628117916	436.8362358276644	84	127
436.9291156462585	437.172925170068	51	127
436.9291156462585	437.172925170068	87	127
437.2425850340136	437.47478458049886	51	127
437.2425850340136	437.47478458049886	87	127
437.53283446712015	437.78825396825397	87	127
437.53283446712015	437.78825396825397	51	127
437.85791383219953	438.11333333333334	56	127
437.85791383219953	438.11333333333334	87	127
437.85791383219953	438.83315192743765	60	127
438.1829931972789	438.4384126984127	51	127
438.1829931972789	438.4384126984127	63	127
438.51968253968255	438.74027210884356	51	127
438.51968253968255	438.74027210884356	63	127
438.83315192743765	439.05374149659866	70	127
438.83315192743765	439.05374149659866	58	127
438.83315192743765	439.82	61	127
438.83315192743765	439.82	73	127
439.14662131519276	439.4020408163265	63	127
439.14662131519276	439.4020408163265	51	127
439.48331065759635	439.73873015873016	63	127
439.48331065759635	439.73873015873016	51	127
439.82	440.0754195011338	68	127
439.82	440.0754195011338	72	127
439.82	440.5514285714286	56	127
439.82	440.5514285714286	60	127
440.1682993197279	440.37727891156464	60	127
440.4585487528345	440.71396825396823	60	127
440.78362811791385	440.9809977324263	60	127
441.06226757369615	441.3292970521542	60	127
441.3989569160998	441.584716553288	60	127
441.7008163265306	441.9794557823129	64	127
441.7008163265306	441.9794557823129	36	127
441.7008163265306	441.9794557823129	48	127
441.7008163265306	441.9794557823129	55	127
441.7008163265306	441.9794557823129	60	127
442.072335600907	442.32775510204084	48	127
442.072335600907	442.32775510204084	36	127
442.072335600907	442.32775510204084	55	127
442.072335600907	442.32775510204084	60	127
442.072335600907	442.32775510204084	64	127
442.40902494331067	442.64122448979595	36	127
442.40902494331067	442.64122448979595	48	127
442.40902494331067	442.64122448979595	55	127
442.40902494331067	442.64122448979595	60	127
442.40902494331067	442.64122448979595	64	127
442.73410430839004	443.0011337868481	36	127
442.73410430839004	443.0011337868481	48	127
442.73410430839004	443.0011337868481	55	127
442.73410430839004	443.0011337868481	60	127
442.73410430839004	443.0011337868481	64	127
443.10562358276644	443.37265306122447	36	127
443.10562358276644	443.37265306122447	48	127
443.10562358276644	443.37265306122447	55	127
443.10562358276644	443.37265306122447	60	127
443.10562358276644	443.37265306122447	64	127
443.46553287981857	443.7790022675737	48	127
443.46553287981857	443.7790022675737	36	127
443.46553287981857	443.7790022675737	55	127
443.46553287981857	443.7790022675737	60	127
443.46553287981857	443.7790022675737	64	127
443.86027210884356	444.77746031746034	36	127
443.86027210884356	444.77746031746034	48	127
443.86027210884356	444.77746031746034	55	127
443.86027210884356	444.77746031746034	60	127
443.86027210884356	444.77746031746034	64	127
445.8571882086168	445.9384580498866	36	127
445.9384580498866	446.08938775510205	38	127
446.08938775510205	446.18226757369615	40	127
446.18226757369615	446.2519274376417	41	127
446.2519274376417	446.32158730158733	43	127
446.32158730158733	446.40285714285716	45	127
446.40285714285716	446.4725170068027	47	127
446.4725170068027	447.72639455782314	48	127
447.3316553287982	447.44775510204084	60	127
447.44775510204084	447.5174149659864	62	127
447.5174149659864	447.67995464852606	64	127
447.67995464852606	447.81927437641724	65	127
447.81927437641724	447.87732426303853	67	127
447.87732426303853	447.94698412698415	69	127
447.94698412698415	448.06308390022673	71	127
448.06308390022673	448.6435827664399	72	127
448.8641723356009	448.9338321995465	48	127
448.9338321995465	449.0615419501134	50	127
449.0615419501134	449.1544217687075	52	127
449.1544217687075	449.2356916099773	53	127
449.2356916099773	449.3053514739229	55	127
449.3053514739229	449.3750113378685	57	127
449.3750113378685	449.5607709750567	59	127
449.5607709750567	450.0716099773243	60	127
450.32702947845803	450.41990929705213	72	127
450.41990929705213	450.5127891156463	74	127
450.5127891156463	450.58244897959185	76	127
450.58244897959185	450.6521088435374	77	127
450.6521088435374	450.76820861678004	79	127
450.76820861678004	450.86108843537414	81	127
450.86108843537414	450.9307482993197	83	127
450.9307482993197	451.85954648526075	84	127
452.68385487528343	453.71714285714285	81	127
453.97256235827666	454.75043083900226	81	127
455.1451700680272	456.42226757369616	81	127
455.1451700680272	456.97954648526076	55	127
456.42226757369616	457.4091156462585	79	127
456.97954648526076	457.4091156462585	57	127
457.4091156462585	457.7341950113379	58	127
457.4091156462585	457.65292517006804	77	127
457.7341950113379	458.33791383219955	77	127
457.7341950113379	458.70943310657594	60	127
458.33791383219955	458.96485260770976	76	127
458.96485260770976	459.5801814058957	74	127
458.96485260770976	459.9400907029478	58	127
458.96485260770976	459.9400907029478	60	127
459.5801814058957	460.0910204081633	76	127
460.25356009070293	461.4958276643991	77	127
460.25356009070293	461.623537414966	57	127
460.25356009070293	461.623537414966	60	127
460.25356009070293	461.623537414966	65	127
461.4958276643991	462.01827664399093	72	127
462.6219954648526	463.8874829931973	58	127
462.6219954648526	463.8874829931973	61	127
462.6219954648526	463.8874829931973	46	127
462.6219954648526	463.8874829931973	49	127
463.8874829931973	464.42154195011335	53	127
463.8874829931973	464.42154195011335	61	127
463.8874829931973	464.42154195011335	65	127
463.8874829931973	464.42154195011335	49	127
465.12975056689345	467.04539682539684	63	127
465.12975056689345	466.4881179138322	75	127
465.12975056689345	467.04539682539684	55	127
465.12975056689345	467.04539682539684	58	127
466.4881179138322	467.04539682539684	70	127
467.63750566893424	469.0074829931973	48	127
467.63750566893424	469.0074829931973	60	127
467.63750566893424	469.0074829931973	56	127
467.63750566893424	469.0074829931973	44	127
469.0074829931973	469.57637188208616	60	127
469.0074829931973	469.57637188208616	48	127
469.0074829931973	469.57637188208616	51	127
469.0074829931973	469.57637188208616	63	127
470.1917006802721	471.94480725623583	49	127
470.1917006802721	471.94480725623583	61	127
470.5516099773243	470.8186394557823	77	127
470.8186394557823	471.1437188208617	79	127
471.1437188208617	471.39913832199545	81	127
471.39913832199545	471.6777777777778	82	127
471.6777777777778	471.94480725623583	84	127
471.94480725623583	472.2002267573696	85	127
472.2002267573696	472.4556462585034	87	127
472.4556462585034	473.9997732426304	58	127
472.4556462585034	472.6878458049887	88	127
472.4556462585034	473.9997732426304	46	127
472.6878458049887	473.0013151927438	89	127
473.0013151927438	473.25673469387755	88	127
473.25673469387755	473.51215419501136	89	127
473.51215419501136	473.75596371882085	87	127
473.75596371882085	473.9997732426304	85	127
473.9997732426304	474.2784126984127	84	127
474.2784126984127	474.48739229024943	82	127
474.56866213151926	476.101179138322	63	127
474.56866213151926	474.8240816326531	84	127
474.56866213151926	476.101179138322	51	127
474.8240816326531	475.0446712018141	85	127
475.0446712018141	475.30009070294784	86	127
475.30009070294784	475.5322902494331	87	127
475.5322902494331	475.56712018140587	87	127
475.56712018140587	475.83414965986395	85	127
475.83414965986395	476.0315192743764	84	127
476.101179138322	476.1360090702948	84	127
476.1360090702948	476.3449886621315	82	127
476.3449886621315	476.56557823129253	80	127
476.65845804988663	478.353514739229	51	127
476.65845804988663	476.7281179138322	82	127
476.65845804988663	478.353514739229	39	127
476.7281179138322	476.983537414966	80	127
476.983537414966	477.1692970521542	79	127
477.23895691609977	477.2737868480726	79	127
477.2737868480726	477.52920634920633	77	127
477.52920634920633	477.7265759637188	75	127
477.78462585034015	477.8542857142857	77	127
477.8542857142857	478.09809523809525	75	127
478.09809523809525	478.28385487528345	73	127
478.353514739229	478.3999546485261	73	127
478.3999546485261	478.6089342403628	72	127
478.6089342403628	479.0268934240363	70	127
479.4796825396825	479.851201814059	44	127
479.4796825396825	479.851201814059	56	127
479.4796825396825	479.851201814059	68	127
481.55786848072563	482.73047619047617	56	127
481.55786848072563	482.73047619047617	48	127
481.55786848072563	482.73047619047617	63	127
481.55786848072563	482.73047619047617	68	127
482.73047619047617	484.2049433106576	51	127
482.73047619047617	484.2049433106576	58	127
482.73047619047617	484.2049433106576	67	127
482.73047619047617	484.2049433106576	70	127
484.2049433106576	484.69256235827663	68	127
484.2049433106576	484.69256235827663	72	127
484.2049433106576	484.91315192743764	56	127
484.2049433106576	484.91315192743764	60	127
486.5501587301587	487.8156462585034	58	127
486.5501587301587	487.8156462585034	61	127
486.5501587301587	487.8156462585034	70	127
486.5501587301587	487.8156462585034	73	127
487.8156462585034	489.03469387755104	56	127
487.8156462585034	489.03469387755104	60	127
487.8156462585034	489.03469387755104	68	127
487.8156462585034	489.03469387755104	72	127
489.03469387755104	489.52231292517007	67	127
489.03469387755104	489.52231292517007	70	127
489.03469387755104	489.68485260770973	51	127
489.03469387755104	489.68485260770973	58	127
489.68485260770973	490.1028117913832	63	127
489.68485260770973	490.1028117913832	75	127
490.2653514739229	490.6949206349206	75	127
490.2653514739229	490.6949206349206	63	127
490.89229024943313	491.43795918367346	75	127
490.89229024943313	491.43795918367346	63	127
491.65854875283446	491.97201814058957	63	127
491.65854875283446	491.97201814058957	75	127
492.07650793650794	492.5873469387755	48	127
492.07650793650794	492.5873469387755	56	127
492.07650793650794	492.5873469387755	63	127
492.07650793650794	492.5873469387755	75	127
492.7150566893424	493.0981859410431	63	127
492.7150566893424	493.0981859410431	75	127
493.22589569161	493.6206349206349	51	127
493.22589569161	493.6206349206349	58	127
493.22589569161	493.6206349206349	63	127
493.22589569161	493.6206349206349	75	127
493.88766439909296	494.29401360544216	63	127
493.88766439909296	494.29401360544216	75	127
494.4449433106576	494.87451247165535	60	127
494.4449433106576	494.87451247165535	56	127
494.4449433106576	494.87451247165535	63	127
494.4449433106576	494.87451247165535	75	127
495.037052154195	495.5130612244898	75	127
495.037052154195	495.5130612244898	63	127
495.69882086167803	496.2328798185941	63	127
495.69882086167803	496.2328798185941	75	127
496.40702947845807	496.627619047619	63	127
496.40702947845807	496.627619047619	75	127
496.7669387755102	497.2081179138322	75	127
496.7669387755102	497.2081179138322	58	127
496.7669387755102	497.2081179138322	61	127
496.7669387755102	497.2081179138322	63	127
497.37065759637187	497.8002267573696	63	127
497.37065759637187	497.8002267573696	75	127
497.9395464852608	498.4387755102041	75	127
497.9395464852608	498.4387755102041	56	127
497.9395464852608	498.4387755102041	60	127
497.9395464852608	498.4387755102041	63	127
498.566485260771	499.0308843537415	58	127
498.566485260771	499.0308843537415	75	127
498.566485260771	499.0308843537415	63	127
498.566485260771	499.0308843537415	51	127
499.1585941043084	499.5417233560091	39	127
499.72748299319727	500.23832199546484	39	127
500.3892517006803	500.8420408163265	39	127
500.99297052154196	501.09746031746033	55	127
500.99297052154196	501.4225396825397	39	127
501.1322902494331	501.23678004535145	56	127
501.27160997732426	501.3877097505669	58	127
501.4225396825397	501.5154195011338	60	127
501.55024943310656	501.64312925170066	61	127
501.55024943310656	501.9333786848073	39	127
501.67795918367347	501.77083900226756	60	127
501.8056689342404	501.91015873015874	58	127
501.9333786848073	502.03786848072565	56	127
502.0726984126984	502.4906575963719	39	127
502.0726984126984	502.1655782312925	55	127
502.2004081632653	502.2932879818594	56	127
502.3513378684807	502.45582766439907	58	127
502.4906575963719	502.6067573696145	60	127
502.6415873015873	502.7344671201814	61	127
502.6415873015873	503.024716553288	39	127
502.7692970521542	502.87378684807254	63	127
502.8970068027211	503.00149659863945	65	127
503.024716553288	503.1408163265306	67	127
503.1756462585034	503.57038548752837	39	127
503.1756462585034	503.28013605442175	68	127
503.31496598639455	503.40784580498865	70	127
503.44267573696146	503.53555555555556	72	127
503.57038548752837	503.66326530612247	73	127
503.6980952380952	503.8025850340136	75	127
503.6980952380952	504.09283446712016	39	127
503.81419501133786	503.9302947845805	73	127
503.95351473922904	504.0580045351474	72	127
504.09283446712016	504.17410430839004	70	127
504.2089342403628	504.58045351473925	39	127
504.2089342403628	504.3018140589569	68	127
504.3366439909297	504.4295238095238	70	127
504.4643537414966	504.54562358276644	72	127
504.58045351473925	504.6617233560091	73	127
504.6965532879819	504.80104308390025	75	127
504.6965532879819	505.07968253968255	39	127
504.82426303854874	504.9287528344671	77	127
504.9635827664399	505.04485260770974	79	127
505.07968253968255	505.1841723356009	80	127
505.21900226757367	505.3118820861678	79	127
505.21900226757367	505.61374149659866	39	127
505.21900226757367	505.61374149659866	49	127
505.3467120181406	505.4395918367347	80	127
505.48603174603176	505.57891156462586	82	127
505.61374149659866	505.71823129251703	84	127
505.7414512471655	506.2522902494331	49	127
505.7414512471655	505.8691609977324	85	127
505.7414512471655	506.2522902494331	39	127
505.90399092970523	505.99687074829933	84	127
506.0317006802721	506.159410430839	82	127
506.2522902494331	506.3683900226757	80	127
506.4148299319728	506.5077097505669	79	127
506.4148299319728	506.7515192743764	39	127
506.4148299319728	506.7515192743764	49	127
506.54253968253965	506.6354195011338	77	127
506.6586394557823	506.7399092970522	75	127
506.7515192743764	506.85600907029476	73	127
506.8792290249433	506.98371882086167	72	127
506.8792290249433	507.3320181405896	39	127
506.8792290249433	507.3320181405896	49	127
507.0185487528345	507.1114285714286	70	127
507.1462585034014	507.2855782312925	68	127
507.3320181405896	507.4248979591837	67	127
507.4713378684807	507.5642176870748	68	127
507.4713378684807	507.8660770975057	39	127
507.4713378684807	507.8660770975057	48	127
507.58743764172334	507.71514739229025	70	127
507.7383673469388	507.84285714285716	72	127
507.8660770975057	507.9821768707483	73	127
508.0170068027211	508.1098866213152	75	127
508.0170068027211	508.3885260770975	39	127
508.0170068027211	508.3885260770975	48	127
508.144716553288	508.2375963718821	73	127
508.2724263038549	508.365306122449	72	127
508.3885260770975	508.48140589569164	70	127
508.5162358276644	508.85292517006803	39	127
508.5162358276644	508.5975056689342	68	127
508.5162358276644	508.85292517006803	48	127
508.632335600907	508.7368253968254	67	127
508.76004535147393	508.8180952380952	65	127
508.85292517006803	508.94580498866213	63	127
508.98063492063494	509.468253968254	39	127
508.98063492063494	509.1083446712018	61	127
508.98063492063494	509.468253968254	48	127
509.15478458049887	509.25927437641724	60	127
509.29410430839005	509.43342403628117	58	127
509.468253968254	509.5959637188209	56	127
509.63079365079363	511.1865306122449	61	127
509.63079365079363	511.1865306122449	58	127
509.63079365079363	509.75850340136054	31	127
509.63079365079363	511.1865306122449	51	127
509.63079365079363	511.1865306122449	63	127
509.7817233560091	509.909433106576	32	127
509.94426303854874	510.03714285714284	34	127
510.07197278911565	510.16485260770975	36	127
510.19968253968256	510.2809523809524	37	127
510.29256235827665	510.38544217687075	36	127
510.42027210884356	510.51315192743766	34	127
510.53637188208614	510.6408616780045	32	127
510.66408163265305	510.7685714285714	31	127
510.79179138321996	510.8962811791383	32	127
510.93111111111114	511.02399092970523	34	127
511.058820861678	511.1517006802721	36	127
511.1865306122449	511.279410430839	37	127
511.3142403628118	511.4071201814059	39	127
511.4419501133787	511.5464399092971	41	127
511.56965986394556	511.67414965986393	43	127
511.69736961451247	513.3227664399093	63	127
511.69736961451247	511.8250793650794	44	127
511.69736961451247	513.3227664399093	60	127
511.8599092970521	511.9527891156463	46	127
511.98761904761903	512.0804988662131	48	127
512.1153287981859	512.2197959183674	49	127
512.2546485260771	512.3475283446712	51	127
512.382358276644	512.4752380952381	49	127
512.5100680272109	512.6145578231293	48	127
512.6377551020408	512.7422675736962	46	127
512.777097505669	512.869977324263	44	127
512.9048072562358	513.0092970521542	46	127
513.0673469387755	513.1602267573696	48	127
513.1950566893424	513.2879365079365	49	127
513.3227664399093	513.5085260770975	51	127
513.5433560090703	513.659433106576	53	127
513.6942857142857	513.8452154195012	55	127
513.8800453514739	513.972925170068	56	127
514.0077551020408	514.0890249433106	55	127
514.0077551020408	514.367664399093	51	127
514.1122448979592	514.2051247165533	56	127
514.2399546485261	514.3328344671202	58	127
514.367664399093	514.4605442176871	60	127
514.4953741496598	514.5998639455782	61	127
514.6230839002268	514.7275736961451	60	127
514.7507936507936	514.8552834467121	58	127
514.8900907029479	514.9829931972789	56	127
515.0410430839003	515.1339229024943	55	127
515.0410430839003	515.4357823129252	39	127
515.0410430839003	515.4357823129252	51	127
515.1687528344671	515.2732426303855	56	127
515.3080498866213	515.4009523809524	58	127
515.4357823129252	515.5286621315192	60	127
515.5518820861678	515.6447619047619	61	127
515.6679818594105	515.7724716553288	63	127
515.8073015873016	515.9001587301588	65	127
515.9234013605442	516.0278911564626	67	127
516.0627210884354	516.1672108843537	68	127
516.0627210884354	516.4458503401361	44	127
516.0627210884354	516.4458503401361	56	127
516.2020408163265	516.2833106575964	70	127
516.3181179138322	516.4110204081633	72	127
516.4458503401361	516.5619501133787	73	127
516.5851700680272	516.6896598639456	75	127
516.7244671201814	516.8173696145125	73	127
516.8521995464853	516.9450793650793	72	127
517.0147392290249	517.1540589569161	70	127
517.1888888888889	517.3281859410431	68	127
517.3630385487528	517.4791383219955	70	127
517.5255782312926	517.6532879818594	72	127
517.676507936508	517.769387755102	73	127
517.7926077097505	517.897097505669	75	127
517.9319274376418	518.0248072562358	77	127
518.0596371882086	518.1524943310658	79	127
518.1757369614512	518.2686167800454	80	127
518.3034467120182	518.6749659863946	58	127
518.3034467120182	518.384716553288	79	127
518.3034467120182	518.6749659863946	61	127
518.3034467120182	518.6749659863946	51	127
518.4195464852608	518.5240362811792	80	127
518.5472562358277	518.651746031746	82	127
518.6749659863946	518.779433106576	84	127
518.8142857142857	518.9071655328798	85	127
518.9419954648527	519.0232653061224	84	127
519.0580952380952	519.1509750566894	82	127
519.1857823129252	519.2902947845805	80	127
519.3251247165533	519.6850340136054	61	127
519.3251247165533	519.4296145124716	79	127
519.3251247165533	519.6850340136054	51	127
519.3251247165533	519.6850340136054	58	127
519.4528344671202	519.5573242630386	77	127
519.5805215419501	519.6502040816326	75	127
519.6850340136054	519.7779138321996	73	127
519.8127437641723	519.9056235827665	72	127
519.9404535147393	520.0565532879818	70	127
520.1029931972789	520.1842630385488	68	127
520.2190929705215	520.3119727891157	67	127
520.3468027210885	520.7299319727891	56	127
520.3468027210885	520.4512925170068	68	127
520.3468027210885	520.7299319727891	60	127
520.4745124716553	520.5673922902495	70	127
520.6021995464853	520.6951020408163	72	127
520.7299319727891	520.8227891156463	73	127
520.857641723356	520.9156916099773	75	127
520.9505215419501	521.031768707483	73	127
521.0666213151927	521.1595011337869	72	127
521.2407709750566	521.3568707482993	70	127
521.3800907029479	521.4845804988662	68	127
521.5310204081633	521.6238775510204	67	127
521.6587301587301	521.7632199546485	65	127
521.7980498866214	521.8909297052154	63	127
521.9489795918367	522.0418367346939	61	127
522.0766893424036	522.1695691609978	60	127
522.2043990929706	522.3088888888889	58	127
522.3321088435374	522.4365986394558	56	127
522.4597959183674	522.5643083900227	55	127
522.4597959183674	522.889387755102	39	127
522.4597959183674	522.889387755102	46	127
522.4597959183674	522.889387755102	49	127
522.5991383219955	522.7152380952381	56	127
522.7500680272109	522.8545351473923	58	127
522.889387755102	522.9938775510204	60	127
523.0403174603175	523.1448072562358	61	127
523.1796371882086	523.2608843537415	60	127
523.2957369614512	523.3770068027211	58	127
523.4118367346939	523.5279365079365	56	127
523.5627664399093	524.0271655328798	46	127
523.5627664399093	523.678843537415	55	127
523.5627664399093	524.0271655328798	49	127
523.5627664399093	524.0271655328798	39	127
523.7136961451247	523.8297959183674	53	127
523.8646258503402	523.992335600907	51	127
524.0271655328798	524.2593650793651	49	127
524.3057823129252	524.433514739229	48	127
524.4683446712019	524.5728344671202	46	127
524.6192743764173	525.3971428571429	44	127
525.5596825396825	526.546507936508	43	127
526.5929705215419	527.1502267573696	32	127
526.5929705215419	527.1502267573696	44	127
531.051179138322	533.8956235827665	51	127
531.051179138322	533.8956235827665	32	127
531.051179138322	533.8956235827665	44	127
531.051179138322	533.8956235827665	48	127
531.051179138322	533.8956235827665	60	127
534.8012244897959	537.6340589569161	48	127
534.8012244897959	537.6340589569161	32	127
534.8012244897959	537.6340589569161	56	127
534.8012244897959	537.6340589569161	51	127
534.8012244897959	537.6340589569161	44	127
