# onset,offset,note,velocity
0.09210884353741497	0.12693877551020408	74	127
0.12693877551020408	0.19659863945578232	72	127
0.33589569160997734	0.35913832199546486	71	127
0.4287981859410431	0.5332879818594104	72	127
3.2035827664399092	3.31968253968254	67	127
3.2035827664399092	3.31968253968254	60	127
3.2035827664399092	3.31968253968254	64	127
3.644761904761905	3.749251700680272	60	127
3.644761904761905	3.749251700680272	65	127
3.644761904761905	3.749251700680272	69	127
4.097551020408163	4.1788208616780045	60	127
4.097551020408163	4.666439909297052	67	127
4.097551020408163	4.1788208616780045	64	127
4.4806802721088435	4.608390022675737	48	127
4.817369614512471	4.875419501133787	74	127
4.875419501133787	4.933469387755102	72	127
5.072766439909297	5.096009070294785	71	127
5.1656689342403626	5.235328798185941	72	127
5.397868480725624	5.502358276643991	72	127
5.397868480725624	5.502358276643991	64	127
5.397868480725624	5.502358276643991	67	127
5.757777777777778	5.873877551020408	59	127
5.757777777777778	5.873877551020408	67	127
5.757777777777778	5.873877551020408	74	127
6.059637188208617	6.384716553287982	67	127
6.059637188208617	6.094467120181406	72	127
6.059637188208617	6.268616780045352	60	127
6.094467120181406	6.140907029478458	74	127
6.140907029478458	6.349886621315193	76	127
6.349886621315193	6.431156462585034	64	127
6.349886621315193	6.431156462585034	72	127
6.663356009070295	6.709795918367347	74	127
6.709795918367347	6.779455782312925	72	127
6.918775510204082	6.941995464852607	71	127
7.000045351473923	7.069705215419501	72	127
7.267074829931973	7.336734693877551	59	127
7.267074829931973	7.336734693877551	62	127
7.267074829931973	7.336734693877551	67	127
7.568934240362812	7.661814058956916	60	127
7.568934240362812	7.661814058956916	69	127
7.568934240362812	7.661814058956916	64	127
7.859183673469388	7.975283446712018	66	127
7.859183673469388	7.975283446712018	57	127
7.859183673469388	7.975283446712018	60	127
8.265510204081632	8.346802721088435	59	127
8.265510204081632	8.346802721088435	67	127
8.265510204081632	8.346802721088435	62	127
8.532562358276644	8.625442176870749	60	127
8.532562358276644	8.625442176870749	69	127
8.532562358276644	8.625442176870749	64	127
8.834421768707482	9.322040816326531	62	127
9.171111111111111	9.263990929705216	50	127
9.171111111111111	9.263990929705216	59	127
9.171111111111111	9.263990929705216	55	127
9.484580498866213	9.565827664399093	50	127
9.484580498866213	9.565827664399093	60	127
9.484580498866213	9.496190476190476	66	127
9.484580498866213	9.565827664399093	57	127
9.531020408163265	9.542630385487529	67	127
9.565827664399093	9.58907029478458	66	127
9.635510204081633	9.647120181405896	67	127
9.681950113378685	9.693537414965986	66	127
9.716780045351474	9.74	64	127
9.74	9.77482993197279	66	127
9.77482993197279	10.030249433106576	55	127
9.77482993197279	10.030249433106576	67	127
9.77482993197279	10.030249433106576	59	127
10.099909297052154	10.16954648526077	43	127
10.970657596371883	11.07514739229025	48	127
10.970657596371883	11.07514739229025	55	127
10.970657596371883	11.07514739229025	52	127
11.30734693877551	11.388616780045352	48	127
11.30734693877551	11.388616780045352	53	127
11.30734693877551	11.388616780045352	57	127
11.585986394557823	11.678866213151927	48	127
11.585986394557823	11.678866213151927	52	127
11.585986394557823	11.678866213151927	55	127
11.911065759637188	11.95750566893424	86	127
11.95750566893424	12.015555555555556	84	127
12.178095238095239	12.201315192743763	83	127
12.259365079365079	12.305804988662132	86	127
12.305804988662132	12.363854875283447	84	127
12.514784580498866	12.538004535147392	83	127
12.596054421768708	12.781814058956916	84	127
12.828253968253968	12.897913832199546	55	127
12.828253968253968	12.897913832199546	52	127
13.106893424036281	13.222993197278912	47	127
13.106893424036281	13.222993197278912	55	127
13.44358276643991	13.67578231292517	48	127
13.44358276643991	13.67578231292517	55	127
13.757052154195012	13.861541950113379	52	127
13.757052154195012	13.861541950113379	55	127
13.757052154195012	13.780272108843537	86	127
13.780272108843537	13.849931972789115	84	127
14.035691609977324	14.05891156462585	83	127
14.128571428571428	14.175011337868481	86	127
14.175011337868481	14.221451247165533	84	127
14.372380952380952	14.616190476190477	84	127
14.697460317460317	14.77873015873016	59	127
14.697460317460317	14.77873015873016	62	127
15.01092970521542	15.103809523809524	60	127
15.01092970521542	15.103809523809524	64	127
15.31278911564626	15.417278911564626	57	127
15.31278911564626	15.417278911564626	60	127
15.649478458049886	15.719138321995464	59	127
15.649478458049886	15.719138321995464	62	127
15.962947845804988	16.055827664399093	60	127
15.962947845804988	16.055827664399093	64	127
16.555056689342404	16.647936507936507	55	127
16.555056689342404	16.647936507936507	59	127
16.555056689342404	16.647936507936507	50	127
16.89174603174603	16.984625850340137	50	127
16.89174603174603	16.984625850340137	57	127
16.89174603174603	16.984625850340137	60	127
17.507074829931973	17.623174603174604	52	127
17.507074829931973	17.623174603174604	59	127
17.507074829931973	17.623174603174604	55	127
17.797301587301586	17.890204081632653	81	127
17.797301587301586	17.92501133786848	48	127
17.95986394557823	18.075963718820862	45	127
18.122403628117915	18.22689342403628	50	127
18.122403628117915	18.63324263038549	74	127
18.273333333333333	18.401043083900227	38	127
18.44748299319728	18.586802721088436	50	127
18.63324263038549	18.784172335600907	38	127
18.83061224489796	18.958321995464853	50	127
18.83061224489796	18.842222222222222	78	127
18.87702947845805	18.900272108843538	79	127
18.935079365079364	18.94671201814059	78	127
18.981541950113378	18.99315192743764	79	127
18.99315192743764	19.167301587301587	38	127
19.02798185941043	19.039591836734694	78	127
19.120861678004534	19.167301587301587	76	127
19.167301587301587	19.21374149659864	78	127
19.21374149659864	19.469160997732427	79	127
19.21374149659864	19.469160997732427	43	127
19.538820861678005	19.643310657596373	55	127
19.805850340136054	19.852290249433107	74	127
19.852290249433107	19.910340136054423	72	127
20.038049886621316	20.06126984126984	71	127
20.13092970521542	20.223809523809525	72	127
20.43278911564626	20.560498866213152	52	127
20.43278911564626	20.560498866213152	72	127
20.43278911564626	20.560498866213152	60	127
20.43278911564626	20.560498866213152	58	127
20.804308390022676	20.85074829931973	74	127
20.85074829931973	21.001678004535147	72	127
21.059727891156463	21.082947845804988	71	127
21.140997732426303	21.303537414965987	72	127
21.41963718820862	21.51251700680272	57	127
21.41963718820862	21.51251700680272	53	127
21.41963718820862	21.51251700680272	60	127
21.744716553287983	21.930476190476192	70	127
21.988526077097507	22.046553287981858	69	127
22.058185941043085	22.301972789115645	69	127
22.301972789115645	22.34843537414966	67	127
22.371655328798187	22.46453514739229	57	127
22.371655328798187	22.46453514739229	60	127
22.371655328798187	22.46453514739229	65	127
22.371655328798187	22.46453514739229	48	127
22.68512471655329	22.754784580498868	49	127
22.68512471655329	22.754784580498868	64	127
22.68512471655329	22.754784580498868	58	127
22.68512471655329	22.754784580498868	55	127
22.975374149659864	23.706802721088437	62	127
22.975374149659864	23.393333333333334	50	127
22.975374149659864	23.393333333333334	53	127
22.975374149659864	23.393333333333334	57	127
23.509433106575965	23.64875283446712	38	127
24.171201814058957	24.275691609977326	57	127
24.171201814058957	24.275691609977326	61	127
24.171201814058957	24.275691609977326	64	127
24.171201814058957	24.275691609977326	45	127
24.171201814058957	24.275691609977326	49	127
24.171201814058957	24.275691609977326	52	127
25.18126984126984	25.36702947845805	62	127
25.18126984126984	25.36702947845805	65	127
25.18126984126984	25.36702947845805	50	127
25.18126984126984	25.36702947845805	53	127
25.18126984126984	25.36702947845805	57	127
26.110068027210886	26.21455782312925	62	127
26.110068027210886	26.21455782312925	38	127
26.110068027210886	26.21455782312925	50	127
26.110068027210886	26.21455782312925	57	127
26.110068027210886	26.21455782312925	65	127
26.446757369614513	26.551247165532878	62	127
26.446757369614513	26.551247165532878	65	127
26.446757369614513	26.551247165532878	38	127
26.446757369614513	26.551247165532878	50	127
26.446757369614513	26.551247165532878	57	127
26.78344671201814	26.876326530612246	57	127
26.78344671201814	26.876326530612246	65	127
26.78344671201814	26.876326530612246	62	127
26.78344671201814	26.876326530612246	38	127
26.78344671201814	26.876326530612246	50	127
27.108526077097505	27.213015873015873	57	127
27.108526077097505	27.213015873015873	65	127
27.108526077097505	27.213015873015873	62	127
27.108526077097505	27.213015873015873	38	127
27.108526077097505	27.213015873015873	50	127
27.456825396825398	27.538095238095238	57	127
27.456825396825398	27.538095238095238	69	127
27.456825396825398	27.538095238095238	62	127
27.456825396825398	27.538095238095238	41	127
27.456825396825398	27.538095238095238	53	127
27.781904761904762	27.944444444444443	59	127
27.781904761904762	27.944444444444443	64	127
27.781904761904762	27.944444444444443	68	127
27.781904761904762	27.944444444444443	40	127
27.781904761904762	27.944444444444443	52	127
28.594603174603176	28.72231292517007	52	127
28.594603174603176	28.72231292517007	56	127
28.594603174603176	28.72231292517007	59	127
28.594603174603176	28.72231292517007	64	127
28.594603174603176	28.72231292517007	68	127
28.594603174603176	28.72231292517007	71	127
28.594603174603176	28.72231292517007	76	127
29.38408163265306	29.476961451247167	69	127
29.38408163265306	29.476961451247167	76	127
29.38408163265306	29.476961451247167	72	127
29.38408163265306	29.476961451247167	45	127
29.38408163265306	29.476961451247167	48	127
29.38408163265306	29.476961451247167	52	127
29.38408163265306	29.476961451247167	57	127
29.38408163265306	29.476961451247167	64	127
30.347709750566892	30.394149659863945	76	127
30.347709750566892	30.394149659863945	83	127
30.347709750566892	30.394149659863945	88	127
30.347709750566892	30.394149659863945	40	127
30.347709750566892	30.394149659863945	44	127
30.347709750566892	30.394149659863945	47	127
30.347709750566892	30.394149659863945	52	127
30.347709750566892	30.394149659863945	80	127
30.510249433106576	30.60312925170068	80	127
30.510249433106576	30.60312925170068	88	127
30.510249433106576	30.60312925170068	44	127
30.510249433106576	30.60312925170068	47	127
30.510249433106576	30.60312925170068	52	127
30.510249433106576	30.60312925170068	76	127
30.510249433106576	30.60312925170068	83	127
30.510249433106576	30.60312925170068	40	127
31.357777777777777	31.40421768707483	81	127
31.357777777777777	31.40421768707483	33	127
31.357777777777777	31.40421768707483	36	127
31.357777777777777	31.40421768707483	40	127
31.357777777777777	31.40421768707483	45	127
31.357777777777777	31.40421768707483	76	127
31.357777777777777	31.40421768707483	84	127
31.357777777777777	31.40421768707483	88	127
31.52031746031746	31.578367346938776	81	127
31.52031746031746	31.578367346938776	88	127
31.52031746031746	31.578367346938776	84	127
31.52031746031746	31.578367346938776	33	127
31.52031746031746	31.578367346938776	36	127
31.52031746031746	31.578367346938776	40	127
31.52031746031746	31.578367346938776	45	127
31.52031746031746	31.578367346938776	76	127
32.20530612244898	32.25174603174603	88	127
32.20530612244898	32.25174603174603	40	127
32.20530612244898	32.25174603174603	44	127
32.20530612244898	32.25174603174603	47	127
32.20530612244898	32.25174603174603	52	127
32.20530612244898	32.25174603174603	76	127
32.20530612244898	32.25174603174603	80	127
32.20530612244898	32.25174603174603	83	127
32.565215419501136	32.63487528344671	80	127
32.565215419501136	32.63487528344671	40	127
32.565215419501136	32.63487528344671	44	127
32.565215419501136	32.63487528344671	47	127
32.565215419501136	32.63487528344671	52	127
32.565215419501136	32.63487528344671	76	127
32.565215419501136	32.63487528344671	83	127
32.565215419501136	32.63487528344671	88	127
33.50562358276644	33.55204081632653	88	127
33.50562358276644	33.55204081632653	40	127
33.50562358276644	33.55204081632653	44	127
33.50562358276644	33.55204081632653	47	127
33.50562358276644	33.55204081632653	52	127
33.50562358276644	33.55204081632653	76	127
33.50562358276644	33.55204081632653	80	127
33.50562358276644	33.55204081632653	83	127
33.66816326530612	33.72621315192744	83	127
33.66816326530612	33.72621315192744	76	127
33.66816326530612	33.72621315192744	88	127
33.66816326530612	33.72621315192744	40	127
33.66816326530612	33.72621315192744	44	127
33.66816326530612	33.72621315192744	47	127
33.66816326530612	33.72621315192744	52	127
33.66816326530612	33.72621315192744	80	127
34.72467120181406	34.75950113378685	86	127
34.75950113378685	34.8175283446712	84	127
34.95684807256236	34.98009070294785	83	127
35.03814058956916	35.14263038548753	84	127
35.398049886621315	35.47931972789116	60	127
35.398049886621315	35.47931972789116	79	127
35.398049886621315	35.47931972789116	72	127
35.69990929705215	35.80439909297052	60	127
35.69990929705215	35.80439909297052	72	127
35.69990929705215	35.80439909297052	81	127
36.05981859410431	36.35004535147392	60	127
36.05981859410431	36.58226757369614	79	127
36.05981859410431	36.35004535147392	72	127
36.41972789115646	36.51260770975057	60	127
36.41972789115646	36.51260770975057	48	127
36.75641723356009	36.79124716553288	86	127
36.79124716553288	36.849274376417235	84	127
37.00022675736962	37.02344671201814	83	127
37.081496598639454	37.1627664399093	84	127
37.39496598639456	37.49945578231293	60	127
37.39496598639456	37.49945578231293	84	127
37.39496598639456	37.49945578231293	72	127
37.72004535147392	37.801315192743765	55	127
37.72004535147392	37.801315192743765	67	127
37.72004535147392	37.801315192743765	86	127
38.03351473922903	38.27732426303855	72	127
38.03351473922903	38.068344671201814	84	127
38.03351473922903	38.27732426303855	60	127
38.068344671201814	38.114761904761906	86	127
38.114761904761906	38.35859410430839	88	127
38.35859410430839	38.47469387755102	60	127
38.35859410430839	38.497891156462586	84	127
38.35859410430839	38.47469387755102	48	127
38.69528344671202	38.730113378684806	86	127
38.730113378684806	38.79977324263039	84	127
38.92748299319728	38.93909297052154	83	127
38.997142857142855	39.10163265306122	84	127
39.287392290249436	39.39185941043084	79	127
39.62408163265306	39.72857142857143	81	127
39.96077097505669	40.042040816326534	78	127
40.22780045351474	40.33229024943311	79	127
40.39034013605442	40.50643990929705	59	127
40.55287981859411	40.65734693877551	81	127
40.55287981859411	40.680589569161	64	127
40.71541950113379	40.84312925170068	60	127
40.90117913832199	41.353968253968254	74	127
40.90117913832199	41.028888888888886	62	127
41.06371882086168	41.191428571428574	50	127
41.203038548752836	41.307528344671205	62	127
41.353968253968254	41.470068027210885	50	127
41.50489795918367	41.64421768707483	62	127
41.50489795918367	41.551315192743765	78	127
41.551315192743765	41.60938775510204	79	127
41.60938775510204	41.667414965986396	78	127
41.667414965986396	41.71387755102041	79	127
41.690657596371885	41.81836734693878	50	127
41.71387755102041	41.783537414965984	78	127
41.783537414965984	41.81836734693878	76	127
41.81836734693878	41.87641723356009	78	127
41.87641723356009	42.09700680272109	79	127
41.87641723356009	42.09700680272109	55	127
42.17825396825397	42.27115646258503	43	127
42.46852607709751	42.5962358276644	60	127
42.46852607709751	42.5962358276644	72	127
42.46852607709751	42.5962358276644	69	127
42.46852607709751	42.5962358276644	57	127
42.5962358276644	42.71233560090703	71	127
42.5962358276644	42.71233560090703	56	127
42.5962358276644	42.71233560090703	59	127
42.5962358276644	42.71233560090703	68	127
42.75877551020408	42.80521541950113	57	127
42.75877551020408	42.80521541950113	69	127
42.9097052154195	42.94451247165533	72	127
42.9097052154195	42.94451247165533	60	127
43.06061224489796	43.107074829931975	52	127
43.06061224489796	43.107074829931975	67	127
43.223174603174606	43.28122448979592	55	127
43.223174603174606	43.28122448979592	70	127
43.42054421768707	43.4553514739229	69	127
43.42054421768707	43.4553514739229	53	127
43.55986394557823	43.606303854875286	65	127
43.55986394557823	43.606303854875286	57	127
43.710793650793654	43.757233560090704	53	127
43.710793650793654	43.757233560090704	68	127
43.8849433106576	43.93138321995465	65	127
43.8849433106576	43.93138321995465	50	127
44.04748299319728	44.093922902494334	52	127
44.04748299319728	44.093922902494334	67	127
44.21	44.256462585034015	64	127
44.21	44.256462585034015	55	127
44.39578231292517	44.44222222222222	53	127
44.39578231292517	44.44222222222222	69	127
44.569931972789114	44.65120181405896	50	127
44.569931972789114	44.65120181405896	65	127
44.77891156462585	44.836938775510205	64	127
44.77891156462585	44.836938775510205	60	127
44.77891156462585	44.88340136054422	43	127
44.953061224489794	44.98789115646259	55	127
45.09235827664399	45.138820861678006	64	127
45.09235827664399	45.138820861678006	60	127
45.09235827664399	45.185260770975056	43	127
45.23167800453515	45.27814058956916	55	127
45.39424036281179	45.44068027210884	65	127
45.39424036281179	45.4871201814059	43	127
45.39424036281179	45.44068027210884	62	127
45.53356009070295	45.54517006802721	55	127
45.603197278911566	45.84702947845805	64	127
45.603197278911566	45.66126984126984	48	127
45.603197278911566	45.84702947845805	60	127
45.77736961451247	45.81219954648526	55	127
45.92829931972789	45.97473922902494	52	127
46.09083900226757	46.14888888888889	48	127
46.26498866213152	46.508798185941046	86	127
46.26498866213152	46.31142857142857	53	127
46.4275283446712	46.47396825396825	50	127
46.601678004535145	47.06607709750567	79	127
46.601678004535145	46.6481179138322	55	127
46.775827664399095	46.81065759637188	52	127
46.90353741496599	46.9615873015873	48	127
47.06607709750567	47.089297052154194	43	127
47.1821768707483	47.22861678004535	55	127
47.1821768707483	47.22861678004535	83	127
47.22861678004535	47.28666666666667	84	127
47.28666666666667	47.34471655328798	83	127
47.34471655328798	47.4027664399093	84	127
47.35632653061224	47.425986394557825	43	127
47.4027664399093	47.472426303854874	83	127
47.472426303854874	47.507233560090704	81	127
47.507233560090704	47.55369614512472	83	127
47.55369614512472	47.82072562358277	84	127
47.55369614512472	47.646575963718824	48	127
47.90199546485261	47.99487528344671	36	127
48.26190476190476	48.308344671201816	74	127
48.308344671201816	48.37800453514739	72	127
48.52893424036281	48.55215419501134	71	127
48.621814058956915	48.72630385487528	72	127
49.01655328798186	49.10943310657596	58	127
49.01655328798186	49.10943310657596	72	127
49.01655328798186	49.10943310657596	60	127
49.01655328798186	49.10943310657596	52	127
49.37646258503401	49.42290249433107	74	127
49.42290249433107	49.666712018140586	72	127
49.74798185941043	49.78281179138322	71	127
49.840861678004536	50.038231292517004	72	127
50.14272108843537	50.23560090702948	53	127
50.14272108843537	50.23560090702948	60	127
50.14272108843537	50.23560090702948	57	127
50.491020408163266	50.7	70	127
50.758049886621315	50.816099773242634	69	127
50.827709750566896	51.04829931972789	69	127
51.04829931972789	51.10634920634921	67	127
51.16439909297052	51.28049886621315	48	127
51.16439909297052	51.28049886621315	60	127
51.16439909297052	51.28049886621315	65	127
51.16439909297052	51.28049886621315	57	127
51.48947845804989	51.59396825396826	49	127
51.48947845804989	51.59396825396826	64	127
51.48947845804989	51.59396825396826	58	127
51.48947845804989	51.59396825396826	55	127
51.77972789115646	52.03514739229025	57	127
51.77972789115646	52.03514739229025	53	127
51.77972789115646	52.03514739229025	50	127
51.77972789115646	52.27895691609977	62	127
52.128027210884355	52.22090702947846	38	127
53.114875283446715	53.219365079365076	45	127
53.114875283446715	53.219365079365076	49	127
53.114875283446715	53.219365079365076	52	127
53.114875283446715	53.219365079365076	57	127
53.114875283446715	53.219365079365076	61	127
53.114875283446715	53.219365079365076	64	127
54.148163265306124	54.28748299319728	50	127
54.148163265306124	54.28748299319728	57	127
54.148163265306124	54.28748299319728	62	127
54.148163265306124	54.28748299319728	65	127
54.148163265306124	54.28748299319728	53	127
55.030521541950115	55.135011337868484	62	127
55.030521541950115	55.135011337868484	38	127
55.030521541950115	55.135011337868484	50	127
55.030521541950115	55.135011337868484	57	127
55.030521541950115	55.135011337868484	65	127
55.378820861678	55.48331065759637	38	127
55.378820861678	55.48331065759637	50	127
55.378820861678	55.48331065759637	57	127
55.378820861678	55.48331065759637	62	127
55.378820861678	55.48331065759637	65	127
55.73873015873016	55.83160997732426	38	127
55.73873015873016	55.83160997732426	50	127
55.73873015873016	55.83160997732426	57	127
55.73873015873016	55.83160997732426	62	127
55.73873015873016	55.83160997732426	65	127
56.063809523809525	56.179909297052156	57	127
56.063809523809525	56.179909297052156	38	127
56.063809523809525	56.179909297052156	50	127
56.063809523809525	56.179909297052156	62	127
56.063809523809525	56.179909297052156	65	127
56.37727891156462	56.48176870748299	41	127
56.37727891156462	56.48176870748299	53	127
56.37727891156462	56.48176870748299	57	127
56.37727891156462	56.48176870748299	62	127
56.37727891156462	56.48176870748299	69	127
56.713968253968254	56.7952380952381	40	127
56.713968253968254	56.7952380952381	52	127
56.713968253968254	56.7952380952381	59	127
56.713968253968254	56.7952380952381	64	127
56.713968253968254	56.7952380952381	68	127
57.433786848072565	57.57310657596372	52	127
57.433786848072565	57.57310657596372	56	127
57.433786848072565	57.57310657596372	59	127
57.433786848072565	57.57310657596372	64	127
57.433786848072565	57.57310657596372	68	127
57.433786848072565	57.57310657596372	71	127
57.433786848072565	57.57310657596372	76	127
58.409024943310655	58.61800453514739	45	127
58.409024943310655	58.61800453514739	48	127
58.409024943310655	58.61800453514739	52	127
58.409024943310655	58.61800453514739	57	127
58.409024943310655	58.61800453514739	64	127
58.409024943310655	58.61800453514739	69	127
58.409024943310655	58.61800453514739	72	127
58.409024943310655	58.61800453514739	76	127
59.47714285714286	59.60485260770975	40	127
59.47714285714286	59.60485260770975	44	127
59.47714285714286	59.60485260770975	47	127
59.47714285714286	59.60485260770975	52	127
59.47714285714286	59.60485260770975	76	127
59.47714285714286	59.60485260770975	80	127
59.47714285714286	59.60485260770975	83	127
59.47714285714286	59.60485260770975	88	127
59.732562358276645	59.779002267573695	40	127
59.732562358276645	59.779002267573695	44	127
59.732562358276645	59.779002267573695	47	127
59.732562358276645	59.779002267573695	52	127
59.732562358276645	59.779002267573695	76	127
59.732562358276645	59.779002267573695	80	127
59.732562358276645	59.779002267573695	83	127
59.732562358276645	59.779002267573695	88	127
60.545260770975055	60.59170068027211	33	127
60.545260770975055	60.59170068027211	36	127
60.545260770975055	60.59170068027211	40	127
60.545260770975055	60.59170068027211	45	127
60.545260770975055	60.59170068027211	76	127
60.545260770975055	60.59170068027211	81	127
60.545260770975055	60.59170068027211	84	127
60.545260770975055	60.59170068027211	88	127
60.719410430839005	60.765850340136055	33	127
60.719410430839005	60.765850340136055	36	127
60.719410430839005	60.765850340136055	40	127
60.719410430839005	60.765850340136055	45	127
60.719410430839005	60.765850340136055	76	127
60.719410430839005	60.765850340136055	81	127
60.719410430839005	60.765850340136055	84	127
60.719410430839005	60.765850340136055	88	127
61.39278911564626	61.43922902494331	40	127
61.39278911564626	61.43922902494331	44	127
61.39278911564626	61.43922902494331	47	127
61.39278911564626	61.43922902494331	52	127
61.39278911564626	61.43922902494331	76	127
61.39278911564626	61.43922902494331	80	127
61.39278911564626	61.43922902494331	83	127
61.39278911564626	61.43922902494331	88	127
61.55532879818594	61.61337868480726	40	127
61.55532879818594	61.61337868480726	44	127
61.55532879818594	61.61337868480726	47	127
61.55532879818594	61.61337868480726	52	127
61.55532879818594	61.61337868480726	76	127
61.55532879818594	61.61337868480726	80	127
61.55532879818594	61.61337868480726	83	127
61.55532879818594	61.61337868480726	88	127
62.39124716553288	62.43768707482993	76	127
62.39124716553288	62.43768707482993	40	127
62.39124716553288	62.43768707482993	44	127
62.39124716553288	62.43768707482993	47	127
62.39124716553288	62.43768707482993	52	127
62.39124716553288	62.43768707482993	80	127
62.39124716553288	62.43768707482993	83	127
62.39124716553288	62.43768707482993	88	127
62.58861678004535	62.71632653061224	40	127
62.58861678004535	62.71632653061224	44	127
62.58861678004535	62.71632653061224	47	127
62.58861678004535	62.71632653061224	52	127
62.58861678004535	62.71632653061224	76	127
62.58861678004535	62.71632653061224	80	127
62.58861678004535	62.71632653061224	83	127
62.58861678004535	62.71632653061224	88	127
63.935374149659864	63.981814058956914	86	127
63.981814058956914	64.03986394557823	84	127
64.19079365079365	64.21401360544218	83	127
64.2720634920635	64.37655328798186	84	127
64.59714285714286	64.72485260770975	60	127
64.59714285714286	64.72485260770975	72	127
64.59714285714286	64.72485260770975	79	127
64.94541950113378	65.04993197278911	60	127
64.94541950113378	65.04993197278911	72	127
64.94541950113378	65.04993197278911	81	127
65.27052154195012	65.50272108843538	72	127
65.27052154195012	65.50272108843538	60	127
65.27052154195012	65.7465306122449	79	127
65.58396825396825	65.67687074829932	48	127
65.58396825396825	65.67687074829932	60	127
65.88585034013606	65.93229024943311	86	127
65.93229024943311	65.99034013605443	84	127
66.12965986394558	66.1528798185941	83	127
66.1992970521542	66.29219954648526	84	127
66.52439909297053	66.61727891156463	60	127
66.52439909297053	66.61727891156463	72	127
66.52439909297053	66.61727891156463	84	127
66.87269841269841	66.94235827664399	55	127
66.87269841269841	66.94235827664399	67	127
66.87269841269841	66.94235827664399	86	127
67.162947845805	67.20938775510204	84	127
67.162947845805	67.46480725623583	60	127
67.162947845805	67.46480725623583	72	127
67.20938775510204	67.27904761904762	86	127
67.27904761904762	67.55768707482993	88	127
67.55768707482993	67.67378684807257	48	127
67.55768707482993	67.67378684807257	60	127
67.55768707482993	67.69700680272109	84	127
67.89437641723356	67.92920634920635	86	127
67.92920634920635	67.99886621315193	84	127
68.1149433106576	68.13818594104309	83	127
68.1962358276644	68.33555555555556	84	127
68.56775510204082	68.67224489795919	79	127
68.89283446712018	68.99732426303855	81	127
69.22952380952381	69.32240362811791	78	127
69.51975056689342	69.62424036281179	79	127
69.69392290249434	69.81002267573696	59	127
69.86807256235828	69.9841723356009	81	127
69.86807256235828	70.00736961451247	64	127
70.04222222222222	70.18154195011338	60	127
70.22798185941043	70.34408163265306	62	127
70.22798185941043	70.70399092970521	74	127
70.39049886621315	70.51820861678004	50	127
70.5530612244898	70.65755102040816	62	127
70.70399092970521	70.78526077097506	50	127
70.79687074829933	70.8317006802721	78	127
70.79687074829933	70.90133786848072	62	127
70.8317006802721	70.87814058956916	79	127
70.87814058956916	70.91297052154195	78	127
70.91297052154195	70.959410430839	79	127
70.93619047619048	71.06390022675737	50	127
70.959410430839	71.02904761904762	78	127
71.02904761904762	71.06390022675737	76	127
71.06390022675737	71.11034013605442	78	127
71.11034013605442	71.35414965986395	55	127
71.11034013605442	71.35414965986395	79	127
71.47024943310657	71.58634920634921	43	127
71.81854875283447	71.98108843537415	72	127
71.81854875283447	71.98108843537415	57	127
71.81854875283447	71.98108843537415	60	127
71.81854875283447	71.98108843537415	69	127
71.98108843537415	72.08557823129252	56	127
71.98108843537415	72.08557823129252	59	127
71.98108843537415	72.08557823129252	68	127
71.98108843537415	72.08557823129252	71	127
72.13201814058957	72.17843537414966	57	127
72.13201814058957	72.17843537414966	69	127
72.29455782312925	72.3409977324263	72	127
72.29455782312925	72.3409977324263	60	127
72.45709750566894	72.50353741496599	52	127
72.45709750566894	72.50353741496599	67	127
72.57319727891156	72.60802721088436	55	127
72.57319727891156	72.60802721088436	70	127
72.72412698412698	72.7821768707483	53	127
72.72412698412698	72.7821768707483	69	127
72.89827664399093	72.95632653061224	65	127
72.89827664399093	72.95632653061224	57	127
73.10725623582766	73.15369614512471	53	127
73.10725623582766	73.15369614512471	68	127
73.25818594104308	73.3162358276644	65	127
73.25818594104308	73.3162358276644	50	127
73.39750566893424	73.4439455782313	52	127
73.39750566893424	73.4439455782313	67	127
73.57165532879819	73.6297052154195	55	127
73.57165532879819	73.6297052154195	64	127
73.74580498866213	73.79224489795918	69	127
73.74580498866213	73.79224489795918	53	127
73.90834467120182	73.96639455782314	50	127
73.90834467120182	73.96639455782314	65	127
74.08249433106576	74.18698412698413	43	127
74.08249433106576	74.14054421768708	64	127
74.08249433106576	74.14054421768708	60	127
74.2566439909297	74.30308390022675	55	127
74.41918367346939	74.46562358276644	64	127
74.41918367346939	74.46562358276644	60	127
74.41918367346939	74.51206349206349	43	127
74.57011337868481	74.62816326530613	55	127
74.74426303854875	74.7907029478458	65	127
74.74426303854875	74.8371201814059	43	127
74.74426303854875	74.7907029478458	62	127
74.88358276643991	74.93002267573696	55	127
75.04612244897959	75.10417233560091	48	127
75.04612244897959	75.3247619047619	60	127
75.04612244897959	75.3247619047619	64	127
75.2318820861678	75.28993197278912	55	127
75.40603174603174	75.4524716553288	52	127
75.5453514739229	75.59179138321996	48	127
75.70789115646258	75.75433106575964	53	127
75.70789115646258	75.95170068027211	86	127
75.87043083900227	75.91687074829932	50	127
76.04458049886621	76.54380952380953	79	127
76.04458049886621	76.0909977324263	55	127
76.2071201814059	76.25356009070295	52	127
76.36963718820861	76.42770975056689	48	127
76.54380952380953	76.56702947845805	43	127
76.68312925170068	76.741179138322	55	127
76.68312925170068	76.741179138322	83	127
76.741179138322	76.79922902494332	84	127
76.79922902494332	76.84566893424036	83	127
76.84566893424036	76.89210884353741	84	127
76.85725623582766	76.91532879818594	43	127
76.89210884353741	76.93854875283446	83	127
76.93854875283446	76.98496598639456	81	127
76.98496598639456	77.01981859410431	83	127
77.01981859410431	77.10108843537415	48	127
77.01981859410431	77.25201814058957	84	127
77.36809523809524	77.51904761904763	36	127
77.78607709750567	77.86734693877551	52	127
77.9021768707483	77.98344671201814	55	127
78.0066439909297	78.06471655328798	60	127
78.09954648526077	78.16920634920635	52	127
78.19242630385487	78.28530612244899	55	127
78.30852607709751	78.38977324263038	60	127
78.42462585034014	78.50589569160998	52	127
78.5291156462585	78.61038548752835	55	127
78.64519274376417	78.72648526077097	60	127
78.7497052154195	78.83097505668934	52	127
78.7497052154195	78.87741496598639	48	127
78.86580498866213	78.92385487528345	55	127
78.90061224489796	79.01673469387755	47	127
78.94707482993198	79.05156462585035	60	127
79.07478458049887	79.22571428571429	48	127
79.07478458049887	79.17927437641724	52	127
79.20249433106576	79.29537414965986	55	127
79.26054421768707	79.37664399092971	47	127
79.31859410430839	79.388231292517	60	127
79.42308390022676	79.49274376417233	52	127
79.42308390022676	79.52757369614513	48	127
79.5159410430839	79.62045351473922	55	127
79.57401360544218	79.64365079365079	43	127
79.65528344671202	79.74816326530612	60	127
79.77136054421769	79.85265306122449	40	127
79.77136054421769	79.87587301587301	55	127
79.89907029478458	79.98036281179138	59	127
79.95714285714286	80.0035827664399	43	127
80.0035827664399	80.09646258503402	62	127
80.1312925170068	80.20095238095239	55	127
80.1312925170068	80.22417233560091	48	127
80.23578231292517	80.31705215419501	60	127
80.34027210884354	80.42154195011338	64	127
80.45637188208617	80.53761904761905	55	127
80.45637188208617	80.54925170068027	36	127
80.56083900226757	80.65374149659864	60	127
80.67696145124717	80.82789115646258	64	127
80.85111111111111	80.94399092970522	55	127
80.85111111111111	80.95560090702948	38	127
80.96721088435375	81.03687074829932	59	127
81.07170068027212	81.16458049886621	65	127
81.18780045351474	81.33873015873016	55	127
81.18780045351474	81.36195011337868	40	127
81.37356009070295	81.4548299319728	60	127
81.47804988662132	81.5477097505669	67	127
81.57092970521542	81.68700680272109	40	127
81.57092970521542	81.66380952380952	55	127
81.68700680272109	81.77990929705216	60	127
81.80312925170068	81.89600907029478	67	127
81.93083900226758	82.01210884353742	57	127
81.93083900226758	82.02371882086167	41	127
82.0469387755102	82.12820861678004	62	127
82.16303854875284	82.25591836734694	65	127
82.27913832199546	82.37201814058957	55	127
82.27913832199546	82.8015873015873	43	127
82.3952380952381	82.4881179138322	59	127
82.51133786848072	82.61582766439909	62	127
82.63904761904762	82.72031746031746	55	127
82.75514739229025	82.83639455782313	59	127
82.84802721088435	82.90607709750567	62	127
82.9408843537415	83.10344671201814	41	127
82.9408843537415	83.0221768707483	55	127
83.04539682539682	83.11505668934241	61	127
83.10344671201814	83.25437641723356	40	127
83.14988662131519	83.23115646258503	64	127
83.25437641723356	83.35886621315193	38	127
83.25437641723356	83.3472335600907	57	127
83.40530612244898	83.49818594104309	62	127
83.53301587301587	83.63750566893424	65	127
83.67233560090703	83.75360544217688	53	127
83.67233560090703	83.7768253968254	38	127
83.78843537414966	83.8697052154195	59	127
83.89292517006803	83.96256235827664	65	127
83.9974149659864	84.10190476190476	55	127
83.9974149659864	84.11349206349206	40	127
84.12512471655329	84.21798185941043	60	127
84.24120181405895	84.32249433106576	64	127
84.35732426303855	84.4385941043084	41	127
84.35732426303855	84.42698412698412	55	127
84.45020408163265	84.55469387755102	59	127
84.58952380952381	84.68240362811791	62	127
84.70562358276644	84.8565306122449	36	127
84.70562358276644	84.78689342403628	55	127
84.8101133786848	84.90299319727892	60	127
84.8565306122449	85.04231292517007	38	127
84.92621315192744	85.01909297052154	64	127
85.04231292517007	85.14680272108843	40	127
85.04231292517007	85.12358276643991	55	127
85.1584126984127	85.23965986394558	60	127
85.26290249433107	85.3441723356009	55	127
85.3790022675737	85.46027210884354	53	127
85.3790022675737	85.46027210884354	38	127
85.4718820861678	85.55315192743764	55	127
85.58798185941043	85.66925170068028	59	127
85.6924716553288	85.80857142857143	40	127
85.6924716553288	85.79696145124717	52	127
85.8201814058957	85.93628117913832	55	127
85.97111111111111	86.05238095238096	60	127
86.07560090702948	86.16848072562358	54	127
86.07560090702948	86.24975056689343	38	127
86.20331065759638	86.28458049886622	57	127
86.24975056689343	86.4471201814059	36	127
86.30780045351474	86.40068027210884	62	127
86.4471201814059	86.55160997732426	35	127
86.4471201814059	86.54	55	127
86.56321995464853	86.6677097505669	59	127
86.69092970521542	86.760589569161	62	127
86.7954195011338	86.86507936507937	55	127
86.7954195011338	86.87666666666667	36	127
86.88829931972789	86.96956916099774	59	127
87.02759637188208	87.10888888888888	62	127
87.13208616780045	87.80548752834467	38	127
87.13208616780045	87.201768707483	55	127
87.23659863945578	87.31786848072562	59	127
87.34108843537415	87.44557823129252	62	127
87.46879818594104	87.55006802721088	65	127
87.59650793650793	87.66614512471655	62	127
87.68938775510205	87.77063492063492	59	127
87.80548752834467	87.90997732426304	62	127
87.80548752834467	87.92158730158731	31	127
87.93319727891156	88.0260544217687	59	127
88.06090702947846	88.1421768707483	53	127
88.16539682539683	88.25827664399092	52	127
88.28147392290249	88.3627664399093	55	127
88.39759637188209	88.47886621315193	60	127
88.50208616780046	88.5833560090703	52	127
88.61818594104308	88.69945578231292	55	127
88.72267573696145	88.80394557823129	60	127
88.83877551020409	88.92002267573696	52	127
88.94326530612246	89.03614512471655	55	127
89.05936507936508	89.14063492063492	60	127
89.17544217687075	89.25673469387755	52	127
89.17544217687075	89.29156462585034	48	127
89.27995464852607	89.36122448979592	55	127
89.33800453514739	89.45410430839003	47	127
89.39605442176871	89.46571428571428	60	127
89.48893424036281	89.6166439909297	48	127
89.48893424036281	89.57020408163265	52	127
89.60503401360545	89.66308390022675	55	127
89.63986394557823	89.7443537414966	47	127
89.67469387755102	89.76757369614512	60	127
89.79077097505669	89.91848072562358	48	127
89.79077097505669	89.87206349206349	52	127
89.90689342403628	89.98816326530613	55	127
89.95333333333333	90.02299319727891	43	127
90.02299319727891	90.0926530612245	60	127
90.12748299319728	90.16231292517007	40	127
90.12748299319728	90.1971201814059	55	127
90.22036281179139	90.33646258503401	59	127
90.29002267573696	90.35968253968254	43	127
90.38290249433106	90.48739229024943	62	127
90.51061224489796	90.63832199546485	55	127
90.51061224489796	90.64993197278912	48	127
90.66154195011337	90.77764172335601	60	127
90.81244897959184	90.89374149659864	64	127
90.91696145124716	90.998231292517	55	127
90.91696145124716	91.02145124716553	36	127
91.0330612244898	91.11433106575964	60	127
91.13755102040817	91.17238095238095	64	127
91.20721088435374	91.28848072562359	55	127
91.20721088435374	91.30009070294784	38	127
91.31170068027211	91.41619047619048	59	127
91.439410430839	91.5322902494331	65	127
91.5787074829932	91.67160997732427	55	127
91.5787074829932	91.68321995464852	40	127
91.69482993197279	91.77609977324263	60	127
91.81092970521541	91.880589569161	67	127
91.90380952380953	91.98507936507937	55	127
91.90380952380953	91.99668934240363	40	127
91.99668934240363	92.07795918367347	60	127
92.101179138322	92.1940589569161	67	127
92.21725623582766	92.32176870748299	41	127
92.21725623582766	92.29854875283446	57	127
92.33337868480726	92.4146485260771	62	127
92.43786848072563	92.51913832199547	65	127
92.542358276644	93.05319727891157	43	127
92.542358276644	92.62362811791384	55	127
92.64684807256236	92.72809523809524	59	127
92.77455782312926	92.85580498866213	62	127
92.87904761904763	92.97192743764172	55	127
92.99514739229025	93.0764172335601	59	127
93.12285714285714	93.20412698412699	62	127
93.22734693877551	93.3898866213152	41	127
93.22734693877551	93.30861678004536	55	127
93.34342403628118	93.42471655328798	61	127
93.3898866213152	93.58725623582767	40	127
93.45954648526077	93.55242630385487	64	127
93.58725623582767	93.68013605442177	38	127
93.58725623582767	93.66852607709751	57	127
93.69174603174604	93.7962358276644	62	127
93.81945578231293	93.91233560090703	65	127
93.94716553287982	94.05165532879819	53	127
93.94716553287982	94.06326530612245	38	127
94.07487528344672	94.13290249433106	59	127
94.16775510204081	94.24902494331066	65	127
94.27224489795918	94.37673469387755	40	127
94.27224489795918	94.35351473922903	55	127
94.38832199546485	94.48122448979592	60	127
94.50444444444445	94.59732426303854	64	127
94.62052154195011	94.73664399092971	41	127
94.62052154195011	94.70181405895691	55	127
94.73664399092971	94.8295238095238	59	127
94.8643537414966	94.94562358276644	62	127
94.98045351473922	95.14299319727891	36	127
94.98045351473922	95.06172335600907	55	127
95.0849433106576	95.16621315192744	60	127
95.14299319727891	95.3635827664399	38	127
95.20104308390023	95.34036281179138	64	127
95.3635827664399	95.4912925170068	40	127
95.3635827664399	95.46807256235827	55	127
95.50290249433107	95.57256235827664	60	127
95.58417233560091	95.67705215419501	55	127
95.70027210884354	95.76993197278911	53	127
95.70027210884354	95.79315192743765	38	127
95.8047619047619	95.87442176870748	55	127
95.897641723356	95.97891156462585	59	127
96.01374149659864	96.10662131519274	40	127
96.01374149659864	96.09501133786848	52	127
96.11823129251701	96.22272108843538	55	127
96.2459410430839	96.338820861678	60	127
96.36204081632653	96.45492063492064	54	127
96.36204081632653	96.52458049886621	38	127
96.47814058956916	96.54780045351474	57	127
96.52458049886621	96.6871201814059	36	127
96.58263038548753	96.66390022675736	62	127
96.6871201814059	96.79160997732426	35	127
96.6871201814059	96.76839002267573	55	127
96.80321995464853	96.8728798185941	59	127
96.89609977324263	96.97736961451247	62	127
97.000589569161	97.08185941043084	55	127
97.000589569161	97.10507936507936	36	127
97.10507936507936	97.1863492063492	59	127
97.20956916099773	97.26761904761905	62	127
97.29083900226757	98.02226757369614	38	127
97.29083900226757	97.38371882086167	55	127
97.4069387755102	97.48820861678004	59	127
97.51142857142857	97.59269841269841	62	127
97.61591836734694	97.69718820861678	55	127
97.74362811791383	97.85972789115647	59	127
97.90616780045352	97.99904761904762	62	127
98.02226757369614	98.13836734693878	55	127
98.02226757369614	98.17319727891156	31	127
98.18480725623583	98.26607709750567	59	127
98.2892970521542	98.3821768707483	62	127
98.45183673469388	98.54471655328798	55	127
98.45183673469388	98.62598639455783	53	127
98.56793650793651	98.64920634920635	59	127
98.62598639455783	98.80013605442177	52	127
98.68403628117913	98.77691609977325	62	127
98.80013605442177	98.85818594104309	55	127
98.80013605442177	98.92784580498866	53	127
98.88140589569161	98.95106575963719	59	127
98.92784580498866	99.12521541950113	52	127
98.98589569160998	99.09038548752835	62	127
99.12521541950113	99.16004535147393	53	127
99.12521541950113	99.1948752834467	55	127
99.24131519274377	99.34580498866214	59	127
99.3225850340136	99.36902494331066	50	127
99.36902494331066	99.45029478458049	62	127
99.48512471655329	99.53156462585034	47	127
99.48512471655329	99.56639455782313	55	127
99.58961451247166	99.68249433106575	59	127
99.64766439909297	99.70571428571428	50	127
99.70571428571428	99.78698412698412	62	127
99.82181405895692	100.39070294784581	43	127
99.82181405895692	99.91469387755102	55	127
99.93791383219954	100.01918367346939	59	127
100.05401360544218	100.18172335600907	62	127
100.2049433106576	100.28621315192744	55	127
100.32104308390022	100.41392290249433	59	127
100.44875283446711	100.54163265306123	62	127
100.56485260770975	100.6461224489796	55	127
100.56485260770975	100.72739229024943	53	127
100.68095238095238	100.76222222222222	59	127
100.72739229024943	100.91315192743764	52	127
100.78544217687075	100.87832199546486	62	127
100.91315192743764	101.08730158730158	53	127
100.91315192743764	100.99442176870748	55	127
101.01764172335601	101.1105215419501	59	127
101.08730158730158	101.24984126984127	52	127
101.1453514739229	101.22662131519274	62	127
101.24984126984127	101.34272108843537	55	127
101.24984126984127	101.30789115646259	53	127
101.37755102040816	101.458820861678	59	127
101.43560090702948	101.48204081632653	50	127
101.48204081632653	101.5517006802721	62	127
101.57492063492063	101.65619047619047	55	127
101.57492063492063	101.6213605442177	47	127
101.69102040816327	101.77229024943311	59	127
101.73746031746032	101.79551020408164	50	127
101.79551020408164	101.88839002267574	62	127
101.92321995464853	102.0857596371882	53	127
101.92321995464853	102.0857596371882	65	127
102.0857596371882	102.24829931972789	64	127
102.0857596371882	102.24829931972789	52	127
102.24829931972789	102.30634920634921	53	127
102.24829931972789	102.30634920634921	65	127
102.41083900226758	102.45727891156463	50	127
102.41083900226758	102.45727891156463	62	127
102.57337868480725	102.63142857142857	47	127
102.57337868480725	102.63142857142857	59	127
102.7475283446712	102.77074829931973	50	127
102.7475283446712	102.77074829931973	62	127
102.88684807256236	102.99133786848073	53	127
102.88684807256236	103.04938775510205	65	127
103.04938775510205	103.24675736961451	64	127
103.24675736961451	103.28158730158731	65	127
103.39768707482993	103.43251700680273	62	127
103.56022675736962	103.61827664399092	59	127
103.7227664399093	103.75759637188209	62	127
103.88530612244898	104.09428571428572	68	127
104.09428571428572	104.28004535147392	67	127
104.28004535147392	104.31487528344671	68	127
104.40775510204081	104.45419501133787	65	127
104.58190476190477	104.61673469387755	62	127
104.73283446712018	104.77927437641723	65	127
104.91859410430838	105.08113378684807	71	127
105.08113378684807	105.22045351473923	70	127
105.22045351473923	105.25528344671201	71	127
105.37138321995465	105.4526530612245	68	127
105.56875283446712	105.60358276643991	65	127
105.70807256235828	105.75451247165533	68	127
105.90544217687075	106.13764172335601	74	127
106.13764172335601	106.27696145124716	73	127
106.27696145124716	106.32340136054422	74	127
106.46272108843537	106.52077097505669	71	127
106.63687074829932	106.68331065759637	70	127
106.799410430839	106.8342403628118	71	127
106.99678004535147	107.11287981859411	77	127
107.11287981859411	107.26380952380953	76	127
107.26380952380953	107.29863945578231	77	127
107.37990929705215	107.41473922902495	74	127
107.53083900226757	107.57727891156462	71	127
107.68176870748299	107.7398185941043	74	127
107.85591836734694	108.00684807256236	77	127
108.00684807256236	108.16938775510204	76	127
108.16938775510204	108.22743764172336	77	127
108.3087074829932	108.35514739229025	74	127
108.47124716553287	108.51768707482994	71	127
108.63378684807256	108.70344671201813	74	127
108.83115646258503	108.97047619047619	77	127
108.97047619047619	109.14462585034013	76	127
109.14462585034013	109.20267573696145	77	127
109.30716553287982	109.3419954648526	74	127
109.52775510204081	109.63224489795918	70	127
109.73673469387755	109.7831746031746	74	127
109.89927437641724	110.05020408163266	77	127
110.05020408163266	110.1895238095238	76	127
110.1895238095238	110.2243537414966	77	127
110.3520634920635	110.39850340136054	74	127
110.51460317460318	110.6655328798186	70	127
110.79324263038549	110.83968253968254	74	127
110.95578231292517	111.1995918367347	77	127
112.87142857142857	113.05718820861678	77	127
112.87142857142857	113.05718820861678	89	127
112.87142857142857	113.13845804988662	55	127
112.87142857142857	113.13845804988662	62	127
112.87142857142857	113.13845804988662	65	127
113.05718820861678	113.17328798185942	76	127
113.05718820861678	113.17328798185942	88	127
113.21972789115647	113.26616780045352	74	127
113.21972789115647	113.26616780045352	86	127
113.39387755102041	113.46353741496598	72	127
113.39387755102041	113.46353741496598	84	127
113.57963718820862	113.62607709750567	83	127
113.57963718820862	113.62607709750567	71	127
113.7421768707483	113.78861678004534	69	127
113.7421768707483	113.78861678004534	81	127
113.89310657596371	113.93954648526078	67	127
113.89310657596371	113.93954648526078	79	127
114.0556462585034	114.10208616780045	65	127
114.0556462585034	114.10208616780045	77	127
114.24140589569161	114.28784580498866	76	127
114.24140589569161	114.28784580498866	64	127
114.42716553287981	114.47360544217688	74	127
114.42716553287981	114.47360544217688	62	127
114.61292517006802	114.76385487528344	72	127
114.61292517006802	114.76385487528344	60	127
114.76385487528344	114.91478458049886	59	127
114.76385487528344	114.91478458049886	71	127
114.91478458049886	115.04249433106575	72	127
114.91478458049886	115.04249433106575	60	127
115.04249433106575	115.15859410430839	59	127
115.04249433106575	115.15859410430839	71	127
115.15859410430839	115.30952380952381	60	127
115.15859410430839	115.30952380952381	72	127
115.30952380952381	115.35596371882086	55	127
115.30952380952381	115.35596371882086	67	127
115.4720634920635	115.51850340136055	52	127
115.4720634920635	115.51850340136055	64	127
115.4720634920635	115.62299319727892	48	127
115.62299319727892	115.68104308390022	55	127
115.62299319727892	115.68104308390022	67	127
115.62299319727892	115.79714285714286	47	127
115.79714285714286	116.30798185941043	72	127
115.79714285714286	115.95968253968255	48	127
115.79714285714286	116.30798185941043	60	127
115.95968253968255	116.13383219954649	47	127
116.13383219954649	116.1918820861678	48	127
116.30798185941043	116.35442176870748	43	127
116.48213151927438	116.5401814058957	40	127
116.48213151927438	116.60984126984127	62	127
116.48213151927438	116.60984126984127	74	127
116.66789115646259	116.7259410430839	43	127
116.90009070294785	117.39931972789115	48	127
116.90009070294785	116.9813605442177	64	127
116.90009070294785	117.39931972789115	36	127
117.00458049886622	117.09746031746032	72	127
117.12068027210884	117.27160997732426	76	127
117.30643990929705	117.37609977324263	64	127
117.37609977324263	117.42253968253968	72	127
117.45736961451247	117.52702947845805	76	127
117.55024943310657	117.63151927437642	65	127
117.55024943310657	117.65473922902494	38	127
117.55024943310657	117.65473922902494	50	127
117.66634920634921	117.74761904761905	72	127
117.77083900226758	117.86371882086168	77	127
117.8869387755102	117.99142857142857	40	127
117.8869387755102	117.99142857142857	52	127
117.8869387755102	117.96820861678005	67	127
118.00303854875284	118.08430839002267	72	127
118.1075283446712	118.18879818594104	79	127
118.22362811791383	118.36294784580498	40	127
118.22362811791383	118.36294784580498	52	127
118.22362811791383	118.3281179138322	67	127
118.37455782312925	118.4558276643991	72	127
118.49065759637188	118.58353741496599	79	127
118.60675736961451	118.69963718820861	69	127
118.60675736961451	118.71124716553288	41	127
118.60675736961451	118.71124716553288	53	127
118.72285714285714	118.80412698412698	74	127
118.83895691609978	118.88539682539682	77	127
118.90861678004535	119.38462585034014	43	127
118.90861678004535	119.38462585034014	55	127
118.90861678004535	118.9898866213152	67	127
119.02471655328799	119.10598639455782	71	127
119.12920634920636	119.22208616780046	74	127
119.25691609977325	119.3033560090703	67	127
119.32657596371882	119.43106575963719	71	127
119.45428571428572	119.53555555555556	74	127
119.57038548752834	119.65165532879818	67	127
119.57038548752834	119.73292517006803	41	127
119.57038548752834	119.73292517006803	53	127
119.67487528344671	119.75614512471655	73	127
119.73292517006803	119.88385487528345	40	127
119.73292517006803	119.88385487528345	52	127
119.79097505668935	119.89546485260772	76	127
119.91868480725624	119.99995464852607	69	127
119.91868480725624	120.02317460317461	38	127
119.91868480725624	120.02317460317461	50	127
120.03478458049887	120.11605442176871	74	127
120.13927437641723	120.26698412698413	77	127
120.29020408163265	120.3714739229025	65	127
120.29020408163265	120.39469387755102	38	127
120.29020408163265	120.39469387755102	50	127
120.40630385487529	120.48757369614512	71	127
120.51079365079364	120.59206349206349	77	127
120.62689342403628	120.71977324263038	67	127
120.62689342403628	120.73138321995465	40	127
120.62689342403628	120.73138321995465	52	127
120.7429931972789	120.82426303854875	72	127
120.85909297052154	120.94036281179139	76	127
120.96358276643991	121.04485260770976	67	127
120.96358276643991	121.05646258503401	41	127
120.96358276643991	121.05646258503401	53	127
121.06807256235828	121.13773242630386	71	127
121.17256235827665	121.277052154195	74	127
121.30027210884354	121.38154195011337	67	127
121.30027210884354	121.45120181405896	36	127
121.30027210884354	121.45120181405896	48	127
121.4047619047619	121.48603174603174	72	127
121.45120181405896	121.59052154195011	38	127
121.45120181405896	121.59052154195011	50	127
121.50925170068027	121.60213151927438	76	127
121.63696145124716	121.718231292517	67	127
121.63696145124716	121.72984126984127	40	127
121.63696145124716	121.72984126984127	52	127
121.74145124716553	121.83433106575964	72	127
121.85755102040817	121.93882086167801	67	127
121.97365079365079	122.0665306122449	65	127
121.97365079365079	122.0665306122449	38	127
121.97365079365079	122.0665306122449	50	127
122.07814058956916	122.159410430839	67	127
122.18263038548753	122.26390022675737	71	127
122.2871201814059	122.36839002267574	64	127
122.2871201814059	122.40321995464852	40	127
122.2871201814059	122.40321995464852	52	127
122.41482993197279	122.49609977324263	67	127
122.53092970521541	122.62380952380953	72	127
122.64702947845805	122.80956916099774	38	127
122.64702947845805	122.80956916099774	50	127
122.64702947845805	122.7282993197279	65	127
122.75151927437642	122.84439909297052	68	127
122.80956916099774	122.93727891156463	36	127
122.80956916099774	122.93727891156463	48	127
122.86761904761904	122.94888888888889	74	127
122.98371882086168	123.0998185941043	35	127
122.98371882086168	123.07659863945578	65	127
122.98371882086168	123.0998185941043	47	127
123.11142857142858	123.19269841269842	67	127
123.2275283446712	123.30879818594104	74	127
123.33201814058957	123.4481179138322	48	127
123.33201814058957	123.43650793650794	64	127
123.33201814058957	123.4481179138322	36	127
123.45972789115646	123.5409977324263	67	127
123.56421768707483	123.65709750566893	72	127
123.68031746031745	123.74997732426304	65	127
123.68031746031745	124.04022675736961	38	127
123.68031746031745	124.04022675736961	50	127
123.78480725623582	123.86607709750567	67	127
123.87768707482994	123.97056689342404	72	127
124.00539682539683	124.0750566893424	65	127
124.09827664399093	124.17954648526077	67	127
124.14471655328798	124.2027664399093	31	127
124.14471655328798	124.2027664399093	43	127
124.21437641723357	124.33047619047619	71	127
124.37691609977324	124.63233560090703	36	127
124.37691609977324	124.63233560090703	48	127
124.37691609977324	124.63233560090703	64	127
124.37691609977324	124.63233560090703	67	127
124.37691609977324	124.63233560090703	72	127
125.02707482993198	125.11995464852608	55	127
125.02707482993198	125.22444444444444	53	127
125.15478458049887	125.24766439909297	59	127
125.22444444444444	125.50308390022676	52	127
125.2708843537415	125.46825396825396	62	127
125.50308390022676	125.60757369614512	55	127
125.50308390022676	125.68884353741497	53	127
125.63079365079365	125.72367346938775	59	127
125.68884353741497	125.8978231292517	52	127
125.74689342403629	125.83977324263039	62	127
125.8978231292517	125.9907029478458	55	127
125.8978231292517	125.95587301587301	53	127
126.00231292517007	126.0835827664399	59	127
126.06036281179138	126.10680272108844	50	127
126.1184126984127	126.19968253968254	62	127
126.22290249433107	126.28095238095239	47	127
126.22290249433107	126.30417233560091	55	127
126.33900226757369	126.4318820861678	59	127
126.40866213151928	126.45510204081633	50	127
126.45510204081633	126.54798185941043	62	127
126.57120181405895	126.6524716553288	55	127
126.57120181405895	127.0936507936508	43	127
126.68730158730159	126.76857142857143	59	127
126.79179138321996	126.88467120181406	62	127
126.93111111111111	127.0007709750567	55	127
127.02399092970522	127.11687074829932	59	127
127.15170068027211	127.24458049886621	62	127
127.26780045351474	127.36068027210884	55	127
127.26780045351474	127.44195011337868	53	127
127.38390022675738	127.4651700680272	59	127
127.44195011337868	127.61609977324262	52	127
127.5	127.5928798185941	62	127
127.61609977324262	127.68575963718821	55	127
127.61609977324262	127.77863945578231	53	127
127.72058956916099	127.80185941043084	59	127
127.77863945578231	127.941179138322	52	127
127.82507936507936	127.9063492063492	62	127
127.941179138322	127.98761904761905	53	127
127.941179138322	128.02244897959184	55	127
128.04566893424035	128.15015873015872	59	127
128.10371882086167	128.17337868480726	50	127
128.17337868480726	128.26625850340136	62	127
128.30108843537414	128.35913832199546	55	127
128.30108843537414	128.32430839002268	47	127
128.382358276644	128.46362811791383	59	127
128.44040816326532	128.48684807256237	50	127
128.49843537414966	128.57972789115647	62	127
128.60292517006803	128.77709750566893	65	127
128.60292517006803	128.77709750566893	53	127
128.77709750566893	128.9628344671202	52	127
128.77709750566893	128.9628344671202	64	127
128.9628344671202	129.00927437641724	65	127
128.9628344671202	129.00927437641724	53	127
129.1370068027211	129.1950566893424	50	127
129.1370068027211	129.1950566893424	62	127
129.29954648526078	129.34598639455783	47	127
129.29954648526078	129.34598639455783	59	127
129.47367346938776	129.53174603174602	50	127
129.47367346938776	129.53174603174602	62	127
129.64784580498866	129.75233560090703	53	127
129.64784580498866	129.82199546485262	65	127
129.82199546485262	129.96131519274377	64	127
129.96131519274377	130.00775510204082	65	127
130.13544217687075	130.1702947845805	62	127
130.2631746031746	130.30961451247165	59	127
130.46054421768707	130.50698412698412	62	127
130.62308390022676	130.80884353741496	68	127
130.80884353741496	130.91333333333333	67	127
130.91333333333333	130.97138321995465	68	127
131.09909297052155	131.1455328798186	65	127
131.28485260770975	131.3312925170068	62	127
131.43578231292517	131.4938321995465	65	127
131.60993197278913	131.81891156462586	71	127
131.81891156462586	131.98145124716552	70	127
131.98145124716552	132.02786848072563	71	127
132.1207709750567	132.15560090702948	68	127
132.27170068027212	132.31814058956917	65	127
132.42263038548754	132.4690702947846	68	127
132.57356009070295	132.8057596371882	74	127
132.8057596371882	132.91024943310657	73	127
132.91024943310657	132.95668934240362	74	127
133.14244897959185	133.1888888888889	71	127
133.30496598639456	133.36303854875283	70	127
133.47913832199546	133.51396825396824	71	127
133.69972789115647	133.83904761904762	77	127
133.83904761904762	134.0364172335601	76	127
134.0364172335601	134.08285714285714	77	127
134.1873469387755	134.24539682539682	74	127
134.3498866213152	134.4079365079365	71	127
134.51242630385488	134.54725623582766	74	127
134.64013605442176	134.79106575963718	77	127
134.79106575963718	134.91877551020409	76	127
134.91877551020409	134.95360544217687	77	127
135.02326530612245	135.09290249433107	74	127
135.2322448979592	135.27868480725624	71	127
135.40639455782312	135.45281179138323	74	127
135.59215419501135	135.76630385487528	77	127
135.76630385487528	135.8824036281179	76	127
135.8824036281179	135.92884353741496	77	127
136.03333333333333	136.10299319727892	74	127
136.2307029478458	136.27714285714285	70	127
136.41646258503403	136.46290249433108	74	127
136.57897959183674	136.74154195011337	77	127
136.74154195011337	136.8924716553288	76	127
136.8924716553288	136.93891156462584	77	127
137.0434013605442	137.10145124716553	74	127
137.22916099773244	137.27560090702949	70	127
137.43814058956917	137.48458049886622	74	127
137.6122902494331	137.8677097505669	77	127
139.71369614512471	139.85301587301586	77	127
139.71369614512471	139.85301587301586	89	127
139.71369614512471	139.92267573696145	55	127
139.71369614512471	139.92267573696145	62	127
139.71369614512471	139.92267573696145	65	127
139.85301587301586	139.9691156462585	76	127
139.85301587301586	139.9691156462585	88	127
140.00392290249434	140.08521541950114	74	127
140.00392290249434	140.08521541950114	86	127
140.2245351473923	140.27097505668934	72	127
140.2245351473923	140.27097505668934	84	127
140.36385487528344	140.39868480725625	71	127
140.36385487528344	140.39868480725625	83	127
140.5380045351474	140.58444444444444	69	127
140.5380045351474	140.58444444444444	81	127
140.70054421768708	140.74698412698413	67	127
140.70054421768708	140.74698412698413	79	127
140.874693877551	140.92111111111112	65	127
140.874693877551	140.92111111111112	77	127
141.04884353741497	141.1068934240363	64	127
141.04884353741497	141.1068934240363	76	127
141.26943310657597	141.31587301587302	62	127
141.26943310657597	141.31587301587302	74	127
141.4435827664399	141.6061224489796	60	127
141.4435827664399	141.6061224489796	72	127
141.6061224489796	141.76866213151928	71	127
141.6061224489796	141.76866213151928	59	127
141.76866213151928	141.9195918367347	60	127
141.76866213151928	141.9195918367347	72	127
141.9195918367347	141.98925170068028	59	127
141.9195918367347	141.98925170068028	71	127
141.98925170068028	142.1401814058957	60	127
141.98925170068028	142.1401814058957	72	127
142.1401814058957	142.18662131519275	55	127
142.1401814058957	142.18662131519275	67	127
142.30269841269842	142.37238095238095	52	127
142.30269841269842	142.37238095238095	64	127
142.30269841269842	142.47687074829932	48	127
142.47687074829932	142.5117006802721	55	127
142.47687074829932	142.5117006802721	67	127
142.47687074829932	142.66260770975057	47	127
142.66260770975057	142.813537414966	48	127
142.66260770975057	143.1386394557823	60	127
142.66260770975057	143.1386394557823	72	127
142.813537414966	142.97609977324262	47	127
142.97609977324262	143.02253968253967	48	127
143.1386394557823	143.2082993197279	43	127
143.38244897959183	143.47530612244898	62	127
143.38244897959183	143.42886621315193	40	127
143.38244897959183	143.47530612244898	74	127
143.54498866213152	143.59142857142857	43	127
143.7075283446712	144.24156462585034	48	127
143.7075283446712	143.78879818594103	64	127
143.7075283446712	144.24156462585034	36	127
143.82362811791384	143.90489795918367	72	127
143.9281179138322	144.07904761904763	76	127
144.10226757369614	144.16031746031746	64	127
144.1951247165533	144.2764172335601	72	127
144.2996371882086	144.39251700680273	76	127
144.49698412698413	144.57827664399093	65	127
144.49698412698413	144.5898866213152	38	127
144.49698412698413	144.5898866213152	50	127
144.6014739229025	144.6827664399093	72	127
144.71759637188208	144.79886621315194	77	127
144.82208616780045	144.9033560090703	67	127
144.82208616780045	144.9033560090703	52	127
144.82208616780045	144.9033560090703	40	127
144.9033560090703	144.96138321995466	72	127
144.9962358276644	145.07750566893424	79	127
145.10072562358278	145.20521541950114	40	127
145.10072562358278	145.1819954648526	67	127
145.10072562358278	145.20521541950114	52	127
145.21680272108844	145.29809523809524	72	127
145.32131519274375	145.4025850340136	79	127
145.44902494331066	145.5302947845805	69	127
145.44902494331066	145.54190476190476	41	127
145.44902494331066	145.54190476190476	53	127
145.55351473922903	145.62315192743765	74	127
145.64639455782313	145.72764172335602	77	127
145.76249433106577	146.29655328798185	55	127
145.76249433106577	145.8437641723356	67	127
145.76249433106577	146.29655328798185	43	127
145.86698412698414	145.94825396825397	71	127
145.99469387755101	146.09918367346938	74	127
146.12240362811792	146.20367346938775	67	127
146.2384807256236	146.3197732426304	71	127
146.34297052154196	146.45909297052154	74	127
146.48231292517008	146.5635827664399	67	127
146.48231292517008	146.6448299319728	41	127
146.48231292517008	146.6448299319728	53	127
146.59839002267574	146.67968253968255	73	127
146.6448299319728	146.76095238095238	40	127
146.6448299319728	146.76095238095238	52	127
146.70290249433106	146.77256235827664	76	127
146.80739229024942	146.88866213151928	69	127
146.80739229024942	146.90024943310658	38	127
146.80739229024942	146.90024943310658	50	127
146.9118820861678	146.99315192743765	74	127
147.02798185941043	147.10922902494332	77	127
147.1324716553288	147.2253514739229	65	127
147.1324716553288	147.23696145124717	38	127
147.1324716553288	147.23696145124717	50	127
147.24857142857144	147.32984126984127	71	127
147.3646485260771	147.45755102040818	77	127
147.48077097505669	147.56204081632654	67	127
147.48077097505669	147.58526077097505	40	127
147.48077097505669	147.58526077097505	52	127
147.59687074829932	147.68975056689342	72	127
147.71297052154196	147.80585034013606	76	127
147.82907029478457	147.89873015873016	67	127
147.82907029478457	147.91034013605443	41	127
147.82907029478457	147.91034013605443	53	127
147.92192743764173	148.0148299319728	71	127
148.0380498866213	148.11931972789117	74	127
148.17734693877551	148.25863945578232	67	127
148.17734693877551	148.33990929705215	36	127
148.17734693877551	148.33990929705215	48	127
148.28183673469388	148.36312925170068	72	127
148.33990929705215	148.47922902494332	38	127
148.33990929705215	148.47922902494332	50	127
148.39795918367346	148.49083900226756	76	127
148.5140589569161	148.59532879818593	67	127
148.5140589569161	148.61854875283447	40	127
148.5140589569161	148.61854875283447	52	127
148.63015873015874	148.71142857142857	72	127
148.7346485260771	148.8275283446712	67	127
148.862358276644	148.94362811791385	65	127
148.862358276644	148.96684807256236	38	127
148.862358276644	148.96684807256236	50	127
148.97845804988663	149.05972789115646	67	127
149.082947845805	149.18743764172336	71	127
149.22226757369614	149.31514739229024	64	127
149.22226757369614	149.3267573696145	40	127
149.22226757369614	149.3267573696145	52	127
149.33836734693878	149.4196371882086	67	127
149.45446712018142	149.53573696145125	72	127
149.55893424036282	149.64022675736962	65	127
149.55893424036282	149.72149659863945	38	127
149.55893424036282	149.72149659863945	50	127
149.66342403628119	149.744716553288	68	127
149.72149659863945	149.82598639455782	48	127
149.72149659863945	149.82598639455782	36	127
149.77954648526077	149.84920634920636	74	127
149.87242630385487	149.95369614512472	65	127
149.87242630385487	149.965306122449	35	127
149.87242630385487	149.965306122449	47	127
149.965306122449	150.04657596371882	67	127
150.0697732426304	150.13945578231292	74	127
150.17426303854876	150.26716553287983	36	127
150.17426303854876	150.25555555555556	64	127
150.17426303854876	150.26716553287983	48	127
150.27875283446713	150.3716553287982	67	127
150.3948752834467	150.47614512471657	72	127
150.51097505668935	150.99859410430838	50	127
150.51097505668935	150.60385487528345	65	127
150.51097505668935	150.99859410430838	38	127
150.63868480725623	150.7780045351474	67	127
150.81283446712018	150.90571428571428	72	127
150.92893424036282	151.0334240362812	65	127
151.06825396825397	151.1495238095238	67	127
151.1263038548753	151.17274376417234	31	127
151.1263038548753	151.17274376417234	43	127
151.17274376417234	151.38172335600908	71	127
151.4978231292517	152.40340136054422	72	127
151.4978231292517	152.40340136054422	36	127
151.4978231292517	152.40340136054422	48	127
151.4978231292517	152.40340136054422	64	127
151.4978231292517	152.40340136054422	67	127
152.79814058956916	152.832947845805	74	127
152.832947845805	152.94907029478458	72	127
153.18126984126985	153.21609977324263	71	127
153.27414965986395	153.36702947845805	72	127
153.5760090702948	153.68049886621316	60	127
153.5760090702948	153.68049886621316	64	127
153.5760090702948	153.68049886621316	67	127
153.87786848072562	153.982358276644	69	127
153.87786848072562	153.982358276644	60	127
153.87786848072562	153.982358276644	65	127
154.1681179138322	154.26097505668935	60	127
154.1681179138322	154.26097505668935	64	127
154.1681179138322	154.66734693877552	67	127
154.4583673469388	154.58607709750567	48	127
154.85310657596372	154.8879365079365	74	127
154.8879365079365	154.99242630385487	72	127
155.13172335600908	155.16657596371883	71	127
155.23621315192744	155.28267573696147	72	127
155.48004535147393	155.59614512471654	72	127
155.48004535147393	155.59614512471654	64	127
155.48004535147393	155.59614512471654	67	127
155.82834467120182	155.92122448979592	67	127
155.82834467120182	155.92122448979592	59	127
155.82834467120182	155.92122448979592	74	127
156.15340136054422	156.35079365079366	60	127
156.15340136054422	156.18825396825397	72	127
156.15340136054422	156.47850340136054	67	127
156.18825396825397	156.23469387755102	74	127
156.23469387755102	156.4320634920635	76	127
156.4320634920635	156.54816326530613	72	127
156.4320634920635	156.54816326530613	64	127
156.69909297052155	156.7455328798186	74	127
156.7455328798186	156.80358276643992	72	127
156.95451247165533	156.9661224489796	71	127
157.02414965986395	157.12863945578232	72	127
157.337641723356	157.44213151927437	59	127
157.337641723356	157.44213151927437	62	127
157.337641723356	157.44213151927437	67	127
157.70916099773243	157.7904081632653	60	127
157.70916099773243	157.7904081632653	64	127
157.70916099773243	157.7904081632653	69	127
158.0458276643991	158.13873015873017	66	127
158.0458276643991	158.13873015873017	57	127
158.0458276643991	158.13873015873017	60	127
158.32448979591837	158.40573696145125	59	127
158.32448979591837	158.40573696145125	67	127
158.32448979591837	158.40573696145125	62	127
158.6263492063492	158.6960090702948	69	127
158.6263492063492	158.6960090702948	60	127
158.6263492063492	158.6960090702948	64	127
158.9398185941043	159.39260770975056	62	127
159.26489795918368	159.34616780045351	50	127
159.26489795918368	159.34616780045351	55	127
159.26489795918368	159.34616780045351	59	127
159.53190476190477	159.54353741496598	66	127
159.53190476190477	159.62480725623584	50	127
159.53190476190477	159.62480725623584	57	127
159.53190476190477	159.62480725623584	60	127
159.57834467120182	159.58997732426303	67	127
159.62480725623584	159.63641723356008	66	127
159.65963718820862	159.6828344671202	67	127
159.74090702947845	159.78732426303856	64	127
159.78732426303856	159.8221768707483	66	127
159.8221768707483	160.14725623582765	59	127
159.8221768707483	160.14725623582765	55	127
159.8221768707483	160.14725623582765	67	127
160.21691609977324	160.3214058956916	43	127
161.02961451247165	161.13410430839002	48	127
161.02961451247165	161.13410430839002	52	127
161.02961451247165	161.13410430839002	55	127
161.40113378684808	161.50562358276645	48	127
161.40113378684808	161.50562358276645	53	127
161.40113378684808	161.50562358276645	57	127
161.74943310657596	161.84231292517006	48	127
161.74943310657596	161.84231292517006	52	127
161.74943310657596	161.84231292517006	55	127
161.99324263038548	162.03968253968253	86	127
162.03968253968253	162.09773242630385	84	127
162.24866213151927	162.2718820861678	83	127
162.32993197278913	162.37637188208618	86	127
162.37637188208618	162.42281179138322	84	127
162.56213151927437	162.5969387755102	83	127
162.65501133786847	162.82916099773243	84	127
162.89882086167802	163.00328798185942	52	127
162.89882086167802	163.00328798185942	55	127
163.2471201814059	163.31678004535146	47	127
163.2471201814059	163.31678004535146	55	127
163.5257596371882	163.781179138322	48	127
163.5257596371882	163.781179138322	55	127
163.87403628117914	164.01337868480726	52	127
163.87403628117914	163.9088888888889	86	127
163.87403628117914	164.01337868480726	55	127
163.9088888888889	163.96693877551022	84	127
164.14108843537414	164.16430839002268	83	127
164.222358276644	164.26879818594105	86	127
164.26879818594105	164.32684807256237	84	127
164.4777777777778	164.4893650793651	83	127
164.51260770975057	164.70997732426304	84	127
164.80285714285714	164.884126984127	59	127
164.80285714285714	164.884126984127	62	127
165.10471655328797	165.1975963718821	60	127
165.10471655328797	165.1975963718821	64	127
165.42979591836735	165.54589569160999	57	127
165.42979591836735	165.54589569160999	60	127
165.77809523809523	165.82453514739228	59	127
165.77809523809523	165.82453514739228	62	127
166.0451247165533	166.1960544217687	60	127
166.0451247165533	166.1960544217687	64	127
166.6836507936508	166.77655328798187	55	127
166.6836507936508	166.77655328798187	50	127
166.6836507936508	166.77655328798187	59	127
167.00875283446712	167.10163265306122	57	127
167.00875283446712	167.10163265306122	50	127
167.00875283446712	167.10163265306122	60	127
167.62408163265306	167.7401814058957	52	127
167.62408163265306	167.7401814058957	55	127
167.62408163265306	167.7401814058957	59	127
167.98399092970521	168.0652380952381	81	127
167.98399092970521	168.10009070294785	48	127
168.13492063492063	168.25102040816327	45	127
168.28585034013605	168.42514739229026	50	127
168.28585034013605	168.78507936507935	74	127
168.4715873015873	168.5877097505669	38	127
168.6225396825397	168.7386394557823	50	127
168.78507936507935	168.91278911564626	38	127
168.98242630385488	168.9940589569161	78	127
168.98242630385488	169.11015873015873	50	127
169.0288888888889	169.04049886621314	79	127
169.08691609977325	169.09854875283446	78	127
169.13337868480727	169.1449886621315	79	127
169.1449886621315	169.27269841269842	38	127
169.17981859410432	169.19140589569162	78	127
169.22625850340137	169.27269841269842	76	127
169.27269841269842	169.33074829931974	78	127
169.33074829931974	169.53972789115647	79	127
169.33074829931974	169.53972789115647	43	127
169.59775510204082	169.7022448979592	55	127
169.92285714285714	169.98090702947846	74	127
169.98090702947846	170.07378684807256	72	127
170.23632653061225	170.25954648526078	71	127
170.31757369614513	170.42208616780044	72	127
170.6891156462585	170.79360544217687	52	127
170.6891156462585	170.79360544217687	58	127
170.6891156462585	170.79360544217687	60	127
170.6891156462585	170.79360544217687	72	127
171.02580498866214	171.10707482993197	74	127
171.10707482993197	171.28122448979593	72	127
171.3508843537415	171.38569160997733	71	127
171.45537414965986	171.59467120181407	72	127
171.76884353741497	171.86172335600907	53	127
171.76884353741497	171.86172335600907	57	127
171.76884353741497	171.86172335600907	60	127
172.12875283446712	172.34934240362813	70	127
172.40736961451248	172.46544217687074	69	127
172.48866213151928	172.74408163265306	69	127
172.74408163265306	172.76727891156463	67	127
172.7905215419501	172.8601814058957	48	127
172.7905215419501	172.8601814058957	57	127
172.7905215419501	172.8601814058957	60	127
172.7905215419501	172.8601814058957	65	127
173.0459410430839	173.1271882086168	49	127
173.0459410430839	173.1271882086168	55	127
173.0459410430839	173.1271882086168	58	127
173.0459410430839	173.1271882086168	64	127
173.38260770975057	173.90507936507936	62	127
173.38260770975057	173.66126984126984	50	127
173.38260770975057	173.66126984126984	53	127
173.38260770975057	173.66126984126984	57	127
173.74251700680273	173.8354195011338	38	127
174.62489795918367	174.9151247165533	61	127
174.62489795918367	174.9151247165533	64	127
174.62489795918367	174.9151247165533	45	127
174.62489795918367	174.9151247165533	49	127
174.62489795918367	174.9151247165533	52	127
174.62489795918367	174.9151247165533	57	127
175.6233560090703	175.79750566893424	65	127
175.6233560090703	175.79750566893424	57	127
175.6233560090703	175.79750566893424	50	127
175.6233560090703	175.79750566893424	53	127
175.6233560090703	175.79750566893424	62	127
176.57537414965986	176.67986394557823	62	127
176.57537414965986	176.67986394557823	65	127
176.57537414965986	176.67986394557823	38	127
176.57537414965986	176.67986394557823	50	127
176.57537414965986	176.67986394557823	57	127
176.91204081632654	177.01655328798185	38	127
176.91204081632654	177.01655328798185	50	127
176.91204081632654	177.01655328798185	57	127
176.91204081632654	177.01655328798185	62	127
176.91204081632654	177.01655328798185	65	127
177.2603628117914	177.3532426303855	38	127
177.2603628117914	177.3532426303855	50	127
177.2603628117914	177.3532426303855	57	127
177.2603628117914	177.3532426303855	62	127
177.2603628117914	177.3532426303855	65	127
177.60866213151928	177.71315192743765	38	127
177.60866213151928	177.71315192743765	50	127
177.60866213151928	177.71315192743765	57	127
177.60866213151928	177.71315192743765	62	127
177.60866213151928	177.71315192743765	65	127
177.93371882086169	178.04984126984127	41	127
177.93371882086169	178.04984126984127	53	127
177.93371882086169	178.04984126984127	57	127
177.93371882086169	178.04984126984127	62	127
177.93371882086169	178.04984126984127	69	127
178.258820861678	178.44455782312926	40	127
178.258820861678	178.44455782312926	52	127
178.258820861678	178.44455782312926	59	127
178.258820861678	178.44455782312926	64	127
178.258820861678	178.44455782312926	68	127
179.00183673469388	179.10632653061225	52	127
179.00183673469388	179.10632653061225	56	127
179.00183673469388	179.10632653061225	59	127
179.00183673469388	179.10632653061225	64	127
179.00183673469388	179.10632653061225	68	127
179.00183673469388	179.10632653061225	71	127
179.00183673469388	179.10632653061225	76	127
179.9887074829932	180.1396371882086	57	127
179.9887074829932	180.1396371882086	45	127
179.9887074829932	180.1396371882086	48	127
179.9887074829932	180.1396371882086	52	127
179.9887074829932	180.1396371882086	64	127
179.9887074829932	180.1396371882086	69	127
179.9887074829932	180.1396371882086	72	127
179.9887074829932	180.1396371882086	76	127
180.89426303854876	180.9639455782313	76	127
180.89426303854876	180.9639455782313	83	127
180.89426303854876	180.9639455782313	88	127
180.89426303854876	180.9639455782313	80	127
180.89426303854876	180.9639455782313	40	127
180.89426303854876	180.9639455782313	44	127
180.89426303854876	180.9639455782313	47	127
180.89426303854876	180.9639455782313	52	127
181.08004535147393	181.13809523809525	40	127
181.08004535147393	181.13809523809525	44	127
181.08004535147393	181.13809523809525	47	127
181.08004535147393	181.13809523809525	52	127
181.08004535147393	181.13809523809525	76	127
181.08004535147393	181.13809523809525	80	127
181.08004535147393	181.13809523809525	83	127
181.08004535147393	181.13809523809525	88	127
181.88113378684807	181.92757369614512	33	127
181.88113378684807	181.92757369614512	36	127
181.88113378684807	181.92757369614512	40	127
181.88113378684807	181.92757369614512	45	127
181.88113378684807	181.92757369614512	76	127
181.88113378684807	181.92757369614512	81	127
181.88113378684807	181.92757369614512	84	127
181.88113378684807	181.92757369614512	88	127
182.04367346938776	182.0901133786848	33	127
182.04367346938776	182.0901133786848	36	127
182.04367346938776	182.0901133786848	40	127
182.04367346938776	182.0901133786848	45	127
182.04367346938776	182.0901133786848	76	127
182.04367346938776	182.0901133786848	81	127
182.04367346938776	182.0901133786848	84	127
182.04367346938776	182.0901133786848	88	127
182.90281179138321	182.96086167800453	40	127
182.90281179138321	182.96086167800453	44	127
182.90281179138321	182.96086167800453	47	127
182.90281179138321	182.96086167800453	52	127
182.90281179138321	182.96086167800453	76	127
182.90281179138321	182.96086167800453	80	127
182.90281179138321	182.96086167800453	83	127
182.90281179138321	182.96086167800453	88	127
183.07696145124717	183.12340136054422	40	127
183.07696145124717	183.12340136054422	44	127
183.07696145124717	183.12340136054422	47	127
183.07696145124717	183.12340136054422	52	127
183.07696145124717	183.12340136054422	76	127
183.07696145124717	183.12340136054422	80	127
183.07696145124717	183.12340136054422	83	127
183.07696145124717	183.12340136054422	88	127
183.95931972789117	184.00575963718822	40	127
183.95931972789117	184.00575963718822	44	127
183.95931972789117	184.00575963718822	47	127
183.95931972789117	184.00575963718822	52	127
183.95931972789117	184.00575963718822	76	127
183.95931972789117	184.00575963718822	80	127
183.95931972789117	184.00575963718822	83	127
183.95931972789117	184.00575963718822	88	127
184.12185941043083	184.19151927437642	40	127
184.12185941043083	184.19151927437642	44	127
184.12185941043083	184.19151927437642	47	127
184.12185941043083	184.19151927437642	52	127
184.12185941043083	184.19151927437642	76	127
184.12185941043083	184.19151927437642	80	127
184.12185941043083	184.19151927437642	83	127
184.12185941043083	184.19151927437642	88	127
185.61954648526077	185.66598639455782	86	127
185.66598639455782	185.72403628117914	84	127
185.85172335600907	185.87496598639456	83	127
185.93301587301588	186.02589569160997	84	127
186.24648526077098	186.33936507936508	60	127
186.24648526077098	186.33936507936508	72	127
186.24648526077098	186.33936507936508	79	127
186.5599546485261	186.6528344671202	60	127
186.5599546485261	186.6528344671202	72	127
186.5599546485261	186.6528344671202	81	127
186.85020408163265	187.18687074829933	60	127
186.85020408163265	187.18687074829933	72	127
186.85020408163265	187.43070294784582	79	127
187.26816326530613	187.36104308390023	48	127
187.26816326530613	187.36104308390023	60	127
187.59321995464853	187.62807256235828	86	127
187.62807256235828	187.6861224489796	84	127
187.83705215419502	187.86027210884353	83	127
187.91832199546485	188.02281179138322	84	127
188.25498866213152	188.3478911564626	60	127
188.25498866213152	188.3478911564626	72	127
188.25498866213152	188.3478911564626	84	127
188.61489795918368	188.70780045351475	55	127
188.61489795918368	188.70780045351475	67	127
188.61489795918368	188.70780045351475	86	127
188.94	188.98643990929705	84	127
188.94	189.19541950113378	60	127
188.94	189.19541950113378	72	127
188.98643990929705	189.02124716553288	86	127
189.02124716553288	189.27666666666667	88	127
189.27666666666667	189.38115646258504	48	127
189.27666666666667	189.40439909297052	84	127
189.27666666666667	189.38115646258504	60	127
189.61337868480726	189.64820861678004	86	127
189.64820861678004	189.7294784580499	84	127
189.88040816326532	189.8919954648526	83	127
189.93845804988663	190.03133786848073	84	127
190.24031746031747	190.3215873015873	79	127
190.56539682539682	190.65827664399092	81	127
190.9136961451247	191.00657596371883	78	127
191.23877551020408	191.34326530612245	79	127
191.41292517006804	191.52902494331065	59	127
191.56385487528345	191.66834467120182	81	127
191.56385487528345	191.69156462585033	64	127
191.72639455782314	191.84249433106575	60	127
191.8889342403628	192.00503401360544	62	127
191.8889342403628	192.35333333333332	74	127
192.0514739229025	192.1791836734694	50	127
192.21401360544218	192.30689342403628	62	127
192.35333333333332	192.4578231292517	50	127
192.50426303854874	192.6087528344671	62	127
192.50426303854874	192.53909297052155	78	127
192.53909297052155	192.59714285714287	79	127
192.59714285714287	192.63197278911565	78	127
192.63197278911565	192.6784126984127	79	127
192.64358276643992	192.78290249433107	50	127
192.6784126984127	192.73646258503402	78	127
192.73646258503402	192.78290249433107	76	127
192.78290249433107	192.82934240362812	78	127
192.82934240362812	193.07315192743764	79	127
192.82934240362812	193.07315192743764	55	127
193.16603174603173	193.25891156462586	43	127
193.4678911564626	193.63043083900226	60	127
193.4678911564626	193.63043083900226	69	127
193.4678911564626	193.63043083900226	72	127
193.4678911564626	193.63043083900226	57	127
193.63043083900226	193.7465306122449	56	127
193.63043083900226	193.7465306122449	59	127
193.63043083900226	193.7465306122449	68	127
193.63043083900226	193.7465306122449	71	127
193.78136054421768	193.80458049886622	57	127
193.78136054421768	193.80458049886622	69	127
193.90907029478458	193.94390022675736	72	127
193.90907029478458	193.94390022675736	60	127
194.07160997732427	194.11804988662132	52	127
194.07160997732427	194.11804988662132	67	127
194.23414965986396	194.280589569161	55	127
194.23414965986396	194.280589569161	70	127
194.4082993197279	194.4663492063492	53	127
194.4082993197279	194.4663492063492	69	127
194.58244897959185	194.6288888888889	57	127
194.58244897959185	194.6288888888889	65	127
194.74498866213153	194.79142857142858	53	127
194.74498866213153	194.79142857142858	68	127
194.91913832199546	194.97718820861678	50	127
194.91913832199546	194.97718820861678	65	127
195.09328798185942	195.13972789115647	52	127
195.09328798185942	195.13972789115647	67	127
195.2558276643991	195.30226757369616	55	127
195.2558276643991	195.30226757369616	64	127
195.40675736961452	195.46480725623582	53	127
195.40675736961452	195.46480725623582	69	127
195.58090702947845	195.63895691609977	50	127
195.58090702947845	195.63895691609977	65	127
195.74344671201814	195.7898866213152	64	127
195.74344671201814	195.8479365079365	43	127
195.74344671201814	195.7898866213152	60	127
195.9175963718821	195.96403628117915	55	127
196.08013605442176	196.1265759637188	60	127
196.08013605442176	196.1265759637188	64	127
196.08013605442176	196.18462585034013	43	127
196.24267573696144	196.30072562358276	55	127
196.40521541950113	196.42843537414967	62	127
196.40521541950113	196.42843537414967	65	127
196.40521541950113	196.47487528344672	43	127
196.5097052154195	196.55614512471655	55	127
196.6722448979592	196.7302947845805	48	127
196.6722448979592	196.9160544217687	60	127
196.6722448979592	196.9160544217687	64	127
196.83478458049888	196.88122448979593	55	127
196.9857142857143	197.02054421768707	52	127
197.1366439909297	197.19469387755103	48	127
197.31079365079364	197.3920634920635	53	127
197.31079365079364	197.5546031746032	86	127
197.49655328798187	197.54299319727892	50	127
197.62426303854875	197.68231292517007	55	127
197.62426303854875	198.06544217687076	79	127
197.81002267573697	197.82163265306122	52	127
197.92612244897958	197.94934240362812	48	127
198.06544217687076	198.13510204081632	43	127
198.2395918367347	198.28603174603174	55	127
198.2395918367347	198.28603174603174	83	127
198.28603174603174	198.35569160997733	84	127
198.35569160997733	198.42535147392292	83	127
198.42535147392292	198.4834013605442	84	127
198.44857142857143	198.50662131519275	43	127
198.4834013605442	198.54145124716553	83	127
198.54145124716553	198.58789115646258	81	127
198.58789115646258	198.6459410430839	83	127
198.6459410430839	198.7736507936508	48	127
198.6459410430839	199.01746031746032	84	127
199.13356009070296	199.28448979591838	36	127
