# onset,offset,note,velocity
0.06888888888888889	0.19659863945578232	35	127
0.19659863945578232	0.23142857142857143	36	127
0.3126984126984127	0.44040816326530613	35	127
0.44040816326530613	0.47523809523809524	36	127
0.6377777777777778	2.6579138321995464	32	127
3.1687528344671203	3.2500226757369615	32	127
3.482222222222222	3.5518820861678004	32	127
3.784081632653061	3.8769614512471655	32	127
4.039501133786848	4.109160997732427	32	127
4.039501133786848	4.109160997732427	44	127
4.039501133786848	4.109160997732427	66	127
4.039501133786848	4.109160997732427	72	127
4.283310657596372	4.364580498866213	66	127
4.283310657596372	4.364580498866213	32	127
4.283310657596372	4.364580498866213	44	127
4.283310657596372	4.364580498866213	72	127
4.515510204081632	4.585170068027211	44	127
4.515510204081632	4.585170068027211	32	127
4.515510204081632	4.585170068027211	66	127
4.515510204081632	4.585170068027211	72	127
4.73609977324263	4.840589569160998	44	127
4.73609977324263	4.840589569160998	32	127
4.73609977324263	4.840589569160998	75	127
4.73609977324263	4.956689342403628	66	127
4.840589569160998	4.933469387755102	74	127
4.933469387755102	5.00312925170068	72	127
5.026349206349207	5.397868480725624	79	127
5.026349206349207	5.397868480725624	31	127
5.026349206349207	5.397868480725624	43	127
5.026349206349207	5.397868480725624	67	127
5.026349206349207	5.397868480725624	71	127
5.026349206349207	5.397868480725624	74	127
6.013197278911565	6.245396825396825	47	127
6.013197278911565	6.245396825396825	55	127
6.013197278911565	6.245396825396825	62	127
6.013197278911565	6.245396825396825	65	127
6.512426303854875	6.686575963718821	48	127
6.512426303854875	6.686575963718821	55	127
6.512426303854875	6.686575963718821	60	127
6.512426303854875	6.686575963718821	63	127
6.98843537414966	7.116145124716553	41	127
6.98843537414966	7.116145124716553	53	127
6.98843537414966	7.116145124716553	56	127
6.98843537414966	7.116145124716553	62	127
7.90562358276644	8.114603174603175	42	127
7.90562358276644	8.114603174603175	51	127
7.90562358276644	8.114603174603175	57	127
7.90562358276644	8.114603174603175	60	127
8.486122448979591	8.718321995464853	42	127
8.486122448979591	8.718321995464853	51	127
8.486122448979591	8.718321995464853	57	127
8.486122448979591	8.718321995464853	60	127
8.97374149659864	9.136281179138322	43	127
8.97374149659864	9.136281179138322	50	127
8.97374149659864	9.136281179138322	55	127
8.97374149659864	9.136281179138322	59	127
9.449750566893425	9.542630385487529	35	127
9.542630385487529	9.577460317460318	36	127
9.681950113378685	9.867709750566894	35	127
9.867709750566894	9.902539682539683	36	127
9.983809523809525	10.053469387755102	32	127
10.250839002267574	10.332108843537416	32	127
10.45981859410431	10.50625850340136	32	127
10.633968253968254	10.715238095238096	32	127
10.912607709750567	10.982267573696145	44	127
10.912607709750567	10.982267573696145	32	127
10.912607709750567	10.982267573696145	60	127
10.912607709750567	10.982267573696145	66	127
11.133197278911565	11.19124716553288	44	127
11.133197278911565	11.19124716553288	60	127
11.133197278911565	11.19124716553288	66	127
11.133197278911565	11.19124716553288	32	127
11.353786848072563	11.42344671201814	32	127
11.353786848072563	11.42344671201814	44	127
11.353786848072563	11.42344671201814	60	127
11.353786848072563	11.42344671201814	66	127
11.632426303854876	11.6556462585034	32	127
11.632426303854876	11.6556462585034	44	127
11.632426303854876	11.6556462585034	60	127
11.632426303854876	11.6556462585034	66	127
11.736916099773243	12.10843537414966	31	127
11.736916099773243	12.10843537414966	43	127
11.736916099773243	12.10843537414966	59	127
11.736916099773243	12.10843537414966	62	127
11.736916099773243	12.10843537414966	67	127
12.723764172335601	12.897913832199546	47	127
12.723764172335601	12.897913832199546	55	127
12.723764172335601	12.897913832199546	62	127
12.723764172335601	12.897913832199546	65	127
13.246213151927437	13.362312925170068	63	127
13.246213151927437	13.362312925170068	48	127
13.246213151927437	13.362312925170068	55	127
13.246213151927437	13.362312925170068	60	127
13.687392290249432	13.896371882086168	41	127
13.687392290249432	13.896371882086168	53	127
13.687392290249432	13.896371882086168	56	127
13.687392290249432	13.896371882086168	62	127
14.651020408163266	14.790340136054422	43	127
14.651020408163266	14.790340136054422	51	127
14.651020408163266	14.86	55	127
14.651020408163266	14.86	60	127
14.86	14.964489795918368	56	127
14.964489795918368	15.057369614512472	55	127
15.115419501133786	15.382448979591837	55	127
15.115419501133786	15.31278911564626	43	127
15.115419501133786	15.31278911564626	50	127
15.115419501133786	15.382448979591837	59	127
15.382448979591837	15.486938775510204	56	127
15.486938775510204	15.59142857142857	55	127
15.637868480725624	15.812018140589569	48	127
15.637868480725624	15.812018140589569	51	127
15.637868480725624	15.812018140589569	55	127
15.637868480725624	15.812018140589569	60	127
15.637868480725624	15.812018140589569	36	127
16.34607709750567	16.54344671201814	67	127
16.57827664399093	17.402585034013605	51	127
16.57827664399093	17.065895691609978	72	127
16.57827664399093	17.402585034013605	48	127
16.57827664399093	17.402585034013605	55	127
17.065895691609978	17.402585034013605	74	127
17.402585034013605	17.623174603174604	75	127
17.704444444444444	18.366190476190475	47	127
17.704444444444444	18.11077097505669	74	127
17.704444444444444	18.366190476190475	53	127
17.704444444444444	18.366190476190475	55	127
18.11077097505669	18.22689342403628	72	127
18.22689342403628	18.34299319727891	74	127
18.366190476190475	18.482312925170067	67	127
18.517142857142858	19.260181405895693	51	127
18.517142857142858	18.575192743764173	67	127
18.517142857142858	19.260181405895693	55	127
18.517142857142858	19.260181405895693	48	127
18.575192743764173	19.01637188208617	75	127
19.01637188208617	19.260181405895693	74	127
19.260181405895693	19.457551020408165	72	127
19.51560090702948	20.08448979591837	55	127
19.51560090702948	19.643310657596373	71	127
19.51560090702948	20.08448979591837	43	127
19.51560090702948	20.08448979591837	50	127
19.643310657596373	19.852290249433107	72	127
19.852290249433107	19.991609977324263	74	127
19.991609977324263	20.08448979591837	71	127
20.107709750566894	20.293469387755103	67	127
20.223809523809525	20.32829931972789	59	127
20.36312925170068	20.44439909297052	62	127
20.490839002267574	21.222244897959182	63	127
20.490839002267574	20.560498866213152	79	127
20.490839002267574	21.222244897959182	67	127
20.490839002267574	21.222244897959182	60	127
20.560498866213152	20.618548752834467	80	127
20.618548752834467	20.66498866213152	79	127
20.66498866213152	20.7346485260771	80	127
20.7346485260771	20.804308390022676	79	127
20.804308390022676	20.86235827664399	80	127
20.86235827664399	20.93201814058957	79	127
20.93201814058957	20.990068027210885	80	127
20.990068027210885	21.059727891156463	79	127
21.059727891156463	21.12938775510204	80	127
21.12938775510204	21.16421768707483	79	127
21.16421768707483	21.222244897959182	80	127
21.222244897959182	21.268707482993197	79	127
21.268707482993197	21.303537414965987	80	127
21.303537414965987	21.361587301587303	79	127
21.361587301587303	21.43124716553288	80	127
21.43124716553288	22.139455782312925	67	127
21.43124716553288	21.50090702947846	79	127
21.43124716553288	22.139455782312925	59	127
21.43124716553288	22.139455782312925	65	127
21.50090702947846	21.5821768707483	80	127
21.5821768707483	21.651836734693877	79	127
21.651836734693877	21.709886621315192	80	127
21.709886621315192	21.756326530612245	79	127
21.756326530612245	21.8027664399093	80	127
21.8027664399093	21.837596371882086	79	127
21.837596371882086	21.88403628117914	80	127
21.88403628117914	21.953696145124717	79	127
21.953696145124717	22.023356009070294	80	127
22.023356009070294	22.093015873015872	79	127
22.093015873015872	22.139455782312925	80	127
22.139455782312925	22.209115646258503	79	127
22.209115646258503	22.232312925170067	80	127
22.232312925170067	22.26716553287982	79	127
22.26716553287982	22.34843537414966	80	127
22.34843537414966	22.859274376417233	67	127
22.34843537414966	22.406485260770975	79	127
22.34843537414966	22.859274376417233	60	127
22.34843537414966	22.859274376417233	63	127
22.406485260770975	22.46453514739229	80	127
22.46453514739229	22.534195011337868	79	127
22.534195011337868	22.58063492063492	80	127
22.58063492063492	22.6502947845805	79	127
22.6502947845805	22.73156462585034	80	127
22.73156462585034	22.801224489795917	79	127
22.801224489795917	22.859274376417233	80	127
22.859274376417233	22.92891156462585	79	127
22.859274376417233	23.12628117913832	58	127
22.859274376417233	23.12628117913832	62	127
22.92891156462585	22.986984126984126	80	127
22.986984126984126	23.03342403628118	79	127
23.03342403628118	23.079863945578232	78	127
23.079863945578232	23.12628117913832	79	127
23.12628117913832	23.370113378684806	56	127
23.12628117913832	23.370113378684806	60	127
23.12628117913832	23.253990929705214	84	127
23.253990929705214	23.370113378684806	77	127
23.370113378684806	23.544263038548753	59	127
23.370113378684806	23.544263038548753	55	127
23.370113378684806	23.544263038548753	79	127
23.892562358276646	24.008662131519273	35	127
24.008662131519273	24.043492063492064	36	127
24.11315192743764	24.240861678004535	35	127
24.240861678004535	24.275691609977326	36	127
24.36857142857143	24.438231292517006	32	127
24.60077097505669	24.670430839002268	32	127
24.809750566893424	24.891020408163264	32	127
24.809750566893424	24.891020408163264	44	127
24.809750566893424	24.891020408163264	60	127
24.809750566893424	24.891020408163264	72	127
25.041950113378686	25.1	60	127
25.041950113378686	25.1	32	127
25.041950113378686	25.1	72	127
25.041950113378686	25.1	44	127
25.239319727891157	25.28575963718821	68	127
25.239319727891157	25.28575963718821	72	127
25.239319727891157	25.28575963718821	32	127
25.239319727891157	25.28575963718821	44	127
25.239319727891157	25.28575963718821	60	127
25.239319727891157	25.28575963718821	63	127
25.425079365079366	25.506349206349206	72	127
25.425079365079366	25.506349206349206	32	127
25.425079365079366	25.506349206349206	44	127
25.425079365079366	25.506349206349206	60	127
25.425079365079366	25.506349206349206	63	127
25.425079365079366	25.506349206349206	68	127
25.657278911564624	25.75015873015873	32	127
25.657278911564624	25.75015873015873	44	127
25.657278911564624	25.75015873015873	60	127
25.657278911564624	25.75015873015873	63	127
25.657278911564624	25.75015873015873	68	127
25.657278911564624	25.75015873015873	72	127
25.91269841269841	25.959138321995464	32	127
25.91269841269841	25.959138321995464	44	127
25.91269841269841	25.959138321995464	75	127
25.959138321995464	26.05201814058957	74	127
26.05201814058957	26.12167800453515	72	127
26.144897959183673	26.51641723356009	68	127
26.144897959183673	26.51641723356009	29	127
26.144897959183673	26.51641723356009	41	127
26.144897959183673	26.51641723356009	70	127
26.144897959183673	26.51641723356009	74	127
26.144897959183673	26.51641723356009	80	127
27.20140589569161	27.375555555555554	68	127
27.20140589569161	27.375555555555554	62	127
27.20140589569161	27.375555555555554	53	127
27.20140589569161	27.375555555555554	58	127
27.712244897959184	27.88639455782313	51	127
27.712244897959184	27.88639455782313	58	127
27.712244897959184	27.88639455782313	63	127
27.712244897959184	27.88639455782313	67	127
28.188253968253967	28.374013605442176	44	127
28.188253968253967	28.374013605442176	56	127
28.188253968253967	28.374013605442176	60	127
28.188253968253967	28.374013605442176	65	127
29.22154195011338	29.395691609977323	54	127
29.22154195011338	29.395691609977323	45	127
29.22154195011338	29.395691609977323	60	127
29.22154195011338	29.395691609977323	63	127
29.709160997732425	29.918140589569163	45	127
29.709160997732425	29.918140589569163	54	127
29.709160997732425	29.918140589569163	60	127
29.709160997732425	29.918140589569163	63	127
30.231609977324265	30.312879818594105	34	127
30.231609977324265	30.33609977324263	58	127
30.231609977324265	30.33609977324263	62	127
30.359319727891158	30.48702947845805	74	127
30.48702947845805	30.684399092970523	53	127
30.48702947845805	30.614739229024945	75	127
30.48702947845805	30.684399092970523	46	127
30.48702947845805	30.684399092970523	50	127
30.614739229024945	30.7540589569161	74	127
30.7540589569161	30.87015873015873	75	127
30.7540589569161	30.93981859410431	46	127
30.7540589569161	30.93981859410431	50	127
30.7540589569161	30.93981859410431	53	127
30.87015873015873	30.98625850340136	74	127
30.98625850340136	31.148798185941043	46	127
30.98625850340136	31.148798185941043	53	127
30.98625850340136	31.148798185941043	50	127
30.98625850340136	31.090748299319728	72	127
31.090748299319728	31.183628117913834	70	127
31.21845804988662	31.36938775510204	34	127
31.311337868480727	31.415827664399092	58	127
31.415827664399092	31.6015873015873	46	127
31.415827664399092	31.6015873015873	50	127
31.415827664399092	31.6015873015873	53	127
31.415827664399092	31.543537414965986	57	127
31.543537414965986	31.67124716553288	58	127
31.67124716553288	31.78734693877551	57	127
31.67124716553288	31.857006802721088	46	127
31.67124716553288	31.857006802721088	50	127
31.67124716553288	31.857006802721088	53	127
31.78734693877551	31.915056689342403	58	127
31.915056689342403	32.07759637188209	53	127
31.915056689342403	32.0427664399093	60	127
31.915056689342403	32.07759637188209	46	127
31.915056689342403	32.07759637188209	50	127
32.0427664399093	32.112426303854875	62	127
32.14725623582766	32.32140589569161	34	127
32.28655328798186	32.36784580498866	75	127
32.36784580498866	32.50716553287982	46	127
32.36784580498866	32.47233560090703	77	127
32.36784580498866	32.50716553287982	48	127
32.36784580498866	32.50716553287982	51	127
32.36784580498866	32.50716553287982	54	127
32.47233560090703	32.5768253968254	75	127
32.5768253968254	32.762585034013604	48	127
32.5768253968254	32.70453514739229	77	127
32.5768253968254	32.762585034013604	46	127
32.5768253968254	32.762585034013604	51	127
32.5768253968254	32.762585034013604	54	127
32.70453514739229	32.82063492063492	75	127
32.82063492063492	33.04120181405896	48	127
32.82063492063492	33.04120181405896	51	127
32.82063492063492	33.04120181405896	54	127
32.82063492063492	32.983174603174604	74	127
32.82063492063492	33.04120181405896	46	127
32.983174603174604	33.07605442176871	72	127
33.1108843537415	33.296621315192745	34	127
33.23859410430839	33.34308390022676	60	127
33.34308390022676	33.50562358276644	51	127
33.34308390022676	33.44757369614513	59	127
33.34308390022676	33.50562358276644	46	127
33.34308390022676	33.50562358276644	48	127
33.34308390022676	33.50562358276644	54	127
33.44757369614513	33.56367346938776	60	127
33.56367346938776	33.7378231292517	51	127
33.56367346938776	33.7378231292517	54	127
33.56367346938776	33.7378231292517	46	127
33.56367346938776	33.679750566893425	59	127
33.56367346938776	33.7378231292517	48	127
33.679750566893425	33.79587301587301	60	127
33.79587301587301	33.911972789115644	62	127
33.79587301587301	33.981632653061226	46	127
33.79587301587301	33.981632653061226	48	127
33.79587301587301	33.981632653061226	51	127
33.79587301587301	33.981632653061226	54	127
33.911972789115644	34.00485260770975	63	127
34.03968253968254	34.202222222222225	34	127
34.15578231292517	34.2718820861678	77	127
34.2718820861678	34.446009070294785	56	127
34.2718820861678	34.37637188208617	79	127
34.2718820861678	34.446009070294785	46	127
34.2718820861678	34.446009070294785	53	127
34.37637188208617	34.4924716553288	77	127
34.4924716553288	34.678231292517005	56	127
34.4924716553288	34.678231292517005	46	127
34.4924716553288	34.62018140589569	79	127
34.4924716553288	34.678231292517005	53	127
34.62018140589569	34.747891156462586	77	127
34.747891156462586	34.86399092970522	75	127
34.747891156462586	34.93365079365079	46	127
34.747891156462586	34.93365079365079	53	127
34.747891156462586	34.93365079365079	56	127
34.86399092970522	34.945238095238096	74	127
34.98009070294785	35.14263038548753	34	127
35.08458049886622	35.21229024943311	79	127
35.21229024943311	35.36321995464853	46	127
35.21229024943311	35.36321995464853	51	127
35.21229024943311	35.36321995464853	55	127
35.21229024943311	35.29356009070295	80	127
35.29356009070295	35.42126984126984	79	127
35.42126984126984	35.52575963718821	80	127
35.42126984126984	35.58378684807256	46	127
35.42126984126984	35.58378684807256	51	127
35.42126984126984	35.58378684807256	55	127
35.52575963718821	35.6534693877551	79	127
35.6534693877551	35.827619047619045	51	127
35.6534693877551	35.827619047619045	55	127
35.6534693877551	35.781179138321995	77	127
35.6534693877551	35.827619047619045	46	127
35.781179138321995	35.85083900226758	75	127
35.8740589569161	36.02498866213152	34	127
36.001768707482995	36.09462585034014	80	127
36.09462585034014	36.268798185941044	53	127
36.09462585034014	36.268798185941044	50	127
36.09462585034014	36.22233560090703	82	127
36.09462585034014	36.268798185941044	46	127
36.22233560090703	36.326848072562356	80	127
36.326848072562356	36.51260770975057	50	127
36.326848072562356	36.45455782312925	82	127
36.326848072562356	36.51260770975057	46	127
36.326848072562356	36.51260770975057	53	127
36.45455782312925	36.58226757369614	80	127
36.58226757369614	36.77963718820862	53	127
36.58226757369614	36.77963718820862	46	127
36.58226757369614	36.72156462585034	79	127
36.58226757369614	36.77963718820862	50	127
36.72156462585034	36.83768707482993	77	127
36.83768707482993	37.035056689342404	46	127
36.83768707482993	37.035056689342404	50	127
36.83768707482993	37.035056689342404	53	127
36.83768707482993	36.95378684807256	76	127
36.95378684807256	37.093106575963716	77	127
37.093106575963716	37.20920634920635	79	127
37.20920634920635	37.313696145124716	80	127
37.313696145124716	37.42979591836735	79	127
37.42979591836735	37.54589569160998	77	127
37.54589569160998	37.65038548752835	75	127
37.65038548752835	37.7897052154195	74	127
37.7897052154195	37.847755102040814	73	127
37.847755102040814	37.95224489795918	74	127
37.95224489795918	38.068344671201814	79	127
38.068344671201814	38.184444444444445	77	127
38.184444444444445	38.28893424036281	75	127
38.28893424036281	38.39342403628118	74	127
38.39342403628118	38.521133786848075	72	127
38.521133786848075	38.64884353741497	70	127
38.64884353741497	38.74172335600907	69	127
38.74172335600907	38.881020408163266	70	127
38.881020408163266	39.00873015873016	72	127
39.00873015873016	39.12485260770975	68	127
39.12485260770975	39.217732426303854	66	127
39.217732426303854	39.333832199546485	67	127
39.333832199546485	39.46154195011338	68	127
39.46154195011338	39.600861678004534	65	127
39.600861678004534	39.68213151927438	63	127
39.600861678004534	39.68213151927438	51	127
39.716961451247165	39.78662131519275	58	127
39.80984126984127	39.90269841269841	55	127
39.937551020408165	40.03040816326531	58	127
40.053650793650796	40.13492063492063	51	127
40.16975056689343	40.27421768707483	58	127
40.30907029478458	40.41356009070295	55	127
40.44839002267574	40.56448979591837	58	127
40.59931972789116	40.69219954648526	51	127
40.72702947845805	40.819909297052156	58	127
40.85473922902494	40.94761904761905	55	127
40.970839002267574	41.06371882086168	58	127
41.09854875283447	41.15659863945578	51	127
41.191428571428574	41.284285714285716	58	127
41.31913832199547	41.400408163265304	55	127
41.42360544217687	41.516507936507935	58	127
41.551315192743765	41.64421768707483	53	127
41.551315192743765	41.64421768707483	56	127
41.67902494331066	41.783537414965984	58	127
41.82997732426304	41.92283446712018	82	127
41.82997732426304	41.94607709750567	50	127
41.82997732426304	41.94607709750567	53	127
41.98090702947846	42.08539682539683	58	127
42.120226757369615	42.20149659863946	46	127
42.120226757369615	42.20149659863946	50	127
42.120226757369615	42.189886621315196	82	127
42.236326530612246	42.30596371882086	58	127
42.340816326530614	42.42208616780045	82	127
42.340816326530614	42.44530612244898	50	127
42.340816326530614	42.44530612244898	53	127
42.46852607709751	42.549795918367344	58	127
42.56138321995465	42.64267573696145	82	127
42.56138321995465	42.65428571428571	46	127
42.56138321995465	42.65428571428571	50	127
42.67750566893424	42.74716553287982	58	127
42.781995464852606	42.87487528344671	53	127
42.781995464852606	42.85165532879819	82	127
42.781995464852606	42.87487528344671	50	127
42.9097052154195	43.002585034013606	58	127
43.02580498866213	43.107074829931975	82	127
43.02580498866213	43.11868480725624	50	127
43.02580498866213	43.11868480725624	46	127
43.153514739229024	43.23478458049887	58	127
43.28122448979592	43.374104308390024	53	127
43.28122448979592	43.31603174603175	82	127
43.28122448979592	43.374104308390024	50	127
43.31603174603175	43.36249433106576	84	127
43.36249433106576	43.40893424036281	82	127
43.40893424036281	43.490204081632655	58	127
43.40893424036281	43.4553514739229	81	127
43.4553514739229	43.571451247165534	82	127
43.571451247165534	43.79206349206349	79	127
43.571451247165534	43.67596371882086	51	127
43.710793650793654	43.83850340136055	58	127
43.86172335600907	43.94299319727891	55	127
43.9778231292517	44.08229024943311	58	127
44.1055328798186	44.17519274376417	51	127
44.17519274376417	44.26807256235828	58	127
44.302902494331065	44.360952380952384	55	127
44.39578231292517	44.48866213151928	58	127
44.5118820861678	44.61637188208617	51	127
44.639591836734695	44.7324716553288	58	127
44.76730158730159	44.84854875283447	55	127
44.88340136054422	44.97625850340136	58	127
44.99950113378685	45.069160997732425	51	127
45.09235827664399	45.19687074829932	58	127
45.23167800453515	45.31297052154195	55	127
45.34777777777778	45.452290249433105	58	127
45.4871201814059	45.58	53	127
45.4871201814059	45.58	56	127
45.603197278911566	45.69609977324263	58	127
45.719319727891154	45.800589569161	50	127
45.719319727891154	45.800589569161	82	127
45.719319727891154	45.800589569161	53	127
45.835419501133785	45.92829931972789	58	127
45.96312925170068	46.03278911564626	82	127
45.96312925170068	46.056009070294785	46	127
45.96312925170068	46.056009070294785	50	127
46.07922902494331	46.18371882086168	58	127
46.2069387755102	46.31142857142857	50	127
46.2069387755102	46.29981859410431	82	127
46.2069387755102	46.31142857142857	53	127
46.34625850340136	46.439138321995465	58	127
46.47396825396825	46.57845804988662	46	127
46.47396825396825	46.57845804988662	50	127
46.47396825396825	46.555238095238096	82	127
46.601678004535145	46.706167800453514	58	127
46.72938775510204	46.79904761904762	82	127
46.72938775510204	46.81065759637188	50	127
46.72938775510204	46.81065759637188	53	127
46.84548752834467	46.90353741496599	58	127
46.938367346938776	47.03124716553288	82	127
46.938367346938776	47.06607709750567	46	127
46.938367346938776	47.06607709750567	50	127
47.100907029478456	47.1821768707483	58	127
47.205396825396825	47.29827664399093	53	127
47.205396825396825	47.25181405895692	82	127
47.205396825396825	47.29827664399093	50	127
47.25181405895692	47.29827664399093	84	127
47.29827664399093	47.33310657596372	82	127
47.33310657596372	47.37952380952381	81	127
47.33310657596372	47.425986394557825	58	127
47.37952380952381	47.46081632653061	82	127
47.46081632653061	47.55369614512472	51	127
47.46081632653061	47.646575963718824	79	127
47.588526077097505	47.68140589569161	58	127
47.7162358276644	47.83233560090703	55	127
47.86716553287982	47.96004535147392	58	127
47.98326530612245	48.06453514739229	51	127
48.09936507936508	48.16902494331066	58	127
48.192244897959185	48.29673469387755	49	127
48.31995464852608	48.412834467120184	58	127
48.44766439909297	48.54054421768708	48	127
48.5637641723356	48.6566439909297	58	127
48.691473922902496	48.784353741496595	55	127
48.691473922902496	48.93528344671202	82	127
48.80757369614513	48.888843537414964	58	127
48.93528344671202	49.179092970521545	79	127
48.93528344671202	49.02816326530612	48	127
49.062993197278914	49.14426303854875	58	127
49.179092970521545	49.24875283446712	55	127
49.179092970521545	49.4112925170068	88	127
49.271972789115644	49.36485260770975	58	127
49.4112925170068	49.504172335600906	53	127
49.4112925170068	50.18916099773243	89	127
49.53900226757369	49.6318820861678	60	127
49.666712018140586	49.75959183673469	56	127
49.79442176870748	49.91052154195011	60	127
49.93374149659864	50.02662131519274	53	127
50.061451247165536	50.154331065759635	60	127
50.18916099773243	50.28204081632653	51	127
50.30526077097505	50.40975056689342	60	127
50.43297052154195	50.479410430839	50	127
50.479410430839	50.537460317460315	60	127
50.56068027210885	50.653560090702946	57	127
50.56068027210885	50.63034013605442	72	127
50.68839002267574	50.78126984126984	60	127
50.804489795918364	50.88575963718821	50	127
50.804489795918364	50.874149659863946	69	127
50.920589569160995	50.95541950113379	60	127
50.99024943310658	51.05990929705215	72	127
50.99024943310658	51.05990929705215	84	127
50.99024943310658	51.08312925170068	57	127
51.11795918367347	51.210839002267576	60	127
51.2340589569161	51.31532879818594	82	127
51.2340589569161	51.31532879818594	70	127
51.2340589569161	51.32693877551021	55	127
51.361768707482995	51.43142857142857	58	127
51.46625850340136	51.5475283446712	55	127
51.570748299319725	51.66362811791383	58	127
51.69845804988662	51.81455782312925	51	127
51.83777777777778	51.93065759637188	61	127
51.965487528344674	52.03514739229025	70	127
51.965487528344674	52.03514739229025	82	127
51.965487528344674	52.05836734693877	51	127
52.11641723356009	52.20929705215419	61	127
52.244126984126986	52.31378684807256	63	127
52.244126984126986	52.31378684807256	75	127
52.244126984126986	52.33700680272109	56	127
52.36022675736962	52.453106575963716	60	127
52.49954648526077	52.58081632653061	84	127
52.49954648526077	52.59242630385488	56	127
52.49954648526077	52.58081632653061	72	127
52.627256235827666	52.7085260770975	60	127
52.731746031746034	52.81301587301587	53	127
52.836235827664396	52.95233560090703	63	127
52.97555555555556	53.04521541950113	72	127
52.97555555555556	53.04521541950113	84	127
52.97555555555556	53.056825396825396	53	127
53.09165532879818	53.18453514739229	63	127
53.219365079365076	53.323854875283445	58	127
53.219365079365076	53.323854875283445	65	127
53.219365079365076	53.323854875283445	77	127
53.34707482993197	53.47478458049886	86	127
53.34707482993197	53.45156462585034	62	127
53.47478458049886	53.590884353741494	77	127
53.47478458049886	53.55605442176871	58	127
53.590884353741494	53.64893424036281	86	127
53.590884353741494	53.64893424036281	62	127
53.660544217687075	53.73020408163265	56	127
53.75342403628118	53.86952380952381	86	127
53.75342403628118	53.84630385487528	58	127
53.86952380952381	53.997233560090706	77	127
53.86952380952381	53.96240362811791	56	127
53.997233560090706	54.090113378684805	86	127
53.997233560090706	54.090113378684805	58	127
54.1249433106576	54.2178231292517	55	127
54.25265306122449	54.34553287981859	58	127
54.25265306122449	54.368752834467124	87	127
54.368752834467124	54.45002267573696	55	127
54.368752834467124	54.48485260770975	75	127
54.48485260770975	54.577732426303854	58	127
54.48485260770975	54.577732426303854	87	127
54.61256235827664	54.70544217687075	44	127
54.740272108843534	54.8447619047619	84	127
54.740272108843534	54.83315192743764	56	127
54.8447619047619	54.93764172335601	44	127
54.8447619047619	54.972471655328796	72	127
54.972471655328796	55.0653514739229	80	127
54.972471655328796	55.0653514739229	56	127
55.10018140589569	55.16984126984127	79	127
55.10018140589569	55.26272108843538	46	127
55.10018140589569	55.26272108843538	58	127
55.20467120181406	55.297551020408164	82	127
55.32077097505669	55.42526077097506	79	127
55.44848072562358	55.54136054421769	75	127
55.576190476190476	55.66907029478458	70	127
55.680680272108845	55.76195011337869	67	127
55.796780045351476	55.87804988662131	63	127
55.901269841269844	55.98253968253968	58	127
56.02897959183674	56.21473922902494	34	127
56.02897959183674	56.21473922902494	46	127
56.15668934240363	56.24956916099773	82	127
56.27278911564626	56.36566893424036	77	127
56.388888888888886	56.48176870748299	74	127
56.50498866213152	56.58625850340136	70	127
56.609478458049885	56.70235827664399	65	127
56.73718820861678	56.81845804988662	62	127
56.84167800453515	56.946167800453516	58	127
56.96938775510204	57.050657596371884	39	127
56.96938775510204	57.050657596371884	51	127
57.097097505668934	57.18997732426304	58	127
57.22480725623583	57.29446712018141	54	127
57.34090702947846	57.480226757369614	58	127
57.50344671201814	57.549886621315196	51	127
57.596326530612245	57.68920634920635	58	127
57.72403628117914	57.79369614512472	54	127
57.85174603174603	57.9562358276644	58	127
57.979455782312925	58.06072562358277	51	127
58.10716553287982	58.200045351473925	58	127
58.25809523809524	58.32775510204082	54	127
58.37419501133787	58.45546485260771	58	127
58.467074829931974	58.54834467120181	51	127
58.59478458049887	58.66444444444444	58	127
58.699274376417236	58.75732426303855	54	127
58.81537414965987	58.88503401360544	58	127
58.908253968253966	58.98952380952381	53	127
59.03596371882086	59.10562358276644	58	127
59.14045351473923	59.22172335600907	38	127
59.14045351473923	59.22172335600907	50	127
59.30299319727891	59.40748299319728	82	127
59.30299319727891	59.40748299319728	70	127
59.44231292517007	59.511972789115646	46	127
59.44231292517007	59.511972789115646	34	127
59.558412698412695	59.63968253968254	70	127
59.558412698412695	59.63968253968254	82	127
59.674512471655326	59.75578231292517	50	127
59.674512471655326	59.75578231292517	38	127
59.80222222222222	59.895102040816326	82	127
59.80222222222222	59.895102040816326	70	127
59.91832199546485	59.97637188208617	34	127
59.91832199546485	59.97637188208617	46	127
60.02281179138322	60.12730158730159	70	127
60.02281179138322	60.12730158730159	82	127
60.162131519274375	60.24340136054422	50	127
60.162131519274375	60.24340136054422	38	127
60.28984126984127	60.382721088435375	70	127
60.28984126984127	60.382721088435375	82	127
60.4059410430839	60.45238095238095	34	127
60.4059410430839	60.45238095238095	46	127
60.498820861678006	60.59170068027211	70	127
60.498820861678006	60.59170068027211	82	127
60.61492063492064	60.707800453514736	38	127
60.61492063492064	60.67297052154195	82	127
60.61492063492064	60.707800453514736	50	127
60.67297052154195	60.707800453514736	84	127
60.707800453514736	60.75424036281179	82	127
60.75424036281179	60.812290249433104	81	127
60.812290249433104	60.881950113378686	82	127
60.881950113378686	60.94	39	127
60.881950113378686	60.94	51	127
60.881950113378686	61.05609977324263	78	127
61.11414965986395	61.195419501133784	54	127
61.24185941043084	61.34634920634921	58	127
61.381179138322	61.45083900226757	51	127
61.52049886621315	61.62498866213152	58	127
61.648208616780046	61.72947845804989	54	127
61.77591836734694	61.88040816326531	58	127
61.915238095238095	61.98489795918368	51	127
62.05455782312925	62.14743764172336	58	127
62.17065759637188	62.24031746031746	54	127
62.26353741496599	62.35641723356009	58	127
62.39124716553288	62.44929705215419	51	127
62.49573696145125	62.58861678004535	58	127
62.611836734693874	62.70471655328798	54	127
62.75115646258504	62.86725623582767	58	127
62.902086167800455	62.99496598639456	53	127
62.902086167800455	62.99496598639456	56	127
63.02979591836735	63.122675736961455	61	127
63.02979591836735	63.122675736961455	56	127
63.15750566893424	63.25038548752835	49	127
63.285215419501135	63.37809523809524	53	127
63.41292517006803	63.505804988662135	51	127
63.54063492063492	63.62190476190476	54	127
63.65673469387755	63.74961451247165	53	127
63.772834467120184	63.81927437641723	56	127
63.85410430839002	63.9237641723356	54	127
63.95859410430839	64.05145124716553	58	127
64.08630385487528	64.15596371882086	73	127
64.08630385487528	64.20240362811792	54	127
64.22562358276645	64.30687074829932	58	127
64.34172335600907	64.41138321995464	54	127
64.34172335600907	64.39977324263039	70	127
64.44621315192744	64.52748299319728	58	127
64.53909297052154	64.60875283446713	78	127
64.53909297052154	64.62036281179138	54	127
64.6435827664399	64.74807256235827	58	127
64.7712925170068	64.86417233560091	56	127
64.7712925170068	65.31696145124717	76	127
64.89900226757369	64.9918820861678	59	127
65.02671201814059	65.1195918367347	56	127
65.15442176870748	65.23569160997732	59	127
65.25891156462585	65.32854875283446	56	127
65.36340136054422	65.45625850340136	59	127
65.49111111111111	65.58396825396825	56	127
65.49111111111111	65.5259410430839	75	127
65.5259410430839	65.57238095238095	76	127
65.57238095238095	65.618820861678	75	127
65.618820861678	65.72331065759637	59	127
65.618820861678	65.67687074829932	73	127
65.67687074829932	65.7465306122449	75	127
65.7465306122449	65.95551020408163	56	127
65.7465306122449	65.87424036281179	74	127
65.7465306122449	65.95551020408163	59	127
65.7465306122449	65.95551020408163	62	127
65.7465306122449	65.95551020408163	65	127
65.87424036281179	66.01356009070295	86	127
66.01356009070295	66.11804988662132	77	127
66.11804988662132	66.23414965986395	86	127
66.23414965986395	66.45471655328798	62	127
66.23414965986395	66.45471655328798	56	127
66.23414965986395	66.45471655328798	59	127
66.23414965986395	66.45471655328798	65	127
66.37346938775511	66.51278911564626	86	127
66.51278911564626	66.64049886621315	77	127
66.64049886621315	66.75659863945579	86	127
66.75659863945579	66.94235827664399	57	127
66.75659863945579	66.94235827664399	60	127
66.75659863945579	66.94235827664399	63	127
66.75659863945579	66.94235827664399	66	127
66.86106575963719	66.98879818594105	87	127
66.98879818594105	67.11650793650794	78	127
67.11650793650794	67.23260770975057	87	127
67.23260770975057	67.4415873015873	57	127
67.23260770975057	67.4415873015873	60	127
67.23260770975057	67.4415873015873	63	127
67.23260770975057	67.4415873015873	66	127
67.36031746031746	67.49963718820862	87	127
67.49963718820862	67.62734693877552	78	127
67.62734693877552	67.75505668934241	87	127
67.75505668934241	67.9872335600907	58	127
67.75505668934241	67.9872335600907	56	127
67.75505668934241	67.9872335600907	62	127
67.75505668934241	67.9872335600907	65	127
67.91759637188208	68.0104761904762	86	127
68.04530612244898	68.1033560090703	82	127
68.13818594104309	68.23106575963719	77	127
68.24265306122449	68.32394557823129	74	127
68.34716553287981	68.45165532879818	70	127
68.4748752834467	68.55614512471655	65	127
68.59097505668935	68.67224489795919	62	127
68.70707482993197	68.89283446712018	55	127
68.70707482993197	68.89283446712018	46	127
68.70707482993197	68.89283446712018	43	127
68.70707482993197	68.89283446712018	51	127
68.83478458049886	68.92766439909298	87	127
68.9508843537415	69.0437641723356	82	127
69.0785941043084	69.15986394557824	79	127
69.19469387755102	69.28757369614513	75	127
69.32240362811791	69.41528344671202	70	127
69.43850340136055	69.53138321995465	67	127
69.56621315192744	69.65909297052154	63	127
69.69392290249434	69.8912925170068	32	127
69.69392290249434	69.8912925170068	44	127
69.83324263038548	69.9261224489796	84	127
69.94934240362812	70.05383219954649	80	127
70.07705215419502	70.16993197278912	75	127
70.20476190476191	70.29764172335601	72	127
70.3324716553288	70.4253514739229	68	127
70.4601814058957	70.54145124716554	63	127
70.56467120181406	70.63433106575964	60	127
70.66916099773243	70.85492063492063	34	127
70.66916099773243	70.85492063492063	46	127
70.79687074829933	70.88975056689343	80	127
70.92458049886622	71.01746031746032	77	127
71.04068027210884	71.13356009070294	74	127
71.16839002267574	71.26126984126984	68	127
71.29609977324263	71.38897959183673	65	127
71.4354195011338	71.52829931972789	62	127
71.55151927437642	71.64439909297052	56	127
71.69083900226758	71.92301587301587	39	127
71.69083900226758	71.81854875283447	55	127
71.69083900226758	71.92301587301587	51	127
71.85337868480725	71.95786848072562	63	127
71.99269841269842	72.23650793650793	51	127
71.99269841269842	72.14362811791383	55	127
71.99269841269842	72.14362811791383	58	127
72.16684807256236	72.27133786848073	63	127
72.29455782312925	72.3758276643991	55	127
72.29455782312925	72.3758276643991	58	127
72.29455782312925	72.4687074829932	51	127
72.41065759637188	72.50353741496599	63	127
72.52675736961451	72.57319727891156	55	127
72.52675736961451	72.57319727891156	58	127
72.52675736961451	72.65446712018141	51	127
72.59641723356009	72.68927437641723	63	127
72.71251700680273	72.7821768707483	58	127
72.71251700680273	72.86344671201815	51	127
72.71251700680273	72.7821768707483	55	127
72.81698412698412	72.89827664399093	63	127
72.93310657596372	73.0027664399093	55	127
72.93310657596372	73.0027664399093	58	127
72.93310657596372	73.09564625850341	51	127
73.03759637188209	73.13047619047619	63	127
73.15369614512471	73.24657596371883	55	127
73.15369614512471	73.24657596371883	58	127
73.15369614512471	73.33945578231292	51	127
73.2814058956916	73.36267573696145	63	127
73.39750566893424	73.47877551020409	55	127
73.39750566893424	73.47877551020409	58	127
73.39750566893424	73.57165532879819	51	127
73.51360544217687	73.60648526077098	63	127
73.6297052154195	73.74580498866213	56	127
73.6297052154195	73.74580498866213	59	127
73.6297052154195	73.83866213151927	51	127
73.6297052154195	73.74580498866213	53	127
73.76902494331065	73.86190476190477	62	127
73.88512471655329	73.97800453514739	56	127
73.88512471655329	73.97800453514739	58	127
73.88512471655329	74.05927437641724	51	127
73.88512471655329	73.97800453514739	53	127
74.01283446712019	74.09410430839003	62	127
74.12893424036281	74.21020408163265	56	127
74.12893424036281	74.2914739229025	51	127
74.12893424036281	74.21020408163265	58	127
74.12893424036281	74.21020408163265	53	127
74.23342403628118	74.31469387755102	62	127
74.34952380952382	74.44240362811792	53	127
74.34952380952382	74.44240362811792	56	127
74.34952380952382	74.44240362811792	58	127
74.34952380952382	74.52367346938776	51	127
74.47723356009071	74.54689342403628	62	127
74.57011337868481	74.66299319727891	53	127
74.57011337868481	74.66299319727891	58	127
74.57011337868481	74.75587301587302	51	127
74.57011337868481	74.66299319727891	56	127
74.68621315192743	74.77909297052155	62	127
74.8255328798186	74.9184126984127	53	127
74.8255328798186	74.9184126984127	56	127
74.8255328798186	74.9184126984127	58	127
74.8255328798186	74.99968253968254	51	127
74.95324263038549	75.03451247165533	62	127
75.06934240362811	75.25510204081633	51	127
75.06934240362811	75.16222222222223	53	127
75.06934240362811	75.16222222222223	56	127
75.06934240362811	75.16222222222223	58	127
75.18544217687075	75.27832199546485	62	127
75.31315192743764	75.40603174603174	58	127
75.31315192743764	75.51052154195011	51	127
75.31315192743764	75.40603174603174	53	127
75.31315192743764	75.40603174603174	56	127
75.4524716553288	75.55696145124716	62	127
75.59179138321996	75.62662131519275	51	127
75.59179138321996	75.62662131519275	55	127
75.59179138321996	75.62662131519275	58	127
75.59179138321996	75.62662131519275	63	127
75.59179138321996	75.68467120181406	39	127
75.70789115646258	75.81238095238095	58	127
75.70789115646258	75.83560090702947	70	127
75.83560090702947	75.92848072562359	55	127
75.83560090702947	75.92848072562359	51	127
75.83560090702947	75.95170068027211	72	127
75.95170068027211	76.079410430839	74	127
75.95170068027211	76.04458049886621	58	127
76.079410430839	76.1722902494331	51	127
76.079410430839	76.1722902494331	55	127
76.079410430839	76.2071201814059	75	127
76.2071201814059	76.3	58	127
76.2071201814059	76.33482993197279	74	127
76.33482993197279	76.42770975056689	51	127
76.33482993197279	76.42770975056689	55	127
76.33482993197279	76.46253968253968	75	127
76.46253968253968	76.54380952380953	77	127
76.46253968253968	76.54380952380953	58	127
76.57863945578231	76.67151927437642	55	127
76.57863945578231	77.29845804988662	79	127
76.57863945578231	76.67151927437642	51	127
76.7063492063492	76.79922902494332	58	127
76.82244897959184	76.90371882086168	55	127
76.82244897959184	76.90371882086168	51	127
76.93854875283446	77.03142857142858	58	127
77.06625850340136	77.15913832199547	51	127
77.06625850340136	77.15913832199547	55	127
77.19396825396825	77.2752380952381	58	127
77.29845804988662	77.39133786848073	51	127
77.29845804988662	77.39133786848073	55	127
77.29845804988662	77.42616780045351	77	127
77.42616780045351	77.51904761904763	75	127
77.42616780045351	77.51904761904763	58	127
77.5538775510204	77.63514739229025	51	127
77.5538775510204	77.63514739229025	56	127
77.5538775510204	77.65836734693877	74	127
77.5538775510204	77.63514739229025	53	127
77.65836734693877	77.73963718820862	59	127
77.65836734693877	77.77446712018141	75	127
77.77446712018141	77.86734693877551	51	127
77.77446712018141	77.86734693877551	53	127
77.77446712018141	77.86734693877551	56	127
77.77446712018141	77.89056689342404	77	127
77.89056689342404	77.98344671201814	58	127
77.89056689342404	78.01827664399093	79	127
78.01827664399093	78.1227664399093	51	127
78.01827664399093	78.1227664399093	53	127
78.01827664399093	78.1227664399093	56	127
78.01827664399093	78.1575963718821	80	127
78.1575963718821	78.28530612244899	82	127
78.1575963718821	78.25047619047619	58	127
78.28530612244899	78.40140589569161	84	127
78.28530612244899	78.37818594104309	56	127
78.28530612244899	78.37818594104309	51	127
78.28530612244899	78.37818594104309	53	127
78.40140589569161	78.50589569160998	82	127
78.40140589569161	78.47106575963718	58	127
78.50589569160998	78.59877551020408	80	127
78.50589569160998	78.58716553287982	51	127
78.50589569160998	78.58716553287982	53	127
78.50589569160998	78.58716553287982	56	127
78.59877551020408	78.69165532879819	58	127
78.59877551020408	78.71487528344672	79	127
78.71487528344672	78.80775510204082	51	127
78.71487528344672	78.80775510204082	53	127
78.71487528344672	78.80775510204082	56	127
78.71487528344672	78.83097505668934	77	127
78.83097505668934	78.93546485260771	75	127
78.83097505668934	78.91224489795918	58	127
78.93546485260771	79.0631746031746	74	127
78.93546485260771	79.02832199546485	51	127
78.93546485260771	79.02832199546485	53	127
78.93546485260771	79.02832199546485	56	127
79.0631746031746	79.15603174603174	58	127
79.0631746031746	79.1908843537415	72	127
79.1908843537415	79.27215419501134	53	127
79.1908843537415	79.27215419501134	51	127
79.1908843537415	79.27215419501134	56	127
79.1908843537415	79.29537414965986	74	127
79.29537414965986	79.43469387755103	70	127
79.29537414965986	79.41145124716553	58	127
79.43469387755103	80.39832199546485	51	127
79.43469387755103	79.64365079365079	75	127
79.58562358276644	79.71333333333334	55	127
79.71333333333334	79.84104308390023	54	127
79.84104308390023	79.93392290249433	55	127
79.93392290249433	80.06163265306122	54	127
80.06163265306122	80.18934240362812	55	127
80.18934240362812	80.30541950113378	54	127
80.30541950113378	80.39832199546485	55	127
80.39832199546485	80.89755102040816	50	127
80.39832199546485	80.52603174603175	53	127
80.52603174603175	80.65374149659864	55	127
80.65374149659864	80.78145124716553	53	127
80.78145124716553	80.89755102040816	55	127
80.89755102040816	81.02526077097505	51	127
80.89755102040816	81.42	48	127
81.02526077097505	81.15297052154195	55	127
81.15297052154195	81.29229024943311	51	127
81.29229024943311	81.42	55	127
81.42	82.37201814058957	47	127
81.42	81.5128798185941	50	127
81.5128798185941	81.62897959183674	55	127
81.62897959183674	81.75668934240363	50	127
81.75668934240363	81.87278911564626	55	127
81.87278911564626	81.9888888888889	50	127
81.87278911564626	81.9888888888889	78	127
81.9888888888889	82.13981859410431	55	127
81.9888888888889	82.09337868480726	79	127
82.13981859410431	82.25591836734694	50	127
82.13981859410431	82.25591836734694	78	127
82.25591836734694	82.37201814058957	55	127
82.25591836734694	82.33718820861678	79	127
82.37201814058957	83.41691609977325	48	127
82.37201814058957	82.4881179138322	51	127
82.4881179138322	82.63904761904762	55	127
82.63904761904762	82.76675736961451	51	127
82.76675736961451	82.88285714285715	55	127
82.88285714285715	82.99895691609977	51	127
82.88285714285715	82.99895691609977	78	127
82.99895691609977	83.09181405895691	79	127
82.99895691609977	83.11505668934241	55	127
83.11505668934241	83.27759637188208	78	127
83.11505668934241	83.27759637188208	51	127
83.27759637188208	83.3704761904762	79	127
83.27759637188208	83.41691609977325	55	127
83.41691609977325	84.3108843537415	47	127
83.41691609977325	83.56784580498866	50	127
83.56784580498866	83.68394557823129	55	127
83.68394557823129	83.78843537414966	50	127
83.78843537414966	83.9045351473923	55	127
83.9045351473923	84.00902494331066	50	127
83.9045351473923	84.00902494331066	78	127
84.00902494331066	84.11349206349206	55	127
84.00902494331066	84.09027210884354	79	127
84.11349206349206	84.19478458049886	50	127
84.11349206349206	84.19478458049886	78	127
84.19478458049886	84.3108843537415	55	127
84.19478458049886	84.2760544217687	79	127
84.3108843537415	84.42698412698412	51	127
84.3108843537415	85.2861224489796	48	127
84.42698412698412	84.54308390022676	55	127
84.54308390022676	84.67079365079366	51	127
84.67079365079366	84.79850340136055	55	127
84.79850340136055	84.91460317460317	51	127
84.79850340136055	84.91460317460317	78	127
84.91460317460317	85.00748299319729	79	127
84.91460317460317	85.04231292517007	55	127
85.04231292517007	85.1584126984127	78	127
85.04231292517007	85.1584126984127	51	127
85.1584126984127	85.2512925170068	79	127
85.1584126984127	85.2861224489796	55	127
85.2861224489796	85.41383219954649	50	127
85.2861224489796	86.28458049886622	46	127
85.41383219954649	85.54154195011338	55	127
85.54154195011338	85.66925170068028	50	127
85.66925170068028	85.79696145124717	55	127
85.79696145124717	85.9130612244898	78	127
85.79696145124717	85.9130612244898	50	127
85.9130612244898	86.00591836734694	79	127
85.9130612244898	86.04077097505669	55	127
86.04077097505669	86.16848072562358	78	127
86.04077097505669	86.16848072562358	50	127
86.16848072562358	86.28458049886622	55	127
86.16848072562358	86.24975056689343	79	127
86.28458049886622	87.35269841269842	44	127
86.28458049886622	86.41229024943311	48	127
86.41229024943311	86.52839002267574	55	127
86.52839002267574	86.6444671201814	48	127
86.6444671201814	86.7721768707483	55	127
86.7721768707483	86.98117913832199	78	127
86.7721768707483	86.98117913832199	48	127
86.98117913832199	87.08566893424036	79	127
86.98117913832199	87.12049886621315	55	127
87.12049886621315	87.24820861678005	78	127
87.12049886621315	87.24820861678005	48	127
87.24820861678005	87.35269841269842	55	127
87.24820861678005	87.32947845804989	79	127
87.35269841269842	88.29310657596372	43	127
87.35269841269842	88.29310657596372	47	127
87.85192743764172	87.96802721088436	78	127
87.96802721088436	88.06090702947846	79	127
88.09573696145125	88.22344671201814	78	127
88.22344671201814	88.29310657596372	79	127
88.29310657596372	88.40918367346939	67	127
88.44403628117914	88.61818594104308	67	127
89.69791383219955	89.82562358276644	78	127
89.82562358276644	89.91848072562358	79	127
89.95333333333333	90.0578231292517	78	127
90.0578231292517	90.13909297052155	79	127
90.16231292517007	90.34807256235828	67	127
90.39451247165533	90.58024943310657	67	127
90.63832199546485	90.75442176870749	66	127
90.75442176870749	90.84730158730159	67	127
90.87052154195011	90.998231292517	66	127
90.998231292517	91.09108843537415	67	127
91.1259410430839	91.32328798185941	55	127
91.38136054421769	91.5787074829932	55	127
91.64839002267574	91.77609977324263	35	127
91.77609977324263	91.85736961451248	36	127
91.86897959183673	92.0082993197279	35	127
92.0082993197279	92.08954648526077	36	127
92.12439909297052	92.1940589569161	32	127
92.35659863945578	92.4146485260771	32	127
92.53074829931973	92.60038548752834	32	127
92.78616780045351	92.86743764172336	32	127
93.0415873015873	93.13446712018141	32	127
93.0415873015873	93.13446712018141	44	127
93.0415873015873	93.13446712018141	66	127
93.0415873015873	93.13446712018141	72	127
93.30861678004536	93.3898866213152	32	127
93.30861678004536	93.3898866213152	44	127
93.30861678004536	93.3898866213152	66	127
93.30861678004536	93.3898866213152	72	127
93.56403628117914	93.65691609977324	72	127
93.56403628117914	93.65691609977324	32	127
93.56403628117914	93.65691609977324	44	127
93.56403628117914	93.65691609977324	66	127
93.83106575963718	94.00519274376417	66	127
93.83106575963718	93.91233560090703	32	127
93.83106575963718	93.91233560090703	44	127
93.83106575963718	93.91233560090703	75	127
93.91233560090703	93.99360544217687	74	127
93.99360544217687	94.05165532879819	72	127
94.07487528344672	94.51603174603174	31	127
94.07487528344672	94.51603174603174	43	127
94.07487528344672	94.51603174603174	67	127
94.07487528344672	94.51603174603174	71	127
94.07487528344672	94.51603174603174	74	127
94.07487528344672	94.51603174603174	79	127
95.16621315192744	95.41002267573697	47	127
95.16621315192744	95.41002267573697	55	127
95.16621315192744	95.41002267573697	62	127
95.16621315192744	95.41002267573697	65	127
95.67705215419501	95.86281179138322	48	127
95.67705215419501	95.86281179138322	55	127
95.67705215419501	95.86281179138322	60	127
95.67705215419501	95.86281179138322	63	127
96.16467120181406	96.35043083900227	41	127
96.16467120181406	96.35043083900227	53	127
96.16467120181406	96.35043083900227	56	127
96.16467120181406	96.35043083900227	62	127
97.08185941043084	97.2792290249433	42	127
97.08185941043084	97.2792290249433	51	127
97.08185941043084	97.2792290249433	57	127
97.08185941043084	97.2792290249433	60	127
97.69718820861678	97.96421768707484	60	127
97.69718820861678	97.96421768707484	42	127
97.69718820861678	97.96421768707484	51	127
97.69718820861678	97.96421768707484	57	127
98.24285714285715	98.46344671201814	43	127
98.24285714285715	98.46344671201814	50	127
98.24285714285715	98.46344671201814	55	127
98.24285714285715	98.46344671201814	59	127
98.7304761904762	98.84657596371882	35	127
98.84657596371882	98.93945578231292	36	127
98.97428571428571	99.11360544217688	35	127
99.11360544217688	99.2297052154195	36	127
99.2645351473923	99.33419501133787	32	127
99.53156462585034	99.57800453514739	32	127
99.7637641723356	99.84503401360544	32	127
99.99596371882086	100.06562358276643	32	127
100.25138321995465	100.32104308390022	32	127
100.25138321995465	100.32104308390022	44	127
100.25138321995465	100.32104308390022	60	127
100.25138321995465	100.32104308390022	66	127
100.49519274376418	100.57646258503401	32	127
100.49519274376418	100.57646258503401	44	127
100.49519274376418	100.57646258503401	60	127
100.49519274376418	100.57646258503401	66	127
100.77383219954649	100.85510204081632	32	127
100.77383219954649	100.85510204081632	44	127
100.77383219954649	100.85510204081632	60	127
100.77383219954649	100.85510204081632	66	127
101.02925170068028	101.09891156462585	32	127
101.02925170068028	101.09891156462585	44	127
101.02925170068028	101.09891156462585	60	127
101.02925170068028	101.09891156462585	66	127
101.28467120181406	101.69102040816327	31	127
101.28467120181406	101.69102040816327	43	127
101.28467120181406	101.69102040816327	59	127
101.28467120181406	101.69102040816327	62	127
101.28467120181406	101.69102040816327	67	127
102.32956916099774	102.49210884353741	55	127
102.32956916099774	102.49210884353741	62	127
102.32956916099774	102.49210884353741	65	127
102.32956916099774	102.49210884353741	47	127
102.79396825396826	102.95650793650793	48	127
102.79396825396826	102.95650793650793	55	127
102.79396825396826	102.95650793650793	60	127
102.79396825396826	102.95650793650793	63	127
103.28158730158731	103.49056689342403	41	127
103.28158730158731	103.49056689342403	53	127
103.28158730158731	103.49056689342403	56	127
103.28158730158731	103.49056689342403	62	127
104.32648526077098	104.5702947845805	55	127
104.32648526077098	104.51224489795918	43	127
104.32648526077098	104.51224489795918	51	127
104.32648526077098	104.5702947845805	60	127
104.5702947845805	104.68639455782314	56	127
104.68639455782314	104.79088435374149	55	127
104.81410430839003	104.96503401360545	43	127
104.81410430839003	104.96503401360545	50	127
104.81410430839003	105.03469387755102	55	127
104.81410430839003	105.03469387755102	59	127
105.03469387755102	105.16240362811791	56	127
105.16240362811791	105.26689342403628	55	127
105.31333333333333	105.5107029478458	36	127
105.31333333333333	105.5107029478458	48	127
105.31333333333333	105.5107029478458	51	127
105.31333333333333	105.5107029478458	55	127
105.31333333333333	105.5107029478458	60	127
105.56875283446712	105.69646258503401	55	127
105.69646258503401	105.8241723356009	53	127
105.8241723356009	105.97510204081632	52	127
105.97510204081632	106.10281179138322	53	127
106.10281179138322	106.21891156462586	50	127
106.21891156462586	106.33501133786848	52	127
106.38145124716553	107.17092970521541	60	127
106.38145124716553	107.17092970521541	64	127
106.38145124716553	107.17092970521541	67	127
106.38145124716553	107.17092970521541	52	127
106.38145124716553	107.17092970521541	48	127
106.38145124716553	107.17092970521541	55	127
107.3682993197279	108.12294784580499	55	127
107.3682993197279	108.12294784580499	47	127
107.3682993197279	108.12294784580499	53	127
107.3682993197279	108.12294784580499	62	127
107.3682993197279	108.12294784580499	65	127
107.3682993197279	108.12294784580499	67	127
108.37836734693877	108.77310657596372	60	127
108.37836734693877	108.77310657596372	64	127
108.37836734693877	108.77310657596372	67	127
108.37836734693877	108.77310657596372	55	127
108.37836734693877	108.77310657596372	48	127
108.37836734693877	108.77310657596372	52	127
108.87759637188209	109.20267573696145	60	127
108.87759637188209	109.20267573696145	45	127
108.87759637188209	109.20267573696145	50	127
108.87759637188209	109.20267573696145	66	127
109.30716553287982	109.3768253968254	43	127
109.30716553287982	109.3768253968254	50	127
109.30716553287982	109.45809523809524	59	127
109.30716553287982	109.45809523809524	67	127
109.38843537414967	109.49292517006803	43	127
109.51614512471656	109.60902494331066	47	127
109.64385487528345	109.74834467120182	50	127
109.7831746031746	109.88766439909297	55	127
109.9108843537415	110.01537414965986	59	127
110.03859410430839	110.1314739229025	62	127
110.03859410430839	110.21274376417233	67	127
110.15469387755103	110.24757369614512	65	127
110.28240362811792	111.04866213151928	67	127
110.28240362811792	111.04866213151928	64	127
110.28240362811792	111.04866213151928	60	127
110.28240362811792	110.80485260770975	72	127
110.80485260770975	111.04866213151928	74	127
111.04866213151928	111.23442176870748	76	127
111.30408163265307	111.91941043083901	67	127
111.30408163265307	111.71043083900227	74	127
111.30408163265307	111.91941043083901	59	127
111.30408163265307	111.91941043083901	65	127
111.71043083900227	111.84975056689342	72	127
111.84975056689342	111.93102040816326	74	127
112.02390022675738	112.22126984126984	67	127
112.02390022675738	112.22126984126984	59	127
112.02390022675738	112.22126984126984	65	127
112.29092970521542	112.73210884353742	60	127
112.29092970521542	112.32575963718821	67	127
112.29092970521542	112.73210884353742	64	127
112.32575963718821	112.73210884353742	76	127
112.73210884353742	112.96430839002268	62	127
112.73210884353742	112.96430839002268	59	127
112.73210884353742	112.96430839002268	74	127
112.96430839002268	113.15006802721088	57	127
112.96430839002268	113.15006802721088	60	127
112.96430839002268	113.15006802721088	72	127
113.21972789115647	113.82344671201814	55	127
113.21972789115647	113.34743764172336	71	127
113.21972789115647	113.82344671201814	62	127
113.34743764172336	113.45192743764173	72	127
113.45192743764173	113.57963718820862	74	127
113.57963718820862	113.6492970521542	71	127
113.68412698412699	113.88149659863946	67	127
113.82344671201814	113.91632653061224	53	127
113.95115646258503	114.0556462585034	52	127
114.0904761904762	114.19496598639456	50	127
114.22979591836734	114.97283446712018	57	127
114.22979591836734	114.97283446712018	49	127
114.22979591836734	114.97283446712018	52	127
114.97283446712018	115.05410430839002	81	127
115.25147392290249	116.01773242630385	57	127
115.25147392290249	115.33274376417233	81	127
115.25147392290249	116.01773242630385	50	127
115.25147392290249	116.01773242630385	53	127
115.51850340136055	115.55333333333333	81	127
115.75070294784581	115.85519274376418	81	127
115.89002267573696	115.98290249433107	80	127
116.01773242630385	116.11061224489796	81	127
116.13383219954649	116.18027210884354	77	127
116.21510204081633	116.96975056689342	50	127
116.21510204081633	116.96975056689342	55	127
116.21510204081633	116.78399092970521	79	127
116.21510204081633	116.96975056689342	47	127
116.96975056689342	117.05102040816327	79	127
117.24839002267574	117.95659863945578	55	127
117.24839002267574	117.30643990929705	79	127
117.24839002267574	117.95659863945578	48	127
117.24839002267574	117.95659863945578	52	127
117.45736961451247	117.52702947845805	79	127
117.73600907029478	117.82888888888888	79	127
117.82888888888888	117.95659863945578	78	127
117.95659863945578	118.08430839002267	79	127
118.08430839002267	118.18879818594104	76	127
118.22362811791383	118.7344671201814	55	127
118.22362811791383	118.7344671201814	52	127
118.22362811791383	118.43260770975057	79	127
118.7344671201814	118.9898866213152	50	127
118.7344671201814	118.9898866213152	53	127
118.9898866213152	119.19886621315193	48	127
118.9898866213152	119.19886621315193	52	127
119.2685260770975	119.89546485260772	53	127
119.2685260770975	119.89546485260772	57	127
119.89546485260772	120.02317460317461	52	127
119.89546485260772	120.02317460317461	55	127
120.02317460317461	120.13927437641723	50	127
120.02317460317461	120.13927437641723	53	127
120.17410430839003	120.35986394557823	55	127
120.17410430839003	120.35986394557823	59	127
120.42952380952381	120.65011337868481	65	127
120.42952380952381	120.65011337868481	31	127
120.42952380952381	120.65011337868481	43	127
120.42952380952381	120.65011337868481	55	127
120.42952380952381	120.65011337868481	62	127
120.70816326530613	120.92875283446712	65	127
120.70816326530613	120.92875283446712	43	127
120.70816326530613	120.92875283446712	55	127
120.70816326530613	120.92875283446712	62	127
120.70816326530613	120.92875283446712	31	127
120.9984126984127	121.14934240362811	62	127
120.9984126984127	121.14934240362811	31	127
120.9984126984127	121.14934240362811	43	127
120.9984126984127	121.14934240362811	55	127
120.9984126984127	121.14934240362811	65	127
121.19578231292518	121.4047619047619	36	127
121.19578231292518	121.4047619047619	48	127
121.19578231292518	121.4047619047619	55	127
121.19578231292518	121.4047619047619	60	127
121.19578231292518	121.4047619047619	64	127
121.45120181405896	121.57891156462586	67	127
121.57891156462586	121.67179138321995	66	127
121.67179138321995	121.76467120181405	67	127
121.76467120181405	121.88077097505669	65	127
121.88077097505669	122.02009070294784	64	127
121.88077097505669	121.95043083900227	79	127
122.02009070294784	122.12458049886621	62	127
122.159410430839	122.85600907029479	69	127
122.159410430839	122.2522902494331	79	127
122.159410430839	122.85600907029479	61	127
122.159410430839	122.85600907029479	64	127
122.38	122.43804988662131	79	127
122.62380952380953	122.71668934240363	79	127
122.71668934240363	122.85600907029479	78	127
122.85600907029479	122.97210884353741	79	127
122.97210884353741	123.07659863945578	76	127
123.11142857142858	123.42489795918367	76	127
123.11142857142858	123.94734693877551	62	127
123.11142857142858	123.94734693877551	65	127
123.11142857142858	123.94734693877551	69	127
123.42489795918367	123.61065759637188	77	127
123.6687074829932	123.7615873015873	74	127
123.94734693877551	124.05183673469388	74	127
124.05183673469388	124.14471655328798	76	127
124.1679365079365	124.88775510204081	67	127
124.1679365079365	124.24920634920635	77	127
124.1679365079365	124.7368253968254	62	127
124.1679365079365	124.88775510204081	59	127
124.45818594104308	124.53945578231293	77	127
124.67877551020408	124.77165532879819	77	127
124.77165532879819	124.88775510204081	76	127
124.88775510204081	125.07351473922903	65	127
124.88775510204081	125.0154648526077	77	127
125.0154648526077	125.09673469387755	74	127
125.13156462585034	125.92104308390023	67	127
125.13156462585034	125.39859410430839	75	127
125.13156462585034	125.92104308390023	60	127
125.13156462585034	125.92104308390023	64	127
125.39859410430839	125.64240362811792	76	127
125.70045351473922	125.78172335600907	72	127
125.92104308390023	125.9907029478458	72	127
126.13002267573697	126.6524716553288	52	127
126.13002267573697	126.19968253968254	72	127
126.13002267573697	126.6524716553288	55	127
126.19968253968254	126.26934240362812	74	127
126.26934240362812	126.33900226757369	72	127
126.33900226757369	126.40866213151928	74	127
126.40866213151928	126.47832199546485	72	127
126.47832199546485	126.54798185941043	74	127
126.54798185941043	126.57120181405895	72	127
126.57120181405895	126.60603174603175	71	127
126.60603174603175	126.6524716553288	72	127
126.6524716553288	126.90789115646258	53	127
126.6524716553288	126.90789115646258	50	127
126.6524716553288	126.90789115646258	74	127
126.90789115646258	127.04721088435375	52	127
126.90789115646258	127.04721088435375	48	127
126.90789115646258	127.04721088435375	76	127
127.11687074829932	127.87151927437641	53	127
127.11687074829932	127.38390022675738	76	127
127.11687074829932	127.87151927437641	57	127
127.38390022675738	127.61609977324262	69	127
127.61609977324262	128.4055782312925	74	127
127.87151927437641	128.02244897959184	52	127
127.87151927437641	128.02244897959184	55	127
128.02244897959184	128.09208616780046	50	127
128.02244897959184	128.09208616780046	53	127
128.1269387755102	128.3126984126984	43	127
128.1269387755102	128.3126984126984	55	127
128.4055782312925	128.55650793650793	62	127
128.4055782312925	128.51006802721088	72	127
128.4055782312925	128.55650793650793	55	127
128.51006802721088	128.59133786848074	71	127
128.62616780045352	128.82353741496598	62	127
128.62616780045352	128.82353741496598	55	127
128.62616780045352	128.82353741496598	69	127
128.89319727891157	129.0673469387755	62	127
128.89319727891157	128.9628344671202	71	127
128.89319727891157	129.0673469387755	55	127
129.12539682539682	129.3227664399093	48	127
129.12539682539682	129.21825396825398	72	127
129.12539682539682	129.3227664399093	60	127
129.25310657596373	129.3575963718821	64	127
129.39242630385488	129.46208616780046	65	127
129.47367346938776	129.55496598639456	67	127
129.58979591836734	129.6942857142857	69	127
129.72909297052155	129.82199546485262	71	127
129.84521541950113	129.9497052154195	72	127
129.97292517006804	130.03095238095239	74	127
130.06580498866214	130.13544217687075	76	127
130.06580498866214	130.1702947845805	60	127
130.13544217687075	130.19351473922902	77	127
130.19351473922902	130.2631746031746	76	127
130.19351473922902	130.29800453514738	59	127
130.2631746031746	130.3328344671202	77	127
130.3328344671202	130.41410430839002	57	127
130.3328344671202	130.37927437641724	76	127
130.37927437641724	130.43732426303856	77	127
130.43732426303856	130.4837641723356	76	127
130.43732426303856	130.54179138321996	55	127
130.4837641723356	130.53020408163266	74	127
130.53020408163266	130.5766439909297	76	127
130.5766439909297	130.68113378684808	53	127
130.5766439909297	130.855283446712	77	127
130.71596371882086	130.82045351473923	52	127
130.855283446712	131.04104308390023	79	127
130.855283446712	130.94816326530614	50	127
130.97138321995465	131.07587301587301	48	127
131.1107029478458	131.81891156462586	53	127
131.1107029478458	131.31968253968253	79	127
131.31968253968253	131.56349206349208	72	127
131.56349206349208	132.35297052154195	77	127
131.81891156462586	131.94662131519274	52	127
131.94662131519274	132.0511111111111	50	127
132.0859410430839	132.28328798185942	55	127
132.35297052154195	132.55034013605442	43	127
132.35297052154195	132.48068027210886	76	127
132.35297052154195	132.55034013605442	55	127
132.48068027210886	132.58517006802722	74	127
132.62	132.82897959183674	55	127
132.62	132.70126984126983	72	127
132.62	132.82897959183674	43	127
132.89861678004536	132.97990929705216	74	127
132.89861678004536	133.07278911564626	31	127
132.89861678004536	133.07278911564626	43	127
133.13083900226758	133.49074829931973	48	127
133.13083900226758	133.22371882086168	75	127
133.13083900226758	133.49074829931973	36	127
133.25854875283446	133.33981859410432	67	127
133.38625850340136	133.4675283446712	68	127
133.49074829931973	133.58362811791383	67	127
133.6184580498866	133.72294784580498	65	127
133.6184580498866	133.71131519274377	50	127
133.7577777777778	133.83904761904762	63	127
133.86226757369616	133.96673469387756	62	127
133.86226757369616	133.943537414966	51	127
134.0015873015873	134.164126984127	60	127
134.19895691609977	134.46598639455783	50	127
134.19895691609977	134.29183673469387	59	127
134.3266439909297	134.4079365079365	60	127
134.4427664399093	134.54725623582766	59	127
134.5936961451247	134.62852607709752	48	127
134.5936961451247	134.69818594104308	57	127
134.72140589569162	134.82589569161	59	127
134.72140589569162	134.81428571428572	50	127
134.86072562358277	134.93038548752835	55	127
134.96521541950113	135.15097505668933	43	127
134.96521541950113	135.05809523809523	57	127
135.09290249433107	135.18580498866214	59	127
135.20902494331065	135.7895238095238	51	127
135.20902494331065	135.3251247165533	60	127
135.35995464852607	135.45281179138323	55	127
135.5108843537415	135.61537414965986	60	127
135.6618140589569	135.76630385487528	55	127
135.7895238095238	135.8824036281179	58	127
135.7895238095238	135.85916099773243	50	127
135.90562358276645	136.03333333333333	55	127
136.06814058956917	136.14943310657597	60	127
136.06814058956917	136.12621315192743	48	127
136.18426303854875	136.28875283446712	63	127
136.33519274376417	136.40485260770976	46	127
136.33519274376417	136.42807256235827	62	127
136.4512925170068	136.50934240362812	55	127
136.5209523809524	136.6138321995465	45	127
136.5209523809524	136.6254195011338	66	127
136.66027210884354	136.77637188208618	69	127
136.81120181405896	136.90408163265306	70	127
136.81120181405896	136.88083900226758	43	127
136.9273015873016	137.00857142857143	62	127
137.0434013605442	137.1130612244898	42	127
137.0434013605442	137.12467120181407	69	127
137.15950113378685	137.24074829931973	72	127
137.27560090702949	137.35687074829931	43	127
137.27560090702949	137.4497505668934	70	127
137.38009070294785	137.47297052154195	62	127
137.50780045351473	137.65873015873015	63	127
137.69356009070296	137.79804988662133	62	127
137.8328798185941	137.9257596371882	60	127
137.8328798185941	137.94897959183675	78	127
137.94897959183675	138.06507936507936	58	127
137.94897959183675	138.06507936507936	79	127
138.09990929705216	138.19278911564626	57	127
138.09990929705216	138.21600907029477	78	127
138.21600907029477	138.3088888888889	55	127
138.21600907029477	138.3088888888889	79	127
138.34371882086168	138.43659863945578	54	127
138.47142857142856	138.54108843537415	55	127
138.55269841269842	138.64557823129252	54	127
138.6804081632653	138.77326530612245	52	127
138.78489795918367	138.9009977324263	54	127
138.78489795918367	138.94743764172335	73	127
138.94743764172335	139.05192743764172	74	127
138.94743764172335	139.05192743764172	50	127
139.07514739229026	139.16802721088436	52	127
139.07514739229026	139.19124716553287	73	127
139.19124716553287	139.28410430839003	74	127
139.19124716553287	139.28410430839003	54	127
139.31895691609978	139.41183673469388	55	127
139.45827664399093	139.5627664399093	54	127
139.58598639455784	139.6904761904762	55	127
139.72530612244898	139.84140589569162	50	127
139.88784580498867	139.98072562358277	53	127
139.88784580498867	140.01555555555555	79	127
140.01555555555555	140.1316553287982	52	127
140.01555555555555	140.1316553287982	80	127
140.16648526077097	140.25934240362812	53	127
140.16648526077097	140.2825850340136	79	127
140.2825850340136	140.38707482993198	50	127
140.2825850340136	140.38707482993198	80	127
140.43351473922903	140.5147619047619	53	127
140.54961451247166	140.6308843537415	56	127
140.66569160997733	140.79342403628118	55	127
140.66569160997733	140.81662131519275	81	127
140.81662131519275	140.90952380952382	53	127
140.81662131519275	140.90952380952382	83	127
140.9443537414966	141.0372335600907	51	127
140.9443537414966	141.09528344671202	83	127
141.09528344671202	141.18816326530612	50	127
141.09528344671202	141.18816326530612	84	127
141.23460317460317	141.30426303854875	67	127
141.23460317460317	141.30426303854875	79	127
141.23460317460317	141.32746031746032	48	127
141.33909297052153	141.4319501133787	47	127
141.46680272108844	141.83832199546487	72	127
141.46680272108844	141.65256235827664	48	127
141.46680272108844	141.83832199546487	84	127
141.96603174603175	142.04727891156463	74	127
141.96603174603175	142.04727891156463	86	127
141.96603174603175	142.09374149659865	59	127
142.09374149659865	142.20984126984126	60	127
142.24467120181407	142.31433106575963	76	127
142.24467120181407	142.31433106575963	88	127
142.24467120181407	142.38399092970522	59	127
142.38399092970522	142.47687074829932	60	127
142.50009070294786	142.61619047619047	74	127
142.50009070294786	142.61619047619047	86	127
142.87160997732425	142.90643990929706	84	127
142.87160997732425	142.90643990929706	72	127
142.99931972789116	143.080589569161	86	127
142.99931972789116	143.12702947845804	30	127
142.99931972789116	143.080589569161	74	127
143.12702947845804	143.2198866213152	31	127
143.25473922902495	143.32437641723357	67	127
143.25473922902495	143.32437641723357	79	127
143.25473922902495	143.38244897959183	30	127
143.38244897959183	143.47530612244898	31	127
143.49854875283447	143.9281179138322	36	127
143.49854875283447	143.60303854875283	76	127
143.49854875283447	143.60303854875283	88	127
143.49854875283447	143.9281179138322	48	127
143.67269841269842	143.7771882086168	79	127
143.8004081632653	143.8932879818594	80	127
143.9281179138322	144.0209977324263	79	127
144.0558276643991	144.1487074829932	77	127
144.0558276643991	144.12548752834468	38	127
144.0558276643991	144.12548752834468	50	127
144.16031746031746	144.25319727891156	75	127
144.28802721088437	144.39251700680273	74	127
144.28802721088437	144.38090702947846	39	127
144.28802721088437	144.38090702947846	51	127
144.45054421768708	144.56666666666666	72	127
144.6014739229025	144.71759637188208	38	127
144.6014739229025	144.70596371882087	71	127
144.6014739229025	144.71759637188208	50	127
144.72920634920635	144.79886621315194	72	127
144.83369614512472	144.88013605442177	71	127
144.9033560090703	144.9381859410431	36	127
144.9033560090703	144.9381859410431	48	127
144.9033560090703	144.97301587301587	69	127
145.00784580498868	145.0891156462585	71	127
145.00784580498868	145.06589569160997	38	127
145.00784580498868	145.06589569160997	50	127
145.11231292517007	145.21680272108844	72	127
145.2516553287982	145.36773242630386	74	127
145.2516553287982	145.33292517006802	31	127
145.2516553287982	145.33292517006802	43	127
145.4025850340136	145.50707482993198	75	127
145.54190476190476	145.63478458049886	77	127
145.54190476190476	145.9366439909297	44	127
145.54190476190476	145.9366439909297	56	127
145.6580045351474	145.76249433106577	75	127
145.78571428571428	145.89020408163265	74	127
145.9366439909297	146.02952380952382	72	127
146.07596371882087	146.16884353741497	71	127
146.07596371882087	146.14562358276643	43	127
146.07596371882087	146.14562358276643	55	127
146.20367346938775	146.29655328798185	77	127
146.3197732426304	146.4126530612245	74	127
146.3197732426304	146.40104308390022	41	127
146.3197732426304	146.40104308390022	53	127
146.44748299319727	146.5403628117914	80	127
146.5635827664399	146.6332426303855	51	127
146.5635827664399	146.6332426303855	39	127
146.5635827664399	146.656462585034	79	127
146.67968253968255	146.77256235827664	84	127
146.79578231292518	146.877052154195	38	127
146.79578231292518	146.877052154195	50	127
146.79578231292518	146.88866213151928	77	127
146.92349206349206	147.01637188208616	83	127
147.05120181405897	147.49238095238096	48	127
147.05120181405897	147.14408163265307	84	127
147.05120181405897	147.49238095238096	36	127
147.17891156462585	147.28340136054422	79	127
147.30662131519276	147.46916099773242	75	127
147.49238095238096	147.58526077097505	72	127
147.64331065759637	148.0148299319728	85	127
147.64331065759637	148.0148299319728	73	127
148.14253968253968	148.21219954648527	72	127
148.14253968253968	148.21219954648527	84	127
148.40956916099773	148.47922902494332	70	127
148.40956916099773	148.47922902494332	82	127
148.6069387755102	148.6765986394558	68	127
148.6069387755102	148.6765986394558	80	127
148.81591836734694	148.88557823129253	67	127
148.81591836734694	148.88557823129253	79	127
149.03650793650795	149.61700680272108	77	127
149.03650793650795	149.61700680272108	65	127
149.2338775510204	149.4196371882086	36	127
149.47768707482993	149.88403628117914	41	127
149.47768707482993	149.88403628117914	29	127
149.61700680272108	149.7098866213152	84	127
149.75632653061226	149.84920634920636	80	127
149.88403628117914	150.01174603174604	77	127
150.03496598639455	150.13945578231292	72	127
150.03496598639455	150.23233560090702	31	127
150.03496598639455	150.23233560090702	43	127
150.17426303854876	150.26716553287983	68	127
150.3019954648526	150.41809523809525	67	127
150.3019954648526	150.5341723356009	32	127
150.3019954648526	150.5341723356009	44	127
150.45292517006803	150.56902494331067	65	127
150.60385487528345	151.34687074829932	43	127
150.60385487528345	150.8012244897959	64	127
150.60385487528345	151.34687074829932	31	127
151.52104308390022	151.9390022675737	31	127
151.52104308390022	151.9390022675737	43	127
151.66036281179137	151.76485260770974	85	127
151.81126984126985	151.90417233560092	82	127
151.9390022675737	152.0318820861678	79	127
152.07832199546485	152.18281179138322	73	127
152.07832199546485	152.28730158730158	33	127
152.07832199546485	152.28730158730158	45	127
152.21761904761905	152.31052154195012	70	127
152.3453514739229	152.44984126984127	69	127
152.3453514739229	152.5775283446712	46	127
152.3453514739229	152.5775283446712	34	127
152.51950113378686	152.64721088435374	67	127
152.68201814058958	153.42507936507937	45	127
152.68201814058958	152.89102040816326	66	127
152.68201814058958	153.42507936507937	33	127
153.69210884353743	154.06362811791382	33	127
153.69210884353743	154.06362811791382	45	127
153.8198185941043	153.9126984126984	87	127
153.93591836734694	154.02879818594104	84	127
154.06362811791382	154.14489795918368	81	127
154.17972789115646	154.36546485260772	35	127
154.17972789115646	154.27260770975056	78	127
154.17972789115646	154.36546485260772	47	127
154.30743764172337	154.40031746031747	75	127
154.42353741496598	154.6208843537415	36	127
154.42353741496598	154.6208843537415	48	127
154.42353741496598	154.51639455782313	74	127
154.55124716553289	154.64412698412698	72	127
154.67895691609976	155.03886621315192	35	127
154.67895691609976	155.03886621315192	47	127
154.80666666666667	154.8879365079365	80	127
154.91115646258504	155.0156462585034	77	127
155.03886621315192	155.13172335600908	74	127
155.15496598639456	155.23621315192744	71	127
155.15496598639456	155.32911564625851	36	127
155.15496598639456	155.32911564625851	48	127
155.2710657596372	155.3639455782313	68	127
155.39877551020408	155.49163265306123	67	127
155.39877551020408	155.5845351473923	38	127
155.39877551020408	155.5845351473923	50	127
155.5148752834467	155.6077551020408	65	127
155.64256235827665	156.03732426303856	36	127
155.64256235827665	156.03732426303856	48	127
155.79351473922904	155.88639455782314	79	127
155.92122448979592	156.01410430839002	75	127
156.03732426303856	156.13020408163266	72	127
156.16503401360544	156.2578911564626	67	127
156.16503401360544	156.35079365079366	38	127
156.16503401360544	156.35079365079366	50	127
156.29274376417234	156.38562358276644	63	127
156.42045351473922	156.51331065759638	62	127
156.42045351473922	156.62943310657596	39	127
156.42045351473922	156.62943310657596	51	127
156.53655328798186	156.6526530612245	60	127
156.68748299319728	157.0590022675737	38	127
156.68748299319728	157.0590022675737	50	127
156.8151927437642	156.90807256235829	77	127
156.94290249433107	157.03578231292516	74	127
157.0590022675737	157.16349206349207	71	127
157.18671201814058	157.3724716553288	39	127
157.18671201814058	157.27956916099774	65	127
157.18671201814058	157.3724716553288	51	127
157.3144217687075	157.4073015873016	63	127
157.44213151927437	157.53498866213152	62	127
157.44213151927437	157.6511111111111	41	127
157.44213151927437	157.6511111111111	53	127
157.56984126984128	157.68591836734694	60	127
157.70916099773243	157.89489795918368	59	127
157.70916099773243	157.89489795918368	47	127
157.9645804988662	158.0458276643991	48	127
158.08068027210885	158.17356009070295	50	127
158.20839002267573	158.39414965986396	41	127
158.46380952380952	158.55666666666667	43	127
158.59151927437642	158.68439909297052	44	127
158.7192290249433	158.92820861678004	38	127
158.9746485260771	159.04430839002268	39	127
159.07913832199546	159.18362811791383	41	127
159.21845804988664	159.4274149659864	35	127
159.21845804988664	159.49709750566893	86	127
159.49709750566893	159.62480725623584	87	127
159.49709750566893	159.58997732426303	36	127
159.62480725623584	159.7292970521542	38	127
159.62480725623584	159.7292970521542	89	127
159.764126984127	161.65655328798186	31	127
159.764126984127	160.05437641723356	83	127
160.05437641723356	160.1704761904762	84	127
160.1704761904762	160.2633560090703	86	127
160.29816326530613	160.5768253968254	77	127
160.5768253968254	160.70451247165533	79	127
160.70451247165533	160.8090022675737	80	127
160.84385487528345	161.12249433106575	74	127
161.12249433106575	161.25020408163266	75	127
161.25020408163266	161.35469387755103	77	127
161.3895238095238	161.5520634920635	71	127
161.5520634920635	161.65655328798186	72	127
161.65655328798186	161.7378231292517	74	127
161.78426303854874	162.0280725623583	65	127
162.0280725623583	162.1441723356009	67	127
162.1441723356009	162.2138321995465	68	127
162.24866213151927	162.457641723356	50	127
162.24866213151927	162.5273015873016	62	127
162.5273015873016	162.678231292517	63	127
162.5273015873016	162.64340136054423	51	127
162.678231292517	162.74786848072563	53	127
162.678231292517	162.74786848072563	65	127
162.78272108843538	163.0265306122449	47	127
162.78272108843538	163.0961904761905	59	127
163.0961904761905	163.2471201814059	60	127
163.0961904761905	163.20068027210885	48	127
163.2471201814059	163.34	62	127
163.2471201814059	163.34	50	127
163.37482993197278	163.73473922902494	59	127
163.37482993197278	163.63024943310657	47	127
163.73473922902494	163.88566893424036	48	127
163.73473922902494	163.9321088435374	60	127
163.9321088435374	164.08303854875282	62	127
163.9321088435374	164.08303854875282	50	127
164.12945578231293	166.34698412698413	31	127
164.12945578231293	166.34698412698413	43	127
164.12945578231293	167.10163265306122	55	127
167.10163265306122	167.19448979591837	35	127
167.20612244897958	167.31061224489795	36	127
167.3338321995465	167.4034693877551	35	127
167.43832199546486	167.53120181405896	36	127
167.56603174603174	167.63569160997733	32	127
167.84467120181407	167.9259410430839	32	127
168.10009070294785	168.20458049886622	32	127
168.35551020408164	168.4715873015873	32	127
168.59931972789116	168.6457596371882	72	127
168.59931972789116	168.6457596371882	32	127
168.59931972789116	168.6457596371882	44	127
168.59931972789116	168.6457596371882	66	127
168.79668934240362	168.87795918367348	44	127
168.79668934240362	168.87795918367348	66	127
168.79668934240362	168.87795918367348	72	127
168.79668934240362	168.87795918367348	32	127
169.06371882086168	169.1449886621315	72	127
169.06371882086168	169.1449886621315	32	127
169.06371882086168	169.1449886621315	44	127
169.06371882086168	169.1449886621315	66	127
169.3075283446712	169.38879818594106	32	127
169.3075283446712	169.38879818594106	44	127
169.3075283446712	169.4004081632653	75	127
169.3075283446712	169.5281179138322	66	127
169.4004081632653	169.50489795918367	74	127
169.50489795918367	169.5281179138322	72	127
169.59775510204082	170.01573696145124	31	127
169.59775510204082	170.01573696145124	43	127
169.59775510204082	170.01573696145124	67	127
169.59775510204082	170.01573696145124	71	127
169.59775510204082	170.01573696145124	74	127
169.59775510204082	170.01573696145124	79	127
170.72392290249434	170.97934240362812	47	127
170.72392290249434	170.97934240362812	55	127
170.72392290249434	170.97934240362812	62	127
170.72392290249434	170.97934240362812	65	127
171.28122448979593	171.46698412698413	48	127
171.28122448979593	171.46698412698413	55	127
171.28122448979593	171.46698412698413	60	127
171.28122448979593	171.46698412698413	63	127
171.81528344671202	172.05909297052153	41	127
171.81528344671202	172.05909297052153	53	127
171.81528344671202	172.05909297052153	56	127
171.81528344671202	172.05909297052153	62	127
172.8601814058957	173.0459410430839	42	127
172.8601814058957	173.0459410430839	51	127
172.8601814058957	173.0459410430839	57	127
172.8601814058957	173.0459410430839	60	127
173.34780045351474	173.55678004535147	42	127
173.34780045351474	173.55678004535147	51	127
173.34780045351474	173.55678004535147	57	127
173.34780045351474	173.55678004535147	60	127
173.90507936507936	174.06761904761905	43	127
173.90507936507936	174.06761904761905	50	127
173.90507936507936	174.06761904761905	55	127
173.90507936507936	174.06761904761905	59	127
174.45074829931974	174.5900680272109	35	127
174.5900680272109	174.682947845805	36	127
174.71777777777777	174.85709750566895	35	127
174.85709750566895	174.94997732426305	36	127
174.97319727891156	175.04285714285714	32	127
175.20539682539683	175.27503401360545	32	127
175.48403628117913	175.54208616780045	32	127
175.48403628117913	175.54208616780045	48	127
175.48403628117913	175.54208616780045	51	127
175.48403628117913	175.54208616780045	54	127
175.73945578231292	175.82072562358277	32	127
175.73945578231292	175.82072562358277	48	127
175.73945578231292	175.82072562358277	51	127
175.73945578231292	175.82072562358277	54	127
175.94843537414965	176.01809523809524	32	127
175.94843537414965	176.01809523809524	44	127
175.94843537414965	176.01809523809524	51	127
175.94843537414965	176.01809523809524	54	127
175.94843537414965	176.01809523809524	60	127
176.20385487528344	176.27351473922903	32	127
176.20385487528344	176.27351473922903	44	127
176.20385487528344	176.27351473922903	51	127
176.20385487528344	176.27351473922903	54	127
176.20385487528344	176.27351473922903	60	127
176.447641723356	176.52893424036282	32	127
176.447641723356	176.52893424036282	44	127
176.447641723356	176.52893424036282	54	127
176.447641723356	176.52893424036282	60	127
176.447641723356	176.52893424036282	63	127
176.6914739229025	176.77274376417233	32	127
176.6914739229025	176.77274376417233	44	127
176.6914739229025	176.77274376417233	54	127
176.6914739229025	176.77274376417233	60	127
176.6914739229025	176.77274376417233	63	127
176.9701133786848	177.38807256235827	33	127
176.9701133786848	177.38807256235827	45	127
176.9701133786848	177.38807256235827	60	127
176.9701133786848	177.38807256235827	63	127
176.9701133786848	177.38807256235827	66	127
178.14272108843537	178.3284807256236	57	127
178.14272108843537	178.3284807256236	60	127
178.14272108843537	178.3284807256236	66	127
178.14272108843537	178.3284807256236	78	127
178.69997732426305	178.88575963718822	58	127
178.69997732426305	178.88575963718822	61	127
178.69997732426305	178.88575963718822	65	127
178.69997732426305	178.88575963718822	77	127
179.141179138322	179.3269387755102	51	127
179.141179138322	179.3269387755102	63	127
179.141179138322	179.3269387755102	66	127
179.141179138322	179.3269387755102	72	127
179.141179138322	179.3269387755102	75	127
180.18607709750566	180.3718367346939	53	127
180.18607709750566	180.4298866213152	65	127
180.18607709750566	180.4298866213152	70	127
180.18607709750566	180.4298866213152	73	127
180.4298866213152	180.56920634920635	66	127
180.56920634920635	180.67369614512472	65	127
180.73174603174604	180.9291156462585	53	127
180.73174603174604	180.9291156462585	63	127
180.73174603174604	180.98716553287983	65	127
180.73174603174604	180.98716553287983	69	127
180.73174603174604	180.98716553287983	72	127
180.98716553287983	181.16131519274376	66	127
181.16131519274376	181.26580498866213	65	127
181.30063492063493	181.7534240362812	70	127
181.30063492063493	182.00884353741498	46	127
181.30063492063493	182.00884353741498	49	127
181.30063492063493	182.00884353741498	53	127
181.7534240362812	182.00884353741498	72	127
182.00884353741498	182.1829931972789	73	127
182.2526530612245	182.68219954648526	72	127
182.2526530612245	183.0653514739229	45	127
182.2526530612245	183.0653514739229	51	127
182.2526530612245	183.0653514739229	53	127
182.68219954648526	182.80993197278912	70	127
182.80993197278912	182.891179138322	72	127
183.0653514739229	183.2511111111111	65	127
183.3207709750567	183.9709297052154	49	127
183.3207709750567	183.35560090702947	65	127
183.3207709750567	183.9709297052154	46	127
183.3207709750567	183.9709297052154	53	127
183.35560090702947	183.70390022675738	73	127
183.70390022675738	183.9709297052154	72	127
183.9709297052154	184.16827664399094	70	127
184.23795918367347	184.69074829931972	53	127
184.23795918367347	184.34244897959184	69	127
184.23795918367347	184.69074829931972	41	127
184.23795918367347	184.69074829931972	48	127
184.34244897959184	184.43532879818594	70	127
184.43532879818594	184.58625850340135	72	127
184.58625850340135	184.74879818594104	69	127
184.74879818594104	184.922947845805	65	127
184.8881179138322	184.95777777777778	57	127
185.0158276643991	185.12031746031747	60	127
185.0158276643991	185.31768707482993	77	127
185.15514739229025	185.28285714285715	63	127
185.31768707482993	185.79369614512473	65	127
185.31768707482993	185.37573696145125	77	127
185.31768707482993	185.79369614512473	61	127
185.37573696145125	185.43378684807257	78	127
185.43378684807257	185.50344671201813	77	127
185.50344671201813	185.56149659863945	78	127
185.56149659863945	185.61954648526077	77	127
185.61954648526077	185.68920634920636	78	127
185.68920634920636	185.72403628117914	77	127
185.72403628117914	185.79369614512473	78	127
185.79369614512473	186.0142857142857	60	127
185.79369614512473	185.8633560090703	77	127
185.79369614512473	186.0142857142857	63	127
185.8633560090703	185.93301587301588	78	127
185.93301587301588	185.95621315192744	77	127
185.95621315192744	186.0142857142857	78	127
186.0142857142857	186.20004535147393	61	127
186.0142857142857	186.07233560090702	77	127
186.0142857142857	186.20004535147393	58	127
186.07233560090702	186.1419954648526	78	127
186.1419954648526	186.1768253968254	77	127
186.1768253968254	186.22326530612244	75	127
186.22326530612244	186.2697052154195	77	127
186.2697052154195	186.8734240362812	56	127
186.2697052154195	186.36258503401362	78	127
186.2697052154195	186.8734240362812	60	127
186.3974149659864	186.50190476190477	77	127
186.54834467120182	186.66444444444446	75	127
186.69927437641724	186.79215419501134	73	127
186.82696145124717	186.90825396825397	72	127
186.94308390022675	187.03596371882085	70	127
187.07079365079366	187.16367346938776	68	127
187.07079365079366	187.26816326530613	44	127
187.07079365079366	187.26816326530613	56	127
187.18687074829933	187.3029931972789	66	127
187.33780045351475	187.51197278911565	65	127
187.33780045351475	187.5584126984127	49	127
187.33780045351475	187.5584126984127	61	127
187.5584126984127	187.81383219954648	58	127
187.5584126984127	187.81383219954648	46	127
187.81383219954648	188.02281179138322	55	127
187.81383219954648	188.02281179138322	43	127
188.02281179138322	188.19696145124718	41	127
188.02281179138322	188.19696145124718	53	127
188.26662131519274	188.3594784580499	67	127
188.26662131519274	188.81229024943312	40	127
188.26662131519274	188.81229024943312	52	127
188.39433106575964	188.498820861678	68	127
188.52204081632652	188.61489795918368	70	127
188.64975056689343	188.71938775510205	72	127
188.7542403628118	188.8471201814059	74	127
188.88195011337868	188.97480725623583	76	127
188.99804988662132	189.24185941043083	36	127
188.99804988662132	189.24185941043083	48	127
188.99804988662132	189.09092970521542	77	127
189.14897959183673	189.26507936507937	79	127
189.29990929705215	189.4740589569161	80	127
189.29990929705215	189.78752834467122	41	127
189.29990929705215	189.78752834467122	53	127
189.78752834467122	190.0661678004535	37	127
189.78752834467122	190.0661678004535	49	127
190.0661678004535	190.2519274376417	36	127
190.0661678004535	190.2519274376417	48	127
190.30997732426303	191.06462585034015	35	127
190.30997732426303	190.40285714285713	79	127
190.30997732426303	191.06462585034015	47	127
190.43768707482994	190.53056689342404	81	127
190.5770068027211	190.65827664399092	83	127
190.68149659863946	190.77437641723355	84	127
190.80920634920636	190.90208616780046	86	127
190.93691609977324	191.02979591836734	87	127
191.06462585034015	191.15750566893425	89	127
191.18072562358276	191.28521541950113	86	127
191.30843537414967	191.73800453514738	48	127
191.30843537414967	191.47097505668935	87	127
191.30843537414967	191.73800453514738	36	127
191.73800453514738	191.99342403628117	32	127
191.73800453514738	191.99342403628117	44	127
191.99342403628117	192.2024036281179	31	127
191.99342403628117	192.2024036281179	43	127
192.28367346938776	193.02671201814059	42	127
192.28367346938776	192.39977324263037	86	127
192.28367346938776	193.02671201814059	30	127
192.39977324263037	192.53909297052155	87	127
192.53909297052155	192.66680272108843	86	127
192.66680272108843	192.78290249433107	87	127
192.78290249433107	192.8990022675737	89	127
192.8990022675737	193.02671201814059	87	127
193.02671201814059	193.14281179138322	86	127
193.14281179138322	193.2705215419501	84	127
193.2705215419501	193.35179138321996	83	127
193.2705215419501	193.5259410430839	31	127
193.2705215419501	193.5259410430839	43	127
193.45628117913833	193.5839909297052	83	127
193.5839909297052	193.76975056689344	59	127
193.5839909297052	193.71170068027212	84	127
193.5839909297052	193.76975056689344	55	127
193.5839909297052	193.76975056689344	62	127
193.71170068027212	193.839410430839	83	127
193.839410430839	193.95551020408163	84	127
193.839410430839	194.02517006802722	55	127
193.839410430839	194.02517006802722	59	127
193.839410430839	194.02517006802722	62	127
193.95551020408163	194.0832199546485	83	127
194.0832199546485	194.26897959183674	55	127
194.0832199546485	194.26897959183674	62	127
194.0832199546485	194.26897959183674	59	127
194.0832199546485	194.21092970521542	81	127
194.21092970521542	194.35024943310657	79	127
194.35024943310657	194.5360090702948	43	127
194.4663492063492	194.5940589569161	67	127
194.5940589569161	194.76820861678004	55	127
194.5940589569161	194.76820861678004	59	127
194.5940589569161	194.76820861678004	62	127
194.5940589569161	194.721768707483	66	127
194.721768707483	194.83786848072563	67	127
194.83786848072563	194.95396825396824	66	127
194.83786848072563	194.9655782312925	55	127
194.83786848072563	194.9655782312925	59	127
194.83786848072563	194.9655782312925	62	127
194.95396825396824	195.02362811791383	67	127
195.02362811791383	195.2209977324263	59	127
195.02362811791383	195.16294784580498	69	127
195.02362811791383	195.2209977324263	55	127
195.02362811791383	195.2209977324263	62	127
195.16294784580498	195.2906575963719	71	127
195.2906575963719	195.47641723356008	43	127
195.42997732426304	195.5344671201814	84	127
195.5344671201814	195.70861678004536	63	127
195.5344671201814	195.6621768707483	86	127
195.5344671201814	195.70861678004536	55	127
195.5344671201814	195.70861678004536	60	127
195.6621768707483	195.77827664399092	84	127
195.77827664399092	195.95242630385488	63	127
195.77827664399092	195.95242630385488	55	127
195.77827664399092	195.89437641723356	86	127
195.77827664399092	195.95242630385488	60	127
195.89437641723356	196.02208616780047	84	127
196.02208616780047	196.17301587301588	55	127
196.02208616780047	196.11496598639457	83	127
196.02208616780047	196.17301587301588	63	127
196.02208616780047	196.17301587301588	60	127
196.11496598639457	196.24267573696144	81	127
196.24267573696144	196.42843537414967	43	127
196.37038548752835	196.48648526077096	69	127
196.48648526077096	196.62580498866214	68	127
196.48648526077096	196.68385487528346	55	127
196.48648526077096	196.68385487528346	60	127
196.48648526077096	196.68385487528346	63	127
196.62580498866214	196.74190476190475	69	127
196.74190476190475	196.92766439909298	55	127
196.74190476190475	196.92766439909298	63	127
196.74190476190475	196.92766439909298	60	127
196.74190476190475	196.86961451247166	68	127
196.86961451247166	196.9508843537415	69	127
196.9508843537415	197.14825396825398	55	127
196.9508843537415	197.14825396825398	60	127
196.9508843537415	197.14825396825398	63	127
196.9508843537415	197.0785941043084	71	127
197.0785941043084	197.20630385487527	72	127
197.20630385487527	197.3920634920635	43	127
197.33401360544218	197.46172335600906	86	127
197.46172335600906	197.61265306122448	65	127
197.46172335600906	197.61265306122448	62	127
197.46172335600906	197.5778231292517	87	127
197.46172335600906	197.61265306122448	55	127
197.5778231292517	197.65909297052156	86	127
197.65909297052156	197.81002267573697	62	127
197.65909297052156	197.77519274376417	87	127
197.65909297052156	197.81002267573697	55	127
197.65909297052156	197.81002267573697	65	127
197.77519274376417	197.87968253968253	86	127
197.87968253968253	198.0538321995465	65	127
197.87968253968253	198.0538321995465	55	127
197.87968253968253	197.9841723356009	84	127
197.87968253968253	198.0538321995465	62	127
197.9841723356009	198.1118820861678	83	127
198.1118820861678	198.297641723356	43	127
198.2395918367347	198.3673015873016	87	127
198.3673015873016	198.4834013605442	89	127
198.3673015873016	198.54145124716553	55	127
198.3673015873016	198.54145124716553	60	127
198.3673015873016	198.54145124716553	63	127
198.4834013605442	198.59950113378684	87	127
198.59950113378684	198.78526077097504	55	127
198.59950113378684	198.78526077097504	63	127
198.59950113378684	198.78526077097504	60	127
198.59950113378684	198.72721088435375	89	127
198.72721088435375	198.83170068027212	87	127
198.83170068027212	198.959410430839	86	127
198.83170068027212	199.00585034013605	55	127
198.83170068027212	199.00585034013605	60	127
198.83170068027212	199.00585034013605	63	127
198.959410430839	199.06390022675737	84	127
199.06390022675737	199.24965986394557	43	127
199.19160997732428	199.31931972789116	89	127
199.31931972789116	199.4934693877551	62	127
199.31931972789116	199.4934693877551	55	127
199.31931972789116	199.4934693877551	59	127
199.31931972789116	199.44702947845806	88	127
199.44702947845806	199.5515192743764	89	127
199.5515192743764	199.72566893424036	55	127
199.5515192743764	199.66761904761904	88	127
199.5515192743764	199.72566893424036	59	127
199.5515192743764	199.72566893424036	62	127
199.66761904761904	199.79532879818595	89	127
199.79532879818595	199.92303854875283	86	127
199.79532879818595	199.98108843537415	55	127
199.79532879818595	199.98108843537415	59	127
199.79532879818595	199.98108843537415	62	127
199.92303854875283	200.06235827664398	84	127
200.06235827664398	200.25972789115647	55	127
200.06235827664398	200.25972789115647	62	127
200.06235827664398	200.25972789115647	65	127
200.06235827664398	200.19006802721088	83	127
200.19006802721088	200.3177777777778	84	127
200.3177777777778	200.48031746031745	85	127
200.48031746031745	200.57319727891158	86	127
200.57319727891158	200.6892970521542	84	127
200.6892970521542	200.8170068027211	83	127
200.8170068027211	200.95632653061224	80	127
200.95632653061224	201.10725623582766	79	127
201.10725623582766	201.23496598639457	77	127
201.23496598639457	201.36267573696145	79	127
201.36267573696145	201.4091156462585	80	127
201.4091156462585	201.5368253968254	79	127
201.5368253968254	201.6297052154195	77	127
201.6297052154195	201.74580498866214	75	127
201.74580498866214	201.87351473922902	74	127
201.87351473922902	202.00122448979593	72	127
202.00122448979593	202.1057142857143	71	127
202.1057142857143	202.23342403628118	68	127
202.23342403628118	202.33791383219955	67	127
202.33791383219955	202.46562358276643	65	127
202.46562358276643	202.61655328798187	63	127
202.61655328798187	202.73265306122448	62	127
202.73265306122448	202.8603628117914	65	127
202.8603628117914	202.98807256235827	59	127
202.98807256235827	203.06934240362813	60	127
202.98807256235827	203.08095238095237	48	127
203.11578231292518	203.197052154195	55	127
203.22027210884355	203.3247619047619	51	127
203.3595918367347	203.4524716553288	55	127
203.48730158730157	203.55696145124716	48	127
203.59179138321994	203.6962811791383	55	127
203.71950113378685	203.81238095238095	51	127
203.84721088435373	203.94009070294786	55	127
203.97492063492064	204.09102040816327	48	127
204.12585034013605	204.23034013605442	55	127
204.25356009070296	204.34643990929706	51	127
204.36965986394557	204.46253968253967	55	127
204.520589569161	204.6134693877551	48	127
204.6482993197279	204.741179138322	55	127
204.76439909297054	204.84566893424036	51	127
204.86888888888888	204.97337868480724	55	127
205.00820861678005	205.10108843537415	50	127
205.00820861678005	205.10108843537415	53	127
205.13591836734693	205.22879818594103	55	127
205.26362811791384	205.37972789115645	47	127
205.26362811791384	205.35650793650794	79	127
205.26362811791384	205.37972789115645	50	127
205.402947845805	205.4958276643991	55	127
205.54226757369614	205.63514739229024	79	127
205.54226757369614	205.6467573696145	43	127
205.54226757369614	205.6467573696145	47	127
205.6815873015873	205.7744671201814	55	127
205.82090702947846	205.92539682539683	47	127
205.82090702947846	205.9021768707483	79	127
205.82090702947846	205.92539682539683	50	127
205.94861678004534	206.0531065759637	55	127
206.07632653061225	206.18081632653062	43	127
206.07632653061225	206.18081632653062	47	127
206.07632653061225	206.16920634920635	79	127
206.20403628117913	206.3085260770975	55	127
206.33174603174604	206.41301587301587	79	127
206.33174603174604	206.4362358276644	47	127
206.33174603174604	206.4362358276644	50	127
206.47106575963718	206.56394557823128	55	127
206.58716553287982	206.66843537414965	79	127
206.58716553287982	206.68004535147392	43	127
206.58716553287982	206.68004535147392	47	127
206.7148752834467	206.83097505668934	55	127
206.85419501133788	206.94707482993198	50	127
206.85419501133788	206.90063492063493	79	127
206.85419501133788	206.94707482993198	47	127
206.90063492063493	206.94707482993198	80	127
206.94707482993198	207.01673469387754	79	127
206.99351473922903	207.0980045351474	55	127
207.01673469387754	207.06317460317462	78	127
207.06317460317462	207.1212244897959	79	127
207.1212244897959	207.29537414965986	75	127
207.1212244897959	207.20249433106576	48	127
207.23732426303854	207.33020408163264	55	127
207.3766439909297	207.46952380952382	51	127
207.5043537414966	207.62045351473924	55	127
207.64367346938775	207.73655328798185	48	127
207.7597732426304	207.8526530612245	55	127
207.87587301587303	207.93392290249434	51	127
207.96875283446713	208.06163265306122	55	127
208.08485260770976	208.21256235827664	48	127
208.23578231292518	208.32866213151928	55	127
208.36349206349206	208.45637188208616	51	127
208.49120181405897	208.6421315192744	55	127
208.67696145124717	208.758231292517	48	127
208.78145124716553	208.85111111111112	55	127
208.8859410430839	208.978820861678	51	127
209.01365079365078	209.08331065759637	55	127
209.11814058956915	209.21102040816328	50	127
209.11814058956915	209.21102040816328	53	127
209.2342403628118	209.3271201814059	55	127
209.3851700680272	209.4780498866213	79	127
209.3851700680272	209.51287981859412	47	127
209.3851700680272	209.51287981859412	50	127
209.5477097505669	209.640589569161	55	127
209.74507936507936	209.87278911564627	47	127
209.74507936507936	209.87278911564627	43	127
209.74507936507936	209.84956916099773	79	127
209.89600907029478	210.00049886621315	55	127
210.0237188208617	210.10498866213152	47	127
210.0237188208617	210.10498866213152	50	127
210.0237188208617	210.09337868480725	79	127
210.1398185941043	210.23269841269843	55	127
210.2675283446712	210.34879818594104	47	127
210.2675283446712	210.32557823129252	79	127
210.2675283446712	210.34879818594104	43	127
210.38362811791384	210.46489795918367	55	127
210.51133786848072	210.59260770975058	79	127
210.51133786848072	210.60421768707482	47	127
210.51133786848072	210.60421768707482	50	127
210.63904761904763	210.72031746031746	55	127
210.75514739229024	210.81319727891156	79	127
210.75514739229024	210.8364172335601	43	127
210.75514739229024	210.8364172335601	47	127
210.87124716553288	210.96412698412698	55	127
210.98734693877552	211.10344671201815	47	127
210.98734693877552	211.10344671201815	50	127
210.98734693877552	211.04539682539684	79	127
211.04539682539684	211.1150566893424	80	127
211.1150566893424	211.1498866213152	79	127
211.13827664399093	211.2079365079365	55	127
211.1498866213152	211.19632653061225	78	127
211.19632653061225	211.2427664399093	79	127
211.2427664399093	211.31242630385486	48	127
211.2427664399093	211.37047619047618	75	127
211.34725623582767	211.405306122449	55	127
211.4285260770975	211.5214058956916	51	127
211.54462585034014	211.6491156462585	55	127
211.6839455782313	211.7768253968254	48	127
211.8116553287982	211.9045351473923	54	127
211.9277551020408	212.03224489795917	44	127
212.06707482993198	212.17156462585035	54	127
212.20639455782313	212.29927437641723	49	127
212.33410430839	212.42698412698414	56	127
212.46181405895692	212.55469387755102	80	127
212.46181405895692	212.57791383219956	53	127
212.60113378684807	212.69401360544217	56	127
212.72884353741497	212.8101133786848	77	127
212.72884353741497	212.82172335600907	49	127
212.85655328798185	212.94943310657595	56	127
212.995873015873	213.05392290249432	85	127
212.995873015873	213.07714285714286	47	127
213.10036281179137	213.20485260770974	56	127
213.23968253968255	213.9478911564626	86	127
213.23968253968255	213.3093424036281	46	127
213.32095238095238	213.41383219954648	56	127
213.44866213151928	213.5647619047619	47	127
213.58798185941043	213.73891156462585	56	127
213.75052154195012	213.82018140589568	46	127
213.8550113378685	213.9130612244898	56	127
213.9478911564626	214.0407709750567	46	127
214.06399092970523	214.15687074829933	56	127
214.18009070294784	214.2613605442177	87	127
214.18009070294784	214.27297052154196	51	127
214.29619047619047	214.38907029478457	58	127
214.42390022675738	214.5051700680272	82	127
214.42390022675738	214.52839002267575	55	127
214.56321995464853	214.64448979591836	58	127
214.6677097505669	214.73736961451246	79	127
214.6677097505669	214.74897959183673	51	127
214.78380952380954	214.88829931972788	58	127
214.91151927437642	214.96956916099774	87	127
214.91151927437642	214.99278911564625	49	127
215.02761904761905	215.10888888888888	58	127
215.13210884353742	215.21337868480725	48	127
215.13210884353742	215.72421768707483	88	127
215.24820861678003	215.34108843537416	58	127
215.37591836734694	215.46879818594104	49	127
215.50362811791382	215.63133786848073	58	127
215.65455782312924	215.7590476190476	48	127
215.78226757369615	215.87514739229024	58	127
215.90997732426302	215.99124716553288	67	127
215.90997732426302	215.99124716553288	79	127
215.90997732426302	216.0144671201814	48	127
216.0492970521542	216.15378684807257	58	127
216.18861678004535	216.25827664399094	60	127
216.18861678004535	216.25827664399094	72	127
216.18861678004535	216.28149659863945	53	127
216.31632653061226	216.4208163265306	56	127
216.4556462585034	216.53691609977324	68	127
216.4556462585034	216.53691609977324	80	127
216.4556462585034	216.5485260770975	53	127
216.59496598639456	216.68784580498865	51	127
216.7110657596372	216.8039455782313	50	127
216.81555555555556	216.88521541950112	60	127
216.92004535147393	217.00131519274376	69	127
216.92004535147393	217.00131519274376	81	127
216.92004535147393	217.01292517006803	50	127
217.0477551020408	217.18707482993196	60	127
217.22190476190477	217.31478458049887	62	127
217.22190476190477	217.31478458049887	74	127
217.22190476190477	217.31478458049887	55	127
217.3380045351474	217.46571428571428	83	127
217.3380045351474	217.44249433106575	59	127
217.46571428571428	217.62825396825397	74	127
217.46571428571428	217.5934240362812	55	127
217.62825396825397	217.72113378684807	83	127
217.62825396825397	217.72113378684807	59	127
217.75596371882085	217.84884353741498	53	127
217.8720634920635	217.9997732426304	83	127
217.8720634920635	217.97655328798186	55	127
217.9997732426304	218.12748299319728	74	127
217.9997732426304	218.0926530612245	53	127
218.12748299319728	218.20875283446713	55	127
218.12748299319728	218.20875283446713	83	127
218.2435827664399	218.336462585034	51	127
218.3712925170068	218.48739229024943	84	127
218.3712925170068	218.46417233560092	55	127
218.48739229024943	218.61510204081634	72	127
218.48739229024943	218.58027210884353	51	127
218.61510204081634	218.69637188208617	55	127
218.61510204081634	218.69637188208617	84	127
218.73120181405895	218.82408163265305	41	127
218.87052154195013	218.9750113378685	44	127
218.87052154195013	218.998231292517	80	127
218.998231292517	219.07950113378683	50	127
218.998231292517	219.10272108843537	68	127
219.10272108843537	219.19560090702947	77	127
219.10272108843537	219.19560090702947	53	127
219.23043083900228	219.32331065759638	75	127
219.23043083900228	219.42780045351475	43	127
219.23043083900228	219.42780045351475	48	127
219.23043083900228	219.42780045351475	51	127
219.23043083900228	219.42780045351475	55	127
219.36975056689343	219.46263038548753	79	127
219.48585034013607	219.5903401360544	75	127
219.61356009070295	219.70643990929705	72	127
219.74126984126985	219.83414965986395	67	127
219.85736961451246	219.95024943310656	63	127
220.00829931972788	220.10117913832198	60	127
220.12439909297052	220.21727891156462	55	127
220.25210884353743	220.42625850340136	31	127
220.25210884353743	220.42625850340136	43	127
220.3798185941043	220.46108843537414	79	127
220.49591836734695	220.58879818594104	74	127
220.6004081632653	220.68167800453514	71	127
220.70489795918368	220.79777777777778	67	127
220.83260770975056	220.92548752834466	62	127
220.9487074829932	221.02997732426303	59	127
221.0415873015873	221.18090702947845	55	127
221.204126984127	221.28539682539682	36	127
221.204126984127	221.28539682539682	48	127
221.34344671201814	221.45954648526077	55	127
221.49437641723355	221.56403628117914	39	127
221.49437641723355	221.56403628117914	51	127
221.59886621315192	221.71496598639456	55	127
221.73818594104307	221.81945578231293	36	127
221.73818594104307	221.81945578231293	48	127
221.86589569160998	221.98199546485262	55	127
222.0168253968254	222.08648526077098	39	127
222.0168253968254	222.08648526077098	51	127
222.13292517006803	222.2374149659864	55	127
222.2606349206349	222.36512471655328	36	127
222.2606349206349	222.36512471655328	48	127
222.43478458049887	222.52766439909297	55	127
222.56249433106575	222.63215419501134	39	127
222.56249433106575	222.63215419501134	51	127
222.69020408163266	222.8063038548753	55	127
222.8295238095238	222.91079365079366	36	127
222.8295238095238	222.91079365079366	48	127
222.94562358276644	223.015283446712	55	127
223.0501133786848	223.11977324263037	39	127
223.0501133786848	223.11977324263037	51	127
223.1778231292517	223.2707029478458	55	127
223.3055328798186	223.38680272108843	38	127
223.3055328798186	223.38680272108843	50	127
223.3055328798186	223.51451247165534	55	127
223.57256235827666	223.64222222222222	35	127
223.57256235827666	223.64222222222222	47	127
223.7118820861678	223.79315192743763	79	127
223.7118820861678	223.79315192743763	67	127
223.82798185941044	223.897641723356	31	127
223.82798185941044	223.897641723356	43	127
223.94408163265305	224.03696145124715	67	127
223.94408163265305	224.03696145124715	79	127
224.07179138321996	224.1530612244898	35	127
224.07179138321996	224.1530612244898	47	127
224.19950113378684	224.29238095238094	79	127
224.19950113378684	224.29238095238094	67	127
224.32721088435375	224.3968707482993	43	127
224.32721088435375	224.3968707482993	31	127
224.44331065759638	224.559410430839	67	127
224.44331065759638	224.559410430839	79	127
224.5942403628118	224.67551020408163	35	127
224.5942403628118	224.67551020408163	47	127
224.72195011337868	224.82643990929705	79	127
224.72195011337868	224.82643990929705	67	127
224.86126984126983	224.93092970521542	31	127
224.86126984126983	224.93092970521542	43	127
224.97736961451247	225.07024943310657	67	127
224.97736961451247	225.07024943310657	79	127
225.0934693877551	225.17473922902494	47	127
225.0934693877551	225.15151927437643	79	127
225.0934693877551	225.17473922902494	35	127
225.15151927437643	225.19795918367348	80	127
225.19795918367348	225.24439909297053	79	127
225.24439909297053	225.29083900226757	78	127
225.29083900226757	225.3488888888889	79	127
225.3488888888889	225.39532879818594	36	127
225.3488888888889	225.39532879818594	48	127
225.3488888888889	225.48820861678004	75	127
225.54625850340136	225.60430839002268	39	127
225.54625850340136	225.60430839002268	51	127
225.63913832199546	225.70879818594105	55	127
225.74362811791383	225.80167800453515	36	127
225.74362811791383	225.80167800453515	48	127
225.8481179138322	225.92938775510203	55	127
225.95260770975057	226.0338775510204	51	127
225.95260770975057	226.0338775510204	39	127
226.08031746031747	226.19641723356008	55	127
226.2312471655329	226.30090702947845	36	127
226.2312471655329	226.30090702947845	48	127
226.3473469387755	226.4402267573696	55	127
226.46344671201814	226.54471655328797	39	127
226.46344671201814	226.54471655328797	51	127
226.59115646258505	226.7536961451247	55	127
226.80013605442176	226.86979591836734	36	127
226.80013605442176	226.86979591836734	48	127
226.93945578231293	227.02072562358276	55	127
227.0439455782313	227.1368253968254	39	127
227.0439455782313	227.1368253968254	51	127
227.0439455782313	227.1600453514739	55	127
227.18326530612245	227.27614512471655	60	127
227.31097505668933	227.3922448979592	50	127
227.31097505668933	227.4154648526077	53	127
227.31097505668933	227.3922448979592	38	127
227.43868480725624	227.51995464852607	58	127
227.55478458049888	227.64766439909297	46	127
227.65927437641724	227.75215419501134	50	127
227.78698412698412	227.86825396825398	48	127
227.90308390022676	227.99596371882086	51	127
228.0191836734694	228.1120634920635	50	127
228.135283446712	228.22816326530614	53	127
228.26299319727892	228.30943310657597	51	127
228.34426303854875	228.43714285714285	55	127
228.47197278911565	228.59968253968253	51	127
228.47197278911565	228.57646258503402	82	127
228.62290249433107	228.72739229024944	55	127
228.75061224489795	228.8667120181406	79	127
228.75061224489795	228.87832199546486	51	127
228.91315192743764	229.00603174603174	55	127
229.02925170068028	229.09891156462584	87	127
229.02925170068028	229.12213151927438	51	127
229.14535147392291	229.238231292517	55	127
229.26145124716552	229.3659410430839	53	127
229.26145124716552	229.8419501133787	85	127
229.4007709750567	229.4936507936508	56	127
229.52848072562358	229.62136054421768	53	127
229.6561904761905	229.7490702947846	56	127
229.7722902494331	229.8651700680272	53	127
229.9	230.00448979591837	56	127
230.03931972789115	230.0857596371882	84	127
230.03931972789115	230.13219954648525	53	127
230.09736961451247	230.14380952380952	85	127
230.16702947845806	230.23668934240362	84	127
230.16702947845806	230.28312925170067	56	127
230.2482993197279	230.29473922902494	85	127
230.3063492063492	230.50371882086168	53	127
230.3063492063492	230.50371882086168	56	127
230.3063492063492	230.3992290249433	83	127
230.3063492063492	230.50371882086168	62	127
230.3063492063492	230.50371882086168	59	127
230.4340589569161	230.5849886621315	83	127
230.5849886621315	230.68947845804988	71	127
230.68947845804988	230.782358276644	83	127
230.80557823129251	231.00294784580498	56	127
230.80557823129251	231.00294784580498	59	127
230.80557823129251	231.00294784580498	62	127
230.80557823129251	231.00294784580498	53	127
230.94489795918366	231.0609977324263	83	127
231.0609977324263	231.20031746031745	71	127
231.20031746031745	231.32802721088436	83	127
231.33963718820863	231.51378684807256	54	127
231.33963718820863	231.51378684807256	57	127
231.33963718820863	231.51378684807256	60	127
231.33963718820863	231.51378684807256	63	127
231.45573696145124	231.58344671201814	84	127
231.58344671201814	231.71115646258502	72	127
231.71115646258502	231.79242630385488	84	127
231.82725623582766	232.00140589569162	57	127
231.82725623582766	232.00140589569162	54	127
231.82725623582766	232.00140589569162	60	127
231.82725623582766	232.00140589569162	63	127
231.93174603174603	232.05945578231294	84	127
232.05945578231294	232.18716553287982	72	127
232.18716553287982	232.28004535147392	84	127
232.31487528344672	232.48902494331065	62	127
232.31487528344672	232.48902494331065	53	127
232.31487528344672	232.48902494331065	55	127
232.31487528344672	232.48902494331065	59	127
232.4193650793651	232.5122448979592	83	127
232.54707482993197	232.6631746031746	79	127
232.68639455782312	232.77927437641722	74	127
232.81410430839003	232.90698412698413	71	127
232.93020408163267	233.034693877551	67	127
233.05791383219955	233.15079365079364	62	127
233.1972335600907	233.2901133786848	59	127
233.3249433106576	233.5107029478458	60	127
233.3249433106576	233.5107029478458	51	127
233.3249433106576	233.5107029478458	55	127
233.45265306122448	233.54553287981858	84	127
233.56875283446712	233.66163265306122	79	127
233.69646258503403	233.77773242630386	75	127
233.81256235827664	233.90544217687074	72	127
233.94027210884354	234.03315192743764	67	127
234.06798185941042	234.16086167800452	63	127
234.19569160997733	234.27696145124716	60	127
234.31179138321994	234.52077097505668	53	127
234.31179138321994	234.52077097505668	41	127
234.31179138321994	234.52077097505668	44	127
234.31179138321994	234.52077097505668	48	127
234.4627210884354	234.56721088435373	80	127
234.6136507936508	234.72975056689341	77	127
234.76458049886622	234.85746031746032	72	127
234.8922902494331	234.99678004535147	68	127
235.03160997732425	235.1128798185941	65	127
235.15931972789116	235.26380952380953	60	127
235.28702947845804	235.3682993197279	56	127
235.3915192743764	235.57727891156463	31	127
235.3915192743764	235.57727891156463	43	127
235.50761904761904	235.6121088435374	79	127
235.6469387755102	235.73981859410432	74	127
235.76303854875283	235.85591836734693	71	127
235.90235827664398	235.9952380952381	67	127
236.0300680272109	236.11133786848072	62	127
236.14616780045353	236.2506575963719	59	127
236.2738775510204	236.37836734693877	55	127
236.44802721088436	236.66861678004534	36	127
236.44802721088436	236.56412698412697	60	127
236.44802721088436	236.66861678004534	48	127
236.59895691609978	236.70344671201815	55	127
236.73827664399093	236.83115646258503	60	127
236.73827664399093	236.83115646258503	63	127
236.73827664399093	236.9356462585034	48	127
236.85437641723357	236.99369614512472	55	127
237.01691609977325	237.21428571428572	48	127
237.01691609977325	237.13301587301586	60	127
237.01691609977325	237.13301587301586	63	127
237.1562358276644	237.2491156462585	55	127
237.28394557823128	237.42326530612246	60	127
237.28394557823128	237.42326530612246	63	127
237.28394557823128	237.51614512471656	48	127
237.45809523809524	237.55097505668934	55	127
237.57419501133788	237.66707482993198	60	127
237.57419501133788	237.66707482993198	63	127
237.57419501133788	237.77156462585035	48	127
237.70190476190476	237.8180045351474	55	127
237.85283446712018	237.94571428571427	63	127
237.85283446712018	238.02698412698413	48	127
237.85283446712018	237.94571428571427	60	127
237.98054421768708	238.0618140589569	55	127
238.08503401360545	238.17791383219955	60	127
238.08503401360545	238.17791383219955	63	127
238.08503401360545	238.28240362811792	48	127
238.21274376417233	238.30562358276643	55	127
238.34045351473924	238.43333333333334	60	127
238.34045351473924	238.5378231292517	48	127
238.34045351473924	238.43333333333334	63	127
238.46816326530612	238.57265306122449	55	127
238.59587301587302	238.73519274376417	65	127
238.59587301587302	238.73519274376417	62	127
238.59587301587302	238.82807256235827	48	127
238.59587301587302	238.73519274376417	59	127
238.7584126984127	238.8512925170068	56	127
238.8861224489796	238.99061224489796	62	127
238.8861224489796	238.99061224489796	65	127
238.8861224489796	239.08349206349206	48	127
238.8861224489796	238.99061224489796	59	127
239.02544217687074	239.11832199546484	55	127
239.17637188208616	239.28086167800453	65	127
239.17637188208616	239.28086167800453	59	127
239.17637188208616	239.28086167800453	62	127
239.17637188208616	239.37374149659863	48	127
239.30408163265307	239.39696145124717	55	127
239.43179138321995	239.5362811791383	59	127
239.43179138321995	239.5362811791383	65	127
239.43179138321995	239.6291609977324	48	127
239.43179138321995	239.5362811791383	62	127
239.57111111111112	239.66399092970522	55	127
239.698820861678	239.7917006802721	62	127
239.698820861678	239.7917006802721	59	127
239.698820861678	239.7917006802721	65	127
239.698820861678	239.8845804988662	48	127
239.81492063492064	239.90780045351474	55	127
239.94263038548752	240.11678004535148	48	127
239.94263038548752	240.02390022675738	59	127
239.94263038548752	240.02390022675738	62	127
239.94263038548752	240.02390022675738	65	127
240.05873015873016	240.15160997732426	55	127
240.18643990929706	240.25609977324262	65	127
240.18643990929706	240.34897959183672	48	127
240.18643990929706	240.25609977324262	59	127
240.18643990929706	240.25609977324262	62	127
240.27931972789116	240.37219954648526	55	127
240.40702947845804	240.49990929705214	62	127
240.40702947845804	240.6043990929705	48	127
240.40702947845804	240.49990929705214	65	127
240.40702947845804	240.49990929705214	59	127
240.53473922902495	240.66244897959183	55	127
240.70888888888888	240.801768707483	63	127
240.70888888888888	240.801768707483	36	127
240.70888888888888	240.801768707483	48	127
240.70888888888888	240.801768707483	55	127
240.70888888888888	240.801768707483	60	127
240.8365986394558	240.96430839002267	67	127
240.8365986394558	240.94108843537416	55	127
240.96430839002267	241.0571882086168	48	127
240.96430839002267	241.0571882086168	51	127
240.96430839002267	241.09201814058957	69	127
241.09201814058957	241.18489795918367	55	127
241.09201814058957	241.2081179138322	71	127
241.2081179138322	241.3009977324263	48	127
241.2081179138322	241.3009977324263	51	127
241.2081179138322	241.3358276643991	72	127
241.3358276643991	241.45192743764173	71	127
241.3358276643991	241.4287074829932	55	127
241.45192743764173	241.54480725623583	48	127
241.45192743764173	241.5796371882086	72	127
241.45192743764173	241.54480725623583	51	127
241.5796371882086	241.67251700680274	55	127
241.5796371882086	241.67251700680274	74	127
241.70734693877552	242.41555555555556	75	127
241.70734693877552	241.78861678004534	48	127
241.70734693877552	241.78861678004534	51	127
241.82344671201815	241.90471655328798	55	127
241.92793650793652	242.02081632653062	51	127
241.92793650793652	242.02081632653062	48	127
242.0556462585034	242.125306122449	55	127
242.16013605442177	242.25301587301587	48	127
242.16013605442177	242.25301587301587	51	127
242.28784580498865	242.38072562358278	55	127
242.41555555555556	242.57809523809524	51	127
242.41555555555556	242.57809523809524	48	127
242.41555555555556	242.61292517006802	74	127
242.61292517006802	242.72902494331066	72	127
242.61292517006802	242.72902494331066	55	127
242.7754648526077	242.8683446712018	53	127
242.7754648526077	242.89156462585035	71	127
242.7754648526077	242.8683446712018	48	127
242.7754648526077	242.8683446712018	50	127
242.89156462585035	242.98444444444445	56	127
242.89156462585035	243.01927437641723	72	127
243.01927437641723	243.1237641723356	53	127
243.01927437641723	243.1237641723356	48	127
243.01927437641723	243.1237641723356	50	127
243.01927437641723	243.14698412698414	74	127
243.14698412698414	243.28630385487529	75	127
243.14698412698414	243.23986394557824	55	127
243.28630385487529	243.37918367346938	48	127
243.28630385487529	243.37918367346938	50	127
243.28630385487529	243.37918367346938	53	127
243.28630385487529	243.41401360544216	77	127
243.41401360544216	243.55333333333334	79	127
243.41401360544216	243.51850340136053	55	127
243.55333333333334	243.68104308390022	80	127
243.55333333333334	243.64621315192744	53	127
243.55333333333334	243.64621315192744	48	127
243.55333333333334	243.64621315192744	50	127
243.68104308390022	243.7855328798186	55	127
243.68104308390022	243.83197278911564	79	127
243.83197278911564	243.94807256235828	48	127
243.83197278911564	243.94807256235828	50	127
243.83197278911564	243.94807256235828	53	127
243.83197278911564	243.98290249433106	77	127
243.98290249433106	244.0990022675737	75	127
243.98290249433106	244.06417233560092	55	127
244.0990022675737	244.21510204081633	74	127
244.0990022675737	244.1918820861678	53	127
244.0990022675737	244.1918820861678	48	127
244.0990022675737	244.1918820861678	50	127
244.21510204081633	244.30798185941043	55	127
244.21510204081633	244.3428117913832	72	127
244.3428117913832	244.44730158730158	53	127
244.3428117913832	244.49374149659863	71	127
244.3428117913832	244.44730158730158	50	127
244.3428117913832	244.44730158730158	48	127
244.49374149659863	244.58662131519273	55	127
244.49374149659863	244.62145124716554	69	127
244.62145124716554	244.70272108843537	48	127
244.62145124716554	244.70272108843537	50	127
244.62145124716554	244.70272108843537	53	127
244.62145124716554	244.7259410430839	71	127
244.7259410430839	244.84204081632652	55	127
244.7259410430839	244.87687074829932	67	127
244.87687074829932	245.7940589569161	48	127
244.87687074829932	245.1322902494331	72	127
245.0045804988662	245.1322902494331	51	127
245.1322902494331	245.24839002267575	50	127
245.24839002267575	245.35287981859412	51	127
245.35287981859412	245.46897959183673	50	127
245.46897959183673	245.56185941043083	51	127
245.56185941043083	245.6663492063492	50	127
245.6663492063492	245.7940589569161	51	127
245.7940589569161	246.31650793650795	46	127
245.7940589569161	245.93337868480725	49	127
245.93337868480725	246.08430839002267	51	127
246.08430839002267	246.2004081632653	49	127
246.2004081632653	246.31650793650795	51	127
246.31650793650795	246.82734693877552	44	127
246.31650793650795	246.43260770975056	48	127
246.43260770975056	246.57192743764173	51	127
246.57192743764173	246.6996371882086	48	127
246.6996371882086	246.82734693877552	51	127
246.82734693877552	246.96666666666667	46	127
246.82734693877552	247.8374149659864	43	127
246.96666666666667	247.09437641723355	51	127
247.09437641723355	247.2104761904762	46	127
247.2104761904762	247.34979591836733	51	127
247.34979591836733	247.47750566893424	46	127
247.34979591836733	247.47750566893424	86	127
247.47750566893424	247.60521541950112	51	127
247.47750566893424	247.57038548752834	87	127
247.60521541950112	247.73292517006803	46	127
247.60521541950112	247.73292517006803	86	127
247.73292517006803	247.8374149659864	51	127
247.73292517006803	247.81419501133786	87	127
247.8374149659864	247.94190476190477	48	127
247.8374149659864	248.84748299319727	44	127
247.94190476190477	248.08122448979591	51	127
248.08122448979591	248.22054421768706	48	127
248.22054421768706	248.34825396825397	51	127
248.34825396825397	248.4643537414966	48	127
248.34825396825397	248.4643537414966	86	127
248.4643537414966	248.56884353741498	87	127
248.4643537414966	248.5920634920635	51	127
248.5920634920635	248.7197732426304	86	127
248.5920634920635	248.7197732426304	48	127
248.7197732426304	248.8126530612245	87	127
248.7197732426304	248.84748299319727	51	127
248.84748299319727	248.98680272108842	46	127
248.84748299319727	249.86916099773242	43	127
248.98680272108842	249.10290249433106	48	127
249.10290249433106	249.25383219954648	46	127
249.25383219954648	249.3815419501134	48	127
249.3815419501134	249.50925170068027	46	127
249.3815419501134	249.50925170068027	83	127
249.50925170068027	249.59052154195012	84	127
249.50925170068027	249.61374149659864	48	127
249.61374149659864	249.74145124716554	46	127
249.61374149659864	249.74145124716554	83	127
249.74145124716554	249.86916099773242	48	127
249.74145124716554	249.83433106575964	84	127
249.86916099773242	250.90244897959184	41	127
249.86916099773242	249.99687074829933	44	127
249.99687074829933	250.11297052154194	48	127
250.11297052154194	250.22907029478458	44	127
250.22907029478458	250.35678004535148	48	127
250.35678004535148	250.48448979591836	83	127
250.35678004535148	250.48448979591836	44	127
250.48448979591836	250.57736961451246	84	127
250.48448979591836	250.61219954648527	48	127
250.61219954648527	250.72829931972788	44	127
250.61219954648527	250.72829931972788	83	127
250.72829931972788	250.8560090702948	84	127
250.72829931972788	250.90244897959184	48	127
250.90244897959184	252.00539682539682	40	127
250.90244897959184	251.03015873015872	43	127
251.03015873015872	251.18108843537414	48	127
251.18108843537414	251.29718820861677	43	127
251.29718820861677	251.42489795918368	48	127
251.42489795918368	251.5758276643991	43	127
251.42489795918368	251.5758276643991	83	127
251.5758276643991	251.6919274376417	84	127
251.5758276643991	251.74997732426303	48	127
251.74997732426303	251.87768707482994	83	127
251.74997732426303	251.87768707482994	43	127
251.87768707482994	251.97056689342404	84	127
251.87768707482994	252.00539682539682	48	127
252.00539682539682	252.144716553288	44	127
252.00539682539682	253.073514739229	41	127
252.144716553288	252.2608163265306	48	127
252.2608163265306	252.40013605442178	44	127
252.40013605442178	252.52784580498866	48	127
252.52784580498866	252.69038548752835	83	127
252.52784580498866	252.69038548752835	44	127
252.69038548752835	252.79487528344671	84	127
252.69038548752835	252.8297052154195	48	127
252.8297052154195	252.9574149659864	44	127
252.8297052154195	252.9574149659864	83	127
252.9574149659864	253.0502947845805	84	127
252.9574149659864	253.073514739229	48	127
253.073514739229	254.06036281179138	39	127
253.073514739229	253.18961451247165	43	127
253.18961451247165	253.3289342403628	48	127
253.3289342403628	253.44503401360544	43	127
253.44503401360544	253.57274376417234	48	127
253.57274376417234	253.7120634920635	43	127
253.57274376417234	253.7120634920635	83	127
253.7120634920635	253.83977324263037	48	127
253.7120634920635	253.8049433106576	84	127
253.83977324263037	253.955873015873	43	127
253.83977324263037	253.955873015873	83	127
253.955873015873	254.06036281179138	48	127
253.955873015873	254.03714285714287	84	127
254.06036281179138	255.20975056689343	37	127
254.06036281179138	254.19968253968253	41	127
254.19968253968253	254.32739229024943	48	127
254.32739229024943	254.48993197278912	41	127
254.48993197278912	254.67569160997732	48	127
254.67569160997732	254.82662131519274	41	127
254.67569160997732	254.82662131519274	83	127
254.82662131519274	254.95433106575965	48	127
254.82662131519274	254.91950113378684	84	127
254.95433106575965	255.0936507936508	83	127
254.95433106575965	255.0936507936508	41	127
255.0936507936508	255.17492063492062	84	127
255.0936507936508	255.20975056689343	48	127
255.20975056689343	256.2546485260771	40	127
255.20975056689343	256.2546485260771	36	127
255.20975056689343	256.2546485260771	48	127
255.73219954648525	255.8482993197279	83	127
255.8482993197279	255.94117913832198	84	127
255.9760090702948	256.11532879818594	83	127
256.11532879818594	256.2198185941043	84	127
256.2546485260771	256.4171882086168	72	127
256.48684807256234	256.6958276643991	72	127
257.705873015873	257.86843537414967	83	127
257.86843537414967	257.96131519274377	84	127
257.9961451247166	258.1238548752834	83	127
258.1238548752834	258.23995464852607	84	127
258.28639455782314	258.5185714285714	72	127
258.5766439909297	258.7043537414966	72	127
258.7624036281179	258.8320408163265	71	127
258.8320408163265	258.9017233560091	72	127
258.91333333333336	259.00621315192745	71	127
259.00621315192745	259.09909297052155	72	127
259.13390022675736	259.33129251700683	60	127
259.41256235827666	259.64473922902494	60	127
259.72603174603177	259.87696145124715	35	127
259.87696145124715	260.00467120181406	36	127
260.03950113378687	260.19043083900226	35	127
260.19043083900226	260.3413605442177	36	127
260.36455782312925	260.4342403628118	32	127
260.5851700680272	260.6548299319728	32	127
260.840589569161	260.92185941043084	32	127
261.09600907029477	261.1656689342404	32	127
261.29337868480724	261.36303854875285	32	127
261.29337868480724	261.36303854875285	44	127
261.29337868480724	261.36303854875285	66	127
261.29337868480724	261.36303854875285	72	127
261.51396825396824	261.58360544217686	32	127
261.51396825396824	261.58360544217686	44	127
261.51396825396824	261.58360544217686	66	127
261.51396825396824	261.58360544217686	72	127
261.722947845805	261.78099773242633	44	127
261.722947845805	261.78099773242633	32	127
261.722947845805	261.78099773242633	66	127
261.722947845805	261.78099773242633	72	127
261.9783673469388	262.18734693877553	66	127
261.9783673469388	262.0712471655329	75	127
261.9783673469388	262.0596371882086	32	127
261.9783673469388	262.0596371882086	44	127
262.0712471655329	262.164126984127	74	127
262.164126984127	262.18734693877553	72	127
262.28022675736963	262.6981859410431	31	127
262.28022675736963	262.6981859410431	43	127
262.28022675736963	262.6981859410431	67	127
262.28022675736963	262.6981859410431	71	127
262.28022675736963	262.6981859410431	74	127
262.28022675736963	262.6981859410431	79	127
263.4295918367347	263.6037641723356	62	127
263.4295918367347	263.6037641723356	47	127
263.4295918367347	263.6037641723356	55	127
263.4295918367347	263.6037641723356	65	127
263.87079365079364	264.04492063492063	48	127
263.87079365079364	264.04492063492063	55	127
263.87079365079364	264.04492063492063	60	127
263.87079365079364	264.04492063492063	63	127
264.37002267573695	264.53256235827666	41	127
264.37002267573695	264.53256235827666	53	127
264.37002267573695	264.53256235827666	56	127
264.37002267573695	264.53256235827666	62	127
265.3684580498866	265.5542403628118	42	127
265.3684580498866	265.5542403628118	51	127
265.3684580498866	265.5542403628118	57	127
265.3684580498866	265.5542403628118	60	127
265.94897959183675	266.1927664399093	42	127
265.94897959183675	266.1927664399093	51	127
265.94897959183675	266.1927664399093	57	127
265.94897959183675	266.1927664399093	60	127
266.5643083900227	266.72684807256235	55	127
266.5643083900227	266.72684807256235	43	127
266.5643083900227	266.72684807256235	50	127
266.5643083900227	266.72684807256235	59	127
267.0519274376417	267.1912471655329	35	127
267.0519274376417	267.1912471655329	59	127
267.1912471655329	267.284126984127	36	127
267.1912471655329	267.284126984127	60	127
267.3189342403628	267.4582766439909	35	127
267.3189342403628	267.4582766439909	59	127
267.4582766439909	267.5627664399093	36	127
267.4582766439909	267.5627664399093	60	127
267.5975963718821	267.6904761904762	32	127
267.5975963718821	267.6904761904762	56	127
267.7949659863946	267.86462585034013	32	127
267.7949659863946	267.86462585034013	56	127
268.0155555555556	268.0968253968254	32	127
268.0155555555556	268.0968253968254	44	127
268.0155555555556	268.0968253968254	56	127
268.2941950113379	268.36385487528344	32	127
268.2941950113379	268.36385487528344	44	127
268.2941950113379	268.36385487528344	56	127
268.54961451247163	268.6424716553288	32	127
268.54961451247163	268.6424716553288	44	127
268.54961451247163	268.6424716553288	56	127
268.54961451247163	268.6424716553288	60	127
268.874693877551	268.9559410430839	32	127
268.874693877551	268.9559410430839	44	127
268.874693877551	268.9559410430839	56	127
268.874693877551	268.9559410430839	60	127
269.1649433106576	269.25780045351473	32	127
269.1649433106576	269.25780045351473	44	127
269.1649433106576	269.25780045351473	56	127
269.1649433106576	269.25780045351473	60	127
269.1649433106576	269.25780045351473	63	127
269.44358276643993	269.52485260770976	44	127
269.44358276643993	269.52485260770976	32	127
269.44358276643993	269.52485260770976	56	127
269.44358276643993	269.52485260770976	60	127
269.44358276643993	269.52485260770976	63	127
269.72222222222223	270.16340136054424	32	127
269.72222222222223	270.16340136054424	44	127
269.72222222222223	270.16340136054424	56	127
269.72222222222223	270.16340136054424	60	127
269.72222222222223	270.16340136054424	63	127
269.72222222222223	270.16340136054424	66	127
270.88321995464855	271.0225396825397	48	127
270.88321995464855	271.0225396825397	56	127
270.88321995464855	271.0225396825397	63	127
270.88321995464855	271.0225396825397	66	127
271.3592290249433	271.62625850340135	49	127
271.3592290249433	271.62625850340135	56	127
271.3592290249433	271.62625850340135	61	127
271.3592290249433	271.62625850340135	65	127
272.03260770975055	272.25319727891156	42	127
272.03260770975055	272.25319727891156	54	127
272.03260770975055	272.25319727891156	58	127
272.03260770975055	272.25319727891156	63	127
273.0891156462585	273.3445124716553	32	127
273.0891156462585	273.3445124716553	44	127
273.0891156462585	273.3445124716553	56	127
273.0891156462585	273.3445124716553	61	127
273.77410430839	274.0063038548753	32	127
273.77410430839	274.0063038548753	44	127
273.77410430839	274.0063038548753	56	127
273.77410430839	274.0063038548753	60	127
273.77410430839	274.0063038548753	63	127
274.3546031746032	274.5751700680272	37	127
274.3546031746032	274.5751700680272	49	127
274.3546031746032	274.5751700680272	56	127
274.3546031746032	274.5751700680272	61	127
274.3546031746032	274.5751700680272	65	127
275.3878684807256	275.59684807256235	50	127
275.3878684807256	275.59684807256235	58	127
275.3878684807256	275.59684807256235	65	127
275.3878684807256	275.59684807256235	68	127
275.98	276.2238095238095	51	127
275.98	276.2238095238095	58	127
275.98	276.2238095238095	63	127
275.98	276.2238095238095	66	127
276.6301587301587	276.93201814058955	44	127
276.6301587301587	276.93201814058955	56	127
276.6301587301587	276.93201814058955	59	127
276.6301587301587	276.93201814058955	63	127
276.6301587301587	276.93201814058955	65	127
277.6750566893424	277.88403628117914	34	127
277.6750566893424	277.88403628117914	46	127
277.6750566893424	277.88403628117914	54	127
277.6750566893424	277.88403628117914	58	127
277.6750566893424	277.88403628117914	63	127
278.2555328798186	278.5341950113379	34	127
278.2555328798186	278.5341950113379	46	127
278.2555328798186	278.5341950113379	58	127
278.2555328798186	278.5341950113379	62	127
278.2555328798186	278.5341950113379	65	127
278.9405442176871	279.26562358276647	39	127
278.9405442176871	279.26562358276647	51	127
278.9405442176871	279.26562358276647	58	127
278.9405442176871	279.26562358276647	63	127
278.9405442176871	279.26562358276647	66	127
279.99702947845805	280.217641723356	49	127
279.99702947845805	280.217641723356	61	127
279.99702947845805	280.217641723356	66	127
279.99702947845805	280.217641723356	70	127
280.55433106575964	280.77492063492065	59	127
280.55433106575964	280.77492063492065	62	127
280.55433106575964	280.77492063492065	47	127
280.55433106575964	280.77492063492065	65	127
280.55433106575964	280.77492063492065	68	127
281.1580498866213	281.49473922902496	48	127
281.1580498866213	281.49473922902496	60	127
281.1580498866213	282.00557823129253	64	127
281.1580498866213	282.00557823129253	67	127
282.36548752834466	282.5628571428571	44	127
282.36548752834466	282.5628571428571	56	127
282.36548752834466	282.5628571428571	60	127
282.36548752834466	282.5628571428571	65	127
282.9343764172336	283.16655328798186	40	127
282.9343764172336	283.16655328798186	52	127
282.9343764172336	283.16655328798186	60	127
282.9343764172336	283.16655328798186	67	127
283.526485260771	283.747074829932	41	127
283.526485260771	283.747074829932	53	127
283.526485260771	283.747074829932	60	127
283.526485260771	283.747074829932	68	127
284.7455328798186	285.0241723356009	44	127
284.7455328798186	285.0241723356009	56	127
284.7455328798186	285.0241723356009	60	127
284.7455328798186	285.0241723356009	62	127
284.7455328798186	285.0241723356009	65	127
285.9181179138322	286.2780498866213	60	127
285.9181179138322	286.2780498866213	43	127
285.9181179138322	286.2780498866213	55	127
285.9181179138322	286.2780498866213	63	127
285.9181179138322	286.2780498866213	67	127
287.3809977324263	287.8337868480726	43	127
287.3809977324263	287.8337868480726	59	127
287.3809977324263	287.8337868480726	62	127
287.3809977324263	287.8337868480726	31	127
287.3809977324263	287.8337868480726	67	127
289.4243537414966	289.9584126984127	36	127
289.4243537414966	289.9584126984127	48	127
289.4243537414966	289.9584126984127	60	127
289.9584126984127	290.07451247165534	59	127
289.9584126984127	290.07451247165534	47	127
290.07451247165534	290.190612244898	48	127
290.07451247165534	290.190612244898	60	127
290.190612244898	290.3182993197279	47	127
290.190612244898	290.3182993197279	59	127
290.3182993197279	290.3995918367347	48	127
290.3182993197279	290.3995918367347	60	127
290.457641723356	290.92204081632656	56	127
290.457641723356	290.92204081632656	44	127
290.92204081632656	291.0381179138322	59	127
290.92204081632656	291.0381179138322	47	127
291.0381179138322	291.1426303854875	60	127
291.0381179138322	291.1426303854875	48	127
291.1426303854875	291.2703401360544	47	127
291.1426303854875	291.2703401360544	59	127
291.2703401360544	291.3748299319728	48	127
291.2703401360544	291.3748299319728	60	127
291.3980498866213	291.8508163265306	43	127
291.3980498866213	291.8508163265306	55	127
291.8508163265306	291.955306122449	59	127
291.8508163265306	291.955306122449	47	127
291.955306122449	292.1642857142857	48	127
291.955306122449	292.1642857142857	60	127
292.1642857142857	292.2571655328798	47	127
292.1642857142857	292.2571655328798	59	127
292.2571655328798	292.3500680272109	48	127
292.2571655328798	292.3500680272109	60	127
292.38489795918366	292.83768707482994	41	127
292.38489795918366	292.83768707482994	53	127
292.83768707482994	292.9769841269841	59	127
292.83768707482994	292.9769841269841	47	127
292.9769841269841	293.0931065759637	60	127
292.9769841269841	293.0931065759637	48	127
293.0931065759637	293.2324263038549	47	127
293.0931065759637	293.2324263038549	59	127
293.2324263038549	293.3136961451247	48	127
293.2324263038549	293.3136961451247	60	127
293.3485260770975	293.46462585034016	51	127
293.3485260770975	293.54589569161	39	127
293.4878231292517	293.5691156462585	72	127
293.6039455782313	293.68521541950116	67	127
293.69680272108843	293.77809523809526	63	127
293.80131519274374	293.96385487528346	41	127
293.9058049886621	293.99866213151927	68	127
294.02190476190475	294.10315192743764	65	127
294.1380045351474	294.2192743764172	62	127
294.24249433106576	294.4166439909297	43	127
294.3585941043084	294.4514739229025	67	127
294.47469387755103	294.5443537414966	63	127
294.56757369614513	294.6139909297052	60	127
294.6372335600907	294.7997732426304	31	127
294.6372335600907	294.7997732426304	43	127
294.74172335600906	294.82297052154195	65	127
294.8578231292517	294.9507029478458	62	127
294.97392290249434	295.05519274376417	59	127
295.090022675737	296.06526077097504	72	127
295.090022675737	296.06526077097504	36	127
295.090022675737	295.56603174603174	60	127
295.56603174603174	295.6821315192744	47	127
295.56603174603174	295.6821315192744	83	127
295.6821315192744	295.78662131519275	48	127
295.6821315192744	295.78662131519275	84	127
295.78662131519275	295.9375283446712	47	127
295.78662131519275	295.9375283446712	83	127
295.9375283446712	296.04201814058956	84	127
295.9375283446712	296.04201814058956	48	127
296.06526077097504	297.0869387755102	77	127
296.06526077097504	297.0869387755102	44	127
296.6109297052154	296.7038095238095	83	127
296.6109297052154	296.7038095238095	47	127
296.7038095238095	296.854716553288	84	127
296.7038095238095	296.854716553288	48	127
296.854716553288	296.97083900226755	47	127
296.854716553288	296.97083900226755	83	127
296.97083900226755	297.05210884353744	84	127
296.97083900226755	297.05210884353744	48	127
297.0869387755102	298.0389569160998	75	127
297.0869387755102	298.0389569160998	43	127
297.562947845805	297.69065759637186	47	127
297.562947845805	297.69065759637186	83	127
297.69065759637186	297.79514739229023	48	127
297.69065759637186	297.79514739229023	84	127
297.79514739229023	297.92285714285714	47	127
297.79514739229023	297.92285714285714	83	127
297.92285714285714	298.01573696145124	84	127
297.92285714285714	298.01573696145124	48	127
298.0389569160998	299.0258049886621	80	127
298.0389569160998	299.0258049886621	41	127
298.5614058956916	298.66589569161	83	127
298.5614058956916	298.66589569161	47	127
298.66589569161	298.7819954648526	48	127
298.66589569161	298.7819954648526	84	127
298.7819954648526	298.89809523809527	47	127
298.7819954648526	298.89809523809527	83	127
298.89809523809527	299.00256235827663	48	127
298.89809523809527	299.00256235827663	84	127
299.0258049886621	299.1302947845805	79	127
299.0258049886621	299.1302947845805	39	127
299.1651247165533	299.23478458049885	48	127
299.1651247165533	299.23478458049885	84	127
299.2580045351474	299.36249433106576	83	127
299.2580045351474	299.36249433106576	47	127
299.3857142857143	299.46698412698413	84	127
299.3857142857143	299.46698412698413	48	127
299.49020408163267	299.5714739229025	77	127
299.49020408163267	299.5714739229025	44	127
299.6063038548753	299.72238095238095	48	127
299.6063038548753	299.72238095238095	84	127
299.7456235827664	299.8501133786848	47	127
299.7456235827664	299.8501133786848	83	127
299.87333333333333	299.989433106576	84	127
299.87333333333333	299.989433106576	48	127
300.03585034013605	300.1171428571429	43	127
300.03585034013605	300.1171428571429	75	127
300.14036281179136	300.1984126984127	84	127
300.14036281179136	300.1984126984127	48	127
300.2332199546485	300.3029024943311	47	127
300.2332199546485	300.3029024943311	83	127
300.3261224489796	300.40739229024945	84	127
300.3261224489796	300.40739229024945	48	127
300.44219954648526	300.5234920634921	80	127
300.44219954648526	300.5234920634921	41	127
300.5466893424036	300.65120181405894	84	127
300.5466893424036	300.65120181405894	48	127
300.6744217687075	300.7673015873016	47	127
300.6744217687075	300.7673015873016	83	127
300.7905215419501	300.8834013605442	48	127
300.7905215419501	300.8834013605442	84	127
300.94145124716556	301.03433106575966	79	127
300.94145124716556	301.03433106575966	39	127
301.0691609977324	301.1620408163265	48	127
301.0691609977324	301.1620408163265	84	127
301.18526077097505	301.2665306122449	47	127
301.18526077097505	301.2665306122449	83	127
301.3013605442177	301.3826303854875	84	127
301.3013605442177	301.3826303854875	48	127
301.40585034013606	301.5567800453515	44	127
301.40585034013606	301.5567800453515	77	127
301.58	301.66124716553287	48	127
301.58	301.66124716553287	84	127
301.68448979591835	301.77736961451245	83	127
301.68448979591835	301.77736961451245	47	127
301.800589569161	301.8818594104308	84	127
301.800589569161	301.8818594104308	48	127
301.93990929705217	302.03278911564627	43	127
301.93990929705217	302.03278911564627	75	127
302.0560090702948	302.13727891156464	84	127
302.0560090702948	302.13727891156464	48	127
302.1604988662132	302.23015873015873	83	127
302.1604988662132	302.23015873015873	47	127
302.241768707483	302.31142857142856	84	127
302.241768707483	302.31142857142856	48	127
302.3346485260771	302.41591836734693	80	127
302.3346485260771	302.41591836734693	41	127
302.45074829931974	302.5668480725624	48	127
302.45074829931974	302.5668480725624	84	127
302.5900453514739	302.6597278911565	47	127
302.5900453514739	302.6597278911565	83	127
302.6945351473923	302.76421768707485	84	127
302.6945351473923	302.76421768707485	48	127
302.7874149659864	302.8687074829932	79	127
302.7874149659864	302.8687074829932	39	127
302.90353741496597	303.0312471655329	48	127
302.90353741496597	303.0312471655329	84	127
303.0544671201814	303.1473469387755	77	127
303.0544671201814	303.1473469387755	44	127
303.1589569160998	303.2402267573696	48	127
303.1589569160998	303.2402267573696	84	127
303.26344671201815	303.3679365079365	43	127
303.26344671201815	303.3679365079365	75	127
303.39115646258506	303.48403628117916	48	127
303.39115646258506	303.48403628117916	84	127
303.54208616780045	303.6233560090703	41	127
303.54208616780045	303.6233560090703	80	127
303.66979591836736	303.7394557823129	48	127
303.66979591836736	303.7394557823129	84	127
303.7742857142857	303.8439455782313	39	127
303.7742857142857	303.8439455782313	79	127
303.8671655328798	303.94843537414965	48	127
303.8671655328798	303.94843537414965	84	127
303.98326530612246	304.0645351473923	44	127
303.98326530612246	304.0645351473923	77	127
304.08775510204083	304.20385487528347	84	127
304.08775510204083	304.20385487528347	48	127
304.227052154195	304.30834467120184	75	127
304.227052154195	304.30834467120184	43	127
304.3431746031746	304.40122448979594	84	127
304.3431746031746	304.40122448979594	48	127
304.4592743764172	304.5521541950113	41	127
304.4592743764172	304.5521541950113	80	127
304.58698412698413	304.67986394557823	84	127
304.58698412698413	304.67986394557823	48	127
304.7030839002268	304.7843537414966	79	127
304.7030839002268	304.7843537414966	39	127
304.8307709750567	304.9236734693878	48	127
304.8307709750567	304.9236734693878	84	127
304.94689342403626	305.0397505668934	44	127
304.94689342403626	305.0397505668934	78	127
305.0629931972789	305.155873015873	84	127
305.0629931972789	305.155873015873	48	127
305.2023129251701	305.2835827664399	43	127
305.2023129251701	305.2835827664399	79	127
305.30680272108845	305.376462585034	48	127
305.30680272108845	305.376462585034	84	127
305.4112925170068	305.49256235827664	44	127
305.4112925170068	305.49256235827664	78	127
305.5157823129252	305.6086621315193	48	127
305.5157823129252	305.6086621315193	84	127
305.6899319727891	305.7828117913832	43	127
305.6899319727891	305.7828117913832	79	127
305.80603174603175	305.89891156462585	48	127
305.80603174603175	305.89891156462585	84	127
305.93374149659866	306.0150113378685	44	127
305.93374149659866	306.0150113378685	78	127
306.0498412698413	306.1427210884354	48	127
306.0498412698413	306.1427210884354	84	127
306.1891609977324	306.2820408163265	43	127
306.1891609977324	306.2820408163265	79	127
306.3168707482993	306.39814058956915	48	127
306.3168707482993	306.39814058956915	84	127
306.4213605442177	306.5026303854875	44	127
306.4213605442177	306.5026303854875	78	127
306.53746031746033	306.63034013605443	84	127
306.53746031746033	306.63034013605443	48	127
306.7	306.7928798185941	79	127
306.7	306.89736961451246	43	127
306.8160997732426	306.920589569161	84	127
306.9670294784581	307.0599092970522	87	127
307.0831065759637	307.21083900226756	84	127
307.25727891156464	307.33854875283447	79	127
307.361768707483	307.44303854875284	84	127
307.47786848072565	307.5591383219955	75	127
307.582358276644	307.6752380952381	79	127
307.69843537414965	307.7797278911565	72	127
307.81455782312923	307.8958276643991	75	127
307.9190476190476	308.0002947845805	67	127
308.03514739229024	308.11641723356007	72	127
308.1396371882086	308.22090702947844	63	127
308.25573696145125	308.3370068027211	67	127
308.3602267573696	308.4531065759637	60	127
308.47632653061225	308.5575963718821	63	127
308.5924263038549	308.75496598639455	31	127
308.5924263038549	308.75496598639455	55	127
308.8362358276644	308.91750566893427	33	127
308.8362358276644	308.91750566893427	57	127
308.94072562358275	309.0452154195011	35	127
308.94072562358275	309.0452154195011	59	127
309.0800453514739	309.16131519274376	60	127
309.0800453514739	309.16131519274376	36	127
309.1845351473923	309.2774149659864	38	127
309.1845351473923	309.2774149659864	62	127
309.3122448979592	309.39351473922903	39	127
309.3122448979592	309.39351473922903	63	127
309.42834467120184	309.50961451247167	41	127
309.42834467120184	309.50961451247167	65	127
309.5328117913832	309.61410430839004	43	127
309.5328117913832	309.61410430839004	67	127
309.69537414965987	309.7766439909297	45	127
309.69537414965987	309.7766439909297	69	127
309.79986394557824	309.88113378684807	47	127
309.79986394557824	309.88113378684807	71	127
309.9159637188209	310.008843537415	48	127
309.9159637188209	310.008843537415	72	127
310.0320634920635	310.1365532879819	50	127
310.0320634920635	310.1365532879819	74	127
310.15977324263037	310.24104308390025	75	127
310.15977324263037	310.24104308390025	51	127
310.275873015873	310.3571201814059	53	127
310.275873015873	310.3571201814059	77	127
310.3803628117914	310.46160997732426	79	127
310.3803628117914	310.46160997732426	55	127
310.496462585034	310.57773242630384	72	127
310.496462585034	310.6938321995465	48	127
310.6009523809524	310.717052154195	63	127
310.7518820861678	310.83315192743765	60	127
310.8563718820862	310.9492517006803	63	127
310.97244897959183	311.05374149659866	67	127
311.0885714285714	311.1814512471655	63	127
311.1930612244898	311.27430839002267	60	127
311.3091609977324	311.4020408163265	63	127
311.42526077097506	311.4949206349206	55	127
311.5297505668934	311.65746031746033	63	127
311.6922902494331	311.773560090703	60	127
311.79678004535145	311.87804988662134	63	127
311.9128798185941	311.994126984127	55	127
312.01736961451246	312.09861678004535	63	127
312.1334693877551	312.21473922902493	60	127
312.23795918367347	312.3656689342404	63	127
312.4004761904762	312.481768707483	55	127
312.50496598639455	312.5862585034014	31	127
312.50496598639455	312.5862585034014	65	127
312.62108843537413	312.7255782312925	59	127
312.62108843537413	312.7255782312925	33	127
312.7604081632653	312.87650793650795	35	127
312.7604081632653	312.87650793650795	65	127
312.91131519274376	313.00421768707486	55	127
312.91131519274376	313.00421768707486	36	127
313.0506575963719	313.1667573696145	38	127
313.0506575963719	313.1667573696145	62	127
313.18997732426305	313.2712471655329	39	127
313.18997732426305	313.2712471655329	59	127
313.3292970521542	313.41056689342406	41	127
313.3292970521542	313.41056689342406	62	127
313.4453968253968	313.5498866213152	43	127
313.4453968253968	313.5498866213152	55	127
313.5731065759637	313.65437641723355	42	127
313.5731065759637	313.65437641723355	62	127
313.68920634920636	313.7704761904762	43	127
313.68920634920636	313.7704761904762	59	127
313.7936961451247	313.8865759637188	42	127
313.7936961451247	313.8865759637188	62	127
313.92140589569163	314.00267573696146	43	127
313.92140589569163	314.00267573696146	55	127
314.0491156462585	314.14197278911564	41	127
314.0491156462585	314.14197278911564	65	127
314.1768253968254	314.2580952380952	39	127
314.1768253968254	314.2580952380952	59	127
314.29292517006803	314.3974149659864	38	127
314.29292517006803	314.3974149659864	65	127
314.42063492063494	314.51351473922904	55	127
314.42063492063494	314.6296145124717	36	127
314.5715646258503	314.6644444444444	63	127
314.7224943310658	314.8037641723356	60	127
314.8385941043084	314.91986394557824	63	127
314.9430839002268	315.0359637188209	67	127
315.0824036281179	315.19850340136054	63	127
315.2217233560091	315.3146031746032	60	127
315.3378231292517	315.41909297052155	63	127
315.45392290249436	315.51197278911565	55	127
315.5351927437642	315.5932426303855	63	127
315.6280725623583	315.7093424036281	60	127
315.73256235827665	315.8022222222222	63	127
315.837052154195	315.91832199546485	55	127
315.9415419501134	316.057641723356	63	127
316.08083900226757	316.18532879818594	60	127
316.2085714285714	316.32467120181406	63	127
316.3478911564626	316.45238095238096	55	127
316.4871882086168	316.58009070294787	65	127
316.60331065759635	316.67297052154197	59	127
316.7078004535147	316.7890702947846	65	127
316.8122902494331	317.4159863945578	31	127
316.8122902494331	316.90514739229025	55	127
316.9283900226757	317.00965986394556	62	127
317.0328798185941	317.13736961451247	59	127
317.160589569161	317.2534693877551	62	127
317.31149659863945	317.45083900226757	55	127
317.4740589569161	317.5669387755102	63	127
317.601768707483	317.68303854875285	33	127
317.601768707483	317.68303854875285	60	127
317.7062585034014	317.7991383219955	35	127
317.7062585034014	317.7991383219955	63	127
317.822335600907	317.9152380952381	36	127
317.822335600907	317.9152380952381	55	127
317.9384580498866	318.0197052154195	63	127
317.9384580498866	318.0197052154195	38	127
318.042947845805	318.12419501133786	39	127
318.042947845805	318.12419501133786	60	127
318.1706575963719	318.22868480725623	41	127
318.1706575963719	318.22868480725623	63	127
318.24031746031744	318.86725623582765	43	127
318.24031746031744	318.86725623582765	55	127
318.80920634920636	318.91369614512473	71	127
318.91369614512473	318.9833560090703	72	127
319.0181859410431	319.0762358276644	39	127
319.0181859410431	319.0762358276644	51	127
319.0181859410431	319.12267573696147	71	127
319.12267573696147	319.19233560090703	72	127
319.27360544217686	319.3316553287982	68	127
319.27360544217686	319.3316553287982	36	127
319.27360544217686	319.3316553287982	48	127
319.49419501133787	319.5638321995465	68	127
319.49419501133787	319.5638321995465	38	127
319.49419501133787	319.5638321995465	50	127
319.7031746031746	319.77283446712016	68	127
319.7031746031746	319.77283446712016	39	127
319.7031746031746	319.77283446712016	51	127
319.94698412698415	320.03986394557825	36	127
319.94698412698415	320.03986394557825	48	127
319.94698412698415	320.03986394557825	68	127
320.19079365079364	320.2720408163265	38	127
320.19079365079364	320.2720408163265	50	127
320.19079365079364	320.2720408163265	67	127
320.4346031746032	320.6087528344671	31	127
320.4346031746032	320.5507029478458	77	127
320.4346031746032	320.6087528344671	43	127
320.5507029478458	320.66680272108846	76	127
320.66680272108846	320.99185941043083	43	127
320.66680272108846	320.75968253968256	77	127
320.66680272108846	320.99185941043083	55	127
320.75968253968256	320.88736961451247	75	127
320.88736961451247	320.99185941043083	74	127
320.99185941043083	321.1079818594104	72	127
321.1079818594104	321.45628117913833	43	127
321.1079818594104	321.22408163265305	71	127
321.1079818594104	321.45628117913833	55	127
321.22408163265305	321.3401814058957	72	127
321.3401814058957	321.45628117913833	74	127
321.45628117913833	321.5607709750567	75	127
321.5607709750567	321.9787301587302	55	127
321.5607709750567	321.72331065759636	77	127
321.5607709750567	321.9787301587302	43	127
321.72331065759636	321.8278004535147	79	127
321.8278004535147	321.9787301587302	81	127
321.9787301587302	322.08321995464854	83	127
322.08321995464854	322.3153968253968	84	127
322.08321995464854	322.5708390022676	43	127
322.08321995464854	322.5708390022676	55	127
322.5127891156463	322.61727891156465	83	127
322.61727891156465	322.6985487528345	84	127
322.7449886621315	322.9075283446712	39	127
322.7449886621315	322.8494784580499	83	127
322.7449886621315	322.9075283446712	51	127
322.8494784580499	322.95396825396824	84	127
322.9771882086168	323.04684807256234	36	127
322.9771882086168	323.04684807256234	48	127
322.9771882086168	323.04684807256234	80	127
323.24419501133787	323.3138775510204	38	127
323.24419501133787	323.3138775510204	50	127
323.24419501133787	323.3138775510204	80	127
323.4764172335601	323.5576870748299	39	127
323.4764172335601	323.5576870748299	51	127
323.4764172335601	323.5576870748299	80	127
323.72022675736963	323.7782766439909	36	127
323.72022675736963	323.7782766439909	48	127
323.72022675736963	323.7782766439909	80	127
323.9640362811791	323.98725623582766	79	127
323.9640362811791	324.2775056689342	38	127
323.9640362811791	324.2775056689342	50	127
324.08013605442176	324.1962358276644	89	127
324.1962358276644	324.2775056689342	88	127
324.2775056689342	324.39360544217686	89	127
324.39360544217686	324.70707482993197	31	127
324.39360544217686	324.48648526077096	87	127
324.39360544217686	324.70707482993197	43	127
324.48648526077096	324.59097505668933	86	127
324.59097505668933	324.70707482993197	84	127
324.70707482993197	324.7767120181406	83	127
324.79995464852607	325.0437641723356	84	127
324.79995464852607	325.6126530612245	36	127
324.79995464852607	325.6126530612245	48	127
325.0437641723356	325.148253968254	86	127
325.148253968254	325.2643537414966	84	127
325.2643537414966	325.368843537415	83	127
325.368843537415	325.49655328798184	84	127
325.49655328798184	325.6126530612245	86	127
325.6126530612245	325.7055328798186	87	127
325.7055328798186	325.78680272108846	84	127
325.8216326530612	326.1118820861678	38	127
325.8216326530612	325.9145124716553	83	127
325.8216326530612	326.1118820861678	50	127
325.9145124716553	326.03061224489795	89	127
326.03061224489795	326.1118820861678	88	127
326.1118820861678	326.21637188208615	89	127
326.21637188208615	326.52984126984126	31	127
326.21637188208615	326.3324716553288	87	127
326.21637188208615	326.52984126984126	43	127
326.3324716553288	326.43696145124716	86	127
326.43696145124716	326.52984126984126	84	127
326.52984126984126	326.61108843537414	83	127
326.6343310657596	326.85492063492063	84	127
326.6343310657596	327.3657596371882	36	127
326.6343310657596	327.3657596371882	48	127
326.85492063492063	326.94780045351473	86	127
326.94780045351473	327.06390022675737	87	127
327.06390022675737	327.15678004535147	86	127
327.15678004535147	327.26126984126984	89	127
327.26126984126984	327.3657596371882	87	127
327.3657596371882	327.4586394557823	86	127
327.4586394557823	327.51668934240365	84	127
327.5515192743764	327.6560090702948	38	127
327.5515192743764	327.6560090702948	50	127
327.5515192743764	327.70244897959185	83	127
327.70244897959185	327.83015873015876	89	127
327.83015873015876	327.8998185941043	43	127
327.83015873015876	327.9694784580499	86	127
327.83015873015876	327.8998185941043	31	127
327.9694784580499	328.07396825396825	83	127
328.07396825396825	328.14360544217686	48	127
328.07396825396825	328.14360544217686	36	127
328.07396825396825	328.1900680272109	84	127
328.1900680272109	328.29455782312925	86	127
328.29455782312925	328.3642176870748	43	127
328.29455782312925	328.3642176870748	31	127
328.29455782312925	328.4106575963719	87	127
328.4106575963719	328.4919274376417	84	127
328.51514739229026	328.5848072562358	38	127
328.51514739229026	328.6312471655329	83	127
328.51514739229026	328.5848072562358	50	127
328.6312471655329	328.74734693877554	89	127
328.74734693877554	328.8518367346939	86	127
328.74734693877554	328.8053968253968	31	127
328.74734693877554	328.8053968253968	43	127
328.8518367346939	328.9563265306123	83	127
328.9563265306123	329.01437641723356	48	127
328.9563265306123	329.01437641723356	36	127
328.9563265306123	329.0492063492064	84	127
329.0492063492064	329.165283446712	86	127
329.165283446712	329.23496598639457	31	127
329.165283446712	329.2697732426304	87	127
329.165283446712	329.23496598639457	43	127
329.2697732426304	329.3510657596372	84	127
329.37426303854875	329.4439455782313	38	127
329.37426303854875	329.4439455782313	50	127
329.37426303854875	329.5832426303855	83	127
329.6761224489796	330.0128344671202	89	127
329.6761224489796	329.74580498866214	31	127
329.6761224489796	329.74580498866214	43	127
329.89673469387753	329.96639455782315	43	127
329.89673469387753	329.96639455782315	31	127
330.11732426303854	330.18696145124716	31	127
330.11732426303854	330.18696145124716	43	127
330.11732426303854	330.21020408163264	89	127
330.2334240362812	330.30308390022674	87	127
330.3263038548753	330.3959410430839	31	127
330.3263038548753	330.3959410430839	43	127
330.3263038548753	330.4191836734694	86	127
330.4424036281179	330.52367346938775	84	127
330.5701133786848	330.6281632653061	31	127
330.5701133786848	330.6281632653061	43	127
330.5701133786848	330.65138321995465	83	127
330.6746031746032	330.7326530612245	80	127
330.7674829931973	330.83714285714285	31	127
330.7674829931973	330.83714285714285	43	127
330.7674829931973	330.8487528344671	79	127
330.87197278911566	330.93002267573695	77	127
330.9532426303855	331.02290249433105	31	127
330.9532426303855	331.02290249433105	43	127
330.9532426303855	331.0345124716553	75	127
331.05773242630386	331.15061224489796	74	127
331.1738321995465	331.3595918367347	36	127
331.1738321995465	331.3595918367347	48	127
331.1738321995465	331.3595918367347	72	127
332.2071201814059	332.5902494331066	36	127
332.2071201814059	332.5902494331066	39	127
332.2071201814059	332.5902494331066	43	127
332.2071201814059	332.5902494331066	48	127
332.2071201814059	332.5902494331066	55	127
332.2071201814059	332.5902494331066	60	127
332.2071201814059	332.5902494331066	63	127
333.3448979591837	333.7976870748299	36	127
333.3448979591837	333.7976870748299	39	127
333.3448979591837	333.7976870748299	43	127
333.3448979591837	333.7976870748299	48	127
333.3448979591837	333.7976870748299	51	127
333.3448979591837	333.7976870748299	55	127
333.3448979591837	333.7976870748299	60	127
