# onset,offset,note,velocity
1.9497052154195011	5.374625850340136	67	127
1.9497052154195011	5.374625850340136	79	127
1.9497052154195011	3.714421768707483	47	127
1.9497052154195011	3.714421768707483	50	127
3.737641723356009	6.686575963718821	52	127
3.737641723356009	6.686575963718821	48	127
5.397868480725624	5.746167800453515	67	127
5.641678004535147	5.943537414965986	69	127
5.780997732426304	6.094467120181406	67	127
5.978367346938776	6.245396825396825	66	127
6.117687074829932	6.373106575963718	67	127
6.268616780045352	6.524036281179138	62	127
6.396326530612245	6.686575963718821	64	127
6.547256235827664	6.837505668934241	66	127
6.709795918367347	8.277142857142858	47	127
6.709795918367347	8.277142857142858	50	127
6.709795918367347	7.011655328798186	67	127
6.860725623582766	7.2090249433106575	69	127
7.034875283446712	7.40639455782313	71	127
7.232244897959184	7.580544217687075	72	127
7.4412244897959186	7.766303854875283	74	127
7.603764172335601	8.05655328798186	76	127
7.78952380952381	8.277142857142858	77	127
8.079773242630386	8.718321995464853	78	127
8.311972789115647	12.538004535147392	50	127
8.311972789115647	10.30888888888889	79	127
8.311972789115647	12.538004535147392	47	127
10.332108843537416	11.086757369614512	77	127
11.12156462585034	12.538004535147392	74	127
11.12156462585034	12.538004535147392	67	127
11.12156462585034	12.538004535147392	62	127
14.430430839002268	15.9281179138322	67	127
14.430430839002268	15.9281179138322	79	127
14.430430839002268	17.449024943310658	60	127
15.951337868480726	18.760952380952382	69	127
15.951337868480726	18.760952380952382	81	127
17.472244897959182	17.92501133786848	60	127
17.692834467120182	18.0643537414966	62	127
17.94825396825397	18.203673469387756	60	127
18.087573696145125	18.33138321995465	59	127
18.22689342403628	18.459092970521542	60	127
18.354603174603174	18.61002267573696	55	127
18.470702947845805	18.760952380952382	57	127
18.63324263038549	18.935079365079364	59	127
18.772562358276645	20.09609977324263	67	127
18.772562358276645	19.086031746031747	60	127
18.772562358276645	20.09609977324263	79	127
18.969931972789116	19.225351473922903	62	127
19.10925170068027	19.36467120181406	64	127
19.248571428571427	19.57362811791383	65	127
19.387891156462587	19.79424036281179	67	127
19.631678004535146	19.921950113378685	69	127
19.817460317460316	20.09609977324263	70	127
19.956780045351476	20.32829931972789	71	127
20.119319727891156	20.46761904761905	79	127
20.119319727891156	22.069795918367348	72	127
20.351519274376418	20.583696145124716	81	127
20.490839002267574	20.71140589569161	79	127
20.606938775510205	20.873968253968254	78	127
20.7346485260771	21.001678004535147	79	127
20.885578231292516	21.140997732426303	74	127
21.024897959183672	21.280294784580498	76	127
21.16421768707483	21.628616780045352	78	127
21.303537414965987	21.79113378684807	79	127
21.651836734693877	21.942086167800454	81	127
21.825986394557823	22.069795918367348	83	127
21.96530612244898	22.27877551020408	84	127
22.1162358276644	22.418095238095237	86	127
22.1162358276644	22.754784580498868	71	127
22.301972789115645	22.627074829931974	88	127
22.476145124716552	22.754784580498868	89	127
22.6502947845805	22.92891156462585	90	127
22.778004535147392	24.02027210884354	91	127
22.778004535147392	24.02027210884354	67	127
24.055102040816326	24.844580498866215	40	127
24.055102040816326	24.844580498866215	43	127
24.86780045351474	25.83142857142857	41	127
24.86780045351474	25.83142857142857	38	127
25.854648526077096	28.072154195011336	37	127
25.854648526077096	28.072154195011336	40	127
34.01646258503401	34.31829931972789	57	127
34.353151927437644	35.07294784580499	51	127
35.09619047619048	35.40965986394558	52	127
35.4328798185941	35.932108843537414	49	127
35.97854875283447	36.384897959183675	57	127
35.97854875283447	37.638775510204084	81	127
35.97854875283447	37.638775510204084	69	127
36.4081179138322	36.90734693877551	51	127
36.97698412698413	37.313696145124716	52	127
37.33691609977324	37.638775510204084	49	127
37.67360544217687	38.0102947845805	59	127
37.67360544217687	39.36866213151927	68	127
37.67360544217687	39.36866213151927	80	127
38.03351473922903	38.497891156462586	52	127
38.521133786848075	38.950702947845805	53	127
39.04358276643991	39.36866213151927	50	127
39.39185941043084	41.33074829931973	77	127
39.39185941043084	39.91433106575964	59	127
39.39185941043084	41.33074829931973	89	127
39.937551020408165	40.28585034013606	52	127
40.51804988662131	40.819909297052156	53	127
40.85473922902494	41.33074829931973	50	127
41.353968253968254	41.667414965986396	61	127
41.353968253968254	42.85165532879819	73	127
41.353968253968254	42.85165532879819	85	127
41.70226757369615	42.015736961451246	54	127
42.03895691609977	42.503356009070295	55	127
42.52657596371882	42.85165532879819	52	127
42.89809523809524	43.25800453514739	61	127
42.89809523809524	44.755691609977326	70	127
42.89809523809524	44.755691609977326	82	127
43.33927437641724	43.83850340136055	54	127
43.85011337868481	44.23324263038549	55	127
44.24485260770975	44.755691609977326	52	127
44.802131519274376	46.717777777777776	69	127
44.802131519274376	46.717777777777776	81	127
44.802131519274376	45.30136054421769	62	127
45.336190476190474	45.800589569161	56	127
45.84702947845805	46.38108843537415	57	127
46.40430839002268	46.717777777777776	53	127
46.752585034013606	47.4956462585034	57	127
46.752585034013606	48.71469387755102	62	127
46.752585034013606	48.71469387755102	74	127
47.542086167800456	47.83233560090703	52	127
47.90199546485261	48.22707482993197	53	127
48.27351473922902	48.71469387755102	50	127
48.76113378684807	49.43451247165533	74	127
48.76113378684807	52.557596371882084	78	127
48.76113378684807	52.557596371882084	50	127
48.76113378684807	52.557596371882084	54	127
48.76113378684807	52.557596371882084	57	127
49.457732426303856	50.08467120181406	68	127
50.09628117913832	50.39814058956916	69	127
50.421360544217684	50.76965986394558	66	127
50.86253968253968	51.361768707482995	74	127
51.408208616780044	51.9887074829932	68	127
52.011927437641724	52.244126984126986	69	127
52.27895691609977	52.557596371882084	66	127
52.60403628117914	52.9291156462585	76	127
52.60403628117914	55.80839002267574	55	127
52.60403628117914	55.80839002267574	58	127
52.60403628117914	55.80839002267574	79	127
52.60403628117914	55.80839002267574	52	127
52.60403628117914	55.80839002267574	49	127
53.010385487528346	53.381904761904764	69	127
53.42834467120181	53.776643990929706	70	127
53.78825396825397	54.194603174603174	67	127
54.22943310657596	54.70544217687075	76	127
54.72866213151927	55.030521541950115	69	127
55.0653514739229	55.413650793650795	70	127
55.44848072562358	55.80839002267574	67	127
55.83160997732426	59.10562358276644	51	127
55.83160997732426	56.30761904761905	75	127
55.83160997732426	59.10562358276644	81	127
55.83160997732426	59.10562358276644	54	127
55.83160997732426	59.10562358276644	57	127
55.83160997732426	59.10562358276644	60	127
56.342448979591836	56.63269841269841	71	127
56.67913832199547	57.07387755102041	72	127
57.097097505668934	57.4221768707483	69	127
57.44539682539683	57.909795918367344	78	127
57.933015873015876	58.200045351473925	71	127
58.22326530612245	58.687664399092974	72	127
58.7108843537415	59.10562358276644	69	127
59.16367346938775	62.97174603174603	83	127
59.16367346938775	59.616462585034014	79	127
59.16367346938775	62.97174603174603	50	127
59.16367346938775	62.97174603174603	55	127
59.16367346938775	62.97174603174603	58	127
59.16367346938775	62.97174603174603	62	127
59.62807256235828	60.046031746031744	73	127
60.08086167800454	60.53365079365079	74	127
60.58009070294784	60.91678004535147	70	127
60.94	61.34634920634921	79	127
61.39278911564626	61.7875283446712	73	127
61.81074829931973	62.3215873015873	74	127
62.39124716553288	62.97174603174603	70	127
62.99496598639456	63.41292517006803	80	127
62.99496598639456	64.7132426303855	68	127
63.447755102040816	63.935374149659864	76	127
63.97020408163265	64.2720634920635	77	127
64.34172335600907	64.7132426303855	74	127
64.73646258503402	65.16603174603175	89	127
64.73646258503402	66.35022675736961	44	127
64.73646258503402	66.35022675736961	56	127
65.23569160997732	65.51433106575963	84	127
65.54916099773243	65.96709750566893	86	127
65.99034013605443	66.35022675736961	80	127
66.37346938775511	66.6869387755102	89	127
66.37346938775511	67.83632653061224	55	127
66.37346938775511	67.83632653061224	43	127
66.75659863945579	67.07006802721088	83	127
67.09326530612245	67.37192743764173	84	127
67.39514739229026	67.83632653061224	79	127
67.85952380952381	68.14979591836735	87	127
67.85952380952381	69.38045351473923	63	127
67.85952380952381	69.38045351473923	51	127
68.17301587301587	68.5097052154195	83	127
68.53292517006803	68.85800453514739	84	127
68.89283446712018	69.38045351473923	79	127
69.41528344671202	70.959410430839	47	127
69.41528344671202	69.96095238095238	87	127
69.41528344671202	70.959410430839	59	127
69.9841723356009	70.29764172335601	83	127
70.32086167800453	70.56467120181406	86	127
70.59950113378684	70.959410430839	77	127
70.98263038548752	71.52829931972789	86	127
70.98263038548752	72.59641723356009	56	127
70.98263038548752	72.59641723356009	44	127
71.53988662131519	71.91142857142857	83	127
71.94625850340137	72.23650793650793	86	127
72.25972789115646	72.59641723356009	77	127
72.74734693877551	74.34952380952382	43	127
72.74734693877551	74.34952380952382	55	127
72.74734693877551	73.11886621315193	86	127
73.25818594104308	73.54843537414966	83	127
73.57165532879819	73.93156462585034	86	127
73.95478458049887	74.34952380952382	84	127
74.43079365079365	76.12585034013605	48	127
74.43079365079365	74.76748299319728	84	127
74.43079365079365	76.12585034013605	36	127
74.7907029478458	75.22024943310657	79	127
75.27832199546485	75.70789115646258	84	127
75.7659410430839	76.12585034013605	75	127
76.14907029478458	76.520589569161	84	127
76.14907029478458	77.49580498866213	44	127
76.14907029478458	77.49580498866213	32	127
76.54380952380953	76.81083900226757	74	127
76.8340589569161	77.22879818594105	75	127
77.25201814058957	77.49580498866213	74	127
77.51904761904763	78.22725623582767	80	127
77.51904761904763	79.64365079365079	32	127
78.29691609977324	78.90061224489796	74	127
78.92385487528345	79.27215419501134	75	127
79.31859410430839	79.64365079365079	74	127
79.66687074829932	80.0035827664399	79	127
79.66687074829932	80.90916099773243	32	127
80.02678004535147	80.32866213151928	74	127
80.34027210884354	80.60730158730159	75	127
80.63052154195012	80.90916099773243	74	127
80.94399092970522	81.57092970521542	78	127
80.94399092970522	83.35886621315193	32	127
81.62897959183674	82.22108843537416	74	127
82.25591836734694	82.60421768707484	75	127
82.67387755102041	83.35886621315193	74	127
83.38208616780045	84.7520634920635	79	127
83.38208616780045	84.7520634920635	31	127
87.14371882086168	88.73428571428572	55	127
87.14371882086168	88.73428571428572	59	127
87.14371882086168	88.73428571428572	62	127
87.14371882086168	88.73428571428572	43	127
88.7691156462585	90.45253968253968	55	127
88.7691156462585	90.45253968253968	59	127
88.7691156462585	90.45253968253968	62	127
88.7691156462585	90.45253968253968	43	127
90.47578231292518	91.84575963718821	55	127
90.47578231292518	91.84575963718821	48	127
90.47578231292518	91.84575963718821	60	127
90.47578231292518	91.84575963718821	64	127
90.47578231292518	91.84575963718821	36	127
91.86897959183673	93.4827664399093	55	127
91.86897959183673	93.4827664399093	60	127
91.86897959183673	93.4827664399093	64	127
91.86897959183673	93.4827664399093	36	127
91.86897959183673	93.4827664399093	48	127
94.85274376417233	96.57102040816326	54	127
94.85274376417233	96.57102040816326	60	127
94.85274376417233	96.57102040816326	62	127
94.85274376417233	96.57102040816326	38	127
94.85274376417233	96.57102040816326	50	127
96.59424036281179	98.41700680272109	52	127
96.59424036281179	98.41700680272109	55	127
96.59424036281179	98.41700680272109	60	127
96.59424036281179	98.41700680272109	40	127
98.44022675736962	100.46036281179138	79	127
99.87986394557824	101.19179138321995	60	127
99.87986394557824	101.19179138321995	52	127
99.87986394557824	101.19179138321995	55	127
100.5184126984127	101.19179138321995	76	127
101.21501133786848	103.00294784580498	55	127
101.21501133786848	102.71269841269842	84	127
101.21501133786848	103.00294784580498	60	127
101.21501133786848	103.00294784580498	52	127
102.73591836734694	103.00294784580498	83	127
103.10743764172335	104.39614512471655	57	127
103.10743764172335	103.78081632653061	60	127
103.10743764172335	104.39614512471655	83	127
103.10743764172335	104.39614512471655	53	127
103.80403628117914	104.39614512471655	61	127
104.41936507936508	106.02154195011337	57	127
104.41936507936508	105.23206349206349	81	127
104.41936507936508	106.02154195011337	62	127
104.41936507936508	106.02154195011337	53	127
105.26689342403628	106.02154195011337	77	127
106.0447619047619	106.66009070294784	74	127
106.72975056689343	107.44956916099773	79	127
107.47278911564626	108.9356462585034	55	127
107.47278911564626	108.9356462585034	62	127
107.47278911564626	108.26226757369615	77	127
107.47278911564626	108.9356462585034	59	127
108.33192743764172	108.9356462585034	74	127
108.95886621315192	109.07496598639456	71	127
109.02852607709751	109.21428571428571	72	127
109.09818594104308	109.29555555555555	71	127
109.23750566893425	109.35360544217687	72	127
109.30716553287982	109.45809523809524	71	127
109.3768253968254	109.52775510204081	72	127
109.48131519274376	109.59741496598639	71	127
109.55097505668934	109.6902947845805	72	127
109.63224489795918	109.7831746031746	71	127
109.63224489795918	110.16630385487528	55	127
109.72512471655328	109.85283446712018	72	127
109.80639455782313	109.92249433106576	71	127
109.87605442176871	109.98054421768707	72	127
109.94571428571429	110.05020408163266	71	127
110.00376417233561	110.0966439909297	72	127
110.07342403628118	110.16630385487528	71	127
110.11986394557823	110.23596371882086	72	127
110.1895238095238	111.00222222222222	53	127
110.1895238095238	110.32884353741497	71	127
110.2591836734694	110.41011337868481	72	127
110.3520634920635	110.54943310657596	71	127
110.43333333333334	110.70036281179138	72	127
110.6307029478458	110.79324263038549	71	127
110.74680272108843	110.90934240362812	72	127
110.81646258503402	111.00222222222222	71	127
110.93256235827664	111.21120181405895	72	127
111.06027210884353	111.78009070294785	50	127
111.06027210884353	111.28086167800454	71	127
111.23442176870748	111.3853514739229	72	127
111.30408163265307	111.45501133786848	71	127
111.40857142857143	111.52467120181406	72	127
111.47823129251701	111.78009070294785	74	127
111.80331065759637	113.4287074829932	74	127
111.80331065759637	111.94263038548753	47	127
111.80331065759637	113.4287074829932	77	127
111.80331065759637	113.4287074829932	67	127
111.88458049886621	112.05873015873016	48	127
111.97746031746031	112.14	47	127
112.08195011337868	112.31414965986394	48	127
112.16321995464853	112.46507936507936	47	127
112.39541950113379	112.5463492063492	48	127
112.48829931972789	112.68566893424037	47	127
112.59278911564626	112.81337868480726	48	127
112.7088888888889	112.92947845804989	47	127
112.85981859410431	113.01074829931973	48	127
112.96430839002268	113.10362811791383	47	127
113.05718820861678	113.17328798185942	48	127
113.12684807256235	113.24294784580499	47	127
113.19650793650794	113.35904761904762	48	127
113.27777777777777	113.4287074829932	47	127
113.38226757369614	113.49836734693878	48	127
113.45192743764173	113.60285714285715	47	127
113.5215873015873	113.7421768707483	48	127
113.66090702947845	113.84666666666666	47	127
113.80022675736961	113.91632653061224	48	127
113.86988662131519	113.98598639455783	47	127
113.93954648526078	114.06725623582767	48	127
114.0208163265306	114.17174603174603	47	127
114.0904761904762	114.26462585034014	48	127
114.19496598639456	114.34589569160998	47	127
114.28784580498866	114.42716553287981	48	127
114.38072562358276	114.50843537414966	47	127
114.45038548752835	114.71741496598639	48	127
114.53165532879818	114.94961451247165	50	127
114.98444444444445	116.69111111111111	53	127
114.98444444444445	116.69111111111111	62	127
114.98444444444445	116.69111111111111	67	127
114.98444444444445	116.69111111111111	74	127
123.49455782312926	124.24920634920635	72	127
123.49455782312926	124.24920634920635	84	127
123.49455782312926	124.24920634920635	67	127
123.49455782312926	124.24920634920635	64	127
124.26081632653062	125.00385487528345	83	127
124.26081632653062	125.00385487528345	62	127
124.26081632653062	125.00385487528345	65	127
124.26081632653062	125.00385487528345	71	127
125.02707482993198	125.85138321995466	69	127
125.02707482993198	125.85138321995466	81	127
125.02707482993198	125.85138321995466	60	127
125.02707482993198	125.42181405895691	64	127
125.42181405895691	125.85138321995466	65	127
125.87460317460318	126.5247619047619	79	127
125.87460317460318	126.5247619047619	59	127
125.87460317460318	126.5247619047619	62	127
125.87460317460318	126.5247619047619	67	127
126.53637188208617	126.78018140589569	81	127
126.53637188208617	126.78018140589569	60	127
126.53637188208617	126.78018140589569	64	127
126.53637188208617	126.78018140589569	69	127
126.80340136054421	127.20975056689342	79	127
126.80340136054421	127.20975056689342	62	127
126.80340136054421	127.20975056689342	59	127
126.80340136054421	127.20975056689342	67	127
127.23297052154194	128.11532879818594	79	127
127.23297052154194	127.66253968253969	57	127
127.23297052154194	127.66253968253969	60	127
127.23297052154194	127.66253968253969	65	127
127.23297052154194	128.11532879818594	67	127
127.67414965986394	128.11532879818594	59	127
127.67414965986394	128.11532879818594	55	127
127.67414965986394	128.11532879818594	64	127
128.13854875283448	128.5681179138322	62	127
128.13854875283448	128.33591836734695	69	127
128.13854875283448	128.33591836734695	81	127
128.13854875283448	128.5681179138322	53	127
128.13854875283448	128.5681179138322	57	127
128.35913832199546	128.5681179138322	83	127
128.35913832199546	128.5681179138322	71	127
128.60292517006803	130.29800453514738	52	127
128.60292517006803	129.0673469387755	72	127
128.60292517006803	129.0673469387755	84	127
128.60292517006803	130.29800453514738	55	127
128.60292517006803	130.29800453514738	60	127
129.07895691609977	129.46208616780046	74	127
129.48530612244897	129.86843537414967	76	127
129.88002267573697	130.29800453514738	72	127
130.32122448979592	130.68113378684808	79	127
130.7043537414966	131.0526530612245	79	127
131.06426303854875	132.81736961451247	79	127
131.06426303854875	132.81736961451247	48	127
131.06426303854875	132.81736961451247	52	127
132.840589569161	133.7577777777778	76	127
133.76938775510203	134.5936961451247	67	127
133.76938775510203	134.1757142857143	36	127
133.76938775510203	135.5573015873016	76	127
134.1873469387755	134.5936961451247	38	127
134.61691609977325	135.0697052154195	40	127
134.61691609977325	135.5573015873016	72	127
135.09290249433107	135.5573015873016	36	127
135.58054421768708	136.5441723356009	73	127
135.58054421768708	136.05655328798187	43	127
135.58054421768708	136.5441723356009	70	127
136.07977324263038	136.5441723356009	43	127
136.55578231292517	137.54263038548754	73	127
136.55578231292517	137.54263038548754	70	127
136.55578231292517	137.54263038548754	43	127
137.56585034013605	138.06507936507936	74	127
137.56585034013605	138.06507936507936	69	127
137.56585034013605	138.06507936507936	41	127
138.54108843537415	139.49308390022676	55	127
138.54108843537415	139.49308390022676	71	127
138.54108843537415	139.49308390022676	43	127
139.51632653061225	141.32746031746032	52	127
139.51632653061225	139.73691609977325	74	127
139.51632653061225	141.32746031746032	55	127
139.59759637188208	139.82979591836735	72	127
139.77174603174603	139.99233560090704	71	127
140.00392290249434	140.2245351473923	72	127
140.27097505668934	140.45673469387756	74	127
140.47995464852607	140.66569160997733	76	127
140.6889342403628	140.8514739229025	74	127
140.874693877551	141.08367346938775	76	127
141.09528344671202	141.32746031746032	72	127
141.33909297052153	141.52485260770976	79	127
141.54807256235827	141.757052154195	79	127
141.78027210884355	141.98925170068028	79	127
142.0124716553288	142.2330612244898	79	127
142.24467120181407	144.06743764172336	48	127
142.24467120181407	144.06743764172336	52	127
142.24467120181407	144.06743764172336	79	127
144.09063492063493	144.56666666666666	69	127
144.09063492063493	144.56666666666666	77	127
144.5898866213152	145.14716553287982	76	127
144.5898866213152	145.14716553287982	67	127
145.1587755102041	145.41419501133788	36	127
145.1587755102041	145.41419501133788	38	127
145.1587755102041	146.14562358276643	67	127
145.1587755102041	147.09764172335602	76	127
145.4374149659864	145.6812244897959	35	127
145.70444444444445	145.92503401360545	36	127
145.94825396825397	146.14562358276643	38	127
146.1572335600907	146.3778231292517	40	127
146.1572335600907	147.09764172335602	64	127
146.389410430839	146.61002267573696	38	127
146.6332426303855	146.85380952380953	40	127
146.88866213151928	147.09764172335602	36	127
147.14408163265307	147.68975056689342	62	127
147.14408163265307	147.43433106575964	46	127
147.14408163265307	147.43433106575964	43	127
147.14408163265307	147.43433106575964	55	127
147.14408163265307	147.68975056689342	74	127
147.45755102040818	147.68975056689342	43	127
147.45755102040818	147.68975056689342	46	127
147.45755102040818	147.68975056689342	55	127
147.7013605442177	148.33990929705215	61	127
147.7013605442177	148.0380498866213	46	127
147.7013605442177	148.0380498866213	43	127
147.7013605442177	148.0380498866213	55	127
147.7013605442177	148.33990929705215	73	127
148.08448979591836	148.33990929705215	43	127
148.08448979591836	148.33990929705215	46	127
148.08448979591836	148.33990929705215	55	127
148.37473922902495	149.45446712018142	55	127
148.37473922902495	149.45446712018142	61	127
148.37473922902495	149.45446712018142	73	127
148.37473922902495	149.45446712018142	43	127
148.37473922902495	149.45446712018142	46	127
149.46607709750566	150.17426303854876	53	127
149.46607709750566	150.17426303854876	62	127
149.46607709750566	150.17426303854876	74	127
149.46607709750566	150.17426303854876	41	127
149.46607709750566	150.17426303854876	45	127
150.73156462585035	151.90417233560092	31	127
150.73156462585035	151.35850340136054	59	127
150.73156462585035	151.35850340136054	71	127
150.73156462585035	151.90417233560092	43	127
151.38172335600908	151.90417233560092	79	127
151.38172335600908	151.90417233560092	67	127
151.91578231292516	152.0318820861678	78	127
151.91578231292516	152.1595918367347	52	127
151.97383219954648	152.08993197278912	79	127
152.05510204081634	152.1595918367347	81	127
152.11315192743766	152.2524716553288	79	127
152.18281179138322	152.31052154195012	81	127
152.18281179138322	152.51950113378686	55	127
152.27569160997732	152.46145124716554	79	127
152.3453514739229	152.51950113378686	81	127
152.48467120181405	152.58916099773242	79	127
152.54272108843537	152.76331065759638	57	127
152.54272108843537	152.64721088435374	81	127
152.61238095238096	152.70526077097506	79	127
152.67043083900228	152.76331065759638	81	127
152.72845804988663	152.8213605442177	79	127
152.7865306122449	152.87941043083902	81	127
152.7865306122449	153.0071201814059	55	127
152.8445804988662	152.93743764172336	79	127
152.90263038548753	153.0071201814059	81	127
152.96068027210885	153.07678004535148	79	127
153.01873015873016	153.2509297052154	53	127
153.01873015873016	153.1348299319728	81	127
153.01873015873016	153.2509297052154	50	127
153.08836734693878	153.19285714285715	79	127
153.14643990929704	153.2509297052154	81	127
153.20448979591836	153.30897959183673	79	127
153.26253968253968	153.47151927437642	55	127
153.26253968253968	153.36702947845805	81	127
153.320589569161	153.42507936507937	79	127
153.37863945578232	153.47151927437642	81	127
153.44827664399094	153.52956916099774	79	127
153.494716553288	153.68049886621316	57	127
153.494716553288	153.5760090702948	81	127
153.55278911564625	153.6340589569161	79	127
153.59920634920636	153.68049886621316	81	127
153.64566893424038	153.71532879818594	79	127
153.69210884353743	153.85462585034014	55	127
153.69210884353743	153.73854875283448	81	127
153.71532879818594	153.7965986394558	79	127
153.761768707483	153.85462585034014	81	127
153.8198185941043	153.9126984126984	79	127
153.87786848072562	153.97074829931972	81	127
153.87786848072562	154.08684807256236	48	127
153.87786848072562	154.08684807256236	52	127
153.93591836734694	154.02879818594104	79	127
153.99396825396826	154.08684807256236	81	127
154.05201814058958	154.14489795918368	79	127
154.11004535147393	154.3190476190476	55	127
154.11004535147393	154.2145351473923	81	127
154.1681179138322	154.27260770975056	79	127
154.2261678004535	154.3190476190476	81	127
154.28421768707483	154.36546485260772	79	127
154.33065759637188	154.52802721088435	57	127
154.33065759637188	154.42353741496598	81	127
154.37709750566893	154.46995464852608	79	127
154.43514739229025	154.52802721088435	81	127
154.4815873015873	154.6092970521542	79	127
154.53963718820862	154.66734693877552	81	127
154.53963718820862	154.78344671201813	55	127
154.63251700680271	154.72537414965987	79	127
154.69056689342403	154.78344671201813	81	127
154.74861678004535	154.84149659863945	79	127
154.80666666666667	154.89954648526077	81	127
154.80666666666667	155.0156462585034	47	127
154.864716553288	154.9575963718821	79	127
154.9227664399093	155.0156462585034	81	127
154.98079365079366	155.07369614512473	79	127
155.03886621315192	155.1433560090703	81	127
155.03886621315192	155.25945578231293	50	127
155.1085260770975	155.2014058956916	79	127
155.16657596371883	155.25945578231293	81	127
155.22462585034015	155.31750566893425	79	127
155.28267573696147	155.3639455782313	81	127
155.28267573696147	155.44521541950112	45	127
155.32911564625851	155.39877551020408	79	127
155.37555555555556	155.44521541950112	81	127
155.41038548752834	155.50326530612244	79	127
155.4568253968254	155.65419501133786	48	127
155.4568253968254	155.5497052154195	81	127
155.5148752834467	155.6077551020408	79	127
155.56131519274376	155.65419501133786	81	127
155.61936507936508	155.71224489795918	79	127
155.66580498866213	155.81673469387755	43	127
155.66580498866213	155.74705215419502	81	127
155.71224489795918	155.78190476190477	79	127
155.7702947845805	155.81673469387755	81	127
155.78190476190477	155.87478458049887	79	127
155.8399546485261	155.9328344671202	81	127
155.8399546485261	156.04893424036283	47	127
155.89798185941044	155.9908843537415	79	127
155.9560544217687	156.04893424036283	81	127
156.01410430839002	156.1185941043084	79	127
156.0837641723356	156.3043537414966	41	127
156.0837641723356	156.18825396825397	81	127
156.14181405895692	156.2463038548753	79	127
156.21147392290248	156.3043537414966	81	127
156.2695238095238	156.35079365079366	79	127
156.32757369614512	156.37401360544217	81	127
156.32757369614512	156.47850340136054	45	127
156.37401360544217	156.42045351473922	79	127
156.38562358276644	156.47850340136054	81	127
156.44367346938776	156.54816326530613	79	127
156.50172335600908	156.60621315192745	81	127
156.50172335600908	156.72231292517006	40	127
156.5597732426304	156.675873015873	79	127
156.61780045351475	156.72231292517006	81	127
156.68748299319728	156.75714285714287	79	127
156.73392290249433	156.9312925170068	43	127
156.73392290249433	156.8151927437642	81	127
156.76873015873016	156.87321995464853	79	127
156.82680272108843	156.9312925170068	81	127
156.89646258503402	156.98934240362811	79	127
156.95451247165533	157.04739229024943	81	127
156.95451247165533	157.16349206349207	38	127
157.01256235827665	157.10544217687075	79	127
157.07061224489797	157.16349206349207	81	127
157.12863945578232	157.2215419501134	79	127
157.18671201814058	157.3724716553288	41	127
157.18671201814058	157.27956916099774	81	127
157.2447619047619	157.3144217687075	79	127
157.30281179138322	157.3724716553288	81	127
157.337641723356	157.4073015873016	79	127
157.3840589569161	157.47696145124718	81	127
157.3840589569161	157.58145124716555	36	127
157.43049886621316	157.53498866213152	79	127
157.5001814058957	157.58145124716555	81	127
157.558231292517	157.6394784580499	79	127
157.60467120181406	157.70916099773243	81	127
157.60467120181406	157.8136507936508	40	127
157.66272108843538	157.75560090702947	79	127
157.7207709750567	157.8136507936508	81	127
157.76721088435374	157.84848072562357	79	127
157.82526077097506	158.02263038548753	48	127
157.82526077097506	157.89489795918368	81	127
157.82526077097506	158.02263038548753	52	127
157.84848072562357	157.95297052154194	79	127
157.9065306122449	158.02263038548753	81	127
157.97619047619048	158.08068027210885	79	127
158.0342403628118	158.15031746031747	81	127
158.0342403628118	158.26643990929705	55	127
158.11551020408163	158.20839002267573	79	127
158.17356009070295	158.26643990929705	81	127
158.23160997732427	158.3128798185941	79	127
158.2896598639456	158.4521768707483	48	127
158.2896598639456	158.37092970521542	81	127
158.2896598639456	158.4521768707483	52	127
158.33609977324264	158.39414965986396	79	127
158.3825396825397	158.4521768707483	81	127
158.41736961451247	158.51024943310657	79	127
158.47541950113379	158.56829931972788	81	127
158.47541950113379	158.68439909297052	55	127
158.5334693877551	158.63795918367347	79	127
158.59151927437642	158.68439909297052	81	127
158.66115646258504	158.74244897959184	79	127
158.70761904761906	158.91657596371883	52	127
158.70761904761906	158.7888888888889	81	127
158.70761904761906	158.91657596371883	48	127
158.76566893424035	158.85854875283448	79	127
158.81208616780046	158.91657596371883	81	127
158.87015873015872	158.96303854875285	79	127
158.91657596371883	159.02108843537414	81	127
158.91657596371883	159.14879818594105	55	127
158.9746485260771	159.07913832199546	79	127
159.0326984126984	159.14879818594105	81	127
159.09074829931973	159.20684807256237	79	127
159.16040816326532	159.25328798185942	81	127
159.16040816326532	159.35777777777778	47	127
159.16040816326532	159.35777777777778	50	127
159.21845804988664	159.31133786848073	79	127
159.27648526077098	159.35777777777778	81	127
159.33455782312924	159.4158276643991	79	127
159.3809977324263	159.6015873015873	55	127
159.3809977324263	159.47387755102042	81	127
159.4390476190476	159.53190476190477	79	127
159.49709750566893	159.6015873015873	81	127
159.55514739229025	159.65963718820862	79	127
159.62480725623584	159.75251700680272	81	127
159.62480725623584	159.88022675736963	45	127
159.62480725623584	159.88022675736963	48	127
159.6944671201814	159.81056689342404	79	127
159.77573696145126	159.88022675736963	81	127
159.8337641723356	159.93825396825397	79	127
159.89183673469387	160.1356462585034	55	127
159.89183673469387	160.0079365079365	81	127
159.96149659863946	160.0775963718821	79	127
160.03115646258505	160.1356462585034	81	127
160.0891836734694	160.19367346938776	79	127
160.15886621315192	160.3910657596372	43	127
160.15886621315192	160.2633560090703	81	127
160.15886621315192	160.3910657596372	47	127
160.21691609977324	160.3214058956916	79	127
160.28657596371883	160.3910657596372	81	127
160.34460317460318	160.46072562358276	79	127
160.40267573696144	160.65809523809523	55	127
160.40267573696144	160.51877551020408	81	127
160.4839455782313	160.60002267573697	79	127
160.54199546485262	160.65809523809523	81	127
160.62326530612245	160.72775510204082	79	127
160.68131519274377	160.78580498866214	81	127
160.68131519274377	160.90190476190477	57	127
160.7393650793651	160.84385487528345	79	127
160.8090022675737	160.90190476190477	81	127
160.86707482993197	160.95993197278912	79	127
160.91351473922902	160.9831746031746	81	127
160.91351473922902	161.11086167800454	55	127
160.97156462585033	161.0528344671202	79	127
161.00639455782314	161.11086167800454	81	127
161.0760544217687	161.18054421768707	79	127
161.13410430839002	161.2385941043084	81	127
161.13410430839002	161.36628117913833	48	127
161.13410430839002	161.36628117913833	45	127
161.2037641723356	161.2966439909297	79	127
161.26181405895693	161.36628117913833	81	127
161.31984126984128	161.4243537414966	79	127
161.3895238095238	161.4707709750567	81	127
161.3895238095238	161.57526077097506	55	127
161.43596371882086	161.51723356009072	79	127
161.49401360544218	161.57526077097506	81	127
161.54045351473923	161.63333333333333	79	127
161.59850340136055	161.78426303854874	47	127
161.59850340136055	161.70299319727891	81	127
161.59850340136055	161.78426303854874	50	127
161.65655328798186	161.74943310657596	79	127
161.71460317460318	161.78426303854874	81	127
161.74943310657596	161.85392290249433	79	127
161.80748299319728	161.91197278911565	81	127
161.80748299319728	162.00485260770975	55	127
161.8655328798186	161.9584126984127	79	127
161.93519274376416	162.00485260770975	81	127
161.98160997732427	162.07451247165534	79	127
162.01646258503402	162.1209523809524	81	127
162.01646258503402	162.1209523809524	59	127
162.08609977324264	162.20222222222222	79	127
162.10934240362812	162.22544217687076	60	127
162.1441723356009	162.2718820861678	81	127
162.20222222222222	162.31832199546486	59	127
162.22544217687076	162.34151927437642	79	127
162.29510204081632	162.3995918367347	81	127
162.29510204081632	162.3995918367347	60	127
162.37637188208618	162.457641723356	79	127
162.37637188208618	162.457641723356	59	127
162.42281179138322	162.53891156462586	60	127
162.42281179138322	162.53891156462586	81	127
162.49244897959184	162.60857142857142	79	127
162.49244897959184	162.60857142857142	59	127
162.56213151927437	162.66662131519274	60	127
162.56213151927437	162.66662131519274	81	127
162.63179138321996	162.70142857142858	79	127
162.63179138321996	162.70142857142858	59	127
162.68984126984128	162.7711111111111	81	127
162.68984126984128	162.7711111111111	60	127
162.72467120181406	162.8407709750567	79	127
162.72467120181406	162.8407709750567	59	127
162.79433106575965	162.89882086167802	81	127
162.79433106575965	162.89882086167802	60	127
162.8639909297052	162.95684807256237	79	127
162.8639909297052	162.95684807256237	59	127
162.92204081632653	163.01492063492063	81	127
162.92204081632653	163.01492063492063	60	127
162.98009070294785	163.08458049886622	79	127
162.98009070294785	163.08458049886622	59	127
163.03814058956917	163.13102040816327	81	127
163.03814058956917	163.13102040816327	60	127
163.08458049886622	163.18907029478459	79	127
163.08458049886622	163.18907029478459	59	127
163.1542403628118	163.2587074829932	81	127
163.1542403628118	163.2587074829932	60	127
163.21226757369615	163.27034013605441	79	127
163.21226757369615	163.27034013605441	59	127
163.2587074829932	163.28195011337868	60	127
163.2587074829932	163.28195011337868	81	127
163.27034013605441	163.32839002267573	79	127
163.27034013605441	163.32839002267573	59	127
163.28195011337868	163.36319727891157	81	127
163.28195011337868	163.36319727891157	60	127
163.35160997732427	163.39804988662132	79	127
163.35160997732427	163.39804988662132	59	127
163.37482993197278	163.39804988662132	81	127
163.37482993197278	163.39804988662132	60	127
163.39804988662132	163.4328798185941	79	127
163.39804988662132	163.4328798185941	59	127
163.4096598639456	163.46768707482994	81	127
163.4096598639456	163.46768707482994	60	127
163.44448979591837	163.5025396825397	79	127
163.44448979591837	163.5025396825397	59	127
163.46768707482994	163.5257596371882	81	127
163.46768707482994	163.5257596371882	60	127
163.514126984127	163.58380952380952	59	127
163.514126984127	163.58380952380952	79	127
163.53736961451247	163.61861678004536	81	127
163.53736961451247	163.61861678004536	60	127
163.5954195011338	163.63024943310657	59	127
163.5954195011338	163.63024943310657	79	127
163.63024943310657	163.67668934240362	79	127
163.63024943310657	163.67668934240362	59	127
163.63024943310657	163.73473922902494	81	127
163.63024943310657	163.73473922902494	60	127
163.6882993197279	163.79278911564626	79	127
163.6882993197279	163.79278911564626	59	127
163.75795918367348	163.85083900226758	81	127
163.75795918367348	163.85083900226758	60	127
163.8160090702948	163.9088888888889	79	127
163.8160090702948	163.9088888888889	59	127
163.87403628117914	163.95532879818595	81	127
163.87403628117914	163.95532879818595	60	127
163.9321088435374	164.01337868480726	79	127
163.9321088435374	164.01337868480726	59	127
163.96693877551022	164.07142857142858	81	127
163.96693877551022	164.07142857142858	60	127
164.03659863945578	164.14108843537414	79	127
164.03659863945578	164.14108843537414	59	127
164.0946485260771	164.19913832199546	81	127
164.0946485260771	164.19913832199546	60	127
164.1526984126984	164.21074829931973	59	127
164.1526984126984	164.21074829931973	79	127
164.21074829931973	164.2339455782313	79	127
164.21074829931973	164.2339455782313	59	127
164.21074829931973	164.28038548752835	81	127
164.21074829931973	164.28038548752835	60	127
164.25718820861678	164.32684807256237	79	127
164.25718820861678	164.32684807256237	59	127
164.28038548752835	164.38487528344672	81	127
164.28038548752835	164.38487528344672	60	127
164.35006802721088	164.43133786848074	79	127
164.35006802721088	164.43133786848074	59	127
164.4081179138322	164.4893650793651	81	127
164.4081179138322	164.4893650793651	60	127
164.45455782312925	164.53580498866214	79	127
164.45455782312925	164.53580498866214	59	127
164.51260770975057	164.5938775510204	60	127
164.51260770975057	164.5938775510204	81	127
164.55904761904762	164.6402947845805	79	127
164.55904761904762	164.6402947845805	59	127
164.61709750566894	164.70997732426304	60	127
164.61709750566894	164.70997732426304	81	127
164.663537414966	164.74478458049887	79	127
164.663537414966	164.74478458049887	59	127
164.70997732426304	164.77963718820862	81	127
164.70997732426304	164.77963718820862	60	127
164.76802721088436	164.84929705215418	79	127
164.76802721088436	164.84929705215418	59	127
164.80285714285714	164.9073469387755	81	127
164.80285714285714	164.9073469387755	60	127
164.87251700680272	164.95378684807255	79	127
164.87251700680272	164.95378684807255	59	127
164.9073469387755	165.01183673469387	81	127
164.9073469387755	165.01183673469387	60	127
164.96539682539682	165.0350566893424	79	127
164.96539682539682	165.0350566893424	59	127
165.02344671201814	165.08149659863946	81	127
165.02344671201814	165.08149659863946	60	127
165.0466439909297	165.09310657596373	79	127
165.0466439909297	165.09310657596373	59	127
165.09310657596373	165.11632653061224	60	127
165.09310657596373	165.11632653061224	81	127
165.09310657596373	165.15113378684808	79	127
165.09310657596373	165.15113378684808	59	127
165.1279365079365	165.1627664399093	81	127
165.1279365079365	165.1627664399093	60	127
165.1627664399093	165.20920634920634	79	127
165.1627664399093	165.20920634920634	59	127
165.18598639455783	165.25562358276645	81	127
165.18598639455783	165.25562358276645	60	127
165.23242630385488	165.25562358276645	79	127
165.23242630385488	165.25562358276645	59	127
165.25562358276645	165.27886621315193	59	127
165.25562358276645	165.27886621315193	79	127
165.25562358276645	165.2904761904762	81	127
165.25562358276645	165.2904761904762	60	127
165.27886621315193	165.33691609977325	59	127
165.27886621315193	165.33691609977325	79	127
165.3020634920635	165.3833560090703	81	127
165.3020634920635	165.3833560090703	60	127
165.36013605442176	165.3833560090703	79	127
165.36013605442176	165.3833560090703	59	127
165.3833560090703	165.39496598639457	79	127
165.3833560090703	165.39496598639457	59	127
165.3833560090703	165.42979591836735	81	127
165.3833560090703	165.42979591836735	60	127
165.40655328798186	165.4762358276644	79	127
165.40655328798186	165.4762358276644	59	127
165.44140589569162	165.54589569160999	57	127
165.44140589569162	165.54589569160999	78	127
165.5691156462585	165.66197278911565	79	127
165.5691156462585	165.66197278911565	59	127
165.68521541950113	165.83614512471655	79	127
165.68521541950113	166.0102947845805	60	127
165.83614512471655	165.91739229024944	81	127
165.92902494331065	166.0102947845805	83	127
166.0218820861678	166.24249433106576	84	127
168.56448979591838	170.7819954648526	84	127
168.56448979591838	170.7819954648526	72	127
171.04902494331066	171.17673469387756	76	127
171.04902494331066	171.17673469387756	64	127
171.1883446712018	171.33925170068028	77	127
171.1883446712018	171.33925170068028	65	127
171.3508843537415	171.60630385487528	67	127
171.3508843537415	171.60630385487528	79	127
171.60630385487528	171.72240362811792	81	127
171.60630385487528	171.72240362811792	69	127
171.7340136054422	171.86172335600907	83	127
171.7340136054422	171.86172335600907	71	127
171.87333333333333	172.11714285714285	72	127
171.87333333333333	172.11714285714285	84	127
172.39578231292518	172.697641723356	76	127
172.39578231292518	172.697641723356	64	127
172.697641723356	172.8601814058957	77	127
172.697641723356	172.8601814058957	65	127
172.8601814058957	172.99950113378685	79	127
172.8601814058957	172.99950113378685	67	127
173.01111111111112	173.2781179138322	69	127
173.01111111111112	173.2781179138322	81	127
173.533537414966	173.78895691609978	62	127
173.533537414966	173.78895691609978	74	127
173.78895691609978	173.91668934240363	64	127
173.78895691609978	173.91668934240363	76	127
173.91668934240363	174.021179138322	65	127
173.91668934240363	174.021179138322	77	127
174.03278911564627	174.241768707483	79	127
174.03278911564627	174.241768707483	67	127
174.241768707483	174.4971882086168	65	127
174.241768707483	174.4971882086168	77	127
174.5087755102041	174.7758276643991	64	127
174.5087755102041	174.7758276643991	76	127
174.7758276643991	175.01961451247166	72	127
174.7758276643991	175.01961451247166	60	127
175.01961451247166	175.3331065759637	67	127
175.01961451247166	175.3331065759637	55	127
175.6581859410431	176.91204081632654	52	127
175.6581859410431	176.91204081632654	36	127
175.6581859410431	176.91204081632654	55	127
176.91204081632654	177.71315192743765	55	127
176.91204081632654	177.71315192743765	36	127
176.91204081632654	177.71315192743765	52	127
177.72473922902495	177.99179138321995	36	127
177.72473922902495	177.99179138321995	52	127
177.72473922902495	177.99179138321995	55	127
177.99179138321995	178.27043083900227	37	127
177.99179138321995	178.27043083900227	52	127
177.99179138321995	178.27043083900227	57	127
178.28204081632654	178.59548752834468	55	127
178.28204081632654	178.59548752834468	52	127
178.28204081632654	178.59548752834468	37	127
178.59548752834468	178.90897959183673	38	127
178.59548752834468	178.90897959183673	50	127
178.59548752834468	178.90897959183673	53	127
178.93219954648526	179.19922902494332	52	127
178.93219954648526	179.05990929705214	40	127
178.93219954648526	179.19922902494332	48	127
179.05990929705214	179.19922902494332	41	127
179.19922902494332	179.7681179138322	48	127
179.19922902494332	179.4662358276644	42	127
179.19922902494332	179.7681179138322	52	127
179.47786848072562	179.7681179138322	43	127
179.7681179138322	180.03514739229024	50	127
179.7681179138322	180.03514739229024	47	127
179.7681179138322	180.03514739229024	31	127
180.0467573696145	180.24412698412698	52	127
180.24412698412698	180.36022675736962	53	127
180.36022675736962	180.66208616780045	55	127
180.66208616780045	180.7781859410431	57	127
180.78979591836736	180.9291156462585	59	127
180.94072562358278	181.2077551020408	60	127
181.2077551020408	182.29909297052154	48	127
181.2077551020408	182.29909297052154	72	127
181.2077551020408	182.29909297052154	84	127
181.2077551020408	182.29909297052154	60	127
182.29909297052154	182.90281179138321	41	127
182.29909297052154	182.90281179138321	53	127
182.29909297052154	182.90281179138321	65	127
182.29909297052154	182.90281179138321	77	127
182.90281179138321	183.4484807256236	55	127
182.90281179138321	183.4484807256236	67	127
183.4484807256236	183.58780045351475	69	127
183.4484807256236	183.58780045351475	57	127
183.58780045351475	183.75034013605443	59	127
183.58780045351475	183.75034013605443	71	127
183.76192743764173	183.92448979591836	60	127
183.76192743764173	183.92448979591836	72	127
183.93609977324263	184.05219954648527	74	127
183.93609977324263	184.05219954648527	62	127
184.05219954648527	184.15668934240364	64	127
184.05219954648527	184.15668934240364	76	127
184.15668934240364	184.2727664399093	65	127
184.15668934240364	184.2727664399093	77	127
184.28439909297052	184.55142857142857	79	127
184.28439909297052	184.55142857142857	67	127
184.55142857142857	184.95777777777778	67	127
184.55142857142857	184.95777777777778	79	127
184.95777777777778	185.2364172335601	79	127
184.95777777777778	186.3161224489796	55	127
184.95777777777778	186.3161224489796	64	127
184.95777777777778	186.3161224489796	67	127
185.2364172335601	185.44537414965987	84	127
185.45700680272108	185.6427664399093	83	127
185.6427664399093	185.80528344671202	84	127
185.80528344671202	186.07233560090702	88	127
186.0839455782313	186.3161224489796	86	127
186.3161224489796	187.01274376417234	67	127
186.3161224489796	186.44385487528345	88	127
186.3161224489796	187.01274376417234	55	127
186.3161224489796	187.01274376417234	64	127
186.44385487528345	186.6180045351474	86	127
186.62961451247165	186.79215419501134	84	127
186.79215419501134	186.93145124716554	83	127
186.94308390022675	187.08238095238096	84	127
187.0243537414966	187.26816326530613	67	127
187.0243537414966	187.26816326530613	55	127
187.0243537414966	187.26816326530613	64	127
187.09401360544217	187.26816326530613	79	127
187.26816326530613	187.57002267573696	64	127
187.26816326530613	187.43070294784582	82	127
187.26816326530613	187.57002267573696	67	127
187.26816326530613	187.57002267573696	57	127
187.43070294784582	187.57002267573696	81	127
187.58163265306123	187.82544217687075	64	127
187.58163265306123	187.82544217687075	79	127
187.58163265306123	187.82544217687075	57	127
187.58163265306123	187.82544217687075	67	127
187.82544217687075	188.04603174603176	62	127
187.82544217687075	187.92993197278912	79	127
187.82544217687075	188.04603174603176	65	127
187.82544217687075	188.04603174603176	57	127
187.92993197278912	188.04603174603176	77	127
188.057641723356	188.3594784580499	64	127
188.057641723356	188.3594784580499	76	127
188.057641723356	188.3594784580499	57	127
188.057641723356	188.3594784580499	60	127
188.3594784580499	188.95160997732427	76	127
188.3594784580499	188.95160997732427	72	127
188.3594784580499	188.95160997732427	64	127
188.3594784580499	188.95160997732427	60	127
188.3594784580499	189.2534693877551	67	127
188.3594784580499	189.2534693877551	55	127
188.96321995464854	189.2534693877551	62	127
188.96321995464854	189.2534693877551	71	127
188.96321995464854	189.2534693877551	74	127
188.96321995464854	189.2534693877551	59	127
189.26507936507937	189.38115646258504	36	127
189.26507936507937	189.38115646258504	84	127
189.38115646258504	189.49727891156462	82	127
189.38115646258504	189.49727891156462	48	127
189.5088888888889	189.62498866213153	37	127
189.5088888888889	189.62498866213153	82	127
189.62498866213153	189.76430839002268	49	127
189.62498866213153	189.76430839002268	81	127
189.76430839002268	190.03133786848073	79	127
189.76430839002268	189.8919954648526	37	127
189.8919954648526	190.03133786848073	49	127
190.042947845805	190.1590476190476	38	127
190.042947845805	190.1590476190476	79	127
190.17065759637188	190.28675736961452	50	127
190.17065759637188	190.28675736961452	77	127
190.28675736961452	190.42607709750567	40	127
190.28675736961452	190.60022675736963	76	127
190.42607709750567	190.60022675736963	42	127
190.61183673469387	190.7279365079365	31	127
190.61183673469387	190.73954648526077	76	127
190.73954648526077	190.8904761904762	74	127
190.73954648526077	190.8904761904762	43	127
190.8904761904762	191.1342857142857	79	127
190.8904761904762	191.01818594104307	31	127
191.01818594104307	191.1342857142857	43	127
191.14589569160998	191.34326530612245	36	127
191.14589569160998	191.34326530612245	72	127
191.14589569160998	191.34326530612245	48	127
191.57546485260772	191.90054421768707	55	127
191.57546485260772	191.90054421768707	60	127
191.57546485260772	191.90054421768707	48	127
191.57546485260772	191.90054421768707	36	127
191.57546485260772	191.90054421768707	52	127
192.16757369614513	192.4229931972789	50	127
192.16757369614513	192.4229931972789	47	127
192.16757369614513	192.4229931972789	35	127
192.43460317460318	192.71324263038548	48	127
192.43460317460318	192.71324263038548	45	127
192.43460317460318	192.71324263038548	33	127
192.71324263038548	192.957052154195	47	127
192.71324263038548	192.957052154195	43	127
192.71324263038548	192.957052154195	31	127
193.21247165532878	193.44467120181406	33	127
193.21247165532878	193.44467120181406	48	127
193.21247165532878	193.44467120181406	45	127
193.45628117913833	193.71170068027212	35	127
193.45628117913833	193.71170068027212	50	127
193.45628117913833	193.71170068027212	47	127
193.71170068027212	193.9671201814059	36	127
193.71170068027212	193.9671201814059	52	127
193.71170068027212	193.9671201814059	48	127
194.2457596371882	194.52439909297053	35	127
194.2457596371882	194.52439909297053	50	127
194.2457596371882	194.52439909297053	47	127
194.5360090702948	194.7798185941043	48	127
194.5360090702948	194.7798185941043	46	127
194.5360090702948	194.7798185941043	34	127
194.7798185941043	195.0352380952381	48	127
194.7798185941043	195.0352380952381	45	127
194.7798185941043	195.0352380952381	33	127
195.04684807256237	195.27904761904762	32	127
195.04684807256237	195.27904761904762	48	127
195.04684807256237	195.27904761904762	44	127
195.27904761904762	195.48802721088435	43	127
195.27904761904762	195.48802721088435	47	127
195.27904761904762	195.48802721088435	31	127
195.49963718820862	195.7550566893424	44	127
195.49963718820862	195.7550566893424	88	127
195.49963718820862	195.7550566893424	83	127
195.49963718820862	195.7550566893424	76	127
195.49963718820862	195.7550566893424	32	127
195.82471655328797	196.1033560090703	45	127
195.82471655328797	195.9756462585034	88	127
195.82471655328797	196.1033560090703	33	127
195.98725623582766	196.1033560090703	87	127
196.1033560090703	196.23106575963718	72	127
196.1033560090703	196.23106575963718	88	127
196.23106575963718	196.35877551020408	64	127
196.23106575963718	196.35877551020408	76	127
196.35877551020408	196.48648526077096	86	127
196.35877551020408	196.48648526077096	71	127
196.49809523809523	196.61419501133787	64	127
196.49809523809523	196.61419501133787	76	127
196.62580498866214	196.74190476190475	84	127
196.62580498866214	196.74190476190475	69	127
196.74190476190475	196.86961451247166	64	127
196.74190476190475	196.86961451247166	76	127
196.86961451247166	196.9857142857143	68	127
196.86961451247166	196.9857142857143	83	127
196.99732426303854	197.11342403628117	84	127
196.99732426303854	197.11342403628117	69	127
197.12503401360544	197.2643537414966	83	127
197.12503401360544	197.2643537414966	68	127
197.2643537414966	197.40367346938777	76	127
197.2643537414966	197.40367346938777	64	127
197.40367346938777	197.53138321995465	69	127
197.40367346938777	197.53138321995465	84	127
197.54299319727892	197.6474829931973	76	127
197.54299319727892	197.6474829931973	64	127
197.65909297052156	197.72875283446712	71	127
197.65909297052156	197.72875283446712	86	127
197.72875283446712	197.85646258503402	76	127
197.72875283446712	197.85646258503402	64	127
197.85646258503402	197.9841723356009	72	127
197.85646258503402	197.9841723356009	88	127
197.9841723356009	198.1118820861678	76	127
197.9841723356009	198.1118820861678	64	127
198.12349206349205	198.28603174603174	69	127
198.12349206349205	198.28603174603174	88	127
198.30925170068028	198.42535147392292	84	127
198.30925170068028	198.42535147392292	64	127
198.42535147392292	198.5530612244898	83	127
198.42535147392292	198.5530612244898	64	127
198.42535147392292	198.5530612244898	67	127
198.5530612244898	198.66916099773243	81	127
198.5530612244898	198.66916099773243	69	127
198.6807709750567	198.7968707482993	67	127
198.6807709750567	198.7968707482993	83	127
198.6807709750567	198.7968707482993	64	127
198.80848072562358	198.90136054421768	79	127
198.80848072562358	198.90136054421768	69	127
198.90136054421768	199.15678004535147	69	127
198.90136054421768	199.0290702947846	79	127
198.90136054421768	199.15678004535147	62	127
198.90136054421768	199.15678004535147	66	127
199.0290702947846	199.15678004535147	78	127
199.16839002267574	199.42380952380952	74	127
199.16839002267574	199.2728798185941	54	127
199.16839002267574	199.42380952380952	86	127
199.28448979591838	199.42380952380952	52	127
199.42380952380952	199.69083900226758	86	127
199.42380952380952	199.56312925170067	50	127
199.42380952380952	199.69083900226758	74	127
199.56312925170067	199.69083900226758	48	127
199.69083900226758	199.95786848072564	86	127
199.69083900226758	199.8069387755102	47	127
199.69083900226758	199.95786848072564	74	127
199.81854875283446	199.95786848072564	45	127
199.95786848072564	200.20167800453515	74	127
199.95786848072564	200.20167800453515	83	127
199.95786848072564	200.20167800453515	86	127
199.95786848072564	200.06235827664398	43	127
200.07396825396825	200.20167800453515	42	127
200.20167800453515	200.36421768707484	43	127
200.37582766439908	200.51514739229026	38	127
200.51514739229026	200.73573696145124	84	127
200.51514739229026	200.63124716553287	45	127
200.51514739229026	200.73573696145124	72	127
200.51514739229026	200.73573696145124	81	127
200.64285714285714	200.73573696145124	38	127
200.73573696145124	200.97954648526078	83	127
200.73573696145124	200.85183673469388	47	127
200.73573696145124	200.97954648526078	71	127
200.73573696145124	200.97954648526078	79	127
200.85183673469388	200.97954648526078	38	127
200.99115646258502	201.25818594104308	81	127
200.99115646258502	201.1304761904762	48	127
200.99115646258502	201.25818594104308	69	127
200.99115646258502	201.25818594104308	78	127
201.1304761904762	201.25818594104308	47	127
201.26979591836735	201.38589569161	48	127
201.38589569161	201.5019954648526	38	127
201.51360544217687	201.73419501133787	83	127
201.51360544217687	201.61809523809524	50	127
201.51360544217687	201.73419501133787	79	127
201.51360544217687	201.73419501133787	71	127
201.61809523809524	201.73419501133787	48	127
201.73419501133787	201.89673469387756	47	127
201.73419501133787	202.0360544217687	72	127
201.73419501133787	202.0360544217687	81	127
201.73419501133787	202.0360544217687	84	127
201.9083446712018	202.0360544217687	45	127
202.0360544217687	202.314693877551	86	127
202.0360544217687	202.18698412698413	43	127
202.0360544217687	202.314693877551	74	127
202.0360544217687	202.314693877551	83	127
202.1985941043084	202.314693877551	42	127
202.314693877551	202.53528344671201	86	127
202.314693877551	202.43079365079365	43	127
202.314693877551	202.53528344671201	74	127
202.314693877551	202.53528344671201	83	127
202.43079365079365	202.53528344671201	38	127
202.54689342403628	202.80231292517007	84	127
202.54689342403628	202.66299319727892	45	127
202.54689342403628	202.80231292517007	72	127
202.54689342403628	202.80231292517007	81	127
202.66299319727892	202.80231292517007	38	127
202.81392290249434	203.05773242630386	79	127
202.81392290249434	202.94163265306122	47	127
202.81392290249434	203.05773242630386	71	127
202.81392290249434	203.05773242630386	83	127
202.94163265306122	203.05773242630386	38	127
203.08095238095237	203.20866213151928	48	127
203.08095238095237	203.3247619047619	69	127
203.08095238095237	203.3247619047619	78	127
203.08095238095237	203.3247619047619	81	127
203.20866213151928	203.3247619047619	38	127
203.3247619047619	203.46408163265306	81	127
203.3247619047619	203.46408163265306	50	127
203.47569160997733	203.6034013605442	38	127
203.47569160997733	203.6034013605442	79	127
203.6034013605442	203.7427210884354	40	127
203.6034013605442	203.7427210884354	78	127
203.75433106575963	203.88204081632654	76	127
203.75433106575963	203.88204081632654	50	127
203.88204081632654	203.99814058956918	42	127
203.88204081632654	203.99814058956918	74	127
203.99814058956918	204.12585034013605	72	127
203.99814058956918	204.12585034013605	50	127
204.13746031746032	204.3928798185941	43	127
204.13746031746032	204.27678004535147	71	127
204.27678004535147	204.3928798185941	69	127
204.40448979591838	204.63668934240363	55	127
204.40448979591838	204.53219954648526	71	127
204.53219954648526	204.63668934240363	67	127
204.6482993197279	204.91532879818595	55	127
204.6482993197279	204.77600907029478	72	127
204.77600907029478	204.91532879818595	74	127
204.91532879818595	205.17074829931974	53	127
204.91532879818595	205.03142857142856	76	127
205.04303854875283	205.17074829931974	74	127
205.17074829931974	205.3100680272109	71	127
205.17074829931974	205.4609977324263	55	127
205.3332879818594	205.4609977324263	69	127
205.4609977324263	205.7164172335601	55	127
205.4609977324263	205.57709750566895	71	127
205.5887074829932	205.7164172335601	67	127
205.7164172335601	205.98344671201815	55	127
205.7164172335601	205.84412698412697	76	127
205.84412698412697	205.98344671201815	77	127
205.9950566893424	206.23886621315194	57	127
205.9950566893424	206.09954648526076	79	127
206.09954648526076	206.23886621315194	77	127
206.25047619047618	206.35496598639455	77	127
206.25047619047618	206.47106575963718	59	127
206.35496598639455	206.47106575963718	76	127
206.47106575963718	206.76131519274375	59	127
206.47106575963718	206.5987755102041	77	127
206.47106575963718	206.76131519274375	68	127
206.6219954648526	206.76131519274375	74	127
206.76131519274375	206.8774149659864	76	127
206.76131519274375	207.0051247165533	67	127
206.76131519274375	207.0051247165533	60	127
206.8774149659864	207.0051247165533	74	127
207.0051247165533	207.22571428571428	67	127
207.0051247165533	207.0980045351474	76	127
207.0051247165533	207.22571428571428	60	127
207.10961451247167	207.22571428571428	72	127
207.22571428571428	207.36503401360545	71	127
207.22571428571428	207.5275736961451	62	127
207.22571428571428	207.5275736961451	67	127
207.36503401360545	207.5275736961451	74	127
207.53918367346938	207.77138321995466	62	127
207.53918367346938	207.6668934240363	76	127
207.53918367346938	207.77138321995466	67	127
207.6668934240363	207.77138321995466	74	127
207.7829931972789	208.0035827664399	62	127
207.7829931972789	207.9107029478458	69	127
207.7829931972789	208.0035827664399	66	127
207.9107029478458	208.0035827664399	74	127
208.0035827664399	208.24739229024942	50	127
208.0035827664399	208.11968253968254	76	127
208.0035827664399	208.24739229024942	62	127
208.1312925170068	208.24739229024942	74	127
208.24739229024942	208.54925170068026	62	127
208.24739229024942	208.54925170068026	71	127
208.24739229024942	208.54925170068026	74	127
208.24739229024942	208.54925170068026	55	127
208.24739229024942	208.54925170068026	59	127
208.54925170068026	208.7930612244898	47	127
208.54925170068026	208.7930612244898	55	127
208.54925170068026	208.7930612244898	59	127
208.54925170068026	208.7930612244898	43	127
208.7930612244898	209.0484807256236	43	127
208.7930612244898	209.0484807256236	55	127
208.7930612244898	209.0484807256236	59	127
208.7930612244898	209.0484807256236	47	127
209.06009070294783	209.31551020408162	54	127
209.06009070294783	209.31551020408162	45	127
209.06009070294783	209.31551020408162	57	127
209.06009070294783	209.31551020408162	42	127
209.3271201814059	209.55931972789116	47	127
209.3271201814059	209.55931972789116	55	127
209.3271201814059	209.55931972789116	59	127
209.3271201814059	209.55931972789116	43	127
209.5709297052154	209.83795918367346	47	127
209.5709297052154	209.83795918367346	55	127
209.5709297052154	209.83795918367346	59	127
209.5709297052154	209.83795918367346	43	127
209.83795918367346	210.12820861678006	47	127
209.83795918367346	210.12820861678006	55	127
209.83795918367346	210.12820861678006	59	127
209.83795918367346	210.12820861678006	43	127
210.12820861678006	210.38362811791384	48	127
210.12820861678006	210.38362811791384	45	127
210.12820861678006	210.38362811791384	57	127
210.12820861678006	210.38362811791384	60	127
210.38362811791384	210.62743764172336	50	127
210.38362811791384	210.62743764172336	59	127
210.38362811791384	210.62743764172336	62	127
210.38362811791384	210.62743764172336	47	127
210.63904761904763	210.8596371882086	56	127
210.63904761904763	210.8596371882086	50	127
210.63904761904763	210.8596371882086	68	127
210.63904761904763	210.8596371882086	47	127
210.87124716553288	211.10344671201815	52	127
210.87124716553288	211.10344671201815	55	127
210.87124716553288	211.10344671201815	67	127
210.87124716553288	211.10344671201815	48	127
211.1150566893424	211.39369614512472	55	127
211.1150566893424	211.39369614512472	64	127
211.1150566893424	211.39369614512472	67	127
211.1150566893424	211.39369614512472	48	127
211.39369614512472	211.66072562358278	55	127
211.39369614512472	211.66072562358278	62	127
211.39369614512472	211.66072562358278	67	127
211.39369614512472	211.66072562358278	50	127
211.66072562358278	211.95097505668934	55	127
211.66072562358278	211.95097505668934	62	127
211.66072562358278	211.95097505668934	67	127
211.66072562358278	211.95097505668934	50	127
211.95097505668934	212.2180045351474	66	127
211.95097505668934	212.2180045351474	62	127
211.95097505668934	212.2180045351474	50	127
211.95097505668934	212.2180045351474	54	127
212.2412244897959	212.50825396825397	62	127
212.2412244897959	212.50825396825397	66	127
212.2412244897959	212.50825396825397	50	127
212.2412244897959	212.50825396825397	54	127
212.51986394557824	212.65918367346939	52	127
212.51986394557824	212.77528344671202	67	127
212.65918367346939	212.77528344671202	57	127
212.7868934240363	213.04231292517008	55	127
212.7868934240363	213.41383219954648	79	127
213.04231292517008	213.17002267573696	57	127
213.17002267573696	213.2861224489796	61	127
213.29773242630387	213.41383219954648	57	127
213.41383219954648	213.66925170068026	73	127
213.41383219954648	213.52993197278911	55	127
213.54154195011338	213.66925170068026	57	127
213.66925170068026	213.83179138321995	50	127
213.66925170068026	213.95950113378686	73	127
213.84340136054422	213.95950113378686	59	127
213.9711111111111	214.2265306122449	74	127
213.9711111111111	214.11043083900228	55	127
214.11043083900228	214.2265306122449	59	127
214.23814058956916	214.3542403628118	62	127
214.23814058956916	214.70253968253968	74	127
214.3542403628118	214.5051700680272	59	127
214.51678004535148	214.6328798185941	55	127
214.6328798185941	214.70253968253968	59	127
214.70253968253968	214.79541950113378	50	127
214.79541950113378	214.89990929705215	59	127
214.89990929705215	215.01600907029479	55	127
214.89990929705215	215.14371882086166	62	127
214.89990929705215	215.14371882086166	67	127
214.89990929705215	215.14371882086166	71	127
215.02761904761905	215.14371882086166	59	127
215.14371882086166	215.2598185941043	48	127
215.27142857142857	215.3875283446712	57	127
215.3875283446712	215.61972789115646	69	127
215.3875283446712	215.49201814058958	54	127
215.3875283446712	215.61972789115646	62	127
215.3875283446712	215.61972789115646	66	127
215.49201814058958	215.61972789115646	57	127
215.63133786848073	215.74743764172337	47	127
215.63133786848073	215.87514739229024	67	127
215.74743764172337	215.87514739229024	55	127
215.89836734693878	216.0144671201814	69	127
215.89836734693878	216.0144671201814	50	127
216.0144671201814	216.13056689342403	71	127
216.0144671201814	216.13056689342403	55	127
216.13056689342403	216.3279365079365	52	127
216.13056689342403	216.3279365079365	72	127
216.33954648526077	216.4556462585034	74	127
216.33954648526077	216.4556462585034	60	127
216.4556462585034	216.60657596371883	55	127
216.4556462585034	216.60657596371883	76	127
216.6181859410431	216.72267573696146	78	127
216.6181859410431	216.72267573696146	60	127
216.72267573696146	216.83877551020407	73	127
216.72267573696146	216.83877551020407	79	127
216.72267573696146	216.83877551020407	52	127
216.85038548752834	216.96648526077098	81	127
216.85038548752834	216.96648526077098	57	127
216.96648526077098	217.10580498866213	83	127
216.96648526077098	217.10580498866213	55	127
217.10580498866213	217.22190476190477	81	127
217.10580498866213	217.22190476190477	57	127
217.25673469387755	217.50054421768706	79	127
217.25673469387755	217.38444444444445	61	127
217.38444444444445	217.50054421768706	57	127
217.51215419501133	217.63986394557824	52	127
217.51215419501133	217.63986394557824	55	127
217.51215419501133	217.75596371882085	73	127
217.63986394557824	217.75596371882085	57	127
217.76757369614512	217.8720634920635	50	127
217.76757369614512	217.9997732426304	73	127
217.88367346938776	217.9997732426304	59	127
217.9997732426304	218.10426303854877	55	127
217.9997732426304	218.23197278911564	74	127
218.115873015873	218.23197278911564	59	127
218.23197278911564	218.7195918367347	74	127
218.23197278911564	218.34807256235828	62	127
218.35968253968255	218.47578231292516	59	127
218.47578231292516	218.60349206349207	55	127
218.60349206349207	218.7195918367347	52	127
218.73120181405895	218.8473015873016	50	127
218.73120181405895	218.8473015873016	38	127
218.8473015873016	218.9750113378685	40	127
218.8473015873016	218.9750113378685	52	127
218.98662131519274	219.1607709750567	54	127
218.98662131519274	219.1607709750567	42	127
219.1607709750567	219.27687074829933	43	127
219.1607709750567	219.27687074829933	55	127
219.30009070294784	219.41619047619048	57	127
219.30009070294784	219.41619047619048	45	127
219.41619047619048	219.54390022675736	47	127
219.41619047619048	219.54390022675736	59	127
219.54390022675736	219.68321995464854	60	127
219.54390022675736	219.68321995464854	48	127
219.69482993197278	219.79931972789115	62	127
219.69482993197278	219.79931972789115	50	127
219.79931972789115	220.05473922902493	43	127
219.79931972789115	219.93863945578232	59	127
219.93863945578232	220.05473922902493	62	127
220.0663492063492	220.321768707483	47	127
220.0663492063492	220.18244897959184	67	127
220.20566893424035	220.321768707483	62	127
220.321768707483	220.58879818594104	50	127
220.321768707483	220.4726984126984	66	127
220.4726984126984	220.58879818594104	62	127
220.6004081632653	220.71650793650792	60	127
220.6004081632653	220.8558276643991	38	127
220.7281179138322	220.8558276643991	62	127
220.8558276643991	221.1344671201814	43	127
220.8558276643991	221.00675736961452	59	127
221.00675736961452	221.1344671201814	62	127
221.14607709750567	221.40149659863945	47	127
221.14607709750567	221.27378684807258	67	127
221.28539682539682	221.40149659863945	62	127
221.40149659863945	221.65691609977324	50	127
221.40149659863945	221.52920634920636	66	127
221.52920634920636	221.65691609977324	62	127
221.65691609977324	221.9239455782313	38	127
221.65691609977324	221.77301587301588	60	127
221.78462585034015	221.9239455782313	62	127
221.9239455782313	222.21419501133786	43	127
221.9239455782313	222.08648526077098	59	127
222.08648526077098	222.21419501133786	62	127
222.21419501133786	222.43478458049887	47	127
222.21419501133786	222.3302947845805	67	127
222.34190476190477	222.43478458049887	62	127
222.44639455782314	222.65537414965988	50	127
222.44639455782314	222.56249433106575	66	127
222.56249433106575	222.65537414965988	62	127
222.65537414965988	222.7714739229025	60	127
222.65537414965988	222.94562358276644	38	127
222.78308390022676	222.94562358276644	62	127
222.9572335600907	223.2126530612245	62	127
222.9572335600907	223.2126530612245	59	127
222.9572335600907	223.2126530612245	43	127
223.0849433106576	223.3287528344671	50	127
223.2126530612245	223.3287528344671	79	127
223.2126530612245	223.47968253968253	59	127
223.2126530612245	223.47968253968253	55	127
223.34036281179138	223.63061224489795	50	127
223.34036281179138	223.47968253968253	81	127
223.4912925170068	223.74671201814058	55	127
223.4912925170068	223.74671201814058	59	127
223.4912925170068	223.74671201814058	83	127
223.63061224489795	223.897641723356	50	127
223.74671201814058	224.01374149659864	59	127
223.74671201814058	223.897641723356	83	127
223.74671201814058	224.01374149659864	55	127
223.897641723356	224.01374149659864	50	127
223.897641723356	224.01374149659864	84	127
224.0253514739229	224.23433106575965	55	127
224.0253514739229	224.23433106575965	59	127
224.0253514739229	224.23433106575965	86	127
224.12984126984128	224.38526077097507	50	127
224.23433106575965	224.52458049886621	55	127
224.23433106575965	224.38526077097507	84	127
224.23433106575965	224.52458049886621	59	127
224.38526077097507	224.67551020408163	50	127
224.38526077097507	224.52458049886621	83	127
224.53619047619048	224.80321995464854	81	127
224.53619047619048	224.80321995464854	57	127
224.53619047619048	224.80321995464854	54	127
224.6871201814059	224.90770975056688	50	127
224.80321995464854	225.02380952380952	60	127
224.80321995464854	224.90770975056688	88	127
224.80321995464854	225.02380952380952	54	127
224.90770975056688	225.02380952380952	50	127
224.90770975056688	225.02380952380952	86	127
225.0354195011338	225.3140589569161	55	127
225.0354195011338	225.3140589569161	59	127
225.0354195011338	225.3140589569161	86	127
225.1863492063492	225.43015873015872	50	127
225.3140589569161	225.54625850340136	55	127
225.3140589569161	225.43015873015872	84	127
225.3140589569161	225.54625850340136	59	127
225.43015873015872	225.662358276644	50	127
225.43015873015872	225.54625850340136	83	127
225.54625850340136	225.80167800453515	54	127
225.54625850340136	225.80167800453515	57	127
225.54625850340136	225.80167800453515	81	127
225.67396825396824	225.9409977324263	50	127
225.80167800453515	226.08031746031747	54	127
225.80167800453515	225.9409977324263	88	127
225.80167800453515	226.08031746031747	60	127
225.9409977324263	226.08031746031747	50	127
225.9409977324263	226.08031746031747	86	127
226.08031746031747	226.324126984127	55	127
226.08031746031747	226.324126984127	59	127
226.08031746031747	226.324126984127	86	127
226.20802721088435	226.45183673469387	50	127
226.33573696145126	226.5679365079365	55	127
226.33573696145126	226.45183673469387	84	127
226.33573696145126	226.5679365079365	59	127
226.45183673469387	226.5679365079365	83	127
226.45183673469387	226.6956462585034	50	127
226.5679365079365	226.78852607709752	57	127
226.5679365079365	226.78852607709752	81	127
226.5679365079365	226.78852607709752	54	127
226.6956462585034	226.78852607709752	50	127
226.78852607709752	227.05555555555554	50	127
226.78852607709752	226.92784580498866	91	127
226.92784580498866	227.05555555555554	38	127
226.92784580498866	227.05555555555554	90	127
227.0671655328798	227.40385487528346	83	127
227.0671655328798	227.40385487528346	43	127
227.0671655328798	227.40385487528346	91	127
227.0671655328798	227.40385487528346	31	127
227.4154648526077	227.84503401360544	31	127
227.4154648526077	227.84503401360544	43	127
227.4154648526077	227.84503401360544	79	127
227.4154648526077	227.84503401360544	67	127
234.14925170068028	234.4859410430839	82	127
234.14925170068028	234.4859410430839	70	127
234.4859410430839	234.62526077097505	84	127
234.4859410430839	234.62526077097505	72	127
234.62526077097505	234.74136054421768	86	127
234.62526077097505	234.74136054421768	74	127
234.75297052154195	235.0548299319728	87	127
234.75297052154195	235.0548299319728	75	127
240.81337868480725	241.04557823129252	79	127
240.81337868480725	241.04557823129252	67	127
241.0571882086168	241.1732879818594	81	127
241.0571882086168	241.1732879818594	69	127
241.18489795918367	241.3009977324263	71	127
241.18489795918367	241.3009977324263	83	127
241.3009977324263	241.62607709750566	72	127
241.3009977324263	241.62607709750566	84	127
248.3366439909297	248.63850340136054	75	127
248.63850340136054	248.76621315192745	77	127
248.76621315192745	248.91714285714286	79	127
248.92875283446713	249.2190022675737	68	127
248.92875283446713	249.59052154195012	80	127
249.2190022675737	249.35832199546485	70	127
249.35832199546485	249.59052154195012	72	127
249.60213151927437	250.1013605442177	73	127
249.60213151927437	249.8459410430839	77	127
249.8459410430839	249.98526077097506	79	127
249.98526077097506	250.1013605442177	80	127
250.11297052154194	250.70507936507937	82	127
250.11297052154194	250.41482993197278	70	127
250.41482993197278	250.57736961451246	72	127
250.57736961451246	250.70507936507937	73	127
250.70507936507937	251.29718820861677	75	127
250.70507936507937	250.8792290249433	79	127
250.89083900226757	251.01854875283448	82	127
251.01854875283448	251.1694784580499	84	127
251.1694784580499	251.29718820861677	85	127
251.29718820861677	251.42489795918368	63	127
251.29718820861677	251.56421768707483	87	127
251.43650793650792	251.56421768707483	67	127
251.5758276643991	251.81963718820862	85	127
251.5758276643991	251.6919274376417	68	127
251.6919274376417	251.81963718820862	70	127
251.81963718820862	252.09827664399094	72	127
251.81963718820862	252.09827664399094	84	127
252.10988662131518	252.36530612244897	72	127
252.36530612244897	252.72521541950113	60	127
252.7368253968254	252.8645351473923	62	127
252.8645351473923	253.01546485260772	64	127
253.01546485260772	253.63079365079366	65	127
253.63079365079366	253.88621315192745	62	127
253.8978231292517	254.03714285714287	64	127
254.0487528344671	254.15324263038548	65	127
254.15324263038548	254.39705215419502	64	127
254.40866213151926	254.67569160997732	76	127
254.67569160997732	255.01238095238097	76	127
255.01238095238097	255.14009070294784	77	127
255.1517006802721	255.32585034013604	79	127
255.32585034013604	255.60448979591837	36	127
255.32585034013604	255.46517006802722	79	127
255.46517006802722	255.60448979591837	72	127
255.60448979591837	255.7554195011338	38	127
255.60448979591837	255.87151927437642	77	127
255.76702947845806	255.87151927437642	40	127
255.8831292517007	256.39396825396824	41	127
255.8831292517007	256.1385487528345	77	127
256.1385487528345	256.39396825396824	77	127
256.4055782312925	256.6609977324263	38	127
256.4055782312925	256.6609977324263	77	127
256.6609977324263	256.78868480725623	74	127
256.6609977324263	256.78868480725623	39	127
256.80031746031744	256.92802721088435	72	127
256.80031746031744	256.92802721088435	41	127
256.9396371882086	257.47369614512473	43	127
256.9396371882086	257.2182766439909	71	127
257.2182766439909	257.47369614512473	79	127
257.485306122449	257.60138321995464	40	127
257.485306122449	257.7291156462585	79	127
257.61301587301585	257.7291156462585	43	127
257.7291156462585	257.86843537414967	73	127
257.7291156462585	257.86843537414967	44	127
257.86843537414967	257.97292517006804	46	127
257.86843537414967	257.97292517006804	72	127
257.9845351473923	258.2167120181406	48	127
257.9845351473923	258.2167120181406	72	127
258.2167120181406	258.4605442176871	47	127
258.2167120181406	258.4605442176871	72	127
258.4837641723356	259.6795918367347	44	127
258.4837641723356	258.69274376417235	72	127
258.7043537414966	258.8320408163265	76	127
258.8320408163265	258.9829931972789	77	127
258.9829931972789	259.1107029478458	79	127
259.1107029478458	259.3545124716553	80	127
259.3545124716553	259.6795918367347	77	127
259.6795918367347	259.78408163265306	47	127
259.6795918367347	259.9814512471655	74	127
259.7956916099773	259.9814512471655	50	127
259.9930612244898	260.09755102040816	68	127
259.9930612244898	260.09755102040816	51	127
260.09755102040816	260.23687074829934	67	127
260.09755102040816	260.23687074829934	53	127
260.23687074829934	260.4806802721088	67	127
260.23687074829934	260.4806802721088	55	127
260.4922902494331	260.7244897959184	53	127
260.4922902494331	260.7244897959184	67	127
260.7244897959184	260.8753968253968	67	127
260.7244897959184	261.8854875283447	51	127
260.88702947845803	261.0263492063492	71	127
261.0379591836735	261.1656689342404	72	127
261.1656689342404	261.29337868480724	74	127
261.29337868480724	261.5604081632653	75	127
261.60684807256234	261.8854875283447	84	127
261.8854875283447	262.1292970521542	81	127
261.8854875283447	262.01319727891155	54	127
262.01319727891155	262.1292970521542	57	127
262.14090702947846	262.2453968253968	75	127
262.14090702947846	262.2453968253968	58	127
262.2570068027211	262.37310657596373	74	127
262.2570068027211	262.37310657596373	60	127
262.37310657596373	262.6168934240363	62	127
262.37310657596373	262.6168934240363	74	127
262.6285260770975	262.9303854875283	50	127
262.6285260770975	262.9303854875283	38	127
262.6285260770975	262.9303854875283	74	127
262.9303854875283	263.54571428571427	43	127
262.9303854875283	263.22061224489795	74	127
262.9303854875283	263.54571428571427	31	127
263.23224489795916	263.3831746031746	76	127
263.3831746031746	263.54571428571427	78	127
263.55732426303854	264.6486621315193	79	127
264.1029931972789	265.21755102040817	68	127
264.66024943310657	264.91569160997733	47	127
264.66024943310657	265.8328798185941	77	127
264.9273015873016	265.0665986394558	48	127
265.0665986394558	265.21755102040817	50	127
265.22916099773244	265.50780045351473	51	127
265.22916099773244	266.3669387755102	67	127
265.50780045351473	265.62390022675737	53	127
265.63551020408164	265.8328798185941	55	127
265.8328798185941	266.91260770975055	75	127
266.3669387755102	267.48149659863947	65	127
266.9242176870748	267.17963718820863	43	127
266.9242176870748	267.7369160997732	74	127
267.17963718820863	267.330566893424	45	127
267.3421768707483	267.48149659863947	47	127
267.48149659863947	267.99233560090704	63	127
267.48149659863947	267.7369160997732	48	127
267.7369160997732	267.8762358276644	50	127
267.7369160997732	267.99233560090704	72	127
267.8878458049887	267.99233560090704	51	127
267.99233560090704	268.2245351473923	45	127
268.2361224489796	268.4451020408163	43	127
268.4451020408163	268.5612244897959	41	127
268.58444444444444	268.8863038548753	46	127
268.8863038548753	269.0720634920635	44	127
269.08367346938775	269.2229931972789	43	127
269.2229931972789	269.5016326530612	75	127
269.2229931972789	269.5016326530612	43	127
269.5016326530612	269.65256235827667	77	127
269.5016326530612	269.65256235827667	41	127
269.67578231292515	269.80349206349206	39	127
269.67578231292515	269.80349206349206	79	127
269.80349206349206	270.08213151927436	80	127
269.80349206349206	270.08213151927436	44	127
270.11696145124716	270.24467120181407	43	127
270.11696145124716	270.24467120181407	82	127
270.24467120181407	270.38396825396825	84	127
270.24467120181407	270.38396825396825	41	127
270.39560090702946	270.62780045351474	41	127
270.639410430839	270.79031746031745	39	127
270.79031746031745	270.90643990929703	37	127
270.90643990929703	271.1734693877551	43	127
271.1734693877551	271.28956916099776	41	127
271.301156462585	271.4637188208617	40	127
271.4637188208617	271.71913832199544	72	127
271.4637188208617	271.71913832199544	40	127
271.7307482993197	271.8700680272109	38	127
271.7307482993197	271.8700680272109	74	127
271.8700680272109	271.9977777777778	76	127
271.8700680272109	271.9977777777778	36	127
272.00938775510207	272.2648072562358	77	127
272.00938775510207	272.2648072562358	41	127
272.2764172335601	272.42732426303854	39	127
272.2764172335601	272.42732426303854	79	127
272.42732426303854	272.56666666666666	38	127
272.42732426303854	272.56666666666666	80	127
272.56666666666666	272.8104761904762	38	127
272.56666666666666	272.8104761904762	77	127
272.8104761904762	272.92657596371885	36	127
272.8104761904762	272.92657596371885	79	127
272.9381632653061	273.06589569160997	34	127
272.9381632653061	273.06589569160997	80	127
273.06589569160997	273.3097052154195	74	127
273.06589569160997	273.3097052154195	35	127
273.3213151927438	273.4606349206349	33	127
273.3213151927438	273.4606349206349	75	127
273.4606349206349	273.57673469387754	77	127
273.4606349206349	273.57673469387754	31	127
273.5883446712018	273.9366439909297	72	127
273.5883446712018	273.9366439909297	39	127
273.948253968254	274.05274376417236	38	127
273.948253968254	274.05274376417236	74	127
274.05274376417236	274.168820861678	75	127
274.05274376417236	274.168820861678	36	127
274.168820861678	274.435873015873	68	127
274.168820861678	274.29655328798185	41	127
274.3081632653061	274.435873015873	44	127
274.435873015873	274.5751700680272	41	127
274.435873015873	274.5751700680272	73	127
274.5868027210884	274.6912925170068	77	127
274.5868027210884	274.6912925170068	44	127
274.6912925170068	274.8190022675737	41	127
274.6912925170068	274.9467120181406	80	127
274.83061224489796	274.9467120181406	44	127
274.9467120181406	275.0744217687075	41	127
274.9467120181406	275.0744217687075	85	127
275.0744217687075	275.19049886621315	89	127
275.0744217687075	275.19049886621315	44	127
275.20213151927436	275.32984126984127	30	127
275.20213151927436	275.4459410430839	63	127
275.32984126984127	275.4459410430839	33	127
275.4575510204082	275.65492063492064	30	127
275.4575510204082	275.65492063492064	69	127
275.65492063492064	275.78263038548755	72	127
275.65492063492064	275.78263038548755	33	127
275.78263038548755	275.8871201814059	30	127
275.78263038548755	276.0496598639456	75	127
275.8987074829932	276.0496598639456	33	127
276.0496598639456	276.18897959183676	81	127
276.0496598639456	276.18897959183676	30	127
276.200589569161	276.3631292517007	84	127
276.200589569161	276.3631292517007	42	127
276.3631292517007	276.65337868480725	62	127
276.3631292517007	276.4908390022676	31	127
276.51403628117913	276.65337868480725	38	127
276.65337868480725	276.87396825396826	67	127
276.65337868480725	276.87396825396826	31	127
276.87396825396826	277.00167800453517	71	127
276.87396825396826	277.00167800453517	38	127
277.01328798185943	277.15260770975055	31	127
277.01328798185943	277.2687074829932	74	127
277.15260770975055	277.2687074829932	38	127
277.28031746031746	277.38480725623583	79	127
277.28031746031746	277.38480725623583	31	127
277.38480725623583	277.51251700680274	38	127
277.38480725623583	277.51251700680274	83	127
277.51251700680274	277.65183673469386	31	127
277.51251700680274	277.77954648526077	60	127
277.66344671201813	277.77954648526077	42	127
277.77954648526077	277.9072562358277	66	127
277.77954648526077	277.9072562358277	31	127
277.91886621315194	278.05818594104306	69	127
277.91886621315194	278.05818594104306	42	127
278.05818594104306	278.2207256235828	31	127
278.05818594104306	278.37165532879817	72	127
278.23233560090705	278.37165532879817	42	127
278.37165532879817	278.4993650793651	31	127
278.37165532879817	278.4993650793651	78	127
278.4993650793651	278.6502947845805	42	127
278.4993650793651	278.6502947845805	81	127
278.6618820861678	278.89410430839	59	127
278.6618820861678	278.89410430839	31	127
278.76637188208616	279.0334240362812	41	127
278.9057142857143	279.1611337868481	31	127
278.9057142857143	279.1611337868481	62	127
279.0334240362812	279.28884353741495	67	127
279.0334240362812	279.28884353741495	41	127
279.17272108843537	279.4049433106576	62	127
279.17272108843537	279.4049433106576	31	127
279.28884353741495	279.5210430839002	41	127
279.4049433106576	279.68356009070294	67	127
279.4049433106576	279.68356009070294	31	127
279.54426303854876	279.8112925170068	71	127
279.54426303854876	279.8112925170068	41	127
279.68356009070294	279.9854421768708	62	127
279.68356009070294	279.9854421768708	31	127
279.82290249433106	280.13637188208617	41	127
279.9854421768708	280.2640816326531	31	127
279.9854421768708	280.2640816326531	67	127
280.13637188208617	280.40337868480725	71	127
280.13637188208617	280.40337868480725	41	127
280.27569160997734	280.54272108843537	67	127
280.27569160997734	280.54272108843537	31	127
280.40337868480725	280.68204081632655	41	127
280.55433106575964	280.86780045351475	71	127
280.55433106575964	280.86780045351475	31	127
280.68204081632655	281.0071201814059	41	127
280.68204081632655	281.0071201814059	74	127
280.8910204081633	281.1348299319728	67	127
280.8910204081633	281.1348299319728	31	127
281.0071201814059	281.23931972789114	41	127
281.1348299319728	281.3554195011338	71	127
281.1348299319728	281.3554195011338	31	127
281.23931972789114	281.4831292517007	74	127
281.23931972789114	281.4831292517007	41	127
281.3554195011338	281.64566893424035	31	127
281.3554195011338	281.64566893424035	79	127
281.49473922902496	281.77337868480726	41	127
281.64566893424035	281.90108843537416	83	127
281.64566893424035	281.90108843537416	31	127
281.7849886621315	282.05201814058955	86	127
281.7849886621315	282.05201814058955	41	127
281.91269841269843	282.17972789115646	31	127
281.91269841269843	282.17972789115646	79	127
282.05201814058955	282.31904761904764	41	127
282.17972789115646	282.4815873015873	83	127
282.17972789115646	282.4815873015873	31	127
282.31904761904764	282.6092970521542	86	127
282.31904761904764	282.6092970521542	41	127
282.4815873015873	282.72539682539684	31	127
282.4815873015873	282.72539682539684	91	127
282.6092970521542	282.86471655328796	41	127
282.7370068027211	282.99242630385487	31	127
282.7370068027211	282.99242630385487	91	127
282.87632653061223	283.1085260770975	41	127
283.00403628117914	283.2362358276644	79	127
283.2362358276644	283.3639229024943	81	127
283.2362358276644	283.4916553287982	67	127
283.3639229024943	283.4916553287982	83	127
283.50326530612244	283.63097505668935	69	127
283.50326530612244	283.747074829932	84	127
283.6425850340136	283.747074829932	71	127
283.747074829932	283.9908843537415	72	127
284.00249433106575	284.3043537414966	76	127
284.3043537414966	284.62943310657596	64	127
284.3043537414966	284.45528344671203	77	127
284.45528344671203	284.62943310657596	79	127
284.64104308390023	284.75714285714287	65	127
284.64104308390023	284.8848526077098	81	127
284.76875283446714	284.8848526077098	67	127
284.8848526077098	285.17510204081634	69	127
285.17510204081634	285.4305215419501	74	127
285.44213151927437	285.6627210884354	76	127
285.44213151927437	285.76721088435374	62	127
285.6627210884354	285.76721088435374	77	127
285.76721088435374	285.89492063492065	64	127
285.76721088435374	286.04585034013604	79	127
285.9065306122449	286.04585034013604	65	127
286.0574603174603	286.3477097505669	77	127
286.0574603174603	286.1851700680272	67	127
286.1851700680272	286.3477097505669	65	127
286.3477097505669	286.5915192743764	64	127
286.3477097505669	286.5915192743764	76	127
286.6031292517007	286.89337868480726	72	127
286.6031292517007	286.89337868480726	60	127
286.89337868480726	287.1487755102041	55	127
286.89337868480726	287.1487755102041	67	127
287.4506349206349	288.4839229024943	52	127
287.4506349206349	288.4839229024943	36	127
287.4506349206349	288.4839229024943	55	127
288.4839229024943	289.28503401360547	52	127
288.4839229024943	289.28503401360547	36	127
288.4839229024943	289.28503401360547	55	127
289.28503401360547	289.52884353741496	36	127
289.28503401360547	289.52884353741496	52	127
289.28503401360547	289.52884353741496	55	127
289.5404535147392	289.8074603174603	37	127
289.5404535147392	289.8074603174603	52	127
289.5404535147392	289.8074603174603	57	127
289.8074603174603	290.06290249433107	52	127
289.8074603174603	290.06290249433107	37	127
289.8074603174603	290.06290249433107	55	127
290.07451247165534	290.3647619047619	53	127
290.07451247165534	290.3647619047619	38	127
290.07451247165534	290.3647619047619	50	127
290.3647619047619	290.4924716553288	40	127
290.3647619047619	290.63179138321993	48	127
290.3647619047619	290.63179138321993	52	127
290.4924716553288	290.6434013605442	41	127
290.6434013605442	291.29356009070295	52	127
290.6434013605442	291.01492063492066	42	127
290.6434013605442	291.29356009070295	48	127
291.0265306122449	291.29356009070295	43	127
291.29356009070295	291.60702947845806	50	127
291.29356009070295	291.60702947845806	31	127
291.29356009070295	291.60702947845806	47	127
291.60702947845806	291.74632653061224	52	127
291.74632653061224	291.8740589569161	53	127
291.8740589569161	292.1410884353742	55	127
292.1410884353742	292.268798185941	57	127
292.268798185941	292.38489795918366	59	127
292.39650793650793	292.6751247165533	60	127
292.6751247165533	293.766485260771	48	127
292.6751247165533	293.766485260771	60	127
292.6751247165533	293.766485260771	72	127
292.6751247165533	293.766485260771	84	127
293.812925170068	294.33537414965986	77	127
293.812925170068	294.33537414965986	53	127
293.812925170068	294.33537414965986	41	127
293.812925170068	294.33537414965986	65	127
294.3469841269841	294.8926530612245	67	127
294.3469841269841	294.8926530612245	55	127
294.91585034013605	295.05519274376417	69	127
294.91585034013605	295.05519274376417	57	127
295.05519274376417	295.19451247165534	59	127
295.05519274376417	295.19451247165534	71	127
295.19451247165534	295.32219954648525	72	127
295.19451247165534	295.32219954648525	60	127
295.3338095238095	295.46154195011337	62	127
295.3338095238095	295.46154195011337	74	127
295.47315192743764	295.5892517006803	64	127
295.47315192743764	295.5892517006803	76	127
295.5892517006803	295.7401587301587	65	127
295.5892517006803	295.7401587301587	77	127
295.7401587301587	296.0304308390023	67	127
295.7401587301587	296.0304308390023	79	127
296.04201814058956	296.37873015873015	79	127
296.04201814058956	296.37873015873015	67	127
296.37873015873015	297.5281179138322	64	127
296.37873015873015	296.6109297052154	79	127
296.37873015873015	297.5281179138322	55	127
296.37873015873015	297.5281179138322	67	127
296.6225396825397	296.7734693877551	84	127
296.7734693877551	296.91278911564626	83	127
296.91278911564626	297.0753287981859	84	127
297.0869387755102	297.342358276644	88	127
297.342358276644	297.5281179138322	86	127
297.5281179138322	298.3408163265306	64	127
297.5281179138322	297.7603174603175	88	127
297.5281179138322	298.3408163265306	67	127
297.5281179138322	298.3408163265306	55	127
297.77192743764175	297.91124716553287	86	127
297.91124716553287	298.08537414965986	84	127
298.08537414965986	298.2479365079365	83	127
298.2595464852608	298.4336961451247	84	127
298.3408163265306	298.60784580498864	55	127
298.3408163265306	298.60784580498864	67	127
298.3408163265306	298.60784580498864	64	127
298.4336961451247	298.60784580498864	79	127
298.6194557823129	298.8516553287982	67	127
298.6194557823129	298.8516553287982	64	127
298.6194557823129	298.7239455782313	82	127
298.6194557823129	298.8516553287982	57	127
298.7239455782313	298.8516553287982	81	127
298.8516553287982	299.0722448979592	57	127
298.8516553287982	299.0722448979592	79	127
298.8516553287982	299.0722448979592	64	127
298.8516553287982	299.0722448979592	67	127
299.08385487528346	299.3392743764172	62	127
299.08385487528346	299.1999546485261	79	127
299.08385487528346	299.3392743764172	65	127
299.08385487528346	299.3392743764172	57	127
299.1999546485261	299.3392743764172	77	127
299.3392743764172	299.6643537414966	60	127
299.3392743764172	299.6643537414966	64	127
299.3392743764172	299.6643537414966	76	127
299.3392743764172	299.6643537414966	57	127
299.67596371882087	300.5118820861678	55	127
299.67596371882087	300.2332199546485	76	127
299.67596371882087	300.2332199546485	72	127
299.67596371882087	300.2332199546485	64	127
299.67596371882087	300.2332199546485	60	127
299.67596371882087	300.5118820861678	67	127
300.2332199546485	300.5118820861678	62	127
300.2332199546485	300.5118820861678	74	127
300.2332199546485	300.5118820861678	59	127
300.2332199546485	300.5118820861678	71	127
300.5118820861678	300.6395691609977	84	127
300.5118820861678	300.6395691609977	36	127
300.65120181405894	300.7673015873016	48	127
300.65120181405894	300.7673015873016	82	127
300.77891156462584	300.90662131519275	82	127
300.77891156462584	300.90662131519275	37	127
300.918231292517	301.03433106575966	49	127
300.918231292517	301.03433106575966	81	127
301.03433106575966	301.2897505668934	79	127
301.03433106575966	301.1504081632653	37	127
301.1504081632653	301.2897505668934	49	127
301.3013605442177	301.40585034013606	79	127
301.3013605442177	301.40585034013606	38	127
301.40585034013606	301.5219501133787	77	127
301.40585034013606	301.5219501133787	50	127
301.5219501133787	301.81219954648526	76	127
301.5219501133787	301.66124716553287	40	127
301.66124716553287	301.81219954648526	42	127
301.82380952380953	301.95151927437644	31	127
301.82380952380953	301.9631292517007	76	127
301.9631292517007	302.09083900226756	74	127
301.9631292517007	302.09083900226756	43	127
302.09083900226756	302.32303854875283	79	127
302.09083900226756	302.2069387755102	31	127
302.2069387755102	302.32303854875283	43	127
302.32303854875283	302.57845804988665	48	127
302.32303854875283	302.57845804988665	36	127
302.32303854875283	302.57845804988665	72	127
302.85709750566895	303.124126984127	36	127
302.85709750566895	303.124126984127	48	127
302.85709750566895	303.124126984127	52	127
302.85709750566895	303.124126984127	55	127
302.85709750566895	303.124126984127	60	127
303.4027437641723	303.6233560090703	47	127
303.4027437641723	303.6233560090703	35	127
303.4027437641723	303.6233560090703	50	127
303.63496598639455	303.8787755102041	45	127
303.63496598639455	303.8787755102041	33	127
303.63496598639455	303.8787755102041	48	127
303.8787755102041	304.1458049886621	47	127
303.8787755102041	304.1458049886621	31	127
303.8787755102041	304.1458049886621	43	127
304.4128344671202	304.66825396825396	45	127
304.4128344671202	304.66825396825396	33	127
304.4128344671202	304.66825396825396	48	127
304.67986394557823	304.94689342403626	50	127
304.67986394557823	304.94689342403626	47	127
304.67986394557823	304.94689342403626	35	127
304.94689342403626	305.21392290249435	52	127
304.94689342403626	305.21392290249435	48	127
304.94689342403626	305.21392290249435	36	127
305.5390022675737	305.80603174603175	50	127
305.5390022675737	305.80603174603175	47	127
305.5390022675737	305.80603174603175	35	127
305.817641723356	306.06142857142856	48	127
305.817641723356	306.06142857142856	46	127
305.817641723356	306.06142857142856	34	127
306.06142857142856	306.3168707482993	48	127
306.06142857142856	306.3168707482993	45	127
306.06142857142856	306.3168707482993	33	127
306.3168707482993	306.58390022675735	48	127
306.3168707482993	306.58390022675735	44	127
306.3168707482993	306.58390022675735	32	127
306.5955102040816	306.85092970521544	47	127
306.5955102040816	306.85092970521544	31	127
306.5955102040816	306.85092970521544	43	127
306.85092970521544	307.12956916099773	44	127
306.85092970521544	307.12956916099773	88	127
306.85092970521544	307.12956916099773	83	127
306.85092970521544	307.12956916099773	76	127
306.85092970521544	307.12956916099773	32	127
307.15278911564627	307.43142857142857	45	127
307.15278911564627	307.29208616780045	88	127
307.15278911564627	307.43142857142857	33	127
307.29208616780045	307.43142857142857	87	127
307.43142857142857	307.5591383219955	72	127
307.43142857142857	307.5591383219955	88	127
307.5591383219955	307.6752380952381	76	127
307.5591383219955	307.6752380952381	64	127
307.6868480725624	307.802925170068	86	127
307.6868480725624	307.802925170068	71	127
307.802925170068	307.9306575963719	76	127
307.802925170068	307.9306575963719	64	127
307.9306575963719	308.10478458049886	84	127
307.9306575963719	308.10478458049886	69	127
308.10478458049886	308.2092743764172	76	127
308.10478458049886	308.2092743764172	64	127
308.22090702947844	308.34861678004535	83	127
308.22090702947844	308.34861678004535	68	127
308.34861678004535	308.47632653061225	84	127
308.34861678004535	308.47632653061225	69	127
308.47632653061225	308.61562358276643	83	127
308.47632653061225	308.61562358276643	68	127
308.61562358276643	308.731746031746	76	127
308.61562358276643	308.731746031746	64	127
308.731746031746	308.8594557823129	84	127
308.731746031746	308.8594557823129	69	127
308.8710657596372	308.9871655328798	76	127
308.8710657596372	308.9871655328798	64	127
308.9871655328798	309.11487528344674	86	127
308.9871655328798	309.11487528344674	71	127
309.11487528344674	309.2309523809524	76	127
309.11487528344674	309.2309523809524	64	127
309.2425850340136	309.3586848072562	88	127
309.2425850340136	309.3586848072562	72	127
309.3702947845805	309.48639455782313	76	127
309.3702947845805	309.48639455782313	64	127
309.48639455782313	309.6373015873016	88	127
309.48639455782313	309.6373015873016	72	127
309.6373015873016	309.74179138321995	76	127
309.6373015873016	309.74179138321995	60	127
309.75342403628116	309.85791383219953	88	127
309.75342403628116	309.85791383219953	70	127
309.8695238095238	309.97401360544217	76	127
309.8695238095238	309.97401360544217	60	127
309.97401360544217	310.0901133786848	89	127
309.97401360544217	310.0901133786848	69	127
310.0901133786848	310.2178231292517	77	127
310.0901133786848	310.2178231292517	60	127
310.2178231292517	310.3687528344671	91	127
310.2178231292517	310.3687528344671	67	127
310.3803628117914	310.51968253968255	79	127
310.3803628117914	310.51968253968255	60	127
310.5312925170068	310.64739229024946	83	127
310.5312925170068	310.64739229024946	84	127
310.5312925170068	310.64739229024946	65	127
310.64739229024946	310.7751020408163	60	127
310.64739229024946	310.7751020408163	77	127
310.7751020408163	310.89120181405895	84	127
310.7751020408163	310.89120181405895	64	127
310.7751020408163	310.89120181405895	82	127
310.89120181405895	311.0073015873016	76	127
310.89120181405895	311.0073015873016	60	127
311.0073015873016	311.14662131519276	82	127
311.0073015873016	311.14662131519276	84	127
311.0073015873016	311.20467120181405	36	127
311.1001814058957	311.2859410430839	38	127
311.14662131519276	311.2859410430839	79	127
311.20467120181405	311.4020408163265	40	127
311.29755102040815	311.55297052154197	81	127
311.29755102040815	311.42526077097506	41	127
311.29755102040815	311.55297052154197	72	127
311.29755102040815	311.55297052154197	84	127
311.4368707482993	311.55297052154197	40	127
311.55297052154197	311.6806575963719	41	127
311.6806575963719	311.82	36	127
311.83160997732426	311.93609977324263	43	127
311.83160997732426	312.06380952380954	82	127
311.83160997732426	312.06380952380954	79	127
311.83160997732426	312.06380952380954	70	127
311.9477097505669	312.06380952380954	36	127
312.06380952380954	312.1682993197279	45	127
312.06380952380954	312.2959863945578	69	127
312.06380952380954	312.2959863945578	77	127
312.06380952380954	312.2959863945578	81	127
312.1682993197279	312.2959863945578	36	127
312.2959863945578	312.4121088435374	46	127
312.2959863945578	312.5398185941043	79	127
312.2959863945578	312.5398185941043	76	127
312.2959863945578	312.5398185941043	67	127
312.42371882086167	312.5398185941043	45	127
312.5398185941043	312.6791383219955	46	127
312.6791383219955	312.8184580498866	36	127
312.8184580498866	312.9577777777778	48	127
312.8184580498866	313.0854875283447	69	127
312.8184580498866	313.0854875283447	77	127
312.8184580498866	313.0854875283447	81	127
312.96938775510205	313.0854875283447	46	127
313.1087074829932	313.22478458049886	45	127
313.1087074829932	313.31766439909296	82	127
313.1087074829932	313.31766439909296	79	127
313.1087074829932	313.31766439909296	70	127
313.22478458049886	313.31766439909296	43	127
313.31766439909296	313.43378684807254	41	127
313.31766439909296	313.56149659863945	72	127
313.31766439909296	313.56149659863945	81	127
313.31766439909296	313.56149659863945	84	127
313.4453968253968	313.56149659863945	40	127
313.5731065759637	313.68920634920636	41	127
313.68920634920636	313.851746031746	36	127
313.851746031746	313.9562358276644	43	127
313.851746031746	314.10716553287983	82	127
313.851746031746	314.10716553287983	79	127
313.851746031746	314.10716553287983	70	127
313.96784580498866	314.10716553287983	36	127
314.1187755102041	314.23485260770974	45	127
314.1187755102041	314.3625850340136	69	127
314.1187755102041	314.3625850340136	77	127
314.1187755102041	314.3625850340136	81	127
314.23485260770974	314.3625850340136	36	127
314.3625850340136	314.47868480725623	46	127
314.47868480725623	314.59478458049887	36	127
314.60639455782314	314.7224943310658	79	127
314.60639455782314	314.7224943310658	48	127
314.73410430839004	314.8385941043084	77	127
314.73410430839004	314.8385941043084	36	127
314.8385941043084	314.97791383219953	76	127
314.8385941043084	314.97791383219953	38	127
314.97791383219953	315.09401360544217	74	127
314.97791383219953	315.09401360544217	48	127
315.10562358276644	315.2565532879819	72	127
315.10562358276644	315.2565532879819	40	127
315.26814058956916	315.38426303854874	70	127
315.26814058956916	315.38426303854874	48	127
315.38426303854874	315.5235827664399	69	127
315.38426303854874	315.63968253968255	41	127
315.38426303854874	315.63968253968255	48	127
315.5235827664399	315.63968253968255	67	127
315.6512925170068	315.77897959183673	69	127
315.6512925170068	315.9067120181406	53	127
315.79061224489794	315.9067120181406	65	127
315.9067120181406	316.1621315192744	53	127
315.9067120181406	316.0344217687075	70	127
316.0344217687075	316.1621315192744	72	127
316.1621315192744	316.27823129251703	74	127
316.1621315192744	316.41755102040815	52	127
316.2898185941043	316.41755102040815	72	127
316.41755102040815	316.5220408163265	69	127
316.41755102040815	316.67297052154197	53	127
316.5220408163265	316.67297052154197	67	127
316.67297052154197	316.83551020408163	69	127
316.67297052154197	316.9748299319728	53	127
316.8471201814059	316.9748299319728	65	127
316.9864399092971	317.23024943310656	53	127
316.9864399092971	317.1025170068027	76	127
317.1025170068027	317.23024943310656	77	127
317.23024943310656	317.45083900226757	57	127
317.23024943310656	317.32312925170066	79	127
317.33473922902493	317.45083900226757	77	127
317.46244897959184	317.5669387755102	77	127
317.46244897959184	317.6946485260771	59	127
317.5669387755102	317.6946485260771	76	127
317.6946485260771	318.0197052154195	62	127
317.6946485260771	317.8804081632653	77	127
317.6946485260771	318.0197052154195	59	127
317.8920181405896	318.0197052154195	74	127
318.0313378684807	318.14743764172334	77	127
318.0313378684807	318.30997732426306	62	127
318.0313378684807	318.30997732426306	59	127
318.14743764172334	318.30997732426306	79	127
318.30997732426306	318.5770068027211	60	127
318.30997732426306	318.4492970521542	81	127
318.30997732426306	318.5770068027211	64	127
318.4492970521542	318.5770068027211	79	127
318.58861678004536	318.80920634920636	65	127
318.58861678004536	318.6931065759637	77	127
318.58861678004536	318.80920634920636	62	127
318.704716553288	318.80920634920636	76	127
318.80920634920636	319.04138321995464	65	127
318.80920634920636	318.925306122449	77	127
318.80920634920636	319.04138321995464	62	127
318.925306122449	319.04138321995464	74	127
319.0529931972789	319.2852154195011	62	127
319.0529931972789	319.1691156462585	71	127
319.0529931972789	319.2852154195011	65	127
319.18072562358276	319.2852154195011	67	127
319.2852154195011	319.5522222222222	79	127
319.2852154195011	319.4825850340136	31	127
319.3897052154195	319.5522222222222	33	127
319.44775510204084	319.6683446712018	67	127
319.49419501133787	319.6451247165533	35	127
319.5638321995465	319.6683446712018	36	127
319.5638321995465	319.7960544217687	79	127
319.67995464852606	319.7960544217687	35	127
319.67995464852606	319.91215419501134	67	127
319.7960544217687	319.91215419501134	36	127
319.7960544217687	320.028253968254	79	127
319.91215419501134	320.028253968254	31	127
319.91215419501134	320.1443537414966	67	127
320.028253968254	320.1443537414966	38	127
320.028253968254	320.3068934240363	79	127
320.1559637188209	320.3068934240363	31	127
320.1559637188209	320.44621315192745	67	127
320.3068934240363	320.44621315192745	40	127
320.3068934240363	320.59714285714284	79	127
320.44621315192745	320.72485260770975	67	127
320.44621315192745	320.59714285714284	31	127
320.59714285714284	320.85256235827666	79	127
320.59714285714284	320.72485260770975	41	127
320.736462585034	320.85256235827666	31	127
320.736462585034	320.98027210884356	67	127
320.8641723356009	321.07315192743766	79	127
320.8641723356009	320.98027210884356	41	127
320.98027210884356	321.17764172335603	67	127
320.98027210884356	321.07315192743766	31	127
321.07315192743766	321.3053514739229	79	127
321.07315192743766	321.17764172335603	40	127
321.1892290249433	321.4678911564626	67	127
321.1892290249433	321.3053514739229	31	127
321.3401814058957	321.4678911564626	38	127
321.3401814058957	321.6071882086168	79	127
321.4678911564626	321.6071882086168	31	127
321.4678911564626	321.72331065759636	67	127
321.6071882086168	321.839410430839	79	127
321.6071882086168	321.72331065759636	36	127
321.72331065759636	321.839410430839	35	127
321.72331065759636	321.9671201814059	67	127
321.85102040816327	322.1064399092971	79	127
321.85102040816327	321.9671201814059	36	127
321.9671201814059	322.1064399092971	31	127
321.9671201814059	322.23414965986393	67	127
322.1064399092971	322.23414965986393	38	127
322.1064399092971	322.36185941043084	79	127
322.23414965986393	322.4779591836735	67	127
322.23414965986393	322.36185941043084	31	127
322.3734693877551	322.6637188208617	79	127
322.3734693877551	322.4779591836735	40	127
322.48956916099775	322.6637188208617	31	127
322.48956916099775	322.6637188208617	67	127
322.6637188208617	322.9655782312925	67	127
322.6637188208617	322.9655782312925	79	127
322.6637188208617	322.8494784580499	41	127
322.8494784580499	322.9655782312925	31	127
322.9655782312925	323.1977777777778	79	127
322.9655782312925	323.08167800453515	43	127
322.9655782312925	323.1977777777778	91	127
323.0932879818594	323.1977777777778	31	127
323.1977777777778	323.45319727891155	91	127
323.1977777777778	323.3138775510204	45	127
323.1977777777778	323.45319727891155	79	127
323.3138775510204	323.45319727891155	33	127
323.4648072562358	323.5925170068027	47	127
323.4648072562358	323.7318367346939	91	127
323.4648072562358	323.7318367346939	79	127
323.604126984127	323.7318367346939	35	127
323.7318367346939	323.9640362811791	48	127
323.7318367346939	323.9640362811791	91	127
323.7318367346939	323.9640362811791	79	127
323.7318367346939	323.9640362811791	36	127
323.9640362811791	324.1846258503401	48	127
323.9640362811791	324.1846258503401	60	127
323.9640362811791	324.1846258503401	64	127
323.9640362811791	324.1846258503401	52	127
324.1846258503401	324.4168253968254	60	127
324.1846258503401	324.4168253968254	48	127
324.1846258503401	324.4168253968254	64	127
324.1846258503401	324.4168253968254	52	127
324.4168253968254	324.6722222222222	59	127
324.4168253968254	324.6722222222222	62	127
324.4168253968254	324.6722222222222	50	127
324.4168253968254	324.6722222222222	47	127
324.68385487528343	324.89283446712017	48	127
324.68385487528343	324.89283446712017	52	127
324.68385487528343	324.89283446712017	60	127
324.68385487528343	324.89283446712017	64	127
324.89283446712017	325.148253968254	60	127
324.89283446712017	325.148253968254	64	127
324.89283446712017	325.148253968254	48	127
324.89283446712017	325.148253968254	52	127
325.15986394557825	325.5081632653061	52	127
325.15986394557825	325.5081632653061	60	127
325.15986394557825	325.5081632653061	64	127
325.15986394557825	325.5081632653061	48	127
325.5081632653061	325.7751927437642	62	127
325.5081632653061	325.7751927437642	65	127
325.5081632653061	325.7751927437642	50	127
325.5081632653061	325.7751927437642	53	127
325.78680272108846	326.0190022675737	55	127
325.78680272108846	326.0190022675737	64	127
325.78680272108846	326.0190022675737	67	127
325.78680272108846	326.0190022675737	52	127
326.0190022675737	326.2628117913832	64	127
326.0190022675737	326.2628117913832	67	127
326.0190022675737	326.2628117913832	73	127
326.0190022675737	326.2628117913832	61	127
326.0190022675737	326.2628117913832	52	127
326.0190022675737	326.2628117913832	55	127
326.2744217687075	326.5530612244898	57	127
326.2744217687075	326.5530612244898	69	127
326.2744217687075	326.5530612244898	65	127
326.2744217687075	326.5530612244898	74	127
326.2744217687075	326.5530612244898	62	127
326.2744217687075	326.5530612244898	53	127
326.5530612244898	326.79687074829934	69	127
326.5530612244898	326.79687074829934	65	127
326.5530612244898	326.79687074829934	74	127
326.5530612244898	326.79687074829934	62	127
326.5530612244898	326.79687074829934	57	127
326.5530612244898	326.79687074829934	53	127
326.8084807256236	327.06390022675737	67	127
326.8084807256236	327.06390022675737	72	127
326.8084807256236	327.06390022675737	60	127
326.8084807256236	327.06390022675737	64	127
326.8084807256236	327.06390022675737	76	127
326.8084807256236	327.06390022675737	55	127
327.06390022675737	327.35414965986394	67	127
327.06390022675737	327.35414965986394	55	127
327.06390022675737	327.35414965986394	60	127
327.06390022675737	327.35414965986394	64	127
327.3657596371882	327.6792290249433	59	127
327.3657596371882	327.6792290249433	62	127
327.3657596371882	327.6792290249433	67	127
327.3657596371882	327.6792290249433	55	127
327.6792290249433	327.9114285714286	59	127
327.6792290249433	327.9114285714286	77	127
327.6792290249433	327.9114285714286	62	127
327.92303854875286	328.0507482993197	76	127
327.92303854875286	328.1900680272109	64	127
327.92303854875286	328.1900680272109	60	127
328.0507482993197	328.1900680272109	74	127
328.1900680272109	328.45707482993197	60	127
328.1900680272109	328.3177777777778	76	127
328.1900680272109	328.45707482993197	64	127
328.32938775510206	328.45707482993197	72	127
328.4687074829932	328.5964172335601	77	127
328.4687074829932	328.74734693877554	64	127
328.4687074829932	328.74734693877554	60	127
328.5964172335601	328.74734693877554	79	127
328.74734693877554	328.991156462585	59	127
328.74734693877554	328.8982766439909	81	127
328.74734693877554	328.991156462585	62	127
328.8982766439909	328.991156462585	79	127
329.0027664399093	329.11886621315193	76	127
329.0027664399093	329.2581859410431	64	127
329.0027664399093	329.2581859410431	60	127
329.1304761904762	329.2581859410431	74	127
329.2581859410431	329.5019954648526	60	127
329.2581859410431	329.38589569160996	76	127
329.2581859410431	329.5019954648526	64	127
329.38589569160996	329.5019954648526	72	127
329.51360544217687	329.6413151927438	83	127
329.51360544217687	329.79224489795916	64	127
329.51360544217687	329.79224489795916	60	127
329.6645351473923	329.79224489795916	84	127
329.79224489795916	330.0360544217687	56	127
329.79224489795916	329.9199546485261	86	127
329.79224489795916	330.0360544217687	52	127
329.9199546485261	330.0360544217687	84	127
330.047664399093	330.1753741496599	84	127
330.047664399093	330.30308390022674	53	127
330.047664399093	330.30308390022674	57	127
330.18696145124716	330.30308390022674	83	127
330.30308390022674	330.61655328798184	53	127
330.30308390022674	330.46562358276645	84	127
330.30308390022674	330.61655328798184	57	127
330.46562358276645	330.61655328798184	80	127
330.61655328798184	330.70943310657594	81	127
330.61655328798184	330.83714285714285	53	127
330.61655328798184	330.83714285714285	57	127
330.7210430839002	330.83714285714285	80	127
330.83714285714285	331.09256235827667	53	127
330.83714285714285	330.976462585034	81	127
330.83714285714285	331.09256235827667	57	127
330.976462585034	331.09256235827667	77	127
331.09256235827667	331.2086394557823	76	127
331.09256235827667	331.33637188208615	60	127
331.09256235827667	331.33637188208615	55	127
331.2202721088435	331.33637188208615	79	127
331.3479818594104	331.46408163265306	81	127
331.3479818594104	331.60340136054424	60	127
331.3479818594104	331.60340136054424	55	127
331.46408163265306	331.60340136054424	79	127
331.60340136054424	331.7311111111111	74	127
331.60340136054424	331.84721088435373	59	127
331.60340136054424	331.84721088435373	55	127
331.7311111111111	331.84721088435373	79	127
331.84721088435373	331.9865306122449	81	127
331.84721088435373	332.1142403628118	59	127
331.84721088435373	332.1142403628118	55	127
331.9865306122449	332.1142403628118	79	127
332.1258503401361	332.3	45	127
332.1258503401361	332.4277097505669	72	127
332.3116099773243	332.4277097505669	50	127
332.4277097505669	332.56702947845804	48	127
332.4277097505669	332.9849886621315	84	127
332.56702947845804	332.6715192743764	50	127
332.6831292517007	332.82244897959185	54	127
332.8340589569161	332.9849886621315	50	127
332.9849886621315	333.1243083900227	48	127
332.9849886621315	333.28684807256235	78	127
333.1243083900227	333.28684807256235	50	127
333.28684807256235	333.5306575963719	78	127
333.28684807256235	333.402947845805	43	127
333.41455782312926	333.5306575963719	52	127
333.54226757369617	333.6583673469388	48	127
333.54226757369617	333.7976870748299	79	127
333.6583673469388	333.7976870748299	52	127
333.7976870748299	334.3897959183673	79	127
333.7976870748299	333.94861678004537	55	127
333.96022675736964	334.0879365079365	52	127
334.09954648526076	334.23886621315194	48	127
334.23886621315194	334.3897959183673	52	127
334.3897959183673	334.50589569160996	43	127
334.51750566893423	334.6336054421769	52	127
334.64521541950114	334.92385487528344	67	127
334.64521541950114	334.7961224489796	48	127
334.64521541950114	334.92385487528344	72	127
334.64521541950114	334.92385487528344	76	127
334.7961224489796	334.92385487528344	52	127
334.92385487528344	335.05156462585035	43	127
335.05156462585035	335.167664399093	50	127
335.17927437641725	335.4463038548753	74	127
335.17927437641725	335.2953741496599	47	127
335.17927437641725	335.4463038548753	67	127
335.17927437641725	335.4463038548753	71	127
335.2953741496599	335.4463038548753	50	127
335.4463038548753	335.7829931972789	72	127
335.4463038548753	335.655283446712	43	127
335.655283446712	335.7829931972789	52	127
335.7946031746032	335.875873015873	74	127
335.7946031746032	335.875873015873	48	127
335.8874829931973	336.00358276643993	76	127
335.8874829931973	336.00358276643993	52	127
336.00358276643993	336.1312925170068	77	127
336.00358276643993	336.1312925170068	55	127
336.1312925170068	336.28222222222223	79	127
336.1312925170068	336.28222222222223	52	127
336.2938321995465	336.40993197278914	81	127
336.2938321995465	336.40993197278914	48	127
336.4215192743764	336.5260090702948	83	127
336.4215192743764	336.5260090702948	52	127
336.5260090702948	336.64213151927436	84	127
336.5260090702948	336.64213151927436	45	127
336.64213151927436	336.758231292517	86	127
336.64213151927436	336.758231292517	50	127
336.758231292517	336.87433106575963	88	127
336.758231292517	336.87433106575963	48	127
336.8859410430839	337.00204081632654	86	127
336.8859410430839	337.00204081632654	50	127
337.00204081632654	337.1645804988662	54	127
337.00204081632654	337.3039002267574	84	127
337.1645804988662	337.3039002267574	50	127
337.3039002267574	337.5244897959184	78	127
337.3039002267574	337.3967800453515	48	127
337.40839002267575	337.5244897959184	50	127
337.53609977324265	337.6521768707483	43	127
337.53609977324265	337.7682993197279	78	127
337.6521768707483	337.7682993197279	52	127
337.7682993197279	338.03532879818596	79	127
337.7682993197279	337.8843990929705	48	127
337.8960090702948	338.03532879818596	52	127
338.0469387755102	338.16301587301587	55	127
338.0469387755102	338.40684807256235	79	127
338.16301587301587	338.2907482993197	52	127
338.2907482993197	338.40684807256235	48	127
338.4184580498866	338.5577777777778	55	127
338.4184580498866	338.5577777777778	52	127
338.56936507936507	338.68548752834465	55	127
338.56936507936507	338.68548752834465	43	127
338.68548752834465	338.81319727891156	57	127
338.68548752834465	338.81319727891156	45	127
338.81319727891156	338.95251700680274	59	127
338.81319727891156	338.95251700680274	47	127
338.95251700680274	339.0686167800454	60	127
338.95251700680274	339.0686167800454	48	127
339.08020408163264	339.23115646258503	62	127
339.08020408163264	339.23115646258503	50	127
339.23115646258503	339.3704761904762	64	127
339.23115646258503	339.3704761904762	52	127
339.3704761904762	339.4981632653061	53	127
339.3704761904762	339.4981632653061	65	127
339.4981632653061	339.63750566893424	67	127
339.4981632653061	339.63750566893424	55	127
339.6491156462585	339.91614512471654	36	127
339.6491156462585	339.7768253968254	64	127
339.6491156462585	339.91614512471654	48	127
339.7884353741497	339.91614512471654	67	127
339.91614512471654	340.04385487528344	72	127
339.91614512471654	340.1599546485261	52	127
340.04385487528344	340.1599546485261	67	127
340.17156462585035	340.4385941043084	55	127
340.17156462585035	340.3108616780045	71	127
340.32249433106574	340.4385941043084	67	127
340.4385941043084	340.5663038548753	65	127
340.4385941043084	340.5663038548753	62	127
340.4385941043084	340.6940136054422	31	127
340.4385941043084	340.6940136054422	43	127
340.5663038548753	340.6940136054422	67	127
340.71721088435373	340.76367346938775	60	127
340.71721088435373	340.8217006802721	64	127
340.71721088435373	340.94943310657595	48	127
340.71721088435373	340.94943310657595	36	127
340.8333333333333	340.94943310657595	67	127
340.94943310657595	341.2396825396825	52	127
340.94943310657595	341.08875283446713	72	127
341.08875283446713	341.2396825396825	67	127
341.2396825396825	341.3790022675737	71	127
341.2396825396825	341.52993197278914	55	127
341.39061224489797	341.52993197278914	67	127
341.5415192743764	341.8201814058957	31	127
341.5415192743764	341.6924716553288	62	127
341.5415192743764	341.6924716553288	65	127
341.5415192743764	341.8201814058957	43	127
341.6924716553288	341.8201814058957	67	127
341.8201814058957	341.9478684807256	60	127
341.8201814058957	342.0059410430839	64	127
341.8201814058957	342.1336507936508	36	127
341.8201814058957	342.1336507936508	48	127
342.0175510204082	342.1336507936508	67	127
342.1452607709751	342.24972789115645	72	127
342.1452607709751	342.3774603174603	52	127
342.24972789115645	342.3774603174603	67	127
342.3774603174603	342.4819501133787	71	127
342.3774603174603	342.5980498866213	55	127
342.49356009070294	342.5980498866213	67	127
342.6096598639456	342.84185941043086	31	127
342.6096598639456	342.7257596371882	74	127
342.6096598639456	342.7257596371882	65	127
342.6096598639456	342.84185941043086	43	127
342.7257596371882	342.84185941043086	67	127
342.84185941043086	343.08566893424035	64	127
342.84185941043086	343.08566893424035	72	127
342.84185941043086	343.08566893424035	36	127
342.84185941043086	343.08566893424035	48	127
343.0972789115646	343.21337868480725	84	127
343.0972789115646	343.3294784580499	64	127
343.0972789115646	343.3294784580499	60	127
343.21337868480725	343.3294784580499	86	127
343.21337868480725	343.48038548752834	55	127
343.3294784580499	343.5965079365079	88	127
343.3294784580499	343.5965079365079	64	127
343.3294784580499	343.5965079365079	60	127
343.48038548752834	343.7009977324263	55	127
343.6081179138322	343.7009977324263	88	127
343.6081179138322	343.8170975056689	64	127
343.6081179138322	343.8170975056689	60	127
343.71260770975056	343.8170975056689	89	127
343.71260770975056	343.8170975056689	55	127
343.8170975056689	344.07251700680274	64	127
343.8170975056689	344.07251700680274	91	127
343.8170975056689	344.07251700680274	60	127
343.94480725623583	344.20020408163265	55	127
344.084126984127	344.20020408163265	89	127
344.084126984127	344.3975736961451	60	127
344.084126984127	344.3975736961451	64	127
344.21183673469386	344.5485260770975	55	127
344.21183673469386	344.3975736961451	88	127
344.3975736961451	344.66462585034014	86	127
344.3975736961451	344.66462585034014	65	127
344.3975736961451	344.66462585034014	59	127
344.5485260770975	344.8039229024943	55	127
344.6762358276644	344.94326530612244	65	127
344.6762358276644	344.8039229024943	93	127
344.6762358276644	344.94326530612244	59	127
344.8155328798186	344.94326530612244	91	127
344.8155328798186	344.94326530612244	55	127
344.94326530612244	345.1522448979592	91	127
344.94326530612244	345.1522448979592	64	127
344.94326530612244	345.1522448979592	60	127
345.0477551020408	345.25673469387755	55	127
345.1522448979592	345.25673469387755	89	127
345.1522448979592	345.3960544217687	64	127
345.1522448979592	345.3960544217687	60	127
345.2683446712018	345.3960544217687	88	127
345.2683446712018	345.53537414965984	55	127
345.407664399093	345.628231292517	65	127
345.407664399093	345.628231292517	86	127
345.407664399093	345.628231292517	59	127
345.53537414965984	345.79079365079366	55	127
345.628231292517	345.97655328798186	59	127
345.628231292517	345.79079365079366	93	127
345.628231292517	345.97655328798186	65	127
345.80240362811793	345.97655328798186	55	127
345.80240362811793	345.97655328798186	91	127
345.9881632653061	346.2319727891157	91	127
345.9881632653061	346.2319727891157	64	127
345.9881632653061	346.2319727891157	60	127
346.10426303854877	346.3248526077098	55	127
346.2319727891157	346.4409297052154	64	127
346.2319727891157	346.3248526077098	89	127
346.2319727891157	346.4409297052154	60	127
346.33646258503404	346.4409297052154	88	127
346.33646258503404	346.5338321995465	55	127
346.4525623582766	346.67315192743763	86	127
346.4525623582766	346.67315192743763	65	127
346.4525623582766	346.67315192743763	59	127
346.5454195011338	346.83569160997735	55	127
346.6847619047619	346.83569160997735	93	127
346.6847619047619	346.97501133786847	65	127
346.6847619047619	346.97501133786847	59	127
346.8473015873016	346.97501133786847	91	127
346.8473015873016	346.97501133786847	55	127
346.97501133786847	347.2652380952381	60	127
346.97501133786847	347.2652380952381	91	127
346.97501133786847	347.2652380952381	88	127
346.97501133786847	347.2652380952381	84	127
346.97501133786847	347.2652380952381	79	127
346.97501133786847	347.2652380952381	64	127
346.97501133786847	347.2652380952381	55	127
347.2768707482993	347.5439002267574	60	127
347.2768707482993	347.5439002267574	36	127
347.2768707482993	347.5439002267574	48	127
353.2443990929705	353.51142857142855	75	127
353.2443990929705	353.51142857142855	63	127
353.5230385487528	353.65074829931973	65	127
353.5230385487528	353.65074829931973	77	127
353.65074829931973	353.82489795918366	79	127
353.65074829931973	353.82489795918366	67	127
353.82489795918366	354.14997732426303	80	127
353.82489795918366	354.14997732426303	68	127
359.5021768707483	359.7459863945578	60	127
359.5021768707483	359.7459863945578	72	127
359.7459863945578	359.86208616780044	74	127
359.7459863945578	359.86208616780044	62	127
359.8736961451247	359.9665759637188	64	127
359.8736961451247	359.9665759637188	76	127
359.9781859410431	360.2568253968254	77	127
359.9781859410431	360.2568253968254	65	127
367.60591836734693	367.90780045351477	68	127
367.60591836734693	368.24448979591835	61	127
367.60591836734693	368.24448979591835	53	127
367.90780045351477	368.0703401360544	70	127
368.0703401360544	368.24448979591835	72	127
368.2560997732426	368.8598185941043	73	127
368.2560997732426	368.5231065759637	68	127
368.2560997732426	368.5231065759637	53	127
368.5231065759637	368.6740589569161	66	127
368.5231065759637	368.6740589569161	51	127
368.6740589569161	368.8598185941043	65	127
368.6740589569161	368.8598185941043	49	127
368.8598185941043	369.4054875283447	63	127
368.8598185941043	369.4054875283447	54	127
368.8598185941043	369.1152380952381	70	127
369.1268480725624	369.242925170068	72	127
369.242925170068	369.4054875283447	73	127
369.4054875283447	370.0904761904762	75	127
369.4054875283447	369.73056689342405	70	127
369.4054875283447	369.73056689342405	54	127
369.7421768707483	369.9395464852608	68	127
369.7421768707483	369.9395464852608	53	127
369.9395464852608	370.0904761904762	66	127
369.9395464852608	370.0904761904762	51	127
370.0904761904762	370.392335600907	66	127
370.0904761904762	370.392335600907	63	127
370.0904761904762	370.2530158730159	72	127
370.26460317460317	370.392335600907	75	127
370.4039455782313	370.7522448979592	60	127
370.4039455782313	370.7522448979592	63	127
370.4039455782313	370.5780725623583	77	127
370.5780725623583	370.7522448979592	78	127
370.7522448979592	371.05410430839004	80	127
370.7522448979592	370.9031746031746	68	127
370.7522448979592	370.9031746031746	60	127
370.9031746031746	371.05410430839004	72	127
370.9031746031746	371.05410430839004	63	127
371.0773242630386	371.4720634920635	80	127
371.0773242630386	371.2862811791383	65	127
371.0773242630386	371.2862811791383	73	127
371.2979138321995	371.4720634920635	66	127
371.2979138321995	371.4720634920635	75	127
371.4720634920635	371.99451247165536	65	127
371.4720634920635	371.63460317460317	80	127
371.4720634920635	371.99451247165536	73	127
371.64621315192744	371.82036281179137	85	127
371.82036281179137	371.99451247165536	84	127
371.99451247165536	372.598231292517	65	127
371.99451247165536	372.1918820861678	85	127
371.99451247165536	372.598231292517	68	127
372.2034693877551	372.377641723356	89	127
372.377641723356	372.598231292517	87	127
372.598231292517	373.1555102040816	68	127
372.598231292517	372.7607709750567	89	127
372.598231292517	373.1555102040816	73	127
372.77238095238096	372.99297052154196	87	127
372.99297052154196	373.1555102040816	85	127
373.1555102040816	373.701179138322	73	127
373.1555102040816	373.3412698412698	84	127
373.1555102040816	373.701179138322	77	127
373.3528798185941	373.53861678004534	85	127
373.53861678004534	373.701179138322	80	127
373.7127891156463	374.2120181405896	66	127
373.7127891156463	373.81727891156464	82	127
373.7127891156463	374.2120181405896	70	127
373.81727891156464	373.94496598639455	80	127
373.94496598639455	374.2120181405896	78	127
374.22362811791385	374.35131519274375	78	127
374.22362811791385	374.35131519274375	60	127
374.35131519274375	374.4790476190476	77	127
374.35131519274375	374.4790476190476	61	127
374.4790476190476	374.6996371882086	63	127
374.4790476190476	374.6996371882086	75	127
374.7112471655329	375.72131519274376	75	127
374.7112471655329	374.81573696145125	63	127
374.81573696145125	374.94344671201816	65	127
374.94344671201816	375.22208616780046	66	127
375.2336961451247	375.3381859410431	66	127
375.34979591836736	375.45428571428573	65	127
375.45428571428573	375.72131519274376	66	127
375.7445351473923	376.2553741496599	65	127
375.7445351473923	375.89544217687074	80	127
375.90707482993196	376.0231746031746	78	127
376.0231746031746	376.2553741496599	77	127
376.26698412698414	376.3830839002268	77	127
376.26698412698414	376.3830839002268	61	127
376.39467120181405	376.51079365079363	75	127
376.39467120181405	376.51079365079363	63	127
376.51079365079363	376.71977324263037	65	127
376.51079365079363	376.71977324263037	73	127
376.73138321995464	376.835873015873	65	127
376.73138321995464	377.70662131519276	73	127
376.8474829931973	376.9403628117914	66	127
376.9403628117914	377.1841723356009	68	127
377.1841723356009	377.3118820861678	65	127
377.1841723356009	377.3118820861678	68	127
377.3234693877551	377.4163718820862	64	127
377.3234693877551	377.4163718820862	67	127
377.42795918367347	377.70662131519276	68	127
377.42795918367347	377.70662131519276	65	127
377.70662131519276	378.20585034013607	70	127
377.70662131519276	378.20585034013607	66	127
377.70662131519276	377.8227210884354	82	127
377.83430839002267	377.95043083900225	80	127
377.9620408163265	378.20585034013607	78	127
378.20585034013607	378.333560090703	79	127
378.20585034013607	378.333560090703	60	127
378.34514739229024	378.4728798185941	61	127
378.34514739229024	378.4728798185941	77	127
378.48448979591836	378.70507936507937	63	127
378.48448979591836	378.70507936507937	75	127
378.70507936507937	378.821179138322	80	127
378.70507936507937	379.16947845804987	68	127
378.70507936507937	379.16947845804987	65	127
378.821179138322	378.9488888888889	78	127
378.9604761904762	379.16947845804987	77	127
379.16947845804987	379.2971882086168	77	127
379.16947845804987	379.2971882086168	61	127
379.2971882086168	379.4248979591837	75	127
379.2971882086168	379.4248979591837	63	127
379.43650793650795	379.65709750566896	73	127
379.43650793650795	379.65709750566896	65	127
379.65709750566896	380.12149659863945	65	127
379.65709750566896	379.7731746031746	80	127
379.65709750566896	380.12149659863945	68	127
379.7731746031746	379.8892970521542	78	127
379.90090702947845	380.12149659863945	77	127
380.12149659863945	380.24920634920636	77	127
380.12149659863945	380.24920634920636	61	127
380.24920634920636	380.34208616780046	75	127
380.24920634920636	380.34208616780046	63	127
380.35369614512473	380.65555555555557	73	127
380.35369614512473	380.65555555555557	65	127
380.65555555555557	380.7832653061225	80	127
380.65555555555557	380.7832653061225	65	127
380.7832653061225	380.9574149659864	79	127
380.7832653061225	380.9574149659864	67	127
380.9574149659864	381.24766439909297	68	127
380.9574149659864	381.24766439909297	77	127
381.24766439909297	381.3985941043084	89	127
381.24766439909297	381.3985941043084	68	127
381.3985941043084	381.63079365079363	82	127
381.3985941043084	381.63079365079363	70	127
381.6424036281179	382.0835827664399	65	127
381.6424036281179	382.0835827664399	71	127
381.6424036281179	382.0835827664399	77	127
381.6424036281179	382.0835827664399	83	127
382.0951927437642	382.25773242630385	60	127
382.0951927437642	382.25773242630385	76	127
382.0951927437642	382.25773242630385	84	127
382.0951927437642	382.25773242630385	52	127
382.25773242630385	382.5479818594104	64	127
382.25773242630385	382.5479818594104	84	127
382.5479818594104	382.7221315192744	83	127
382.5479818594104	382.7221315192744	62	127
382.7337414965986	382.9543310657596	84	127
382.7337414965986	382.9543310657596	64	127
382.9543310657596	383.11687074829933	88	127
382.9543310657596	383.11687074829933	67	127
383.11687074829933	383.2678004535147	86	127
383.11687074829933	383.2678004535147	65	127
383.279410430839	383.4535600907029	88	127
383.279410430839	383.4535600907029	67	127
383.4535600907029	383.61609977324264	65	127
383.4535600907029	383.61609977324264	86	127
383.61609977324264	383.80185941043084	84	127
383.61609977324264	383.80185941043084	64	127
383.8134693877551	383.98761904761903	83	127
383.8134693877551	383.98761904761903	62	127
383.98761904761903	384.1269387755102	64	127
383.98761904761903	384.1269387755102	84	127
384.1385487528345	384.28947845804987	64	127
384.1385487528345	384.28947845804987	79	127
384.30108843537414	384.55650793650796	65	127
384.30108843537414	384.4171882086168	83	127
384.4404081632653	384.55650793650796	81	127
384.55650793650796	384.7887074829932	79	127
384.55650793650796	384.6726077097506	47	127
384.6726077097506	384.7887074829932	48	127
384.80031746031744	384.92802721088435	79	127
384.80031746031744	384.92802721088435	48	127
384.9396371882086	385.05573696145126	77	127
384.9396371882086	385.05573696145126	50	127
385.05573696145126	385.3459863945578	52	127
385.05573696145126	385.3459863945578	76	127
385.3459863945578	385.6014058956916	53	127
385.3459863945578	386.50698412698415	74	127
385.61301587301585	385.7175056689342	57	127
385.61301587301585	385.7175056689342	69	127
385.61301587301585	385.7175056689342	53	127
385.7175056689342	385.84521541950113	67	127
385.7175056689342	385.84521541950113	55	127
385.7175056689342	385.84521541950113	59	127
385.84521541950113	386.0890249433107	67	127
385.84521541950113	386.0890249433107	55	127
385.84521541950113	386.0890249433107	59	127
386.10063492063495	386.2167346938775	60	127
386.10063492063495	386.2167346938775	57	127
386.10063492063495	386.2167346938775	65	127
386.23995464852607	386.50698412698415	65	127
386.23995464852607	386.50698412698415	62	127
386.23995464852607	386.50698412698415	59	127
386.50698412698415	387.0178231292517	52	127
386.50698412698415	387.0178231292517	64	127
386.50698412698415	387.0178231292517	67	127
386.50698412698415	387.0178231292517	72	127
386.50698412698415	387.0178231292517	76	127
386.50698412698415	387.0178231292517	48	127
386.50698412698415	387.0178231292517	55	127
386.50698412698415	387.0178231292517	60	127
390.65174603174603	391.32512471655326	40	127
390.65174603174603	390.8375056689342	55	127
390.8491156462585	391.0116553287982	64	127
390.8491156462585	391.0116553287982	67	127
391.0116553287982	391.1741950113379	63	127
391.0116553287982	391.1741950113379	66	127
391.18580498866214	391.68503401360545	64	127
391.18580498866214	391.68503401360545	67	127
391.33673469387753	391.49927437641725	47	127
391.49927437641725	391.68503401360545	48	127
391.6966439909297	392.37002267573695	41	127
391.6966439909297	391.8591836734694	57	127
391.8591836734694	392.03333333333336	65	127
391.8591836734694	392.03333333333336	62	127
392.03333333333336	392.195873015873	61	127
392.03333333333336	392.195873015873	64	127
392.2074829931973	392.7647619047619	62	127
392.2074829931973	392.7647619047619	65	127
392.37002267573695	392.53256235827666	49	127
392.53256235827666	392.7647619047619	50	127
392.7879818594104	393.4729705215419	43	127
392.7879818594104	392.96213151927435	55	127
392.96213151927435	393.12467120181407	60	127
392.96213151927435	393.12467120181407	64	127
393.12467120181407	393.2872108843537	62	127
393.12467120181407	393.2872108843537	59	127
393.298820861678	393.85609977324265	60	127
393.298820861678	393.85609977324265	64	127
393.4729705215419	393.67034013605445	50	127
393.68195011337866	393.85609977324265	52	127
393.8677097505669	394.0650793650794	55	127
393.8677097505669	394.0650793650794	43	127
394.0650793650794	394.22761904761904	64	127
394.0650793650794	394.22761904761904	52	127
394.0650793650794	394.22761904761904	60	127
394.2392290249433	394.41337868480724	59	127
394.2392290249433	394.41337868480724	62	127
394.2392290249433	394.41337868480724	53	127
394.41337868480724	394.57591836734696	55	127
394.41337868480724	394.57591836734696	43	127
394.57591836734696	394.7384580498866	64	127
394.57591836734696	394.7384580498866	60	127
394.57591836734696	394.7384580498866	52	127
394.76167800453516	394.91260770975055	53	127
394.76167800453516	394.91260770975055	59	127
394.76167800453516	394.91260770975055	62	127
394.91260770975055	395.41183673469385	40	127
394.91260770975055	395.41183673469385	52	127
394.91260770975055	395.41183673469385	79	127
394.91260770975055	395.41183673469385	72	127
394.91260770975055	395.41183673469385	67	127
395.41183673469385	395.58598639455784	52	127
395.58598639455784	395.7485260770975	64	127
395.76013605442176	395.9226757369614	62	127
395.9226757369614	396.0968253968254	64	127
396.1084353741497	396.23614512471653	67	127
396.2477551020408	396.4102947845805	65	127
396.4102947845805	396.58444444444444	67	127
396.5960544217687	396.77020408163264	76	127
396.77020408163264	396.9211337868481	74	127
396.9211337868481	397.08367346938775	76	127
397.1068934240363	397.26943310657595	76	127
397.26943310657595	397.4203628117914	74	127
397.4203628117914	397.5480725623583	76	127
397.5596825396825	397.6990022675737	79	127
397.6990022675737	397.84993197278914	77	127
397.84993197278914	398.02408163265306	79	127
398.02408163265306	398.1866213151927	84	127
398.1866213151927	398.3607709750567	83	127
398.3607709750567	398.5465306122449	84	127
398.5581405895692	398.7439002267574	84	127
398.7439002267574	398.9644897959184	83	127
398.9644897959184	399.1850793650794	40	127
398.9644897959184	399.6146485260771	84	127
399.1966893424036	399.3592290249433	48	127
399.3592290249433	399.4985487528345	47	127
399.4985487528345	399.6146485260771	48	127
399.62625850340135	399.80040816326533	83	127
399.62625850340135	399.80040816326533	50	127
399.80040816326533	399.962947845805	84	127
399.80040816326533	399.962947845805	52	127
399.962947845805	400.229977324263	84	127
399.962947845805	400.12548752834465	41	127
400.1370975056689	400.3112471655329	50	127
400.229977324263	400.48539682539683	81	127
400.3112471655329	400.48539682539683	49	127
400.4970068027211	400.6479365079365	50	127
400.4970068027211	400.7292063492063	79	127
400.65954648526076	400.84530612244896	52	127
400.7292063492063	401.0078458049887	77	127
400.84530612244896	401.0078458049887	53	127
401.01945578231295	401.15877551020407	76	127
401.01945578231295	401.25165532879817	43	127
401.1239455782313	401.35614512471653	55	127
401.17038548752834	401.3213151927438	64	127
401.25165532879817	401.4722448979592	43	127
401.3213151927438	401.4722448979592	63	127
401.3677551020408	401.61156462585035	55	127
401.48385487528344	401.65800453514737	64	127
401.48385487528344	401.73927437641726	43	127
401.61156462585035	401.8437641723356	55	127
401.65800453514737	401.79732426303855	76	127
401.73927437641726	401.9598639455782	43	127
401.79732426303855	401.9598639455782	75	127
401.8437641723356	402.07596371882084	55	127
401.9714739229025	402.1224036281179	76	127
401.9714739229025	402.2268934240363	43	127
402.07596371882084	402.3662131519274	55	127
402.1224036281179	402.3197732426304	84	127
402.2268934240363	402.4707029478458	43	127
402.3197732426304	402.4707029478458	83	127
402.3662131519274	402.5984126984127	55	127
402.48231292517005	402.64485260770977	84	127
402.48231292517005	402.7261224489796	43	127
402.61002267573696	402.8538321995465	55	127
402.64485260770977	402.8073922902494	88	127
402.7261224489796	402.96993197278914	43	127
402.8073922902494	402.96993197278914	87	127
402.8538321995465	402.96993197278914	55	127
402.98154195011335	403.23696145124717	88	127
402.98154195011335	403.10925170068026	43	127
402.98154195011335	403.23696145124717	84	127
403.12086167800453	403.23696145124717	45	127
403.23696145124717	403.3646712018141	47	127
403.23696145124717	403.4807709750567	84	127
403.23696145124717	403.4807709750567	88	127
403.3646712018141	403.4807709750567	48	127
403.4923809523809	403.5968707482993	88	127
403.4923809523809	403.5968707482993	50	127
403.60848072562356	403.7245804988662	86	127
403.60848072562356	403.7245804988662	52	127
403.7245804988662	403.8522902494331	84	127
403.7245804988662	403.8522902494331	53	127
403.8522902494331	403.96839002267575	83	127
403.8522902494331	403.96839002267575	55	127
403.96839002267575	404.0844897959184	84	127
403.96839002267575	404.0844897959184	48	127
404.09609977324266	404.21219954648524	83	127
404.09609977324266	404.21219954648524	50	127
404.2238095238095	404.3166893424036	81	127
404.2238095238095	404.3166893424036	52	127
404.3166893424036	404.4443990929705	79	127
404.3166893424036	404.4443990929705	53	127
404.4443990929705	404.5372789115646	77	127
404.4443990929705	404.5372789115646	55	127
404.5488888888889	404.6649886621315	76	127
404.5488888888889	404.6649886621315	57	127
404.6765986394558	404.7926984126984	74	127
404.6765986394558	404.7926984126984	59	127
404.7926984126984	404.9204081632653	72	127
404.7926984126984	404.9204081632653	60	127
404.9204081632653	405.0481179138322	67	127
404.9204081632653	405.0481179138322	59	127
404.9900680272109	405.1177777777778	60	127
405.05972789115646	405.1758276643991	69	127
405.05972789115646	405.1758276643991	59	127
405.1177777777778	405.2570975056689	60	127
405.18743764172336	405.31514739229027	71	127
405.18743764172336	405.31514739229027	59	127
405.2570975056689	405.38480725623583	60	127
405.31514739229027	405.46607709750566	72	127
405.31514739229027	405.46607709750566	59	127
405.3964172335601	405.524126984127	60	127
405.46607709750566	405.59378684807257	74	127
405.46607709750566	405.59378684807257	59	127
405.5357369614512	405.6750566893424	60	127
405.59378684807257	405.7679365079365	76	127
405.59378684807257	405.7679365079365	59	127
405.6750566893424	405.8608163265306	60	127
405.79115646258504	405.91886621315194	77	127
405.79115646258504	405.91886621315194	59	127
405.8608163265306	406.0001360544218	60	127
405.91886621315194	406.06979591836733	78	127
405.91886621315194	406.06979591836733	59	127
406.01174603174604	406.13945578231295	60	127
406.06979591836733	406.2091156462585	79	127
406.06979591836733	406.2091156462585	43	127
406.15106575963716	406.3019954648526	45	127
406.2091156462585	406.3600453514739	81	127
406.2091156462585	406.3600453514739	43	127
406.3019954648526	406.4297052154195	45	127
406.37165532879817	406.4993650793651	83	127
406.37165532879817	406.4993650793651	43	127
406.4297052154195	406.55741496598637	45	127
406.51097505668935	406.63868480725625	84	127
406.51097505668935	406.63868480725625	43	127
406.56902494331064	406.7431746031746	45	127
406.63868480725625	406.8128344671202	86	127
406.63868480725625	406.8128344671202	43	127
406.7547845804989	406.89410430839	45	127
406.8128344671202	406.95215419501136	88	127
406.8128344671202	406.95215419501136	43	127
406.89410430839	407.0218140589569	45	127
406.9637641723356	407.0914739229025	89	127
406.9637641723356	407.0914739229025	43	127
407.04503401360546	407.19596371882085	42	127
407.0914739229025	407.2424036281179	91	127
407.2424036281179	407.2772335600907	43	127
407.2424036281179	407.4978231292517	67	127
407.2424036281179	407.4978231292517	79	127
407.2424036281179	407.4978231292517	31	127
407.4978231292517	407.6139229024943	69	127
407.4978231292517	407.6139229024943	81	127
407.4978231292517	407.6139229024943	33	127
407.4978231292517	407.6139229024943	45	127
407.6139229024943	407.76485260770977	71	127
407.6139229024943	407.76485260770977	83	127
407.6139229024943	407.76485260770977	35	127
407.6139229024943	407.76485260770977	47	127
407.77646258503404	408.05510204081634	72	127
407.77646258503404	408.05510204081634	84	127
407.77646258503404	408.05510204081634	36	127
407.77646258503404	408.05510204081634	48	127
408.3453514739229	408.658820861678	67	127
408.3453514739229	408.658820861678	79	127
408.3453514739229	408.658820861678	31	127
408.3453514739229	408.658820861678	43	127
408.658820861678	408.77492063492065	81	127
408.658820861678	408.77492063492065	69	127
408.658820861678	408.77492063492065	33	127
408.658820861678	408.77492063492065	45	127
408.7981405895692	408.92585034013604	83	127
408.7981405895692	408.92585034013604	71	127
408.7981405895692	408.92585034013604	35	127
408.7981405895692	408.92585034013604	47	127
408.9490702947846	409.2509297052154	72	127
408.9490702947846	409.2509297052154	84	127
408.9490702947846	409.2509297052154	36	127
408.9490702947846	409.2509297052154	48	127
409.5179591836735	410.6557369614512	55	127
409.5179591836735	410.6557369614512	50	127
409.5179591836735	410.6557369614512	59	127
409.5179591836735	410.6557369614512	31	127
409.5179591836735	410.6557369614512	43	127
410.6673469387755	411.2478458049887	55	127
410.6673469387755	411.2478458049887	36	127
410.6673469387755	411.2478458049887	52	127
410.6673469387755	411.2478458049887	48	127
410.6673469387755	411.63097505668935	60	127
411.2594557823129	411.63097505668935	52	127
411.2594557823129	411.63097505668935	55	127
411.2594557823129	411.63097505668935	40	127
411.63097505668935	411.78190476190474	76	127
411.63097505668935	411.78190476190474	40	127
411.793514739229	411.90961451247165	77	127
411.793514739229	411.90961451247165	41	127
411.9212244897959	412.234693877551	67	127
411.9212244897959	412.234693877551	79	127
411.9212244897959	412.234693877551	31	127
411.9212244897959	412.234693877551	43	127
412.234693877551	412.3972335600907	69	127
412.234693877551	412.3972335600907	81	127
412.234693877551	412.3972335600907	33	127
412.234693877551	412.3972335600907	45	127
412.4204535147392	412.54816326530613	71	127
412.4204535147392	412.54816326530613	83	127
412.4204535147392	412.54816326530613	35	127
412.4204535147392	412.54816326530613	47	127
412.5597732426304	412.8732426303855	72	127
412.5597732426304	412.8732426303855	84	127
412.5597732426304	412.8732426303855	36	127
412.5597732426304	412.8732426303855	48	127
413.1518820861678	413.4305215419501	67	127
413.1518820861678	413.4305215419501	79	127
413.1518820861678	413.4305215419501	31	127
413.1518820861678	413.4305215419501	43	127
413.48857142857145	413.62789115646257	69	127
413.48857142857145	413.62789115646257	81	127
413.48857142857145	413.62789115646257	33	127
413.48857142857145	413.62789115646257	45	127
413.62789115646257	413.76721088435374	71	127
413.62789115646257	413.76721088435374	83	127
413.62789115646257	413.76721088435374	35	127
413.62789115646257	413.76721088435374	47	127
413.76721088435374	414.1503401360544	72	127
413.76721088435374	414.1503401360544	84	127
413.76721088435374	414.1503401360544	36	127
413.76721088435374	414.1503401360544	48	127
414.4638095238095	414.8701587301587	79	127
414.4638095238095	415.1604081632653	55	127
414.4638095238095	415.1604081632653	59	127
414.4638095238095	415.1604081632653	65	127
414.8701587301587	415.1604081632653	77	127
415.1836281179138	415.5203174603175	57	127
415.1836281179138	415.5203174603175	60	127
415.1836281179138	415.5203174603175	65	127
415.1836281179138	415.5203174603175	76	127
415.5203174603175	415.8337868480726	74	127
415.5203174603175	415.8337868480726	59	127
415.5203174603175	415.8337868480726	62	127
415.5203174603175	415.8337868480726	65	127
415.84539682539685	416.49555555555554	72	127
415.84539682539685	416.49555555555554	60	127
415.84539682539685	416.49555555555554	64	127
417.13410430839	417.84231292517006	55	127
417.13410430839	417.84231292517006	59	127
417.13410430839	417.84231292517006	31	127
417.13410430839	417.84231292517006	43	127
417.84231292517006	418.190612244898	57	127
417.84231292517006	418.190612244898	60	127
417.84231292517006	418.190612244898	31	127
417.84231292517006	418.190612244898	43	127
418.20222222222225	418.60857142857145	59	127
418.20222222222225	418.60857142857145	62	127
418.20222222222225	418.60857142857145	31	127
418.20222222222225	418.60857142857145	43	127
418.62018140589566	419.5489795918367	60	127
418.62018140589566	419.5489795918367	64	127
418.62018140589566	419.5489795918367	36	127
418.62018140589566	419.5489795918367	43	127
420.48938775510203	420.61709750566894	79	127
420.48938775510203	420.61709750566894	55	127
420.61709750566894	420.6867573696145	81	127
420.61709750566894	420.6867573696145	57	127
420.6867573696145	420.8144671201814	79	127
420.6867573696145	420.8144671201814	55	127
420.8144671201814	420.93056689342404	77	127
420.8144671201814	420.93056689342404	53	127
420.9421768707483	421.0350566893424	76	127
420.9421768707483	421.0350566893424	52	127
421.0350566893424	421.15115646258505	79	127
421.0350566893424	421.15115646258505	55	127
421.1627664399093	421.30208616780044	77	127
421.1627664399093	421.30208616780044	53	127
421.30208616780044	421.4181859410431	74	127
421.30208616780044	421.4181859410431	50	127
421.4181859410431	421.68521541950116	72	127
421.4181859410431	421.68521541950116	48	127
421.9406349206349	422.24249433106576	76	127
421.9406349206349	422.24249433106576	79	127
421.9406349206349	422.24249433106576	84	127
421.9406349206349	422.24249433106576	72	127
421.9406349206349	422.24249433106576	36	127
421.9406349206349	422.24249433106576	40	127
421.9406349206349	422.24249433106576	43	127
421.9406349206349	422.24249433106576	48	127
422.5443537414966	423.3222222222222	72	127
422.5443537414966	423.3222222222222	76	127
422.5443537414966	423.3222222222222	79	127
422.5443537414966	423.3222222222222	84	127
422.5443537414966	423.3222222222222	36	127
422.5443537414966	423.3222222222222	40	127
422.5443537414966	423.3222222222222	43	127
422.5443537414966	423.3222222222222	48	127
