# onset,offset,note,velocity
0.6841950113378685	0.7538775510204082	71	127
0.7538775510204082	0.8003174603174603	72	127
0.8003174603174603	0.8235374149659864	71	127
0.8235374149659864	0.8931972789115646	69	127
0.8931972789115646	0.986077097505669	71	127
0.986077097505669	1.1486167800453515	76	127
1.1486167800453515	1.3459863945578232	74	127
1.3459863945578232	1.8916553287981859	71	127
3.5634920634920637	3.6331519274376416	71	127
3.6331519274376416	3.691201814058957	72	127
3.691201814058957	3.760861678004535	71	127
3.760861678004535	3.8189115646258505	72	127
3.8189115646258505	3.9117913832199545	71	127
3.9117913832199545	4.016281179138322	69	127
4.016281179138322	4.120748299319728	71	127
4.120748299319728	4.399410430839002	76	127
4.399410430839002	4.666439909297052	74	127
4.666439909297052	5.246916099773243	66	127
5.258548752834467	5.572018140589569	69	127
5.572018140589569	5.862267573696145	67	127
5.862267573696145	7.011655328798186	62	127
7.023265306122449	7.336734693877551	67	127
7.336734693877551	7.615374149659864	71	127
7.615374149659864	7.847573696145124	74	127
7.847573696145124	8.149433106575964	79	127
8.149433106575964	8.370022675736962	83	127
8.370022675736962	8.660272108843538	86	127
8.660272108843538	8.927301587301587	83	127
8.927301587301587	9.2059410430839	79	127
9.2059410430839	9.531020408163265	78	127
9.531020408163265	9.844489795918367	81	127
9.844489795918367	10.250839002267574	79	127
12.027165532879819	12.10843537414966	59	127
12.10843537414966	12.178095238095239	60	127
12.178095238095239	12.247755102040816	59	127
12.247755102040816	12.317414965986394	60	127
12.317414965986394	12.398684807256236	59	127
12.398684807256236	12.49156462585034	57	127
12.49156462585034	12.572834467120181	59	127
12.572834467120181	12.851473922902494	64	127
12.851473922902494	13.153333333333334	62	127
13.153333333333334	13.745442176870748	59	127
13.745442176870748	14.314331065759637	59	127
14.314331065759637	14.732290249433106	59	127
14.74390022675737	15.277959183673469	60	127
15.289569160997733	15.881678004535148	62	127
15.89328798185941	17.031043083900226	60	127
17.042675736961453	17.332925170068027	64	127
17.332925170068027	17.623174603174604	67	127
17.623174603174604	17.890204081632653	72	127
17.890204081632653	18.122403628117915	76	127
18.122403628117915	18.354603174603174	79	127
18.354603174603174	18.621609977324262	84	127
18.621609977324262	18.83061224489796	79	127
18.83061224489796	18.981541950113378	76	127
18.981541950113378	19.260181405895693	72	127
19.260181405895693	19.49238095238095	76	127
19.49238095238095	19.771020408163267	79	127
19.771020408163267	19.991609977324263	84	127
19.991609977324263	20.258639455782312	79	127
20.258639455782312	20.560498866213152	76	127
20.560498866213152	20.81591836734694	72	127
20.81591836734694	21.082947845804988	76	127
21.082947845804988	21.349954648526076	81	127
21.349954648526076	21.535714285714285	84	127
21.535714285714285	21.651836734693877	81	127
21.651836734693877	21.907256235827663	76	127
21.907256235827663	22.19750566893424	72	127
22.19750566893424	22.476145124716552	76	127
22.476145124716552	22.673514739229024	81	127
22.673514739229024	22.940544217687076	84	127
22.940544217687076	23.04503401360544	81	127
23.04503401360544	23.323673469387757	76	127
23.323673469387757	23.602312925170068	72	127
23.602312925170068	23.88095238095238	78	127
23.88095238095238	24.06671201814059	81	127
24.06671201814059	24.275691609977326	84	127
24.275691609977326	24.531111111111112	81	127
24.531111111111112	24.75170068027211	78	127
24.75170068027211	25.030340136054424	72	127
25.030340136054424	25.297369614512473	78	127
25.297369614512473	25.44829931972789	81	127
25.44829931972789	25.66888888888889	84	127
25.66888888888889	25.90108843537415	81	127
25.90108843537415	26.156507936507936	78	127
26.156507936507936	26.853106575963718	72	127
26.853106575963718	27.16657596371882	78	127
27.16657596371882	27.375555555555554	81	127
27.375555555555554	27.596145124716553	84	127
27.596145124716553	27.630975056689344	88	127
27.630975056689344	27.73546485260771	86	127
27.73546485260771	28.00249433106576	84	127
28.00249433106576	28.165034013605442	83	127
28.165034013605442	28.397233560090704	81	127
28.397233560090704	28.629433106575963	79	127
28.629433106575963	28.896462585034012	78	127
28.896462585034012	29.175102040816327	76	127
29.175102040816327	29.3724716553288	74	127
29.3724716553288	29.593061224489794	72	127
29.593061224489794	29.813650793650794	71	127
29.813650793650794	30.06907029478458	69	127
30.06907029478458	30.359319727891158	67	127
30.359319727891158	30.60312925170068	67	127
30.614739229024945	31.113968253968252	67	127
31.113968253968252	31.29972789115646	67	127
31.380997732426305	31.531927437641723	67	127
31.613197278911564	31.798956916099772	67	127
31.857006802721088	32.0427664399093	67	127
32.07759637188209	32.274965986394555	67	127
32.274965986394555	32.40267573696145	66	127
32.46072562358277	32.63487528344671	66	127
32.72775510204082	32.913492063492065	66	127
32.983174603174604	33.22698412698413	66	127
33.319863945578234	33.55204081632653	66	127
33.644943310657595	34.968480725623586	67	127
34.98009070294785	35.29356009070295	71	127
35.29356009070295	35.45607709750567	69	127
35.53736961451247	35.72312925170068	69	127
35.81600907029478	35.932108843537414	69	127
35.99015873015873	36.106258503401364	69	127
36.17591836734694	36.35004535147392	69	127
36.41972789115646	36.68675736961451	69	127
36.68675736961451	36.872517006802724	74	127
36.9421768707483	37.12793650793651	74	127
37.18598639455782	37.371746031746035	74	127
37.39496598639456	37.54589569160998	74	127
37.615532879818595	37.847755102040814	74	127
37.94063492063492	38.74172335600907	74	127
38.74172335600907	38.98553287981859	76	127
38.98553287981859	39.380272108843535	74	127
42.48013605442177	42.67750566893424	74	127
42.75877551020408	42.886485260770975	74	127
42.89809523809524	43.08385487528345	74	127
43.1302947845805	43.30444444444444	74	127
43.33927437641724	43.4553514739229	74	127
43.536643990929704	44.198412698412696	74	127
44.198412698412696	44.43061224489796	76	127
44.43061224489796	44.84854875283447	74	127
47.76267573696145	47.90199546485261	59	127
47.94843537414966	48.134195011337866	59	127
48.20385487528345	48.38961451247165	59	127
48.459274376417234	48.621814058956915	59	127
48.679863945578234	48.888843537414964	59	127
48.97011337868481	49.52739229024943	61	127
49.52739229024943	50.641950113378684	64	127
49.52739229024943	50.641950113378684	61	127
50.653560090702946	50.816099773242634	56	127
50.816099773242634	50.99024943310658	57	127
50.99024943310658	51.17600907029478	59	127
51.17600907029478	51.361768707482995	61	127
51.361768707482995	51.524308390022675	62	127
51.524308390022675	51.686848072562356	63	127
51.686848072562356	51.860997732426306	64	127
51.860997732426306	52.03514739229025	66	127
52.03514739229025	52.56920634920635	66	127
52.56920634920635	53.602494331065756	67	127
53.602494331065756	53.765034013605444	64	127
53.776643990929706	53.96240362811791	56	127
53.96240362811791	54.148163265306124	57	127
54.148163265306124	54.32231292517007	59	127
54.32231292517007	54.4384126984127	61	127
54.4384126984127	54.61256235827664	62	127
54.61256235827664	54.79832199546485	63	127
54.79832199546485	54.99569160997732	64	127
54.99569160997732	55.146621315192746	66	127
55.15823129251701	55.622630385487525	66	127
55.622630385487525	57.108707482993196	57	127
55.622630385487525	57.108707482993196	67	127
60.45238095238095	60.6265306122449	61	127
60.6265306122449	60.77746031746032	62	127
60.77746031746032	60.96321995464853	64	127
60.96321995464853	61.17219954648526	62	127
61.17219954648526	61.2534693877551	74	127
61.2534693877551	61.35795918367347	74	127
61.42761904761905	61.59015873015873	62	127
61.59015873015873	61.70625850340136	74	127
61.76430839002268	61.83396825396825	74	127
61.845578231292514	61.99650793650794	62	127
61.99650793650794	62.12421768707483	74	127
62.182267573696144	62.344807256235825	74	127
62.402857142857144	62.57700680272109	55	127
62.57700680272109	62.65827664399093	67	127
62.71632653061224	62.82081632653061	67	127
62.87886621315193	63.05301587301587	55	127
63.05301587301587	63.18072562358277	67	127
63.23877551020408	63.34326530612245	67	127
63.401315192743766	63.58707482993197	55	127
63.58707482993197	63.69156462585034	67	127
63.72639455782313	63.80766439909297	67	127
63.86571428571428	64.01664399092971	55	127
64.01664399092971	64.1443537414966	67	127
64.17916099773242	64.29528344671202	67	127
64.35333333333334	64.52748299319728	59	127
64.52748299319728	64.6435827664399	66	127
64.69	64.7712925170068	66	127
64.81770975056689	65.00349206349206	59	127
65.00349206349206	65.10798185941043	66	127
65.15442176870748	65.28213151927437	66	127
65.34018140589569	65.51433106575963	59	127
65.51433106575963	65.63043083900227	66	127
65.66526077097505	65.75814058956917	66	127
65.81616780045351	65.97873015873016	64	127
65.97873015873016	66.06	67	127
66.08321995464853	66.1992970521542	67	127
66.24575963718821	66.43151927437641	64	127
66.43151927437641	66.5592290249433	67	127
66.61727891156463	66.73335600907029	67	127
66.79142857142857	66.96555555555555	64	127
66.96555555555555	67.08167800453515	67	127
67.13972789115647	67.24421768707484	67	127
67.32548752834467	67.47639455782313	64	127
67.47639455782313	67.59251700680272	67	127
67.63895691609977	67.70861678004535	67	127
67.76666666666667	67.92920634920635	64	127
67.92920634920635	68.04530612244898	67	127
68.1033560090703	68.23106575963719	67	127
68.28911564625851	68.42843537414966	57	127
68.42843537414966	68.55614512471655	67	127
68.61419501133787	68.74190476190476	67	127
68.78834467120181	68.97410430839003	57	127
68.97410430839003	69.10181405895692	67	127
69.13662131519274	69.26433106575963	67	127
69.32240362811791	69.53138321995465	57	127
69.53138321995465	69.67070294784581	67	127
69.72875283446712	69.84485260770975	67	127
69.9028798185941	70.36730158730158	57	127
69.9028798185941	70.36730158730158	67	127
73.54843537414966	73.89673469387755	78	127
74.05927437641724	74.18698412698413	79	127
74.19857142857143	75.197052154195	81	127
75.20866213151928	75.47566893424036	83	127
75.638231292517	75.77755102040817	85	127
75.78916099773242	76.77600907029479	86	127
76.77600907029479	77.07786848072563	74	127
77.22879818594105	77.36809523809524	75	127
77.36809523809524	77.61192743764173	76	127
77.76285714285714	77.85573696145124	75	127
77.86734693877551	78.11115646258503	76	127
78.26206349206349	78.38977324263038	78	127
78.40140589569161	78.93546485260771	78	127
78.94707482993198	79.93392290249433	79	127
79.93392290249433	80.20095238095239	79	127
80.36349206349206	80.50281179138322	81	127
80.50281179138322	81.5592970521542	83	127
81.57092970521542	81.83795918367348	85	127
82.0469387755102	82.23269841269841	86	127
82.31396825396826	83.16149659863946	88	127
83.16149659863946	83.44013605442177	86	127
83.44013605442177	83.62589569160998	86	127
83.62589569160998	83.7768253968254	85	127
83.81165532879818	83.96256235827664	83	127
83.9974149659864	84.17156462585034	83	127
84.17156462585034	84.32249433106576	81	127
84.35732426303855	84.49664399092971	79	127
84.53147392290249	84.70562358276644	79	127
84.70562358276644	84.8565306122449	78	127
84.89138321995465	85.03070294784581	76	127
85.06553287981859	85.26290249433107	76	127
85.26290249433107	85.41383219954649	74	127
85.44866213151927	85.58798185941043	73	127
85.63442176870748	85.7853514739229	73	127
85.7853514739229	85.93628117913832	71	127
85.99433106575964	86.14526077097506	69	127
86.1917006802721	86.37746031746032	69	127
86.37746031746032	86.51675736961451	67	127
86.56321995464853	86.70253968253968	66	127
86.74895691609977	86.89988662131519	66	127
86.89988662131519	87.05083900226758	64	127
87.09727891156463	87.21337868480725	62	127
87.24820861678005	87.39913832199547	62	127
87.39913832199547	87.56167800453515	61	127
87.6081179138322	87.78226757369615	59	127
87.8287074829932	88.00285714285714	59	127
88.00285714285714	88.2350566893424	71	127
88.2350566893424	88.44403628117914	70	127
88.4556462585034	88.66460317460317	70	127
88.66460317460317	88.86199546485261	61	127
88.86199546485261	89.0825850340136	70	127
89.0825850340136	89.33800453514739	70	127
89.33800453514739	89.57020408163265	61	127
89.57020408163265	89.83723356009071	69	127
89.83723356009071	90.0926530612245	69	127
90.0926530612245	90.40612244897959	61	127
90.40612244897959	90.76603174603174	67	127
90.76603174603174	92.57718820861678	62	127
90.76603174603174	92.57718820861678	65	127
92.57718820861678	94.00519274376417	57	127
92.57718820861678	94.00519274376417	65	127
94.00519274376417	95.67705215419501	58	127
94.00519274376417	95.67705215419501	65	127
95.67705215419501	96.91931972789115	57	127
95.67705215419501	96.64068027210884	66	127
96.65229024943311	96.91931972789115	67	127
96.93092970521542	97.2792290249433	61	127
97.29083900226757	98.06870748299319	62	127
98.08031746031746	98.2892970521542	74	127
98.2892970521542	98.49827664399093	75	127
98.49827664399093	98.7304761904762	79	127
98.74208616780045	98.9162358276644	77	127
98.92784580498866	99.09038548752835	74	127
99.1019954648526	99.28775510204082	74	127
99.28775510204082	99.48512471655329	75	127
99.48512471655329	99.65927437641723	72	127
99.6708843537415	99.83342403628117	65	127
99.84503401360544	100.04240362811791	72	127
100.04240362811791	100.22816326530612	74	127
100.22816326530612	100.40231292517007	77	127
100.41392290249433	100.57646258503401	75	127
100.58807256235828	100.7390022675737	72	127
100.7390022675737	100.92476190476191	72	127
100.92476190476191	101.09891156462585	74	127
101.12213151927438	101.2730612244898	70	127
101.28467120181406	101.48204081632653	65	127
101.49365079365079	101.65619047619047	62	127
101.65619047619047	101.84195011337869	63	127
101.84195011337869	101.95804988662131	67	127
101.95804988662131	102.14380952380952	65	127
102.15541950113379	102.37600907029478	62	127
102.37600907029478	104.33809523809524	74	127
102.37600907029478	104.33809523809524	62	127
104.33809523809524	104.86054421768708	61	127
104.86054421768708	105.39460317460318	67	127
105.40621315192743	105.87061224489796	64	127
105.88222222222223	106.41628117913832	64	127
106.42789115646258	106.95034013605442	61	127
106.96195011337869	107.49600907029479	64	127
107.49600907029479	107.9952380952381	76	127
107.9952380952381	108.42480725623582	73	127
108.42480725623582	108.95886621315192	76	127
108.97047619047619	109.43487528344671	76	127
109.44648526077097	109.86444444444444	73	127
109.87605442176871	110.17791383219955	76	127
110.1895238095238	110.46816326530612	73	127
110.46816326530612	111.04866213151928	74	127
111.06027210884353	111.71043083900227	74	127
111.72204081632653	112.19804988662132	74	127
112.19804988662132	112.46507936507936	71	127
113.27777777777777	113.63768707482993	71	127
113.63768707482993	113.92793650793651	67	127
115.29791383219954	115.78553287981859	67	127
115.79714285714286	116.45891156462585	67	127
116.47052154195012	116.64467120181406	66	127
116.64467120181406	116.93492063492063	74	127
116.93492063492063	117.20195011337869	76	127
117.20195011337869	117.4457596371882	78	127
117.4457596371882	117.74761904761905	79	127
117.75922902494331	118.03786848072562	81	127
118.04947845804989	118.83895691609978	83	127
118.83895691609978	118.9898866213152	86	127
118.9898866213152	119.65165532879818	79	127
119.66326530612245	120.3366439909297	79	127
120.3366439909297	120.42952380952381	83	127
120.42952380952381	120.61528344671201	79	127
120.61528344671201	121.25383219954648	76	127
121.26544217687075	122.44965986394558	71	127
122.46126984126984	123.07659863945578	73	127
123.08820861678005	123.33201814058957	74	127
123.33201814058957	123.51777777777778	73	127
123.51777777777778	123.68031746031745	71	127
123.68031746031745	123.85446712018141	69	127
123.85446712018141	124.01700680272108	71	127
124.01700680272108	124.19115646258503	73	127
124.19115646258503	124.37691609977324	74	127
124.37691609977324	124.57428571428571	73	127
124.57428571428571	124.76004535147392	71	127
124.76004535147392	124.92258503401361	69	127
124.92258503401361	125.07351473922903	71	127
125.07351473922903	125.25927437641724	73	127
125.25927437641724	125.44503401360544	74	127
125.44503401360544	125.56113378684807	76	127
125.56113378684807	125.74689342403629	78	127
125.74689342403629	125.93265306122449	79	127
125.93265306122449	126.0835827664399	81	127
126.0835827664399	126.26934240362812	81	127
126.26934240362812	126.45510204081633	79	127
126.45510204081633	126.61764172335602	78	127
126.61764172335602	126.81501133786848	76	127
126.81501133786848	127.0936507936508	74	127
127.39551020408163	127.74380952380952	73	127
127.39551020408163	127.74380952380952	76	127
128.10371882086167	130.68113378684808	69	127
130.69274376417235	130.8320634920635	57	127
130.8320634920635	130.97138321995465	69	127
130.97138321995465	131.1687528344671	69	127
131.1687528344671	131.31968253968253	67	127
131.31968253968253	131.48222222222222	66	127
131.48222222222222	131.6795918367347	64	127
131.6795918367347	131.96984126984128	62	127
132.27170068027212	132.57356009070295	61	127
132.27170068027212	132.57356009070295	64	127
133.42108843537414	133.9202947845805	61	127
133.42108843537414	133.9202947845805	64	127
134.94197278911565	135.42961451247166	62	127
134.94197278911565	135.42961451247166	66	127
136.59061224489795	137.03179138321997	64	127
136.59061224489795	137.03179138321997	73	127
138.0882993197279	138.5643083900227	66	127
138.0882993197279	138.5643083900227	74	127
138.57591836734693	138.81972789115648	80	127
138.83133786848072	139.04031746031745	81	127
139.05192743764172	139.5627664399093	83	127
139.5627664399093	140.0968253968254	81	127
140.0968253968254	140.3754648526077	76	127
140.3754648526077	140.60766439909298	78	127
140.60766439909298	141.15333333333334	79	127
141.1649433106576	141.68736961451248	78	127
141.6990022675737	141.94278911564626	73	127
141.95442176870748	142.2330612244898	74	127
142.24467120181407	142.7671201814059	78	127
142.7671201814059	143.25473922902495	76	127
143.25473922902495	143.81201814058957	70	127
143.81201814058957	144.8568934240363	69	127
144.8685260770975	145.39097505668934	70	127
145.39097505668934	146.40104308390022	69	127
146.40104308390022	146.9467120181406	70	127
146.9467120181406	148.0148299319728	69	127
148.0148299319728	148.5140589569161	70	127
148.52566893424037	149.59378684807257	69	127
149.60539682539684	149.68666666666667	71	127
149.68666666666667	149.75632653061226	72	127
149.75632653061226	149.82598639455782	71	127
149.82598639455782	149.8956462585034	72	127
149.8956462585034	149.9885260770975	71	127
149.9885260770975	150.10462585034014	69	127
150.10462585034014	150.18589569160997	71	127
150.18589569160997	150.4877551020408	76	127
150.4877551020408	150.7895918367347	74	127
150.7895918367347	151.2772335600907	71	127
152.93743764172336	153.0071201814059	71	127
153.0071201814059	153.1	72	127
153.1	153.18126984126985	71	127
153.18126984126985	153.26253968253968	72	127
153.26253968253968	153.35541950113378	71	127
153.35541950113378	153.45990929705215	69	127
153.45990929705215	153.52956916099774	71	127
153.52956916099774	153.80820861678004	76	127
153.80820861678004	154.0404081632653	74	127
154.0404081632653	154.5744671201814	66	127
154.5744671201814	154.89954648526077	69	127
154.89954648526077	155.1433560090703	67	127
155.1433560090703	156.37401360544217	62	127
156.37401360544217	156.61780045351475	67	127
156.61780045351475	156.87321995464853	71	127
156.87321995464853	157.17507936507937	74	127
157.17507936507937	157.43049886621316	79	127
157.43049886621316	157.6511111111111	83	127
157.6511111111111	157.94133786848073	86	127
157.94133786848073	158.19675736961452	83	127
158.19675736961452	158.46380952380952	79	127
158.46380952380952	158.80049886621316	78	127
158.80049886621316	159.102358276644	81	127
159.102358276644	159.47387755102042	79	127
161.19215419501134	161.2153514739229	59	127
161.2153514739229	161.28503401360544	60	127
161.28503401360544	161.3314739229025	59	127
161.3314739229025	161.41274376417235	60	127
161.41274376417235	161.52884353741496	59	127
161.52884353741496	161.63333333333333	57	127
161.63333333333333	161.71460317460318	59	127
161.71460317460318	161.98160997732427	64	127
161.98160997732427	162.26027210884354	62	127
162.26027210884354	162.852358276644	59	127
162.8639909297052	163.45609977324264	59	127
163.46768707482994	163.95532879818595	59	127
163.95532879818595	164.51260770975057	60	127
164.52421768707484	165.13954648526078	62	127
165.13954648526078	166.40503401360544	60	127
166.4166439909297	166.73011337868482	64	127
166.73011337868482	167.05519274376417	67	127
167.05519274376417	167.29897959183674	72	127
167.29897959183674	167.53120181405896	76	127
167.53120181405896	167.8098185941043	79	127
167.8098185941043	167.8330612244898	84	127
167.8330612244898	167.98399092970521	79	127
167.98399092970521	168.26263038548754	76	127
168.26263038548754	168.4715873015873	72	127
168.4715873015873	168.70380952380953	76	127
168.70380952380953	168.94761904761904	79	127
168.94761904761904	169.20303854875283	84	127
169.20303854875283	169.48167800453515	79	127
169.48167800453515	169.76031746031745	76	127
169.76031746031745	170.03895691609978	72	127
170.03895691609978	170.24793650793652	76	127
170.24793650793652	170.5265759637188	81	127
170.5265759637188	170.70072562358277	84	127
170.70072562358277	170.79360544217687	81	127
170.79360544217687	171.0838321995465	76	127
171.0838321995465	171.38569160997733	72	127
171.38569160997733	171.58308390022677	76	127
171.58308390022677	171.86172335600907	81	127
171.86172335600907	172.03587301587302	84	127
172.03587301587302	172.30290249433108	81	127
172.30290249433108	172.5467120181406	76	127
172.5467120181406	172.83696145124716	72	127
172.83696145124716	173.02269841269842	78	127
173.02269841269842	173.18526077097505	81	127
173.18526077097505	173.4522902494331	84	127
173.4522902494331	173.71931972789116	81	127
173.71931972789116	173.9282993197279	78	127
173.9282993197279	174.17210884353742	72	127
174.17210884353742	174.43913832199547	78	127
174.43913832199547	174.6481179138322	81	127
174.6481179138322	174.89192743764173	84	127
174.89192743764173	175.15895691609978	81	127
175.15895691609978	175.43759637188208	78	127
175.43759637188208	175.94843537414965	72	127
175.94843537414965	176.22707482993198	78	127
176.22707482993198	176.50571428571428	81	127
176.50571428571428	176.77274376417233	84	127
176.77274376417233	176.83079365079365	88	127
176.83079365079365	176.91204081632654	86	127
176.91204081632654	177.1907029478458	84	127
177.1907029478458	177.4228798185941	83	127
177.4228798185941	177.62027210884355	81	127
177.62027210884355	177.88730158730158	79	127
177.88730158730158	178.13111111111112	78	127
178.13111111111112	178.3400680272109	76	127
178.3400680272109	178.58390022675738	74	127
178.58390022675738	178.81609977324263	72	127
178.81609977324263	179.00183673469388	71	127
179.00183673469388	179.26888888888888	69	127
179.26888888888888	179.55913832199548	67	127
179.57074829931972	179.81455782312926	67	127
179.8261678004535	180.18607709750566	67	127
180.18607709750566	180.36022675736962	67	127
180.4298866213152	180.62725623582767	67	127
180.69691609977323	180.8710657596372	67	127
180.95233560090702	181.12648526077098	67	127
181.2077551020408	181.47478458049886	67	127
181.47478458049886	181.66052154195012	66	127
181.74181405895692	181.86950113378686	66	127
181.9043537414966	182.04367346938776	66	127
182.13655328798185	182.32231292517008	66	127
182.38034013605443	182.55451247165533	66	127
182.63575963718822	184.17990929705215	67	127
184.17990929705215	184.41210884353742	71	127
184.41210884353742	184.59786848072562	69	127
184.65591836734694	184.86489795918368	69	127
184.922947845805	185.06226757369615	69	127
185.13192743764174	185.25963718820861	69	127
185.3292970521542	185.44537414965987	69	127
185.52666666666667	185.81691609977324	69	127
185.81691609977324	185.90979591836734	74	127
185.96784580498866	186.1768253968254	74	127
186.25809523809525	186.3974149659864	74	127
186.47868480725623	186.68766439909297	74	127
186.75732426303856	186.9663038548753	74	127
187.0243537414966	187.75578231292516	74	127
187.75578231292516	188.04603174603176	76	127
188.04603174603176	188.5336507936508	74	127
191.47097505668935	191.59868480725623	74	127
191.67995464852606	191.85410430839002	74	127
191.8889342403628	192.00503401360544	74	127
192.06308390022676	192.23723356009071	74	127
192.30689342403628	192.50426303854874	74	127
192.56231292517006	193.20086167800454	74	127
193.20086167800454	193.38662131519274	76	127
193.38662131519274	193.8742403628118	74	127
196.79995464852607	196.99732426303854	59	127
197.06698412698412	197.19469387755103	59	127
197.25274376417232	197.42689342403628	59	127
197.5081632653061	197.65909297052156	59	127
197.75197278911565	197.93773242630385	59	127
198.01900226757368	198.62272108843538	61	127
198.63433106575962	199.78371882086168	61	127
198.63433106575962	199.78371882086168	64	127
199.78371882086168	199.9346485260771	56	127
199.9346485260771	200.06235827664398	57	127
200.06235827664398	200.21328798185942	59	127
200.21328798185942	200.38743764172335	61	127
200.38743764172335	200.54997732426304	62	127
200.54997732426304	200.70090702947846	63	127
200.70090702947846	200.88666666666666	64	127
200.88666666666666	201.04920634920634	66	127
201.04920634920634	201.51360544217687	66	127
201.52521541950114	202.53528344671201	67	127
202.54689342403628	202.70943310657597	64	127
202.7210430839002	202.89519274376417	56	127
202.89519274376417	202.99968253968254	57	127
202.99968253968254	203.18544217687074	59	127
203.18544217687074	203.33637188208615	61	127
203.33637188208615	203.47569160997733	62	127
203.47569160997733	203.66145124716553	63	127
203.66145124716553	203.84721088435373	64	127
203.84721088435373	204.04458049886622	66	127
204.04458049886622	204.56702947845804	66	127
204.5786394557823	206.06471655328798	57	127
204.5786394557823	206.06471655328798	67	127
209.4548299319728	209.62897959183672	61	127
209.62897959183672	209.7682993197279	62	127
209.7682993197279	209.96566893424037	64	127
209.96566893424037	210.15142857142857	62	127
210.15142857142857	210.24430839002267	74	127
210.2675283446712	210.39523809523808	74	127
210.44167800453513	210.60421768707482	62	127
210.60421768707482	210.7087074829932	74	127
210.7667573696145	210.89446712018142	74	127
210.94090702947847	211.1150566893424	62	127
211.1150566893424	211.2427664399093	74	127
211.25437641723357	211.37047619047618	74	127
211.4285260770975	211.56784580498865	55	127
211.56784580498865	211.6839455782313	67	127
211.7419954648526	211.85809523809525	67	127
211.91614512471656	212.07868480725622	55	127
212.07868480725622	212.15995464852608	67	127
212.19478458049886	212.27605442176872	67	127
212.28766439909296	212.50825396825397	55	127
212.50825396825397	212.63596371882088	67	127
212.69401360544217	212.8101133786848	67	127
212.86816326530612	213.04231292517008	55	127
213.04231292517008	213.13519274376418	67	127
213.1932426303855	213.32095238095238	67	127
213.3790022675737	213.54154195011338	59	127
213.54154195011338	213.65764172335602	66	127
213.70408163265307	213.83179138321995	66	127
213.90145124716554	214.08721088435374	59	127
214.08721088435374	214.23814058956916	66	127
214.29619047619047	214.40068027210884	66	127
214.45873015873016	214.6328798185941	59	127
214.6328798185941	214.72575963718822	66	127
214.77219954648527	214.84185941043083	66	127
214.91151927437642	215.0740589569161	64	127
215.0740589569161	215.17854875283447	67	127
215.22498866213152	215.31786848072562	67	127
215.37591836734694	215.56167800453514	64	127
215.56167800453514	215.68938775510205	67	127
215.72421768707483	215.85192743764173	67	127
215.93319727891156	216.10734693877552	64	127
216.10734693877552	216.2118367346939	67	127
216.25827664399094	216.3975963718821	67	127
216.46725623582768	216.6414058956916	64	127
216.6414058956916	216.7342857142857	67	127
216.79233560090702	216.8968253968254	67	127
216.94326530612244	217.1174149659864	64	127
217.1174149659864	217.23351473922904	67	127
217.29156462585033	217.41927437641723	67	127
217.47732426303855	217.65147392290248	57	127
217.65147392290248	217.76757369614512	67	127
217.82562358276644	217.9649433106576	67	127
218.03460317460318	218.20875283446713	57	127
218.20875283446713	218.32485260770974	67	127
218.3712925170068	218.4990022675737	67	127
218.55705215419502	218.73120181405895	57	127
218.73120181405895	218.87052154195013	67	127
218.91696145124718	219.04467120181405	67	127
219.10272108843537	219.6367800453515	57	127
219.10272108843537	219.6367800453515	67	127
222.7714739229025	223.13138321995464	78	127
223.28231292517006	223.41002267573697	79	127
223.42163265306124	224.42009070294785	81	127
224.42009070294785	224.69873015873017	83	127
224.83804988662132	225.02380952380952	85	127
225.02380952380952	225.98743764172335	86	127
225.98743764172335	226.26607709750567	74	127
226.4170068027211	226.55632653061224	75	127
226.5679365079365	226.84657596371883	76	127
226.98589569160998	227.07877551020408	75	127
227.09038548752835	227.33419501133787	76	127
227.4851247165533	227.62444444444444	78	127
227.6360544217687	228.19333333333333	78	127
228.19333333333333	229.238231292517	79	127
229.238231292517	229.5168707482993	79	127
229.6561904761905	229.7722902494331	81	127
229.78390022675737	230.81718820861678	83	127
230.8404081632653	231.14226757369613	85	127
231.36285714285714	231.51378684807256	86	127
231.52539682539683	232.48902494331065	88	127
232.48902494331065	232.7560544217687	86	127
232.7560544217687	232.93020408163267	86	127
232.93020408163267	233.06952380952382	85	127
233.09274376417233	233.24367346938774	83	127
233.27850340136055	233.46426303854875	83	127
233.46426303854875	233.61519274376417	81	127
233.65002267573695	233.77773242630386	79	127
233.8241723356009	234.0099319727891	79	127
234.0099319727891	234.14925170068028	78	127
234.19569160997733	234.3234013605442	76	127
234.36984126984126	234.52077097505668	76	127
234.52077097505668	234.63687074829932	74	127
234.68331065759637	234.81102040816327	73	127
234.85746031746032	235.04321995464852	73	127
235.04321995464852	235.19414965986394	71	127
235.240589569161	235.3915192743764	69	127
235.42634920634922	235.63532879818595	69	127
235.63532879818595	235.7746485260771	67	127
235.80947845804988	235.94879818594103	66	127
235.98362811791384	236.1809977324263	66	127
236.1809977324263	236.343537414966	64	127
236.35514739229026	236.4944671201814	62	127
236.5292970521542	236.6802267573696	62	127
236.6802267573696	236.80793650793652	61	127
236.83115646258503	236.98208616780045	59	127
237.0285260770975	237.2491156462585	59	127
237.2491156462585	237.44648526077097	71	127
237.44648526077097	237.6554648526077	70	127
237.66707482993198	237.8760544217687	70	127
237.8760544217687	238.07342403628118	61	127
238.07342403628118	238.28240362811792	70	127
238.28240362811792	238.5378231292517	70	127
238.5378231292517	238.77002267573695	61	127
238.77002267573695	238.9790022675737	69	127
238.99061224489796	239.23442176870748	69	127
239.23442176870748	239.66399092970522	61	127
239.66399092970522	240.03551020408165	67	127
240.03551020408165	241.78861678004534	62	127
240.03551020408165	241.78861678004534	65	127
241.80022675736961	243.27469387755102	57	127
241.80022675736961	243.27469387755102	65	127
243.27469387755102	244.818820861678	58	127
243.27469387755102	244.818820861678	65	127
244.818820861678	245.85210884353742	66	127
244.818820861678	246.15396825396826	57	127
245.8637188208617	246.15396825396826	67	127
246.15396825396826	246.44421768707483	61	127
246.4558276643991	247.2104761904762	62	127
247.22208616780046	247.40784580498865	74	127
247.41945578231292	247.60521541950112	75	127
247.60521541950112	247.79097505668935	79	127
247.79097505668935	247.99995464852609	77	127
248.01156462585033	248.22054421768706	74	127
248.23215419501133	248.41791383219956	74	127
248.4295238095238	248.62689342403627	75	127
248.62689342403627	248.82426303854876	72	127
248.82426303854876	248.9984126984127	65	127
249.01002267573696	249.18417233560092	72	127
249.19578231292516	249.3815419501134	74	127
249.3815419501134	249.57891156462586	77	127
249.57891156462586	249.72984126984127	75	127
249.74145124716554	249.91560090702947	72	127
249.91560090702947	250.07814058956916	72	127
250.07814058956916	250.20585034013607	74	127
250.20585034013607	250.39160997732426	70	127
250.39160997732426	250.57736961451246	65	127
250.57736961451246	250.79795918367347	62	127
250.80956916099774	251.01854875283448	63	127
251.01854875283448	251.12303854875285	67	127
251.1346485260771	251.20430839002267	65	127
251.20430839002267	251.4481179138322	62	127
251.45972789115646	253.51469387755103	74	127
251.45972789115646	253.51469387755103	62	127
253.5263038548753	254.07197278911565	61	127
254.07197278911565	254.53637188208617	67	127
254.54798185941044	255.12848072562358	64	127
255.12848072562358	255.69736961451247	64	127
255.69736961451247	256.1965986394558	61	127
256.20820861678004	256.6726077097506	64	127
256.68419501133786	257.2182766439909	76	127
257.2182766439909	257.705873015873	73	127
257.705873015873	258.2167120181406	76	127
258.2283446712018	258.73918367346937	76	127
258.73918367346937	259.09909297052155	73	127
259.09909297052155	259.3428798185941	76	127
259.3545124716553	259.64473922902494	73	127
259.65637188208615	260.23687074829934	74	127
260.2484807256236	260.91024943310657	74	127
260.92185941043084	261.4094784580499	74	127
261.4094784580499	261.60684807256234	71	127
262.46598639455783	262.95360544217687	71	127
262.95360544217687	263.18580498866214	67	127
264.5209523809524	265.03179138321997	67	127
265.03179138321997	265.519410430839	67	127
265.5310204081633	265.7864172335601	66	127
265.7980498866213	266.04185941043085	74	127
266.04185941043085	266.32049886621314	76	127
266.32049886621314	266.5875283446712	78	127
266.5875283446712	266.88938775510206	79	127
266.88938775510206	267.17963718820863	81	127
267.1912471655329	268.0039455782313	83	127
268.0039455782313	268.2245351473923	86	127
268.2245351473923	268.2941950113379	83	127
268.2941950113379	268.74696145124716	79	127
268.74696145124716	269.4551927437642	79	127
269.4551927437642	269.66414965986394	83	127
269.66414965986394	269.8731292517007	79	127
269.8731292517007	270.40721088435373	76	127
270.418820861678	271.56820861678005	71	127
271.5798185941043	272.2764172335601	73	127
272.28802721088437	272.4621768707483	74	127
272.4621768707483	272.6479365079365	73	127
272.6479365079365	272.78725623582767	71	127
272.78725623582767	272.97301587301587	69	127
272.97301587301587	273.1355555555556	71	127
273.1355555555556	273.3097052154195	73	127
273.3097052154195	273.4954648526077	74	127
273.4954648526077	273.6579818594104	73	127
273.6579818594104	273.8437641723356	71	127
273.8437641723356	273.994693877551	69	127
273.994693877551	274.1804535147392	71	127
274.1804535147392	274.36619047619047	73	127
274.36619047619047	274.56358276643994	74	127
274.56358276643994	274.70290249433106	76	127
274.70290249433106	274.88866213151925	78	127
274.88866213151925	275.05120181405897	79	127
275.05120181405897	275.1789115646259	81	127
275.1789115646259	275.3646712018141	81	127
275.3646712018141	275.51560090702947	79	127
275.51560090702947	275.71297052154193	78	127
275.71297052154193	275.87551020408165	76	127
275.87551020408165	276.1773696145125	74	127
276.4908390022676	276.8507482993197	73	127
276.4908390022676	276.8507482993197	76	127
277.2106575963719	279.77646258503404	69	127
279.7880498866213	279.9738321995465	57	127
279.9738321995465	280.14798185941044	69	127
280.14798185941044	280.27569160997734	69	127
280.27569160997734	280.46145124716554	67	127
280.46145124716554	280.58916099773245	66	127
280.58916099773245	280.77492063492065	64	127
280.77492063492065	281.0767800453515	62	127
281.3902494331066	281.6688888888889	61	127
281.3902494331066	281.6688888888889	64	127
282.4815873015873	283.00403628117914	61	127
282.4815873015873	283.00403628117914	64	127
284.09537414965985	284.47850340136057	62	127
284.09537414965985	284.47850340136057	66	127
285.558231292517	286.04585034013604	64	127
285.558231292517	286.04585034013604	73	127
287.1487755102041	287.61319727891157	66	127
287.1487755102041	287.61319727891157	74	127
287.62480725623584	287.8802267573696	80	127
287.89183673469387	288.1008163265306	81	127
288.1008163265306	288.6000453514739	83	127
288.6116553287982	289.12249433106575	81	127
289.13410430839	289.4127437641723	76	127
289.4127437641723	289.6913832199547	78	127
289.70297052154194	290.20222222222225	79	127
290.2138095238095	290.70145124716555	78	127
290.7130612244898	290.98009070294785	73	127
290.9917006802721	291.29356009070295	74	127
291.3167800453515	291.82761904761907	78	127
291.82761904761907	292.3616553287982	76	127
292.3616553287982	292.9189569160998	70	127
292.9189569160998	293.9174149659864	69	127
293.92902494331065	294.4398639455782	70	127
294.4398639455782	295.4963718820862	69	127
295.4963718820862	296.0536507936508	70	127
296.0536507936508	297.0869387755102	69	127
297.09854875283446	297.5745351473923	70	127
297.5861678004535	298.59621315192743	69	127
298.59621315192743	299.1186848072562	71	127
299.1186848072562	300.15197278911563	72	127
300.15197278911563	300.6744217687075	74	127
300.68603174603174	301.7889795918367	75	127
301.7889795918367	302.41591836734693	76	127
302.4275283446712	302.60167800453513	77	127
302.6132879818594	302.7990476190476	60	127
302.7990476190476	302.9615873015873	65	127
302.9731972789116	303.1473469387755	69	127
303.1473469387755	303.344716553288	65	127
303.344716553288	303.5188662131519	60	127
303.5188662131519	303.70460317460316	70	127
303.70460317460316	303.85555555555555	67	127
303.85555555555555	304.04131519274375	64	127
304.04131519274375	304.227052154195	69	127
304.227052154195	304.4244217687075	65	127
304.4244217687075	304.6102040816327	60	127
304.6102040816327	304.7959637188209	69	127
304.7959637188209	304.98172335600907	65	127
304.98172335600907	305.12104308390025	60	127
305.1326530612245	305.30680272108845	70	127
305.30680272108845	305.4809523809524	67	127
305.4809523809524	305.65507936507936	64	127
305.6667120181406	305.8524489795918	69	127
305.8524489795918	306.02662131519276	65	127
306.02662131519276	306.16591836734693	60	127
306.16591836734693	306.35170068027213	69	127
306.35170068027213	306.53746031746033	65	127
306.53746031746033	306.7232199546485	60	127
306.7232199546485	306.9089795918367	70	127
306.9089795918367	307.0947392290249	67	127
307.0947392290249	307.30371882086166	64	127
307.30371882086166	307.52430839002267	69	127
307.52430839002267	307.71006802721087	65	127
307.71006802721087	307.9190476190476	60	127
307.9190476190476	308.0931972789116	69	127
308.0931972789116	308.2673469387755	65	127
308.2673469387755	308.4531065759637	60	127
308.4531065759637	308.61562358276643	70	127
308.61562358276643	308.78979591836736	67	127
308.78979591836736	308.9639455782313	64	127
308.9871655328798	309.1845351473923	69	127
309.1845351473923	309.3586848072562	65	127
309.3586848072562	309.52122448979594	60	127
309.5328117913832	310.0320634920635	57	127
311.0885714285714	311.3091609977324	57	127
311.55297052154197	311.8548299319728	72	127
311.8548299319728	312.1334693877551	74	127
312.14507936507937	312.6675283446712	75	127
312.6791383219955	313.18997732426305	74	127
314.28131519274376	314.5715646258503	57	127
314.28131519274376	314.5715646258503	63	127
315.82544217687075	316.3130612244898	58	127
315.82544217687075	316.3130612244898	62	127
317.381179138322	317.9152380952381	62	127
317.381179138322	317.9152380952381	58	127
318.971746031746	319.41292517006804	58	127
318.971746031746	319.41292517006804	62	127
320.4926530612245	320.72485260770975	58	127
320.4926530612245	320.72485260770975	62	127
320.99185941043083	321.5607709750567	68	127
321.5607709750567	322.58244897959185	67	127
324.091746031746	324.6374149659864	71	127
324.6374149659864	325.7055328798186	69	127
327.2264172335601	327.6908390022676	72	127
327.70244897959185	328.7589342403628	71	127
330.3263038548753	330.8487528344671	72	127
330.8603628117914	332.9965986394558	71	127
332.9965986394558	333.182358276644	76	127
333.182358276644	333.35648526077097	78	127
333.35648526077097	333.5306575963719	80	127
333.5306575963719	333.6815873015873	81	127
333.6815873015873	333.86732426303854	80	127
333.86732426303854	334.04149659863947	78	127
334.04149659863947	334.27367346938775	76	127
334.27367346938775	334.4826530612245	71	127
334.4826530612245	336.05002267573695	71	127
336.05002267573695	336.5724716553288	83	127
336.58408163265307	337.199410430839	76	127
337.22263038548755	339.1614965986395	76	127
339.17310657596374	339.3472562358277	81	127
339.3472562358277	339.50979591836733	83	127
339.50979591836733	339.67233560090705	84	127
339.67233560090705	339.8697052154195	86	127
339.8697052154195	340.0206349206349	84	127
340.0206349206349	340.1831746031746	83	127
340.1831746031746	340.4385941043084	81	127
340.4385941043084	342.2033106575964	76	127
342.21492063492065	342.74897959183676	88	127
342.74897959183676	343.28301587301587	81	127
343.2946485260771	345.3380045351474	81	127
345.34961451247165	345.52374149659863	74	127
345.52374149659863	345.70952380952383	76	127
345.70952380952383	345.9068934240363	77	127
345.9068934240363	346.06943310657596	79	127
346.06943310657596	346.2668027210884	77	127
346.2668027210884	346.4525623582766	76	127
346.4525623582766	346.64990929705215	74	127
346.64990929705215	348.4146485260771	69	127
348.42625850340136	350.00521541950116	81	127
350.00521541950116	351.0268934240363	69	127
350.00521541950116	351.0268934240363	66	127
351.0268934240363	351.5377324263039	67	127
351.5377324263039	352.98895691609977	79	127
353.000589569161	354.0687074829932	73	127
353.000589569161	354.0687074829932	64	127
354.0803174603175	354.2660770975057	72	127
354.0803174603175	354.6027664399093	62	127
354.2660770975057	354.46344671201814	71	127
354.46344671201814	354.6027664399093	72	127
354.6027664399093	354.7885260770975	72	127
354.6027664399093	355.12521541950116	62	127
354.7885260770975	354.9742857142857	71	127
354.9742857142857	355.12521541950116	72	127
355.12521541950116	355.2877551020408	72	127
355.12521541950116	355.63605442176873	62	127
355.2877551020408	355.4851247165533	71	127
355.4851247165533	355.63605442176873	72	127
355.63605442176873	355.8334240362812	71	127
355.63605442176873	356.1933333333333	62	127
355.8334240362812	356.0191836734694	69	127
356.0191836734694	356.1933333333333	71	127
356.1933333333333	356.66931972789115	62	127
356.1933333333333	356.3326530612245	71	127
356.3326530612245	356.50680272108843	69	127
356.50680272108843	356.66931972789115	71	127
356.66931972789115	357.16857142857145	62	127
356.66931972789115	356.82027210884354	71	127
356.82027210884354	356.99442176870747	69	127
356.99442176870747	357.16857142857145	71	127
357.16857142857145	357.35433106575965	69	127
357.35433106575965	357.49362811791383	68	127
357.49362811791383	357.6561904761905	69	127
357.6561904761905	357.8419501133787	69	127
357.8419501133787	358.0160997732426	68	127
358.0160997732426	358.16702947845806	69	127
358.16702947845806	358.3760090702948	69	127
358.3760090702948	358.561768707483	68	127
358.561768707483	358.72430839002266	69	127
360.4077551020408	360.62834467120183	69	127
360.62834467120183	360.8257142857143	68	127
360.8257142857143	361.0114739229025	69	127
361.02308390022677	361.1739909297052	69	127
361.1739909297052	361.33655328798187	68	127
361.33655328798187	361.4526530612245	69	127
361.4642630385488	361.56875283446715	69	127
361.56875283446715	361.7777097505669	68	127
361.7777097505669	361.9634920634921	69	127
368.15160997732426	368.2328798185941	71	127
368.2328798185941	368.314149659864	72	127
368.314149659864	368.360589569161	71	127
368.360589569161	368.3954195011338	72	127
368.3954195011338	368.4418594104308	71	127
368.4418594104308	368.4534693877551	72	127
368.4534693877551	368.534716553288	71	127
368.534716553288	368.60439909297054	72	127
369.73056689342405	369.8002267573696	71	127
369.8002267573696	369.88149659863944	72	127
369.88149659863944	369.96274376417233	71	127
369.96274376417233	369.9975963718821	72	127
369.9975963718821	370.0324263038549	71	127
370.0324263038549	370.0672335600907	72	127
370.0672335600907	370.125306122449	71	127
370.125306122449	370.19496598639455	72	127
372.3892517006803	372.42408163265304	59	127
372.42408163265304	372.49374149659866	60	127
372.49374149659866	372.5634013605442	59	127
372.5634013605442	372.6330612244898	60	127
372.6330612244898	372.7027210884354	59	127
372.7027210884354	372.77238095238096	60	127
372.77238095238096	372.8420408163265	59	127
372.8420408163265	372.9232879818594	60	127
372.9232879818594	373.21356009070297	64	127
373.22517006802724	373.4689795918367	62	127
373.4689795918367	373.99142857142857	59	127
373.99142857142857	374.53709750566895	59	127
374.5487074829932	375.0827664399093	59	127
375.09437641723355	375.5587755102041	60	127
375.5587755102041	376.17410430839004	62	127
376.1857142857143	376.62689342403627	57	127
376.62689342403627	377.1957823129252	59	127
378.43804988662134	378.58897959183673	71	127
378.58897959183673	378.98371882086167	74	127
378.98371882086167	379.262335600907	71	127
379.262335600907	379.5758049886621	69	127
379.5758049886621	379.9125170068027	72	127
379.9125170068027	380.56267573696147	71	127
380.58589569161	380.66716553287984	71	127
380.66716553287984	380.74843537414966	72	127
380.74843537414966	380.8297052154195	71	127
380.8297052154195	380.9109750566893	72	127
380.9109750566893	380.9922448979592	71	127
380.9922448979592	381.06190476190477	72	127
381.06190476190477	381.1431746031746	71	127
381.1431746031746	381.2012244897959	72	127
381.2012244897959	381.4914739229025	76	127
381.4914739229025	381.735283446712	74	127
381.735283446712	382.0835827664399	71	127
383.8134693877551	383.8599092970521	67	127
383.8599092970521	383.9179591836735	68	127
383.9179591836735	383.98761904761903	67	127
383.98761904761903	384.05727891156465	68	127
384.05727891156465	384.11532879818594	67	127
384.11532879818594	384.1849886621315	68	127
384.1849886621315	384.2662585034014	67	127
384.2662585034014	384.33591836734695	68	127
384.33591836734695	384.5681179138322	72	127
384.5681179138322	384.8583673469388	70	127
384.8583673469388	385.46208616780046	62	127
385.46208616780046	385.7639455782313	65	127
385.7639455782313	386.05419501133787	63	127
386.05419501133787	387.4009523809524	58	127
387.41256235827666	387.7144217687075	63	127
387.7144217687075	388.03950113378687	67	127
388.03950113378687	388.2484807256236	70	127
388.2484807256236	388.56195011337866	75	127
388.56195011337866	388.59678004535147	79	127
388.59678004535147	388.8173696145125	82	127
388.8173696145125	389.0263492063492	79	127
389.0263492063492	389.32820861678005	75	127
389.32820861678005	389.6184580498866	70	127
389.6184580498866	389.8854875283447	75	127
389.8854875283447	390.0364172335601	79	127
390.0364172335601	390.18734693877553	82	127
390.18734693877553	390.431156462585	79	127
390.431156462585	390.73301587301586	75	127
390.7446258503401	391.04648526077096	70	127
391.04648526077096	391.32512471655326	75	127
391.32512471655326	391.49927437641725	79	127
391.49927437641725	391.68503401360545	82	127
391.68503401360545	391.754693877551	79	127
391.754693877551	392.0101133786848	75	127
392.0101133786848	392.27714285714285	70	127
392.27714285714285	392.55578231292515	75	127
392.55578231292515	392.8344217687075	79	127
392.8344217687075	393.00857142857143	82	127
393.00857142857143	393.298820861678	79	127
393.298820861678	393.54263038548754	75	127
393.5542403628118	393.8677097505669	70	127
393.8677097505669	394.1579591836735	75	127
394.1579591836735	394.44820861678005	79	127
394.44820861678005	394.72684807256235	82	127
394.72684807256235	394.99387755102043	87	127
394.99387755102043	395.16802721088436	87	127
395.16802721088436	395.40022675736964	86	127
395.40022675736964	395.6440362811791	84	127
395.6440362811791	395.8181859410431	82	127
395.8181859410431	396.0155555555556	80	127
396.0155555555556	396.2941950113379	79	127
396.2941950113379	396.58444444444444	77	127
396.58444444444444	396.83986394557826	75	127
396.83986394557826	397.04884353741494	74	127
397.04884353741494	397.30426303854875	72	127
397.30426303854875	397.5596825396825	70	127
397.5596825396825	397.8267120181406	69	127
397.8267120181406	398.11696145124716	67	127
398.11696145124716	398.40721088435373	67	127
398.40721088435373	398.6045804988662	65	127
398.66263038548755	398.8251700680272	65	127
398.89482993197277	399.1038095238095	65	127
399.16185941043085	399.3360090702948	65	127
399.3708390022676	399.4521088435374	65	127
399.53337868480725	399.7771882086168	65	127
399.7771882086168	399.9977777777778	70	127
400.0790476190476	400.2764172335601	70	127
400.34607709750566	400.52022675736964	70	127
400.60149659863947	400.79886621315194	70	127
400.8685260770975	401.0891156462585	70	127
401.1819954648526	401.7160544217687	70	127
401.7160544217687	402.0411337868481	72	127
402.0411337868481	402.55197278911567	70	127
407.1843537414966	407.38172335600905	65	127
407.1843537414966	407.38172335600905	74	127
407.47460317460315	407.6603628117914	74	127
407.47460317460315	407.6603628117914	65	127
407.74163265306123	407.86934240362814	74	127
407.74163265306123	407.86934240362814	65	127
407.91578231292516	408.10154195011336	74	127
407.91578231292516	408.10154195011336	65	127
408.13637188208617	408.19442176870746	65	127
408.13637188208617	408.19442176870746	74	127
408.2640816326531	408.99551020408165	67	127
408.2640816326531	408.99551020408165	75	127
408.2640816326531	408.99551020408165	58	127
408.99551020408165	409.2277097505669	77	127
409.2277097505669	409.55278911564625	75	127
412.7107029478458	412.98934240362814	65	127
412.7107029478458	412.94290249433107	74	127
413.00095238095236	413.12866213151926	74	127
413.00095238095236	413.12866213151926	65	127
413.12866213151926	413.23315192743763	74	127
413.12866213151926	413.2795918367347	65	127
413.291201814059	413.44213151927437	65	127
413.291201814059	413.40730158730156	74	127
413.44213151927437	413.6046712018141	65	127
413.44213151927437	413.58145124716555	74	127
413.6162811791383	414.39414965986396	75	127
413.6162811791383	414.39414965986396	67	127
413.6162811791383	414.39414965986396	58	127
414.39414965986396	414.67278911564625	77	127
414.67278911564625	415.1836281179138	75	127
414.67278911564625	415.1836281179138	67	127
415.1836281179138	415.81056689342404	67	127
415.1836281179138	415.81056689342404	70	127
415.8221768707483	416.08920634920634	69	127
415.8221768707483	416.08920634920634	72	127
416.1008163265306	416.58843537414964	70	127
416.1008163265306	416.58843537414964	67	127
416.58843537414964	418.3067120181406	66	127
416.58843537414964	418.3067120181406	69	127
418.3067120181406	418.4692517006803	61	127
418.4692517006803	418.63179138321993	62	127
418.63179138321993	418.8291609977324	64	127
418.8291609977324	418.9917006802721	66	127
418.9917006802721	419.1774603174603	67	127
419.1774603174603	419.32839002267576	68	127
419.32839002267576	419.4909297052154	69	127
419.4909297052154	419.6534693877551	70	127
419.6534693877551	420.1526984126984	71	127
420.16430839002265	421.104716553288	72	127
421.104716553288	421.2788662131519	69	127
421.2788662131519	421.46462585034016	61	127
421.46462585034016	421.6968253968254	62	127
421.6968253968254	421.8593650793651	64	127
421.8593650793651	422.033514739229	66	127
422.033514739229	422.18444444444447	67	127
422.18444444444447	422.3237641723356	68	127
422.3237641723356	422.4979138321996	69	127
422.4979138321996	422.6720634920635	70	127
422.6720634920635	423.1712925170068	71	127
423.1829024943311	426.18988662131517	72	127
423.1829024943311	426.18988662131517	62	127
428.1171428571429	428.26807256235827	66	127
428.26807256235827	428.4422222222222	67	127
428.4422222222222	428.5699319727891	69	127
428.5699319727891	428.7556916099773	55	127
428.7556916099773	428.8485714285714	67	127
428.8950113378685	429.03433106575966	67	127
429.0807709750567	429.2665306122449	55	127
429.2665306122449	429.3942403628118	67	127
429.4290702947846	429.49873015873015	67	127
429.54517006802723	429.71931972789116	55	127
429.71931972789116	429.87024943310655	67	127
429.90507936507936	430.0560090702948	67	127
430.09083900226756	430.241768707483	60	127
430.241768707483	430.3694784580499	67	127
430.40430839002266	430.5204081632653	67	127
430.5552380952381	430.7061678004535	60	127
430.7061678004535	430.8338775510204	67	127
430.8687074829932	430.99641723356007	67	127
431.0312471655329	431.1821768707483	60	127
431.1821768707483	431.3098866213152	67	127
431.35632653061225	431.44920634920635	67	127
431.4956462585034	431.6814058956916	60	127
431.6814058956916	431.832335600907	64	127
431.8787755102041	432.006485260771	64	127
432.052925170068	432.1458049886621	64	127
432.1922448979592	432.29673469387757	64	127
432.3315646258503	432.4592743764172	64	127
432.5057142857143	432.62181405895694	64	127
432.6450340136054	432.7495238095238	64	127
432.7959637188209	432.935283446712	64	127
432.9701133786848	433.14426303854873	64	127
433.17909297052154	433.30680272108845	64	127
433.330022675737	433.4809523809524	64	127
433.5157823129252	433.6899319727891	57	127
433.6899319727891	433.817641723356	69	127
433.8292517006803	433.9105215419501	69	127
433.93374149659866	434.11950113378686	57	127
434.11950113378686	434.25882086167803	69	127
434.3168707482993	434.4678004535147	69	127
434.52585034013606	434.6419501133787	57	127
434.6419501133787	434.7812698412698	69	127
434.8277097505669	434.9670294784581	69	127
435.02507936507936	435.21083900226756	57	127
435.21083900226756	435.3269387755102	69	127
435.3849886621315	435.47786848072565	69	127
435.52430839002267	435.61718820861677	57	127
435.61718820861677	435.7448979591837	69	127
435.79133786848075	435.9190476190476	69	127
435.9654875283447	436.1512471655329	62	127
436.1512471655329	436.29056689342406	69	127
436.3253968253968	436.4531065759637	69	127
436.464716553288	436.6388662131519	62	127
436.6388662131519	436.78979591836736	69	127
436.8246258503401	436.97555555555556	69	127
436.9987755102041	437.1845351473923	62	127
437.1845351473923	437.3354648526077	72	127
437.3586848072562	437.48639455782313	72	127
437.52122448979594	438.06689342403627	62	127
437.52122448979594	438.06689342403627	72	127
440.33083900226757	440.56303854875284	74	127
440.56303854875284	440.84167800453514	73	127
440.9113378684807	441.18997732426305	72	127
441.2712471655329	441.7356462585034	71	127
441.8981859410431	442.0839455782313	72	127
442.0839455782313	443.2101133786848	74	127
443.2217233560091	443.46553287981857	76	127
443.616462585034	443.7441723356009	78	127
443.7441723356009	444.7542403628118	79	127
444.7542403628118	445.0212698412698	79	127
445.160589569161	445.27668934240364	80	127
445.27668934240364	445.54371882086167	81	127
445.6714285714286	445.81074829931976	80	127
445.81074829931976	446.0661678004535	81	127
446.2287074829932	446.3796371882086	83	127
446.3912471655329	446.8904761904762	83	127
446.90208616780046	447.9818140589569	84	127
447.9818140589569	448.26045351473925	72	127
448.4229931972789	448.5507029478458	74	127
448.5507029478458	449.6072108843537	76	127
449.618820861678	449.95551020408163	78	127
450.1528798185941	450.2921995464853	79	127
450.2921995464853	451.162947845805	81	127
451.17455782312925	451.4648072562358	79	127
451.4648072562358	451.72022675736963	79	127
451.72022675736963	451.871156462585	78	127
451.90598639455783	452.03369614512474	88	127
452.08013605442176	452.26589569160996	88	127
452.26589569160996	452.4168253968254	86	127
452.4516553287982	452.59097505668933	84	127
452.62580498866214	452.79995464852607	84	127
452.79995464852607	452.93927437641725	83	127
452.9624943310658	453.1134240362812	81	127
453.148253968254	453.34562358276645	81	127
453.34562358276645	453.48494331065757	79	127
453.53138321995465	453.6474829931973	78	127
453.6939229024943	453.87968253968256	78	127
453.87968253968256	454.0422222222222	76	127
454.07705215419503	454.2279818594104	74	127
454.2628117913832	454.43696145124716	74	127
454.43696145124716	454.5530612244898	72	127
454.5878911564626	454.7272108843537	71	127
454.7736507936508	454.97102040816327	71	127
454.97102040816327	455.0987301587302	69	127
455.13356009070293	455.2728798185941	67	127
455.3077097505669	455.4934693877551	67	127
455.4934693877551	455.6443990929705	66	127
455.6908390022676	455.84176870748297	64	127
455.88820861678005	456.0507482993197	64	127
456.0507482993197	456.2713378684807	76	127
456.2713378684807	456.42226757369616	75	127
456.43387755102043	456.6312471655329	75	127
456.6312471655329	456.84022675736963	66	127
456.84022675736963	457.02598639455783	75	127
457.0375963718821	457.2233560090703	75	127
457.2233560090703	457.5019954648526	66	127
457.5019954648526	457.69936507936507	74	127
457.69936507936507	457.9780045351474	74	127
457.9780045351474	458.268253968254	66	127
458.268253968254	458.5817233560091	72	127
458.5817233560091	459.2551020408163	70	127
458.5817233560091	459.2551020408163	67	127
459.2667120181406	460.7179591836735	58	127
459.2667120181406	460.7179591836735	67	127
460.72956916099776	462.2040362811791	68	127
460.72956916099776	462.2040362811791	58	127
462.2040362811791	463.2605442176871	58	127
462.2040362811791	463.2605442176871	67	127
463.27215419501135	464.2590022675737	67	127
463.27215419501135	463.7249433106576	70	127
463.7249433106576	464.2590022675737	71	127
464.2590022675737	464.78145124716553	67	127
464.7930612244898	465.3851700680272	66	127
465.3967800453515	466.1514285714286	67	127
466.1630385487528	466.34879818594106	67	127
466.34879818594106	466.54616780045353	68	127
466.54616780045353	466.75514739229027	72	127
466.75514739229027	466.95251700680274	70	127
466.95251700680274	467.13827664399093	67	127
467.1498866213152	467.3472562358277	67	127
467.3472562358277	467.49818594104306	68	127
467.54462585034014	467.69555555555553	65	127
467.7419954648526	467.89292517006805	58	127
467.9277551020408	468.1483446712018	62	127
468.1483446712018	468.33410430839	63	127
468.33410430839	468.5314739229025	67	127
468.5314739229025	468.72884353741495	65	127
468.72884353741495	468.90299319727893	62	127
468.90299319727893	468.99587301587303	62	127
468.99587301587303	469.1235827664399	63	127
469.1584126984127	469.3209523809524	58	127
469.3673922902494	469.5067120181406	55	127
469.5647619047619	469.76213151927436	67	127
469.76213151927436	469.95950113378683	68	127
469.95950113378683	470.1336507936508	72	127
470.1336507936508	470.2845804988662	70	127
470.2845804988662	470.4239002267574	67	127
470.4239002267574	472.5485260770975	55	127
470.4239002267574	472.5485260770975	67	127
472.5601360544218	473.1406349206349	66	127
473.1522448979592	473.53537414965984	66	127
473.53537414965984	474.0810430839002	69	127
474.0926530612245	474.61510204081634	66	127
474.6267120181406	475.1027210884354	72	127
475.1027210884354	475.67160997732424	69	127
475.6832199546485	476.29854875283445	69	127
476.3101587301587	476.70489795918365	66	127
476.70489795918365	477.11124716553286	69	127
477.11124716553286	477.4479365079365	81	127
477.4595464852608	478.00521541950116	78	127
478.00521541950116	478.57410430839	78	127
478.57410430839	479.1778231292517	79	127
479.18943310657596	479.8395918367347	79	127
479.8395918367347	480.32721088435375	79	127
480.32721088435375	480.5942403628118	76	127
481.4998185941043	481.85972789115647	76	127
481.87133786848074	482.0687074829932	72	127
483.36902494331065	483.90308390022676	69	127
483.36902494331065	483.90308390022676	72	127
483.90308390022676	484.4371428571429	72	127
483.90308390022676	484.4371428571429	69	127
484.44875283446714	484.71578231292517	71	127
484.44875283446714	484.71578231292517	67	127
484.72739229024944	484.99442176870747	67	127
485.00603174603174	485.2498412698413	69	127
485.2498412698413	485.4704308390023	71	127
485.4820408163265	485.7839002267574	72	127
485.7839002267574	486.03931972789115	74	127
486.03931972789115	486.9100680272109	76	127
486.9100680272109	487.1074376417234	79	127
487.1074376417234	487.3164172335601	76	127
487.3164172335601	487.71115646258505	72	127
487.7227664399093	488.43097505668936	72	127
488.43097505668936	488.61673469387756	76	127
488.61673469387756	488.81410430839003	72	127
488.81410430839003	489.3829931972789	69	127
489.3829931972789	490.56721088435376	64	127
490.56721088435376	491.25219954648526	66	127
491.2638095238095	491.4960090702948	67	127
491.4960090702948	491.69337868480727	66	127
491.69337868480727	491.87913832199547	64	127
491.87913832199547	492.03006802721086	62	127
492.03006802721086	492.2158276643991	64	127
492.2158276643991	492.4015873015873	66	127
492.4015873015873	492.564126984127	67	127
492.564126984127	492.76149659863944	66	127
492.76149659863944	492.92403628117916	64	127
492.92403628117916	493.10979591836735	62	127
493.10979591836735	493.2839455782313	64	127
493.2839455782313	493.4580952380952	66	127
493.4580952380952	493.60902494331066	67	127
493.60902494331066	493.7599546485261	69	127
493.7599546485261	493.9457142857143	71	127
493.9457142857143	494.1314739229025	72	127
494.1314739229025	494.24757369614514	74	127
494.2591836734694	494.4565532879819	74	127
494.4565532879819	494.6307029478458	72	127
494.6307029478458	494.79324263038546	71	127
494.79324263038546	495.0022222222222	69	127
495.0022222222222	495.30408163265304	67	127
495.0022222222222	495.30408163265304	55	127
495.61755102040814	496.02390022675735	69	127
495.61755102040814	496.02390022675735	66	127
496.360589569161	496.9875283446712	62	127
496.9875283446712	499.1237641723356	74	127
499.13537414965987	499.2979138321995	74	127
499.3095238095238	499.4720634920635	74	127
499.4720634920635	499.63460317460317	72	127
499.63460317460317	499.82036281179137	71	127
499.82036281179137	500.00612244897957	69	127
499.82036281179137	500.00612244897957	81	127
500.00612244897957	500.3195918367347	79	127
500.6098412698413	500.8768707482993	69	127
500.6098412698413	500.8768707482993	78	127
501.68956916099773	502.15396825396823	57	127
501.68956916099773	502.15396825396823	66	127
503.34979591836736	503.75614512471657	67	127
503.34979591836736	503.75614512471657	59	127
504.7778231292517	505.30027210884356	69	127
504.7778231292517	505.30027210884356	60	127
506.4264399092971	506.89083900226757	62	127
506.4264399092971	506.89083900226757	71	127
506.89083900226757	507.1462585034014	73	127
507.1462585034014	507.4248979591837	74	127
507.4248979591837	507.9473469387755	76	127
507.9589569160998	508.411746031746	74	127
508.4233560090703	508.65555555555557	69	127
508.66716553287984	508.93419501133786	71	127
508.94580498866213	509.468253968254	72	127
509.468253968254	510.0023129251701	71	127
510.0023129251701	510.3041723356009	66	127
510.3041723356009	510.5828117913832	67	127
510.5828117913832	511.10526077097506	71	127
511.11687074829933	511.6277097505669	69	127
511.6393197278912	512.1501587301588	63	127
512.161768707483	513.2995464852607	62	127
513.2995464852607	513.8568027210885	63	127
513.8568027210885	514.8436734693878	62	127
514.8552834467121	515.342902494331	63	127
515.3545124716553	516.3645804988662	62	127
516.3761904761905	516.9218367346939	63	127
516.9218367346939	517.4907482993198	62	127
517.4907482993198	517.6648979591837	71	127
517.6648979591837	517.8506575963719	67	127
517.8506575963719	518.0480272108844	62	127
518.0480272108844	518.2337868480726	66	127
518.2337868480726	518.4195464852608	69	127
518.4195464852608	518.5472562358277	72	127
518.5472562358277	518.7214058956916	71	127
518.7214058956916	518.8839455782313	67	127
518.8839455782313	519.0580952380952	62	127
519.0580952380952	519.2554648526077	71	127
519.2554648526077	519.4412244897959	67	127
519.4412244897959	519.6153741496598	62	127
519.6153741496598	519.7895011337869	66	127
519.7895011337869	519.9636734693878	69	127
519.9636734693878	520.1262131519275	72	127
520.1262131519275	520.3119727891157	71	127
520.3119727891157	520.5093424036281	67	127
520.5093424036281	520.6951020408163	62	127
520.6951020408163	520.8808616780045	71	127
520.8808616780045	521.0666213151927	67	127
521.0666213151927	521.2175283446712	62	127
521.2175283446712	521.3917006802722	66	127
521.3917006802722	521.5658503401361	69	127
521.5658503401361	521.74	72	127
521.74	521.9373696145125	71	127
521.9373696145125	522.1115192743764	67	127
522.1115192743764	522.2972789115646	62	127
522.2972789115646	522.4714285714285	71	127
522.4714285714285	522.6339682539683	67	127
522.6339682539683	522.8313378684808	62	127
522.8313378684808	523.0054875283447	66	127
523.0054875283447	523.1912471655329	69	127
523.1912471655329	523.3653968253968	72	127
523.3653968253968	523.5279365079365	71	127
523.5279365079365	523.7136961451247	67	127
523.7136961451247	523.9110657596372	65	127
523.9110657596372	524.1084353741496	71	127
524.1084353741496	524.3174149659864	67	127
524.3174149659864	524.5263945578231	65	127
524.5263945578231	524.7353741496598	72	127
524.7353741496598	524.921133786848	67	127
524.921133786848	525.1068707482993	64	127
525.1068707482993	525.6873922902495	55	127
525.1068707482993	525.6873922902495	64	127
526.198231292517	526.7438775510204	64	127
526.7554875283447	526.9528571428572	69	127
526.9644897959183	527.2663492063492	67	127
527.2663492063492	527.8816780045352	64	127
540.1998639455783	540.281133786848	60	127
540.281133786848	540.3507936507937	62	127
540.3507936507937	540.4204535147393	60	127
540.4204535147393	540.4901133786848	62	127
540.4901133786848	540.5713832199547	60	127
540.5713832199547	540.6410204081633	62	127
540.6410204081633	540.6874829931972	60	127
540.6874829931972	540.7455328798186	62	127
540.7455328798186	541.0009523809524	65	127
541.0009523809524	541.2099319727891	63	127
541.2099319727891	541.6975510204081	60	127
543.2416780045352	543.3113151927438	61	127
543.3113151927438	543.369387755102	62	127
543.369387755102	543.4274376417234	61	127
543.4274376417234	543.4854875283447	62	127
543.4854875283447	543.543537414966	61	127
543.543537414966	543.6131972789116	62	127
543.6131972789116	543.6828571428572	61	127
543.6828571428572	543.7525170068027	62	127
543.7525170068027	543.9382766439909	66	127
543.9382766439909	544.205306122449	64	127
544.205306122449	544.6929251700681	61	127
546.1673696145125	546.2254421768707	61	127
546.2254421768707	546.2951020408163	62	127
546.2951020408163	546.364739229025	61	127
546.364739229025	546.4112018140589	62	127
546.4112018140589	546.4808616780045	61	127
546.4808616780045	546.5621315192744	62	127
546.5621315192744	546.585328798186	61	127
546.585328798186	546.6550113378685	62	127
546.6550113378685	546.9104308390023	66	127
546.9104308390023	547.119410430839	64	127
547.119410430839	547.6070068027211	61	127
549.1163265306122	549.1859863945579	62	127
549.1859863945579	549.2556462585034	64	127
549.2556462585034	549.325306122449	62	127
549.325306122449	549.4065759637189	64	127
549.4065759637189	549.4762358276644	62	127
549.4762358276644	549.5342857142857	64	127
549.5342857142857	549.5923356009071	62	127
549.5923356009071	549.6503628117914	64	127
549.6503628117914	549.9174149659864	69	127
549.9174149659864	550.1496145124717	67	127
550.1496145124717	550.5559637188209	62	127
551.577641723356	551.798231292517	69	127
551.798231292517	552.0420408163266	67	127
552.0420408163266	552.5064172335601	62	127
553.0288888888889	553.2378684807256	60	127
553.2378684807256	553.4700680272109	59	127
553.4700680272109	553.9228571428572	55	127
554.4685260770975	554.6775056689343	64	127
554.6775056689343	554.8748752834467	62	127
554.8748752834467	555.3508843537415	59	127
555.8733333333333	556.1519727891157	69	127
556.1519727891157	556.4073696145125	67	127
556.4073696145125	556.5234920634921	71	127
556.5234920634921	556.8137188208617	79	127
556.8253514739229	559.2750566893424	79	127
556.8253514739229	559.2750566893424	71	127
559.2866666666666	559.4027664399093	74	127
559.4027664399093	559.5536961451247	71	127
559.5536961451247	559.7046258503401	74	127
559.7046258503401	559.8091156462585	72	127
559.8207256235828	559.9484353741497	72	127
559.9484353741497	560.0645124716553	62	127
560.0645124716553	560.1458049886621	64	127
560.1458049886621	560.2967346938775	67	127
560.2967346938775	560.447664399093	65	127
560.447664399093	560.5985941043084	66	127
560.5985941043084	560.7495238095238	69	127
560.7495238095238	560.8772335600908	67	127
560.8772335600908	560.9701133786848	68	127
560.9701133786848	561.0861904761905	69	127
561.0861904761905	561.2139229024943	72	127
561.2139229024943	561.3067800453515	71	127
561.3067800453515	561.4461224489796	72	127
561.4461224489796	561.5738321995465	73	127
561.5738321995465	561.6899319727892	76	127
561.6899319727892	561.8060317460317	74	127
561.8060317460317	561.9453514739229	76	127
561.9453514739229	562.0730612244898	77	127
562.0730612244898	562.1775510204081	79	127
562.1775510204081	562.3168480725624	78	127
562.3168480725624	562.3865306122449	78	127
562.3865306122449	562.4561904761905	79	127
562.4561904761905	562.5258276643991	78	127
562.5258276643991	562.6071201814059	79	127
562.6071201814059	562.6767800453515	78	127
562.6767800453515	562.7580498866213	79	127
562.7580498866213	562.8277097505669	78	127
562.8277097505669	562.8973696145125	79	127
562.8973696145125	562.9321768707483	78	127
562.9321768707483	563.0134693877551	79	127
563.0134693877551	563.0715192743764	78	127
563.0715192743764	563.1411564625851	79	127
563.1411564625851	563.2224489795918	78	127
563.2224489795918	563.2921088435374	79	127
563.2921088435374	563.3733786848072	78	127
563.3733786848072	563.4430385487528	79	127
563.4430385487528	563.5010884353742	78	127
563.5010884353742	563.535918367347	79	127
563.535918367347	563.5707482993197	78	127
563.5707482993197	563.6404081632653	79	127
563.6404081632653	563.7216780045352	78	127
563.7216780045352	563.7913378684807	79	127
563.7913378684807	563.849387755102	78	127
563.849387755102	563.9074376417234	79	127
563.9074376417234	563.9654648526077	78	127
563.9654648526077	564.0467573696145	79	127
564.0467573696145	564.1164172335601	78	127
564.1164172335601	564.1976870748299	79	127
564.1976870748299	564.2673469387755	78	127
564.2673469387755	564.3486167800454	79	127
564.3486167800454	564.4182766439909	78	127
564.4182766439909	564.4531065759637	79	127
564.4531065759637	564.5111564625851	78	127
564.5111564625851	564.5924263038548	79	127
564.5924263038548	564.6388662131519	78	127
564.6388662131519	564.6969160997733	79	127
564.6969160997733	564.7665532879819	78	127
564.7665532879819	564.8362358276644	79	127
564.8362358276644	564.9175056689343	78	127
564.9175056689343	564.9871428571429	79	127
564.9871428571429	565.0684353741497	78	127
565.0684353741497	565.1380952380953	79	127
565.1380952380953	565.219365079365	78	127
565.219365079365	565.2890249433107	79	127
565.2890249433107	565.3702947845806	78	127
565.3702947845806	565.439954648526	79	127
565.439954648526	565.5212244897959	78	127
565.5212244897959	565.5908616780046	79	127
565.5908616780046	565.6605442176871	78	127
565.6605442176871	565.7185941043084	79	127
565.7185941043084	565.788231292517	78	127
565.788231292517	565.8579138321995	79	127
565.8579138321995	565.9275736961451	78	127
565.9275736961451	565.9740136054422	79	127
565.9740136054422	566.0436734693877	78	127
566.0436734693877	566.1249433106576	79	127
566.1249433106576	566.182993197279	78	127
566.182993197279	566.2526530612245	79	127
566.2526530612245	566.2990929705215	78	127
566.2990929705215	566.3803628117914	79	127
566.3803628117914	566.4500226757369	78	127
566.4500226757369	566.5080725623583	79	127
566.5080725623583	566.5429024943311	78	127
566.5429024943311	566.6125396825397	79	127
566.6125396825397	566.6938321995465	78	127
566.6938321995465	566.7634920634921	79	127
566.7634920634921	566.8447619047619	78	127
566.8447619047619	566.9028117913832	79	127
566.9028117913832	566.9840816326531	78	127
566.9840816326531	567.0537414965986	79	127
567.0537414965986	567.1350113378685	78	127
567.1350113378685	567.1930612244898	79	127
567.1930612244898	567.2743310657596	78	127
567.2743310657596	567.3439909297052	79	127
567.3439909297052	567.4020408163266	78	127
567.4020408163266	567.4833106575963	79	127
567.4833106575963	567.552970521542	78	127
567.552970521542	567.6226303854876	79	127
567.6226303854876	567.6922902494331	78	127
567.6922902494331	567.773560090703	79	127
567.773560090703	567.8431972789116	78	127
567.8431972789116	567.9360997732426	79	127
567.9360997732426	568.0057596371882	78	127
568.0057596371882	568.0754195011338	79	127
568.0754195011338	568.1450793650794	78	127
568.1450793650794	568.2263492063493	79	127
568.2263492063493	568.2960090702948	78	127
568.2960090702948	568.3656689342404	79	127
568.3656689342404	568.4469160997733	78	127
568.4469160997733	568.5165986394558	79	127
568.5165986394558	568.5862585034014	78	127
568.5862585034014	568.65589569161	79	127
568.65589569161	568.7371882086168	78	127
568.7371882086168	568.8184580498867	79	127
568.8184580498867	568.8997278911564	78	127
568.8997278911564	568.969387755102	79	127
568.969387755102	569.0506575963719	78	127
569.0506575963719	569.1203174603174	79	127
569.1203174603174	569.2131972789116	78	127
569.2131972789116	569.2828344671202	79	127
569.2828344671202	569.364126984127	78	127
569.364126984127	569.4453968253969	79	127
569.4453968253969	569.5150566893424	78	127
569.5150566893424	569.6311564625851	79	127
569.6311564625851	569.9678458049887	78	127
569.9678458049887	570.2580952380953	72	127
570.2580952380953	570.5251247165533	69	127
570.5251247165533	570.7457142857143	66	127
570.7457142857143	571.0475736961452	69	127
571.0475736961452	571.3145804988662	72	127
571.3145804988662	572.94	78	127
572.9515873015873	573.2766893424036	81	127
573.2766893424036	573.5785260770975	78	127
573.5785260770975	573.8571882086168	72	127
573.8571882086168	574.042947845805	69	127
574.042947845805	574.3331972789116	72	127
574.3331972789116	574.6002040816327	78	127
574.6002040816327	576.1675736961452	79	127
576.1791836734694	576.5274829931973	79	127
576.5274829931973	576.8409297052154	74	127
576.8409297052154	576.9802721088436	71	127
576.9802721088436	577.2705215419501	67	127
577.2705215419501	577.5143310657596	71	127
577.5143310657596	577.8045804988662	74	127
577.8045804988662	579.5344671201814	79	127
579.5344671201814	579.8363265306123	79	127
579.8363265306123	580.1149433106576	74	127
580.1149433106576	580.3007256235828	71	127
580.3007256235828	580.5329024943311	67	127
580.5329024943311	580.8347845804989	71	127
580.8347845804989	581.1134240362812	74	127
581.1134240362812	581.415283446712	79	127
581.415283446712	581.6010430839002	74	127
581.6010430839002	581.8216326530612	71	127
581.8216326530612	582.1002721088436	67	127
582.1002721088436	582.1699092970522	67	127
582.1699092970522	582.2628117913832	69	127
582.2628117913832	582.3324716553288	67	127
582.3324716553288	582.4021315192743	69	127
582.4021315192743	582.4834013605442	67	127
582.4834013605442	582.5646485260771	69	127
582.5646485260771	582.6111111111111	67	127
582.6111111111111	582.6807709750567	69	127
582.6807709750567	582.9594104308391	72	127
582.9594104308391	583.2960997732426	71	127
583.2960997732426	583.7140589569161	67	127
583.7140589569161	583.7721088435375	59	127
583.7721088435375	583.841768707483	60	127
583.841768707483	583.9114285714286	59	127
583.9114285714286	583.9926757369615	60	127
583.9926757369615	584.0739682539682	59	127
584.0739682539682	584.1204081632653	60	127
584.1204081632653	584.1900680272109	59	127
584.1900680272109	584.2597278911564	60	127
584.2597278911564	584.5267573696145	64	127
584.5267573696145	584.8169841269842	62	127
584.8169841269842	585.3626757369615	59	127
585.3742857142857	585.8386621315193	59	127
585.8386621315193	586.2450113378685	59	127
586.2450113378685	586.709433106576	60	127
586.709433106576	587.371201814059	62	127
587.3828117913832	588.1374603174603	60	127
588.1490702947846	588.2883673469388	62	127
588.2883673469388	588.4509297052155	64	127
588.4509297052155	588.5902494331066	65	127
588.5902494331066	588.7295691609977	67	127
588.7295691609977	588.8340589569161	69	127
588.8340589569161	588.9733786848072	71	127
588.9733786848072	589.1010657596372	72	127
589.1010657596372	589.2404081632653	74	127
589.2404081632653	589.3681179138322	76	127
589.3681179138322	589.4958276643991	77	127
589.4958276643991	589.6467573696145	79	127
589.6467573696145	589.7976870748299	81	127
589.7976870748299	589.9486167800453	83	127
589.9486167800453	590.1111564625851	84	127
590.1111564625851	590.459455782313	62	127
590.1111564625851	590.459455782313	78	127
590.1111564625851	590.459455782313	69	127
590.8541950113379	591.655283446712	71	127
590.8541950113379	591.655283446712	79	127
590.8541950113379	591.655283446712	55	127
590.8541950113379	591.655283446712	62	127
