# onset,offset,note,velocity
0.034058956916099774	0.28947845804988664	67	127
1.903265306122449	2.472154195011338	50	127
1.903265306122449	2.0309750566893423	59	127
1.903265306122449	2.472154195011338	43	127
1.903265306122449	2.472154195011338	47	127
1.9613151927437642	2.1006349206349206	60	127
2.0309750566893423	2.170294784580499	59	127
2.1006349206349206	2.25156462585034	60	127
2.170294784580499	2.3328344671201813	59	127
2.2863718820861676	2.4257142857142857	57	127
2.3908843537414968	2.472154195011338	59	127
2.4837641723356008	3.5634920634920637	50	127
2.4837641723356008	2.7856009070294783	64	127
2.4837641723356008	3.5634920634920637	43	127
2.4837641723356008	3.5634920634920637	47	127
2.797233560090703	3.075873015873016	62	127
3.0874829931972787	3.5634920634920637	59	127
3.5634920634920637	4.120748299319728	47	127
3.5634920634920637	4.120748299319728	59	127
3.5634920634920637	4.120748299319728	62	127
3.5634920634920637	4.120748299319728	43	127
3.5634920634920637	4.120748299319728	50	127
4.120748299319728	4.666439909297052	59	127
4.120748299319728	4.666439909297052	62	127
4.120748299319728	4.666439909297052	43	127
4.120748299319728	4.666439909297052	50	127
4.666439909297052	5.246916099773243	57	127
4.666439909297052	5.246916099773243	60	127
4.666439909297052	5.246916099773243	62	127
4.666439909297052	5.246916099773243	45	127
4.666439909297052	5.246916099773243	50	127
5.258548752834467	5.850634920634921	62	127
5.258548752834467	5.850634920634921	55	127
5.258548752834467	5.850634920634921	59	127
5.258548752834467	5.850634920634921	47	127
5.258548752834467	5.850634920634921	50	127
5.862267573696145	6.396326530612245	48	127
5.862267573696145	6.106077097505669	57	127
5.862267573696145	6.396326530612245	50	127
6.106077097505669	6.396326530612245	54	127
6.106077097505669	6.396326530612245	57	127
6.396326530612245	7.011655328798186	59	127
6.396326530612245	7.011655328798186	47	127
6.396326530612245	7.011655328798186	50	127
6.396326530612245	7.011655328798186	55	127
8.660272108843538	8.915691609977324	67	127
8.660272108843538	8.915691609977324	71	127
8.927301587301587	9.194331065759638	71	127
8.927301587301587	9.194331065759638	74	127
9.2059410430839	9.844489795918367	62	127
9.2059410430839	9.519410430839002	69	127
9.2059410430839	9.519410430839002	72	127
9.531020408163265	9.844489795918367	72	127
9.531020408163265	9.844489795918367	74	127
9.844489795918367	10.250839002267574	71	127
9.844489795918367	10.250839002267574	74	127
9.844489795918367	10.250839002267574	67	127
10.262448979591836	10.390136054421768	71	127
10.332108843537416	10.494648526077098	72	127
10.401768707482994	10.564308390022676	71	127
10.50625850340136	10.633968253968254	72	127
10.575918367346938	10.703628117913832	71	127
10.668798185941043	10.831337868480725	69	127
10.784897959183674	10.900975056689342	71	127
10.912607709750567	11.19124716553288	76	127
11.19124716553288	11.446666666666667	74	127
11.446666666666667	11.99233560090703	71	127
12.027165532879819	12.561224489795919	43	127
12.027165532879819	12.561224489795919	47	127
12.027165532879819	12.561224489795919	50	127
12.572834467120181	13.745442176870748	47	127
12.572834467120181	13.745442176870748	50	127
12.572834467120181	13.745442176870748	43	127
13.745442176870748	14.314331065759637	43	127
13.745442176870748	13.919591836734694	71	127
13.745442176870748	14.314331065759637	55	127
13.815102040816326	13.989251700680272	72	127
13.919591836734694	14.047301587301588	71	127
13.989251700680272	14.105351473922903	72	127
14.047301587301588	14.175011337868481	71	127
14.128571428571428	14.267891156462586	69	127
14.221451247165533	14.314331065759637	71	127
14.314331065759637	14.732290249433106	55	127
14.314331065759637	14.732290249433106	43	127
14.314331065759637	14.47687074829932	76	127
14.488480725623583	14.732290249433106	74	127
14.74390022675737	15.277959183673469	65	127
14.74390022675737	15.277959183673469	45	127
14.74390022675737	15.277959183673469	55	127
15.289569160997733	15.603038548752835	69	127
15.289569160997733	15.881678004535148	47	127
15.289569160997733	15.881678004535148	55	127
15.603038548752835	15.881678004535148	67	127
15.89328798185941	17.031043083900226	64	127
15.89328798185941	17.031043083900226	48	127
15.89328798185941	17.031043083900226	55	127
17.042675736961453	17.321315192743764	67	127
17.332925170068027	17.61156462585034	72	127
17.623174603174604	17.890204081632653	76	127
17.890204081632653	18.122403628117915	79	127
18.122403628117915	18.354603174603174	84	127
18.354603174603174	18.621609977324262	88	127
18.621609977324262	18.83061224489796	84	127
18.83061224489796	18.981541950113378	79	127
18.981541950113378	19.260181405895693	76	127
19.260181405895693	19.48077097505669	79	127
19.49238095238095	19.75938775510204	84	127
19.771020408163267	19.98	88	127
19.991609977324263	20.24702947845805	84	127
19.991609977324263	20.24702947845805	60	127
20.258639455782312	20.54888888888889	79	127
20.258639455782312	20.54888888888889	64	127
20.560498866213152	20.804308390022676	76	127
20.560498866213152	20.804308390022676	69	127
20.81591836734694	21.071337868480725	81	127
20.81591836734694	21.071337868480725	72	127
21.082947845804988	21.349954648526076	84	127
21.082947845804988	21.349954648526076	76	127
21.349954648526076	21.535714285714285	88	127
21.349954648526076	21.535714285714285	81	127
21.535714285714285	21.651836734693877	84	127
21.535714285714285	21.651836734693877	76	127
21.651836734693877	21.907256235827663	81	127
21.651836734693877	21.907256235827663	72	127
21.907256235827663	22.19750566893424	76	127
21.907256235827663	22.19750566893424	69	127
22.19750566893424	22.476145124716552	81	127
22.19750566893424	22.476145124716552	72	127
22.476145124716552	22.66190476190476	84	127
22.476145124716552	22.66190476190476	76	127
22.673514739229024	22.92891156462585	88	127
22.673514739229024	22.92891156462585	81	127
22.940544217687076	23.04503401360544	84	127
22.940544217687076	23.04503401360544	76	127
23.04503401360544	23.31204081632653	81	127
23.04503401360544	23.31204081632653	72	127
23.323673469387757	23.590702947845806	78	127
23.323673469387757	23.590702947845806	69	127
23.602312925170068	23.869342403628117	81	127
23.602312925170068	23.869342403628117	72	127
23.88095238095238	24.06671201814059	84	127
23.88095238095238	24.06671201814059	78	127
24.06671201814059	24.275691609977326	90	127
24.06671201814059	24.275691609977326	81	127
24.275691609977326	24.531111111111112	84	127
24.275691609977326	24.531111111111112	78	127
24.531111111111112	24.75170068027211	81	127
24.531111111111112	24.75170068027211	72	127
24.75170068027211	25.030340136054424	78	127
24.75170068027211	25.030340136054424	69	127
25.030340136054424	25.297369614512473	81	127
25.030340136054424	25.297369614512473	72	127
25.297369614512473	25.44829931972789	84	127
25.297369614512473	25.44829931972789	78	127
25.44829931972789	25.66888888888889	81	127
25.44829931972789	25.66888888888889	90	127
25.66888888888889	25.889478458049886	78	127
25.66888888888889	25.889478458049886	84	127
25.90108843537415	26.144897959183673	81	127
25.90108843537415	26.144897959183673	72	127
26.156507936507936	26.841496598639456	78	127
26.156507936507936	26.841496598639456	69	127
26.853106575963718	27.154965986394558	81	127
26.853106575963718	27.154965986394558	72	127
27.16657596371882	27.36394557823129	84	127
27.16657596371882	27.36394557823129	78	127
27.375555555555554	27.58453514739229	81	127
27.375555555555554	27.58453514739229	90	127
27.596145124716553	27.630975056689344	93	127
27.596145124716553	27.630975056689344	84	127
27.630975056689344	27.73546485260771	91	127
27.630975056689344	27.73546485260771	83	127
27.73546485260771	28.00249433106576	90	127
27.73546485260771	28.00249433106576	81	127
28.00249433106576	28.165034013605442	88	127
28.00249433106576	28.165034013605442	79	127
28.165034013605442	28.397233560090704	86	127
28.165034013605442	28.397233560090704	78	127
28.397233560090704	28.629433106575963	84	127
28.397233560090704	28.629433106575963	76	127
28.629433106575963	28.896462585034012	83	127
28.629433106575963	28.896462585034012	74	127
28.896462585034012	29.163492063492065	81	127
28.896462585034012	29.163492063492065	72	127
29.175102040816327	29.360861678004536	79	127
29.175102040816327	29.360861678004536	71	127
29.3724716553288	29.581451247165532	78	127
29.3724716553288	29.581451247165532	69	127
29.593061224489794	29.80204081632653	76	127
29.593061224489794	29.80204081632653	67	127
29.813650793650794	30.05746031746032	74	127
29.813650793650794	30.05746031746032	66	127
30.06907029478458	30.359319727891158	72	127
30.06907029478458	30.359319727891158	64	127
30.359319727891158	30.60312925170068	62	127
30.359319727891158	30.60312925170068	71	127
30.614739229024945	30.881768707482994	71	127
30.614739229024945	31.113968253968252	61	127
30.614739229024945	31.113968253968252	64	127
30.893378684807256	31.113968253968252	69	127
31.113968253968252	31.36938775510204	69	127
31.113968253968252	31.36938775510204	61	127
31.113968253968252	31.36938775510204	64	127
31.380997732426305	31.6015873015873	69	127
31.380997732426305	31.6015873015873	61	127
31.380997732426305	31.6015873015873	64	127
31.613197278911564	31.845396825396826	69	127
31.613197278911564	31.845396825396826	61	127
31.613197278911564	31.845396825396826	64	127
31.857006802721088	32.07759637188209	69	127
31.857006802721088	32.07759637188209	61	127
31.857006802721088	32.07759637188209	64	127
32.07759637188209	32.274965986394555	69	127
32.07759637188209	32.274965986394555	61	127
32.07759637188209	32.274965986394555	64	127
32.274965986394555	32.46072562358277	74	127
32.274965986394555	32.46072562358277	60	127
32.274965986394555	32.46072562358277	62	127
32.46072562358277	32.72775510204082	74	127
32.46072562358277	32.72775510204082	60	127
32.46072562358277	32.72775510204082	62	127
32.72775510204082	32.983174603174604	74	127
32.72775510204082	32.983174603174604	60	127
32.72775510204082	32.983174603174604	62	127
32.983174603174604	33.296621315192745	74	127
32.983174603174604	33.296621315192745	60	127
32.983174603174604	33.296621315192745	62	127
33.319863945578234	33.644943310657595	74	127
33.319863945578234	33.644943310657595	60	127
33.319863945578234	33.644943310657595	62	127
33.644943310657595	34.248662131519275	74	127
33.644943310657595	34.968480725623586	59	127
33.644943310657595	34.968480725623586	62	127
34.248662131519275	34.446009070294785	76	127
34.446009070294785	34.968480725623586	74	127
34.98009070294785	35.52575963718821	37	127
34.98009070294785	35.52575963718821	64	127
34.98009070294785	35.52575963718821	67	127
34.98009070294785	35.52575963718821	57	127
34.98009070294785	35.52575963718821	49	127
35.53736961451247	35.80439909297052	57	127
35.53736961451247	35.80439909297052	64	127
35.53736961451247	35.80439909297052	67	127
35.53736961451247	35.80439909297052	37	127
35.53736961451247	35.80439909297052	49	127
35.81600907029478	35.99015873015873	57	127
35.81600907029478	35.99015873015873	64	127
35.81600907029478	35.99015873015873	67	127
35.81600907029478	35.99015873015873	37	127
35.81600907029478	35.99015873015873	49	127
35.99015873015873	36.17591836734694	57	127
35.99015873015873	36.17591836734694	64	127
35.99015873015873	36.17591836734694	67	127
35.99015873015873	36.17591836734694	37	127
35.99015873015873	36.17591836734694	49	127
36.17591836734694	36.41972789115646	57	127
36.17591836734694	36.41972789115646	64	127
36.17591836734694	36.41972789115646	67	127
36.17591836734694	36.41972789115646	37	127
36.17591836734694	36.41972789115646	49	127
36.41972789115646	36.68675736961451	57	127
36.41972789115646	36.68675736961451	64	127
36.41972789115646	36.68675736961451	67	127
36.41972789115646	36.68675736961451	36	127
36.41972789115646	36.68675736961451	48	127
36.68675736961451	36.9421768707483	57	127
36.68675736961451	36.9421768707483	62	127
36.68675736961451	36.9421768707483	66	127
36.68675736961451	36.9421768707483	36	127
36.68675736961451	36.9421768707483	48	127
36.9421768707483	37.18598639455782	57	127
36.9421768707483	37.18598639455782	62	127
36.9421768707483	37.18598639455782	66	127
36.9421768707483	37.18598639455782	36	127
36.9421768707483	37.18598639455782	48	127
37.18598639455782	37.39496598639456	57	127
37.18598639455782	37.39496598639456	62	127
37.18598639455782	37.39496598639456	66	127
37.18598639455782	37.39496598639456	36	127
37.18598639455782	37.39496598639456	48	127
37.39496598639456	37.615532879818595	57	127
37.39496598639456	37.615532879818595	62	127
37.39496598639456	37.615532879818595	66	127
37.39496598639456	37.615532879818595	36	127
37.39496598639456	37.615532879818595	48	127
37.615532879818595	37.92902494331066	57	127
37.615532879818595	37.92902494331066	62	127
37.615532879818595	37.92902494331066	66	127
37.615532879818595	37.92902494331066	36	127
37.615532879818595	37.92902494331066	48	127
37.94063492063492	39.380272108843535	55	127
37.94063492063492	39.380272108843535	35	127
37.94063492063492	39.380272108843535	47	127
37.94063492063492	39.380272108843535	62	127
37.94063492063492	39.380272108843535	67	127
39.39185941043084	39.983990929705215	50	127
39.39185941043084	39.983990929705215	57	127
39.39185941043084	39.983990929705215	60	127
39.68213151927438	39.983990929705215	69	127
39.68213151927438	39.983990929705215	72	127
39.68213151927438	39.983990929705215	78	127
39.99560090702948	40.28585034013606	69	127
39.99560090702948	40.28585034013606	72	127
39.99560090702948	40.28585034013606	78	127
40.28585034013606	40.41356009070295	69	127
40.28585034013606	40.41356009070295	72	127
40.28585034013606	40.41356009070295	78	127
40.425170068027214	40.587709750566894	69	127
40.425170068027214	40.587709750566894	72	127
40.425170068027214	40.587709750566894	78	127
40.587709750566894	40.76185941043084	69	127
40.587709750566894	40.76185941043084	72	127
40.587709750566894	40.76185941043084	78	127
40.7734693877551	41.42360544217687	67	127
40.7734693877551	41.42360544217687	71	127
40.7734693877551	41.42360544217687	79	127
41.028888888888886	41.23786848072562	59	127
41.028888888888886	41.23786848072562	55	127
41.249478458049886	41.42360544217687	55	127
41.249478458049886	41.42360544217687	59	127
41.42360544217687	41.67902494331066	72	127
41.42360544217687	41.67902494331066	69	127
41.42360544217687	41.67902494331066	81	127
41.42360544217687	41.67902494331066	55	127
41.42360544217687	41.67902494331066	59	127
41.690657596371885	41.93446712018141	55	127
41.690657596371885	41.93446712018141	59	127
41.690657596371885	42.189886621315196	71	127
41.690657596371885	42.189886621315196	67	127
41.690657596371885	42.189886621315196	79	127
41.93446712018141	42.189886621315196	55	127
41.93446712018141	42.189886621315196	59	127
42.20149659863946	42.74716553287982	60	127
42.20149659863946	42.74716553287982	66	127
42.20149659863946	42.74716553287982	69	127
42.20149659863946	42.74716553287982	62	127
43.536643990929704	43.93138321995465	67	127
43.536643990929704	43.93138321995465	71	127
43.78045351473923	43.93138321995465	62	127
43.78045351473923	43.93138321995465	59	127
43.93138321995465	44.198412698412696	62	127
43.93138321995465	44.198412698412696	59	127
44.198412698412696	44.43061224489796	62	127
44.198412698412696	44.43061224489796	59	127
44.43061224489796	44.69764172335601	59	127
44.43061224489796	44.69764172335601	62	127
44.69764172335601	44.84854875283447	59	127
44.69764172335601	44.84854875283447	62	127
44.860181405895695	45.34777777777778	60	127
44.860181405895695	45.34777777777778	50	127
44.860181405895695	45.34777777777778	57	127
45.103968253968254	45.34777777777778	78	127
45.103968253968254	45.34777777777778	72	127
45.103968253968254	45.34777777777778	69	127
45.359410430839006	45.58	69	127
45.359410430839006	45.58	72	127
45.359410430839006	45.58	78	127
45.58	45.800589569161	72	127
45.58	45.800589569161	69	127
45.58	45.800589569161	78	127
45.81219954648526	46.021179138322	69	127
45.81219954648526	46.021179138322	72	127
45.81219954648526	46.021179138322	78	127
46.021179138322	46.2069387755102	69	127
46.021179138322	46.2069387755102	72	127
46.021179138322	46.2069387755102	78	127
46.2069387755102	46.79904761904762	71	127
46.2069387755102	46.79904761904762	67	127
46.2069387755102	46.79904761904762	79	127
46.439138321995465	46.61326530612245	55	127
46.439138321995465	46.61326530612245	59	127
46.61326530612245	46.79904761904762	55	127
46.61326530612245	46.79904761904762	59	127
46.81065759637188	47.042857142857144	72	127
46.81065759637188	47.042857142857144	69	127
46.81065759637188	47.042857142857144	81	127
46.81065759637188	47.042857142857144	55	127
46.81065759637188	47.042857142857144	59	127
47.042857142857144	47.22861678004535	55	127
47.042857142857144	47.22861678004535	59	127
47.042857142857144	47.4956462585034	71	127
47.042857142857144	47.4956462585034	67	127
47.042857142857144	47.4956462585034	79	127
47.24022675736961	47.4956462585034	55	127
47.24022675736961	47.4956462585034	59	127
47.4956462585034	48.192244897959185	77	127
47.4956462585034	48.192244897959185	74	127
47.76267573696145	47.94843537414966	56	127
47.76267573696145	47.94843537414966	44	127
47.94843537414966	48.192244897959185	44	127
47.94843537414966	48.192244897959185	56	127
48.20385487528345	48.459274376417234	76	127
48.20385487528345	48.459274376417234	79	127
48.20385487528345	48.459274376417234	56	127
48.20385487528345	48.459274376417234	44	127
48.459274376417234	48.679863945578234	44	127
48.459274376417234	48.679863945578234	56	127
48.459274376417234	48.97011337868481	74	127
48.459274376417234	48.97011337868481	77	127
48.679863945578234	48.97011337868481	56	127
48.679863945578234	48.97011337868481	44	127
48.97011337868481	49.26036281179138	45	127
48.97011337868481	49.179092970521545	73	127
48.97011337868481	49.179092970521545	76	127
49.179092970521545	49.35324263038549	68	127
49.26036281179138	49.52739229024943	57	127
49.35324263038549	49.52739229024943	69	127
49.52739229024943	49.70154195011338	71	127
49.52739229024943	49.78281179138322	45	127
49.70154195011338	49.86408163265306	73	127
49.78281179138322	50.02662131519274	57	127
49.86408163265306	50.02662131519274	74	127
50.02662131519274	50.23560090702948	45	127
50.02662131519274	50.154331065759635	75	127
50.1659410430839	50.31687074829932	76	127
50.24721088435374	50.46780045351474	57	127
50.328480725623585	50.46780045351474	78	127
50.479410430839	50.72321995464853	45	127
50.479410430839	50.978639455782314	78	127
50.73482993197279	50.978639455782314	57	127
50.99024943310658	51.257278911564626	45	127
50.99024943310658	52.03514739229025	79	127
51.26888888888889	51.51269841269841	57	127
51.524308390022675	51.7681179138322	45	127
51.77972789115646	52.03514739229025	57	127
52.03514739229025	52.290566893424035	45	127
52.03514739229025	52.20929705215419	76	127
52.20929705215419	52.38344671201814	68	127
52.290566893424035	52.56920634920635	57	127
52.38344671201814	52.56920634920635	69	127
52.56920634920635	52.7433560090703	71	127
52.56920634920635	52.836235827664396	45	127
52.7433560090703	52.9291156462585	73	127
52.836235827664396	53.10326530612245	57	127
52.9291156462585	53.10326530612245	74	127
53.10326530612245	53.381904761904764	45	127
53.10326530612245	53.28902494331066	75	127
53.28902494331066	53.47478458049886	76	127
53.381904761904764	53.602494331065756	57	127
53.47478458049886	53.602494331065756	78	127
53.602494331065756	53.85791383219954	45	127
53.602494331065756	54.13655328798186	78	127
53.86952380952381	54.13655328798186	57	127
54.148163265306124	55.146621315192746	79	127
54.148163265306124	54.368752834467124	45	127
54.380362811791386	54.60095238095238	57	127
54.61256235827664	54.8795918367347	45	127
54.89120181405896	55.146621315192746	57	127
55.15823129251701	55.32077097505669	76	127
55.15823129251701	55.413650793650795	45	127
55.33238095238095	55.48331065759637	68	127
55.413650793650795	55.622630385487525	57	127
55.48331065759637	55.622630385487525	69	127
55.622630385487525	55.901269841269844	45	127
55.622630385487525	55.80839002267574	71	127
55.80839002267574	55.99414965986394	73	127
55.901269841269844	56.179909297052156	55	127
55.99414965986394	56.179909297052156	74	127
56.179909297052156	56.36566893424036	75	127
56.179909297052156	56.45854875283447	45	127
56.36566893424036	56.50498866213152	76	127
56.45854875283447	56.62108843537415	52	127
56.50498866213152	56.62108843537415	78	127
56.62108843537415	56.772018140589566	79	127
56.62108843537415	56.85328798185941	45	127
56.772018140589566	56.93455782312925	78	127
56.85328798185941	57.108707482993196	45	127
56.93455782312925	57.108707482993196	76	127
57.12031746031746	57.29446712018141	83	127
57.12031746031746	57.29446712018141	33	127
57.30607709750567	57.44539682539683	81	127
57.30607709750567	57.44539682539683	35	127
57.45700680272109	57.60793650793651	79	127
57.45700680272109	57.60793650793651	37	127
57.61954648526077	57.77047619047619	78	127
57.61954648526077	57.77047619047619	38	127
57.78208616780045	57.92140589569161	76	127
57.78208616780045	57.92140589569161	40	127
57.933015873015876	58.13038548752834	74	127
57.933015873015876	58.13038548752834	42	127
58.141995464852606	58.292925170068024	73	127
58.141995464852606	58.292925170068024	43	127
58.30453514739229	58.467074829931974	71	127
58.30453514739229	58.467074829931974	45	127
58.478684807256236	58.61800453514739	47	127
58.478684807256236	58.61800453514739	69	127
58.629614512471655	58.76893424036281	49	127
58.629614512471655	58.76893424036281	67	127
58.76893424036281	58.91986394557823	66	127
58.76893424036281	58.91986394557823	50	127
58.91986394557823	59.082403628117916	64	127
58.91986394557823	59.082403628117916	52	127
59.082403628117916	59.21011337868481	62	127
59.082403628117916	59.21011337868481	54	127
59.21011337868481	59.36104308390023	61	127
59.21011337868481	59.36104308390023	55	127
59.37265306122449	59.53519274376417	59	127
59.37265306122449	59.53519274376417	56	127
59.53519274376417	59.69773242630386	57	127
59.69773242630386	59.86027210884354	61	127
59.86027210884354	60.01120181405896	64	127
60.02281179138322	60.15052154195011	69	127
60.02281179138322	60.15052154195011	57	127
60.15052154195011	60.31306122448979	73	127
60.15052154195011	60.31306122448979	61	127
60.31306122448979	60.44077097505669	76	127
60.31306122448979	60.44077097505669	64	127
60.45238095238095	60.61492063492064	81	127
60.45238095238095	60.61492063492064	69	127
60.6265306122449	60.77746031746032	79	127
60.6265306122449	60.77746031746032	71	127
60.77746031746032	60.96321995464853	73	127
60.77746031746032	60.96321995464853	76	127
60.96321995464853	61.2534693877551	78	127
60.96321995464853	61.2534693877551	74	127
61.29990929705215	61.416009070294784	79	127
61.29990929705215	61.416009070294784	76	127
61.42761904761905	62.402857142857144	81	127
61.42761904761905	62.402857142857144	78	127
62.402857142857144	62.635056689342406	83	127
62.402857142857144	62.635056689342406	79	127
62.402857142857144	62.635056689342406	67	127
62.402857142857144	62.635056689342406	71	127
62.7627664399093	62.87886621315193	81	127
62.7627664399093	62.87886621315193	85	127
62.7627664399093	62.87886621315193	69	127
62.7627664399093	62.87886621315193	73	127
62.87886621315193	63.85410430839002	83	127
62.87886621315193	63.85410430839002	86	127
62.87886621315193	63.85410430839002	71	127
62.87886621315193	63.85410430839002	74	127
63.86571428571428	64.09791383219955	67	127
63.86571428571428	64.09791383219955	74	127
63.86571428571428	64.09791383219955	71	127
64.2372335600907	64.34172335600907	75	127
64.2372335600907	64.34172335600907	67	127
64.2372335600907	64.34172335600907	71	127
64.35333333333334	64.59714285714286	76	127
64.35333333333334	64.59714285714286	66	127
64.35333333333334	64.59714285714286	69	127
64.70163265306122	64.8061224489796	75	127
64.70163265306122	64.8061224489796	66	127
64.70163265306122	64.8061224489796	69	127
64.81770975056689	65.07312925170068	76	127
64.81770975056689	65.07312925170068	66	127
64.81770975056689	65.07312925170068	69	127
65.2124716553288	65.34018140589569	78	127
65.2124716553288	65.34018140589569	75	127
65.2124716553288	65.34018140589569	66	127
65.2124716553288	65.34018140589569	69	127
65.34018140589569	65.81616780045351	69	127
65.34018140589569	65.81616780045351	78	127
65.34018140589569	65.81616780045351	66	127
65.34018140589569	65.81616780045351	75	127
65.81616780045351	66.77981859410431	76	127
65.81616780045351	66.77981859410431	64	127
65.81616780045351	66.77981859410431	79	127
65.81616780045351	66.77981859410431	67	127
66.79142857142857	67.04684807256236	76	127
66.79142857142857	67.04684807256236	64	127
66.79142857142857	67.04684807256236	67	127
66.79142857142857	67.04684807256236	79	127
67.18616780045352	67.31387755102041	66	127
67.18616780045352	67.31387755102041	78	127
67.18616780045352	67.31387755102041	81	127
67.18616780045352	67.31387755102041	69	127
67.32548752834467	68.27750566893424	79	127
67.32548752834467	68.27750566893424	71	127
67.32548752834467	68.27750566893424	67	127
67.32548752834467	68.27750566893424	83	127
68.28911564625851	68.52131519274377	73	127
68.28911564625851	68.52131519274377	85	127
68.28911564625851	68.52131519274377	81	127
68.28911564625851	68.52131519274377	69	127
68.66063492063492	68.78834467120181	83	127
68.66063492063492	68.78834467120181	86	127
68.66063492063492	68.78834467120181	71	127
68.66063492063492	68.78834467120181	74	127
68.78834467120181	69.62424036281179	76	127
68.78834467120181	69.62424036281179	88	127
68.78834467120181	69.62424036281179	85	127
68.78834467120181	69.62424036281179	73	127
69.62424036281179	69.9028798185941	83	127
69.62424036281179	69.9028798185941	86	127
69.62424036281179	69.9028798185941	71	127
69.62424036281179	69.9028798185941	74	127
69.9028798185941	70.13507936507936	73	127
69.9028798185941	70.04222222222222	86	127
69.9028798185941	70.13507936507936	69	127
70.04222222222222	70.20476190476191	85	127
70.13507936507936	70.36730158730158	71	127
70.13507936507936	70.36730158730158	67	127
70.21637188208616	70.36730158730158	83	127
70.37891156462585	70.5530612244898	83	127
70.37891156462585	70.65755102040816	66	127
70.37891156462585	70.65755102040816	69	127
70.56467120181406	70.75043083900226	81	127
70.66916099773243	70.91297052154195	64	127
70.66916099773243	70.91297052154195	67	127
70.76204081632653	70.91297052154195	79	127
70.92458049886622	71.15675736961451	62	127
70.92458049886622	71.06390022675737	79	127
70.92458049886622	71.15675736961451	66	127
71.07551020408164	71.2728798185941	78	127
71.18	71.4354195011338	61	127
71.18	71.4354195011338	64	127
71.2844671201814	71.4354195011338	76	127
71.44702947845805	71.7140589569161	59	127
71.44702947845805	71.62117913832199	76	127
71.44702947845805	71.7140589569161	62	127
71.63278911564626	71.78371882086168	74	127
71.72566893424036	72.00430839002267	57	127
71.72566893424036	72.00430839002267	61	127
71.79530612244898	72.00430839002267	73	127
72.00430839002267	72.23650793650793	61	127
72.00430839002267	72.23650793650793	73	127
72.00430839002267	72.23650793650793	57	127
72.2481179138322	72.4687074829932	71	127
72.2481179138322	72.4687074829932	55	127
72.2481179138322	72.4687074829932	59	127
72.4687074829932	72.73573696145125	69	127
72.4687074829932	72.73573696145125	54	127
72.4687074829932	72.73573696145125	57	127
72.73573696145125	73.01437641723356	54	127
72.73573696145125	73.01437641723356	69	127
72.73573696145125	73.01437641723356	57	127
73.01437641723356	73.29301587301588	53	127
73.01437641723356	73.29301587301588	56	127
73.01437641723356	73.29301587301588	68	127
73.30460317460317	73.54843537414966	67	127
73.30460317460317	73.54843537414966	52	127
73.30460317460317	73.54843537414966	55	127
73.54843537414966	74.18698412698413	54	127
73.54843537414966	73.78063492063492	57	127
73.54843537414966	74.18698412698413	50	127
73.78063492063492	74.00122448979592	66	127
74.01283446712019	74.18698412698413	62	127
74.19857142857143	74.37274376417234	57	127
74.3843537414966	74.53528344671201	66	127
74.54689342403628	74.72104308390023	62	127
74.7326530612245	74.88358276643991	57	127
74.89519274376417	75.04612244897959	66	127
75.04612244897959	75.197052154195	62	127
75.20866213151928	75.77755102040817	43	127
75.20866213151928	75.38281179138322	55	127
75.39442176870749	75.56857142857143	67	127
75.58018140589569	75.77755102040817	62	127
75.78916099773242	75.97492063492064	59	127
75.97492063492064	76.14907029478458	67	127
76.14907029478458	76.32321995464852	64	127
76.32321995464852	76.45092970521542	59	127
76.45092970521542	76.63668934240363	71	127
76.63668934240363	76.77600907029479	67	127
76.77600907029479	77.07786848072563	43	127
76.77600907029479	76.97337868480726	59	127
76.77600907029479	77.07786848072563	55	127
76.97337868480726	77.182358276644	71	127
77.182358276644	77.36809523809524	67	127
77.36809523809524	77.54226757369615	59	127
77.36809523809524	77.61192743764173	47	127
77.54226757369615	77.70480725623582	69	127
77.7164172335601	77.85573696145124	66	127
77.86734693877551	78.01827664399093	59	127
77.86734693877551	78.11115646258503	47	127
78.0298866213152	78.20403628117914	69	127
78.2156462585034	78.38977324263038	66	127
78.40140589569161	78.57555555555555	59	127
78.40140589569161	78.66843537414967	40	127
78.40140589569161	78.66843537414967	52	127
78.58716553287982	78.73809523809524	69	127
78.7497052154195	78.93546485260771	66	127
78.94707482993198	79.12122448979592	59	127
78.94707482993198	79.22571428571429	40	127
78.94707482993198	79.22571428571429	52	127
79.13283446712018	79.31859410430839	67	127
79.33020408163266	79.48113378684808	64	127
79.48113378684808	79.66687074829932	59	127
79.66687074829932	79.74816326530612	67	127
79.74816326530612	79.93392290249433	64	127
79.93392290249433	80.11968253968254	59	127
79.93392290249433	80.20095238095239	40	127
79.93392290249433	80.20095238095239	52	127
80.11968253968254	80.30541950113378	67	127
80.30541950113378	80.50281179138322	64	127
80.50281179138322	80.67696145124717	59	127
80.67696145124717	80.82789115646258	67	127
80.82789115646258	81.0136507936508	64	127
81.0136507936508	81.18780045351474	59	127
81.19941043083901	81.37356009070295	67	127
81.38517006802721	81.5592970521542	64	127
81.57092970521542	82.23269841269841	45	127
81.57092970521542	81.74507936507936	55	127
81.57092970521542	82.23269841269841	33	127
81.75668934240363	81.93083900226758	67	127
81.94242630385487	82.23269841269841	64	127
82.31396825396826	82.90607709750567	33	127
82.31396825396826	82.90607709750567	45	127
82.31396825396826	83.16149659863946	55	127
82.31396825396826	83.16149659863946	61	127
82.31396825396826	83.16149659863946	64	127
82.31396825396826	83.16149659863946	67	127
83.16149659863946	83.44013605442177	78	127
83.16149659863946	83.44013605442177	81	127
83.44013605442177	83.71877551020408	79	127
83.44013605442177	83.71877551020408	76	127
83.71877551020408	83.9974149659864	74	127
83.71877551020408	83.9974149659864	78	127
83.9974149659864	84.26444444444445	76	127
83.9974149659864	84.26444444444445	73	127
84.26444444444445	84.53147392290249	71	127
84.26444444444445	84.53147392290249	74	127
84.53147392290249	84.79850340136055	69	127
84.53147392290249	84.79850340136055	73	127
84.79850340136055	85.05392290249434	67	127
84.79850340136055	85.05392290249434	71	127
85.06553287981859	85.3441723356009	66	127
85.06553287981859	85.3441723356009	69	127
85.36736961451247	85.62278911564626	64	127
85.36736961451247	85.62278911564626	67	127
85.63442176870748	85.86662131519275	66	127
85.63442176870748	85.86662131519275	62	127
85.87820861678004	86.18009070294785	64	127
85.87820861678004	86.18009070294785	61	127
86.1917006802721	86.45873015873016	62	127
86.1917006802721	86.45873015873016	59	127
86.47034013605442	86.73736961451247	57	127
86.47034013605442	86.73736961451247	61	127
86.74895691609977	86.99278911564626	59	127
86.74895691609977	86.99278911564626	55	127
86.99278911564626	87.24820861678005	54	127
86.99278911564626	87.24820861678005	57	127
87.24820861678005	87.49201814058956	52	127
87.24820861678005	87.49201814058956	55	127
87.49201814058956	87.81709750566894	50	127
87.49201814058956	87.81709750566894	54	127
87.8287074829932	88.11895691609978	52	127
87.8287074829932	88.11895691609978	49	127
88.13056689342403	88.44403628117914	49	127
88.13056689342403	88.44403628117914	52	127
88.13056689342403	88.44403628117914	55	127
88.4556462585034	89.0825850340136	52	127
88.4556462585034	89.0825850340136	49	127
88.4556462585034	89.0825850340136	55	127
89.0825850340136	89.83723356009071	52	127
89.0825850340136	89.83723356009071	55	127
89.0825850340136	89.83723356009071	33	127
89.0825850340136	89.83723356009071	45	127
89.0825850340136	89.83723356009071	49	127
89.83723356009071	90.76603174603174	55	127
89.83723356009071	90.76603174603174	61	127
89.83723356009071	90.76603174603174	33	127
89.83723356009071	90.76603174603174	45	127
90.76603174603174	91.64839002267574	53	127
90.76603174603174	91.64839002267574	62	127
90.76603174603174	92.57718820861678	34	127
90.76603174603174	92.57718820861678	46	127
91.64839002267574	91.83412698412698	74	127
91.83412698412698	92.04312925170068	75	127
92.05473922902495	92.24049886621316	79	127
92.25210884353741	92.39142857142858	77	127
92.39142857142858	92.57718820861678	74	127
92.57718820861678	94.00519274376417	46	127
92.57718820861678	94.00519274376417	51	127
92.57718820861678	92.76294784580499	74	127
92.57718820861678	94.00519274376417	48	127
92.77455782312926	92.96031746031746	75	127
92.97192743764172	93.16929705215419	72	127
93.16929705215419	93.3666439909297	65	127
93.3666439909297	93.51759637188209	72	127
93.52920634920635	93.63369614512472	74	127
93.63369614512472	93.69174603174604	77	127
93.70335600907029	93.83106575963718	75	127
93.83106575963718	94.00519274376417	72	127
94.00519274376417	95.67705215419501	53	127
94.00519274376417	94.20258503401361	72	127
94.00519274376417	95.67705215419501	46	127
94.00519274376417	95.67705215419501	50	127
94.21419501133786	94.41156462585035	74	127
94.4231746031746	94.59732426303854	70	127
94.59732426303854	94.78308390022676	65	127
94.78308390022676	94.9572335600907	74	127
94.96884353741497	95.15460317460318	75	127
95.15460317460318	95.3055328798186	79	127
95.31714285714285	95.4912925170068	77	127
95.4912925170068	95.67705215419501	74	127
95.67705215419501	95.82798185941043	79	127
95.67705215419501	96.10662131519274	45	127
95.67705215419501	96.10662131519274	50	127
95.67705215419501	96.10662131519274	54	127
95.8395918367347	95.97891156462585	78	127
95.99052154195012	96.10662131519274	74	127
96.10662131519274	96.64068027210884	50	127
96.10662131519274	96.29238095238095	83	127
96.10662131519274	96.64068027210884	54	127
96.10662131519274	96.64068027210884	45	127
96.29238095238095	96.48975056689342	81	127
96.48975056689342	96.64068027210884	78	127
96.65229024943311	96.83804988662132	81	127
96.65229024943311	97.2792290249433	45	127
96.65229024943311	97.2792290249433	52	127
96.65229024943311	97.2792290249433	55	127
96.83804988662132	97.03541950113379	80	127
97.03541950113379	97.2792290249433	79	127
97.29083900226757	99.09038548752835	46	127
97.29083900226757	97.45337868480726	77	127
97.29083900226757	99.09038548752835	53	127
97.29083900226757	99.09038548752835	50	127
97.38371882086167	97.53464852607709	79	127
97.46498866213152	97.60430839002268	77	127
97.53464852607709	97.68557823129251	79	127
97.61591836734694	97.7552380952381	77	127
97.68557823129251	97.82489795918367	79	127
97.76684807256235	97.88294784580499	77	127
97.82489795918367	97.96421768707484	79	127
97.89455782312925	98.03387755102041	77	127
97.96421768707484	98.10353741496598	79	127
98.04548752834467	98.17319727891156	77	127
98.10353741496598	98.2544671201814	79	127
98.18480725623583	98.33573696145125	77	127
98.26607709750567	98.40539682539682	79	127
98.33573696145125	98.49827664399093	77	127
98.41700680272109	98.57954648526078	79	127
98.49827664399093	98.68403628117913	77	127
98.59115646258503	98.75369614512472	79	127
98.68403628117913	98.8233560090703	77	127
98.76530612244898	98.89301587301587	79	127
98.8233560090703	98.97428571428571	77	127
98.90462585034014	99.03233560090703	79	127
98.97428571428571	99.09038548752835	77	127
99.04394557823129	99.16004535147393	79	127
99.1019954648526	99.83342403628117	57	127
99.1019954648526	99.2297052154195	77	127
99.1019954648526	99.83342403628117	46	127
99.1019954648526	99.83342403628117	48	127
99.1019954648526	99.83342403628117	51	127
99.1019954648526	99.83342403628117	53	127
99.16004535147393	99.31097505668934	79	127
99.24131519274377	99.38063492063492	77	127
99.31097505668934	99.46190476190476	79	127
99.39224489795919	99.53156462585034	77	127
99.46190476190476	99.58961451247166	79	127
99.5431746031746	99.65927437641723	77	127
99.58961451247166	99.74054421768707	79	127
99.6708843537415	99.78698412698412	77	127
99.74054421768707	99.86825396825397	79	127
99.79859410430839	99.93791383219954	77	127
99.84503401360544	100.04240362811791	57	127
99.86825396825397	100.00757369614513	79	127
99.94952380952381	100.08884353741496	77	127
100.01918367346939	100.14689342403628	79	127
100.04240362811791	100.22816326530612	58	127
100.08884353741496	100.22816326530612	77	127
100.15850340136055	100.28621315192744	79	127
100.22816326530612	100.35587301587302	77	127
100.22816326530612	100.40231292517007	62	127
100.2978231292517	100.42553287981859	79	127
100.35587301587302	100.48358276643991	77	127
100.41392290249433	100.57646258503401	60	127
100.42553287981859	100.55324263038548	79	127
100.48358276643991	100.63451247165533	77	127
100.56485260770975	100.65773242630385	79	127
100.58807256235828	100.7390022675737	57	127
100.63451247165533	100.7390022675737	77	127
100.66934240362812	100.79705215419501	79	127
100.7390022675737	100.86671201814059	77	127
100.7390022675737	100.92476190476191	57	127
100.80866213151927	100.95959183673469	79	127
100.87832199546486	101.02925170068028	77	127
100.92476190476191	101.09891156462585	58	127
100.95959183673469	101.08730158730158	79	127
101.04086167800453	101.15696145124717	77	127
101.08730158730158	101.238231292517	79	127
101.12213151927438	101.2730612244898	62	127
101.1801814058957	101.2730612244898	77	127
101.238231292517	101.35433106575964	79	127
101.28467120181406	101.43560090702948	77	127
101.28467120181406	101.48204081632653	62	127
101.35433106575964	101.50526077097506	79	127
101.43560090702948	101.59814058956916	77	127
101.49365079365079	101.65619047619047	58	127
101.51687074829933	101.63297052154195	79	127
101.59814058956916	101.70263038548752	77	127
101.64458049886622	101.79551020408164	79	127
101.65619047619047	101.84195011337869	60	127
101.7142403628118	101.84195011337869	77	127
101.79551020408164	101.84195011337869	79	127
101.84195011337869	101.91160997732426	77	127
101.84195011337869	101.95804988662131	63	127
101.85356009070294	101.98126984126984	79	127
101.91160997732426	102.06253968253968	77	127
101.95804988662131	102.14380952380952	62	127
101.9928798185941	102.120589569161	79	127
102.06253968253968	102.19024943310657	77	127
102.13219954648527	102.28312925170069	79	127
102.15541950113379	102.37600907029478	58	127
102.20185941043084	102.37600907029478	77	127
102.29473922902494	102.37600907029478	79	127
102.37600907029478	102.5269387755102	78	127
102.37600907029478	102.67786848072562	46	127
102.45727891156463	102.59659863945578	79	127
102.5269387755102	102.67786848072562	78	127
102.60820861678005	102.73591836734694	79	127
102.67786848072562	102.80557823129251	78	127
102.67786848072562	102.95650793650793	58	127
102.7475283446712	102.88684807256236	79	127
102.81718820861678	102.95650793650793	78	127
102.9681179138322	103.00294784580498	79	127
102.9681179138322	103.16548752834467	46	127
103.00294784580498	103.11904761904762	81	127
103.07260770975057	103.16548752834467	79	127
103.11904761904762	103.23514739229024	81	127
103.17709750566894	103.31641723356009	79	127
103.17709750566894	103.32802721088436	58	127
103.24675736961451	103.31641723356009	81	127
103.31641723356009	103.32802721088436	79	127
103.31641723356009	103.39768707482993	81	127
103.33963718820861	103.4673469387755	79	127
103.33963718820861	103.5950566893424	46	127
103.4092970521542	103.52539682539683	81	127
103.47895691609978	103.5950566893424	79	127
103.5370068027211	103.65310657596372	81	127
103.60666666666667	103.69954648526077	79	127
103.60666666666667	103.83886621315193	58	127
103.65310657596372	103.76920634920634	81	127
103.69954648526077	103.83886621315193	79	127
103.83886621315193	103.96657596371882	80	127
103.83886621315193	104.08267573696145	47	127
103.9085260770975	104.01301587301587	81	127
103.96657596371882	104.08267573696145	80	127
104.01301587301587	104.14072562358277	81	127
104.08267573696145	104.33809523809524	59	127
104.08267573696145	104.19877551020409	80	127
104.14072562358277	104.26843537414966	81	127
104.19877551020409	104.33809523809524	80	127
104.33809523809524	104.48902494331065	81	127
104.33809523809524	104.61673469387755	45	127
104.41936507936508	104.54707482993197	83	127
104.48902494331065	104.61673469387755	81	127
104.54707482993197	104.6631746031746	83	127
104.61673469387755	104.70961451247166	81	127
104.61673469387755	104.86054421768708	57	127
104.6631746031746	104.77927437641723	83	127
104.70961451247166	104.86054421768708	81	127
104.77927437641723	104.93020408163265	83	127
104.86054421768708	104.99986394557823	81	127
104.86054421768708	105.13918367346939	52	127
104.93020408163265	105.06952380952382	83	127
104.99986394557823	105.13918367346939	81	127
105.06952380952382	105.19723356009071	83	127
105.13918367346939	105.26689342403628	81	127
105.13918367346939	105.39460317460318	64	127
105.19723356009071	105.33655328798186	83	127
105.26689342403628	105.39460317460318	81	127
105.33655328798186	105.46426303854875	83	127
105.40621315192743	105.53392290249433	81	127
105.40621315192743	105.6384126984127	49	127
105.47587301587302	105.60358276643991	83	127
105.5455328798186	105.6384126984127	81	127
105.61519274376417	105.68485260770976	83	127
105.65002267573696	105.87061224489796	61	127
105.65002267573696	105.7312925170068	81	127
105.69646258503401	105.80095238095238	83	127
105.74290249433106	105.87061224489796	81	127
105.81256235827665	105.94027210884354	83	127
105.88222222222223	106.00993197278912	81	127
105.88222222222223	106.13764172335601	55	127
105.9518820861678	106.07959183673469	83	127
106.02154195011337	106.13764172335601	81	127
106.09120181405896	106.20730158730159	83	127
106.14925170068027	106.27696145124716	81	127
106.14925170068027	106.41628117913832	67	127
106.21891156462586	106.34662131519275	83	127
106.28857142857143	106.41628117913832	81	127
106.358231292517	106.4859410430839	83	127
106.42789115646258	106.55560090702947	81	127
106.42789115646258	106.69492063492063	52	127
106.49755102040817	106.62526077097506	83	127
106.56721088435374	106.69492063492063	81	127
106.63687074829932	106.76458049886621	83	127
106.7065306122449	106.8342403628118	81	127
106.7065306122449	106.95034013605442	64	127
106.77619047619048	106.88068027210885	83	127
106.84585034013605	106.95034013605442	81	127
106.8922902494331	107.02	83	127
106.96195011337869	107.08965986394558	81	127
106.96195011337869	107.22897959183673	61	127
107.03160997732427	107.15931972789116	83	127
107.10126984126984	107.22897959183673	81	127
107.15931972789116	107.29863945578231	83	127
107.22897959183673	107.35668934240363	81	127
107.22897959183673	107.49600907029479	73	127
107.29863945578231	107.4263492063492	83	127
107.35668934240363	107.49600907029479	81	127
107.4263492063492	107.56566893424036	83	127
107.49600907029479	107.76303854875283	55	127
107.49600907029479	107.62371882086168	81	127
107.56566893424036	107.69337868480726	83	127
107.62371882086168	107.76303854875283	81	127
107.69337868480726	107.8326984126984	83	127
107.76303854875283	107.902358276644	81	127
107.76303854875283	107.9952380952381	67	127
107.8326984126984	107.97201814058957	83	127
107.902358276644	107.9952380952381	81	127
107.97201814058957	108.01845804988662	83	127
107.9952380952381	108.06489795918367	81	127
107.9952380952381	108.15777777777778	64	127
108.01845804988662	108.14616780045351	83	127
108.06489795918367	108.15777777777778	81	127
108.14616780045351	108.22743764172336	83	127
108.15777777777778	108.28548752834467	81	127
108.15777777777778	108.42480725623582	76	127
108.22743764172336	108.35514739229025	83	127
108.28548752834467	108.42480725623582	81	127
108.35514739229025	108.49446712018141	83	127
108.42480725623582	108.56412698412699	81	127
108.42480725623582	108.69183673469388	61	127
108.49446712018141	108.63378684807256	83	127
108.56412698412699	108.69183673469388	81	127
108.63378684807256	108.76149659863945	83	127
108.69183673469388	108.95886621315192	73	127
108.69183673469388	108.81954648526077	81	127
108.76149659863945	108.88920634920635	83	127
108.83115646258503	108.95886621315192	81	127
108.90081632653062	109.02852607709751	83	127
108.97047619047619	109.08657596371881	81	127
108.97047619047619	109.21428571428571	67	127
109.04013605442177	109.1562358276644	83	127
109.09818594104308	109.21428571428571	81	127
109.1562358276644	109.2839455782313	83	127
109.22589569160998	109.35360544217687	81	127
109.22589569160998	109.43487528344671	79	127
109.29555555555555	109.41165532879819	83	127
109.36521541950114	109.43487528344671	81	127
109.42326530612245	109.50453514739229	83	127
109.44648526077097	109.56258503401361	81	127
109.44648526077097	109.67868480725623	64	127
109.51614512471656	109.62063492063493	83	127
109.57419501133786	109.67868480725623	81	127
109.63224489795918	109.73673469387755	83	127
109.67868480725623	109.86444444444444	76	127
109.67868480725623	109.80639455782313	81	127
109.74834467120182	109.8180045351474	83	127
109.8180045351474	109.86444444444444	81	127
109.8180045351474	109.94571428571429	83	127
109.87605442176871	110.17791383219955	67	127
109.87605442176871	110.03859410430839	81	127
109.95732426303854	110.10825396825396	83	127
110.03859410430839	110.17791383219955	81	127
110.10825396825396	110.24757369614512	83	127
110.1895238095238	110.46816326530612	79	127
110.1895238095238	110.3172335600907	81	127
110.2591836734694	110.39850340136054	83	127
110.32884353741497	110.46816326530612	81	127
110.39850340136054	110.52621315192744	83	127
110.46816326530612	110.60748299319728	81	127
110.46816326530612	110.7584126984127	66	127
110.5378231292517	110.67714285714285	83	127
110.60748299319728	110.7584126984127	81	127
110.68875283446712	110.82807256235827	83	127
110.7584126984127	111.04866213151928	78	127
110.7584126984127	110.90934240362812	81	127
110.83968253968254	110.97900226757369	83	127
110.90934240362812	111.04866213151928	81	127
110.99061224489796	111.14154195011338	83	127
111.06027210884353	111.22281179138322	82	127
111.06027210884353	111.37374149659864	67	127
111.15315192743765	111.30408163265307	83	127
111.22281179138322	111.37374149659864	82	127
111.30408163265307	111.46662131519274	83	127
111.3853514739229	111.54789115646258	82	127
111.3853514739229	111.71043083900227	79	127
111.46662131519274	111.62916099773243	83	127
111.54789115646258	111.71043083900227	82	127
111.72204081632653	111.91941043083901	67	127
111.72204081632653	112.360589569161	83	127
111.93102040816326	112.0471201814059	71	127
112.05873015873016	112.19804988662132	74	127
112.19804988662132	112.46507936507936	67	127
112.360589569161	112.56956916099773	86	127
112.56956916099773	112.79015873015874	83	127
112.80176870748299	113.26616780045352	79	127
113.27777777777777	113.46353741496598	67	127
113.27777777777777	113.82344671201814	79	127
113.47514739229025	113.57963718820862	71	127
113.57963718820862	113.63768707482993	76	127
113.63768707482993	113.92793650793651	67	127
113.82344671201814	114.04403628117913	83	127
114.0556462585034	114.24140589569161	79	127
114.24140589569161	114.79868480725624	76	127
114.79868480725624	115.78553287981859	71	127
115.29791383219954	115.78553287981859	64	127
115.29791383219954	115.78553287981859	57	127
115.79714285714286	116.45891156462585	64	127
115.79714285714286	116.45891156462585	73	127
115.79714285714286	116.45891156462585	57	127
116.47052154195012	116.93492063492063	74	127
116.47052154195012	116.93492063492063	50	127
116.47052154195012	116.93492063492063	62	127
117.20195011337869	117.4457596371882	74	127
117.20195011337869	117.4457596371882	62	127
117.4457596371882	117.74761904761905	73	127
117.4457596371882	117.74761904761905	64	127
117.75922902494331	118.03786848072562	72	127
117.75922902494331	118.03786848072562	66	127
118.04947845804989	118.21201814058956	71	127
118.04947845804989	118.21201814058956	67	127
118.22362811791383	118.40938775510205	71	127
118.22362811791383	118.40938775510205	74	127
118.4209977324263	118.61836734693877	79	127
118.4209977324263	118.61836734693877	74	127
118.64158730158731	118.9550566893424	67	127
118.64158730158731	118.9550566893424	71	127
119.66326530612245	119.87224489795918	67	127
119.66326530612245	119.87224489795918	71	127
119.87224489795918	120.06961451247166	71	127
119.87224489795918	120.06961451247166	76	127
120.06961451247166	120.26698412698413	76	127
120.06961451247166	120.26698412698413	79	127
120.2785941043084	120.39469387755102	71	127
120.2785941043084	120.39469387755102	67	127
121.89238095238095	122.44965986394558	79	127
121.89238095238095	122.44965986394558	57	127
121.89238095238095	122.44965986394558	64	127
122.46126984126984	123.07659863945578	79	127
122.46126984126984	123.07659863945578	57	127
122.46126984126984	123.07659863945578	64	127
123.08820861678005	123.32040816326531	78	127
123.08820861678005	123.32040816326531	62	127
123.33201814058957	123.50616780045351	76	127
123.33201814058957	123.50616780045351	64	127
123.51777777777778	123.68031746031745	74	127
123.51777777777778	123.68031746031745	66	127
123.68031746031745	123.84285714285714	67	127
123.68031746031745	123.84285714285714	73	127
123.85446712018141	124.00539682539683	74	127
123.85446712018141	124.00539682539683	66	127
124.01700680272108	124.19115646258503	76	127
124.01700680272108	124.19115646258503	64	127
124.19115646258503	124.36530612244898	78	127
124.19115646258503	124.36530612244898	62	127
124.37691609977324	124.57428571428571	76	127
124.37691609977324	124.57428571428571	64	127
124.57428571428571	124.74843537414966	74	127
124.57428571428571	124.74843537414966	66	127
124.76004535147392	124.92258503401361	73	127
124.76004535147392	124.92258503401361	67	127
124.92258503401361	125.06190476190476	74	127
124.92258503401361	125.06190476190476	66	127
125.07351473922903	125.25927437641724	76	127
125.07351473922903	125.25927437641724	64	127
125.25927437641724	125.44503401360544	78	127
125.25927437641724	125.44503401360544	62	127
125.44503401360544	125.5495238095238	79	127
125.44503401360544	125.5495238095238	61	127
125.56113378684807	125.74689342403629	81	127
125.56113378684807	125.74689342403629	59	127
125.74689342403629	125.92104308390023	83	127
125.74689342403629	125.92104308390023	57	127
125.93265306122449	126.0835827664399	85	127
125.93265306122449	126.0835827664399	55	127
126.0835827664399	126.25773242630386	86	127
126.0835827664399	126.25773242630386	54	127
126.26934240362812	126.45510204081633	88	127
126.26934240362812	126.45510204081633	52	127
126.45510204081633	126.61764172335602	90	127
126.45510204081633	126.61764172335602	50	127
126.61764172335602	126.80340136054421	91	127
126.61764172335602	126.80340136054421	49	127
126.81501133786848	127.0936507936508	80	127
126.81501133786848	127.0936507936508	86	127
126.81501133786848	127.0936507936508	92	127
126.81501133786848	127.0936507936508	47	127
127.39551020408163	127.74380952380952	93	127
127.39551020408163	127.74380952380952	81	127
127.39551020408163	127.74380952380952	85	127
127.39551020408163	127.74380952380952	45	127
128.10371882086167	128.27786848072563	62	127
128.10371882086167	128.27786848072563	78	127
128.10371882086167	128.27786848072563	74	127
128.2894784580499	128.48684807256237	76	127
128.2894784580499	128.48684807256237	64	127
128.2894784580499	128.48684807256237	73	127
128.49843537414966	128.67260770975057	74	127
128.49843537414966	128.67260770975057	66	127
128.49843537414966	128.67260770975057	71	127
128.68421768707483	128.84675736961452	73	127
128.68421768707483	128.84675736961452	67	127
128.68421768707483	128.84675736961452	69	127
128.84675736961452	129.00927437641724	74	127
128.84675736961452	129.00927437641724	66	127
128.84675736961452	129.00927437641724	71	127
129.00927437641724	129.1950566893424	76	127
129.00927437641724	129.1950566893424	64	127
129.00927437641724	129.1950566893424	73	127
129.20666666666668	129.3575963718821	78	127
129.20666666666668	129.3575963718821	62	127
129.20666666666668	129.3575963718821	74	127
129.3691836734694	129.5433560090703	76	127
129.3691836734694	129.5433560090703	64	127
129.3691836734694	129.5433560090703	73	127
129.5433560090703	129.72909297052155	71	127
129.5433560090703	129.72909297052155	74	127
129.5433560090703	129.72909297052155	66	127
129.72909297052155	129.88002267573697	67	127
129.72909297052155	129.88002267573697	69	127
129.72909297052155	129.88002267573697	73	127
129.89165532879818	130.00775510204082	66	127
129.89165532879818	130.00775510204082	74	127
129.89165532879818	130.00775510204082	71	127
130.0193650793651	130.20512471655329	76	127
130.0193650793651	130.20512471655329	64	127
130.0193650793651	130.20512471655329	73	127
130.20512471655329	130.3560544217687	78	127
130.20512471655329	130.3560544217687	62	127
130.20512471655329	130.3560544217687	74	127
130.3560544217687	130.53020408163266	76	127
130.3560544217687	130.53020408163266	79	127
130.3560544217687	130.53020408163266	61	127
130.54179138321996	130.68113378684808	81	127
130.54179138321996	130.68113378684808	78	127
130.54179138321996	130.68113378684808	59	127
130.69274376417235	130.8320634920635	79	127
130.69274376417235	130.8320634920635	83	127
130.69274376417235	130.8320634920635	57	127
130.8320634920635	130.97138321995465	81	127
130.8320634920635	130.97138321995465	85	127
130.8320634920635	130.97138321995465	55	127
130.97138321995465	131.1571201814059	83	127
130.97138321995465	131.1571201814059	86	127
130.97138321995465	131.1571201814059	54	127
131.1687528344671	131.31968253968253	88	127
131.1687528344671	131.31968253968253	85	127
131.1687528344671	131.31968253968253	52	127
131.31968253968253	131.47061224489795	90	127
131.31968253968253	131.47061224489795	86	127
131.31968253968253	131.47061224489795	50	127
131.48222222222222	131.66795918367347	88	127
131.48222222222222	131.66795918367347	91	127
131.48222222222222	131.66795918367347	49	127
131.6795918367347	131.96984126984128	80	127
131.6795918367347	131.96984126984128	86	127
131.6795918367347	131.96984126984128	92	127
131.6795918367347	131.96984126984128	47	127
132.27170068027212	132.48068027210886	45	127
132.27170068027212	132.57356009070295	68	127
132.27170068027212	132.57356009070295	80	127
132.48068027210886	132.68963718820862	52	127
132.58517006802722	132.89861678004536	69	127
132.58517006802722	132.89861678004536	81	127
132.68963718820862	132.89861678004536	55	127
132.91024943310657	133.061179138322	45	127
132.91024943310657	133.42108843537414	83	127
132.91024943310657	133.42108843537414	71	127
133.07278911564626	133.2004761904762	52	127
133.2121088435374	133.42108843537414	55	127
133.42108843537414	133.9202947845805	81	127
133.42108843537414	133.5952380952381	45	127
133.42108843537414	133.9202947845805	69	127
133.5952380952381	133.76938775510203	52	127
133.76938775510203	133.9202947845805	55	127
133.9202947845805	134.08285714285714	45	127
133.9202947845805	134.164126984127	76	127
133.9202947845805	134.164126984127	64	127
134.0944671201814	134.2570068027211	48	127
134.1757142857143	134.41954648526078	78	127
134.1757142857143	134.41954648526078	66	127
134.26861678004536	134.41954648526078	52	127
134.43113378684808	134.93038548752835	67	127
134.43113378684808	134.61691609977325	45	127
134.43113378684808	134.93038548752835	79	127
134.62852607709752	134.76784580498867	50	127
134.77945578231294	134.93038548752835	54	127
134.94197278911565	135.42961451247166	78	127
134.94197278911565	135.09290249433107	45	127
134.94197278911565	135.42961451247166	66	127
135.10453514739228	135.26707482993197	50	127
135.27868480725624	135.42961451247166	54	127
135.44122448979593	135.708231292517	61	127
135.44122448979593	135.60374149659864	45	127
135.44122448979593	135.708231292517	73	127
135.61537414965986	135.81272108843538	50	127
135.71986394557823	135.99850340136055	62	127
135.71986394557823	135.99850340136055	74	127
135.81272108843538	135.99850340136055	54	127
135.99850340136055	136.18426303854875	45	127
135.99850340136055	136.59061224489795	66	127
135.99850340136055	136.59061224489795	78	127
136.18426303854875	136.38163265306122	49	127
136.38163265306122	136.59061224489795	55	127
136.59061224489795	136.71832199546486	45	127
136.59061224489795	137.03179138321997	76	127
136.59061224489795	137.03179138321997	64	127
136.71832199546486	136.88083900226758	49	127
136.88083900226758	137.03179138321997	55	127
137.03179138321997	137.19433106575963	45	127
137.03179138321997	137.54263038548754	70	127
137.03179138321997	137.54263038548754	58	127
137.19433106575963	137.38009070294785	49	127
137.38009070294785	137.54263038548754	55	127
137.55424036281178	138.5643083900227	57	127
137.55424036281178	137.7051700680272	45	127
137.55424036281178	138.5643083900227	69	127
137.71678004535147	137.87931972789116	50	127
137.9025396825397	138.07668934240363	54	127
138.0882993197279	138.22761904761904	45	127
138.2392290249433	138.401768707483	50	127
138.41337868480727	138.5643083900227	54	127
138.57591836734693	138.7268253968254	45	127
138.57591836734693	138.7268253968254	57	127
138.73845804988662	138.9009977324263	64	127
138.73845804988662	138.9009977324263	52	127
138.9009977324263	139.04031746031745	67	127
138.9009977324263	139.04031746031745	55	127
139.05192743764172	139.2144671201814	57	127
139.05192743764172	139.2144671201814	45	127
139.2144671201814	139.3885941043084	64	127
139.2144671201814	139.3885941043084	52	127
139.3885941043084	139.5627664399093	55	127
139.3885941043084	139.5627664399093	67	127
139.5627664399093	139.74850340136055	45	127
139.5627664399093	139.74850340136055	57	127
139.74850340136055	139.91106575963718	64	127
139.74850340136055	139.91106575963718	52	127
139.91106575963718	140.0968253968254	55	127
139.91106575963718	140.0968253968254	67	127
140.0968253968254	140.2825850340136	57	127
140.0968253968254	140.2825850340136	45	127
140.2825850340136	140.43351473922903	61	127
140.2825850340136	140.43351473922903	49	127
140.43351473922903	140.60766439909298	52	127
140.43351473922903	140.60766439909298	64	127
140.60766439909298	140.79342403628118	57	127
140.60766439909298	140.79342403628118	45	127
140.79342403628118	140.96757369614514	49	127
140.79342403628118	140.96757369614514	61	127
140.97918367346938	141.15333333333334	64	127
140.97918367346938	141.15333333333334	52	127
141.1649433106576	141.32746031746032	57	127
141.1649433106576	141.32746031746032	45	127
141.33909297052153	141.50163265306122	50	127
141.33909297052153	141.50163265306122	62	127
141.5132426303855	141.68736961451248	54	127
141.5132426303855	141.68736961451248	66	127
141.6990022675737	141.8499319727891	57	127
141.6990022675737	141.8499319727891	45	127
141.86154195011338	142.03569160997733	50	127
141.86154195011338	142.03569160997733	62	127
142.04727891156463	142.2330612244898	66	127
142.04727891156463	142.2330612244898	54	127
142.24467120181407	142.418820861678	45	127
142.24467120181407	142.418820861678	57	127
142.43043083900227	142.5813605442177	49	127
142.43043083900227	142.5813605442177	61	127
142.59297052154196	142.7671201814059	55	127
142.59297052154196	142.7671201814059	67	127
142.7671201814059	142.92965986394557	57	127
142.7671201814059	142.92965986394557	45	127
142.92965986394557	143.09219954648526	49	127
142.92965986394557	143.09219954648526	61	127
143.09219954648526	143.25473922902495	67	127
143.09219954648526	143.25473922902495	55	127
143.25473922902495	143.44049886621315	61	127
143.25473922902495	143.44049886621315	45	127
143.44049886621315	143.6146485260771	64	127
143.44049886621315	143.6146485260771	49	127
143.6146485260771	143.81201814058957	67	127
143.6146485260771	143.81201814058957	52	127
143.81201814058957	144.00938775510204	66	127
143.81201814058957	144.00938775510204	45	127
144.00938775510204	144.183537414966	50	127
144.00938775510204	144.183537414966	62	127
144.183537414966	144.38090702947846	54	127
144.183537414966	144.38090702947846	57	127
144.38090702947846	144.56666666666666	45	127
144.38090702947846	144.56666666666666	66	127
144.56666666666666	144.74081632653062	62	127
144.56666666666666	144.74081632653062	50	127
144.74081632653062	144.8568934240363	54	127
144.74081632653062	144.8568934240363	57	127
144.8685260770975	145.04267573696146	61	127
144.8685260770975	145.04267573696146	45	127
145.05428571428573	145.24004535147392	49	127
145.05428571428573	145.24004535147392	64	127
145.24004535147392	145.39097505668934	52	127
145.24004535147392	145.39097505668934	67	127
145.39097505668934	145.5302947845805	45	127
145.39097505668934	145.5302947845805	66	127
145.54190476190476	145.71605442176872	50	127
145.54190476190476	145.71605442176872	62	127
145.72764172335602	145.86698412698414	54	127
145.72764172335602	145.86698412698414	57	127
145.87857142857143	146.05274376417233	66	127
145.87857142857143	146.05274376417233	45	127
146.0643537414966	146.2384807256236	62	127
146.0643537414966	146.2384807256236	50	127
146.2501133786848	146.40104308390022	54	127
146.2501133786848	146.40104308390022	57	127
146.40104308390022	146.57519274376418	45	127
146.40104308390022	146.57519274376418	61	127
146.57519274376418	146.76095238095238	64	127
146.57519274376418	146.76095238095238	49	127
146.76095238095238	146.9467120181406	52	127
146.76095238095238	146.9467120181406	67	127
146.9467120181406	147.09764172335602	66	127
146.9467120181406	147.09764172335602	45	127
147.09764172335602	147.28340136054422	62	127
147.09764172335602	147.28340136054422	50	127
147.28340136054422	147.45755102040818	54	127
147.28340136054422	147.45755102040818	57	127
147.45755102040818	147.64331065759637	45	127
147.45755102040818	147.64331065759637	66	127
147.64331065759637	147.82907029478457	62	127
147.64331065759637	147.82907029478457	50	127
147.82907029478457	148.0148299319728	57	127
147.82907029478457	148.0148299319728	54	127
148.0148299319728	148.16575963718822	61	127
148.0148299319728	148.16575963718822	45	127
148.17734693877551	148.36312925170068	49	127
148.17734693877551	148.36312925170068	64	127
148.37473922902495	148.5140589569161	52	127
148.37473922902495	148.5140589569161	67	127
148.52566893424037	148.68820861678006	66	127
148.52566893424037	148.68820861678006	45	127
148.6998185941043	148.87396825396826	50	127
148.6998185941043	148.87396825396826	62	127
148.88557823129253	149.03650793650795	54	127
148.88557823129253	149.03650793650795	60	127
149.04809523809524	149.22226757369614	45	127
149.04809523809524	149.22226757369614	66	127
149.2338775510204	149.4080045351474	62	127
149.2338775510204	149.4080045351474	50	127
149.4196371882086	149.59378684807257	54	127
149.4196371882086	149.59378684807257	60	127
149.60539682539684	149.8027664399093	43	127
149.60539682539684	149.8027664399093	67	127
149.8027664399093	149.97691609977323	62	127
149.8027664399093	149.97691609977323	50	127
149.9885260770975	150.18589569160997	59	127
149.9885260770975	150.18589569160997	55	127
150.18589569160997	150.7780045351474	43	127
150.18589569160997	150.7780045351474	59	127
150.18589569160997	150.7780045351474	62	127
150.18589569160997	150.7780045351474	67	127
150.18589569160997	150.7780045351474	50	127
150.18589569160997	150.7780045351474	55	127
151.2772335600907	151.89256235827665	47	127
151.2772335600907	151.41655328798186	59	127
151.2772335600907	151.89256235827665	43	127
151.2772335600907	151.89256235827665	50	127
151.35850340136054	151.50943310657595	60	127
151.42816326530613	151.5907029478458	59	127
151.52104308390022	151.66036281179137	60	127
151.5907029478458	151.76485260770974	59	127
151.6835827664399	151.8461224489796	57	127
151.81126984126985	151.89256235827665	59	127
151.90417233560092	152.17120181405895	64	127
151.90417233560092	152.92585034013607	43	127
151.90417233560092	152.92585034013607	47	127
151.90417233560092	152.92585034013607	50	127
152.17120181405895	152.3453514739229	62	127
152.35696145124717	152.92585034013607	59	127
152.93743764172336	153.52956916099774	59	127
152.93743764172336	153.52956916099774	62	127
152.93743764172336	153.52956916099774	43	127
152.93743764172336	153.52956916099774	47	127
152.93743764172336	153.52956916099774	50	127
153.52956916099774	154.02879818594104	62	127
153.52956916099774	154.02879818594104	43	127
153.52956916099774	154.02879818594104	50	127
153.52956916099774	154.02879818594104	59	127
154.0404081632653	154.5744671201814	62	127
154.0404081632653	154.5744671201814	50	127
154.0404081632653	154.5744671201814	57	127
154.0404081632653	154.5744671201814	60	127
154.0404081632653	154.5744671201814	45	127
154.5744671201814	155.1433560090703	50	127
154.5744671201814	155.1433560090703	55	127
154.5744671201814	155.1433560090703	59	127
154.5744671201814	155.1433560090703	62	127
154.5744671201814	155.1433560090703	47	127
155.1433560090703	155.7702947845805	50	127
155.1433560090703	155.4568253968254	57	127
155.1433560090703	155.7702947845805	48	127
155.4568253968254	155.7702947845805	54	127
155.4568253968254	155.7702947845805	57	127
155.7702947845805	156.37401360544217	55	127
155.7702947845805	156.37401360544217	59	127
155.7702947845805	156.37401360544217	47	127
155.7702947845805	156.37401360544217	50	127
157.94133786848073	158.19675736961452	67	127
157.94133786848073	158.19675736961452	71	127
158.19675736961452	158.4521768707483	71	127
158.19675736961452	158.4521768707483	74	127
158.46380952380952	158.7888888888889	69	127
158.46380952380952	158.7888888888889	72	127
158.46380952380952	159.102358276644	62	127
158.80049886621316	159.102358276644	74	127
158.80049886621316	159.102358276644	72	127
159.102358276644	159.47387755102042	71	127
159.102358276644	159.47387755102042	74	127
159.102358276644	159.47387755102042	67	127
159.48548752834466	159.63641723356008	71	127
159.55514739229025	159.74090702947845	72	127
159.63641723356008	159.8337641723356	71	127
159.75251700680272	159.9150566893424	72	127
159.84539682539682	159.984716553288	71	127
159.9498866213152	160.0775963718821	69	127
160.03115646258505	160.12403628117914	71	127
160.1356462585034	160.43750566893425	76	127
160.43750566893425	160.65809523809523	74	127
160.65809523809523	161.19215419501134	71	127
161.19215419501134	161.71460317460318	47	127
161.19215419501134	161.71460317460318	50	127
161.19215419501134	161.71460317460318	43	127
161.71460317460318	162.852358276644	43	127
161.71460317460318	162.852358276644	50	127
161.71460317460318	162.852358276644	47	127
162.8639909297052	163.45609977324264	55	127
162.8639909297052	163.01492063492063	71	127
162.8639909297052	163.45609977324264	43	127
162.9336507936508	163.07297052154195	72	127
163.01492063492063	163.1542403628118	71	127
163.08458049886622	163.22390022675737	72	127
163.16585034013605	163.30517006802722	71	127
163.2587074829932	163.4096598639456	69	127
163.36319727891157	163.45609977324264	71	127
163.46768707482994	163.95532879818595	43	127
163.46768707482994	163.73473922902494	76	127
163.46768707482994	163.95532879818595	55	127
163.73473922902494	163.95532879818595	74	127
163.95532879818595	164.51260770975057	65	127
163.95532879818595	164.51260770975057	45	127
163.95532879818595	164.51260770975057	55	127
164.52421768707484	165.13954648526078	47	127
164.52421768707484	164.82607709750567	69	127
164.52421768707484	165.13954648526078	55	127
164.83768707482994	165.13954648526078	67	127
165.13954648526078	166.40503401360544	64	127
165.13954648526078	166.40503401360544	48	127
165.13954648526078	166.40503401360544	55	127
166.4166439909297	166.71850340136055	67	127
166.73011337868482	167.04356009070295	72	127
167.05519274376417	167.28739229024944	76	127
167.29897959183674	167.5195918367347	79	127
167.53120181405896	167.79823129251702	84	127
167.8098185941043	167.8330612244898	88	127
167.8330612244898	167.98399092970521	84	127
167.98399092970521	168.26263038548754	79	127
168.26263038548754	168.4715873015873	76	127
168.4715873015873	168.70380952380953	79	127
168.70380952380953	168.94761904761904	84	127
168.94761904761904	169.19140589569162	88	127
169.20303854875283	169.47006802721089	84	127
169.20303854875283	169.47006802721089	60	127
169.48167800453515	169.7487074829932	79	127
169.48167800453515	169.7487074829932	64	127
169.76031746031745	170.0273469387755	69	127
169.76031746031745	170.0273469387755	76	127
170.03895691609978	170.23632653061225	81	127
170.03895691609978	170.23632653061225	72	127
170.24793650793652	170.51496598639457	84	127
170.24793650793652	170.51496598639457	76	127
170.5265759637188	170.6891156462585	81	127
170.5265759637188	170.6891156462585	88	127
170.70072562358277	170.79360544217687	84	127
170.70072562358277	170.79360544217687	76	127
170.79360544217687	171.0838321995465	81	127
170.79360544217687	171.0838321995465	72	127
171.0838321995465	171.38569160997733	76	127
171.0838321995465	171.38569160997733	69	127
171.38569160997733	171.58308390022677	81	127
171.38569160997733	171.58308390022677	72	127
171.58308390022677	171.86172335600907	84	127
171.58308390022677	171.86172335600907	76	127
171.86172335600907	172.03587301587302	88	127
171.86172335600907	172.03587301587302	81	127
172.03587301587302	172.30290249433108	84	127
172.03587301587302	172.30290249433108	76	127
172.30290249433108	172.53510204081633	81	127
172.30290249433108	172.53510204081633	72	127
172.5467120181406	172.8253514739229	78	127
172.5467120181406	172.8253514739229	69	127
172.83696145124716	173.01111111111112	81	127
172.83696145124716	173.01111111111112	72	127
173.02269841269842	173.1736507936508	84	127
173.02269841269842	173.1736507936508	78	127
173.18526077097505	173.44068027210884	90	127
173.18526077097505	173.44068027210884	81	127
173.4522902494331	173.7077097505669	84	127
173.4522902494331	173.7077097505669	78	127
173.71931972789116	173.9282993197279	81	127
173.71931972789116	173.9282993197279	72	127
173.9282993197279	174.17210884353742	78	127
173.9282993197279	174.17210884353742	69	127
174.17210884353742	174.43913832199547	81	127
174.17210884353742	174.43913832199547	72	127
174.43913832199547	174.6481179138322	84	127
174.43913832199547	174.6481179138322	78	127
174.6481179138322	174.89192743764173	90	127
174.6481179138322	174.89192743764173	81	127
174.89192743764173	175.15895691609978	84	127
174.89192743764173	175.15895691609978	78	127
175.15895691609978	175.43759637188208	81	127
175.15895691609978	175.43759637188208	72	127
175.43759637188208	175.93680272108844	78	127
175.43759637188208	175.93680272108844	69	127
175.94843537414965	176.2154648526077	81	127
175.94843537414965	176.2154648526077	72	127
176.22707482993198	176.49410430839004	84	127
176.22707482993198	176.49410430839004	78	127
176.50571428571428	176.76113378684806	90	127
176.50571428571428	176.76113378684806	81	127
176.77274376417233	176.83079365079365	93	127
176.77274376417233	176.83079365079365	84	127
176.83079365079365	176.90045351473924	91	127
176.83079365079365	176.90045351473924	83	127
176.91204081632654	177.17909297052154	90	127
176.91204081632654	177.17909297052154	81	127
177.1907029478458	177.4228798185941	88	127
177.1907029478458	177.4228798185941	79	127
177.4228798185941	177.62027210884355	86	127
177.4228798185941	177.62027210884355	78	127
177.62027210884355	177.88730158730158	84	127
177.62027210884355	177.88730158730158	76	127
177.88730158730158	178.13111111111112	83	127
177.88730158730158	178.13111111111112	74	127
178.13111111111112	178.3400680272109	81	127
178.13111111111112	178.3400680272109	72	127
178.3400680272109	178.58390022675738	79	127
178.3400680272109	178.58390022675738	71	127
178.58390022675738	178.81609977324263	78	127
178.58390022675738	178.81609977324263	69	127
178.81609977324263	178.99024943310658	76	127
178.81609977324263	178.99024943310658	67	127
179.00183673469388	179.25725623582767	74	127
179.00183673469388	179.25725623582767	66	127
179.26888888888888	179.55913832199548	72	127
179.26888888888888	179.55913832199548	64	127
179.57074829931972	179.81455782312926	62	127
179.57074829931972	179.81455782312926	71	127
179.8261678004535	180.18607709750566	61	127
179.8261678004535	180.06997732426305	71	127
179.8261678004535	180.18607709750566	64	127
180.08156462585035	180.18607709750566	69	127
180.18607709750566	180.4298866213152	64	127
180.18607709750566	180.4298866213152	69	127
180.18607709750566	180.4298866213152	61	127
180.4298866213152	180.69691609977323	69	127
180.4298866213152	180.69691609977323	61	127
180.4298866213152	180.69691609977323	64	127
180.69691609977323	180.94072562358278	69	127
180.69691609977323	180.94072562358278	61	127
180.69691609977323	180.94072562358278	64	127
180.95233560090702	181.19614512471657	69	127
180.95233560090702	181.19614512471657	61	127
180.95233560090702	181.19614512471657	64	127
181.2077551020408	181.4631746031746	69	127
181.2077551020408	181.4631746031746	61	127
181.2077551020408	181.4631746031746	64	127
181.47478458049886	181.74181405895692	74	127
181.47478458049886	181.74181405895692	60	127
181.47478458049886	181.74181405895692	62	127
181.74181405895692	181.9043537414966	74	127
181.74181405895692	181.9043537414966	60	127
181.74181405895692	181.9043537414966	62	127
181.9043537414966	182.13655328798185	74	127
181.9043537414966	182.13655328798185	60	127
181.9043537414966	182.13655328798185	62	127
182.13655328798185	182.36875283446713	74	127
182.13655328798185	182.36875283446713	60	127
182.13655328798185	182.36875283446713	62	127
182.38034013605443	182.63575963718822	74	127
182.38034013605443	182.63575963718822	60	127
182.38034013605443	182.63575963718822	62	127
182.63575963718822	184.17990929705215	62	127
182.63575963718822	183.42526077097506	74	127
182.63575963718822	184.17990929705215	59	127
183.42526077097506	183.70390022675738	76	127
183.70390022675738	184.17990929705215	74	127
184.17990929705215	184.65591836734694	64	127
184.17990929705215	184.65591836734694	57	127
184.17990929705215	184.65591836734694	67	127
184.17990929705215	184.65591836734694	37	127
184.17990929705215	184.65591836734694	49	127
184.65591836734694	184.922947845805	64	127
184.65591836734694	184.922947845805	57	127
184.65591836734694	184.922947845805	37	127
184.65591836734694	184.922947845805	49	127
184.65591836734694	184.922947845805	67	127
184.922947845805	185.13192743764174	49	127
184.922947845805	185.13192743764174	57	127
184.922947845805	185.13192743764174	64	127
184.922947845805	185.13192743764174	67	127
184.922947845805	185.13192743764174	37	127
185.13192743764174	185.31768707482993	57	127
185.13192743764174	185.31768707482993	64	127
185.13192743764174	185.31768707482993	67	127
185.13192743764174	185.31768707482993	37	127
185.13192743764174	185.31768707482993	49	127
185.3292970521542	185.5150566893424	57	127
185.3292970521542	185.5150566893424	64	127
185.3292970521542	185.5150566893424	67	127
185.3292970521542	185.5150566893424	37	127
185.3292970521542	185.5150566893424	49	127
185.52666666666667	185.80528344671202	67	127
185.52666666666667	185.80528344671202	57	127
185.52666666666667	185.80528344671202	64	127
185.52666666666667	185.80528344671202	36	127
185.52666666666667	185.80528344671202	48	127
185.81691609977324	185.95621315192744	57	127
185.81691609977324	185.95621315192744	62	127
185.81691609977324	185.95621315192744	66	127
185.81691609977324	185.95621315192744	36	127
185.81691609977324	185.95621315192744	48	127
185.96784580498866	186.24648526077098	57	127
185.96784580498866	186.24648526077098	62	127
185.96784580498866	186.24648526077098	66	127
185.96784580498866	186.24648526077098	36	127
185.96784580498866	186.24648526077098	48	127
186.25809523809525	186.46705215419502	57	127
186.25809523809525	186.46705215419502	62	127
186.25809523809525	186.46705215419502	66	127
186.25809523809525	186.46705215419502	36	127
186.25809523809525	186.46705215419502	48	127
186.47868480725623	186.75732426303856	57	127
186.47868480725623	186.75732426303856	62	127
186.47868480725623	186.75732426303856	48	127
186.47868480725623	186.75732426303856	66	127
186.47868480725623	186.75732426303856	36	127
186.75732426303856	187.0243537414966	62	127
186.75732426303856	187.0243537414966	57	127
186.75732426303856	187.0243537414966	66	127
186.75732426303856	187.0243537414966	36	127
186.75732426303856	187.0243537414966	48	127
187.0243537414966	188.5336507936508	47	127
187.0243537414966	188.5336507936508	35	127
187.0243537414966	188.5336507936508	55	127
187.0243537414966	188.5336507936508	62	127
187.0243537414966	188.5336507936508	67	127
188.54526077097506	189.09092970521542	60	127
188.54526077097506	189.09092970521542	50	127
188.54526077097506	189.09092970521542	57	127
188.83551020408163	189.09092970521542	78	127
188.83551020408163	189.09092970521542	72	127
188.83551020408163	189.09092970521542	69	127
189.10253968253969	189.29990929705215	69	127
189.10253968253969	189.29990929705215	72	127
189.10253968253969	189.29990929705215	78	127
189.31151927437642	189.52049886621316	72	127
189.31151927437642	189.52049886621316	69	127
189.31151927437642	189.52049886621316	78	127
189.53208616780046	189.67142857142858	69	127
189.53208616780046	189.67142857142858	72	127
189.53208616780046	189.67142857142858	78	127
189.67142857142858	189.8455782312925	69	127
189.67142857142858	189.8455782312925	72	127
189.67142857142858	189.8455782312925	78	127
189.85718820861678	190.47251700680272	67	127
189.85718820861678	190.47251700680272	71	127
189.85718820861678	190.47251700680272	79	127
190.0661678004535	190.2287074829932	59	127
190.0661678004535	190.2287074829932	55	127
190.2287074829932	190.47251700680272	55	127
190.2287074829932	190.47251700680272	59	127
190.47251700680272	190.71632653061224	72	127
190.47251700680272	190.71632653061224	69	127
190.47251700680272	190.71632653061224	81	127
190.47251700680272	190.71632653061224	55	127
190.47251700680272	190.71632653061224	59	127
190.71632653061224	190.9833560090703	55	127
190.71632653061224	190.9833560090703	59	127
190.71632653061224	191.21555555555557	71	127
190.71632653061224	191.21555555555557	67	127
190.71632653061224	191.21555555555557	79	127
190.9833560090703	191.21555555555557	55	127
190.9833560090703	191.21555555555557	59	127
191.21555555555557	191.66834467120182	66	127
191.21555555555557	191.66834467120182	69	127
191.21555555555557	191.66834467120182	60	127
191.21555555555557	191.66834467120182	62	127
192.56231292517006	192.957052154195	67	127
192.56231292517006	192.957052154195	71	127
192.80612244897958	192.957052154195	62	127
192.80612244897958	192.957052154195	59	127
192.957052154195	193.20086167800454	59	127
192.957052154195	193.20086167800454	62	127
193.20086167800454	193.38662131519274	59	127
193.20086167800454	193.38662131519274	62	127
193.38662131519274	193.66526077097507	62	127
193.38662131519274	193.66526077097507	59	127
193.66526077097507	193.8742403628118	59	127
193.66526077097507	193.8742403628118	62	127
193.8742403628118	194.36185941043084	50	127
193.8742403628118	194.36185941043084	60	127
193.8742403628118	194.36185941043084	57	127
194.1296598639456	194.36185941043084	78	127
194.1296598639456	194.36185941043084	69	127
194.1296598639456	194.36185941043084	72	127
194.36185941043084	194.51278911564626	69	127
194.36185941043084	194.51278911564626	72	127
194.36185941043084	194.51278911564626	78	127
194.52439909297053	194.67532879818594	69	127
194.52439909297053	194.67532879818594	72	127
194.52439909297053	194.67532879818594	78	127
194.67532879818594	194.95396825396824	69	127
194.67532879818594	194.95396825396824	72	127
194.67532879818594	194.95396825396824	78	127
194.9655782312925	195.2209977324263	78	127
194.9655782312925	195.2209977324263	69	127
194.9655782312925	195.2209977324263	72	127
195.23260770975057	195.85954648526078	67	127
195.23260770975057	195.85954648526078	71	127
195.23260770975057	195.85954648526078	79	127
195.47641723356008	195.56929705215418	55	127
195.47641723356008	195.56929705215418	59	127
195.56929705215418	195.85954648526078	59	127
195.56929705215418	195.85954648526078	55	127
195.85954648526078	196.11496598639457	72	127
195.85954648526078	196.11496598639457	69	127
195.85954648526078	196.11496598639457	81	127
195.85954648526078	196.11496598639457	55	127
195.85954648526078	196.11496598639457	59	127
196.1265759637188	196.31233560090703	59	127
196.1265759637188	196.31233560090703	55	127
196.1265759637188	196.53292517006804	71	127
196.1265759637188	196.53292517006804	67	127
196.1265759637188	196.53292517006804	79	127
196.3239455782313	196.53292517006804	55	127
196.3239455782313	196.53292517006804	59	127
196.54453514739228	197.25274376417232	74	127
196.54453514739228	197.25274376417232	77	127
196.79995464852607	197.06698412698412	44	127
196.79995464852607	197.06698412698412	56	127
197.06698412698412	197.25274376417232	56	127
197.06698412698412	197.25274376417232	44	127
197.25274376417232	197.49655328798187	56	127
197.25274376417232	197.49655328798187	76	127
197.25274376417232	197.49655328798187	79	127
197.25274376417232	197.49655328798187	44	127
197.5081632653061	198.01900226757368	77	127
197.5081632653061	197.74036281179139	44	127
197.5081632653061	197.74036281179139	56	127
197.5081632653061	198.01900226757368	74	127
197.75197278911565	198.01900226757368	56	127
197.75197278911565	198.01900226757368	44	127
198.01900226757368	198.22798185941042	73	127
198.01900226757368	198.22798185941042	76	127
198.01900226757368	198.34408163265306	45	127
198.2395918367347	198.43696145124716	68	127
198.35569160997733	198.62272108843538	57	127
198.44857142857143	198.62272108843538	69	127
198.63433106575962	198.7968707482993	71	127
198.63433106575962	198.8897505668934	45	127
198.80848072562358	198.97102040816327	73	127
198.90136054421768	199.1451700680272	57	127
198.98263038548754	199.1451700680272	74	127
199.15678004535147	199.41219954648525	45	127
199.15678004535147	199.33092970521542	75	127
199.3425396825397	199.48185941043084	76	127
199.42380952380952	199.63278911564626	57	127
199.4934693877551	199.63278911564626	78	127
199.63278911564626	200.06235827664398	78	127
199.63278911564626	199.87659863945578	45	127
199.87659863945578	200.06235827664398	57	127
200.06235827664398	200.29455782312925	45	127
200.06235827664398	201.04920634920634	79	127
200.29455782312925	200.54997732426304	57	127
200.54997732426304	200.79378684807256	45	127
200.79378684807256	201.04920634920634	57	127
201.04920634920634	201.2233560090703	76	127
201.04920634920634	201.29301587301586	45	127
201.23496598639457	201.36267573696145	68	127
201.30462585034013	201.51360544217687	57	127
201.37428571428572	201.51360544217687	69	127
201.52521541950114	201.71097505668934	71	127
201.52521541950114	201.80385487528343	45	127
201.7225850340136	201.89673469387756	73	127
201.8154648526077	202.08249433106576	57	127
201.9083446712018	202.08249433106576	74	127
202.09410430839003	202.26825396825396	75	127
202.09410430839003	202.3611337868481	45	127
202.27986394557823	202.39596371882087	76	127
202.37274376417233	202.53528344671201	57	127
202.39596371882087	202.53528344671201	78	127
202.54689342403628	202.99968253968254	78	127
202.54689342403628	202.80231292517007	45	127
202.80231292517007	202.99968253968254	57	127
202.99968253968254	204.04458049886622	79	127
202.99968253968254	203.27832199546486	45	127
203.27832199546486	203.47569160997733	57	127
203.47569160997733	203.75433106575963	45	127
203.75433106575963	204.04458049886622	57	127
204.04458049886622	204.32321995464852	45	127
204.04458049886622	204.23034013605442	76	127
204.23034013605442	204.41609977324262	68	127
204.32321995464852	204.56702947845804	57	127
204.41609977324262	204.56702947845804	69	127
204.5786394557823	204.741179138322	71	127
204.5786394557823	204.8340589569161	45	127
204.75278911564627	204.9269387755102	73	127
204.84566893424036	205.08947845804988	55	127
204.93854875283446	205.08947845804988	74	127
205.10108843537415	205.2752380952381	75	127
205.10108843537415	205.3681179138322	45	127
205.28684807256235	205.4609977324263	76	127
205.37972789115645	205.57709750566895	52	127
205.4609977324263	205.57709750566895	78	127
205.5887074829932	205.82090702947846	45	127
205.5887074829932	205.76285714285714	79	127
205.7744671201814	205.87895691609978	78	127
205.82090702947846	206.06471655328798	45	127
205.89056689342402	206.06471655328798	76	127
206.07632653061225	206.25047619047618	83	127
206.07632653061225	206.25047619047618	33	127
206.25047619047618	206.4362358276644	81	127
206.25047619047618	206.4362358276644	35	127
206.4362358276644	206.58716553287982	37	127
206.4362358276644	206.58716553287982	79	127
206.58716553287982	206.73809523809524	78	127
206.58716553287982	206.73809523809524	38	127
206.73809523809524	206.90063492063493	76	127
206.73809523809524	206.90063492063493	40	127
206.90063492063493	207.07478458049886	74	127
206.90063492063493	207.07478458049886	42	127
207.07478458049886	207.20249433106576	73	127
207.07478458049886	207.20249433106576	43	127
207.20249433106576	207.3766439909297	71	127
207.20249433106576	207.3766439909297	45	127
207.3766439909297	207.5740136054422	69	127
207.3766439909297	207.5740136054422	47	127
207.5740136054422	207.73655328798185	67	127
207.5740136054422	207.73655328798185	49	127
207.73655328798185	207.86426303854876	66	127
207.73655328798185	207.86426303854876	50	127
207.87587301587303	208.06163265306122	64	127
207.87587301587303	208.06163265306122	52	127
208.0732426303855	208.17773242630386	62	127
208.0732426303855	208.17773242630386	54	127
208.18934240362813	208.3518820861678	61	127
208.18934240362813	208.3518820861678	55	127
208.3518820861678	208.49120181405897	59	127
208.3518820861678	208.49120181405897	56	127
208.5028117913832	208.6421315192744	57	127
208.65374149659863	208.82789115646258	61	127
208.83950113378685	208.978820861678	64	127
208.99043083900227	209.09492063492064	69	127
208.99043083900227	209.09492063492064	57	127
209.09492063492064	209.26907029478457	73	127
209.09492063492064	209.26907029478457	61	127
209.28068027210884	209.4548299319728	76	127
209.28068027210884	209.4548299319728	64	127
209.4548299319728	209.61736961451248	81	127
209.4548299319728	209.61736961451248	69	127
209.62897959183672	209.7682993197279	79	127
209.62897959183672	209.7682993197279	71	127
209.7682993197279	209.9540589569161	76	127
209.7682993197279	209.9540589569161	73	127
209.96566893424037	210.24430839002267	78	127
209.96566893424037	210.24430839002267	74	127
210.31396825396826	210.44167800453513	79	127
210.31396825396826	210.44167800453513	76	127
210.44167800453513	211.4285260770975	78	127
210.44167800453513	211.4285260770975	81	127
211.4285260770975	211.6491156462585	71	127
211.4285260770975	211.6491156462585	83	127
211.4285260770975	211.6491156462585	79	127
211.4285260770975	211.6491156462585	67	127
211.78843537414966	211.9045351473923	81	127
211.78843537414966	211.9045351473923	85	127
211.78843537414966	211.9045351473923	69	127
211.78843537414966	211.9045351473923	73	127
211.91614512471656	212.85655328798185	86	127
211.91614512471656	212.85655328798185	71	127
211.91614512471656	212.85655328798185	74	127
211.91614512471656	212.85655328798185	83	127
212.86816326530612	213.08875283446713	74	127
212.86816326530612	213.08875283446713	67	127
212.86816326530612	213.08875283446713	71	127
213.23968253968255	213.36739229024943	75	127
213.23968253968255	213.36739229024943	67	127
213.23968253968255	213.36739229024943	71	127
213.3790022675737	213.6228117913832	66	127
213.3790022675737	213.6228117913832	76	127
213.3790022675737	213.6228117913832	69	127
213.75052154195012	213.90145124716554	75	127
213.75052154195012	213.90145124716554	66	127
213.75052154195012	213.90145124716554	69	127
213.90145124716554	214.1917006802721	76	127
213.90145124716554	214.1917006802721	66	127
213.90145124716554	214.1917006802721	69	127
214.34263038548752	214.45873015873016	75	127
214.34263038548752	214.45873015873016	78	127
214.34263038548752	214.45873015873016	66	127
214.34263038548752	214.45873015873016	69	127
214.45873015873016	214.91151927437642	75	127
214.45873015873016	214.91151927437642	66	127
214.45873015873016	214.91151927437642	69	127
214.45873015873016	214.91151927437642	78	127
214.91151927437642	215.89836734693878	67	127
214.91151927437642	215.89836734693878	76	127
214.91151927437642	215.89836734693878	79	127
214.91151927437642	215.89836734693878	64	127
215.93319727891156	216.18861678004535	76	127
215.93319727891156	216.18861678004535	79	127
215.93319727891156	216.18861678004535	64	127
215.93319727891156	216.18861678004535	67	127
216.31632653061226	216.4556462585034	69	127
216.31632653061226	216.4556462585034	78	127
216.31632653061226	216.4556462585034	81	127
216.31632653061226	216.4556462585034	66	127
216.46725623582768	217.47732426303855	79	127
216.46725623582768	217.47732426303855	71	127
216.46725623582768	217.47732426303855	67	127
216.46725623582768	217.47732426303855	83	127
217.47732426303855	217.73274376417234	73	127
217.47732426303855	217.73274376417234	85	127
217.47732426303855	217.73274376417234	81	127
217.47732426303855	217.73274376417234	69	127
217.8720634920635	218.03460317460318	83	127
217.8720634920635	218.03460317460318	86	127
217.8720634920635	218.03460317460318	71	127
217.8720634920635	218.03460317460318	74	127
218.03460317460318	218.82408163265305	76	127
218.03460317460318	218.82408163265305	88	127
218.03460317460318	218.82408163265305	85	127
218.03460317460318	218.82408163265305	73	127
218.83569160997732	219.0911111111111	83	127
218.83569160997732	219.0911111111111	86	127
218.83569160997732	219.0911111111111	71	127
218.83569160997732	219.0911111111111	74	127
219.10272108843537	219.36975056689343	73	127
219.10272108843537	219.27687074829933	86	127
219.10272108843537	219.36975056689343	69	127
219.28848072562357	219.45102040816326	85	127
219.3813605442177	219.6367800453515	71	127
219.3813605442177	219.6367800453515	67	127
219.46263038548753	219.6367800453515	83	127
219.6367800453515	219.7877097505669	83	127
219.6367800453515	219.86897959183673	66	127
219.6367800453515	219.86897959183673	69	127
219.7877097505669	219.95024943310656	81	127
219.880589569161	220.10117913832198	64	127
219.880589569161	220.10117913832198	67	127
219.95024943310656	220.10117913832198	79	127
220.11278911564625	220.40303854875285	62	127
220.11278911564625	220.31015873015872	79	127
220.11278911564625	220.40303854875285	66	127
220.321768707483	220.48430839002268	78	127
220.4146485260771	220.64684807256236	61	127
220.4146485260771	220.64684807256236	64	127
220.49591836734695	220.64684807256236	76	127
220.64684807256236	220.8209977324263	76	127
220.64684807256236	220.9487074829932	59	127
220.64684807256236	220.9487074829932	62	127
220.8209977324263	221.05319727891157	74	127
220.9487074829932	221.2273469387755	57	127
220.9487074829932	221.2273469387755	61	127
221.05319727891157	221.2273469387755	73	127
221.2273469387755	221.4479365079365	57	127
221.2273469387755	221.4479365079365	73	127
221.2273469387755	221.4479365079365	61	127
221.45954648526077	221.65691609977324	71	127
221.45954648526077	221.65691609977324	55	127
221.45954648526077	221.65691609977324	59	127
221.6685260770975	221.90072562358276	54	127
221.6685260770975	221.90072562358276	69	127
221.6685260770975	221.90072562358276	57	127
221.91233560090703	222.2025850340136	69	127
221.91233560090703	222.2025850340136	54	127
221.91233560090703	222.2025850340136	57	127
222.2025850340136	222.43478458049887	68	127
222.2025850340136	222.43478458049887	53	127
222.2025850340136	222.43478458049887	56	127
222.43478458049887	222.75986394557822	67	127
222.43478458049887	222.75986394557822	52	127
222.43478458049887	222.75986394557822	55	127
222.7714739229025	223.41002267573697	54	127
222.7714739229025	223.03850340136054	57	127
222.7714739229025	223.41002267573697	50	127
223.03850340136054	223.2126530612245	66	127
223.22426303854874	223.41002267573697	62	127
223.42163265306124	223.5841723356009	57	127
223.59578231292517	223.76993197278912	66	127
223.78154195011336	223.90925170068027	62	127
223.92086167800454	224.09501133786847	57	127
224.10662131519274	224.23433106575965	66	127
224.2459410430839	224.42009070294785	62	127
224.42009070294785	224.60585034013604	55	127
224.42009070294785	225.02380952380952	43	127
224.60585034013604	224.79160997732427	67	127
224.79160997732427	225.02380952380952	62	127
225.02380952380952	225.19795918367348	59	127
225.19795918367348	225.38371882086167	67	127
225.38371882086167	225.55786848072563	64	127
225.55786848072563	225.73201814058956	59	127
225.73201814058956	225.87133786848074	71	127
225.87133786848074	225.98743764172335	67	127
225.98743764172335	226.17319727891157	59	127
225.98743764172335	226.26607709750567	43	127
225.98743764172335	226.26607709750567	55	127
226.1848072562358	226.35895691609977	71	127
226.37056689342404	226.55632653061224	67	127
226.5679365079365	226.84657596371883	47	127
226.5679365079365	226.74208616780047	59	127
226.7536961451247	226.93945578231293	69	127
226.95106575963717	227.07877551020408	66	127
227.09038548752835	227.24131519274377	59	127
227.09038548752835	227.33419501133787	47	127
227.25292517006804	227.42707482993197	69	127
227.43868480725624	227.62444444444444	66	127
227.6360544217687	227.7985941043084	59	127
227.6360544217687	227.90308390022676	40	127
227.6360544217687	227.90308390022676	52	127
227.81020408163266	227.99596371882086	69	127
227.99596371882086	228.19333333333333	66	127
228.19333333333333	228.36748299319729	59	127
228.19333333333333	228.46036281179138	40	127
228.19333333333333	228.46036281179138	52	127
228.36748299319729	228.55324263038548	67	127
228.55324263038548	228.7041723356009	64	127
228.7041723356009	228.88993197278913	59	127
228.88993197278913	229.017641723356	67	127
229.017641723356	229.238231292517	64	127
229.238231292517	229.4239909297052	59	127
229.238231292517	229.5168707482993	40	127
229.238231292517	229.5168707482993	52	127
229.4239909297052	229.6097505668934	67	127
229.6097505668934	229.7722902494331	64	127
229.78390022675737	229.95804988662132	59	127
229.96965986394557	230.13219954648525	67	127
230.13219954648525	230.27151927437643	64	127
230.28312925170067	230.44566893424036	59	127
230.45727891156463	230.63142857142856	67	127
230.64303854875283	230.81718820861678	64	127
230.8404081632653	231.51378684807256	45	127
230.8404081632653	231.04938775510203	55	127
230.8404081632653	231.51378684807256	33	127
231.0609977324263	231.2467573696145	67	127
231.25836734693877	231.51378684807256	64	127
231.52539682539683	232.21038548752836	33	127
231.52539682539683	232.21038548752836	45	127
231.52539682539683	232.48902494331065	55	127
231.52539682539683	232.48902494331065	61	127
231.52539682539683	232.48902494331065	64	127
231.52539682539683	232.48902494331065	67	127
232.48902494331065	232.7560544217687	78	127
232.48902494331065	232.7560544217687	81	127
232.7560544217687	233.02308390022677	76	127
232.7560544217687	233.02308390022677	79	127
233.02308390022677	233.27850340136055	74	127
233.02308390022677	233.27850340136055	78	127
233.27850340136055	233.55714285714285	73	127
233.27850340136055	233.55714285714285	76	127
233.55714285714285	233.81256235827664	71	127
233.55714285714285	233.81256235827664	74	127
233.8241723356009	234.09120181405896	69	127
233.8241723356009	234.09120181405896	73	127
234.10281179138323	234.35823129251702	67	127
234.10281179138323	234.35823129251702	71	127
234.36984126984126	234.59043083900227	66	127
234.36984126984126	234.59043083900227	69	127
234.60204081632654	234.84585034013605	64	127
234.60204081632654	234.84585034013605	67	127
234.85746031746032	235.12448979591838	62	127
234.85746031746032	235.12448979591838	66	127
235.13609977324262	235.42634920634922	61	127
235.13609977324262	235.42634920634922	64	127
235.42634920634922	235.71659863945578	59	127
235.42634920634922	235.71659863945578	62	127
235.71659863945578	235.98362811791384	57	127
235.71659863945578	235.98362811791384	61	127
235.98362811791384	236.28548752834467	55	127
235.98362811791384	236.28548752834467	59	127
236.28548752834467	236.5292970521542	54	127
236.28548752834467	236.5292970521542	57	127
236.5292970521542	236.7731065759637	55	127
236.5292970521542	236.7731065759637	52	127
236.7731065759637	237.01691609977325	50	127
236.7731065759637	237.01691609977325	54	127
237.0285260770975	237.3419954648526	52	127
237.0285260770975	237.3419954648526	49	127
237.35360544217687	237.6554648526077	49	127
237.35360544217687	237.6554648526077	52	127
237.35360544217687	237.6554648526077	55	127
237.66707482993198	238.28240362811792	49	127
237.66707482993198	238.28240362811792	52	127
237.66707482993198	238.28240362811792	55	127
238.28240362811792	238.9790022675737	45	127
238.28240362811792	238.9790022675737	33	127
238.28240362811792	238.9790022675737	49	127
238.28240362811792	238.9790022675737	52	127
238.28240362811792	238.9790022675737	55	127
238.99061224489796	240.03551020408165	61	127
238.99061224489796	240.03551020408165	55	127
238.99061224489796	240.03551020408165	33	127
238.99061224489796	240.03551020408165	45	127
240.03551020408165	240.94108843537416	53	127
240.03551020408165	240.94108843537416	62	127
240.03551020408165	241.78861678004534	34	127
240.03551020408165	241.78861678004534	46	127
240.94108843537416	241.1500680272109	74	127
241.1500680272109	241.3009977324263	75	127
241.3009977324263	241.463537414966	79	127
241.463537414966	241.59124716553288	77	127
241.60285714285715	241.78861678004534	74	127
241.80022675736961	241.95115646258503	74	127
241.80022675736961	243.27469387755102	46	127
241.80022675736961	243.27469387755102	48	127
241.80022675736961	243.27469387755102	51	127
241.9627664399093	242.11369614512472	75	127
242.125306122449	242.29945578231292	72	127
242.29945578231292	242.4387755102041	65	127
242.45038548752834	242.60131519274375	72	127
242.61292517006802	242.7754648526077	74	127
242.78707482993198	242.91478458049886	77	127
242.92639455782313	243.1005442176871	75	127
243.1005442176871	243.27469387755102	72	127
243.27469387755102	243.47206349206348	72	127
243.27469387755102	244.818820861678	50	127
243.27469387755102	244.818820861678	53	127
243.27469387755102	244.818820861678	46	127
243.47206349206348	243.68104308390022	74	127
243.68104308390022	243.8435827664399	70	127
243.8435827664399	244.0293424036281	65	127
244.0293424036281	244.18027210884352	74	127
244.18027210884352	244.3428117913832	75	127
244.3428117913832	244.52857142857144	79	127
244.52857142857144	244.60984126984127	77	127
244.60984126984127	244.818820861678	74	127
244.818820861678	245.37609977324263	54	127
244.818820861678	245.039410430839	79	127
244.818820861678	245.37609977324263	45	127
244.818820861678	245.37609977324263	50	127
245.05102040816325	245.21356009070294	78	127
245.2251700680272	245.37609977324263	74	127
245.37609977324263	245.85210884353742	45	127
245.37609977324263	245.5502494331066	83	127
245.37609977324263	245.85210884353742	54	127
245.37609977324263	245.85210884353742	50	127
245.5502494331066	245.701179138322	81	127
245.701179138322	245.85210884353742	78	127
245.8637188208617	246.06108843537416	81	127
245.8637188208617	246.44421768707483	45	127
245.8637188208617	246.44421768707483	52	127
245.8637188208617	246.44421768707483	55	127
246.0726984126984	246.25845804988663	80	127
246.25845804988663	246.44421768707483	79	127
246.4558276643991	248.22054421768706	50	127
246.4558276643991	246.58353741496597	77	127
246.4558276643991	248.22054421768706	53	127
246.4558276643991	248.22054421768706	46	127
246.5138775510204	246.68802721088434	79	127
246.6067573696145	246.7692970521542	77	127
246.68802721088434	246.83895691609976	79	127
246.78090702947847	246.90861678004535	77	127
246.85056689342403	246.97827664399094	79	127
246.90861678004535	247.05954648526077	77	127
246.98988662131518	247.12920634920636	79	127
247.05954648526077	247.18725623582768	77	127
247.14081632653063	247.23369614512472	79	127
247.18725623582768	247.31496598639455	77	127
247.24530612244897	247.38462585034014	79	127
247.31496598639455	247.46589569160997	77	127
247.3962358276644	247.53555555555556	79	127
247.46589569160997	247.60521541950112	77	127
247.54716553287983	247.66326530612244	79	127
247.60521541950112	247.73292517006803	77	127
247.6748752834467	247.82580498866213	79	127
247.7445351473923	247.89546485260772	77	127
247.82580498866213	247.97673469387755	79	127
247.907074829932	248.04639455782313	77	127
247.97673469387755	248.12766439909296	79	127
248.0580045351474	248.22054421768706	77	127
248.12766439909296	248.30181405895692	79	127
248.23215419501133	248.9984126984127	46	127
248.23215419501133	248.37147392290248	77	127
248.23215419501133	248.9984126984127	48	127
248.23215419501133	248.9984126984127	51	127
248.23215419501133	248.9984126984127	57	127
248.23215419501133	248.9984126984127	53	127
248.30181405895692	248.45274376417234	79	127
248.38308390022675	248.5224036281179	77	127
248.45274376417234	248.60367346938776	79	127
248.53401360544217	248.67333333333335	77	127
248.60367346938776	248.7429931972789	79	127
248.6849433106576	248.82426303854876	77	127
248.75460317460318	248.89392290249432	79	127
248.82426303854876	248.95197278911564	77	127
248.89392290249432	249.02163265306123	79	127
248.95197278911564	249.0912925170068	77	127
249.01002267573696	249.18417233560092	57	127
249.02163265306123	249.16095238095238	79	127
249.0912925170068	249.2422222222222	77	127
249.17256235827665	249.3118820861678	79	127
249.19578231292516	249.3815419501134	58	127
249.2422222222222	249.3815419501134	77	127
249.3118820861678	249.45120181405895	79	127
249.3815419501134	249.5324716553288	77	127
249.3815419501134	249.57891156462586	62	127
249.46281179138322	249.57891156462586	79	127
249.5324716553288	249.64857142857142	77	127
249.57891156462586	249.72984126984127	60	127
249.59052154195012	249.70662131519273	79	127
249.66018140589568	249.77628117913832	77	127
249.70662131519273	249.8459410430839	79	127
249.74145124716554	249.91560090702947	57	127
249.7878911564626	249.91560090702947	77	127
249.8459410430839	249.9736507936508	79	127
249.91560090702947	250.02009070294784	77	127
249.91560090702947	250.07814058956916	57	127
249.9736507936508	250.1013605442177	79	127
250.0317006802721	250.18263038548753	77	127
250.07814058956916	250.20585034013607	58	127
250.1013605442177	250.20585034013607	79	127
250.1942403628118	250.26390022675736	77	127
250.20585034013607	250.33356009070295	79	127
250.20585034013607	250.39160997732426	62	127
250.27551020408163	250.39160997732426	77	127
250.33356009070295	250.44965986394558	79	127
250.39160997732426	250.51931972789114	77	127
250.39160997732426	250.57736961451246	62	127
250.44965986394558	250.600589569161	79	127
250.5309297052154	250.68185941043083	77	127
250.57736961451246	250.79795918367347	58	127
250.61219954648527	250.77473922902493	79	127
250.68185941043083	250.84439909297052	77	127
250.7863492063492	250.92566893424035	79	127
250.80956916099774	251.01854875283448	60	127
250.8560090702948	251.01854875283448	77	127
250.93727891156462	251.0765986394558	79	127
251.01854875283448	251.0998185941043	77	127
251.01854875283448	251.12303854875285	63	127
251.08820861678004	251.1346485260771	79	127
251.0998185941043	251.15786848072563	77	127
251.1346485260771	251.20430839002267	62	127
251.1346485260771	251.18108843537414	79	127
251.15786848072563	251.25074829931972	77	127
251.18108843537414	251.3552380952381	79	127
251.20430839002267	251.4481179138322	58	127
251.262358276644	251.4481179138322	77	127
251.3552380952381	251.4481179138322	79	127
251.45972789115646	251.58743764172337	78	127
251.45972789115646	251.74997732426303	46	127
251.52938775510205	251.6687074829932	79	127
251.5990476190476	251.74997732426303	78	127
251.6687074829932	251.8312471655329	79	127
251.7615873015873	251.90090702947845	78	127
251.7615873015873	252.05183673469386	58	127
251.8312471655329	251.9821768707483	79	127
251.91251700680272	252.05183673469386	78	127
252.06344671201813	252.34208616780046	46	127
252.06344671201813	252.12149659863945	79	127
252.13310657596372	252.2608163265306	81	127
252.2027664399093	252.34208616780046	79	127
252.27242630385487	252.40013605442178	81	127
252.34208616780046	252.4581859410431	79	127
252.34208616780046	252.50462585034015	58	127
252.41174603174602	252.46979591836734	81	127
252.4581859410431	252.50462585034015	79	127
252.46979591836734	252.5742857142857	81	127
252.50462585034015	252.6439455782313	79	127
252.50462585034015	252.79487528344671	46	127
252.58589569160998	252.71360544217688	81	127
252.6439455782313	252.79487528344671	79	127
252.72521541950113	252.85292517006803	81	127
252.79487528344671	252.9225850340136	79	127
252.79487528344671	253.03868480725623	58	127
252.8645351473923	252.99224489795918	81	127
252.93419501133786	253.03868480725623	79	127
253.0502947845805	253.18961451247165	80	127
253.0502947845805	253.3289342403628	47	127
253.1199546485261	253.25927437641724	81	127
253.20122448979592	253.3289342403628	80	127
253.25927437641724	253.41020408163266	81	127
253.34054421768707	253.51469387755103	59	127
253.34054421768707	253.46825396825398	80	127
253.41020408163266	253.46825396825398	81	127
253.46825396825398	253.51469387755103	80	127
253.5263038548753	253.78172335600908	45	127
253.5263038548753	253.65401360544217	81	127
253.59596371882085	253.7120634920635	83	127
253.65401360544217	253.78172335600908	81	127
253.72367346938776	253.85138321995464	83	127
253.78172335600908	253.92104308390023	81	127
253.78172335600908	254.07197278911565	57	127
253.85138321995464	253.99070294784582	83	127
253.92104308390023	254.07197278911565	81	127
254.00231292517006	254.13002267573697	83	127
254.07197278911565	254.1880725623583	81	127
254.07197278911565	254.3041723356009	52	127
254.13002267573697	254.23451247165534	83	127
254.1880725623583	254.3041723356009	81	127
254.2461224489796	254.35061224489795	83	127
254.3041723356009	254.39705215419502	81	127
254.3041723356009	254.53637188208617	64	127
254.35061224489795	254.46671201814058	83	127
254.39705215419502	254.53637188208617	81	127
254.47832199546485	254.62925170068027	83	127
254.54798185941044	254.7105215419501	81	127
254.54798185941044	254.86145124716552	49	127
254.62925170068027	254.79179138321996	83	127
254.72213151927437	254.86145124716552	81	127
254.79179138321996	254.94272108843538	83	127
254.8730612244898	255.0007709750567	81	127
254.8730612244898	255.12848072562358	61	127
254.94272108843538	255.05882086167802	83	127
255.01238095238097	255.12848072562358	81	127
255.05882086167802	255.19814058956916	83	127
255.12848072562358	255.26780045351475	81	127
255.12848072562358	255.41873015873017	55	127
255.19814058956916	255.3374603174603	83	127
255.279410430839	255.41873015873017	81	127
255.34907029478458	255.48839002267573	83	127
255.41873015873017	255.5696598639456	81	127
255.41873015873017	255.69736961451247	67	127
255.5	255.6277097505669	83	127
255.5696598639456	255.69736961451247	81	127
255.63931972789115	255.76702947845806	83	127
255.69736961451247	256.0108390022676	52	127
255.69736961451247	255.85990929705216	81	127
255.77863945578233	255.92956916099774	83	127
255.85990929705216	256.0108390022676	81	127
255.94117913832198	256.08049886621313	83	127
256.0108390022676	256.1965986394558	64	127
256.0108390022676	256.1385487528345	81	127
256.0921088435374	256.15015873015875	83	127
256.1385487528345	256.1965986394558	81	127
256.161768707483	256.24303854875285	83	127
256.20820861678004	256.3126984126984	81	127
256.20820861678004	256.4171882086168	61	127
256.24303854875285	256.3591383219955	83	127
256.3243083900227	256.4171882086168	81	127
256.3591383219955	256.46362811791386	83	127
256.4171882086168	256.5332879818594	81	127
256.4171882086168	256.6726077097506	73	127
256.46362811791386	256.602947845805	83	127
256.5448979591837	256.6726077097506	81	127
256.602947845805	256.7538775510204	83	127
256.68419501133786	256.9512471655329	55	127
256.68419501133786	256.823537414966	81	127
256.7538775510204	256.88156462585033	83	127
256.83514739229025	256.9512471655329	81	127
256.88156462585033	257.02090702947845	83	127
256.96285714285716	257.1021768707483	81	127
256.96285714285716	257.2182766439909	67	127
257.0325170068027	257.1602267573696	83	127
257.1021768707483	257.2182766439909	81	127
257.1718367346939	257.24149659863946	83	127
257.2182766439909	257.4156462585034	64	127
257.2182766439909	257.2995238095238	81	127
257.24149659863946	257.3459863945578	83	127
257.2995238095238	257.4156462585034	81	127
257.3575963718821	257.485306122449	83	127
257.4156462585034	257.56657596371883	81	127
257.4156462585034	257.705873015873	76	127
257.4968934240363	257.6362358276644	83	127
257.56657596371883	257.705873015873	81	127
257.64784580498866	257.74072562358276	83	127
257.705873015873	257.8103628117914	81	127
257.705873015873	257.91485260770975	61	127
257.74072562358276	257.88004535147394	83	127
257.8219954648526	257.91485260770975	81	127
257.88004535147394	257.9961451247166	83	127
257.92648526077096	258.2167120181406	73	127
257.92648526077096	258.06580498866214	81	127
257.9961451247166	258.14707482993197	83	127
258.0774149659864	258.2167120181406	81	127
258.14707482993197	258.2980045351474	83	127
258.2283446712018	258.50698412698415	67	127
258.2283446712018	258.367664399093	81	127
258.2980045351474	258.43732426303853	83	127
258.367664399093	258.50698412698415	81	127
258.43732426303853	258.5766439909297	83	127
258.5185714285714	258.64630385487527	81	127
258.5185714285714	258.73918367346937	79	127
258.588253968254	258.6695238095238	83	127
258.64630385487527	258.73918367346937	81	127
258.6695238095238	258.78562358276645	83	127
258.73918367346937	258.84367346938774	81	127
258.73918367346937	258.9017233560091	64	127
258.7972335600907	258.8901133786848	83	127
258.84367346938774	258.9017233560091	81	127
258.8901133786848	258.9249206349206	83	127
258.9017233560091	259.09909297052155	76	127
258.9017233560091	258.9829931972789	81	127
258.9365306122449	259.0410430839002	83	127
258.9829931972789	259.09909297052155	81	127
259.0526530612245	259.1687528344671	83	127
259.09909297052155	259.19197278911565	81	127
259.09909297052155	259.3428798185941	67	127
259.1687528344671	259.2732426303855	83	127
259.2035827664399	259.3428798185941	81	127
259.2732426303855	259.42417233560093	83	127
259.3545124716553	259.4938321995465	81	127
259.3545124716553	259.64473922902494	79	127
259.42417233560093	259.5751020408163	83	127
259.50544217687076	259.64473922902494	81	127
259.5751020408163	259.72603174603177	83	127
259.65637188208615	259.7956916099773	81	127
259.65637188208615	259.9466213151928	66	127
259.72603174603177	259.8653514739229	83	127
259.7956916099773	259.9466213151928	81	127
259.87696145124715	260.0278911564626	83	127
259.95820861678004	260.23687074829934	78	127
259.95820861678004	260.09755102040816	81	127
260.0278911564626	260.1555782312925	83	127
260.09755102040816	260.23687074829934	81	127
260.1672108843537	260.31814058956917	83	127
260.2484807256236	260.5619274376417	67	127
260.2484807256236	260.3878004535147	82	127
260.32975056689344	260.4806802721088	83	127
260.399410430839	260.5619274376417	82	127
260.4806802721088	260.64321995464854	83	127
260.5619274376417	260.73609977324264	82	127
260.5619274376417	260.91024943310657	79	127
260.6548299319728	260.82897959183674	83	127
260.7477097505669	260.91024943310657	82	127
260.92185941043084	261.18888888888887	67	127
260.92185941043084	261.51396825396824	83	127
261.20049886621314	261.32820861678005	71	127
261.32820861678005	261.4094784580499	74	127
261.4094784580499	261.60684807256234	67	127
261.5255782312925	261.722947845805	86	127
261.722947845805	261.9087074829932	83	127
261.92031746031745	262.46598639455783	79	127
262.46598639455783	262.605306122449	67	127
262.46598639455783	263.1045351473923	79	127
262.6168934240363	262.77945578231294	71	127
262.7910657596372	262.95360544217687	76	127
262.95360544217687	263.18580498866214	67	127
263.1045351473923	263.2902947845805	83	127
263.3019047619048	263.46444444444444	79	127
263.4760544217687	263.96367346938774	76	127
263.975283446712	265.03179138321997	71	127
264.5209523809524	265.03179138321997	57	127
264.5209523809524	265.03179138321997	64	127
265.03179138321997	265.519410430839	73	127
265.03179138321997	265.519410430839	57	127
265.03179138321997	265.519410430839	64	127
265.5310204081633	266.04185941043085	62	127
265.5310204081633	266.04185941043085	74	127
265.5310204081633	266.04185941043085	50	127
266.32049886621314	266.5875283446712	74	127
266.32049886621314	266.5875283446712	62	127
266.5875283446712	266.88938775510206	64	127
266.5875283446712	266.88938775510206	73	127
266.88938775510206	267.17963718820863	72	127
266.88938775510206	267.17963718820863	66	127
267.1912471655329	267.38861678004537	67	127
267.1912471655329	267.38861678004537	71	127
267.40022675736964	267.5627664399093	71	127
267.40022675736964	267.5627664399093	74	127
267.57437641723357	267.7833560090703	74	127
267.57437641723357	267.7833560090703	79	127
267.7949659863946	268.1084353741497	67	127
267.7949659863946	268.1084353741497	71	127
268.74696145124716	268.9559410430839	71	127
268.74696145124716	268.9559410430839	67	127
268.9559410430839	269.15331065759636	71	127
268.9559410430839	269.15331065759636	76	127
269.15331065759636	269.315873015873	76	127
269.15331065759636	269.315873015873	79	127
269.315873015873	269.55965986394557	71	127
269.315873015873	269.55965986394557	67	127
271.0109297052154	271.56820861678005	79	127
271.0109297052154	271.56820861678005	57	127
271.0109297052154	271.56820861678005	64	127
271.5798185941043	272.2764172335601	79	127
271.5798185941043	272.2764172335601	57	127
271.5798185941043	272.2764172335601	64	127
272.28802721088437	272.4621768707483	78	127
272.28802721088437	272.4621768707483	62	127
272.4621768707483	272.6363038548753	76	127
272.4621768707483	272.6363038548753	64	127
272.6479365079365	272.78725623582767	74	127
272.6479365079365	272.78725623582767	66	127
272.78725623582767	272.9614058956916	73	127
272.78725623582767	272.9614058956916	67	127
272.97301587301587	273.1355555555556	74	127
272.97301587301587	273.1355555555556	66	127
273.1355555555556	273.29809523809524	76	127
273.1355555555556	273.29809523809524	64	127
273.3097052154195	273.4954648526077	78	127
273.3097052154195	273.4954648526077	62	127
273.4954648526077	273.6579818594104	76	127
273.4954648526077	273.6579818594104	64	127
273.6579818594104	273.83215419501136	74	127
273.6579818594104	273.83215419501136	66	127
273.8437641723356	273.994693877551	73	127
273.8437641723356	273.994693877551	67	127
273.994693877551	274.168820861678	74	127
273.994693877551	274.168820861678	66	127
274.1804535147392	274.36619047619047	76	127
274.1804535147392	274.36619047619047	64	127
274.36619047619047	274.55197278911567	78	127
274.36619047619047	274.55197278911567	62	127
274.56358276643994	274.6912925170068	79	127
274.56358276643994	274.6912925170068	61	127
274.70290249433106	274.88866213151925	81	127
274.70290249433106	274.88866213151925	59	127
274.88866213151925	275.0395918367347	83	127
274.88866213151925	275.0395918367347	57	127
275.05120181405897	275.1789115646259	85	127
275.05120181405897	275.1789115646259	55	127
275.1789115646259	275.3530612244898	86	127
275.1789115646259	275.3530612244898	54	127
275.3646712018141	275.51560090702947	88	127
275.3646712018141	275.51560090702947	52	127
275.51560090702947	275.71297052154193	90	127
275.51560090702947	275.71297052154193	50	127
275.71297052154193	275.87551020408165	91	127
275.71297052154193	275.87551020408165	49	127
275.87551020408165	276.1773696145125	80	127
275.87551020408165	276.1773696145125	86	127
275.87551020408165	276.1773696145125	92	127
275.87551020408165	276.1773696145125	47	127
276.4908390022676	276.8507482993197	45	127
276.4908390022676	276.8507482993197	81	127
276.4908390022676	276.8507482993197	85	127
276.4908390022676	276.8507482993197	93	127
277.2106575963719	277.4428571428571	62	127
277.2106575963719	277.4428571428571	74	127
277.2106575963719	277.4428571428571	78	127
277.4428571428571	277.7098866213152	76	127
277.4428571428571	277.7098866213152	64	127
277.4428571428571	277.7098866213152	73	127
277.7214965986395	277.8375963718821	74	127
277.7214965986395	277.8375963718821	66	127
277.7214965986395	277.8375963718821	71	127
277.8375963718821	278.0001360544218	73	127
277.8375963718821	278.0001360544218	67	127
277.8375963718821	278.0001360544218	69	127
278.01174603174604	278.13945578231295	74	127
278.01174603174604	278.13945578231295	66	127
278.01174603174604	278.13945578231295	71	127
278.13945578231295	278.29038548752834	76	127
278.13945578231295	278.29038548752834	64	127
278.13945578231295	278.29038548752834	73	127
278.3019954648526	278.4645124716553	78	127
278.3019954648526	278.4645124716553	62	127
278.3019954648526	278.4645124716553	74	127
278.4645124716553	278.63868480725625	76	127
278.4645124716553	278.63868480725625	64	127
278.4645124716553	278.63868480725625	73	127
278.63868480725625	278.76637188208616	71	127
278.63868480725625	278.76637188208616	74	127
278.63868480725625	278.76637188208616	66	127
278.7780045351474	278.9057142857143	67	127
278.7780045351474	278.9057142857143	69	127
278.7780045351474	278.9057142857143	73	127
278.9057142857143	279.05664399092973	66	127
278.9057142857143	279.05664399092973	74	127
278.9057142857143	279.05664399092973	71	127
279.068231292517	279.2424036281179	76	127
279.068231292517	279.2424036281179	64	127
279.068231292517	279.2424036281179	73	127
279.2424036281179	279.4281632653061	78	127
279.2424036281179	279.4281632653061	62	127
279.2424036281179	279.4281632653061	74	127
279.4397732426304	279.60231292517005	76	127
279.4397732426304	279.60231292517005	79	127
279.4397732426304	279.60231292517005	61	127
279.60231292517005	279.77646258503404	81	127
279.60231292517005	279.77646258503404	78	127
279.60231292517005	279.77646258503404	59	127
279.7880498866213	279.96222222222224	79	127
279.7880498866213	279.96222222222224	83	127
279.7880498866213	279.96222222222224	57	127
279.9738321995465	280.14798185941044	81	127
279.9738321995465	280.14798185941044	85	127
279.9738321995465	280.14798185941044	55	127
280.14798185941044	280.2640816326531	83	127
280.14798185941044	280.2640816326531	86	127
280.14798185941044	280.2640816326531	54	127
280.27569160997734	280.46145124716554	52	127
280.27569160997734	280.46145124716554	85	127
280.27569160997734	280.46145124716554	88	127
280.46145124716554	280.58916099773245	86	127
280.46145124716554	280.58916099773245	90	127
280.46145124716554	280.58916099773245	50	127
280.58916099773245	280.77492063492065	88	127
280.58916099773245	280.77492063492065	91	127
280.58916099773245	280.77492063492065	49	127
280.77492063492065	281.0767800453515	80	127
280.77492063492065	281.0767800453515	86	127
280.77492063492065	281.0767800453515	92	127
280.77492063492065	281.0767800453515	47	127
281.3902494331066	281.5643990929705	45	127
281.3902494331066	281.6688888888889	68	127
281.3902494331066	281.6688888888889	80	127
281.5760090702948	281.77337868480726	52	127
281.68049886621316	281.9707482993197	69	127
281.68049886621316	281.9707482993197	81	127
281.77337868480726	281.9707482993197	55	127
281.9707482993197	282.13326530612244	45	127
281.9707482993197	282.4815873015873	83	127
281.9707482993197	282.4815873015873	71	127
282.1448752834467	282.3306575963719	52	127
282.3306575963719	282.4815873015873	55	127
282.4815873015873	283.00403628117914	81	127
282.4815873015873	282.6557142857143	45	127
282.4815873015873	283.00403628117914	69	127
282.6673469387755	282.81827664399094	52	127
282.81827664399094	283.00403628117914	55	127
283.0156462585034	283.2014058956916	45	127
283.0156462585034	283.2942857142857	76	127
283.0156462585034	283.2942857142857	64	127
283.2014058956916	283.3871655328798	48	127
283.30589569161	283.5497052154195	66	127
283.30589569161	283.5497052154195	78	127
283.3987755102041	283.5497052154195	52	127
283.5497052154195	283.72385487528345	45	127
283.5497052154195	284.09537414965985	79	127
283.5497052154195	284.09537414965985	67	127
283.72385487528345	283.85156462585036	50	127
283.8631746031746	284.09537414965985	54	127
284.09537414965985	284.2463038548753	45	127
284.09537414965985	284.47850340136057	78	127
284.09537414965985	284.47850340136057	66	127
284.25791383219956	284.3740136054422	50	127
284.3740136054422	284.47850340136057	54	127
284.49009070294784	284.6526530612245	45	127
284.49009070294784	284.7339229024943	73	127
284.49009070294784	284.7339229024943	61	127
284.6526530612245	284.81519274376416	50	127
284.7455328798186	285.03578231292516	62	127
284.7455328798186	285.03578231292516	74	127
284.8268027210884	285.03578231292516	54	127
285.03578231292516	285.20990929705215	45	127
285.03578231292516	285.558231292517	78	127
285.03578231292516	285.558231292517	66	127
285.20990929705215	285.3840816326531	49	127
285.3840816326531	285.558231292517	55	127
285.558231292517	285.70916099773245	45	127
285.558231292517	286.04585034013604	76	127
285.558231292517	286.04585034013604	64	127
285.7207482993197	285.9065306122449	49	127
285.9065306122449	286.04585034013604	55	127
286.0574603174603	286.61473922902496	70	127
286.0574603174603	286.2548299319728	45	127
286.0574603174603	286.61473922902496	58	127
286.2548299319728	286.42895691609976	49	127
286.440589569161	286.61473922902496	55	127
286.62634920634923	286.80049886621316	45	127
286.62634920634923	287.61319727891157	57	127
286.62634920634923	287.61319727891157	69	127
286.80049886621316	286.9746485260771	50	127
286.98625850340136	287.1487755102041	54	127
287.1487755102041	287.26489795918366	45	127
287.2765079365079	287.4506349206349	50	127
287.4506349206349	287.61319727891157	54	127
287.62480725623584	287.7873469387755	45	127
287.62480725623584	287.7873469387755	57	127
287.79895691609977	287.97308390022675	64	127
287.79895691609977	287.97308390022675	52	127
287.98471655328797	288.1008163265306	67	127
287.98471655328797	288.1008163265306	55	127
288.1008163265306	288.25174603174605	45	127
288.1008163265306	288.25174603174605	57	127
288.25174603174605	288.42589569161	52	127
288.25174603174605	288.42589569161	64	127
288.43750566893425	288.6000453514739	55	127
288.43750566893425	288.6000453514739	67	127
288.6116553287982	288.78578231292516	45	127
288.6116553287982	288.78578231292516	57	127
288.78578231292516	288.93673469387755	52	127
288.78578231292516	288.93673469387755	64	127
288.93673469387755	289.12249433106575	67	127
288.93673469387755	289.12249433106575	55	127
289.13410430839	289.30825396825395	57	127
289.13410430839	289.30825396825395	45	127
289.3198639455782	289.5056009070295	61	127
289.3198639455782	289.5056009070295	49	127
289.5056009070295	289.6913832199547	64	127
289.5056009070295	289.6913832199547	52	127
289.70297052154194	289.8655328798186	57	127
289.70297052154194	289.8655328798186	45	127
289.87714285714287	290.0512925170068	61	127
289.87714285714287	290.0512925170068	49	127
290.06290249433107	290.20222222222225	64	127
290.06290249433107	290.20222222222225	52	127
290.2138095238095	290.3647619047619	45	127
290.2138095238095	290.3647619047619	57	127
290.3763718820862	290.5272789115646	50	127
290.3763718820862	290.5272789115646	62	127
290.53891156462583	290.70145124716555	66	127
290.53891156462583	290.70145124716555	54	127
290.7130612244898	290.8639909297052	57	127
290.7130612244898	290.8639909297052	45	127
290.8756009070295	291.0961904761905	50	127
290.8756009070295	291.0961904761905	62	127
291.10780045351476	291.29356009070295	54	127
291.10780045351476	291.29356009070295	66	127
291.3167800453515	291.4677097505669	57	127
291.3167800453515	291.4677097505669	45	127
291.4677097505669	291.64183673469387	49	127
291.4677097505669	291.64183673469387	61	127
291.64183673469387	291.82761904761907	67	127
291.64183673469387	291.82761904761907	55	127
291.82761904761907	292.02498866213153	57	127
291.82761904761907	292.02498866213153	45	127
292.02498866213153	292.21074829931973	49	127
292.02498866213153	292.21074829931973	61	127
292.21074829931973	292.3616553287982	55	127
292.21074829931973	292.3616553287982	67	127
292.3616553287982	292.5474376417234	45	127
292.3616553287982	292.5474376417234	61	127
292.5474376417234	292.7331972789116	64	127
292.5474376417234	292.7331972789116	49	127
292.7331972789116	292.9189569160998	52	127
292.7331972789116	292.9189569160998	67	127
292.9189569160998	293.0466666666667	66	127
292.9189569160998	293.0466666666667	45	127
293.0466666666667	293.20920634920634	62	127
293.0466666666667	293.20920634920634	50	127
293.2208163265306	293.39496598639454	57	127
293.2208163265306	293.39496598639454	54	127
293.4065759637188	293.5691156462585	45	127
293.4065759637188	293.5691156462585	66	127
293.5807256235828	293.7548752834467	62	127
293.5807256235828	293.7548752834467	50	127
293.766485260771	293.9174149659864	54	127
293.766485260771	293.9174149659864	57	127
293.92902494331065	294.09156462585037	61	127
293.92902494331065	294.09156462585037	45	127
294.10315192743764	294.28893424036283	64	127
294.10315192743764	294.28893424036283	49	127
294.3005215419501	294.4398639455782	52	127
294.3005215419501	294.4398639455782	67	127
294.4398639455782	294.60240362811794	66	127
294.4398639455782	294.60240362811794	45	127
294.6139909297052	294.78816326530614	50	127
294.6139909297052	294.78816326530614	62	127
294.7997732426304	294.9507029478458	54	127
294.7997732426304	294.9507029478458	57	127
294.9507029478458	295.1248299319728	45	127
294.9507029478458	295.1248299319728	66	127
295.1248299319728	295.310612244898	50	127
295.1248299319728	295.310612244898	62	127
295.310612244898	295.4963718820862	54	127
295.310612244898	295.4963718820862	57	127
295.4963718820862	295.69374149659865	61	127
295.4963718820862	295.69374149659865	45	127
295.69374149659865	295.87950113378685	64	127
295.69374149659865	295.87950113378685	49	127
295.87950113378685	296.0536507936508	67	127
295.87950113378685	296.0536507936508	52	127
296.0536507936508	296.22780045351476	66	127
296.0536507936508	296.22780045351476	45	127
296.22780045351476	296.3903401360544	50	127
296.22780045351476	296.3903401360544	62	127
296.3903401360544	296.5760997732426	57	127
296.3903401360544	296.5760997732426	54	127
296.5760997732426	296.7618367346939	66	127
296.5760997732426	296.7618367346939	45	127
296.7618367346939	296.94761904761907	50	127
296.7618367346939	296.94761904761907	62	127
296.95920634920634	297.0869387755102	54	127
296.95920634920634	297.0869387755102	57	127
297.09854875283446	297.27267573696145	45	127
297.09854875283446	297.27267573696145	61	127
297.28430839002266	297.41201814058957	64	127
297.28430839002266	297.41201814058957	49	127
297.42362811791384	297.5745351473923	52	127
297.42362811791384	297.5745351473923	67	127
297.5861678004535	297.73709750566894	66	127
297.5861678004535	297.73709750566894	45	127
297.7487074829932	297.92285714285714	62	127
297.7487074829932	297.92285714285714	50	127
297.9344671201814	298.10861678004534	60	127
297.9344671201814	298.10861678004534	54	127
298.1202267573696	298.2479365079365	45	127
298.1202267573696	298.2479365079365	66	127
298.2595464852608	298.4104761904762	62	127
298.2595464852608	298.4104761904762	50	127
298.42208616780044	298.59621315192743	54	127
298.42208616780044	298.59621315192743	60	127
298.59621315192743	298.77038548752836	66	127
298.59621315192743	298.77038548752836	43	127
298.77038548752836	298.9445351473923	62	127
298.77038548752836	298.9445351473923	50	127
298.9445351473923	299.1186848072562	59	127
298.9445351473923	299.1186848072562	54	127
299.1186848072562	299.30444444444447	63	127
299.1186848072562	299.30444444444447	43	127
299.30444444444447	299.49020408163267	48	127
299.30444444444447	299.49020408163267	60	127
299.49020408163267	299.64113378684806	51	127
299.49020408163267	299.64113378684806	55	127
299.64113378684806	299.8036734693878	43	127
299.64113378684806	299.8036734693878	63	127
299.8036734693878	299.989433106576	48	127
299.8036734693878	299.989433106576	60	127
299.989433106576	300.15197278911563	51	127
299.989433106576	300.15197278911563	55	127
300.15197278911563	300.3261224489796	43	127
300.15197278911563	300.3261224489796	62	127
300.3377097505669	300.50027210884355	47	127
300.3377097505669	300.50027210884355	60	127
300.5118820861678	300.6744217687075	55	127
300.5118820861678	300.6744217687075	50	127
300.68603174603174	300.84854875283446	60	127
300.68603174603174	300.84854875283446	43	127
300.8601814058957	301.03433106575966	46	127
300.8601814058957	301.03433106575966	58	127
301.04594104308393	301.22009070294786	55	127
301.04594104308393	301.22009070294786	50	127
301.2317006802721	301.40585034013606	60	127
301.2317006802721	301.40585034013606	43	127
301.40585034013606	301.59160997732425	46	127
301.40585034013606	301.59160997732425	58	127
301.6032199546485	301.7889795918367	55	127
301.6032199546485	301.7889795918367	50	127
301.7889795918367	301.9863492063492	43	127
301.7889795918367	301.9863492063492	60	127
301.99795918367346	302.2069387755102	46	127
301.99795918367346	302.2069387755102	58	127
302.2069387755102	302.41591836734693	55	127
302.2069387755102	302.41591836734693	50	127
302.4275283446712	302.60167800453513	41	127
302.4275283446712	302.9615873015873	60	127
302.4275283446712	302.9615873015873	57	127
302.6132879818594	302.7874149659864	45	127
302.7990476190476	302.9615873015873	48	127
302.9731972789116	303.5188662131519	84	127
302.9731972789116	303.1473469387755	53	127
302.9731972789116	303.5188662131519	72	127
303.1473469387755	303.344716553288	57	127
303.344716553288	303.5188662131519	60	127
303.5188662131519	303.70460317460316	53	127
303.5188662131519	304.04131519274375	73	127
303.5188662131519	304.04131519274375	85	127
303.70460317460316	303.85555555555555	58	127
303.85555555555555	304.04131519274375	61	127
304.04131519274375	305.12104308390025	72	127
304.04131519274375	304.227052154195	53	127
304.04131519274375	305.12104308390025	84	127
304.227052154195	304.4244217687075	57	127
304.4244217687075	304.6102040816327	60	127
304.6102040816327	304.7959637188209	53	127
304.7959637188209	304.9701133786848	57	127
304.98172335600907	305.12104308390025	60	127
305.1326530612245	305.65507936507936	73	127
305.1326530612245	305.2951927437642	53	127
305.1326530612245	305.65507936507936	85	127
305.30680272108845	305.4693424036281	58	127
305.4809523809524	305.65507936507936	61	127
305.6667120181406	305.84086167800456	53	127
305.6667120181406	306.7232199546485	84	127
305.6667120181406	306.7232199546485	72	127
305.8524489795918	306.02662131519276	57	127
306.02662131519276	306.16591836734693	60	127
306.16591836734693	306.34009070294786	53	127
306.35170068027213	306.52585034013606	57	127
306.53746031746033	306.7232199546485	60	127
306.7232199546485	307.30371882086166	73	127
306.7232199546485	306.9089795918367	53	127
306.7232199546485	307.30371882086166	85	127
306.9089795918367	307.0947392290249	58	127
307.0947392290249	307.30371882086166	61	127
307.30371882086166	308.4531065759637	84	127
307.30371882086166	307.52430839002267	53	127
307.30371882086166	308.4531065759637	72	127
307.52430839002267	307.71006802721087	57	127
307.71006802721087	307.9190476190476	60	127
307.9190476190476	308.0931972789116	53	127
308.0931972789116	308.2673469387755	57	127
308.2673469387755	308.4531065759637	60	127
308.4531065759637	308.61562358276643	53	127
308.4531065759637	308.9639455782313	73	127
308.4531065759637	308.9639455782313	85	127
308.61562358276643	308.7781859410431	58	127
308.78979591836736	308.9639455782313	61	127
308.9871655328798	309.172925170068	53	127
308.9871655328798	310.0320634920635	84	127
308.9871655328798	310.0320634920635	72	127
309.1845351473923	309.34707482993196	57	127
309.3586848072562	309.52122448979594	60	127
309.5328117913832	309.70698412698414	53	127
309.7185941043084	309.8695238095238	57	127
309.88113378684807	310.0320634920635	60	127
310.0436507936508	310.29909297052154	76	127
310.0436507936508	310.20621315192744	53	127
310.0436507936508	310.29909297052154	88	127
310.2178231292517	310.4035827664399	57	127
310.29909297052154	310.57773242630384	89	127
310.29909297052154	310.57773242630384	77	127
310.4035827664399	310.57773242630384	60	127
310.57773242630384	311.0885714285714	79	127
310.57773242630384	310.7634693877551	53	127
310.57773242630384	311.0885714285714	91	127
310.7634693877551	310.937641723356	57	127
310.937641723356	311.0885714285714	60	127
311.0885714285714	311.25111111111113	53	127
311.0885714285714	311.55297052154197	77	127
311.0885714285714	311.55297052154197	89	127
311.25111111111113	311.36721088435377	57	127
311.36721088435377	311.55297052154197	60	127
311.55297052154197	311.7619501133787	53	127
311.7619501133787	311.9477097505669	57	127
311.9477097505669	312.1334693877551	60	127
312.14507936507937	312.3192290249433	53	127
312.33083900226757	312.50496598639455	58	127
312.51659863945576	312.6675283446712	62	127
312.6791383219955	312.8532879818594	53	127
312.8648979591837	313.0158049886621	58	127
313.02743764172334	313.18997732426305	62	127
313.2015873015873	313.42215419501133	81	127
313.2015873015873	313.42215419501133	69	127
313.2015873015873	313.3525170068027	53	127
313.3525170068027	313.51505668934243	58	127
313.43378684807254	313.73562358276644	82	127
313.43378684807254	313.73562358276644	70	127
313.5266439909297	313.73562358276644	62	127
313.74725623582765	313.92140589569163	53	127
313.74725623582765	314.28131519274376	86	127
313.74725623582765	314.28131519274376	74	127
313.92140589569163	314.09555555555556	57	127
314.09555555555556	314.28131519274376	63	127
314.28131519274376	314.47868480725623	53	127
314.28131519274376	314.8153741496599	84	127
314.28131519274376	314.8153741496599	72	127
314.47868480725623	314.6644444444444	57	127
314.6644444444444	314.8153741496599	63	127
314.8153741496599	315.3378231292517	78	127
314.8153741496599	314.9895238095238	53	127
314.8153741496599	315.3378231292517	66	127
314.9895238095238	315.175283446712	57	127
315.175283446712	315.3378231292517	63	127
315.3378231292517	316.3130612244898	65	127
315.3378231292517	315.4887528344671	53	127
315.3378231292517	316.3130612244898	77	127
315.4887528344671	315.6512925170068	58	127
315.6629024943311	315.8138321995465	62	127
315.82544217687075	315.9879818594104	53	127
315.9995918367347	316.1621315192744	58	127
316.17374149659867	316.3130612244898	62	127
316.32467120181406	316.893537414966	78	127
316.32467120181406	316.498820861678	53	127
316.32467120181406	316.893537414966	66	127
316.51043083900225	316.6961678004535	57	127
316.7078004535147	316.893537414966	63	127
316.90514739229025	317.9152380952381	65	127
316.90514739229025	317.05609977324264	53	127
316.90514739229025	317.9152380952381	77	127
317.0677097505669	317.2186394557823	58	127
317.23024943310656	317.381179138322	62	127
317.381179138322	317.54371882086167	53	127
317.54371882086167	317.72947845804987	58	127
317.72947845804987	317.9152380952381	62	127
317.9152380952381	318.43766439909297	66	127
317.9152380952381	318.08938775510205	53	127
317.9152380952381	318.43766439909297	78	127
318.08938775510205	318.24031746031744	57	127
318.24031746031744	318.43766439909297	63	127
318.43766439909297	319.41292517006804	77	127
318.43766439909297	318.6002267573696	53	127
318.43766439909297	319.41292517006804	65	127
318.6002267573696	318.7859863945578	58	127
318.7859863945578	318.971746031746	62	127
318.971746031746	319.13428571428574	53	127
319.145873015873	319.2387755102041	58	127
319.2387755102041	319.41292517006804	62	127
319.4245351473923	319.9237641723356	78	127
319.4245351473923	319.59868480725623	53	127
319.4245351473923	319.9237641723356	66	127
319.6102947845805	319.76120181405895	57	127
319.77283446712016	319.9237641723356	63	127
319.9353741496599	320.99185941043083	65	127
319.9353741496599	320.08630385487527	53	127
319.9353741496599	320.99185941043083	77	127
320.09791383219954	320.295283446712	58	127
320.31850340136054	320.48102040816326	62	127
320.4926530612245	320.63197278911565	53	127
320.6435827664399	320.8061224489796	58	127
320.81773242630385	320.99185941043083	62	127
320.99185941043083	321.2124716553288	53	127
321.2124716553288	321.39820861678004	59	127
321.39820861678004	321.5607709750567	62	127
321.5607709750567	321.7349206349206	53	127
321.7349206349206	321.9206802721088	59	127
321.9206802721088	322.0948299319728	62	127
322.0948299319728	322.26897959183674	53	127
322.26897959183674	322.39668934240365	59	127
322.39668934240365	322.58244897959185	62	127
322.58244897959185	322.7333560090703	53	127
322.58244897959185	323.1513378684807	69	127
322.58244897959185	323.1513378684807	81	127
322.7449886621315	322.93072562358276	59	127
322.942358276644	323.1513378684807	62	127
323.162947845805	324.08013605442176	80	127
323.162947845805	323.33707482993196	52	127
323.162947845805	324.08013605442176	68	127
323.3487074829932	323.4764172335601	59	127
323.48802721088435	323.604126984127	62	127
323.604126984127	323.76666666666665	52	127
323.7782766439909	323.89437641723356	59	127
323.90598639455783	324.08013605442176	62	127
324.091746031746	324.265873015873	52	127
324.2775056689342	324.44004535147394	56	127
324.44004535147394	324.6374149659864	62	127
324.6374149659864	324.79995464852607	52	127
324.79995464852607	324.98571428571427	57	127
324.98571428571427	325.15986394557825	60	127
325.15986394557825	325.3224036281179	52	127
325.3224036281179	325.5197732426304	57	127
325.5197732426304	325.7055328798186	60	127
325.7055328798186	325.9028798185941	52	127
325.7055328798186	326.20473922902494	72	127
325.7055328798186	326.20473922902494	84	127
325.9028798185941	326.06544217687076	57	127
326.06544217687076	326.20473922902494	63	127
326.21637188208615	327.2148299319728	71	127
326.21637188208615	326.37891156462587	52	127
326.21637188208615	327.2148299319728	83	127
326.39052154195014	326.52984126984126	56	127
326.5414512471655	326.70399092970524	64	127
326.7155782312925	326.8665306122449	52	127
326.87814058956917	327.04068027210883	56	127
327.0522902494331	327.2148299319728	64	127
327.2264172335601	327.35414965986394	52	127
327.3657596371882	327.5050793650794	57	127
327.51668934240365	327.6908390022676	63	127
327.70244897959185	327.8649886621315	52	127
327.8649886621315	328.0507482993197	56	127
328.0507482993197	328.23650793650796	64	127
328.23650793650796	328.42226757369616	52	127
328.42226757369616	328.57319727891155	56	127
328.57319727891155	328.7589342403628	64	127
328.7589342403628	328.9098866213152	52	127
328.7589342403628	329.2233560090703	72	127
328.7589342403628	329.2233560090703	84	127
328.9098866213152	329.0840362811791	57	127
329.0840362811791	329.2233560090703	63	127
329.2233560090703	330.314693877551	83	127
329.2233560090703	329.4439455782313	52	127
329.2233560090703	330.314693877551	71	127
329.4439455782313	329.61809523809524	56	127
329.61809523809524	329.78061224489795	64	127
329.79224489795916	329.93156462585034	52	127
329.9431746031746	330.11732426303854	56	127
330.1289342403628	330.314693877551	64	127
330.3263038548753	330.488843537415	52	127
330.50043083900226	330.6746031746032	57	127
330.68621315192746	330.8487528344671	63	127
330.8603628117914	331.0345124716553	52	127
331.0461224489796	331.2318820861678	56	127
331.24349206349206	331.41761904761904	64	127
331.41761904761904	331.6150113378685	68	127
331.41761904761904	331.6150113378685	52	127
331.41761904761904	331.6150113378685	64	127
331.6150113378685	331.8007709750567	63	127
331.6150113378685	331.8007709750567	66	127
331.6150113378685	331.8007709750567	54	127
331.8007709750567	331.97492063492064	64	127
331.8007709750567	331.97492063492064	61	127
331.8007709750567	331.97492063492064	56	127
331.97492063492064	332.13743764172335	63	127
331.97492063492064	332.13743764172335	59	127
331.97492063492064	332.13743764172335	57	127
332.13743764172335	332.3	61	127
332.13743764172335	332.3	64	127
332.13743764172335	332.3	56	127
332.3116099773243	332.4857596371882	66	127
332.3116099773243	332.4857596371882	63	127
332.3116099773243	332.4857596371882	54	127
332.4973696145125	332.9965986394558	68	127
332.4973696145125	332.9965986394558	64	127
332.4973696145125	332.9965986394558	52	127
332.9965986394558	333.1707482993197	64	127
332.9965986394558	333.1707482993197	68	127
333.182358276644	333.3448979591837	63	127
333.182358276644	333.3448979591837	66	127
333.35648526077097	333.5190476190476	61	127
333.35648526077097	333.5190476190476	64	127
333.5306575963719	333.6699546485261	59	127
333.5306575963719	333.6699546485261	63	127
333.6815873015873	333.85573696145127	64	127
333.6815873015873	333.85573696145127	61	127
333.86732426303854	334.0298866213152	66	127
333.86732426303854	334.0298866213152	63	127
334.04149659863947	334.4826530612245	64	127
334.04149659863947	334.4826530612245	68	127
334.4826530612245	334.6684353741497	64	127
334.4826530612245	334.6684353741497	68	127
334.4826530612245	334.6684353741497	52	127
334.6684353741497	334.8541950113379	66	127
334.6684353741497	334.8541950113379	54	127
334.6684353741497	334.8541950113379	63	127
334.8541950113379	335.01673469387754	61	127
334.8541950113379	335.01673469387754	56	127
334.8541950113379	335.01673469387754	64	127
335.01673469387754	335.2024716553288	59	127
335.01673469387754	335.2024716553288	63	127
335.01673469387754	335.2024716553288	57	127
335.2024716553288	335.36503401360545	64	127
335.2024716553288	335.36503401360545	56	127
335.2024716553288	335.36503401360545	61	127
335.36503401360545	335.5391836734694	66	127
335.36503401360545	335.5391836734694	54	127
335.36503401360545	335.5391836734694	63	127
335.5391836734694	335.6901133786848	68	127
335.5391836734694	335.6901133786848	64	127
335.5391836734694	335.6901133786848	52	127
335.6901133786848	335.875873015873	66	127
335.6901133786848	335.875873015873	69	127
335.6901133786848	335.875873015873	40	127
335.875873015873	336.05002267573695	64	127
335.875873015873	336.05002267573695	68	127
335.875873015873	336.05002267573695	52	127
336.05002267573695	336.23578231292515	66	127
336.05002267573695	336.23578231292515	69	127
336.05002267573695	336.23578231292515	51	127
336.2473922902494	336.4215192743764	40	127
336.2473922902494	336.4215192743764	68	127
336.2473922902494	336.4215192743764	71	127
336.4215192743764	336.5724716553288	66	127
336.4215192743764	336.5724716553288	51	127
336.4215192743764	336.5724716553288	69	127
336.58408163265307	336.758231292517	50	127
336.58408163265307	336.758231292517	68	127
336.58408163265307	336.758231292517	71	127
336.76984126984127	336.978820861678	69	127
336.76984126984127	336.978820861678	72	127
336.76984126984127	336.978820861678	40	127
336.9904308390023	337.199410430839	71	127
336.9904308390023	337.199410430839	50	127
336.9904308390023	337.199410430839	68	127
337.22263038548755	337.75666666666666	45	127
337.22263038548755	337.75666666666666	48	127
337.22263038548755	337.75666666666666	69	127
337.22263038548755	337.75666666666666	72	127
337.7682993197279	337.8031292517007	84	127
337.7682993197279	337.8031292517007	69	127
337.7682993197279	337.8031292517007	81	127
337.81473922902495	337.9888888888889	71	127
337.81473922902495	337.9888888888889	80	127
337.81473922902495	337.9888888888889	83	127
338.00049886621315	338.16301587301587	78	127
338.00049886621315	338.16301587301587	72	127
338.00049886621315	338.16301587301587	81	127
338.1746485260771	338.302358276644	74	127
338.1746485260771	338.302358276644	76	127
338.1746485260771	338.302358276644	80	127
338.31396825396826	338.47648526077097	72	127
338.31396825396826	338.47648526077097	81	127
338.31396825396826	338.47648526077097	78	127
338.4881179138322	338.63904761904763	83	127
338.4881179138322	338.63904761904763	71	127
338.4881179138322	338.63904761904763	80	127
338.6506575963719	339.1614965986395	84	127
338.6506575963719	339.1614965986395	69	127
338.6506575963719	339.1614965986395	81	127
339.17310657596374	339.3356462585034	72	127
339.17310657596374	339.3356462585034	69	127
339.3472562358277	339.50979591836733	71	127
339.3472562358277	339.50979591836733	68	127
339.50979591836733	339.67233560090705	69	127
339.50979591836733	339.67233560090705	66	127
339.67233560090705	339.8697052154195	64	127
339.67233560090705	339.8697052154195	68	127
339.8697052154195	340.0206349206349	69	127
339.8697052154195	340.0206349206349	66	127
340.0206349206349	340.1831746031746	71	127
340.0206349206349	340.1831746031746	68	127
340.1831746031746	340.70562358276646	69	127
340.1831746031746	340.70562358276646	72	127
340.70562358276646	340.89138321995466	81	127
340.70562358276646	340.89138321995466	84	127
340.70562358276646	340.89138321995466	69	127
340.89138321995466	341.07714285714286	83	127
340.89138321995466	341.07714285714286	71	127
340.89138321995466	341.07714285714286	80	127
341.07714285714286	341.18163265306123	72	127
341.07714285714286	341.18163265306123	78	127
341.07714285714286	341.18163265306123	81	127
341.1932426303855	341.3441723356009	76	127
341.1932426303855	341.3441723356009	80	127
341.1932426303855	341.3441723356009	74	127
341.35578231292516	341.5183219954649	72	127
341.35578231292516	341.5183219954649	78	127
341.35578231292516	341.5183219954649	81	127
341.52993197278914	341.66925170068026	83	127
341.52993197278914	341.66925170068026	71	127
341.52993197278914	341.66925170068026	80	127
341.68086167800453	341.85501133786846	81	127
341.68086167800453	341.85501133786846	84	127
341.68086167800453	341.85501133786846	69	127
341.85501133786846	342.02916099773245	83	127
341.85501133786846	342.02916099773245	86	127
341.85501133786846	342.02916099773245	57	127
342.0407709750567	342.2033106575964	84	127
342.0407709750567	342.2033106575964	81	127
342.0407709750567	342.2033106575964	69	127
342.21492063492065	342.3890702947846	68	127
342.21492063492065	342.3890702947846	83	127
342.21492063492065	342.3890702947846	86	127
342.40068027210884	342.5748299319728	88	127
342.40068027210884	342.5748299319728	57	127
342.40068027210884	342.5748299319728	84	127
342.58643990929704	342.74897959183676	86	127
342.58643990929704	342.74897959183676	83	127
342.58643990929704	342.74897959183676	68	127
342.74897959183676	342.89990929705215	85	127
342.74897959183676	342.89990929705215	88	127
342.74897959183676	342.89990929705215	67	127
342.89990929705215	343.07403628117913	57	127
342.89990929705215	343.07403628117913	86	127
342.89990929705215	343.07403628117913	89	127
343.08566893424035	343.28301587301587	88	127
343.08566893424035	343.28301587301587	67	127
343.08566893424035	343.28301587301587	85	127
343.2946485260771	343.8170975056689	89	127
343.2946485260771	343.8170975056689	86	127
343.2946485260771	343.8170975056689	62	127
343.2946485260771	343.8170975056689	65	127
343.8170975056689	344.0028571428571	62	127
343.8170975056689	344.0028571428571	74	127
343.8170975056689	344.0028571428571	77	127
344.0028571428571	344.1886167800454	76	127
344.0028571428571	344.1886167800454	73	127
344.0028571428571	344.1886167800454	64	127
344.1886167800454	344.3743764172336	74	127
344.1886167800454	344.3743764172336	65	127
344.1886167800454	344.3743764172336	71	127
344.3743764172336	344.5601360544218	69	127
344.3743764172336	344.5601360544218	73	127
344.3743764172336	344.5601360544218	67	127
344.5601360544218	344.74589569161	74	127
344.5601360544218	344.74589569161	71	127
344.5601360544218	344.74589569161	65	127
344.74589569161	344.9084126984127	64	127
344.74589569161	344.9084126984127	76	127
344.74589569161	344.9084126984127	73	127
344.9200453514739	345.3380045351474	74	127
344.9200453514739	345.3380045351474	77	127
344.9200453514739	345.3380045351474	62	127
345.34961451247165	345.51215419501136	65	127
345.34961451247165	345.51215419501136	62	127
345.52374149659863	345.69791383219956	61	127
345.52374149659863	345.69791383219956	64	127
345.70952380952383	345.895283446712	62	127
345.70952380952383	345.895283446712	59	127
345.9068934240363	346.0578231292517	61	127
345.9068934240363	346.0578231292517	57	127
346.06943310657596	346.25519274376416	62	127
346.06943310657596	346.25519274376416	59	127
346.2668027210884	346.4409297052154	61	127
346.2668027210884	346.4409297052154	64	127
346.4525623582766	346.88213151927437	62	127
346.4525623582766	346.88213151927437	65	127
346.88213151927437	347.07950113378683	74	127
346.88213151927437	347.07950113378683	77	127
346.88213151927437	347.07950113378683	62	127
347.07950113378683	347.2304308390023	76	127
347.07950113378683	347.2304308390023	73	127
347.07950113378683	347.2304308390023	64	127
347.2304308390023	347.4161904761905	65	127
347.2304308390023	347.4161904761905	74	127
347.2304308390023	347.4161904761905	71	127
347.4161904761905	347.57873015873014	69	127
347.4161904761905	347.57873015873014	73	127
347.4161904761905	347.57873015873014	67	127
347.57873015873014	347.7644897959184	74	127
347.57873015873014	347.7644897959184	65	127
347.57873015873014	347.7644897959184	71	127
347.7644897959184	347.9386394557823	76	127
347.7644897959184	347.9386394557823	73	127
347.7644897959184	347.9386394557823	64	127
347.9386394557823	348.0779365079365	62	127
347.9386394557823	348.0779365079365	78	127
347.9386394557823	348.0779365079365	74	127
348.0779365079365	348.2288888888889	76	127
348.0779365079365	348.2288888888889	79	127
348.0779365079365	348.2288888888889	50	127
348.24049886621316	348.4146485260771	74	127
348.24049886621316	348.4146485260771	62	127
348.24049886621316	348.4146485260771	78	127
348.42625850340136	348.6004081632653	61	127
348.42625850340136	348.6004081632653	76	127
348.42625850340136	348.6004081632653	79	127
348.61201814058956	348.762947845805	81	127
348.61201814058956	348.762947845805	50	127
348.61201814058956	348.762947845805	78	127
348.77455782312927	348.93709750566893	76	127
348.77455782312927	348.93709750566893	61	127
348.77455782312927	348.93709750566893	79	127
348.9487074829932	349.12285714285713	60	127
348.9487074829932	349.12285714285713	78	127
348.9487074829932	349.12285714285713	81	127
349.1344671201814	349.3085941043084	83	127
349.1344671201814	349.3085941043084	79	127
349.1344671201814	349.3085941043084	50	127
349.3202267573696	349.4943764172336	81	127
349.3202267573696	349.4943764172336	60	127
349.3202267573696	349.4943764172336	78	127
349.50598639455785	349.6685260770975	81	127
349.50598639455785	349.6685260770975	59	127
349.50598639455785	349.6685260770975	78	127
349.6801360544218	349.81943310657596	83	127
349.6801360544218	349.81943310657596	51	127
349.6801360544218	349.81943310657596	79	127
349.83106575963717	350.00521541950116	78	127
349.83106575963717	350.00521541950116	59	127
349.83106575963717	350.00521541950116	81	127
350.00521541950116	350.19097505668935	78	127
350.00521541950116	350.19097505668935	81	127
350.00521541950116	350.19097505668935	59	127
350.19097505668935	350.3883446712018	51	127
350.19097505668935	350.3883446712018	83	127
350.19097505668935	350.3883446712018	79	127
350.3883446712018	350.56249433106575	81	127
350.3883446712018	350.56249433106575	78	127
350.3883446712018	350.56249433106575	59	127
350.56249433106575	350.73662131519274	78	127
350.56249433106575	350.73662131519274	59	127
350.56249433106575	350.73662131519274	81	127
350.73662131519274	350.8991836734694	51	127
350.73662131519274	350.8991836734694	79	127
350.73662131519274	350.8991836734694	83	127
350.8991836734694	351.0268934240363	78	127
350.8991836734694	351.0268934240363	59	127
350.8991836734694	351.0268934240363	81	127
351.0268934240363	351.2126530612245	79	127
351.0268934240363	351.2126530612245	76	127
351.0268934240363	351.2126530612245	59	127
351.2126530612245	351.37519274376416	81	127
351.2126530612245	351.37519274376416	52	127
351.2126530612245	351.37519274376416	78	127
351.37519274376416	351.5377324263039	76	127
351.37519274376416	351.5377324263039	79	127
351.37519274376416	351.5377324263039	59	127
351.5377324263039	351.70027210884354	79	127
351.5377324263039	351.70027210884354	59	127
351.5377324263039	351.70027210884354	76	127
351.7118820861678	351.851201814059	81	127
351.7118820861678	351.851201814059	52	127
351.7118820861678	351.851201814059	78	127
351.86278911564625	352.0369614512472	59	127
351.86278911564625	352.0369614512472	76	127
351.86278911564625	352.0369614512472	79	127
352.04857142857145	352.2111111111111	76	127
352.04857142857145	352.2111111111111	79	127
352.04857142857145	352.2111111111111	59	127
352.2227210884354	352.36204081632656	81	127
352.2227210884354	352.36204081632656	52	127
352.2227210884354	352.36204081632656	78	127
352.3736281179138	352.54780045351475	59	127
352.3736281179138	352.54780045351475	76	127
352.3736281179138	352.54780045351475	79	127
352.559410430839	352.73356009070295	79	127
352.559410430839	352.73356009070295	76	127
352.559410430839	352.73356009070295	57	127
352.7451700680272	352.8844671201814	81	127
352.7451700680272	352.8844671201814	45	127
352.7451700680272	352.8844671201814	78	127
352.8960997732426	352.98895691609977	57	127
352.8960997732426	352.98895691609977	79	127
352.8960997732426	352.98895691609977	76	127
353.000589569161	353.1631292517007	57	127
353.000589569161	353.1631292517007	76	127
353.000589569161	353.1631292517007	79	127
353.17473922902496	353.37210884353743	45	127
353.17473922902496	353.37210884353743	78	127
353.17473922902496	353.37210884353743	81	127
353.37210884353743	353.5346485260771	79	127
353.37210884353743	353.5346485260771	57	127
353.37210884353743	353.5346485260771	76	127
353.5346485260771	353.662358276644	57	127
353.5346485260771	353.662358276644	76	127
353.5346485260771	353.662358276644	79	127
353.67396825396827	353.85972789115647	78	127
353.67396825396827	353.85972789115647	81	127
353.67396825396827	353.85972789115647	45	127
353.87133786848074	354.0687074829932	76	127
353.87133786848074	354.0687074829932	79	127
353.87133786848074	354.0687074829932	57	127
354.0803174603175	354.2660770975057	78	127
354.0803174603175	354.2660770975057	81	127
354.0803174603175	354.2660770975057	50	127
354.2660770975057	354.45183673469387	83	127
354.2660770975057	354.45183673469387	38	127
354.2660770975057	354.45183673469387	79	127
354.46344671201814	354.6027664399093	78	127
354.46344671201814	354.6027664399093	81	127
354.46344671201814	354.6027664399093	50	127
354.6027664399093	354.77691609977325	78	127
354.6027664399093	354.77691609977325	81	127
354.6027664399093	354.77691609977325	50	127
354.7885260770975	354.96267573696144	83	127
354.7885260770975	354.96267573696144	79	127
354.7885260770975	354.96267573696144	38	127
354.9742857142857	355.12521541950116	81	127
354.9742857142857	355.12521541950116	50	127
354.9742857142857	355.12521541950116	78	127
355.12521541950116	355.27614512471655	78	127
355.12521541950116	355.27614512471655	81	127
355.12521541950116	355.27614512471655	50	127
355.2877551020408	355.473514739229	83	127
355.2877551020408	355.473514739229	38	127
355.2877551020408	355.473514739229	79	127
355.4851247165533	355.63605442176873	81	127
355.4851247165533	355.63605442176873	50	127
355.4851247165533	355.63605442176873	78	127
355.63605442176873	355.82181405895693	79	127
355.63605442176873	355.82181405895693	50	127
355.63605442176873	355.82181405895693	83	127
355.8334240362812	356.00757369614513	81	127
355.8334240362812	356.00757369614513	84	127
355.8334240362812	356.00757369614513	38	127
356.0191836734694	356.1933333333333	50	127
356.0191836734694	356.1933333333333	79	127
356.0191836734694	356.1933333333333	83	127
356.1933333333333	356.32104308390024	79	127
356.1933333333333	356.32104308390024	83	127
356.1933333333333	356.32104308390024	50	127
356.3326530612245	356.49519274376416	84	127
356.3326530612245	356.49519274376416	38	127
356.3326530612245	356.49519274376416	81	127
356.50680272108843	356.66931972789115	79	127
356.50680272108843	356.66931972789115	83	127
356.50680272108843	356.66931972789115	50	127
356.66931972789115	356.80866213151927	79	127
356.66931972789115	356.80866213151927	83	127
356.66931972789115	356.80866213151927	50	127
356.82027210884354	356.9828117913832	84	127
356.82027210884354	356.9828117913832	38	127
356.82027210884354	356.9828117913832	81	127
356.99442176870747	357.16857142857145	83	127
356.99442176870747	357.16857142857145	79	127
356.99442176870747	357.16857142857145	50	127
357.16857142857145	357.3427210884354	81	127
357.16857142857145	357.3427210884354	84	127
357.16857142857145	357.3427210884354	50	127
357.35433106575965	357.49362811791383	83	127
357.35433106575965	357.49362811791383	86	127
357.35433106575965	357.49362811791383	38	127
357.49362811791383	357.6561904761905	81	127
357.49362811791383	357.6561904761905	50	127
357.49362811791383	357.6561904761905	84	127
357.6561904761905	357.8303401360544	81	127
357.6561904761905	357.8303401360544	84	127
357.6561904761905	357.8303401360544	50	127
357.8419501133787	358.0160997732426	83	127
357.8419501133787	358.0160997732426	86	127
357.8419501133787	358.0160997732426	38	127
358.0160997732426	358.16702947845806	81	127
358.0160997732426	358.16702947845806	50	127
358.0160997732426	358.16702947845806	84	127
358.16702947845806	358.36439909297053	81	127
358.16702947845806	358.36439909297053	84	127
358.16702947845806	358.36439909297053	50	127
358.3760090702948	358.561768707483	83	127
358.3760090702948	358.561768707483	86	127
358.3760090702948	358.561768707483	38	127
358.561768707483	358.72430839002266	81	127
358.561768707483	358.72430839002266	50	127
358.561768707483	358.72430839002266	84	127
358.72430839002266	358.9100680272109	84	127
358.72430839002266	358.9100680272109	90	127
358.72430839002266	358.9100680272109	81	127
358.9100680272109	359.0958276643991	86	127
358.9100680272109	359.0958276643991	91	127
358.9100680272109	359.0958276643991	83	127
359.1074376417234	359.30480725623585	90	127
359.1074376417234	359.30480725623585	81	127
359.1074376417234	359.30480725623585	84	127
359.3164172335601	359.5021768707483	84	127
359.3164172335601	359.5021768707483	90	127
359.3164172335601	359.5021768707483	81	127
359.5021768707483	359.6531065759637	86	127
359.5021768707483	359.6531065759637	91	127
359.5021768707483	359.6531065759637	83	127
359.6531065759637	359.8156462585034	84	127
359.6531065759637	359.8156462585034	90	127
359.6531065759637	359.8156462585034	81	127
359.8272562358277	360.0362358276644	90	127
359.8272562358277	360.0362358276644	81	127
359.8272562358277	360.0362358276644	84	127
360.0362358276644	360.24519274376416	86	127
360.0362358276644	360.24519274376416	83	127
360.0362358276644	360.24519274376416	91	127
360.2568253968254	360.39614512471655	84	127
360.2568253968254	360.39614512471655	90	127
360.2568253968254	360.39614512471655	81	127
360.4077551020408	360.61673469387756	81	127
360.4077551020408	360.61673469387756	84	127
360.4077551020408	360.61673469387756	50	127
360.62834467120183	360.81410430839003	83	127
360.62834467120183	360.81410430839003	86	127
360.62834467120183	360.81410430839003	38	127
360.8257142857143	361.0114739229025	81	127
360.8257142857143	361.0114739229025	84	127
360.8257142857143	361.0114739229025	50	127
361.02308390022677	361.1739909297052	81	127
361.02308390022677	361.1739909297052	84	127
361.02308390022677	361.1739909297052	50	127
361.1739909297052	361.3249433106576	83	127
361.1739909297052	361.3249433106576	86	127
361.1739909297052	361.3249433106576	38	127
361.33655328798187	361.4526530612245	81	127
361.33655328798187	361.4526530612245	84	127
361.33655328798187	361.4526530612245	50	127
361.4642630385488	361.56875283446715	81	127
361.4642630385488	361.56875283446715	84	127
361.4642630385488	361.56875283446715	50	127
361.56875283446715	361.7661224489796	83	127
361.56875283446715	361.7661224489796	86	127
361.56875283446715	361.7661224489796	38	127
361.7777097505669	361.9634920634921	81	127
361.7777097505669	361.9634920634921	84	127
361.7777097505669	361.9634920634921	50	127
361.97510204081635	362.12603174603174	84	127
361.97510204081635	362.12603174603174	90	127
361.97510204081635	362.12603174603174	81	127
362.12603174603174	362.30018140589567	91	127
362.12603174603174	362.30018140589567	83	127
362.12603174603174	362.30018140589567	86	127
362.30018140589567	362.4627210884354	90	127
362.30018140589567	362.4627210884354	84	127
362.30018140589567	362.4627210884354	81	127
362.4627210884354	362.6368707482993	84	127
362.4627210884354	362.6368707482993	90	127
362.4627210884354	362.6368707482993	81	127
362.6368707482993	362.79938775510203	86	127
362.6368707482993	362.79938775510203	91	127
362.6368707482993	362.79938775510203	83	127
362.79938775510203	362.97356009070296	84	127
362.79938775510203	362.97356009070296	90	127
362.79938775510203	362.97356009070296	81	127
362.97356009070296	363.11285714285714	83	127
362.97356009070296	363.11285714285714	79	127
362.97356009070296	363.11285714285714	88	127
363.11285714285714	363.29863945578234	84	127
363.11285714285714	363.29863945578234	90	127
363.11285714285714	363.29863945578234	81	127
363.29863945578234	363.5076190476191	83	127
363.29863945578234	363.5076190476191	88	127
363.29863945578234	363.5076190476191	79	127
363.5076190476191	363.681768707483	81	127
363.5076190476191	363.681768707483	86	127
363.5076190476191	363.681768707483	78	127
363.681768707483	363.79786848072564	83	127
363.681768707483	363.79786848072564	79	127
363.681768707483	363.79786848072564	88	127
363.8094784580499	363.97201814058957	81	127
363.8094784580499	363.97201814058957	86	127
363.8094784580499	363.97201814058957	78	127
363.98362811791384	364.1345351473923	81	127
363.98362811791384	364.1345351473923	86	127
363.98362811791384	364.1345351473923	78	127
364.1461678004535	364.2854875283447	88	127
364.1461678004535	364.2854875283447	79	127
364.1461678004535	364.2854875283447	83	127
364.29709750566894	364.4712471655329	81	127
364.29709750566894	364.4712471655329	86	127
364.29709750566894	364.4712471655329	78	127
364.48285714285714	364.65700680272107	79	127
364.48285714285714	364.65700680272107	84	127
364.48285714285714	364.65700680272107	76	127
364.66861678004534	364.83115646258506	81	127
364.66861678004534	364.83115646258506	86	127
364.66861678004534	364.83115646258506	78	127
364.8427437641723	365.01691609977325	84	127
364.8427437641723	365.01691609977325	76	127
364.8427437641723	365.01691609977325	79	127
365.0285260770975	365.2142857142857	84	127
365.0285260770975	365.2142857142857	75	127
365.0285260770975	365.2142857142857	79	127
365.22589569161	365.3768253968254	86	127
365.22589569161	365.3768253968254	78	127
365.22589569161	365.3768253968254	74	127
365.38843537414965	365.55097505668937	84	127
365.38843537414965	365.55097505668937	79	127
365.38843537414965	365.55097505668937	75	127
365.55097505668937	365.65546485260774	78	127
365.55097505668937	365.65546485260774	74	127
365.55097505668937	365.65546485260774	86	127
365.65546485260774	365.8528344671202	84	127
365.65546485260774	365.8528344671202	75	127
365.65546485260774	365.8528344671202	79	127
365.8528344671202	366.02698412698413	86	127
365.8528344671202	366.02698412698413	78	127
365.8528344671202	366.02698412698413	74	127
366.02698412698413	366.21274376417233	84	127
366.02698412698413	366.21274376417233	79	127
366.02698412698413	366.21274376417233	75	127
366.21274376417233	366.3868707482993	86	127
366.21274376417233	366.3868707482993	78	127
366.21274376417233	366.3868707482993	74	127
366.3868707482993	366.549433106576	84	127
366.3868707482993	366.549433106576	75	127
366.3868707482993	366.549433106576	79	127
366.549433106576	366.7235827664399	78	127
366.549433106576	366.7235827664399	86	127
366.549433106576	366.7235827664399	74	127
366.7235827664399	366.87451247165535	84	127
366.7235827664399	366.87451247165535	79	127
366.7235827664399	366.87451247165535	75	127
366.87451247165535	367.0486621315193	78	127
366.87451247165535	367.0486621315193	74	127
366.87451247165535	367.0486621315193	86	127
367.0486621315193	367.1763718820862	84	127
367.0486621315193	367.1763718820862	79	127
367.0486621315193	367.1763718820862	75	127
367.1763718820862	367.3505215419501	86	127
367.1763718820862	367.3505215419501	78	127
367.1763718820862	367.3505215419501	74	127
367.3505215419501	367.55950113378685	84	127
367.3505215419501	367.55950113378685	81	127
367.3505215419501	367.55950113378685	78	127
367.55950113378685	367.69882086167803	79	127
367.55950113378685	367.69882086167803	83	127
367.6291609977324	367.78009070294786	84	127
367.6291609977324	367.78009070294786	81	127
367.7104081632653	367.8613605442177	79	127
367.7104081632653	367.8613605442177	83	127
367.78009070294786	367.93102040816325	84	127
367.78009070294786	367.93102040816325	81	127
367.8613605442177	367.9890702947846	83	127
367.8613605442177	367.9890702947846	79	127
367.93102040816325	368.0703401360544	84	127
367.93102040816325	368.0703401360544	81	127
368.00068027210887	368.15160997732426	79	127
368.00068027210887	368.15160997732426	83	127
368.0703401360544	368.15160997732426	84	127
368.0703401360544	368.15160997732426	81	127
369.1268480725624	369.2661678004535	79	127
369.1268480725624	369.2661678004535	83	127
369.19650793650794	369.3358276643991	84	127
369.19650793650794	369.3358276643991	81	127
369.2661678004535	369.4287074829932	79	127
369.2661678004535	369.4287074829932	83	127
369.3590476190476	369.4867573696145	84	127
369.3590476190476	369.4867573696145	81	127
369.4403174603175	369.56802721088434	79	127
369.4403174603175	369.56802721088434	83	127
369.4867573696145	369.63768707482996	84	127
369.4867573696145	369.63768707482996	81	127
369.56802721088434	369.7189569160998	79	127
369.56802721088434	369.7189569160998	83	127
369.6492743764172	369.7189569160998	81	127
369.6492743764172	369.7189569160998	84	127
370.19496598639455	370.7522448979592	59	127
370.19496598639455	370.7522448979592	62	127
370.19496598639455	370.7522448979592	55	127
370.7522448979592	371.2514739229025	59	127
370.7522448979592	371.2514739229025	62	127
370.7522448979592	371.2514739229025	55	127
370.7522448979592	370.82190476190476	71	127
370.8102947845805	370.8799319727891	72	127
370.82190476190476	370.96122448979594	71	127
370.8799319727891	371.01927437641723	72	127
370.96122448979594	371.08891156462585	71	127
371.0308843537415	371.1702040816327	72	127
371.10054421768706	371.2514739229025	71	127
371.1702040816327	371.2514739229025	72	127
371.2514739229025	372.377641723356	62	127
371.2514739229025	371.4720634920635	76	127
371.2514739229025	372.377641723356	59	127
371.2514739229025	372.377641723356	55	127
371.4836734693878	371.73909297052154	74	127
371.7507029478458	372.377641723356	71	127
372.3892517006803	372.91170068027213	43	127
372.3892517006803	372.91170068027213	31	127
372.9232879818594	373.99142857142857	43	127
372.9232879818594	373.99142857142857	31	127
372.9232879818594	373.99142857142857	50	127
372.9232879818594	373.99142857142857	55	127
372.9232879818594	373.99142857142857	59	127
373.99142857142857	374.53709750566895	50	127
373.99142857142857	374.142358276644	71	127
373.99142857142857	374.53709750566895	43	127
374.0726984126984	374.2120181405896	72	127
374.142358276644	374.2932879818594	71	127
374.22362811791385	374.362925170068	72	127
374.2932879818594	374.4326077097506	71	127
374.37455782312924	374.4906575963719	72	127
374.4326077097506	374.53709750566895	71	127
374.50226757369614	374.53709750566895	72	127
374.5487074829932	375.0827664399093	43	127
374.5487074829932	374.804126984127	76	127
374.5487074829932	375.0827664399093	50	127
374.81573696145125	375.0827664399093	74	127
375.09437641723355	375.5587755102041	66	127
375.09437641723355	375.5587755102041	45	127
375.09437641723355	375.5587755102041	50	127
375.5587755102041	376.17410430839004	47	127
375.5587755102041	375.86063492063494	69	127
375.5587755102041	376.17410430839004	50	127
375.86063492063494	376.17410430839004	67	127
376.1857142857143	376.62689342403627	48	127
376.1857142857143	377.1957823129252	62	127
376.1857142857143	376.35986394557824	50	127
376.3714739229025	376.62689342403627	54	127
376.62689342403627	377.1957823129252	55	127
376.62689342403627	377.1957823129252	47	127
377.20739229024946	377.4744217687075	67	127
377.497641723356	377.79950113378686	71	127
377.81111111111113	377.98526077097506	74	127
377.98526077097506	378.2290702947846	79	127
378.2290702947846	378.43804988662134	83	127
378.43804988662134	378.57736961451246	86	127
378.58897959183673	378.9721088435374	67	127
378.58897959183673	378.9721088435374	83	127
378.58897959183673	378.9721088435374	55	127
378.98371882086167	379.25074829931975	71	127
378.98371882086167	379.25074829931975	67	127
378.98371882086167	379.25074829931975	79	127
379.262335600907	379.56419501133786	69	127
379.262335600907	379.56419501133786	78	127
379.262335600907	379.9125170068027	62	127
379.5758049886621	379.9125170068027	66	127
379.5758049886621	379.9125170068027	81	127
379.9125170068027	380.56267573696147	55	127
379.9125170068027	380.56267573696147	79	127
379.9125170068027	380.56267573696147	67	127
380.58589569161	381.1896145124717	62	127
380.58589569161	381.1896145124717	55	127
380.58589569161	381.1896145124717	59	127
381.2012244897959	382.0835827664399	59	127
381.2012244897959	382.0835827664399	62	127
381.2012244897959	382.0835827664399	55	127
382.0835827664399	382.7221315192744	50	127
382.0835827664399	382.2345124716553	58	127
382.0835827664399	382.7221315192744	55	127
382.0835827664399	382.7221315192744	43	127
382.16485260770975	382.3041723356009	60	127
382.2345124716553	382.38544217687075	58	127
382.3157823129252	382.4551020408163	60	127
382.38544217687075	382.57120181405895	58	127
382.4667120181406	382.6408616780045	60	127
382.57120181405895	382.7221315192744	58	127
382.6524716553288	382.7221315192744	60	127
382.7221315192744	383.2445804988662	46	127
382.7221315192744	382.97755102040816	63	127
382.7221315192744	383.2445804988662	43	127
382.7221315192744	383.2445804988662	55	127
382.9891609977324	383.2445804988662	62	127
383.2678004535147	383.8134693877551	53	127
383.2678004535147	383.8134693877551	56	127
383.2678004535147	383.8134693877551	41	127
383.2678004535147	383.8134693877551	46	127
383.2678004535147	383.8134693877551	58	127
383.8134693877551	384.33591836734695	39	127
383.8134693877551	384.33591836734695	51	127
383.8134693877551	384.33591836734695	55	127
383.8134693877551	384.33591836734695	58	127
383.8134693877551	384.33591836734695	46	127
384.33591836734695	384.8583673469388	39	127
384.33591836734695	384.8583673469388	46	127
384.33591836734695	384.8583673469388	51	127
384.33591836734695	384.8583673469388	58	127
384.33591836734695	384.8583673469388	55	127
384.8583673469388	385.46208616780046	58	127
384.8583673469388	385.46208616780046	56	127
384.8583673469388	385.46208616780046	41	127
384.8583673469388	385.46208616780046	46	127
384.8583673469388	385.46208616780046	53	127
385.46208616780046	386.0425850340136	43	127
385.46208616780046	385.7639455782313	46	127
385.46208616780046	385.7639455782313	55	127
385.46208616780046	385.7639455782313	58	127
385.7639455782313	386.0425850340136	55	127
385.7639455782313	386.0425850340136	50	127
386.05419501133787	386.6811337868481	53	127
386.05419501133787	386.6811337868481	44	127
386.05419501133787	386.6811337868481	50	127
386.6811337868481	387.4009523809524	55	127
386.6811337868481	387.4009523809524	43	127
386.6811337868481	387.4009523809524	51	127
387.41256235827666	387.7028117913832	58	127
387.7144217687075	388.0278911564626	63	127
388.03950113378687	388.2484807256236	67	127
388.2484807256236	388.55034013605444	70	127
388.56195011337866	388.59678004535147	75	127
388.59678004535147	388.8173696145125	79	127
388.8173696145125	389.01473922902494	75	127
389.0263492063492	389.32820861678005	70	127
389.32820861678005	389.60684807256234	67	127
389.6184580498866	389.8854875283447	70	127
389.8854875283447	390.0364172335601	75	127
390.0364172335601	390.18734693877553	79	127
390.18734693877553	390.41954648526075	75	127
390.431156462585	390.73301587301586	70	127
390.7446258503401	391.0348752834467	63	127
390.7446258503401	391.0348752834467	67	127
391.04648526077096	391.31351473922905	70	127
391.04648526077096	391.31351473922905	67	127
391.32512471655326	391.49927437641725	75	127
391.32512471655326	391.49927437641725	70	127
391.49927437641725	391.68503401360545	79	127
391.49927437641725	391.68503401360545	75	127
391.68503401360545	391.74308390022674	75	127
391.68503401360545	391.74308390022674	70	127
391.754693877551	392.0101133786848	67	127
391.754693877551	392.0101133786848	70	127
392.0101133786848	392.2655328798186	67	127
392.0101133786848	392.2655328798186	63	127
392.27714285714285	392.55578231292515	70	127
392.27714285714285	392.55578231292515	67	127
392.55578231292515	392.8344217687075	70	127
392.55578231292515	392.8344217687075	75	127
392.8344217687075	393.00857142857143	79	127
392.8344217687075	393.00857142857143	75	127
393.00857142857143	393.2872108843537	75	127
393.00857142857143	393.2872108843537	70	127
393.298820861678	393.54263038548754	70	127
393.298820861678	393.54263038548754	67	127
393.5542403628118	393.85609977324265	63	127
393.5542403628118	393.85609977324265	67	127
393.8677097505669	394.1463492063492	70	127
393.8677097505669	394.1463492063492	67	127
394.1579591836735	394.44820861678005	75	127
394.1579591836735	394.44820861678005	70	127
394.44820861678005	394.72684807256235	79	127
394.44820861678005	394.72684807256235	75	127
394.72684807256235	394.99387755102043	82	127
394.72684807256235	394.99387755102043	79	127
394.99387755102043	395.16802721088436	82	127
394.99387755102043	395.16802721088436	79	127
395.16802721088436	395.38861678004537	80	127
395.16802721088436	395.38861678004537	77	127
395.40022675736964	395.6440362811791	79	127
395.40022675736964	395.6440362811791	75	127
395.6440362811791	395.8181859410431	77	127
395.6440362811791	395.8181859410431	74	127
395.8181859410431	396.0039455782313	75	127
395.8181859410431	396.0039455782313	72	127
396.0155555555556	396.2941950113379	74	127
396.0155555555556	396.2941950113379	70	127
396.2941950113379	396.5728344671202	72	127
396.2941950113379	396.5728344671202	68	127
396.58444444444444	396.83986394557826	67	127
396.58444444444444	396.83986394557826	70	127
396.83986394557826	397.04884353741494	68	127
396.83986394557826	397.04884353741494	65	127
397.04884353741494	397.2926530612245	67	127
397.04884353741494	397.2926530612245	63	127
397.30426303854875	397.5596825396825	65	127
397.30426303854875	397.5596825396825	62	127
397.5596825396825	397.8151020408163	60	127
397.5596825396825	397.8151020408163	63	127
397.8267120181406	398.1053514739229	58	127
397.8267120181406	398.1053514739229	62	127
398.11696145124716	398.6510204081633	60	127
398.11696145124716	398.6510204081633	63	127
398.11696145124716	398.6510204081633	57	127
398.66263038548755	398.88321995464855	63	127
398.66263038548755	398.88321995464855	57	127
398.66263038548755	398.88321995464855	60	127
398.89482993197277	399.16185941043085	63	127
398.89482993197277	399.16185941043085	60	127
398.89482993197277	399.16185941043085	57	127
399.16185941043085	399.3592290249433	60	127
399.16185941043085	399.3592290249433	63	127
399.16185941043085	399.3592290249433	57	127
399.3708390022676	399.53337868480725	60	127
399.3708390022676	399.53337868480725	63	127
399.3708390022676	399.53337868480725	57	127
399.53337868480725	399.7771882086168	62	127
399.53337868480725	399.7771882086168	56	127
399.53337868480725	399.7771882086168	58	127
399.7771882086168	400.06743764172336	62	127
399.7771882086168	400.06743764172336	65	127
399.7771882086168	400.06743764172336	56	127
399.7771882086168	400.06743764172336	58	127
400.0790476190476	400.34607709750566	58	127
400.0790476190476	400.34607709750566	62	127
400.0790476190476	400.34607709750566	65	127
400.0790476190476	400.34607709750566	56	127
400.34607709750566	400.5898866213152	56	127
400.34607709750566	400.5898866213152	58	127
400.34607709750566	400.5898866213152	62	127
400.34607709750566	400.5898866213152	65	127
400.60149659863947	400.8685260770975	56	127
400.60149659863947	400.8685260770975	62	127
400.60149659863947	400.8685260770975	58	127
400.60149659863947	400.8685260770975	65	127
400.8685260770975	401.1819954648526	65	127
400.8685260770975	401.1819954648526	58	127
400.8685260770975	401.1819954648526	62	127
400.8685260770975	401.1819954648526	56	127
401.1819954648526	402.55197278911567	63	127
401.1819954648526	402.55197278911567	58	127
401.1819954648526	402.55197278911567	67	127
401.1819954648526	402.55197278911567	55	127
402.55197278911567	402.8190022675737	79	127
402.55197278911567	403.0047619047619	72	127
402.55197278911567	403.0047619047619	69	127
402.55197278911567	402.8190022675737	75	127
402.83061224489796	403.0047619047619	77	127
403.01637188208616	403.24857142857144	75	127
403.01637188208616	403.24857142857144	77	127
403.01637188208616	403.24857142857144	69	127
403.01637188208616	403.24857142857144	72	127
403.24857142857144	403.4923809523809	75	127
403.24857142857144	403.4923809523809	77	127
403.24857142857144	403.4923809523809	69	127
403.24857142857144	403.4923809523809	72	127
403.4923809523809	403.7245804988662	69	127
403.4923809523809	403.7245804988662	75	127
403.4923809523809	403.7245804988662	77	127
403.4923809523809	403.7245804988662	72	127
403.7245804988662	403.98	75	127
403.7245804988662	403.98	69	127
403.7245804988662	403.98	77	127
403.7245804988662	403.98	72	127
403.98	404.2238095238095	74	127
403.98	404.2238095238095	77	127
403.98	404.2238095238095	68	127
403.98	404.2238095238095	70	127
404.2354195011338	404.46761904761905	74	127
404.2354195011338	404.46761904761905	77	127
404.2354195011338	404.46761904761905	82	127
404.2354195011338	404.46761904761905	68	127
404.2354195011338	404.46761904761905	70	127
404.46761904761905	404.68820861678006	70	127
404.46761904761905	404.68820861678006	77	127
404.46761904761905	404.68820861678006	68	127
404.46761904761905	404.68820861678006	74	127
404.46761904761905	404.68820861678006	82	127
404.69981859410433	404.90879818594107	68	127
404.69981859410433	404.90879818594107	70	127
404.69981859410433	404.90879818594107	82	127
404.69981859410433	404.90879818594107	77	127
404.69981859410433	404.90879818594107	74	127
404.90879818594107	405.10616780045353	82	127
404.90879818594107	405.10616780045353	77	127
404.90879818594107	405.10616780045353	68	127
404.90879818594107	405.10616780045353	70	127
404.90879818594107	405.10616780045353	74	127
405.1177777777778	405.38480725623583	68	127
405.1177777777778	405.38480725623583	74	127
405.1177777777778	405.38480725623583	82	127
405.1177777777778	405.38480725623583	77	127
405.1177777777778	405.38480725623583	70	127
405.38480725623583	406.8708843537415	67	127
405.38480725623583	406.8708843537415	70	127
405.38480725623583	406.8708843537415	75	127
405.38480725623583	406.8708843537415	79	127
405.38480725623583	406.0814058956916	82	127
406.0930158730159	406.32521541950115	84	127
406.32521541950115	406.8708843537415	82	127
406.88249433106574	407.46299319727893	46	127
406.88249433106574	407.46299319727893	34	127
406.88249433106574	407.46299319727893	58	127
406.88249433106574	407.46299319727893	65	127
406.88249433106574	407.46299319727893	68	127
408.2640816326531	408.7168707482993	58	127
408.2640816326531	408.7168707482993	63	127
408.2640816326531	408.7168707482993	67	127
408.4498412698413	408.7168707482993	51	127
408.4498412698413	408.7168707482993	55	127
408.7168707482993	408.99551020408165	51	127
408.7168707482993	408.99551020408165	55	127
408.99551020408165	409.2277097505669	55	127
408.99551020408165	409.2277097505669	51	127
409.2277097505669	409.41346938775513	51	127
409.2277097505669	409.41346938775513	55	127
409.42507936507934	409.55278911564625	55	127
409.42507936507934	409.55278911564625	51	127
409.55278911564625	409.7965986394558	56	127
409.55278911564625	409.7965986394558	53	127
409.80820861678006	410.05201814058955	65	127
409.80820861678006	410.05201814058955	74	127
409.80820861678006	410.05201814058955	82	127
409.80820861678006	410.05201814058955	68	127
410.0636281179138	410.21455782312927	82	127
410.0636281179138	410.21455782312927	65	127
410.0636281179138	410.21455782312927	68	127
410.0636281179138	410.21455782312927	74	127
410.21455782312927	410.3887074829932	82	127
410.21455782312927	410.3887074829932	65	127
410.21455782312927	410.3887074829932	74	127
410.21455782312927	410.3887074829932	68	127
410.40031746031747	410.6557369614512	74	127
410.40031746031747	410.6557369614512	82	127
410.40031746031747	410.6557369614512	68	127
410.40031746031747	410.6557369614512	65	127
410.6557369614512	410.9343764172336	68	127
410.6557369614512	410.9343764172336	74	127
410.6557369614512	410.9343764172336	65	127
410.6557369614512	410.9343764172336	82	127
410.9343764172336	411.6774149659864	82	127
410.9343764172336	412.3972335600907	70	127
410.9343764172336	412.3972335600907	67	127
410.9343764172336	412.3972335600907	75	127
411.6774149659864	411.94444444444446	84	127
411.94444444444446	412.3972335600907	82	127
412.40884353741495	412.98934240362814	58	127
412.40884353741495	412.98934240362814	46	127
412.7107029478458	412.98934240362814	77	127
412.7107029478458	412.98934240362814	80	127
412.7107029478458	412.98934240362814	86	127
413.00095238095236	413.12866213151926	77	127
413.00095238095236	413.12866213151926	86	127
413.00095238095236	413.12866213151926	80	127
413.12866213151926	413.2795918367347	86	127
413.12866213151926	413.2795918367347	80	127
413.12866213151926	413.2795918367347	77	127
413.291201814059	413.44213151927437	77	127
413.291201814059	413.44213151927437	86	127
413.291201814059	413.44213151927437	80	127
413.44213151927437	413.6046712018141	77	127
413.44213151927437	413.6046712018141	80	127
413.44213151927437	413.6046712018141	86	127
413.6162811791383	414.39414965986396	87	127
413.6162811791383	414.39414965986396	79	127
413.8833106575964	414.11551020408166	51	127
413.8833106575964	414.11551020408166	39	127
414.11551020408166	414.39414965986396	51	127
414.11551020408166	414.39414965986396	39	127
414.39414965986396	414.67278911564625	51	127
414.39414965986396	414.67278911564625	89	127
414.39414965986396	414.67278911564625	39	127
414.39414965986396	414.67278911564625	81	127
414.67278911564625	414.90498866213153	51	127
414.67278911564625	415.1836281179138	79	127
414.67278911564625	414.90498866213153	39	127
414.67278911564625	415.1836281179138	87	127
414.90498866213153	415.1836281179138	51	127
414.90498866213153	415.1836281179138	39	127
415.1836281179138	415.81056689342404	79	127
415.1836281179138	415.81056689342404	82	127
415.35777777777776	415.5667573696145	49	127
415.35777777777776	415.5667573696145	61	127
415.57836734693876	415.81056689342404	61	127
415.57836734693876	415.81056689342404	49	127
415.8221768707483	416.08920634920634	81	127
415.8221768707483	416.08920634920634	61	127
415.8221768707483	416.08920634920634	84	127
415.8221768707483	416.08920634920634	49	127
416.1008163265306	416.3330158730159	61	127
416.1008163265306	416.58843537414964	82	127
416.1008163265306	416.3330158730159	49	127
416.1008163265306	416.58843537414964	79	127
416.34462585034015	416.58843537414964	61	127
416.34462585034015	416.58843537414964	49	127
416.58843537414964	416.8554648526077	50	127
416.58843537414964	416.7625850340136	78	127
416.58843537414964	416.7625850340136	81	127
416.7741950113379	416.9483446712018	73	127
416.867074829932	417.1108843537415	62	127
416.9599546485261	417.1108843537415	74	127
417.1108843537415	417.28503401360547	76	127
417.1108843537415	417.35469387755103	50	127
417.28503401360547	417.43596371882086	78	127
417.35469387755103	417.6101133786848	62	127
417.43596371882086	417.6101133786848	79	127
417.6101133786848	417.7842630385488	80	127
417.6101133786848	417.87714285714287	50	127
417.7842630385488	417.9584126984127	81	127
417.87714285714287	418.12095238095236	62	127
417.9584126984127	418.12095238095236	82	127
418.12095238095236	418.38798185941044	50	127
418.12095238095236	418.63179138321993	83	127
418.38798185941044	418.63179138321993	62	127
418.63179138321993	419.6418594104308	84	127
418.63179138321993	418.9104308390023	50	127
418.92204081632656	419.16585034013605	62	127
419.1774603174603	419.3980498866213	50	127
419.4096598639456	419.6418594104308	62	127
419.6534693877551	419.8160090702948	81	127
419.6534693877551	419.9088888888889	50	127
419.82761904761907	420.001768707483	73	127
419.92049886621317	420.1526984126984	62	127
420.01337868480726	420.1526984126984	74	127
420.16430839002265	420.3152380952381	76	127
420.16430839002265	420.38489795918366	50	127
420.3152380952381	420.47777777777776	78	127
420.39650793650793	420.66353741496596	62	127
420.47777777777776	420.66353741496596	79	127
420.66353741496596	420.8492970521542	80	127
420.66353741496596	420.89573696145123	50	127
420.8492970521542	420.93056689342404	81	127
420.89573696145123	421.104716553288	62	127
420.93056689342404	421.104716553288	82	127
421.104716553288	421.37174603174606	50	127
421.104716553288	421.6968253968254	83	127
421.37174603174606	421.6968253968254	62	127
421.6968253968254	422.66045351473923	84	127
421.6968253968254	421.9406349206349	50	127
421.9406349206349	422.18444444444447	62	127
422.18444444444447	422.3934240362812	50	127
422.4050340136054	422.66045351473923	62	127
422.6720634920635	422.8229931972789	81	127
422.6720634920635	422.8926530612245	50	127
422.8229931972789	422.9855328798186	73	127
422.9042630385488	423.1712925170068	62	127
422.9971428571429	423.1712925170068	74	127
423.1829024943311	423.33383219954646	76	127
423.1829024943311	423.41510204081635	50	127
423.34544217687073	423.50798185941045	78	127
423.42671201814056	423.6821315192744	60	127
423.5195918367347	423.6821315192744	79	127
423.69374149659865	423.9259410430839	50	127
423.69374149659865	423.8678911564626	80	127
423.8678911564626	424.018820861678	81	127
423.9259410430839	424.2045804988662	57	127
424.018820861678	424.2045804988662	83	127
424.2045804988662	424.4832199546485	50	127
424.2045804988662	424.3903401360544	84	127
424.3903401360544	424.5180498866213	83	127
424.4832199546485	424.69219954648526	50	127
424.5180498866213	424.69219954648526	81	127
424.69219954648526	424.8663492063492	88	127
424.69219954648526	424.8663492063492	38	127
424.8663492063492	425.05210884353744	86	127
424.8663492063492	425.05210884353744	40	127
425.05210884353744	425.2146485260771	42	127
425.05210884353744	425.2146485260771	84	127
425.2146485260771	425.388798185941	83	127
425.2146485260771	425.388798185941	43	127
425.388798185941	425.51650793650794	45	127
425.388798185941	425.51650793650794	81	127
425.51650793650794	425.69065759637186	79	127
425.51650793650794	425.69065759637186	47	127
425.70226757369613	425.8764172335601	78	127
425.70226757369613	425.8764172335601	48	127
425.88802721088433	426.0389569160998	76	127
425.88802721088433	426.0389569160998	50	127
426.05056689342405	426.18988662131517	74	127
426.05056689342405	426.18988662131517	52	127
426.20149659863944	426.3524263038549	72	127
426.20149659863944	426.3524263038549	54	127
426.36403628117915	426.54979591836735	71	127
426.36403628117915	426.54979591836735	55	127
426.5614058956916	426.712335600907	69	127
426.5614058956916	426.712335600907	57	127
426.7239455782313	426.8748752834467	67	127
426.7239455782313	426.8748752834467	59	127
426.8748752834467	427.0258049886621	66	127
426.8748752834467	427.0258049886621	60	127
427.0374149659864	427.2115646258503	61	127
427.0374149659864	427.2115646258503	64	127
427.2231746031746	427.40893424036284	62	127
427.2231746031746	427.3392743764172	62	127
427.3392743764172	427.50181405895694	66	127
427.50181405895694	427.6527437641723	69	127
427.6527437641723	427.7920634920635	74	127
427.6527437641723	427.7920634920635	62	127
427.7920634920635	427.9429931972789	78	127
427.7920634920635	427.9429931972789	66	127
427.95460317460316	428.1171428571429	81	127
427.95460317460316	428.1171428571429	69	127
428.1171428571429	428.26807256235827	86	127
428.1171428571429	428.26807256235827	74	127
428.26807256235827	428.4422222222222	76	127
428.26807256235827	428.4422222222222	84	127
428.4422222222222	428.55832199546484	83	127
428.4422222222222	428.55832199546484	78	127
428.5699319727891	428.8021315192744	83	127
428.5699319727891	428.8021315192744	79	127
428.94145124716556	429.0691609977324	84	127
428.94145124716556	429.0691609977324	81	127
429.0807709750567	430.09083900226756	83	127
429.0807709750567	430.09083900226756	86	127
430.09083900226756	430.32303854875283	84	127
430.09083900226756	430.32303854875283	76	127
430.09083900226756	430.32303854875283	88	127
430.09083900226756	430.32303854875283	72	127
430.45074829931974	430.5552380952381	78	127
430.45074829931974	430.5552380952381	74	127
430.45074829931974	430.5552380952381	86	127
430.45074829931974	430.5552380952381	90	127
430.5552380952381	431.48403628117916	76	127
430.5552380952381	431.48403628117916	79	127
430.5552380952381	431.48403628117916	88	127
430.5552380952381	431.48403628117916	91	127
431.4956462585034	431.7742857142857	79	127
431.4956462585034	431.7742857142857	72	127
431.4956462585034	431.7742857142857	76	127
431.9252154195011	432.04131519274375	72	127
431.9252154195011	432.04131519274375	76	127
431.9252154195011	432.04131519274375	80	127
432.052925170068	432.26190476190476	72	127
432.052925170068	432.26190476190476	81	127
432.052925170068	432.26190476190476	76	127
432.3780045351474	432.49410430839004	74	127
432.3780045351474	432.49410430839004	71	127
432.3780045351474	432.49410430839004	80	127
432.5057142857143	432.6914739229025	81	127
432.5057142857143	432.6914739229025	71	127
432.5057142857143	432.6914739229025	74	127
432.8307936507936	432.9701133786848	83	127
432.8307936507936	432.9701133786848	71	127
432.8307936507936	432.9701133786848	74	127
432.8307936507936	432.9701133786848	80	127
432.9701133786848	433.5157823129252	83	127
432.9701133786848	433.5157823129252	74	127
432.9701133786848	433.5157823129252	80	127
432.9701133786848	433.5157823129252	71	127
433.5157823129252	434.52585034013606	69	127
433.5157823129252	434.52585034013606	72	127
433.5157823129252	434.52585034013606	84	127
433.5157823129252	434.52585034013606	81	127
434.52585034013606	434.7232199546485	69	127
434.52585034013606	434.7232199546485	72	127
434.52585034013606	434.7232199546485	84	127
434.52585034013606	434.7232199546485	81	127
434.8741496598639	435.0018594104308	86	127
434.8741496598639	435.0018594104308	74	127
434.8741496598639	435.0018594104308	71	127
434.8741496598639	435.0018594104308	83	127
435.02507936507936	435.9538775510204	84	127
435.02507936507936	435.9538775510204	76	127
435.02507936507936	435.9538775510204	88	127
435.02507936507936	435.9538775510204	72	127
435.9654875283447	436.2325170068027	86	127
435.9654875283447	436.2325170068027	90	127
435.9654875283447	436.2325170068027	74	127
435.9654875283447	436.2325170068027	78	127
436.3602267573696	436.464716553288	88	127
436.3602267573696	436.464716553288	76	127
436.3602267573696	436.464716553288	91	127
436.3602267573696	436.464716553288	79	127
436.464716553288	437.2774149659864	78	127
436.464716553288	437.2774149659864	93	127
436.464716553288	437.2774149659864	90	127
436.464716553288	437.2774149659864	81	127
437.2774149659864	437.52122448979594	88	127
437.2774149659864	437.52122448979594	76	127
437.2774149659864	437.52122448979594	79	127
437.2774149659864	437.52122448979594	91	127
437.52122448979594	437.70698412698414	91	127
437.52122448979594	437.8114739229025	78	127
437.52122448979594	437.8114739229025	74	127
437.70698412698414	437.9043537414966	90	127
437.8114739229025	438.06689342403627	76	127
437.8114739229025	438.06689342403627	72	127
437.9043537414966	438.06689342403627	88	127
438.06689342403627	438.3107029478458	71	127
438.06689342403627	438.1946031746032	88	127
438.06689342403627	438.3107029478458	74	127
438.20621315192744	438.4151927437642	86	127
438.3223129251701	438.6009523809524	69	127
438.3223129251701	438.6009523809524	72	127
438.42680272108845	438.6009523809524	84	127
438.61256235827665	438.83315192743765	71	127
438.61256235827665	438.83315192743765	67	127
438.61256235827665	438.7518820861678	84	127
438.76349206349204	438.9144217687075	83	127
438.8447619047619	439.07696145124714	66	127
438.8447619047619	439.07696145124714	69	127
438.9144217687075	439.07696145124714	81	127
439.0885714285714	439.2743310657596	69	127
439.0885714285714	439.2743310657596	66	127
439.0885714285714	439.2743310657596	81	127
439.2859410430839	439.4368707482993	64	127
439.2859410430839	439.4368707482993	79	127
439.2859410430839	439.4368707482993	67	127
439.4484807256236	439.6806802721088	78	127
439.4484807256236	439.6806802721088	62	127
439.4484807256236	439.6806802721088	66	127
439.6806802721088	439.87804988662134	62	127
439.6806802721088	439.87804988662134	66	127
439.6806802721088	439.87804988662134	78	127
439.9012698412698	440.0986394557823	60	127
439.9012698412698	440.0986394557823	64	127
439.9012698412698	440.0986394557823	76	127
440.0986394557823	440.33083900226757	62	127
440.0986394557823	440.33083900226757	74	127
440.0986394557823	440.33083900226757	59	127
440.33083900226757	440.56303854875284	62	127
440.33083900226757	440.56303854875284	59	127
440.56303854875284	440.8997278911565	58	127
440.56303854875284	440.8997278911565	64	127
440.9113378684807	441.2712471655329	57	127
440.9113378684807	441.2712471655329	66	127
441.2712471655329	442.0839455782313	55	127
441.2712471655329	442.0839455782313	59	127
441.2712471655329	441.6195464852608	67	127
441.6195464852608	441.84013605442175	62	127
441.84013605442175	442.0839455782313	60	127
442.0839455782313	442.6296145124717	43	127
442.0839455782313	442.6296145124717	55	127
442.0839455782313	442.2580952380952	59	127
442.2697052154195	442.4438548752834	67	127
442.4554648526077	442.6296145124717	62	127
442.64122448979595	442.8385941043084	59	127
442.8618140589569	443.01274376417234	67	127
443.0243537414966	443.2101133786848	62	127
443.2217233560091	443.37265306122447	60	127
443.2217233560091	443.73256235827665	48	127
443.2217233560091	443.73256235827665	36	127
443.38426303854874	443.5584126984127	67	127
443.57002267573694	443.73256235827665	64	127
443.7441723356009	443.91832199546485	64	127
443.9299319727891	444.0924716553288	72	127
444.0924716553288	444.27823129251703	67	127
444.27823129251703	444.3943310657596	67	127
444.3943310657596	444.58009070294787	76	127
444.58009070294787	444.7542403628118	72	127
444.7542403628118	445.0212698412698	36	127
444.7542403628118	445.0212698412698	48	127
444.7542403628118	444.9283900226757	64	127
444.9283900226757	445.1141496598639	76	127
445.1141496598639	445.27668934240364	72	127
445.27668934240364	445.45083900226757	64	127
445.27668934240364	445.54371882086167	52	127
445.27668934240364	445.54371882086167	40	127
445.45083900226757	445.63659863945577	74	127
445.63659863945577	445.7991383219955	71	127
445.81074829931976	446.0661678004535	40	127
445.81074829931976	446.0661678004535	52	127
445.81074829931976	445.9732879818594	64	127
445.9848979591837	446.1706575963719	74	127
446.18226757369615	446.3796371882086	71	127
446.3912471655329	446.58861678004536	64	127
446.3912471655329	446.6698866213152	57	127
446.3912471655329	446.6698866213152	45	127
446.6002267573696	446.7627664399093	74	127
446.77437641723355	446.8904761904762	71	127
446.90208616780046	447.0646258503401	64	127
446.90208616780046	447.1575056689342	45	127
446.90208616780046	447.1575056689342	57	127
447.0762358276644	447.2503854875283	72	127
447.2619954648526	447.4361451247166	69	127
447.44775510204084	447.6219047619048	64	127
447.6219047619048	447.80766439909297	72	127
447.80766439909297	447.9818140589569	69	127
447.9818140589569	448.1675736961451	64	127
447.9818140589569	448.26045351473925	57	127
447.9818140589569	448.26045351473925	45	127
448.1675736961451	448.3649433106576	72	127
448.3649433106576	448.5507029478458	69	127
448.5507029478458	448.7132426303855	60	127
448.7132426303855	448.8757823129252	72	127
448.8757823129252	449.0499319727891	69	127
449.0499319727891	449.2356916099773	60	127
449.2356916099773	449.4214512471655	72	127
449.4330612244898	449.6072108843537	69	127
449.618820861678	449.95551020408163	38	127
449.618820861678	449.81619047619046	60	127
449.618820861678	449.95551020408163	50	127
449.8278004535147	450.0716099773243	72	127
450.08321995464854	450.280589569161	69	127
450.2921995464853	451.162947845805	57	127
450.2921995464853	451.162947845805	69	127
450.2921995464853	451.162947845805	60	127
450.2921995464853	451.162947845805	50	127
450.2921995464853	451.162947845805	66	127
450.2921995464853	451.162947845805	72	127
450.2921995464853	451.162947845805	54	127
451.17455782312925	451.4648072562358	62	127
451.17455782312925	451.4648072562358	74	127
451.17455782312925	451.4648072562358	59	127
451.17455782312925	451.4648072562358	71	127
451.4648072562358	451.81310657596373	60	127
451.4648072562358	451.81310657596373	69	127
451.4648072562358	451.81310657596373	57	127
451.4648072562358	451.81310657596373	72	127
451.81310657596373	452.08013605442176	79	127
451.81310657596373	452.08013605442176	67	127
451.81310657596373	452.08013605442176	83	127
451.81310657596373	452.08013605442176	71	127
452.08013605442176	452.3355555555556	66	127
452.08013605442176	452.3355555555556	81	127
452.08013605442176	452.3355555555556	78	127
452.08013605442176	452.3355555555556	69	127
452.3355555555556	452.62580498866214	79	127
452.3355555555556	452.62580498866214	67	127
452.3355555555556	452.62580498866214	64	127
452.3355555555556	452.62580498866214	76	127
452.62580498866214	452.8812244897959	66	127
452.62580498866214	452.8812244897959	78	127
452.62580498866214	452.8812244897959	74	127
452.62580498866214	452.8812244897959	62	127
452.8812244897959	453.148253968254	72	127
452.8812244897959	453.148253968254	76	127
452.8812244897959	453.148253968254	64	127
452.8812244897959	453.148253968254	60	127
453.148253968254	453.4268934240363	59	127
453.148253968254	453.4268934240363	62	127
453.148253968254	453.4268934240363	71	127
453.148253968254	453.4268934240363	74	127
453.43850340136055	453.6823129251701	69	127
453.43850340136055	453.6823129251701	57	127
453.43850340136055	453.6823129251701	60	127
453.43850340136055	453.6823129251701	72	127
453.6939229024943	453.9609523809524	59	127
453.6939229024943	453.9609523809524	55	127
453.6939229024943	453.9609523809524	67	127
453.6939229024943	453.9609523809524	71	127
453.97256235827666	454.2628117913832	54	127
453.97256235827666	454.2628117913832	69	127
453.97256235827666	454.2628117913832	57	127
453.97256235827666	454.2628117913832	66	127
454.2628117913832	454.5066213151927	52	127
454.2628117913832	454.5066213151927	67	127
454.2628117913832	454.5066213151927	55	127
454.2628117913832	454.5066213151927	64	127
454.518231292517	454.76204081632653	54	127
454.518231292517	454.76204081632653	66	127
454.518231292517	454.76204081632653	50	127
454.518231292517	454.76204081632653	62	127
454.7736507936508	455.04068027210883	64	127
454.7736507936508	455.04068027210883	48	127
454.7736507936508	455.04068027210883	60	127
454.7736507936508	455.04068027210883	52	127
455.0522902494331	455.3077097505669	59	127
455.0522902494331	455.3077097505669	62	127
455.0522902494331	455.3077097505669	47	127
455.0522902494331	455.3077097505669	50	127
455.3077097505669	455.5863492063492	45	127
455.3077097505669	455.5863492063492	60	127
455.3077097505669	455.5863492063492	48	127
455.3077097505669	455.5863492063492	57	127
455.5863492063492	455.88820861678005	60	127
455.5863492063492	455.88820861678005	48	127
455.5863492063492	455.88820861678005	55	127
455.5863492063492	455.88820861678005	43	127
455.88820861678005	456.42226757369616	60	127
455.88820861678005	456.42226757369616	48	127
455.88820861678005	456.42226757369616	42	127
455.88820861678005	456.42226757369616	45	127
455.88820861678005	456.42226757369616	57	127
455.88820861678005	456.42226757369616	54	127
456.43387755102043	457.02598639455783	60	127
456.43387755102043	457.02598639455783	42	127
456.43387755102043	457.02598639455783	54	127
456.43387755102043	457.02598639455783	48	127
457.0375963718821	457.69936507936507	50	127
457.0375963718821	457.69936507936507	66	127
457.0375963718821	457.69936507936507	38	127
457.0375963718821	457.69936507936507	60	127
457.0375963718821	457.69936507936507	54	127
457.69936507936507	458.5701133786848	38	127
457.69936507936507	458.5701133786848	50	127
457.69936507936507	458.5701133786848	66	127
457.69936507936507	458.5701133786848	54	127
457.69936507936507	458.5701133786848	60	127
458.5817233560091	459.5337414965986	58	127
458.5817233560091	459.5337414965986	67	127
458.5817233560091	459.2551020408163	39	127
458.5817233560091	459.2551020408163	51	127
458.5817233560091	459.5337414965986	55	127
459.2667120181406	460.7179591836735	51	127
459.2667120181406	460.7179591836735	39	127
459.2667120181406	460.7179591836735	46	127
459.5337414965986	459.812380952381	79	127
459.812380952381	460.06780045351474	80	127
460.06780045351474	460.28839002267574	84	127
460.3	460.50897959183675	82	127
460.520589569161	460.7179591836735	79	127
460.72956916099776	462.2040362811791	39	127
460.72956916099776	462.2040362811791	50	127
460.72956916099776	462.2040362811791	46	127
460.72956916099776	460.9269387755102	79	127
460.9269387755102	461.14752834467123	80	127
461.14752834467123	461.3681179138322	77	127
461.3681179138322	461.5190476190476	70	127
461.5190476190476	461.56548752834465	77	127
461.56548752834465	461.69319727891155	79	127
461.7048072562358	461.9021768707483	82	127
461.91378684807256	462.04149659863947	80	127
462.04149659863947	462.2040362811791	77	127
462.2040362811791	463.2605442176871	46	127
462.2040362811791	462.4014058956916	77	127
462.2040362811791	463.2605442176871	39	127
462.2040362811791	463.2605442176871	51	127
462.4014058956916	462.5639455782313	79	127
462.5639455782313	462.7497052154195	75	127
462.7613151927438	462.9354648526077	70	127
462.947074829932	463.0747845804989	79	127
463.0747845804989	463.2605442176871	80	127
463.27215419501135	463.7249433106576	55	127
463.27215419501135	463.7249433106576	58	127
463.27215419501135	463.7249433106576	51	127
463.27215419501135	463.4463038548753	84	127
463.45791383219955	463.58562358276646	82	127
463.58562358276646	463.7249433106576	79	127
463.7249433106576	463.92231292517005	84	127
463.7249433106576	464.2590022675737	55	127
463.7249433106576	464.2590022675737	50	127
463.7249433106576	464.2590022675737	59	127
463.92231292517005	464.1196825396825	83	127
464.1312925170068	464.2590022675737	79	127
464.2590022675737	464.78145124716553	50	127
464.2590022675737	464.40993197278914	88	127
464.2590022675737	464.78145124716553	55	127
464.2590022675737	464.78145124716553	59	127
464.42154195011335	464.59569160997734	86	127
464.6073015873016	464.78145124716553	83	127
464.7930612244898	465.3851700680272	57	127
464.7930612244898	465.3851700680272	60	127
464.7930612244898	464.978820861678	86	127
464.7930612244898	465.3851700680272	50	127
464.9904308390023	465.17619047619047	85	127
465.17619047619047	465.3851700680272	84	127
465.3967800453515	465.96566893424034	55	127
465.3967800453515	465.5825396825397	82	127
465.3967800453515	465.96566893424034	58	127
465.3967800453515	465.96566893424034	51	127
465.4780498866213	465.6754195011338	84	127
465.5825396825397	465.7566893424036	82	127
465.68702947845804	465.861179138322	84	127
465.7682993197279	465.96566893424034	82	127
465.87278911564624	466.0701587301587	84	127
465.96566893424034	467.13827664399093	39	127
465.96566893424034	466.1514285714286	82	127
465.96566893424034	467.13827664399093	46	127
465.96566893424034	467.13827664399093	51	127
466.0701587301587	466.2443083900227	84	127
466.1630385487528	466.3371882086168	82	127
466.25591836734696	466.44167800453516	84	127
466.34879818594106	466.54616780045353	82	127
466.44167800453516	466.63904761904763	84	127
466.54616780045353	466.743537414966	82	127
466.6506575963719	466.82480725623583	84	127
466.75514739229027	466.95251700680274	82	127
466.82480725623583	467.0570068027211	84	127
466.95251700680274	467.13827664399093	82	127
467.0570068027211	467.2427664399093	84	127
467.1498866213152	467.9277551020408	39	127
467.1498866213152	467.3472562358277	82	127
467.1498866213152	467.9277551020408	46	127
467.1498866213152	467.9277551020408	50	127
467.2543764172336	467.45174603174604	84	127
467.3472562358277	467.53301587301587	82	127
467.45174603174604	467.63750566893424	84	127
467.54462585034014	467.73038548752834	82	127
467.6491156462585	467.8348752834467	84	127
467.7419954648526	467.9277551020408	82	127
467.8348752834467	468.0322448979592	84	127
467.9277551020408	468.13673469387754	53	127
467.9277551020408	468.13673469387754	82	127
468.04385487528344	468.22961451247164	84	127
468.1483446712018	468.33410430839	82	127
468.1483446712018	468.33410430839	55	127
468.2412244897959	468.4269841269841	84	127
468.33410430839	468.5198639455782	58	127
468.33410430839	468.5198639455782	82	127
468.4269841269841	468.6243537414966	84	127
468.5314739229025	468.72884353741495	82	127
468.5314739229025	468.72884353741495	57	127
468.63596371882085	468.79850340136056	84	127
468.72884353741495	468.90299319727893	53	127
468.72884353741495	468.90299319727893	82	127
468.79850340136056	468.9378231292517	84	127
468.90299319727893	468.98426303854876	82	127
468.90299319727893	468.98426303854876	53	127
468.9378231292517	469.08875283446713	84	127
468.99587301587303	469.1584126984127	55	127
468.99587301587303	469.1584126984127	82	127
469.08875283446713	469.2512925170068	84	127
469.1584126984127	469.35578231292516	55	127
469.1584126984127	469.35578231292516	82	127
469.26290249433106	469.44866213151926	84	127
469.3673922902494	469.5647619047619	82	127
469.3673922902494	469.5647619047619	51	127
469.44866213151926	469.66925170068026	84	127
469.5647619047619	469.76213151927436	82	127
469.5647619047619	469.76213151927436	63	127
469.66925170068026	469.85501133786846	84	127
469.76213151927436	469.94789115646256	82	127
469.76213151927436	469.94789115646256	65	127
469.85501133786846	470.05238095238093	84	127
469.95950113378683	470.12204081632655	68	127
469.95950113378683	470.12204081632655	82	127
470.05238095238093	470.21492063492065	84	127
470.1336507936508	470.2845804988662	82	127
470.1336507936508	470.2845804988662	67	127
470.21492063492065	470.3310204081633	84	127
470.2845804988662	470.4239002267574	63	127
470.2845804988662	470.4239002267574	82	127
470.34263038548755	470.4239002267574	84	127
470.4239002267574	470.6909297052154	52	127
470.4239002267574	470.5632199546485	83	127
470.49356009070294	470.6328798185941	84	127
470.5632199546485	470.6909297052154	83	127
470.6444897959184	470.74897959183676	84	127
470.6909297052154	470.8186394557823	83	127
470.6909297052154	470.9695691609977	64	127
470.76058956916097	470.89990929705215	84	127
470.8302494331066	470.9695691609977	83	127
470.981179138322	471.21337868480725	52	127
470.981179138322	471.1088888888889	84	127
471.0392290249433	471.1437188208617	86	127
471.1088888888889	471.21337868480725	84	127
471.1437188208617	471.2946485260771	86	127
471.2249886621315	471.3643083900227	84	127
471.2249886621315	471.49201814058955	64	127
471.2946485260771	471.43396825396826	86	127
471.3759183673469	471.49201814058955	84	127
471.43396825396826	471.56167800453517	86	127
471.5036281179138	471.6313378684807	84	127
471.5036281179138	471.7706575963719	52	127
471.56167800453517	471.7009977324263	86	127
471.642947845805	471.7706575963719	84	127
471.71260770975056	471.8287074829932	86	127
471.7706575963719	472.03768707482993	64	127
471.7706575963719	471.909977324263	84	127
471.84031746031746	471.97963718820864	86	127
471.909977324263	472.03768707482993	84	127
471.99124716553285	472.1073469387755	86	127
472.03768707482993	472.30471655328796	52	127
472.03768707482993	472.1886167800454	85	127
472.11895691609976	472.2350566893424	86	127
472.1886167800454	472.30471655328796	85	127
472.24666666666667	472.35115646258504	86	127
472.30471655328796	472.40920634920633	85	127
472.30471655328796	472.5485260770975	64	127
472.35115646258504	472.47886621315195	86	127
472.40920634920633	472.5485260770975	85	127
472.5601360544218	472.8387755102041	50	127
472.5601360544218	472.6878458049887	86	127
472.62979591836734	472.7691156462585	88	127
472.69945578231295	472.8387755102041	86	127
472.7691156462585	472.9200453514739	88	127
472.85038548752834	473.1406349206349	62	127
472.85038548752834	472.9897052154195	86	127
472.9200453514739	473.07097505668935	88	127
473.0013151927438	473.1406349206349	86	127
473.07097505668935	473.19868480725626	88	127
473.1522448979592	473.4192743764172	57	127
473.1522448979592	473.2683446712018	86	127
473.19868480725626	473.3380045351474	88	127
473.2799546485261	473.4192743764172	86	127
473.34961451247165	473.44249433106575	88	127
473.4192743764172	473.53537414965984	69	127
473.4192743764172	473.44249433106575	86	127
473.44249433106575	473.51215419501136	88	127
473.44249433106575	473.53537414965984	86	127
473.5237641723356	473.60503401360546	88	127
473.53537414965984	473.674693877551	86	127
473.53537414965984	473.79079365079366	54	127
473.61664399092973	473.7327437641723	88	127
473.674693877551	473.79079365079366	86	127
473.7443537414966	473.8604535147392	88	127
473.79079365079366	474.0810430839002	66	127
473.79079365079366	473.94172335600905	86	127
473.8720634920635	474.01138321995467	88	127
473.94172335600905	474.0810430839002	86	127
474.02299319727894	474.16231292517006	88	127
474.0926530612245	474.2203628117914	86	127
474.0926530612245	474.3712925170068	60	127
474.16231292517006	474.30163265306123	88	127
474.2319727891157	474.3712925170068	86	127
474.30163265306123	474.42934240362814	88	127
474.38290249433106	474.4641723356009	86	127
474.38290249433106	474.61510204081634	72	127
474.42934240362814	474.5454421768707	88	127
474.47578231292516	474.61510204081634	86	127
474.5454421768707	474.69637188208617	88	127
474.6267120181406	474.76603174603173	86	127
474.6267120181406	474.89374149659864	57	127
474.69637188208617	474.8473015873016	88	127
474.777641723356	474.89374149659864	86	127
474.8473015873016	474.9401814058957	88	127
474.9053514739229	474.97501133786847	86	127
474.9053514739229	475.1027210884354	69	127
474.9401814058957	475.02145124716554	88	127
474.97501133786847	475.1027210884354	86	127
475.0330612244898	475.17238095238093	88	127
475.1027210884354	475.24204081632655	86	127
475.1027210884354	475.39297052154194	66	127
475.1839909297052	475.3117006802721	88	127
475.24204081632655	475.39297052154194	86	127
475.3233106575964	475.4626303854875	88	127
475.39297052154194	475.5439002267574	86	127
475.39297052154194	475.67160997732424	78	127
475.47424036281177	475.6019501133787	88	127
475.5439002267574	475.67160997732424	86	127
475.61356009070295	475.7528798185941	88	127
475.6832199546485	475.98507936507934	60	127
475.6832199546485	475.8225396825397	86	127
475.7528798185941	475.9038095238095	88	127
475.83414965986395	475.98507936507934	86	127
475.9038095238095	476.07795918367344	88	127
475.9966893424036	476.14761904761906	86	127
475.9966893424036	476.29854875283445	72	127
476.07795918367344	476.2288888888889	88	127
476.15922902494333	476.29854875283445	86	127
476.2288888888889	476.3565986394558	88	127
476.3101587301587	476.42625850340136	86	127
476.3101587301587	476.5771882086168	69	127
476.3565986394558	476.5075283446712	88	127
476.4378684807256	476.5771882086168	86	127
476.5075283446712	476.6004081632653	88	127
476.588798185941	476.70489795918365	81	127
476.588798185941	476.6236281179138	86	127
476.6004081632653	476.65845804988663	88	127
476.6236281179138	476.70489795918365	86	127
476.65845804988663	476.7165079365079	88	127
476.70489795918365	476.73972789115646	86	127
476.70489795918365	476.86743764172337	66	127
476.7165079365079	476.78616780045354	88	127
476.73972789115646	476.86743764172337	86	127
476.79777777777775	476.92548752834466	88	127
476.86743764172337	477.11124716553286	78	127
476.86743764172337	476.96031746031747	86	127
476.92548752834466	477.02997732426303	88	127
476.96031746031747	477.11124716553286	86	127
477.0415873015873	477.1692970521542	88	127
477.11124716553286	477.1809070294785	86	127
477.11124716553286	477.2970068027211	72	127
477.1692970521542	477.2621768707483	88	127
477.19251700680275	477.2970068027211	86	127
477.2621768707483	477.2970068027211	88	127
477.2970068027211	477.37827664399094	88	127
477.2970068027211	477.4479365079365	84	127
477.3086167800453	477.4479365079365	86	127
477.37827664399094	477.52920634920633	88	127
477.4595464852608	477.7265759637188	69	127
477.4595464852608	477.5872562358277	86	127
477.52920634920633	477.65691609977324	88	127
477.59886621315195	477.7265759637188	86	127
477.65691609977324	477.8078458049887	88	127
477.73818594104307	477.87750566893425	86	127
477.73818594104307	478.00521541950116	81	127
477.8078458049887	477.9471655328798	88	127
477.8891156462585	478.00521541950116	86	127
477.9471655328798	478.0748752834467	88	127
478.00521541950116	478.15614512471655	86	127
478.00521541950116	478.307074829932	72	127
478.086485260771	478.2258049886621	88	127
478.15614512471655	478.307074829932	86	127
478.2374149659864	478.37673469387755	88	127
478.307074829932	478.57410430839	84	127
478.307074829932	478.4580045351474	86	127
478.3883446712018	478.527664399093	88	127
478.4580045351474	478.57410430839	86	127
478.5392743764172	478.6437641723356	88	127
478.57410430839	478.87596371882086	70	127
478.57410430839	478.72503401360547	86	127
478.65537414965985	478.8063038548753	88	127
478.7366439909297	478.87596371882086	86	127
478.8063038548753	478.9572335600907	88	127
478.8875736961451	479.0385034013606	86	127
478.8875736961451	479.1778231292517	82	127
478.96884353741495	479.1197732426304	88	127
479.0385034013606	479.1778231292517	86	127
479.1197732426304	479.2707029478458	88	127
479.18943310657596	479.3635827664399	86	127
479.18943310657596	479.5377324263039	72	127
479.2707029478458	479.456462585034	88	127
479.3635827664399	479.5377324263039	86	127
479.456462585034	479.6190022675737	88	127
479.54934240362815	479.8395918367347	84	127
479.54934240362815	479.677052154195	87	127
479.65383219954646	479.78154195011336	86	127
479.73510204081634	479.8395918367347	84	127
479.8395918367347	480.0601814058957	72	127
479.8395918367347	480.5013605442177	88	127
480.0601814058957	480.2691609977324	76	127
480.2691609977324	480.32721088435375	79	127
480.32721088435375	480.5942403628118	72	127
480.5013605442177	480.69873015873014	91	127
480.69873015873014	480.86126984126986	88	127
480.87287981859413	481.4765986394558	84	127
481.4998185941043	481.6159183673469	72	127
481.4998185941043	482.04548752834467	84	127
481.6159183673469	481.6971882086168	76	127
481.708798185941	481.85972789115647	81	127
481.87133786848074	482.0687074829932	72	127
482.05709750566893	482.1731972789116	88	127
482.18480725623584	482.37056689342404	84	127
482.3821768707483	482.86979591836734	81	127
482.86979591836734	483.90308390022676	76	127
483.36902494331065	483.90308390022676	60	127
483.36902494331065	483.90308390022676	64	127
483.90308390022676	484.4371428571429	78	127
483.90308390022676	484.4371428571429	66	127
483.90308390022676	484.4371428571429	62	127
484.44875283446714	484.99442176870747	55	127
484.44875283446714	484.99442176870747	62	127
484.44875283446714	484.99442176870747	67	127
484.44875283446714	484.99442176870747	79	127
485.2498412698413	485.4704308390023	55	127
485.2498412698413	485.4704308390023	43	127
485.4820408163265	485.7839002267574	45	127
485.4820408163265	485.7839002267574	54	127
485.7839002267574	486.03931972789115	47	127
485.7839002267574	486.03931972789115	53	127
486.03931972789115	486.2482993197279	52	127
486.03931972789115	486.2482993197279	48	127
486.2482993197279	486.49210884353744	55	127
486.2482993197279	486.49210884353744	52	127
486.49210884353744	486.7010884353742	55	127
486.49210884353744	486.7010884353742	60	127
486.7010884353742	487.0145578231292	64	127
486.7010884353742	487.0145578231292	60	127
487.7227664399093	487.8736961451247	52	127
487.7227664399093	487.8736961451247	48	127
487.885306122449	488.0710657596372	57	127
487.885306122449	488.0710657596372	52	127
488.08267573696145	488.26843537414965	60	127
488.08267573696145	488.26843537414965	57	127
488.2800453514739	488.5122448979592	60	127
488.2800453514739	488.5122448979592	64	127
489.99832199546483	490.56721088435376	50	127
489.99832199546483	490.56721088435376	57	127
489.99832199546483	490.56721088435376	60	127
489.99832199546483	490.56721088435376	69	127
489.99832199546483	490.56721088435376	72	127
490.56721088435376	491.25219954648526	69	127
490.56721088435376	491.25219954648526	50	127
490.56721088435376	491.25219954648526	57	127
490.56721088435376	491.25219954648526	60	127
490.56721088435376	491.25219954648526	72	127
491.2638095238095	491.48439909297053	59	127
491.2638095238095	491.48439909297053	55	127
491.2638095238095	491.48439909297053	71	127
491.4960090702948	491.69337868480727	69	127
491.4960090702948	491.69337868480727	57	127
491.69337868480727	491.8675283446712	67	127
491.69337868480727	491.8675283446712	59	127
491.87913832199547	492.03006802721086	66	127
491.87913832199547	492.03006802721086	60	127
492.03006802721086	492.20421768707484	67	127
492.03006802721086	492.20421768707484	59	127
492.2158276643991	492.38997732426304	69	127
492.2158276643991	492.38997732426304	57	127
492.4015873015873	492.564126984127	55	127
492.4015873015873	492.564126984127	71	127
492.564126984127	492.74988662131517	57	127
492.564126984127	492.74988662131517	69	127
492.76149659863944	492.92403628117916	59	127
492.76149659863944	492.92403628117916	67	127
492.92403628117916	493.0981859410431	60	127
492.92403628117916	493.0981859410431	66	127
493.10979591836735	493.2839455782313	67	127
493.10979591836735	493.2839455782313	59	127
493.2839455782313	493.446485260771	69	127
493.2839455782313	493.446485260771	57	127
493.4580952380952	493.5974149659864	55	127
493.4580952380952	493.5974149659864	71	127
493.60902494331066	493.74834467120183	54	127
493.60902494331066	493.74834467120183	72	127
493.7599546485261	493.93410430839003	74	127
493.7599546485261	493.93410430839003	52	127
493.9457142857143	494.11986394557823	50	127
493.9457142857143	494.11986394557823	76	127
494.1314739229025	494.24757369614514	48	127
494.1314739229025	494.24757369614514	78	127
494.2591836734694	494.4449433106576	47	127
494.2591836734694	494.4449433106576	79	127
494.2591836734694	494.4449433106576	76	127
494.4565532879819	494.61909297052154	45	127
494.4565532879819	494.61909297052154	81	127
494.4565532879819	494.61909297052154	78	127
494.6307029478458	494.78163265306125	43	127
494.6307029478458	494.78163265306125	83	127
494.6307029478458	494.78163265306125	79	127
494.79324263038546	494.99061224489793	81	127
494.79324263038546	494.99061224489793	42	127
494.79324263038546	494.99061224489793	84	127
495.0022222222222	495.30408163265304	79	127
495.0022222222222	495.30408163265304	40	127
495.0022222222222	495.30408163265304	85	127
495.0022222222222	495.30408163265304	81	127
495.0022222222222	495.30408163265304	52	127
495.0022222222222	495.30408163265304	73	127
495.61755102040814	496.02390022675735	74	127
495.61755102040814	496.02390022675735	86	127
495.61755102040814	496.02390022675735	78	127
495.61755102040814	496.02390022675735	38	127
495.61755102040814	496.02390022675735	50	127
495.61755102040814	496.02390022675735	81	127
496.360589569161	496.581179138322	67	127
496.360589569161	496.581179138322	83	127
496.360589569161	496.581179138322	79	127
496.60439909297054	496.801768707483	78	127
496.60439909297054	496.801768707483	81	127
496.60439909297054	496.801768707483	69	127
496.801768707483	496.9875283446712	79	127
496.801768707483	496.9875283446712	76	127
496.801768707483	496.9875283446712	71	127
496.9875283446712	497.1384580498866	72	127
496.9875283446712	497.1384580498866	78	127
496.9875283446712	497.1384580498866	74	127
497.1384580498866	497.25455782312923	79	127
497.1384580498866	497.25455782312923	71	127
497.1384580498866	497.25455782312923	76	127
497.25455782312923	497.4287074829932	81	127
497.25455782312923	497.4287074829932	78	127
497.25455782312923	497.4287074829932	69	127
497.4287074829932	497.6144671201814	83	127
497.4287074829932	497.6144671201814	79	127
497.4287074829932	497.6144671201814	67	127
497.6144671201814	497.8002267573696	69	127
497.6144671201814	497.8002267573696	78	127
497.6144671201814	497.8002267573696	81	127
497.8002267573696	497.9975963718821	71	127
497.8002267573696	497.9975963718821	79	127
497.8002267573696	497.9975963718821	76	127
497.9975963718821	498.0904761904762	78	127
497.9975963718821	498.0904761904762	72	127
497.9975963718821	498.0904761904762	74	127
498.0904761904762	498.2646258503401	79	127
498.0904761904762	498.2646258503401	71	127
498.0904761904762	498.2646258503401	76	127
498.2646258503401	498.4271655328798	69	127
498.2646258503401	498.4271655328798	78	127
498.2646258503401	498.4271655328798	81	127
498.4387755102041	498.612925170068	83	127
498.4387755102041	498.612925170068	67	127
498.4387755102041	498.612925170068	79	127
498.64775510204083	498.82190476190476	81	127
498.64775510204083	498.82190476190476	84	127
498.64775510204083	498.82190476190476	66	127
498.83351473922903	498.9960544217687	86	127
498.83351473922903	498.9960544217687	83	127
498.83351473922903	498.9960544217687	64	127
498.9960544217687	499.1237641723356	62	127
498.9960544217687	499.1237641723356	84	127
498.9960544217687	499.1237641723356	88	127
499.13537414965987	499.2979138321995	90	127
499.13537414965987	499.2979138321995	60	127
499.13537414965987	499.2979138321995	86	127
499.3095238095238	499.46045351473924	91	127
499.3095238095238	499.46045351473924	88	127
499.3095238095238	499.46045351473924	59	127
499.4720634920635	499.6229931972789	93	127
499.4720634920635	499.6229931972789	57	127
499.4720634920635	499.6229931972789	90	127
499.63460317460317	499.8087528344671	95	127
499.63460317460317	499.8087528344671	91	127
499.63460317460317	499.8087528344671	55	127
499.82036281179137	499.99451247165536	96	127
499.82036281179137	499.99451247165536	93	127
499.82036281179137	499.99451247165536	54	127
499.82036281179137	499.99451247165536	84	127
500.00612244897957	500.3195918367347	64	127
500.00612244897957	500.3195918367347	85	127
500.00612244897957	500.3195918367347	93	127
500.00612244897957	500.3195918367347	52	127
500.00612244897957	500.3195918367347	97	127
500.6098412698413	500.8768707482993	85	127
500.6098412698413	500.80721088435376	50	127
500.6098412698413	500.8768707482993	73	127
500.80721088435376	500.9697505668934	57	127
500.8768707482993	501.12068027210887	86	127
500.8768707482993	501.12068027210887	74	127
500.9813605442177	501.12068027210887	60	127
501.1322902494331	501.67795918367347	76	127
501.1322902494331	501.30643990929707	50	127
501.1322902494331	501.67795918367347	88	127
501.30643990929707	501.49219954648527	57	127
501.50380952380954	501.67795918367347	60	127
501.68956916099773	501.8288888888889	50	127
501.68956916099773	502.15396825396823	74	127
501.68956916099773	502.15396825396823	86	127
501.8404988662131	501.9798185941043	57	127
501.99142857142857	502.15396825396823	60	127
502.1655782312925	502.3281179138322	50	127
502.1655782312925	502.4209977324263	81	127
502.1655782312925	502.4209977324263	69	127
502.3281179138322	502.53709750566895	54	127
502.4209977324263	502.7344671201814	71	127
502.4209977324263	502.7344671201814	83	127
502.53709750566895	502.7344671201814	57	127
502.7344671201814	502.9550566893424	50	127
502.7344671201814	503.34979591836736	72	127
502.7344671201814	503.34979591836736	84	127
502.9550566893424	503.16403628117916	55	127
503.16403628117916	503.34979591836736	59	127
503.34979591836736	503.512335600907	50	127
503.34979591836736	503.75614512471657	71	127
503.34979591836736	503.75614512471657	83	127
503.512335600907	503.66326530612247	55	127
503.66326530612247	503.75614512471657	59	127
503.75614512471657	503.9767346938776	78	127
503.75614512471657	503.9767346938776	66	127
503.75614512471657	503.9186848072562	50	127
503.9186848072562	504.0580045351474	55	127
503.9767346938776	504.2437641723356	79	127
503.9767346938776	504.2437641723356	67	127
504.0696145124717	504.2437641723356	59	127
504.2437641723356	504.76621315192745	71	127
504.2437641723356	504.41791383219953	50	127
504.2437641723356	504.76621315192745	83	127
504.44113378684807	504.60367346938773	54	127
504.615283446712	504.76621315192745	60	127
504.7778231292517	504.95197278911564	50	127
504.7778231292517	505.30027210884356	81	127
504.7778231292517	505.30027210884356	69	127
504.9635827664399	505.1145124716553	54	127
505.1261224489796	505.30027210884356	60	127
505.3118820861678	505.48603174603176	50	127
505.3118820861678	505.9156009070295	63	127
505.3118820861678	505.9156009070295	75	127
505.497641723356	505.70662131519276	54	127
505.71823129251703	505.9156009070295	60	127
505.9156009070295	506.4264399092971	74	127
505.9156009070295	506.0549206349206	50	127
505.9156009070295	506.4264399092971	62	127
506.0549206349206	506.2406802721088	55	127
506.2406802721088	506.4264399092971	59	127
506.4264399092971	506.5657596371882	71	127
506.4264399092971	506.5657596371882	50	127
506.5657596371882	506.71668934240364	67	127
506.5657596371882	506.71668934240364	55	127
506.71668934240364	506.89083900226757	59	127
506.71668934240364	506.89083900226757	62	127
506.89083900226757	507.0533786848072	50	127
506.89083900226757	507.0533786848072	62	127
507.0533786848072	507.2391383219955	48	127
507.0533786848072	507.2391383219955	60	127
507.2391383219955	507.4248979591837	45	127
507.2391383219955	507.4248979591837	57	127
507.4248979591837	507.5990476190476	38	127
507.4248979591837	507.5990476190476	50	127
507.6106575963719	507.77319727891154	45	127
507.6106575963719	507.77319727891154	57	127
507.7848072562358	507.9473469387755	60	127
507.7848072562358	507.9473469387755	48	127
507.9589569160998	508.1331065759637	50	127
507.9589569160998	508.1331065759637	38	127
508.144716553288	508.2956462585034	45	127
508.144716553288	508.2956462585034	57	127
508.30725623582765	508.411746031746	60	127
508.30725623582765	508.411746031746	48	127
508.4233560090703	508.57428571428574	38	127
508.4233560090703	508.57428571428574	50	127
508.58589569161	508.76004535147393	42	127
508.58589569161	508.76004535147393	54	127
508.7716553287982	508.93419501133786	57	127
508.7716553287982	508.93419501133786	45	127
508.94580498866213	509.11995464852606	38	127
508.94580498866213	509.11995464852606	50	127
509.13156462585033	509.31732426303853	42	127
509.13156462585033	509.31732426303853	54	127
509.31732426303853	509.468253968254	57	127
509.31732426303853	509.468253968254	45	127
509.468253968254	509.6424036281179	50	127
509.468253968254	509.6424036281179	38	127
509.6424036281179	509.8281632653061	55	127
509.6424036281179	509.8281632653061	43	127
509.8281632653061	510.0023129251701	47	127
509.8281632653061	510.0023129251701	59	127
510.0023129251701	510.1880725623583	50	127
510.0023129251701	510.1880725623583	38	127
510.1880725623583	510.397052154195	55	127
510.1880725623583	510.397052154195	43	127
510.397052154195	510.5828117913832	47	127
510.397052154195	510.5828117913832	59	127
510.5828117913832	510.75696145124715	38	127
510.5828117913832	510.75696145124715	50	127
510.75696145124715	510.93111111111114	42	127
510.75696145124715	510.93111111111114	54	127
510.93111111111114	511.10526077097506	60	127
510.93111111111114	511.10526077097506	48	127
511.11687074829933	511.279410430839	38	127
511.11687074829933	511.279410430839	50	127
511.29102040816326	511.47678004535146	42	127
511.29102040816326	511.47678004535146	54	127
511.47678004535146	511.6277097505669	48	127
511.47678004535146	511.6277097505669	60	127
511.6393197278912	511.8134693877551	54	127
511.6393197278912	511.8134693877551	38	127
511.8250793650794	511.97600907029477	57	127
511.8250793650794	511.97600907029477	42	127
511.98761904761903	512.1501587301588	60	127
511.98761904761903	512.1501587301588	45	127
512.161768707483	512.335918367347	59	127
512.161768707483	512.335918367347	38	127
512.3475283446712	512.5448979591837	43	127
512.3475283446712	512.5448979591837	55	127
512.556507936508	512.7306575963719	50	127
512.556507936508	512.7306575963719	47	127
512.7422675736962	512.9164172335601	38	127
512.7422675736962	512.9164172335601	59	127
512.9396371882086	513.1137868480726	55	127
512.9396371882086	513.1137868480726	43	127
513.1137868480726	513.2995464852607	50	127
513.1137868480726	513.2995464852607	47	127
513.2995464852607	513.485306122449	54	127
513.2995464852607	513.485306122449	38	127
513.485306122449	513.6710430839003	57	127
513.485306122449	513.6710430839003	42	127
513.6710430839003	513.8568027210885	60	127
513.6710430839003	513.8568027210885	45	127
513.8568027210885	514.0541950113379	59	127
513.8568027210885	514.0541950113379	38	127
514.0541950113379	514.1702947845805	55	127
514.0541950113379	514.1702947845805	43	127
514.1702947845805	514.3444444444444	47	127
514.1702947845805	514.3444444444444	50	127
514.3444444444444	514.5069841269841	38	127
514.3444444444444	514.5069841269841	59	127
514.5069841269841	514.6927210884354	43	127
514.5069841269841	514.6927210884354	55	127
514.6927210884354	514.8436734693878	47	127
514.6927210884354	514.8436734693878	50	127
514.8552834467121	515.0410430839003	38	127
514.8552834467121	515.0410430839003	54	127
515.0526530612245	515.2268027210885	57	127
515.0526530612245	515.2268027210885	42	127
515.2384126984127	515.342902494331	60	127
515.2384126984127	515.342902494331	45	127
515.3545124716553	515.517052154195	59	127
515.3545124716553	515.517052154195	38	127
515.5286621315192	515.7027891156463	43	127
515.5286621315192	515.7027891156463	55	127
515.7143990929706	515.8537414965987	50	127
515.7143990929706	515.8537414965987	47	127
515.8653514739229	516.0162811791383	59	127
515.8653514739229	516.0162811791383	38	127
516.0278911564626	516.178820861678	55	127
516.0278911564626	516.178820861678	43	127
516.1904308390023	516.3645804988662	47	127
516.1904308390023	516.3645804988662	50	127
516.3761904761905	516.527097505669	38	127
516.3761904761905	516.527097505669	54	127
516.527097505669	516.7128798185942	42	127
516.527097505669	516.7128798185942	57	127
516.7128798185942	516.9218367346939	60	127
516.7128798185942	516.9218367346939	45	127
516.9218367346939	517.2121088435374	59	127
516.9218367346939	517.1076190476191	38	127
517.1076190476191	517.3049886621316	43	127
517.2121088435374	517.4907482993198	62	127
517.3049886621316	517.4907482993198	47	127
517.4907482993198	517.6648979591837	54	127
517.4907482993198	518.0480272108844	74	127
517.4907482993198	518.0480272108844	62	127
517.6648979591837	517.8506575963719	55	127
517.8506575963719	518.0480272108844	59	127
518.0480272108844	518.5472562358277	63	127
518.0480272108844	518.5472562358277	75	127
518.0480272108844	518.2337868480726	50	127
518.2337868480726	518.4079365079365	54	127
518.4195464852608	518.5472562358277	57	127
518.5472562358277	519.6037641723356	62	127
518.5472562358277	519.6037641723356	74	127
518.5472562358277	518.7097959183674	50	127
518.7214058956916	518.872335600907	55	127
518.8839455782313	519.046485260771	59	127
519.0580952380952	519.2438548752834	54	127
519.2554648526077	519.4296145124716	55	127
519.4412244897959	519.6037641723356	59	127
519.6153741496598	520.1262131519275	75	127
519.6153741496598	520.1262131519275	63	127
519.6153741496598	519.7779138321996	50	127
519.7895011337869	519.9520634920635	54	127
519.9636734693878	520.1262131519275	57	127
520.1262131519275	520.3119727891157	50	127
520.1262131519275	521.2175283446712	74	127
520.1262131519275	521.2175283446712	62	127
520.3119727891157	520.5093424036281	55	127
520.5093424036281	520.6951020408163	59	127
520.6951020408163	520.8808616780045	54	127
520.8808616780045	521.0666213151927	55	127
521.0666213151927	521.2175283446712	59	127
521.2175283446712	521.3917006802722	50	127
521.2175283446712	521.74	63	127
521.2175283446712	521.74	75	127
521.3917006802722	521.5658503401361	54	127
521.5658503401361	521.74	57	127
521.74	522.8197278911565	74	127
521.74	522.8197278911565	62	127
521.74	521.9373696145125	50	127
521.9373696145125	522.0999092970521	55	127
522.1115192743764	522.2856689342403	59	127
522.2972789115646	522.4714285714285	54	127
522.4714285714285	522.6339682539683	55	127
522.6339682539683	522.8197278911565	59	127
522.8313378684808	523.3653968253968	63	127
522.8313378684808	523.3653968253968	75	127
522.8313378684808	523.0054875283447	50	127
523.0054875283447	523.1912471655329	54	127
523.1912471655329	523.3653968253968	57	127
523.3653968253968	524.5147845804988	62	127
523.3653968253968	523.5279365079365	50	127
523.3653968253968	524.5147845804988	74	127
523.5279365079365	523.7020861678004	55	127
523.7136961451247	523.8994557823129	59	127
523.9110657596372	524.0968027210885	54	127
524.1084353741496	524.3057823129252	55	127
524.3174149659864	524.5147845804988	59	127
524.5263945578231	524.7237641723356	48	127
524.5263945578231	524.6657142857143	76	127
524.5960544217687	524.7585941043084	77	127
524.6773242630386	524.828253968254	76	127
524.7353741496598	524.9095011337869	55	127
524.7585941043084	524.8863038548753	77	127
524.828253968254	524.9327437641723	76	127
524.8978911564626	525.0140136054422	77	127
524.921133786848	525.1068707482993	60	127
524.9443537414966	525.1068707482993	76	127
525.0256235827665	525.1881632653061	77	127
525.1068707482993	525.6873922902495	60	127
525.1068707482993	525.6873922902495	48	127
525.1068707482993	525.4435827664399	81	127
525.1068707482993	525.6873922902495	55	127
525.4551927437642	525.6873922902495	79	127
525.6990022675737	526.1866213151927	76	127
526.198231292517	526.7438775510204	52	127
526.198231292517	526.7438775510204	60	127
526.198231292517	526.7438775510204	48	127
526.198231292517	526.7438775510204	55	127
526.7554875283447	527.8816780045352	64	127
526.7554875283447	527.8816780045352	55	127
526.7554875283447	527.8816780045352	48	127
526.7554875283447	527.8816780045352	52	127
526.7554875283447	527.8816780045352	60	127
527.8932879818594	528.450566893424	60	127
527.8932879818594	528.450566893424	64	127
527.8932879818594	528.0326077097506	76	127
527.962925170068	528.1022675736962	77	127
528.0442176870748	528.1719047619048	76	127
528.1022675736962	528.2415873015873	77	127
528.183514739229	528.3228571428572	76	127
528.2531972789116	528.3808843537415	77	127
528.3228571428572	528.450566893424	76	127
528.3924943310658	528.4970068027211	77	127
528.450566893424	528.9265759637188	60	127
528.450566893424	528.671156462585	81	127
528.450566893424	528.9265759637188	64	127
528.671156462585	528.9265759637188	79	127
528.9265759637188	529.4258049886621	71	127
528.9265759637188	529.4258049886621	65	127
528.9265759637188	529.4258049886621	62	127
529.4490249433106	530.0643537414966	67	127
529.4490249433106	529.7392743764173	74	127
529.4490249433106	530.0643537414966	64	127
529.7508843537415	530.0643537414966	72	127
530.0643537414966	531.5968707482994	64	127
530.0643537414966	530.3778231292517	72	127
530.0643537414966	531.5968707482994	67	127
530.3778231292517	530.656462585034	76	127
530.656462585034	530.9234920634921	79	127
530.9234920634921	531.1789115646259	82	127
531.1905215419501	531.4111111111112	79	127
531.4227210884354	531.5968707482994	76	127
531.5968707482994	532.1425396825397	61	127
531.5968707482994	532.1425396825397	82	127
531.8638775510204	532.3979591836735	64	127
531.8638775510204	532.3979591836735	79	127
532.154149659864	532.6185487528345	67	127
532.154149659864	532.6185487528345	76	127
532.4095691609978	532.8739455782313	70	127
532.4095691609978	532.8739455782313	73	127
532.6185487528345	533.1061678004535	67	127
532.6185487528345	533.1061678004535	76	127
532.8855555555556	533.1061678004535	64	127
532.8855555555556	533.1061678004535	79	127
533.1177777777777	533.6402267573696	72	127
533.1177777777777	533.6402267573696	69	127
533.3731972789116	533.8840362811792	66	127
533.3731972789116	533.8840362811792	75	127
533.6402267573696	534.1394557823129	63	127
533.6402267573696	534.1394557823129	78	127
533.8840362811792	534.3600453514739	60	127
533.8840362811792	534.3600453514739	81	127
534.1510657596372	534.6154648526077	78	127
534.1510657596372	534.6154648526077	63	127
534.3716553287982	534.6154648526077	66	127
534.3716553287982	534.6154648526077	75	127
534.627074829932	535.1378911564626	59	127
534.627074829932	535.1378911564626	80	127
534.8708843537415	535.4165532879819	77	127
534.8708843537415	535.4165532879819	62	127
535.1378911564626	535.6719727891157	65	127
535.1378911564626	535.6719727891157	74	127
535.4165532879819	535.904172335601	71	127
535.4165532879819	535.904172335601	68	127
535.6719727891157	536.1015419501134	74	127
535.6719727891157	536.1015419501134	65	127
535.9157823129252	536.1015419501134	62	127
535.9157823129252	536.1015419501134	77	127
536.1015419501134	536.6472108843537	70	127
536.1015419501134	536.6472108843537	67	127
536.3801814058957	536.8910204081633	64	127
536.3801814058957	536.8910204081633	73	127
536.658820861678	537.1696371882086	61	127
536.658820861678	537.1696371882086	76	127
536.9026303854876	537.4250793650793	58	127
536.9026303854876	537.4250793650793	79	127
537.1696371882086	537.7037188208617	61	127
537.1696371882086	537.7037188208617	76	127
537.4250793650793	537.7037188208617	64	127
537.4250793650793	537.7037188208617	73	127
537.7037188208617	538.2726077097506	69	127
537.7037188208617	538.2726077097506	66	127
537.9707482993198	538.4815873015873	63	127
537.9707482993198	538.4815873015873	72	127
538.2726077097506	538.7021768707483	75	127
538.2726077097506	538.7021768707483	60	127
538.4815873015873	538.7021768707483	57	127
538.4815873015873	538.9692063492064	78	127
538.7021768707483	538.8298866213152	36	127
538.7021768707483	539.2129931972789	75	127
538.7718367346939	538.8995464852608	38	127
538.8414965986394	538.9692063492064	36	127
538.911156462585	539.0504761904762	38	127
538.9808163265307	539.4335827664399	72	127
538.9808163265307	539.1085260770975	36	127
539.0504761904762	539.1665759637189	38	127
539.1201360544218	539.2129931972789	36	127
539.1665759637189	539.2826757369614	38	127
539.2246031746032	539.6425850340136	69	127
539.2246031746032	539.6425850340136	41	127
539.4452154195011	539.8980045351474	72	127
539.4452154195011	539.8980045351474	39	127
539.6425850340136	540.7455328798186	36	127
539.6425850340136	540.188253968254	75	127
539.9096145124716	540.4901133786848	78	127
540.1998639455783	540.7455328798186	75	127
540.4901133786848	541.0009523809524	72	127
540.7455328798186	541.2099319727891	69	127
541.0009523809524	541.4769387755102	72	127
541.2099319727891	541.6975510204081	75	127
541.4769387755102	541.9645804988662	78	127
541.6975510204081	541.8136507936508	36	127
541.6975510204081	542.2432199546486	75	127
541.7556009070295	541.8832879818594	38	127
541.8136507936508	541.9645804988662	36	127
541.8832879818594	542.0342403628118	38	127
541.9645804988662	542.1039002267573	36	127
541.9645804988662	542.5102494331065	72	127
542.0342403628118	542.1619501133787	38	127
542.1039002267573	542.2432199546486	36	127
542.173560090703	542.3128798185941	38	127
542.2548299319728	542.7656689342404	41	127
542.2548299319728	542.7656689342404	69	127
542.5218594104308	543.0210884353742	39	127
542.5218594104308	543.0210884353742	72	127
542.7772789115646	543.2300680272109	75	127
542.7772789115646	543.7409070294784	36	127
543.0326984126984	543.4738775510205	78	127
543.2416780045352	543.7409070294784	69	127
543.4854875283447	543.7409070294784	76	127
543.7525170068027	544.205306122449	69	127
543.9382766439909	544.4607256235828	76	127
544.205306122449	544.6929251700681	79	127
544.4607256235828	544.9251247165533	81	127
544.6929251700681	545.180544217687	79	127
544.6929251700681	544.8090249433106	37	127
544.7509523809524	544.8554648526077	38	127
544.8090249433106	544.9251247165533	37	127
544.8554648526077	544.9947845804988	38	127
544.9251247165533	545.4243537414966	76	127
544.9251247165533	545.0644444444445	37	127
544.9947845804988	545.1224943310658	38	127
545.0644444444445	545.180544217687	37	127
545.1224943310658	545.2502040816327	38	127
545.180544217687	545.6913832199547	69	127
545.180544217687	545.6913832199547	42	127
545.4359637188209	545.9583900226758	40	127
545.4359637188209	545.9583900226758	76	127
545.7029931972789	546.1557823129252	79	127
545.7029931972789	546.6434013605442	37	127
545.97	546.3995918367347	81	127
546.1673696145125	546.6434013605442	79	127
546.4112018140589	546.898820861678	76	127
546.6550113378685	547.119410430839	69	127
546.9104308390023	547.3864172335601	76	127
547.119410430839	547.6070068027211	79	127
547.3864172335601	547.8508390022675	81	127
547.6070068027211	548.1178684807256	79	127
547.6070068027211	547.7463492063492	37	127
547.6766893424036	547.7927891156463	38	127
547.7463492063492	547.8508390022675	37	127
547.7927891156463	547.9321088435374	38	127
547.8508390022675	548.001746031746	37	127
547.8508390022675	548.3732879818594	76	127
547.9321088435374	548.0598185941043	38	127
548.001746031746	548.1178684807256	37	127
548.0598185941043	548.175918367347	38	127
548.1178684807256	548.6054875283447	69	127
548.1178684807256	548.6054875283447	42	127
548.3732879818594	548.8609070294784	40	127
548.3732879818594	548.8609070294784	76	127
548.6054875283447	549.6387528344671	37	127
548.6054875283447	549.104716553288	79	127
548.8725170068027	549.3949659863946	81	127
549.1163265306122	549.6387528344671	71	127
549.4065759637189	549.6387528344671	79	127
549.6503628117914	551.1480725623583	71	127
549.9174149659864	550.3818140589569	74	127
550.1496145124717	550.5559637188209	79	127
550.3934240362812	551.798231292517	83	127
550.5559637188209	550.6836734693877	38	127
550.5559637188209	551.1480725623583	79	127
550.6140136054422	550.7533333333333	40	127
550.6836734693877	550.822993197279	38	127
550.7533333333333	550.9274829931973	40	127
550.822993197279	551.3454421768707	74	127
550.822993197279	550.9971428571429	38	127
550.9274829931973	551.0667800453515	40	127
550.9971428571429	551.1480725623583	38	127
551.0667800453515	551.2061224489796	40	127
551.1480725623583	552.5064172335601	71	127
551.1480725623583	551.577641723356	45	127
551.3454421768707	551.798231292517	74	127
551.3454421768707	551.798231292517	43	127
551.577641723356	552.0420408163266	79	127
551.577641723356	553.0172789115646	38	127
551.798231292517	553.2262585034014	83	127
552.0420408163266	552.5064172335601	79	127
552.3206802721088	552.7270068027211	74	127
552.5180272108844	553.9228571428572	71	127
552.5180272108844	553.0172789115646	48	127
552.7386394557823	553.2262585034014	47	127
552.7386394557823	553.2262585034014	74	127
553.0288888888889	553.4584580498866	79	127
553.0288888888889	554.4685260770975	43	127
553.2378684807256	554.6775056689343	83	127
553.4700680272109	553.9228571428572	79	127
553.6790476190477	554.1898866213152	74	127
553.9228571428572	555.3508843537415	71	127
553.9228571428572	554.4685260770975	52	127
554.1898866213152	554.6775056689343	50	127
554.1898866213152	554.6775056689343	74	127
554.4685260770975	555.8617233560091	47	127
554.4685260770975	554.8748752834467	79	127
554.6775056689343	556.1403628117914	83	127
554.8748752834467	555.3508843537415	79	127
555.1186848072563	555.594693877551	74	127
555.3624716553288	555.8617233560091	57	127
555.3624716553288	556.8137188208617	71	127
555.6063038548753	556.1403628117914	55	127
555.6063038548753	556.1403628117914	74	127
555.8733333333333	556.8137188208617	50	127
555.8733333333333	556.4073696145125	79	127
556.1519727891157	556.8137188208617	83	127
556.4073696145125	556.8137188208617	79	127
556.5234920634921	556.8137188208617	74	127
556.8253514739229	557.4174376417234	59	127
556.8253514739229	557.4174376417234	55	127
556.8253514739229	556.9646712018141	83	127
556.8253514739229	557.4174376417234	50	127
556.9646712018141	557.1272108843538	67	127
557.1272108843538	557.2665306122449	69	127
557.2665306122449	557.4174376417234	72	127
557.4174376417234	557.4987301587302	70	127
557.4987301587302	557.6380498866213	71	127
557.6496598639455	557.7889795918368	74	127
557.800589569161	557.8934693877551	72	127
557.9050793650794	558.0443990929705	73	127
558.0560090702947	558.195328798186	76	127
558.2069387755103	558.3230385487528	73	127
558.3346485260771	558.4507256235828	74	127
558.462358276644	558.6016780045352	75	127
558.6016780045352	558.6248979591837	76	127
558.6248979591837	558.6945578231292	79	127
558.6945578231292	558.8106575963719	77	127
558.8106575963719	558.9383673469388	78	127
558.9383673469388	559.0892970521542	81	127
559.0892970521542	559.2053968253969	78	127
559.2053968253969	559.2750566893424	79	127
559.2866666666666	559.5420861678004	50	127
559.2866666666666	559.5420861678004	57	127
559.2866666666666	559.3911564625851	83	127
559.2866666666666	559.5420861678004	54	127
559.2866666666666	559.5420861678004	60	127
559.4027664399093	559.5420861678004	80	127
559.5536961451247	559.6930158730158	83	127
559.7046258503401	559.8091156462585	81	127
559.8207256235828	560.2967346938775	57	127
559.8207256235828	560.2967346938775	60	127
559.8207256235828	559.9948752834467	81	127
559.8207256235828	560.2967346938775	50	127
559.8207256235828	560.2967346938775	54	127
559.9136054421768	560.0645124716553	83	127
559.9948752834467	560.099365079365	81	127
560.0645124716553	560.1922448979592	83	127
560.1109750566893	560.2967346938775	81	127
560.2038548752835	560.3431746031746	83	127
560.2967346938775	560.447664399093	81	127
560.3780045351474	560.5173242630385	83	127
560.447664399093	560.5985941043084	81	127
560.5289342403628	560.668253968254	83	127
560.5985941043084	560.7379138321995	81	127
560.6798412698413	560.8075736961451	83	127
560.7495238095238	560.8772335600908	81	127
560.8075736961451	560.9004308390023	83	127
560.8772335600908	560.9585034013605	81	127
560.9004308390023	561.0049433106576	83	127
560.9701133786848	561.0746031746032	81	127
561.0049433106576	561.1442630385487	83	127
561.0861904761905	561.2023129251701	81	127
561.1442630385487	561.2603628117914	83	127
561.2139229024943	561.3067800453515	81	127
561.2603628117914	561.376462585034	83	127
561.3067800453515	561.4345124716554	81	127
561.376462585034	561.504149659864	83	127
561.4461224489796	561.5738321995465	81	127
561.5157596371882	561.6434920634921	83	127
561.5738321995465	561.6899319727892	81	127
561.6551020408164	561.7479818594104	83	127
561.6899319727892	561.8060317460317	81	127
561.7595918367347	561.8640816326531	83	127
561.8060317460317	561.9453514739229	81	127
561.8756916099774	561.99179138322	83	127
561.9453514739229	562.0730612244898	81	127
562.0034013605442	562.0962811791384	83	127
562.0730612244898	562.1775510204081	81	127
562.1078684807256	562.2472108843538	83	127
562.1775510204081	562.3168480725624	81	127
562.258820861678	562.3865306122449	83	127
562.3168480725624	562.4445804988662	81	127
562.3865306122449	562.5258276643991	83	127
562.4561904761905	562.5955102040816	81	127
562.5258276643991	562.6767800453515	83	127
562.6071201814059	562.7464172335601	81	127
562.6767800453515	562.8277097505669	83	127
562.7580498866213	562.8857596371882	81	127
562.8277097505669	562.9321768707483	83	127
562.8973696145125	563.0018594104308	81	127
562.9321768707483	563.0599092970522	83	127
563.0134693877551	563.1411564625851	81	127
563.0134693877551	563.1411564625851	62	127
563.0715192743764	563.2108390022676	83	127
563.1411564625851	563.2921088435374	64	127
563.1411564625851	563.2921088435374	81	127
563.2224489795918	563.361768707483	83	127
563.2921088435374	563.4430385487528	67	127
563.2921088435374	563.4430385487528	81	127
563.3733786848072	563.5010884353742	83	127
563.4430385487528	563.535918367347	81	127
563.4430385487528	563.535918367347	65	127
563.5010884353742	563.5707482993197	83	127
563.535918367347	563.6404081632653	66	127
563.535918367347	563.6404081632653	81	127
563.5707482993197	563.7100680272109	83	127
563.6404081632653	563.7913378684807	81	127
563.6404081632653	563.7913378684807	69	127
563.7216780045352	563.8377777777778	83	127
563.7913378684807	563.8958276643991	67	127
563.7913378684807	563.8958276643991	81	127
563.849387755102	563.9654648526077	83	127
563.9074376417234	564.0351473922902	68	127
563.9074376417234	564.0351473922902	81	127
563.9654648526077	564.1164172335601	83	127
564.0467573696145	564.1860770975056	81	127
564.0467573696145	564.1860770975056	69	127
564.1164172335601	564.2673469387755	83	127
564.1976870748299	564.3370068027211	81	127
564.1976870748299	564.3370068027211	72	127
564.2673469387755	564.4182766439909	83	127
564.3486167800454	564.4531065759637	71	127
564.3486167800454	564.4531065759637	81	127
564.4182766439909	564.5111564625851	83	127
564.4531065759637	564.5807936507937	71	127
564.4531065759637	564.5807936507937	81	127
564.5111564625851	564.6388662131519	83	127
564.5924263038548	564.685306122449	72	127
564.5924263038548	564.685306122449	81	127
564.6388662131519	564.7549659863946	83	127
564.6969160997733	564.8362358276644	81	127
564.6969160997733	564.8362358276644	71	127
564.7665532879819	564.90589569161	83	127
564.8362358276644	564.9871428571429	81	127
564.8362358276644	564.9871428571429	72	127
564.9175056689343	565.0568253968254	83	127
564.9871428571429	565.1380952380953	81	127
564.9871428571429	565.1380952380953	72	127
565.0684353741497	565.2077551020408	83	127
565.0684353741497	565.2077551020408	74	127
565.1380952380953	565.2890249433107	81	127
565.1380952380953	565.2890249433107	72	127
565.219365079365	565.3586848072563	74	127
565.219365079365	565.3586848072563	83	127
565.2890249433107	565.439954648526	72	127
565.2890249433107	565.439954648526	81	127
565.3702947845806	565.5096145124717	83	127
565.3702947845806	565.5096145124717	74	127
565.439954648526	565.5908616780046	72	127
565.439954648526	565.5908616780046	81	127
565.5212244897959	565.6489342403628	74	127
565.5212244897959	565.6489342403628	83	127
565.5908616780046	565.7185941043084	72	127
565.5908616780046	565.7185941043084	81	127
565.6605442176871	565.788231292517	74	127
565.6605442176871	565.788231292517	83	127
565.7185941043084	565.8463038548753	81	127
565.7185941043084	565.8463038548753	72	127
565.788231292517	565.9275736961451	83	127
565.788231292517	565.9275736961451	74	127
565.8579138321995	565.962403628118	72	127
565.8579138321995	565.962403628118	81	127
565.9275736961451	566.0436734693877	83	127
565.9275736961451	566.0436734693877	74	127
565.9740136054422	566.1133333333333	72	127
565.9740136054422	566.1133333333333	81	127
566.0436734693877	566.182993197279	74	127
566.0436734693877	566.182993197279	83	127
566.1249433106576	566.2410430839002	81	127
566.1249433106576	566.2410430839002	72	127
566.182993197279	566.2990929705215	74	127
566.182993197279	566.2990929705215	83	127
566.2526530612245	566.3687528344672	72	127
566.2526530612245	566.3687528344672	81	127
566.2990929705215	566.4384126984127	74	127
566.2990929705215	566.4384126984127	83	127
566.3803628117914	566.5080725623583	72	127
566.3803628117914	566.5080725623583	81	127
566.4500226757369	566.5429024943311	74	127
566.4500226757369	566.5429024943311	83	127
566.5080725623583	566.6125396825397	81	127
566.5080725623583	566.6125396825397	72	127
566.5429024943311	566.6822222222222	83	127
566.5429024943311	566.6822222222222	74	127
566.6125396825397	566.7634920634921	81	127
566.6125396825397	566.7634920634921	72	127
566.6938321995465	566.8331292517007	74	127
566.6938321995465	566.8331292517007	83	127
566.7634920634921	566.9028117913832	81	127
566.7634920634921	566.9028117913832	72	127
566.8447619047619	566.9724716553288	74	127
566.8447619047619	566.9724716553288	83	127
566.9028117913832	567.0537414965986	72	127
566.9028117913832	567.0537414965986	81	127
566.9840816326531	567.1234013605442	83	127
566.9840816326531	567.1234013605442	74	127
567.0537414965986	567.1930612244898	81	127
567.0537414965986	567.1930612244898	72	127
567.1350113378685	567.2627210884353	74	127
567.1350113378685	567.2627210884353	83	127
567.1930612244898	567.332380952381	72	127
567.1930612244898	567.332380952381	81	127
567.2743310657596	567.4020408163266	74	127
567.2743310657596	567.4020408163266	83	127
567.3439909297052	567.4717006802721	72	127
567.3439909297052	567.4717006802721	81	127
567.4020408163266	567.552970521542	83	127
567.4020408163266	567.552970521542	74	127
567.4833106575963	567.6110204081633	72	127
567.4833106575963	567.6110204081633	81	127
567.552970521542	567.6922902494331	83	127
567.552970521542	567.6922902494331	74	127
567.6226303854876	567.7619501133787	81	127
567.6226303854876	567.7619501133787	72	127
567.6922902494331	567.8431972789116	74	127
567.6922902494331	567.8431972789116	83	127
567.773560090703	567.9244897959184	81	127
567.773560090703	567.9244897959184	72	127
567.8431972789116	568.0057596371882	74	127
567.8431972789116	568.0057596371882	83	127
567.9360997732426	568.0638095238095	81	127
567.9360997732426	568.0638095238095	72	127
568.0057596371882	568.1450793650794	83	127
568.0057596371882	568.1450793650794	74	127
568.0754195011338	568.214739229025	81	127
568.0754195011338	568.214739229025	72	127
568.1450793650794	568.2843990929705	74	127
568.1450793650794	568.2843990929705	83	127
568.2263492063493	568.3656689342404	81	127
568.2263492063493	568.3656689342404	72	127
568.2960090702948	568.435328798186	74	127
568.2960090702948	568.435328798186	83	127
568.3656689342404	568.5165986394558	81	127
568.3656689342404	568.5165986394558	72	127
568.4469160997733	568.5746485260771	83	127
568.4469160997733	568.5746485260771	74	127
568.5165986394558	568.65589569161	81	127
568.5165986394558	568.65589569161	72	127
568.5862585034014	568.7255782312925	74	127
568.5862585034014	568.7255782312925	83	127
568.65589569161	568.8184580498867	72	127
568.65589569161	568.8184580498867	81	127
568.7371882086168	568.8881179138322	83	127
568.7371882086168	568.8881179138322	74	127
568.8184580498867	568.969387755102	81	127
568.8184580498867	568.969387755102	72	127
568.8997278911564	569.0390476190477	74	127
568.8997278911564	569.0390476190477	83	127
568.969387755102	569.1203174603174	72	127
568.969387755102	569.1203174603174	81	127
569.0506575963719	569.2015873015873	83	127
569.0506575963719	569.2015873015873	74	127
569.1203174603174	569.2712244897959	81	127
569.1203174603174	569.2712244897959	72	127
569.2131972789116	569.364126984127	83	127
569.2131972789116	569.364126984127	74	127
569.2828344671202	569.4337868480726	72	127
569.2828344671202	569.4337868480726	81	127
569.364126984127	569.5150566893424	74	127
569.364126984127	569.5150566893424	83	127
569.4453968253969	569.6079365079365	81	127
569.4453968253969	569.6079365079365	72	127
569.5150566893424	569.7356462585034	74	127
569.5150566893424	569.7356462585034	83	127
569.6311564625851	570.2580952380953	81	127
569.6311564625851	570.2580952380953	72	127
569.9678458049887	570.5251247165533	78	127
569.9678458049887	570.5251247165533	69	127
570.2580952380953	570.7457142857143	72	127
570.2580952380953	570.7457142857143	66	127
570.5251247165533	571.0359637188209	69	127
570.5251247165533	571.0359637188209	60	127
570.7457142857143	571.302993197279	72	127
570.7457142857143	571.302993197279	57	127
571.0475736961452	571.5816326530612	78	127
571.0475736961452	571.5816326530612	54	127
571.3145804988662	571.8951020408164	50	127
571.3145804988662	572.94	81	127
571.5932426303855	572.1969614512471	54	127
571.9067120181406	572.3595011337868	57	127
572.1969614512471	572.6613605442177	60	127
572.3595011337868	572.94	57	127
572.6613605442177	573.2650793650794	54	127
572.9515873015873	573.5669160997733	84	127
572.9515873015873	574.5885941043084	50	127
573.2766893424036	573.8571882086168	81	127
573.5785260770975	574.042947845805	78	127
573.8571882086168	574.3331972789116	72	127
574.042947845805	574.5885941043084	78	127
574.3331972789116	574.5885941043084	81	127
574.6002040816327	575.1691156462585	43	127
574.6002040816327	576.8293197278912	83	127
574.9136961451247	575.4477551020408	47	127
575.1807256235828	575.5986848072563	50	127
575.4477551020408	575.8773242630385	55	127
575.5986848072563	576.1675736961452	50	127
575.8773242630385	576.515873015873	47	127
576.1791836734694	577.792970521542	43	127
576.5274829931973	576.9802721088436	79	127
576.8409297052154	577.2705215419501	74	127
576.9802721088436	577.5143310657596	71	127
577.2705215419501	577.792970521542	74	127
577.5143310657596	578.0948299319728	79	127
577.8045804988662	578.3734693877551	43	127
577.8045804988662	580.1033333333334	83	127
578.106439909297	578.6288888888889	47	127
578.3850793650794	578.9307482993197	50	127
578.6404988662132	579.2326077097506	55	127
578.9307482993197	579.5344671201814	50	127
579.2326077097506	579.824716553288	47	127
579.8363265306123	580.2891156462586	79	127
580.1149433106576	580.5329024943311	74	127
580.3007256235828	580.8347845804989	43	127
580.3007256235828	580.8347845804989	71	127
580.5329024943311	581.1134240362812	38	127
580.5329024943311	581.1134240362812	74	127
580.8347845804989	581.4036734693877	79	127
580.8347845804989	581.4036734693877	35	127
581.1134240362812	581.5894331065759	83	127
581.1134240362812	581.5894331065759	31	127
581.415283446712	581.810022675737	79	127
581.415283446712	581.810022675737	35	127
581.6010430839002	582.0886621315193	38	127
581.6010430839002	582.0886621315193	74	127
581.8216326530612	582.4021315192743	43	127
581.8216326530612	582.0886621315193	71	127
582.1002721088436	582.251201814059	71	127
582.1002721088436	582.6807709750567	38	127
582.1699092970522	582.3208616780046	72	127
582.2628117913832	582.4021315192743	71	127
582.3324716553288	582.4834013605442	72	127
582.4021315192743	582.5530612244899	71	127
582.4021315192743	582.9594104308391	35	127
582.4834013605442	582.6111111111111	72	127
582.5646485260771	582.6807709750567	71	127
582.6111111111111	582.738820861678	72	127
582.6807709750567	583.2960997732426	76	127
582.6807709750567	583.2960997732426	31	127
582.9594104308391	583.621179138322	35	127
582.9594104308391	583.621179138322	74	127
583.2960997732426	583.7140589569161	38	127
583.2960997732426	583.7140589569161	71	127
583.621179138322	583.9810884353742	43	127
583.7140589569161	583.8301587301587	55	127
583.7140589569161	584.2481179138322	38	127
583.7721088435375	583.8998185941043	57	127
583.841768707483	583.9810884353742	55	127
583.9114285714286	584.062358276644	57	127
583.9926757369615	584.1204081632653	55	127
583.9926757369615	584.5151473922903	35	127
584.0739682539682	584.1784580498867	57	127
584.1204081632653	584.2481179138322	55	127
584.1900680272109	584.3293877551021	57	127
584.2597278911564	584.8169841269842	31	127
584.2597278911564	584.8169841269842	60	127
584.5267573696145	585.0724263038549	35	127
584.5267573696145	585.0724263038549	59	127
584.8169841269842	585.3626757369615	55	127
584.8169841269842	585.3626757369615	38	127
585.0840362811791	585.652925170068	43	127
585.3742857142857	585.8386621315193	38	127
585.3742857142857	585.5252154195011	71	127
585.4439455782313	585.5948752834468	72	127
585.5252154195011	585.652925170068	71	127
585.5948752834468	585.7225850340136	72	127
585.652925170068	585.8386621315193	35	127
585.652925170068	585.780634920635	71	127
585.7225850340136	585.827052154195	72	127
585.780634920635	585.8386621315193	71	127
585.827052154195	585.9083446712018	72	127
585.8386621315193	586.2450113378685	31	127
585.8386621315193	586.2450113378685	76	127
585.9315646258503	586.5817233560091	74	127
585.9315646258503	586.5817233560091	43	127
586.2450113378685	586.709433106576	66	127
586.2450113378685	586.709433106576	33	127
586.5933333333334	587.0461224489796	45	127
586.709433106576	587.371201814059	35	127
586.709433106576	587.371201814059	69	127
587.0577097505669	587.7195011337868	47	127
587.0577097505669	587.7195011337868	67	127
587.3828117913832	587.9168707482993	36	127
587.3828117913832	588.1374603174603	64	127
587.7195011337868	588.1374603174603	48	127
587.9168707482993	588.4393197278912	36	127
588.1490702947846	588.7295691609977	48	127
588.1490702947846	588.4393197278912	65	127
588.2883673469388	588.5786394557823	67	127
588.4509297052155	588.9733786848072	36	127
588.4509297052155	588.7295691609977	69	127
588.5902494331066	588.8340589569161	71	127
588.7295691609977	589.2404081632653	48	127
588.7295691609977	588.9733786848072	72	127
588.8340589569161	589.1010657596372	74	127
588.9733786848072	589.2404081632653	76	127
588.9733786848072	589.4842176870749	36	127
589.1010657596372	589.3565079365079	77	127
589.2404081632653	589.4842176870749	79	127
589.2404081632653	589.7860770975057	48	127
589.3681179138322	589.6351473922903	81	127
589.4958276643991	590.0995464852608	36	127
589.4958276643991	589.7860770975057	83	127
589.6467573696145	589.9369841269842	84	127
589.7976870748299	590.0995464852608	86	127
589.7976870748299	590.459455782313	48	127
589.9486167800453	590.0995464852608	88	127
590.1111564625851	590.459455782313	38	127
590.1111564625851	590.459455782313	90	127
590.1111564625851	590.459455782313	50	127
590.1111564625851	590.459455782313	81	127
590.1111564625851	590.459455782313	84	127
590.8541950113379	591.655283446712	43	127
590.8541950113379	591.655283446712	91	127
590.8541950113379	591.655283446712	79	127
590.8541950113379	591.655283446712	83	127
590.8541950113379	591.655283446712	31	127
