# onset,offset,note,velocity
0.045668934240362814	1.2647165532879818	63	127
0.045668934240362814	1.8800453514739228	67	127
0.045668934240362814	1.8800453514739228	39	127
0.045668934240362814	1.8800453514739228	46	127
1.2763265306122449	1.8800453514739228	58	127
1.903265306122449	3.1919727891156464	43	127
1.903265306122449	2.495374149659864	58	127
1.903265306122449	3.1919727891156464	63	127
1.903265306122449	3.1919727891156464	46	127
2.553424036281179	3.1919727891156464	55	127
3.2151927437641725	3.7724716553287982	56	127
3.2151927437641725	4.306530612244898	65	127
3.2151927437641725	4.306530612244898	41	127
3.2151927437641725	4.306530612244898	46	127
3.807301587301587	4.306530612244898	62	127
4.329750566893424	5.328208616780046	39	127
4.329750566893424	4.759319727891157	58	127
4.329750566893424	5.328208616780046	67	127
4.329750566893424	5.328208616780046	51	127
4.782539682539682	5.328208616780046	63	127
5.351428571428571	6.465986394557823	48	127
5.351428571428571	5.92031746031746	63	127
5.351428571428571	6.465986394557823	68	127
5.351428571428571	6.465986394557823	36	127
5.943537414965986	6.465986394557823	60	127
6.477596371882086	7.034875283446712	60	127
6.477596371882086	7.603764172335601	72	127
6.477596371882086	7.603764172335601	44	127
6.477596371882086	7.603764172335601	32	127
7.046485260770975	7.603764172335601	63	127
7.63859410430839	9.902539682539683	46	127
7.63859410430839	8.230702947845804	62	127
7.63859410430839	9.902539682539683	65	127
7.63859410430839	9.902539682539683	34	127
8.265510204081632	8.683492063492064	58	127
8.706712018140589	9.275600907029478	62	127
9.287210884353742	9.902539682539683	58	127
9.925759637188209	10.970657596371883	44	127
9.925759637188209	10.424965986394557	62	127
9.925759637188209	10.970657596371883	65	127
9.925759637188209	10.970657596371883	32	127
10.448208616780045	10.970657596371883	58	127
10.993854875283446	11.99233560090703	43	127
10.993854875283446	11.446666666666667	58	127
10.993854875283446	11.99233560090703	67	127
10.993854875283446	11.99233560090703	31	127
11.481496598639456	11.99233560090703	63	127
12.015555555555556	12.538004535147392	65	127
12.015555555555556	13.083673469387755	68	127
12.015555555555556	13.083673469387755	41	127
12.015555555555556	13.083673469387755	29	127
12.549614512471654	13.083673469387755	62	127
13.106893424036281	14.20984126984127	70	127
13.106893424036281	13.67578231292517	67	127
13.106893424036281	14.20984126984127	40	127
13.106893424036281	14.20984126984127	28	127
13.687392290249432	14.20984126984127	61	127
14.233061224489797	15.266349206349206	41	127
14.233061224489797	14.685850340136055	60	127
14.233061224489797	15.266349206349206	70	127
14.233061224489797	15.266349206349206	29	127
14.709070294784581	15.266349206349206	67	127
15.289569160997733	15.812018140589569	65	127
15.289569160997733	16.357687074829933	69	127
15.289569160997733	16.357687074829933	41	127
15.289569160997733	16.357687074829933	29	127
15.835238095238095	16.357687074829933	63	127
16.357687074829933	18.575192743764173	34	127
16.357687074829933	16.96140589569161	62	127
16.357687074829933	17.971473922902494	70	127
16.357687074829933	18.575192743764173	46	127
16.96140589569161	17.437414965986395	65	127
17.472244897959182	17.971473922902494	62	127
17.983061224489795	18.575192743764173	65	127
17.983061224489795	18.575192743764173	68	127
18.598412698412698	19.59687074829932	47	127
18.598412698412698	19.59687074829932	35	127
18.598412698412698	19.074421768707484	62	127
18.598412698412698	19.59687074829932	67	127
19.086031746031747	19.59687074829932	62	127
19.608480725623583	20.641768707482992	43	127
19.608480725623583	20.13092970521542	59	127
19.608480725623583	20.641768707482992	65	127
19.608480725623583	20.641768707482992	31	127
20.14251700680272	20.641768707482992	62	127
20.66498866213152	21.19904761904762	55	127
20.66498866213152	21.663424036281178	63	127
20.66498866213152	21.663424036281178	48	127
20.66498866213152	21.663424036281178	36	127
21.222244897959182	21.663424036281178	55	127
21.675056689342405	22.68512471655329	44	127
21.675056689342405	22.255555555555556	53	127
21.675056689342405	22.68512471655329	65	127
21.675056689342405	22.68512471655329	32	127
22.290385487528344	22.68512471655329	60	127
22.708344671201814	23.846122448979592	62	127
22.708344671201814	23.23079365079365	58	127
22.708344671201814	23.846122448979592	46	127
22.708344671201814	23.846122448979592	34	127
23.253990929705214	23.846122448979592	53	127
23.869342403628117	24.937460317460317	63	127
23.869342403628117	24.937460317460317	39	127
23.869342403628117	24.38018140589569	55	127
24.391791383219953	24.937460317460317	58	127
24.960680272108842	27.143356009070295	65	127
24.960680272108842	25.43668934240363	56	127
24.960680272108842	27.143356009070295	34	127
25.459909297052153	25.982358276643993	58	127
26.005578231292517	26.574467120181406	56	127
26.59768707482993	27.143356009070295	58	127
27.178185941043083	27.723854875283447	58	127
27.178185941043083	27.723854875283447	39	127
27.178185941043083	28.26952380952381	67	127
27.178185941043083	28.26952380952381	61	127
27.74707482993197	28.26952380952381	55	127
27.74707482993197	28.26952380952381	40	127
28.26952380952381	28.73392290249433	41	127
28.26952380952381	28.73392290249433	62	127
28.26952380952381	28.73392290249433	68	127
28.26952380952381	28.73392290249433	56	127
28.26952380952381	28.73392290249433	58	127
28.745532879818594	29.244761904761905	65	127
28.745532879818594	29.244761904761905	62	127
28.745532879818594	29.244761904761905	58	127
28.745532879818594	29.244761904761905	44	127
29.26798185941043	30.347709750566892	31	127
29.26798185941043	29.883310657596372	62	127
29.26798185941043	30.347709750566892	63	127
29.26798185941043	30.347709750566892	43	127
29.906530612244897	30.347709750566892	58	127
30.37092970521542	30.93981859410431	44	127
30.37092970521542	30.93981859410431	60	127
30.37092970521542	30.93981859410431	32	127
30.37092970521542	31.462267573696145	65	127
30.974648526077097	31.462267573696145	33	127
30.974648526077097	31.462267573696145	63	127
30.974648526077097	31.462267573696145	45	127
31.48548752834467	32.530362811791385	46	127
31.48548752834467	32.530362811791385	34	127
31.48548752834467	31.961496598639457	63	127
31.48548752834467	32.530362811791385	67	127
31.996326530612244	32.530362811791385	58	127
32.553605442176874	33.66816326530612	34	127
32.553605442176874	33.099274376417235	56	127
32.553605442176874	33.66816326530612	62	127
32.553605442176874	33.66816326530612	65	127
33.12249433106576	33.66816326530612	58	127
33.69138321995465	34.898820861678004	39	127
33.69138321995465	34.2718820861678	58	127
33.69138321995465	34.2718820861678	55	127
33.69138321995465	34.2718820861678	63	127
34.295102040816325	34.898820861678004	58	127
34.92204081632653	35.53736961451247	58	127
35.57219954648526	36.17591836734694	55	127
36.1875283446712	37.371746031746035	51	127
36.1875283446712	36.74480725623583	58	127
36.1875283446712	37.371746031746035	46	127
36.768027210884355	37.371746031746035	55	127
37.39496598639456	38.021904761904764	58	127
37.39496598639456	38.66045351473923	46	127
37.39496598639456	38.66045351473923	50	127
38.04512471655329	38.66045351473923	56	127
38.69528344671202	39.9259410430839	55	127
38.69528344671202	39.9259410430839	39	127
38.69528344671202	39.9259410430839	46	127
38.69528344671202	39.9259410430839	51	127
40.970839002267574	42.004126984126984	75	127
40.970839002267574	42.004126984126984	46	127
40.970839002267574	42.004126984126984	58	127
40.970839002267574	42.004126984126984	79	127
42.03895691609977	43.28122448979592	62	127
42.03895691609977	43.28122448979592	77	127
42.03895691609977	43.28122448979592	70	127
42.03895691609977	43.28122448979592	58	127
43.30444444444444	44.953061224489794	63	127
43.30444444444444	44.953061224489794	75	127
43.30444444444444	44.953061224489794	51	127
43.30444444444444	44.953061224489794	58	127
43.30444444444444	44.953061224489794	67	127
45.54517006802721	46.49716553287982	51	127
45.54517006802721	46.49716553287982	67	127
45.54517006802721	46.49716553287982	75	127
45.54517006802721	46.49716553287982	58	127
45.54517006802721	46.49716553287982	63	127
46.84548752834467	47.77428571428572	75	127
46.84548752834467	47.77428571428572	67	127
46.84548752834467	47.77428571428572	63	127
46.84548752834467	47.77428571428572	58	127
46.84548752834467	47.77428571428572	51	127
48.134195011337866	49.52739229024943	58	127
48.134195011337866	49.52739229024943	67	127
48.134195011337866	49.52739229024943	75	127
48.134195011337866	49.52739229024943	51	127
48.134195011337866	49.52739229024943	63	127
51.04829931972789	52.19768707482993	58	127
51.04829931972789	52.19768707482993	51	127
51.04829931972789	52.19768707482993	55	127
51.04829931972789	52.76657596371882	67	127
52.22090702947846	52.76657596371882	63	127
52.22090702947846	52.76657596371882	58	127
52.22090702947846	52.76657596371882	51	127
52.22090702947846	52.76657596371882	55	127
53.26580498866213	54.426802721088436	56	127
53.26580498866213	54.426802721088436	47	127
53.26580498866213	54.426802721088436	53	127
53.26580498866213	55.08857142857143	65	127
54.45002267573696	55.08857142857143	56	127
54.45002267573696	55.08857142857143	62	127
54.45002267573696	55.08857142857143	47	127
54.45002267573696	55.08857142857143	53	127
55.49492063492063	57.28285714285714	51	127
55.49492063492063	57.28285714285714	55	127
55.49492063492063	57.28285714285714	63	127
55.49492063492063	57.28285714285714	48	127
56.67913832199547	57.28285714285714	60	127
56.67913832199547	57.28285714285714	68	127
56.67913832199547	57.28285714285714	44	127
57.78208616780045	59.6512925170068	51	127
57.78208616780045	59.00113378684807	46	127
57.78208616780045	59.6512925170068	58	127
57.78208616780045	59.6512925170068	67	127
59.0243537414966	59.6512925170068	56	127
59.0243537414966	59.6512925170068	62	127
59.0243537414966	59.6512925170068	53	127
59.0243537414966	59.6512925170068	46	127
60.220181405895694	62.031337868480726	53	127
60.220181405895694	61.35795918367347	56	127
60.220181405895694	61.35795918367347	46	127
60.220181405895694	62.031337868480726	62	127
61.381179138322	62.031337868480726	46	127
61.381179138322	62.031337868480726	56	127
61.381179138322	62.031337868480726	65	127
61.381179138322	62.031337868480726	50	127
62.05455782312925	63.877324263038545	55	127
62.05455782312925	63.877324263038545	63	127
62.05455782312925	63.877324263038545	39	127
62.05455782312925	63.877324263038545	51	127
65.04993197278911	66.24575963718821	55	127
65.04993197278911	66.24575963718821	37	127
65.04993197278911	66.24575963718821	49	127
65.04993197278911	66.82625850340136	58	127
66.26897959183674	66.82625850340136	55	127
66.26897959183674	66.82625850340136	51	127
66.26897959183674	66.82625850340136	37	127
66.26897959183674	66.82625850340136	49	127
67.40675736961451	68.62578231292517	56	127
67.40675736961451	68.62578231292517	36	127
67.40675736961451	68.62578231292517	48	127
67.40675736961451	69.29918367346939	60	127
68.64902494331066	69.29918367346939	51	127
68.64902494331066	69.29918367346939	56	127
68.64902494331066	69.29918367346939	36	127
68.64902494331066	69.29918367346939	48	127
69.69392290249434	70.94780045351474	55	127
69.69392290249434	70.94780045351474	34	127
69.69392290249434	70.94780045351474	46	127
69.69392290249434	71.58634920634921	61	127
70.98263038548752	71.58634920634921	51	127
70.98263038548752	71.58634920634921	55	127
70.98263038548752	71.58634920634921	34	127
70.98263038548752	71.58634920634921	46	127
72.17843537414966	74.1637641723356	46	127
72.17843537414966	73.46716553287982	51	127
72.17843537414966	73.46716553287982	63	127
72.17843537414966	74.1637641723356	34	127
73.50199546485261	74.1637641723356	51	127
73.50199546485261	74.1637641723356	63	127
73.50199546485261	74.1637641723356	32	127
73.50199546485261	74.1637641723356	44	127
74.53528344671201	75.71950113378685	54	127
74.53528344671201	75.71950113378685	60	127
74.53528344671201	75.71950113378685	63	127
74.53528344671201	75.71950113378685	32	127
74.53528344671201	75.71950113378685	44	127
75.74272108843537	76.39287981859411	54	127
75.74272108843537	76.39287981859411	60	127
75.74272108843537	76.39287981859411	63	127
75.74272108843537	76.39287981859411	32	127
75.74272108843537	76.39287981859411	44	127
76.88047619047619	78.19242630385487	65	127
76.88047619047619	78.19242630385487	53	127
76.88047619047619	78.19242630385487	61	127
76.88047619047619	78.19242630385487	44	127
76.88047619047619	78.19242630385487	32	127
78.25047619047619	78.87741496598639	53	127
78.25047619047619	78.87741496598639	61	127
78.25047619047619	78.87741496598639	65	127
78.25047619047619	78.87741496598639	32	127
78.25047619047619	78.87741496598639	44	127
79.52757369614513	80.87433106575963	54	127
79.52757369614513	80.87433106575963	60	127
79.52757369614513	80.87433106575963	63	127
79.52757369614513	80.87433106575963	32	127
79.52757369614513	80.87433106575963	44	127
80.89755102040816	81.53609977324263	54	127
80.89755102040816	81.53609977324263	60	127
80.89755102040816	81.53609977324263	63	127
80.89755102040816	81.53609977324263	32	127
80.89755102040816	81.53609977324263	44	127
81.90761904761905	83.2427664399093	32	127
81.90761904761905	83.2427664399093	65	127
81.90761904761905	83.2427664399093	44	127
81.90761904761905	83.2427664399093	53	127
81.90761904761905	83.2427664399093	61	127
83.26598639455783	83.93936507936507	44	127
83.26598639455783	83.93936507936507	53	127
83.26598639455783	83.93936507936507	61	127
83.26598639455783	83.93936507936507	65	127
83.26598639455783	83.93936507936507	49	127
84.60111111111111	85.77374149659865	48	127
84.60111111111111	85.77374149659865	56	127
84.60111111111111	85.77374149659865	60	127
84.60111111111111	85.77374149659865	63	127
84.60111111111111	85.77374149659865	44	127
85.8201814058957	86.42390022675737	63	127
85.8201814058957	86.42390022675737	48	127
85.8201814058957	86.42390022675737	60	127
85.8201814058957	86.42390022675737	44	127
85.8201814058957	86.42390022675737	56	127
87.02759637188208	88.29310657596372	50	127
87.02759637188208	88.29310657596372	56	127
87.02759637188208	88.29310657596372	58	127
87.02759637188208	88.29310657596372	65	127
87.02759637188208	88.29310657596372	38	127
88.33954648526077	89.0825850340136	38	127
88.33954648526077	89.0825850340136	50	127
88.33954648526077	89.0825850340136	56	127
88.33954648526077	89.0825850340136	58	127
88.33954648526077	89.0825850340136	65	127
89.77918367346939	91.04467120181405	56	127
89.77918367346939	91.04467120181405	60	127
89.77918367346939	91.04467120181405	63	127
89.77918367346939	91.04467120181405	39	127
89.77918367346939	91.04467120181405	51	127
91.06786848072562	91.86897959183673	56	127
91.06786848072562	91.86897959183673	60	127
91.06786848072562	91.86897959183673	63	127
91.06786848072562	91.86897959183673	39	127
91.06786848072562	91.86897959183673	51	127
92.46108843537415	93.76140589569161	63	127
92.46108843537415	93.76140589569161	58	127
92.46108843537415	93.76140589569161	61	127
92.46108843537415	93.76140589569161	39	127
92.46108843537415	93.76140589569161	51	127
93.7962358276644	94.7714739229025	58	127
93.7962358276644	94.7714739229025	61	127
93.7962358276644	94.7714739229025	63	127
93.7962358276644	94.7714739229025	39	127
93.7962358276644	94.7714739229025	51	127
94.81791383219955	96.08340136054422	51	127
94.81791383219955	95.14299319727891	62	127
94.81791383219955	96.08340136054422	44	127
94.81791383219955	96.08340136054422	48	127
95.1778231292517	95.44485260770975	63	127
95.47968253968254	95.76993197278911	60	127
95.79315192743765	96.08340136054422	63	127
96.10662131519274	97.16312925170068	51	127
96.10662131519274	96.38526077097505	62	127
96.10662131519274	97.16312925170068	44	127
96.10662131519274	97.16312925170068	48	127
96.40848072562358	96.67551020408163	63	127
96.69873015873016	96.93092970521542	60	127
96.93092970521542	97.16312925170068	63	127
97.1863492063492	98.26607709750567	51	127
97.1863492063492	97.46498866213152	62	127
97.1863492063492	98.26607709750567	44	127
97.1863492063492	98.26607709750567	48	127
97.48820861678004	97.70879818594105	63	127
97.73201814058957	97.97582766439909	60	127
97.99904761904762	98.26607709750567	63	127
98.30090702947845	99.48512471655329	44	127
98.30090702947845	98.52149659863946	62	127
98.30090702947845	99.48512471655329	48	127
98.30090702947845	99.48512471655329	51	127
98.55632653061224	98.83496598639456	63	127
98.86979591836734	99.16004535147393	60	127
99.18326530612245	99.48512471655329	63	127
99.50834467120181	99.79859410430839	48	127
99.50834467120181	100.7390022675737	51	127
99.50834467120181	100.7390022675737	63	127
99.82181405895692	100.14689342403628	49	127
100.1701133786848	100.46036281179138	39	127
100.48358276643991	100.7390022675737	49	127
100.76222222222222	101.04086167800453	48	127
100.76222222222222	101.94643990929706	51	127
100.76222222222222	101.94643990929706	63	127
101.06408163265306	101.33111111111111	49	127
101.35433106575964	101.64458049886622	39	127
101.66780045351474	101.94643990929706	49	127
101.98126984126984	103.02616780045352	61	127
101.98126984126984	103.02616780045352	51	127
101.98126984126984	103.02616780045352	63	127
101.98126984126984	102.24829931972789	45	127
102.28312925170069	102.38761904761905	46	127
102.41083900226758	102.71269841269842	39	127
102.73591836734694	103.02616780045352	46	127
103.04938775510205	104.09428571428572	61	127
103.04938775510205	103.30480725623583	45	127
103.04938775510205	104.09428571428572	51	127
103.04938775510205	104.09428571428572	63	127
103.32802721088436	103.44412698412698	46	127
103.44412698412698	103.75759637188209	39	127
103.78081632653061	104.09428571428572	46	127
104.11750566893424	105.19723356009071	48	127
104.11750566893424	104.43097505668935	62	127
104.11750566893424	105.19723356009071	44	127
104.45419501133787	104.74444444444444	63	127
104.76766439909296	105.05791383219955	60	127
105.08113378684807	105.19723356009071	63	127
105.22045351473923	106.2653514739229	44	127
105.22045351473923	106.2653514739229	48	127
105.22045351473923	105.49909297052154	62	127
105.22045351473923	106.2653514739229	51	127
105.52231292517007	105.78934240362811	63	127
105.81256235827665	106.06798185941044	60	127
106.09120181405896	106.2653514739229	63	127
106.28857142857143	107.25219954648526	44	127
106.28857142857143	106.54399092970522	62	127
106.28857142857143	107.25219954648526	48	127
106.28857142857143	107.25219954648526	51	127
106.57882086167801	106.82263038548753	63	127
106.84585034013605	107.04321995464852	60	127
107.07804988662132	107.25219954648526	63	127
107.27541950113378	108.42480725623582	44	127
107.27541950113378	107.56566893424036	62	127
107.27541950113378	108.42480725623582	48	127
107.58888888888889	107.84430839002268	63	127
107.8675283446712	108.11133786848073	59	127
108.13455782312926	108.42480725623582	60	127
108.44802721088435	108.73827664399093	43	127
108.44802721088435	109.6902947845805	58	127
108.44802721088435	109.6902947845805	60	127
108.76149659863945	109.05174603174603	43	127
109.07496598639456	109.36521541950114	36	127
109.38843537414967	109.6902947845805	43	127
109.71351473922903	109.99215419501134	42	127
109.71351473922903	110.90934240362812	60	127
109.71351473922903	110.90934240362812	58	127
110.02698412698413	110.3172335600907	43	127
110.34045351473922	110.61909297052154	36	127
110.65392290249433	110.90934240362812	43	127
110.93256235827664	111.22281179138322	45	127
110.93256235827664	112.00068027210884	48	127
110.93256235827664	112.00068027210884	60	127
111.257641723356	111.51306122448979	46	127
111.54789115646258	111.76848072562358	36	127
111.80331065759637	112.00068027210884	46	127
112.00068027210884	113.19650793650794	48	127
112.00068027210884	112.30253968253969	45	127
112.00068027210884	113.19650793650794	60	127
112.32575963718821	112.56956916099773	46	127
112.60439909297052	112.85981859410431	36	127
112.89464852607709	113.19650793650794	46	127
113.21972789115647	114.39233560090703	44	127
113.21972789115647	113.5215873015873	59	127
113.21972789115647	114.39233560090703	41	127
113.54480725623583	113.82344671201814	60	127
113.84666666666666	114.0904761904762	56	127
114.11369614512472	114.39233560090703	60	127
114.41555555555556	115.40240362811791	53	127
114.41555555555556	114.70580498866214	59	127
114.41555555555556	115.40240362811791	41	127
114.72902494331066	114.96122448979592	60	127
114.98444444444445	115.26308390022676	56	127
115.29791383219954	115.40240362811791	60	127
115.4372335600907	116.48213151927438	46	127
115.4372335600907	115.68104308390022	61	127
115.4372335600907	116.48213151927438	34	127
115.71587301587302	115.98290249433107	62	127
116.0061224489796	116.27315192743764	56	127
116.29637188208616	116.48213151927438	62	127
116.5053514739229	117.480589569161	46	127
116.5053514739229	116.74916099773243	61	127
116.5053514739229	117.480589569161	34	127
116.77238095238096	116.99297052154195	62	127
117.01619047619047	117.27160997732426	56	127
117.29482993197279	117.480589569161	62	127
117.50380952380952	118.56031746031746	46	127
117.50380952380952	117.7940589569161	62	127
117.50380952380952	118.56031746031746	34	127
117.81727891156463	118.08430839002267	63	127
118.1075283446712	118.27006802721088	58	127
118.30489795918368	118.56031746031746	63	127
118.58353741496599	118.8273469387755	62	127
118.58353741496599	119.64004535147393	34	127
118.58353741496599	119.64004535147393	46	127
118.8621768707483	119.07115646258504	63	127
119.09437641723356	119.38462585034014	58	127
119.40784580498867	119.64004535147393	63	127
119.66326530612245	120.66172335600908	34	127
119.66326530612245	119.95351473922902	65	127
119.66326530612245	120.66172335600908	46	127
119.97673469387755	120.2437641723356	66	127
120.26698412698413	120.49918367346939	63	127
120.52240362811791	120.66172335600908	66	127
120.6849433106576	120.97519274376417	65	127
120.6849433106576	121.66018140589568	46	127
120.6849433106576	121.66018140589568	34	127
120.9984126984127	121.2190022675737	66	127
121.24222222222222	121.49764172335601	63	127
121.53247165532879	121.66018140589568	66	127
121.69501133786848	122.7282993197279	44	127
121.69501133786848	121.97365079365079	65	127
121.69501133786848	122.7282993197279	32	127
122.00848072562358	122.24068027210885	66	127
122.26390022675737	122.49609977324263	63	127
122.49609977324263	122.7282993197279	66	127
122.75151927437642	123.83124716553289	44	127
122.75151927437642	123.04176870748299	65	127
122.75151927437642	123.83124716553289	32	127
123.06498866213153	123.34362811791384	66	127
123.36684807256236	123.6338775510204	63	127
123.65709750566893	123.83124716553289	66	127
123.85446712018141	124.85292517006803	41	127
123.85446712018141	124.14471655328798	67	127
123.85446712018141	124.85292517006803	29	127
124.1679365079365	124.44657596371881	68	127
124.46979591836735	124.65555555555555	61	127
124.69038548752835	124.85292517006803	68	127
124.88775510204081	125.96748299319728	29	127
124.88775510204081	125.15478458049887	67	127
124.88775510204081	125.96748299319728	41	127
125.18961451247165	125.44503401360544	68	127
125.46825396825396	125.70045351473922	61	127
125.72367346938775	125.96748299319728	68	127
125.9907029478458	126.28095238095239	65	127
125.9907029478458	126.98916099773243	42	127
125.9907029478458	126.98916099773243	30	127
126.30417233560091	126.54798185941043	66	127
126.57120181405895	126.84984126984126	61	127
126.8730612244898	126.98916099773243	66	127
127.01238095238095	128.0688888888889	30	127
127.01238095238095	127.27941043083901	65	127
127.01238095238095	128.0688888888889	42	127
127.27941043083901	127.5348299319728	66	127
127.55804988662132	127.76702947845806	61	127
127.80185941043084	128.0688888888889	66	127
128.10371882086167	129.09056689342404	44	127
128.10371882086167	128.382358276644	64	127
128.10371882086167	129.09056689342404	32	127
128.4055782312925	128.67260770975057	65	127
128.6958276643991	128.9744671201814	59	127
128.99768707482994	129.09056689342404	65	127
129.1137641723356	129.40403628117915	64	127
129.1137641723356	130.23993197278912	32	127
129.1137641723356	130.23993197278912	44	127
129.42725623582766	129.68267573696144	65	127
129.70589569160998	129.93809523809523	59	127
129.96131519274377	130.23993197278912	65	127
130.2631746031746	131.3312925170068	34	127
130.2631746031746	130.5185941043084	63	127
130.2631746031746	131.3312925170068	46	127
130.54179138321996	130.77401360544218	64	127
130.79721088435375	131.0526530612245	61	127
131.08748299319728	131.3312925170068	64	127
131.36612244897958	132.38777777777779	34	127
131.36612244897958	131.6447619047619	63	127
131.36612244897958	132.38777777777779	46	127
131.66795918367347	131.8305215419501	64	127
131.85374149659864	132.10916099773243	61	127
132.132358276644	132.38777777777779	64	127
132.41102040816327	133.60684807256237	47	127
132.41102040816327	132.72448979591837	62	127
132.41102040816327	133.60684807256237	35	127
132.75931972789115	133.01473922902494	63	127
133.03795918367348	133.30496598639456	51	127
133.32820861678005	133.60684807256237	63	127
133.63006802721088	133.9087074829932	62	127
133.63006802721088	134.74462585034013	47	127
133.63006802721088	134.74462585034013	35	127
133.9087074829932	134.1292970521542	63	127
134.15251700680273	134.43113378684808	51	127
134.46598639455783	134.74462585034013	63	127
134.77945578231294	135.9520634920635	46	127
134.77945578231294	135.08131519274377	62	127
134.77945578231294	135.9520634920635	34	127
135.11614512471655	135.33673469387756	63	127
135.35995464852607	135.65020408163267	51	127
135.67342403628118	135.9520634920635	63	127
135.975283446712	136.25392290249434	62	127
135.975283446712	136.98532879818595	46	127
135.975283446712	136.98532879818595	34	127
136.27714285714285	136.56739229024944	63	127
136.59061224489795	136.7995918367347	51	127
136.7995918367347	136.98532879818595	63	127
137.00857142857143	137.28721088435375	62	127
137.00857142857143	138.1463492063492	45	127
137.00857142857143	138.1463492063492	33	127
137.31043083900227	137.5890702947846	63	127
137.6122902494331	137.87931972789116	51	127
137.91414965986394	138.1463492063492	63	127
138.181179138322	139.23766439909298	33	127
138.181179138322	138.43659863945578	62	127
138.181179138322	139.23766439909298	45	127
138.45981859410432	138.7152380952381	63	127
138.73845804988662	138.9706575963719	51	127
138.9938775510204	139.23766439909298	63	127
139.26090702947846	140.42190476190476	34	127
139.26090702947846	139.5395238095238	61	127
139.26090702947846	140.42190476190476	46	127
139.5627664399093	139.7949433106576	62	127
139.81818594104308	140.12004535147392	50	127
140.14326530612246	140.42190476190476	62	127
140.4451247165533	140.74698412698413	61	127
140.4451247165533	141.36231292517007	46	127
140.4451247165533	141.36231292517007	34	127
140.7701814058957	140.96757369614514	62	127
140.99079365079365	141.1765306122449	50	127
141.1765306122449	141.36231292517007	62	127
141.39714285714285	142.70904761904762	46	127
141.39714285714285	141.7338321995465	61	127
141.39714285714285	142.70904761904762	34	127
141.76866213151928	142.05891156462584	62	127
142.09374149659865	142.3956009070295	50	127
142.418820861678	142.70904761904762	62	127
142.7322902494331	143.080589569161	57	127
142.7322902494331	144.26480725623583	46	127
142.7322902494331	144.26480725623583	34	127
143.10380952380953	143.42886621315193	58	127
143.47530612244898	143.85845804988662	50	127
143.90489795918367	144.26480725623583	58	127
144.28802721088437	146.79578231292518	34	127
144.28802721088437	146.79578231292518	50	127
144.28802721088437	146.79578231292518	46	127
149.0132879818594	151.67197278911564	50	127
149.0132879818594	151.67197278911564	53	127
149.0132879818594	151.67197278911564	34	127
149.0132879818594	151.67197278911564	46	127
154.14489795918368	157.1518820861678	50	127
154.14489795918368	157.1518820861678	53	127
154.14489795918368	157.1518820861678	34	127
154.14489795918368	157.1518820861678	46	127
166.99714285714285	168.239410430839	63	127
168.27424036281178	169.42362811791384	57	127
169.4468253968254	170.57299319727892	56	127
169.4468253968254	170.57299319727892	59	127
169.4468253968254	170.57299319727892	50	127
169.4468253968254	170.57299319727892	53	127
170.5962358276644	171.83850340136055	58	127
170.5962358276644	171.83850340136055	52	127
170.5962358276644	171.83850340136055	61	127
170.5962358276644	171.83850340136055	43	127
170.5962358276644	171.83850340136055	49	127
171.87333333333333	173.25492063492064	56	127
171.87333333333333	173.25492063492064	60	127
171.87333333333333	173.25492063492064	44	127
171.87333333333333	173.25492063492064	53	127
171.87333333333333	173.25492063492064	48	127
173.28975056689342	175.22861678004534	46	127
173.28975056689342	175.22861678004534	53	127
173.28975056689342	175.22861678004534	56	127
173.28975056689342	175.22861678004534	58	127
173.28975056689342	175.22861678004534	50	127
175.26344671201815	175.94843537414965	55	127
175.26344671201815	175.94843537414965	58	127
175.26344671201815	176.5985941043084	39	127
175.26344671201815	176.5985941043084	46	127
175.9716553287982	176.5985941043084	58	127
176.62181405895691	177.21390022675737	58	127
176.62181405895691	177.81764172335602	46	127
176.62181405895691	177.81764172335602	43	127
177.24875283446713	177.81764172335602	55	127
177.84086167800453	178.3517006802721	56	127
177.84086167800453	178.87414965986395	41	127
177.84086167800453	178.87414965986395	46	127
178.37492063492064	178.87414965986395	62	127
178.89736961451248	179.4662358276644	58	127
178.89736961451248	180.00031746031746	46	127
178.89736961451248	180.00031746031746	39	127
179.4894784580499	180.00031746031746	63	127
180.023537414966	180.56920634920635	63	127
180.023537414966	181.1148752834467	48	127
180.023537414966	181.1148752834467	36	127
180.59240362811792	181.1148752834467	60	127
181.14968253968254	181.69537414965987	60	127
181.14968253968254	182.3107029478458	44	127
181.14968253968254	182.3107029478458	32	127
181.71859410430838	182.3107029478458	63	127
182.33392290249432	184.56303854875284	46	127
182.33392290249432	182.92603174603175	62	127
182.33392290249432	184.56303854875284	34	127
182.93764172335602	183.51814058956916	58	127
183.52975056689343	184.1102494331066	62	127
184.14507936507937	184.56303854875284	58	127
184.59786848072562	185.72403628117914	32	127
184.59786848072562	185.15514739229025	62	127
184.59786848072562	185.72403628117914	44	127
185.16675736961452	185.72403628117914	58	127
185.74725623582768	186.78054421768707	31	127
185.74725623582768	186.2348752834467	58	127
185.74725623582768	186.78054421768707	43	127
186.25809523809525	186.78054421768707	63	127
186.8037641723356	187.3726530612245	65	127
186.8037641723356	187.88349206349207	29	127
186.8037641723356	187.88349206349207	41	127
187.40748299319728	187.88349206349207	62	127
187.91832199546485	189.0096598639456	40	127
187.91832199546485	188.47560090702947	67	127
187.91832199546485	189.0096598639456	28	127
188.498820861678	189.0096598639456	61	127
189.0328798185941	189.59015873015872	60	127
189.0328798185941	190.0081179138322	41	127
189.0328798185941	190.0081179138322	29	127
189.59015873015872	190.0081179138322	67	127
190.03133786848073	190.5770068027211	65	127
190.03133786848073	191.15750566893425	41	127
190.03133786848073	191.15750566893425	29	127
190.61183673469387	191.15750566893425	63	127
191.19233560090703	191.73800453514738	62	127
191.19233560090703	193.3401814058957	34	127
191.19233560090703	193.3401814058957	46	127
191.74961451247165	192.3301133786848	65	127
192.35333333333332	192.7712925170068	62	127
192.79451247165534	193.3401814058957	65	127
193.3401814058957	194.41990929705216	35	127
193.3401814058957	193.86263038548753	62	127
193.3401814058957	194.41990929705216	47	127
193.88585034013605	194.41990929705216	62	127
194.45473922902494	195.00040816326532	59	127
194.45473922902494	195.49963718820862	43	127
194.45473922902494	195.49963718820862	31	127
195.02362811791383	195.49963718820862	62	127
195.52285714285713	196.0336961451247	55	127
195.52285714285713	196.61419501133787	48	127
195.52285714285713	196.61419501133787	36	127
196.04530612244898	196.61419501133787	55	127
196.63741496598638	197.60104308390024	44	127
196.63741496598638	197.24113378684808	53	127
196.63741496598638	197.60104308390024	32	127
197.2643537414966	197.60104308390024	60	127
197.63587301587302	198.19315192743764	58	127
197.63587301587302	198.78526077097504	46	127
197.63587301587302	198.78526077097504	34	127
198.21637188208618	198.78526077097504	53	127
198.80848072562358	199.98108843537415	39	127
198.80848072562358	199.37736961451247	55	127
199.40058956916099	199.98108843537415	58	127
200.0043083900227	200.49192743764172	56	127
200.0043083900227	202.21020408163264	34	127
200.51514739229026	200.99115646258502	62	127
201.02598639455783	201.60648526077097	56	127
201.61809523809524	202.21020408163264	62	127
202.23342403628118	202.80231292517007	39	127
202.23342403628118	202.80231292517007	58	127
202.23342403628118	202.80231292517007	61	127
202.82553287981858	203.2899319727891	61	127
202.82553287981858	203.2899319727891	40	127
202.82553287981858	203.2899319727891	58	127
203.31315192743764	203.81238095238095	58	127
203.31315192743764	203.81238095238095	56	127
203.31315192743764	203.81238095238095	62	127
203.31315192743764	203.81238095238095	41	127
203.8356009070295	204.3	58	127
203.8356009070295	204.3	62	127
203.8356009070295	204.3	44	127
204.3348299319728	205.48421768707482	43	127
204.3348299319728	204.88049886621314	58	127
204.3348299319728	204.88049886621314	61	127
204.3348299319728	205.48421768707482	31	127
204.90371882086168	205.48421768707482	61	127
204.90371882086168	205.48421768707482	58	127
205.50743764172336	206.1227664399093	44	127
205.50743764172336	206.1227664399093	60	127
205.50743764172336	206.1227664399093	32	127
206.1459863945578	206.76131519274375	60	127
206.1459863945578	206.76131519274375	45	127
206.1459863945578	206.76131519274375	33	127
206.1459863945578	206.76131519274375	63	127
206.7845351473923	207.4114739229025	63	127
206.7845351473923	207.4114739229025	58	127
206.7845351473923	207.9803628117914	46	127
206.7845351473923	207.9803628117914	34	127
207.434693877551	207.9803628117914	58	127
208.01519274376417	208.60730158730158	56	127
208.01519274376417	209.11814058956915	46	127
208.01519274376417	209.11814058956915	50	127
208.63052154195012	209.11814058956915	58	127
209.1413605442177	210.44167800453513	55	127
209.1413605442177	210.44167800453513	51	127
209.1413605442177	210.44167800453513	39	127
211.7419954648526	212.79850340136053	51	127
211.7419954648526	212.79850340136053	67	127
211.7419954648526	212.79850340136053	46	127
212.82172335600907	214.05238095238096	58	127
212.82172335600907	214.05238095238096	65	127
212.82172335600907	214.05238095238096	46	127
212.82172335600907	214.05238095238096	50	127
214.07560090702947	214.65609977324263	58	127
214.07560090702947	214.65609977324263	63	127
214.07560090702947	214.65609977324263	39	127
214.07560090702947	214.65609977324263	51	127
214.67931972789117	215.24820861678003	70	127
214.67931972789117	215.24820861678003	58	127
215.27142857142857	215.87514739229024	58	127
215.27142857142857	215.87514739229024	70	127
215.89836734693878	216.53691609977324	67	127
215.89836734693878	216.53691609977324	55	127
216.56013605442178	217.5469841269841	46	127
216.56013605442178	217.0245351473923	70	127
216.56013605442178	217.0245351473923	58	127
217.0477551020408	217.5469841269841	67	127
217.0477551020408	217.5469841269841	55	127
217.58181405895692	218.13909297052155	56	127
217.58181405895692	218.76603174603176	62	127
217.58181405895692	218.13909297052155	68	127
217.58181405895692	218.76603174603176	46	127
218.16231292517006	218.76603174603176	58	127
218.16231292517006	218.76603174603176	70	127
218.78925170068027	219.3813605442177	63	127
218.78925170068027	219.3813605442177	67	127
218.78925170068027	219.3813605442177	55	127
218.78925170068027	219.92702947845805	51	127
219.4045804988662	219.92702947845805	58	127
219.4045804988662	219.92702947845805	70	127
219.4045804988662	219.92702947845805	67	127
219.95024943310656	220.542358276644	67	127
219.95024943310656	220.542358276644	70	127
219.95024943310656	220.542358276644	58	127
220.5655782312925	221.2621768707483	63	127
220.5655782312925	221.2621768707483	67	127
220.5655782312925	221.2621768707483	55	127
221.30861678004536	221.88911564625852	63	127
221.30861678004536	221.88911564625852	67	127
221.30861678004536	221.88911564625852	55	127
221.30861678004536	222.2025850340136	51	127
221.91233560090703	222.46961451247165	67	127
221.91233560090703	222.46961451247165	70	127
221.91233560090703	222.46961451247165	58	127
222.48122448979592	223.00367346938776	67	127
222.48122448979592	223.00367346938776	70	127
222.48122448979592	223.00367346938776	58	127
222.48122448979592	223.3287528344671	51	127
223.02689342403627	223.64222222222222	63	127
223.02689342403627	223.64222222222222	67	127
223.02689342403627	223.64222222222222	55	127
223.66544217687076	224.31560090702948	63	127
223.66544217687076	224.31560090702948	67	127
223.66544217687076	224.91931972789115	51	127
223.66544217687076	224.91931972789115	55	127
224.35043083900226	225.60430839002268	79	127
225.6275283446712	226.35895691609977	75	127
226.42861678004536	228.36748299319729	70	127
226.42861678004536	228.36748299319729	51	127
226.42861678004536	228.36748299319729	55	127
226.42861678004536	228.36748299319729	58	127
228.40231292517007	230.53854875283446	65	127
228.40231292517007	230.53854875283446	68	127
228.40231292517007	230.53854875283446	47	127
228.40231292517007	230.53854875283446	53	127
228.40231292517007	230.53854875283446	56	127
230.561768707483	231.7227664399093	51	127
230.561768707483	231.7227664399093	63	127
230.561768707483	231.7227664399093	67	127
230.561768707483	231.7227664399093	48	127
230.561768707483	231.7227664399093	55	127
231.74598639455783	232.8489342403628	60	127
231.74598639455783	232.8489342403628	68	127
231.74598639455783	232.8489342403628	44	127
231.74598639455783	232.8489342403628	48	127
231.74598639455783	232.8489342403628	51	127
231.74598639455783	232.8489342403628	56	127
232.87215419501135	233.9518820861678	55	127
232.87215419501135	233.9518820861678	63	127
232.87215419501135	233.9518820861678	67	127
232.87215419501135	233.9518820861678	46	127
232.87215419501135	233.9518820861678	51	127
233.96349206349205	235.10126984126984	62	127
233.96349206349205	235.10126984126984	65	127
233.96349206349205	235.10126984126984	46	127
233.96349206349205	235.10126984126984	50	127
233.96349206349205	235.10126984126984	53	127
235.12448979591838	236.22743764172336	62	127
235.12448979591838	236.22743764172336	46	127
235.12448979591838	236.22743764172336	53	127
235.12448979591838	236.22743764172336	50	127
235.12448979591838	236.80793650793652	65	127
236.2506575963719	237.5045351473923	58	127
236.2506575963719	237.5045351473923	46	127
236.2506575963719	237.5045351473923	50	127
236.8427664399093	237.5045351473923	66	127
237.52775510204083	238.1314739229025	58	127
237.52775510204083	238.1314739229025	67	127
237.52775510204083	238.7584126984127	39	127
237.52775510204083	238.7584126984127	51	127
238.154693877551	239.08349206349206	79	127
238.95578231292518	239.23442176870748	78	127
239.1067120181406	239.36213151927439	79	127
239.24603174603175	239.478231292517	78	127
239.37374149659863	239.6291609977324	79	127
239.48984126984126	239.7917006802721	78	127
239.64077097505668	239.97746031746033	79	127
239.80331065759637	239.98907029478457	75	127
239.98907029478457	241.32421768707482	70	127
239.98907029478457	242.19496598639455	51	127
239.98907029478457	242.19496598639455	58	127
239.98907029478457	242.19496598639455	55	127
241.37065759637187	241.5796371882086	69	127
241.4867573696145	241.73056689342403	70	127
241.60285714285715	241.8931065759637	69	127
241.76539682539683	242.04403628117913	70	127
241.91632653061225	242.19496598639455	72	127
242.07886621315194	242.35750566893424	70	127
242.2181859410431	244.51696145124717	53	127
242.2181859410431	243.63460317460317	63	127
242.2181859410431	243.63460317460317	69	127
242.2181859410431	244.51696145124717	47	127
242.2181859410431	244.51696145124717	56	127
243.63460317460317	243.9132426303855	67	127
243.77392290249432	244.07578231292516	68	127
243.92485260770974	244.2267120181406	67	127
244.08739229024943	244.38925170068026	68	127
244.23832199546484	244.52857142857144	70	127
244.38925170068026	244.52857142857144	68	127
244.55179138321995	245.65473922902495	48	127
244.55179138321995	245.65473922902495	63	127
244.55179138321995	245.65473922902495	67	127
244.55179138321995	245.65473922902495	51	127
244.55179138321995	245.65473922902495	55	127
245.67795918367347	246.74607709750566	60	127
245.67795918367347	246.74607709750566	68	127
245.67795918367347	246.74607709750566	56	127
245.67795918367347	246.74607709750566	44	127
245.67795918367347	246.74607709750566	51	127
246.78090702947847	247.87224489795918	55	127
246.78090702947847	247.87224489795918	63	127
246.78090702947847	247.87224489795918	67	127
246.78090702947847	247.87224489795918	51	127
246.78090702947847	247.87224489795918	46	127
247.87224489795918	249.06807256235828	62	127
247.87224489795918	249.06807256235828	65	127
247.87224489795918	249.06807256235828	53	127
247.87224489795918	249.06807256235828	46	127
247.87224489795918	249.06807256235828	50	127
249.0912925170068	249.74145124716554	51	127
249.0912925170068	250.36839002267573	63	127
249.0912925170068	250.36839002267573	67	127
249.0912925170068	250.36839002267573	55	127
249.76467120181405	250.99532879818594	61	127
249.76467120181405	250.99532879818594	39	127
249.76467120181405	250.99532879818594	58	127
249.76467120181405	250.99532879818594	51	127
251.01854875283448	251.5990476190476	39	127
251.01854875283448	251.5990476190476	51	127
251.01854875283448	251.5990476190476	55	127
251.01854875283448	251.5990476190476	58	127
252.2608163265306	253.41020408163266	51	127
252.2608163265306	253.41020408163266	58	127
252.2608163265306	253.41020408163266	61	127
252.2608163265306	253.41020408163266	39	127
253.43342403628117	253.99070294784582	55	127
253.43342403628117	253.99070294784582	58	127
253.43342403628117	253.99070294784582	39	127
253.43342403628117	253.99070294784582	51	127
254.44349206349207	255.58126984126983	39	127
254.44349206349207	255.58126984126983	56	127
254.44349206349207	255.58126984126983	59	127
254.44349206349207	255.58126984126983	50	127
255.61609977324264	256.20820861678004	56	127
255.61609977324264	256.20820861678004	39	127
255.61609977324264	256.20820861678004	50	127
255.61609977324264	256.20820861678004	53	127
256.7654875283447	257.9961451247166	56	127
256.7654875283447	257.9961451247166	62	127
256.7654875283447	257.9961451247166	39	127
256.7654875283447	257.9961451247166	47	127
258.01936507936506	258.8320408163265	53	127
258.01936507936506	258.8320408163265	56	127
258.01936507936506	258.8320408163265	39	127
258.01936507936506	258.8320408163265	47	127
258.8668934240363	261.3398185941043	63	127
258.8668934240363	261.3398185941043	55	127
259.5518820861678	260.7128798185941	39	127
259.5518820861678	260.7128798185941	46	127
260.7477097505669	261.3398185941043	39	127
260.7477097505669	261.3398185941043	46	127
261.36303854875285	263.9520634920635	67	127
261.98997732426307	263.31351473922905	39	127
261.98997732426307	263.31351473922905	46	127
261.98997732426307	263.31351473922905	49	127
263.33673469387753	263.9520634920635	39	127
263.33673469387753	263.9520634920635	46	127
263.33673469387753	263.9520634920635	49	127
263.9868934240363	267.725283446712	68	127
263.9868934240363	267.725283446712	65	127
264.6138321995465	265.80965986394557	47	127
264.6138321995465	265.80965986394557	39	127
264.6138321995465	265.80965986394557	44	127
265.8328798185941	266.44820861678005	44	127
265.8328798185941	266.44820861678005	47	127
265.8328798185941	266.44820861678005	39	127
267.0983673469388	268.4799546485261	53	127
267.0983673469388	268.4799546485261	47	127
267.0983673469388	268.4799546485261	39	127
267.76013605442176	269.4087528344671	65	127
267.76013605442176	269.4087528344671	74	127
268.5379818594104	269.4087528344671	53	127
268.5379818594104	269.4087528344671	39	127
268.5379818594104	269.4087528344671	47	127
269.44358276643993	270.70907029478457	67	127
269.44358276643993	270.70907029478457	75	127
270.0937414965986	271.301156462585	46	127
270.0937414965986	271.301156462585	51	127
270.0937414965986	271.301156462585	39	127
270.7322902494331	271.9048979591837	67	127
271.3243990929705	271.9048979591837	46	127
271.3243990929705	271.9048979591837	51	127
271.3243990929705	271.9048979591837	39	127
271.9281179138322	273.3213151927438	70	127
271.9281179138322	273.4722448979592	67	127
272.52022675736964	273.76249433106574	46	127
272.52022675736964	273.76249433106574	39	127
272.52022675736964	273.76249433106574	49	127
273.33292517006805	273.64639455782316	70	127
273.507074829932	273.76249433106574	68	127
273.66961451247164	273.9134240362812	67	127
273.7857142857143	274.3778231292517	39	127
273.7857142857143	274.3778231292517	46	127
273.7857142857143	274.3778231292517	49	127
273.7857142857143	274.06433106575963	65	127
273.9366439909297	274.215283446712	63	127
274.0875736961451	274.3778231292517	62	127
274.23850340136056	274.38943310657595	63	127
274.4010430839002	275.6433106575964	63	127
275.0395918367347	276.2121768707483	47	127
275.0395918367347	276.2121768707483	39	127
275.0395918367347	276.2121768707483	44	127
275.6665306122449	276.7926984126984	62	127
276.2354195011338	276.7926984126984	39	127
276.2354195011338	276.7926984126984	44	127
276.2354195011338	276.7926984126984	47	127
276.82750566893424	278.3948752834467	65	127
276.82750566893424	278.3948752834467	62	127
276.82750566893424	278.3948752834467	68	127
277.4428571428571	278.7083446712018	47	127
277.4428571428571	278.7083446712018	39	127
277.4428571428571	278.7083446712018	53	127
278.2439455782313	278.54580498866216	71	127
278.41809523809525	278.7083446712018	70	127
278.5806349206349	278.88249433106574	68	127
278.73156462585035	279.3817006802721	39	127
278.73156462585035	279.04503401360546	67	127
278.73156462585035	279.3817006802721	47	127
278.73156462585035	279.3817006802721	53	127
278.91732426303855	279.19596371882085	68	127
279.068231292517	279.3817006802721	70	127
279.2191836734694	279.3817006802721	68	127
279.4049433106576	280.6704308390023	67	127
279.7532426303855	280.99551020408165	51	127
279.7532426303855	280.99551020408165	39	127
279.7532426303855	280.99551020408165	46	127
280.54272108843537	280.83297052154194	70	127
280.6936507936508	280.99551020408165	68	127
280.8561904761905	281.1696598639456	67	127
281.0187074829932	281.63403628117914	39	127
281.0187074829932	281.63403628117914	46	127
281.0187074829932	281.32056689342403	65	127
281.0187074829932	281.63403628117914	51	127
281.1928798185941	281.4831292517007	67	127
281.3438095238095	281.63403628117914	68	127
281.5063492063492	281.7849886621315	67	127
281.6572789115646	282.77183673469386	61	127
282.1681179138322	283.3987755102041	39	127
282.1681179138322	283.3987755102041	43	127
282.1681179138322	283.3987755102041	46	127
282.7950566893424	283.0736961451247	58	127
282.94598639455785	283.2362358276644	61	127
283.09691609977324	283.3987755102041	60	127
283.25943310657595	283.5497052154195	58	127
283.4336054421769	283.7006349206349	57	127
283.4336054421769	284.00249433106575	39	127
283.4336054421769	284.00249433106575	43	127
283.4336054421769	284.00249433106575	46	127
283.57290249433106	283.85156462585036	58	127
283.7354648526077	284.00249433106575	60	127
283.8747619047619	284.1998639455782	58	127
284.07215419501136	285.4305215419501	56	127
284.62943310657596	285.80204081632655	47	127
284.62943310657596	285.80204081632655	39	127
284.62943310657596	285.80204081632655	44	127
285.32603174603173	285.58145124716555	59	127
285.45374149659864	285.80204081632655	58	127
285.62789115646257	285.9645804988662	56	127
285.8252380952381	286.1270975056689	55	127
285.8252380952381	286.4173696145125	39	127
285.8252380952381	286.4173696145125	44	127
285.8252380952381	286.4173696145125	47	127
285.999410430839	286.26643990929705	56	127
286.1503401360544	286.4173696145125	58	127
286.2896598639456	286.61473922902496	56	127
286.440589569161	287.81056689342404	59	127
287.1836281179138	288.53038548752835	53	127
287.1836281179138	288.53038548752835	39	127
287.1836281179138	288.53038548752835	50	127
287.8337868480726	288.1704535147392	56	127
288.03115646258505	288.3562358276644	59	127
288.205306122449	288.53038548752835	58	127
288.37943310657596	288.75097505668936	56	127
288.5536054421769	289.1457142857143	55	127
288.5536054421769	289.5404535147392	39	127
288.5536054421769	289.5404535147392	53	127
288.5536054421769	289.5404535147392	50	127
288.84385487528345	289.34308390022676	56	127
289.16893424036283	289.5404535147392	58	127
289.3663038548753	289.5404535147392	56	127
289.57528344671204	292.02498866213153	50	127
289.57528344671204	292.02498866213153	53	127
289.57528344671204	292.02498866213153	39	127
289.57528344671204	292.02498866213153	56	127
292.70997732426304	294.56757369614513	46	127
292.70997732426304	294.56757369614513	67	127
292.70997732426304	294.56757369614513	55	127
292.70997732426304	294.56757369614513	39	127
292.70997732426304	294.56757369614513	51	127
295.3686621315193	297.5397278911565	56	127
295.3686621315193	297.5397278911565	39	127
295.3686621315193	297.5397278911565	50	127
295.3686621315193	297.5397278911565	46	127
298.2827664399093	300.22163265306125	51	127
298.2827664399093	300.22163265306125	67	127
298.2827664399093	300.22163265306125	55	127
298.2827664399093	300.22163265306125	39	127
298.2827664399093	300.22163265306125	46	127
300.9878911564626	302.72938775510204	67	127
300.9878911564626	302.72938775510204	55	127
300.9878911564626	303.0660770975057	39	127
300.9878911564626	303.0660770975057	46	127
300.9878911564626	303.0660770975057	51	127
302.60167800453513	302.89190476190475	82	127
302.76421768707485	303.0660770975057	80	127
302.9267573696145	303.1937641723356	79	127
303.0892970521542	303.3795464852608	77	127
303.2170068027211	303.565306122449	79	127
303.41437641723354	303.832335600907	75	127
303.6001360544218	304.0993650793651	70	127
303.85555555555555	305.71315192743765	55	127
303.85555555555555	305.71315192743765	67	127
303.85555555555555	306.0034013605442	39	127
303.85555555555555	306.0034013605442	46	127
303.85555555555555	306.0034013605442	51	127
305.5622222222222	305.84086167800456	79	127
305.7247619047619	306.0034013605442	77	127
305.8756916099773	306.2007709750567	75	127
306.038231292517	306.3865306122449	74	127
306.2356009070295	306.5490702947846	75	127
306.4097505668934	306.7232199546485	70	127
306.57226757369614	306.7232199546485	67	127
306.75804988662134	307.75650793650794	39	127
306.75804988662134	307.75650793650794	55	127
306.75804988662134	307.75650793650794	67	127
306.75804988662134	307.75650793650794	51	127
308.1396371882086	309.1380952380952	55	127
308.1396371882086	309.1380952380952	58	127
308.1396371882086	309.1380952380952	63	127
308.1396371882086	309.1380952380952	67	127
308.1396371882086	309.1380952380952	39	127
308.1396371882086	309.1380952380952	51	127
309.5444217687075	310.7518820861678	46	127
309.5444217687075	310.7518820861678	55	127
309.5444217687075	310.7518820861678	58	127
309.5444217687075	310.7518820861678	63	127
309.5444217687075	310.7518820861678	67	127
309.5444217687075	310.7518820861678	34	127
311.14662131519276	312.2031065759637	55	127
311.14662131519276	312.2031065759637	58	127
311.14662131519276	312.2031065759637	63	127
311.14662131519276	312.2031065759637	67	127
311.14662131519276	312.2031065759637	31	127
311.14662131519276	312.2031065759637	43	127
312.65591836734694	312.96938775510205	58	127
312.65591836734694	312.96938775510205	63	127
312.65591836734694	312.96938775510205	67	127
312.65591836734694	312.96938775510205	39	127
312.8184580498866	313.15514739229025	51	127
312.8184580498866	313.15514739229025	55	127
312.9926077097506	313.34090702947844	58	127
312.9926077097506	313.34090702947844	63	127
312.9926077097506	313.34090702947844	67	127
312.9926077097506	313.34090702947844	39	127
313.1783673469388	313.50344671201816	51	127
313.1783673469388	313.50344671201816	55	127
313.37573696145125	313.6659863945578	63	127
313.37573696145125	313.6659863945578	58	127
313.37573696145125	313.6659863945578	67	127
313.37573696145125	313.6659863945578	39	127
313.5382766439909	313.851746031746	55	127
313.5382766439909	313.851746031746	51	127
313.7008163265306	314.06072562358275	67	127
313.7008163265306	314.06072562358275	39	127
313.7008163265306	314.06072562358275	58	127
313.7008163265306	314.06072562358275	63	127
313.8865759637188	314.246462585034	55	127
313.8865759637188	314.246462585034	51	127
314.0839455782313	314.42063492063494	67	127
314.0839455782313	314.42063492063494	39	127
314.0839455782313	314.42063492063494	58	127
314.0839455782313	314.42063492063494	63	127
314.2697052154195	314.60639455782314	55	127
314.2697052154195	314.60639455782314	51	127
314.4554648526077	314.79215419501134	67	127
314.4554648526077	314.79215419501134	39	127
314.4554648526077	314.79215419501134	58	127
314.4554648526077	314.79215419501134	63	127
314.64122448979595	314.9895238095238	51	127
314.64122448979595	314.9895238095238	55	127
314.8385941043084	315.175283446712	58	127
314.8385941043084	315.175283446712	63	127
314.8385941043084	315.175283446712	67	127
314.8385941043084	315.175283446712	39	127
315.0243537414966	315.38426303854874	55	127
315.0243537414966	315.38426303854874	51	127
315.2217233560091	315.57	67	127
315.2217233560091	315.57	39	127
315.2217233560091	315.57	58	127
315.2217233560091	315.57	63	127
315.4074829931973	315.7557823129252	55	127
315.4074829931973	315.7557823129252	51	127
315.5932426303855	315.9415419501134	67	127
315.5932426303855	315.9415419501134	39	127
315.5932426303855	315.9415419501134	58	127
315.5932426303855	315.9415419501134	63	127
315.8022222222222	316.10408163265305	51	127
315.8022222222222	316.10408163265305	55	127
315.9763492063492	316.3014512471655	58	127
315.9763492063492	316.3014512471655	63	127
315.9763492063492	316.3014512471655	67	127
315.9763492063492	316.3014512471655	39	127
316.13891156462586	316.5336507936508	55	127
316.13891156462586	316.5336507936508	51	127
316.35950113378686	316.7542403628118	58	127
316.35950113378686	316.7542403628118	63	127
316.35950113378686	316.7542403628118	39	127
316.35950113378686	316.7542403628118	67	127
316.5684807256236	316.94	51	127
316.5684807256236	316.94	55	127
316.77746031746034	317.13736961451247	67	127
316.77746031746034	317.13736961451247	39	127
316.77746031746034	317.13736961451247	58	127
316.77746031746034	317.13736961451247	63	127
316.96321995464854	317.3579591836735	55	127
316.96321995464854	317.3579591836735	51	127
317.1954195011338	317.52049886621313	67	127
317.1954195011338	317.52049886621313	39	127
317.1954195011338	317.52049886621313	58	127
317.1954195011338	317.52049886621313	63	127
317.3927891156463	317.7062585034014	51	127
317.3927891156463	317.7062585034014	55	127
317.55532879818594	317.8920181405896	58	127
317.55532879818594	317.8920181405896	63	127
317.55532879818594	317.8920181405896	67	127
317.55532879818594	317.8920181405896	39	127
317.74108843537414	318.0661678004535	51	127
317.74108843537414	318.0661678004535	55	127
317.9152380952381	318.24031746031744	67	127
317.9152380952381	318.24031746031744	39	127
317.9152380952381	318.24031746031744	63	127
317.9152380952381	318.24031746031744	58	127
318.08938775510205	318.4260770975057	55	127
318.08938775510205	318.4260770975057	51	127
318.27514739229025	318.58861678004536	67	127
318.27514739229025	318.58861678004536	39	127
318.27514739229025	318.58861678004536	58	127
318.27514739229025	318.58861678004536	63	127
318.46090702947845	318.58861678004536	55	127
318.46090702947845	318.58861678004536	51	127
318.62344671201816	321.1892290249433	55	127
318.62344671201816	321.1892290249433	67	127
318.62344671201816	321.1892290249433	39	127
318.62344671201816	321.1892290249433	51	127
