# onset,offset,note,velocity
0.24303854875283445	0.5100680272108844	55	127
0.24303854875283445	0.5100680272108844	67	127
0.24303854875283445	0.5100680272108844	51	127
0.521655328798186	0.6726077097505669	50	127
0.521655328798186	0.6726077097505669	66	127
0.521655328798186	0.6726077097505669	54	127
0.8351473922902495	0.9744671201814059	50	127
0.8351473922902495	0.9744671201814059	69	127
0.8351473922902495	0.9744671201814059	54	127
1.1137868480725623	1.287936507936508	50	127
1.1137868480725623	1.287936507936508	70	127
1.1137868480725623	1.287936507936508	55	127
1.4388662131519274	1.7755555555555556	50	127
1.4388662131519274	1.7755555555555556	69	127
1.4388662131519274	1.7755555555555556	54	127
2.112222222222222	2.4024943310657596	54	127
2.112222222222222	2.4024943310657596	72	127
2.112222222222222	2.51859410430839	50	127
2.4024943310657596	2.51859410430839	55	127
2.4024943310657596	2.51859410430839	70	127
2.6811337868480725	2.832063492063492	58	127
2.6811337868480725	2.832063492063492	67	127
2.6811337868480725	2.832063492063492	50	127
2.9946031746031747	3.1687528344671203	50	127
2.9946031746031747	3.1687528344671203	69	127
2.9946031746031747	3.1687528344671203	60	127
3.2964625850340137	3.644761904761905	58	127
3.2964625850340137	3.644761904761905	67	127
3.2964625850340137	3.644761904761905	55	127
3.9350113378684806	4.260090702947846	58	127
3.9350113378684806	4.260090702947846	67	127
3.9350113378684806	4.260090702947846	55	127
4.260090702947846	4.399410430839002	66	127
4.260090702947846	4.399410430839002	57	127
4.260090702947846	4.399410430839002	60	127
4.538730158730159	4.666439909297052	69	127
4.538730158730159	4.666439909297052	54	127
4.538730158730159	4.666439909297052	57	127
4.840589569160998	5.130839002267574	57	127
4.840589569160998	5.130839002267574	54	127
4.840589569160998	5.130839002267574	74	127
5.130839002267574	5.2817687074829935	70	127
5.130839002267574	5.2817687074829935	55	127
5.130839002267574	5.2817687074829935	58	127
5.421065759637188	5.572018140589569	58	127
5.421065759637188	5.572018140589569	74	127
5.421065759637188	5.572018140589569	62	127
5.7345578231292516	5.989977324263038	79	127
5.7345578231292516	6.140907029478458	62	127
5.7345578231292516	5.989977324263038	58	127
5.989977324263038	6.140907029478458	69	127
5.989977324263038	6.140907029478458	57	127
6.291836734693877	6.431156462585034	62	127
6.291836734693877	6.431156462585034	77	127
6.291836734693877	6.431156462585034	57	127
6.558866213151927	6.72140589569161	57	127
6.558866213151927	6.72140589569161	76	127
6.558866213151927	6.72140589569161	61	127
6.8723356009070296	7.116145124716553	62	127
6.8723356009070296	7.011655328798186	74	127
6.8723356009070296	7.116145124716553	50	127
7.011655328798186	7.116145124716553	62	127
7.116145124716553	7.267074829931973	50	127
7.116145124716553	7.267074829931973	38	127
7.278684807256236	7.429614512471655	50	127
7.278684807256236	7.429614512471655	62	127
7.429614512471655	7.568934240362812	39	127
7.429614512471655	7.568934240362812	51	127
7.568934240362812	7.673424036281179	51	127
7.568934240362812	7.673424036281179	63	127
7.673424036281179	7.824353741496599	38	127
7.673424036281179	7.824353741496599	50	127
7.824353741496599	7.986893424036281	62	127
7.824353741496599	7.986893424036281	50	127
7.986893424036281	8.1378231292517	41	127
8.1378231292517	8.265510204081632	50	127
8.1378231292517	8.265510204081632	62	127
8.265510204081632	8.404852607709751	43	127
8.404852607709751	8.544172335600907	50	127
8.404852607709751	8.544172335600907	62	127
8.544172335600907	8.695102040816327	41	127
8.695102040816327	8.857641723356009	50	127
8.695102040816327	8.857641723356009	62	127
8.857641723356009	9.008571428571429	38	127
8.857641723356009	9.008571428571429	50	127
9.020181405895691	9.171111111111111	62	127
9.020181405895691	9.171111111111111	74	127
9.182721088435374	9.310430839002267	57	127
9.182721088435374	9.310430839002267	45	127
9.322040816326531	9.461360544217687	62	127
9.322040816326531	9.461360544217687	74	127
9.461360544217687	9.612290249433107	43	127
9.461360544217687	9.612290249433107	55	127
9.612290249433107	9.77482993197279	62	127
9.612290249433107	9.77482993197279	74	127
9.77482993197279	9.879319727891156	46	127
9.77482993197279	9.879319727891156	58	127
9.879319727891156	10.030249433106576	62	127
9.879319727891156	10.030249433106576	74	127
10.030249433106576	10.146349206349207	48	127
10.030249433106576	10.146349206349207	60	127
10.146349206349207	10.297256235827664	62	127
10.146349206349207	10.297256235827664	74	127
10.297256235827664	10.448208616780045	58	127
10.297256235827664	10.448208616780045	46	127
10.448208616780045	10.587528344671203	62	127
10.448208616780045	10.587528344671203	74	127
10.587528344671203	10.726848072562358	55	127
10.587528344671203	10.726848072562358	43	127
10.73845804988662	10.854557823129252	62	127
10.73845804988662	10.854557823129252	70	127
10.866145124716553	10.982267573696145	58	127
10.866145124716553	10.982267573696145	46	127
10.993854875283446	11.133197278911565	62	127
10.993854875283446	11.133197278911565	74	127
11.133197278911565	11.284126984126985	57	127
11.133197278911565	11.284126984126985	45	127
11.284126984126985	11.435056689342403	62	127
11.284126984126985	11.435056689342403	72	127
11.435056689342403	11.562766439909296	54	127
11.435056689342403	11.562766439909296	42	127
11.562766439909296	11.702086167800454	62	127
11.562766439909296	11.702086167800454	69	127
11.702086167800454	11.853015873015874	54	127
11.702086167800454	11.853015873015874	42	127
11.853015873015874	12.015555555555556	62	127
11.853015873015874	12.015555555555556	69	127
12.015555555555556	12.178095238095239	55	127
12.015555555555556	12.178095238095239	43	127
12.178095238095239	12.317414965986394	62	127
12.178095238095239	12.317414965986394	70	127
12.317414965986394	12.456734693877552	55	127
12.317414965986394	12.456734693877552	43	127
12.456734693877552	12.549614512471654	62	127
12.456734693877552	12.549614512471654	70	127
12.561224489795919	12.688934240362812	58	127
12.561224489795919	12.688934240362812	46	127
12.700544217687074	12.851473922902494	62	127
12.700544217687074	12.851473922902494	74	127
12.863083900226757	12.99079365079365	57	127
12.863083900226757	12.99079365079365	45	127
13.002403628117914	13.164943310657597	65	127
13.002403628117914	13.164943310657597	74	127
13.164943310657597	13.304263038548752	57	127
13.164943310657597	13.304263038548752	45	127
13.304263038548752	13.455192743764172	62	127
13.304263038548752	13.455192743764172	65	127
13.455192743764172	13.606122448979592	57	127
13.455192743764172	13.606122448979592	45	127
13.606122448979592	13.745442176870748	64	127
13.606122448979592	13.745442176870748	61	127
13.745442176870748	13.896371882086168	50	127
13.745442176870748	13.896371882086168	38	127
13.896371882086168	14.024081632653061	62	127
14.035691609977324	14.221451247165533	50	127
14.035691609977324	14.221451247165533	38	127
14.221451247165533	14.383990929705215	62	127
14.383990929705215	14.732290249433106	74	127
14.383990929705215	14.732290249433106	62	127
14.383990929705215	14.732290249433106	65	127
14.732290249433106	14.86	73	127
14.732290249433106	14.86	64	127
14.732290249433106	14.86	67	127
14.999319727891157	15.16185941043084	76	127
14.999319727891157	15.16185941043084	61	127
14.999319727891157	15.16185941043084	64	127
15.254739229024944	15.568208616780046	81	127
15.254739229024944	15.568208616780046	61	127
15.254739229024944	15.568208616780046	64	127
15.579818594104308	15.730748299319728	74	127
15.579818594104308	15.730748299319728	62	127
15.579818594104308	15.730748299319728	65	127
15.846848072562358	16.00938775510204	77	127
15.846848072562358	16.00938775510204	62	127
15.846848072562358	16.00938775510204	65	127
16.16031746031746	16.42734693877551	81	127
16.16031746031746	16.42734693877551	62	127
16.16031746031746	16.42734693877551	65	127
16.42734693877551	16.58986394557823	74	127
16.42734693877551	16.58986394557823	66	127
16.42734693877551	16.58986394557823	60	127
16.740816326530613	16.88013605442177	78	127
16.740816326530613	16.88013605442177	60	127
16.740816326530613	16.88013605442177	66	127
17.031043083900226	17.309705215419502	81	127
17.031043083900226	17.309705215419502	60	127
17.031043083900226	17.449024943310658	62	127
17.309705215419502	17.449024943310658	58	127
17.309705215419502	17.449024943310658	74	127
17.61156462585034	17.76249433106576	79	127
17.61156462585034	17.76249433106576	58	127
17.61156462585034	17.76249433106576	62	127
17.913424036281178	18.18045351473923	82	127
17.913424036281178	18.33138321995465	67	127
18.18045351473923	18.33138321995465	74	127
18.18045351473923	18.33138321995465	65	127
18.482312925170067	18.64485260770975	79	127
18.482312925170067	18.64485260770975	62	127
18.482312925170067	18.64485260770975	65	127
18.819002267573698	19.086031746031747	83	127
18.819002267573698	19.086031746031747	62	127
18.819002267573698	19.086031746031747	65	127
19.086031746031747	19.21374149659864	74	127
19.086031746031747	19.21374149659864	63	127
19.086031746031747	19.21374149659864	67	127
19.36467120181406	19.538820861678005	79	127
19.36467120181406	19.538820861678005	63	127
19.36467120181406	19.538820861678005	67	127
19.689750566893423	19.968390022675738	60	127
19.689750566893423	19.968390022675738	84	127
19.689750566893423	20.09609977324263	67	127
19.98	20.09609977324263	74	127
19.98	20.09609977324263	62	127
20.200589569160996	20.36312925170068	67	127
20.200589569160996	20.36312925170068	82	127
20.200589569160996	20.36312925170068	62	127
20.502448979591836	20.653356009070293	81	127
20.502448979591836	20.653356009070293	62	127
20.502448979591836	20.653356009070293	66	127
20.804308390022676	21.024897959183672	70	127
20.804308390022676	21.024897959183672	79	127
20.804308390022676	21.024897959183672	55	127
20.804308390022676	21.024897959183672	67	127
21.024897959183672	21.19904761904762	70	127
21.024897959183672	21.19904761904762	58	127
21.024897959183672	21.19904761904762	43	127
21.024897959183672	21.19904761904762	55	127
21.361587301587303	21.51251700680272	57	127
21.361587301587303	21.51251700680272	69	127
21.361587301587303	21.51251700680272	41	127
21.361587301587303	21.51251700680272	53	127
21.675056689342405	21.81437641723356	52	127
21.675056689342405	21.81437641723356	40	127
21.81437641723356	21.930476190476192	67	127
21.81437641723356	21.930476190476192	55	127
21.930476190476192	22.08140589569161	49	127
21.930476190476192	22.08140589569161	37	127
22.08140589569161	22.232312925170067	64	127
22.08140589569161	22.232312925170067	52	127
22.243945578231294	22.371655328798187	49	127
22.243945578231294	22.371655328798187	37	127
22.371655328798187	22.522585034013606	64	127
22.371655328798187	22.522585034013606	52	127
22.522585034013606	22.673514739229024	53	127
22.522585034013606	22.673514739229024	41	127
22.673514739229024	22.824444444444445	69	127
22.673514739229024	22.824444444444445	57	127
22.824444444444445	22.940544217687076	50	127
22.824444444444445	22.940544217687076	38	127
22.940544217687076	23.091473922902495	65	127
22.940544217687076	23.091473922902495	53	127
23.091473922902495	23.23079365079365	50	127
23.091473922902495	23.23079365079365	38	127
23.23079365079365	23.381723356009072	66	127
23.23079365079365	23.381723356009072	54	127
23.381723356009072	23.53265306122449	57	127
23.381723356009072	23.53265306122449	45	127
23.53265306122449	23.68358276643991	72	127
23.53265306122449	23.68358276643991	60	127
23.68358276643991	23.8112925170068	57	127
23.68358276643991	23.8112925170068	45	127
23.8112925170068	23.950612244897957	72	127
23.8112925170068	23.950612244897957	60	127
23.950612244897957	24.10154195011338	54	127
23.950612244897957	24.10154195011338	42	127
24.10154195011338	24.252471655328797	69	127
24.10154195011338	24.252471655328797	57	127
24.252471655328797	24.40340136054422	58	127
24.252471655328797	24.40340136054422	46	127
24.41501133786848	24.5659410430839	74	127
24.41501133786848	24.5659410430839	62	127
24.577551020408162	24.693650793650793	58	127
24.577551020408162	24.693650793650793	46	127
24.693650793650793	24.821360544217686	74	127
24.693650793650793	24.821360544217686	62	127
24.821360544217686	24.902630385487527	55	127
24.821360544217686	24.902630385487527	43	127
24.902630385487527	25.041950113378686	70	127
24.902630385487527	25.041950113378686	58	127
25.041950113378686	25.192879818594104	53	127
25.041950113378686	25.192879818594104	41	127
25.192879818594104	25.355419501133788	70	127
25.192879818594104	25.355419501133788	58	127
25.355419501133788	25.494739229024944	50	127
25.355419501133788	25.494739229024944	38	127
25.494739229024944	25.645668934240362	58	127
25.494739229024944	25.645668934240362	65	127
25.494739229024944	25.645668934240362	67	127
25.645668934240362	25.796598639455784	50	127
25.645668934240362	25.796598639455784	38	127
25.796598639455784	25.947528344671202	58	127
25.796598639455784	25.947528344671202	65	127
25.796598639455784	25.947528344671202	67	127
25.947528344671202	26.086848072562358	51	127
25.947528344671202	26.086848072562358	39	127
26.09845804988662	26.249387755102042	60	127
26.09845804988662	26.249387755102042	63	127
26.09845804988662	26.249387755102042	67	127
26.260997732426304	26.377097505668935	48	127
26.260997732426304	26.377097505668935	36	127
26.388707482993198	26.528027210884353	67	127
26.388707482993198	26.528027210884353	60	127
26.388707482993198	26.528027210884353	63	127
26.528027210884353	26.690566893424037	36	127
26.528027210884353	26.690566893424037	48	127
26.690566893424037	26.81827664399093	63	127
26.690566893424037	26.81827664399093	67	127
26.690566893424037	26.81827664399093	72	127
26.81827664399093	26.945986394557824	50	127
26.81827664399093	26.945986394557824	38	127
26.945986394557824	27.08530612244898	70	127
26.945986394557824	27.08530612244898	62	127
26.945986394557824	27.08530612244898	67	127
27.08530612244898	27.213015873015873	62	127
27.08530612244898	27.213015873015873	50	127
27.213015873015873	27.375555555555554	67	127
27.213015873015873	27.375555555555554	70	127
27.375555555555554	27.5497052154195	62	127
27.375555555555554	27.5497052154195	50	127
27.5497052154195	27.700634920634922	66	127
27.5497052154195	27.700634920634922	69	127
27.700634920634922	27.898004535147393	55	127
27.700634920634922	27.898004535147393	43	127
27.898004535147393	28.327573696145123	67	127
27.898004535147393	28.327573696145123	55	127
28.33918367346939	28.69909297052154	43	127
28.33918367346939	28.69909297052154	31	127
28.69909297052154	29.012562358276643	55	127
28.69909297052154	29.012562358276643	67	127
29.616281179138323	30.545079365079363	63	127
29.616281179138323	29.941360544217687	39	127
29.616281179138323	30.545079365079363	67	127
29.616281179138323	30.545079365079363	58	127
29.941360544217687	30.25482993197279	55	127
30.25482993197279	30.545079365079363	46	127
30.55668934240363	31.531927437641723	63	127
30.55668934240363	30.91659863945578	39	127
30.55668934240363	31.531927437641723	67	127
30.55668934240363	31.531927437641723	58	127
30.91659863945578	31.230068027210883	55	127
31.230068027210883	31.531927437641723	46	127
31.531927437641723	31.880226757369613	39	127
31.531927437641723	32.21691609977324	58	127
31.531927437641723	32.21691609977324	62	127
31.531927437641723	32.21691609977324	68	127
31.880226757369613	32.21691609977324	53	127
32.228526077097506	32.58843537414966	46	127
32.228526077097506	32.58843537414966	68	127
32.228526077097506	32.58843537414966	58	127
32.228526077097506	32.58843537414966	65	127
32.58843537414966	33.45918367346939	63	127
32.58843537414966	32.8902947845805	39	127
32.58843537414966	33.45918367346939	58	127
32.58843537414966	33.45918367346939	67	127
32.8902947845805	33.215374149659866	55	127
33.215374149659866	33.45918367346939	46	127
33.45918367346939	33.80746031746032	39	127
33.45918367346939	34.43439909297052	67	127
33.45918367346939	34.43439909297052	58	127
33.45918367346939	34.43439909297052	63	127
33.819092970521545	34.12095238095238	55	127
34.132562358276644	34.43439909297052	46	127
34.43439909297052	34.75950113378685	39	127
34.43439909297052	34.75950113378685	58	127
34.43439909297052	34.75950113378685	63	127
34.43439909297052	34.75950113378685	67	127
34.75950113378685	35.07294784580499	63	127
34.75950113378685	35.07294784580499	55	127
35.07294784580499	35.4328798185941	67	127
35.07294784580499	35.4328798185941	51	127
35.444489795918365	36.09462585034014	63	127
35.444489795918365	35.734739229024946	53	127
35.444489795918365	36.09462585034014	60	127
35.74634920634921	36.09462585034014	41	127
36.09462585034014	36.39650793650794	60	127
36.09462585034014	36.39650793650794	63	127
36.09462585034014	36.39650793650794	53	127
36.39650793650794	36.651927437641724	58	127
36.39650793650794	36.651927437641724	62	127
36.39650793650794	36.651927437641724	46	127
36.651927437641724	37.05827664399093	34	127
37.05827664399093	37.232403628117915	55	127
37.05827664399093	37.232403628117915	51	127
37.24403628117914	37.39496598639456	56	127
37.24403628117914	37.39496598639456	53	127
37.39496598639456	37.97546485260771	58	127
37.39496598639456	37.97546485260771	55	127
37.97546485260771	38.114761904761906	60	127
37.97546485260771	38.114761904761906	56	127
38.114761904761906	38.26571428571429	62	127
38.114761904761906	38.26571428571429	53	127
38.26571428571429	38.950702947845805	63	127
38.26571428571429	38.950702947845805	55	127
38.950702947845805	39.10163265306122	65	127
38.950702947845805	39.10163265306122	62	127
39.10163265306122	39.25256235827664	67	127
39.10163265306122	39.25256235827664	63	127
39.217732426303854	39.287392290249436	70	127
39.25256235827664	39.40349206349207	68	127
39.25256235827664	39.40349206349207	65	127
39.41510204081633	39.6124716553288	64	127
39.41510204081633	39.6124716553288	67	127
39.6124716553288	39.76337868480726	68	127
39.6124716553288	39.76337868480726	65	127
39.76337868480726	39.9259410430839	70	127
39.76337868480726	39.9259410430839	67	127
39.9259410430839	40.06526077097506	72	127
39.9259410430839	40.06526077097506	68	127
40.06526077097506	40.19297052154195	74	127
40.06526077097506	40.19297052154195	65	127
40.204580498866214	40.34390022675737	75	127
40.204580498866214	40.34390022675737	67	127
40.34390022675737	40.51804988662131	74	127
40.34390022675737	40.51804988662131	65	127
40.51804988662131	40.65734693877551	75	127
40.51804988662131	40.65734693877551	67	127
40.65734693877551	40.85473922902494	70	127
40.65734693877551	40.85473922902494	68	127
40.85473922902494	40.98244897959184	79	127
40.85473922902494	40.98244897959184	70	127
40.9940589569161	41.11015873015873	77	127
40.9940589569161	41.11015873015873	68	127
41.11015873015873	41.29589569160998	75	127
41.11015873015873	41.29589569160998	67	127
41.29589569160998	41.45845804988662	74	127
41.29589569160998	41.45845804988662	65	127
41.45845804988662	41.620997732426304	75	127
41.45845804988662	41.620997732426304	67	127
41.620997732426304	41.77192743764172	72	127
41.620997732426304	41.77192743764172	63	127
41.783537414965984	41.94607709750567	70	127
41.783537414965984	41.94607709750567	62	127
41.94607709750567	42.09700680272109	68	127
41.94607709750567	42.09700680272109	65	127
42.09700680272109	42.24793650793651	67	127
42.09700680272109	42.24793650793651	59	127
42.24793650793651	42.42208616780045	65	127
42.24793650793651	42.42208616780045	62	127
42.42208616780045	42.56138321995465	67	127
42.42208616780045	42.56138321995465	59	127
42.573015873015876	42.71233560090703	63	127
42.573015873015876	42.71233560090703	60	127
42.71233560090703	42.86326530612245	62	127
42.71233560090703	42.86326530612245	51	127
42.86326530612245	43.03741496598639	60	127
42.86326530612245	43.03741496598639	52	127
43.03741496598639	43.199931972789116	58	127
43.03741496598639	43.199931972789116	53	127
43.199931972789116	43.36249433106576	57	127
43.199931972789116	43.36249433106576	41	127
43.36249433106576	43.536643990929704	51	127
43.36249433106576	43.536643990929704	60	127
43.536643990929704	43.69916099773243	53	127
43.536643990929704	43.69916099773243	41	127
43.69916099773243	43.89655328798186	55	127
43.69916099773243	43.89655328798186	51	127
43.89655328798186	44.16358276643991	57	127
43.89655328798186	44.16358276643991	41	127
44.17519274376417	44.569931972789114	50	127
44.17519274376417	44.569931972789114	58	127
44.17519274376417	44.569931972789114	46	127
45.336190476190474	46.323038548752834	67	127
45.336190476190474	45.69609977324263	46	127
45.336190476190474	46.323038548752834	61	127
45.69609977324263	45.99795918367347	55	127
45.99795918367347	46.323038548752834	52	127
46.334648526077096	46.69455782312925	65	127
46.334648526077096	46.69455782312925	62	127
46.334648526077096	46.69455782312925	46	127
46.706167800453514	47.042857142857144	58	127
47.042857142857144	47.34471655328798	53	127
47.34471655328798	48.37800453514739	58	127
47.34471655328798	47.751065759637186	46	127
47.34471655328798	48.06453514739229	65	127
47.751065759637186	48.06453514739229	53	127
48.076145124716554	48.238684807256234	67	127
48.076145124716554	48.37800453514739	50	127
48.238684807256234	48.37800453514739	68	127
48.38961451247165	48.71469387755102	58	127
48.38961451247165	48.71469387755102	63	127
48.38961451247165	48.71469387755102	51	127
48.71469387755102	49.074603174603176	46	127
49.074603174603176	49.388072562358275	43	127
49.388072562358275	49.73637188208617	39	127
49.388072562358275	50.444580498866216	58	127
49.388072562358275	50.444580498866216	63	127
49.388072562358275	50.444580498866216	67	127
49.74798185941043	50.04984126984127	55	127
50.061451247165536	50.444580498866216	46	127
50.444580498866216	50.76965986394558	39	127
50.444580498866216	51.419818594104306	58	127
50.444580498866216	51.419818594104306	63	127
50.444580498866216	51.419818594104306	67	127
50.76965986394558	51.10634920634921	55	127
51.10634920634921	51.419818594104306	46	127
51.43142857142857	52.11641723356009	58	127
51.43142857142857	51.75650793650794	39	127
51.43142857142857	52.11641723356009	62	127
51.43142857142857	52.11641723356009	68	127
51.7681179138322	52.11641723356009	53	127
52.11641723356009	52.42988662131519	58	127
52.11641723356009	52.42988662131519	68	127
52.11641723356009	52.42988662131519	46	127
52.11641723356009	52.42988662131519	65	127
52.42988662131519	53.08004535147392	63	127
52.42988662131519	52.75496598639456	39	127
52.42988662131519	53.08004535147392	58	127
52.42988662131519	53.08004535147392	67	127
52.75496598639456	53.08004535147392	55	127
53.09165532879818	53.24258503401361	67	127
53.09165532879818	53.381904761904764	46	127
53.24258503401361	53.381904761904764	68	127
53.393514739229026	54.03206349206349	70	127
53.393514739229026	53.71859410430839	39	127
53.71859410430839	54.03206349206349	53	127
54.03206349206349	54.34553287981859	46	127
54.03206349206349	54.18299319727891	72	127
54.194603174603174	54.34553287981859	74	127
54.34553287981859	54.6590022675737	39	127
54.34553287981859	54.92603174603175	75	127
54.67061224489796	54.92603174603175	55	127
54.93764172335601	55.25111111111111	46	127
54.93764172335601	55.08857142857143	77	127
55.08857142857143	55.25111111111111	79	127
55.21628117913832	55.2859410430839	82	127
55.25111111111111	55.378820861678	80	127
55.25111111111111	55.518140589569164	39	127
55.39043083900227	55.518140589569164	79	127
55.518140589569164	55.87804988662131	56	127
55.518140589569164	55.66907029478458	80	127
55.680680272108845	55.87804988662131	82	127
55.87804988662131	56.179909297052156	46	127
55.87804988662131	56.040589569161	84	127
56.040589569161	56.179909297052156	86	127
56.19151927437642	56.41210884353742	51	127
56.19151927437642	56.41210884353742	87	127
56.42371882086168	56.7604081632653	91	127
56.42371882086168	56.7604081632653	39	127
56.7604081632653	57.39895691609977	94	127
56.7604081632653	56.91133786848073	43	127
56.92294784580499	57.08548752834467	44	127
57.08548752834467	57.712426303854876	46	127
57.39895691609977	57.712426303854876	92	127
57.72403628117914	57.863356009070294	48	127
57.72403628117914	58.32775510204082	92	127
57.863356009070294	58.01428571428571	50	127
58.025895691609975	58.629614512471655	51	127
58.32775510204082	58.629614512471655	91	127
58.629614512471655	58.76893424036281	53	127
58.629614512471655	59.2449433106576	91	127
58.78054421768707	58.93147392290249	55	127
58.93147392290249	59.012743764172335	58	127
58.97791383219955	59.09401360544218	56	127
59.09401360544218	59.2449433106576	55	127
59.2449433106576	59.40748299319728	56	127
59.2449433106576	59.570022675736965	89	127
59.40748299319728	59.570022675736965	58	127
59.570022675736965	60.20857142857143	89	127
59.570022675736965	59.732562358276645	60	127
59.732562358276645	59.8718820861678	62	127
59.88349206349206	60.20857142857143	63	127
60.20857142857143	60.52204081632653	87	127
60.20857142857143	60.52204081632653	67	127
60.52204081632653	60.90517006802721	75	127
60.52204081632653	61.102539682539685	70	127
60.90517006802721	61.102539682539685	79	127
61.102539682539685	61.50888888888889	68	127
61.102539682539685	61.50888888888889	77	127
61.52049886621315	62.14743764172336	68	127
61.52049886621315	62.14743764172336	77	127
62.14743764172336	62.47251700680272	75	127
62.14743764172336	62.47251700680272	67	127
62.47251700680272	63.111065759637185	82	127
62.47251700680272	63.111065759637185	67	127
63.122675736961455	63.37809523809524	80	127
63.122675736961455	63.37809523809524	65	127
63.389705215419504	64.06308390022676	80	127
63.389705215419504	64.06308390022676	65	127
64.06308390022676	64.37655328798186	63	127
64.06308390022676	64.37655328798186	79	127
64.37655328798186	64.7132426303855	51	127
64.37655328798186	64.53909297052154	67	127
64.53909297052154	64.7132426303855	68	127
64.72485260770975	65.02671201814059	55	127
64.72485260770975	65.34018140589569	70	127
65.03832199546486	65.34018140589569	53	127
65.34018140589569	65.47950113378685	72	127
65.34018140589569	65.93229024943311	53	127
65.49111111111111	65.63043083900227	74	127
65.63043083900227	66.24575963718821	75	127
65.93229024943311	66.24575963718821	51	127
66.25736961451247	66.88430839002268	58	127
66.25736961451247	66.43151927437641	77	127
66.43151927437641	66.58242630385487	79	127
66.54761904761905	66.6288888888889	82	127
66.5940589569161	66.74498866213152	80	127
66.74498866213152	66.88430839002268	79	127
66.88430839002268	67.0352380952381	80	127
66.88430839002268	67.24421768707484	56	127
67.04684807256236	67.24421768707484	82	127
67.24421768707484	67.77827664399094	56	127
67.24421768707484	67.39514739229026	84	127
67.40675736961451	67.55768707482993	86	127
67.55768707482993	67.77827664399094	87	127
67.78988662131519	68.1033560090703	55	127
67.78988662131519	68.1033560090703	91	127
68.1149433106576	68.76512471655329	94	127
68.1149433106576	68.27750566893424	43	127
68.27750566893424	68.44004535147393	44	127
68.44004535147393	69.0785941043084	46	127
68.76512471655329	69.0785941043084	92	127
69.0785941043084	69.24111111111111	48	127
69.0785941043084	69.65909297052154	92	127
69.24111111111111	69.39204081632653	50	127
69.39204081632653	69.9841723356009	51	127
69.67070294784581	69.9841723356009	91	127
69.9841723356009	70.12349206349207	53	127
69.9841723356009	70.56467120181406	91	127
70.12349206349207	70.26278911564626	55	127
70.26278911564626	70.34408163265306	58	127
70.30925170068028	70.41371882086167	56	127
70.4253514739229	70.56467120181406	55	127
70.56467120181406	70.72721088435374	56	127
70.56467120181406	70.87814058956916	89	127
70.72721088435374	70.87814058956916	58	127
70.88975056689343	71.04068027210884	60	127
70.88975056689343	71.51668934240362	89	127
71.04068027210884	71.19160997732426	62	127
71.20321995464853	71.51668934240362	63	127
71.51668934240362	71.67922902494331	51	127
71.51668934240362	71.841768707483	87	127
71.69083900226758	71.841768707483	53	127
71.841768707483	72.16684807256236	55	127
71.841768707483	72.48031746031747	91	127
72.16684807256236	72.2481179138322	58	127
72.21328798185941	72.32938775510205	56	127
72.32938775510205	72.48031746031747	55	127
72.49192743764172	72.65446712018141	56	127
72.49192743764172	72.81698412698412	89	127
72.65446712018141	72.81698412698412	58	127
72.82861678004535	72.97954648526077	60	127
72.82861678004535	73.4091156462585	89	127
72.97954648526077	73.13047619047619	62	127
73.13047619047619	73.73419501133787	63	127
73.4091156462585	73.73419501133787	87	127
73.73419501133787	73.89673469387755	65	127
73.73419501133787	74.3843537414966	82	127
73.89673469387755	74.07086167800453	67	127
74.07086167800453	74.14054421768708	70	127
74.10571428571428	74.22181405895692	68	127
74.23342403628118	74.3843537414966	67	127
74.39596371882087	74.54689342403628	68	127
74.39596371882087	74.72104308390023	80	127
74.54689342403628	74.72104308390023	70	127
74.72104308390023	74.93002267573696	72	127
74.72104308390023	75.40603174603174	80	127
74.93002267573696	75.08095238095238	74	127
75.09253968253968	75.40603174603174	75	127
75.25510204081633	75.56857142857143	70	127
75.40603174603174	75.73108843537415	79	127
75.40603174603174	75.73108843537415	67	127
75.56857142857143	75.90526077097506	70	127
75.73108843537415	76.079410430839	67	127
75.73108843537415	76.32321995464852	79	127
75.90526077097506	76.16068027210885	63	127
76.079410430839	76.32321995464852	67	127
76.16068027210885	76.47412698412698	63	127
76.33482993197279	76.63668934240363	87	127
76.33482993197279	76.63668934240363	58	127
76.47412698412698	76.81083900226757	63	127
76.63668934240363	76.99659863945578	58	127
76.63668934240363	77.2752380952381	87	127
76.81083900226757	77.12430839002268	55	127
76.99659863945578	77.2752380952381	58	127
77.12430839002268	77.43777777777778	55	127
77.28684807256236	77.65836734693877	87	127
77.28684807256236	77.65836734693877	51	127
77.43777777777778	77.86734693877551	46	127
77.65836734693877	78.06471655328798	87	127
77.65836734693877	78.06471655328798	43	127
77.86734693877551	78.50589569160998	46	127
78.06471655328798	78.68004535147392	87	127
78.06471655328798	78.68004535147392	39	127
79.00512471655328	79.388231292517	67	127
79.00512471655328	79.388231292517	51	127
79.00512471655328	79.388231292517	55	127
79.388231292517	79.55079365079365	66	127
79.388231292517	79.55079365079365	50	127
79.388231292517	79.55079365079365	54	127
79.7249433106576	79.87587301587301	69	127
79.7249433106576	79.87587301587301	50	127
79.7249433106576	79.87587301587301	54	127
80.0384126984127	80.20095238095239	70	127
80.0384126984127	80.20095238095239	50	127
80.0384126984127	80.20095238095239	55	127
80.37510204081633	80.70018140589569	69	127
80.37510204081633	80.70018140589569	50	127
80.37510204081633	80.70018140589569	54	127
81.08331065759637	81.44321995464853	72	127
81.08331065759637	81.44321995464853	54	127
81.08331065759637	81.60575963718821	50	127
81.4548299319728	81.60575963718821	70	127
81.4548299319728	81.60575963718821	55	127
81.76829931972789	81.9192290249433	67	127
81.76829931972789	81.9192290249433	50	127
81.76829931972789	81.9192290249433	58	127
82.07013605442177	82.22108843537416	69	127
82.07013605442177	82.22108843537416	60	127
82.07013605442177	82.22108843537416	50	127
82.38362811791383	82.72031746031746	67	127
82.38362811791383	82.72031746031746	55	127
82.38362811791383	82.72031746031746	58	127
83.03378684807257	83.32401360544218	67	127
83.03378684807257	83.32401360544218	55	127
83.03378684807257	83.32401360544218	58	127
83.3356462585034	83.4633560090703	66	127
83.3356462585034	83.4633560090703	60	127
83.3356462585034	83.4633560090703	57	127
83.61428571428571	83.7768253968254	57	127
83.61428571428571	83.7768253968254	69	127
83.61428571428571	83.7768253968254	54	127
83.95097505668934	84.25283446712018	54	127
83.95097505668934	84.25283446712018	74	127
83.95097505668934	84.25283446712018	57	127
84.25283446712018	84.39215419501134	70	127
84.25283446712018	84.39215419501134	55	127
84.25283446712018	84.39215419501134	58	127
84.58952380952381	84.7520634920635	74	127
84.58952380952381	84.7520634920635	58	127
84.58952380952381	84.7520634920635	62	127
84.90299319727892	85.1584126984127	79	127
84.90299319727892	85.1584126984127	58	127
84.90299319727892	85.30934240362812	62	127
85.17002267573696	85.30934240362812	57	127
85.17002267573696	85.30934240362812	69	127
85.46027210884354	85.58798185941043	57	127
85.46027210884354	85.58798185941043	62	127
85.46027210884354	85.58798185941043	77	127
85.76213151927438	85.90145124716554	76	127
85.76213151927438	85.90145124716554	57	127
85.76213151927438	85.90145124716554	61	127
86.05238095238096	86.20331065759638	74	127
86.05238095238096	86.36582766439909	50	127
86.05238095238096	86.36582766439909	62	127
86.20331065759638	86.36582766439909	62	127
86.37746031746032	86.52839002267574	38	127
86.37746031746032	86.52839002267574	50	127
86.52839002267574	86.69092970521542	62	127
86.52839002267574	86.69092970521542	50	127
86.69092970521542	86.8534693877551	39	127
86.69092970521542	86.8534693877551	51	127
86.86507936507937	87.00437641723356	51	127
86.86507936507937	87.00437641723356	63	127
87.00437641723356	87.14371882086168	38	127
87.00437641723356	87.14371882086168	50	127
87.15530612244898	87.27142857142857	50	127
87.15530612244898	87.27142857142857	62	127
87.28301587301587	87.41072562358276	41	127
87.42235827664399	87.53843537414966	50	127
87.42235827664399	87.53843537414966	62	127
87.55006802721088	87.7009977324263	43	127
87.7009977324263	87.88675736961451	50	127
87.7009977324263	87.88675736961451	62	127
87.88675736961451	88.01446712018141	41	127
88.01446712018141	88.16539682539683	50	127
88.01446712018141	88.16539682539683	62	127
88.16539682539683	88.32793650793651	38	127
88.16539682539683	88.32793650793651	50	127
88.32793650793651	88.49047619047619	62	127
88.32793650793651	88.49047619047619	74	127
88.49047619047619	88.61818594104308	57	127
88.49047619047619	88.61818594104308	45	127
88.61818594104308	88.7691156462585	62	127
88.61818594104308	88.7691156462585	74	127
88.7691156462585	88.90843537414966	43	127
88.7691156462585	88.90843537414966	55	127
88.90843537414966	89.04773242630385	62	127
88.90843537414966	89.04773242630385	74	127
89.05936507936508	89.19868480725624	46	127
89.05936507936508	89.19868480725624	58	127
89.2102947845805	89.33800453514739	62	127
89.2102947845805	89.33800453514739	74	127
89.34961451247166	89.47732426303855	48	127
89.34961451247166	89.47732426303855	60	127
89.47732426303855	89.6514739229025	62	127
89.47732426303855	89.6514739229025	74	127
89.6514739229025	89.80240362811791	58	127
89.6514739229025	89.80240362811791	46	127
89.80240362811791	89.97655328798186	62	127
89.80240362811791	89.97655328798186	74	127
89.97655328798186	90.13909297052155	55	127
89.97655328798186	90.13909297052155	43	127
90.13909297052155	90.25519274376417	62	127
90.13909297052155	90.25519274376417	70	127
90.25519274376417	90.37129251700681	58	127
90.25519274376417	90.37129251700681	46	127
90.37129251700681	90.52222222222223	62	127
90.37129251700681	90.52222222222223	74	127
90.52222222222223	90.69637188208617	57	127
90.52222222222223	90.69637188208617	45	127
90.69637188208617	90.83566893424036	62	127
90.69637188208617	90.83566893424036	72	127
90.84730158730159	90.96337868480725	54	127
90.84730158730159	90.96337868480725	42	127
90.96337868480725	91.09108843537415	62	127
90.96337868480725	91.09108843537415	69	127
91.10272108843537	91.25365079365079	54	127
91.10272108843537	91.25365079365079	42	127
91.26526077097506	91.42780045351473	62	127
91.26526077097506	91.42780045351473	69	127
91.42780045351473	91.5787074829932	55	127
91.42780045351473	91.5787074829932	43	127
91.5787074829932	91.71804988662132	62	127
91.5787074829932	91.71804988662132	70	127
91.71804988662132	91.86897959183673	55	127
91.71804988662132	91.86897959183673	43	127
91.86897959183673	92.04312925170068	62	127
91.86897959183673	92.04312925170068	70	127
92.04312925170068	92.21725623582766	58	127
92.04312925170068	92.21725623582766	46	127
92.21725623582766	92.34496598639456	62	127
92.21725623582766	92.34496598639456	74	127
92.34496598639456	92.5075283446712	57	127
92.34496598639456	92.5075283446712	45	127
92.5075283446712	92.67006802721089	65	127
92.5075283446712	92.67006802721089	74	127
92.67006802721089	92.78616780045351	57	127
92.67006802721089	92.78616780045351	45	127
92.79777777777778	92.96031746031746	62	127
92.79777777777778	92.96031746031746	65	127
92.97192743764172	93.12285714285714	57	127
92.97192743764172	93.12285714285714	45	127
93.12285714285714	93.27378684807256	61	127
93.12285714285714	93.27378684807256	64	127
93.27378684807256	93.42471655328798	38	127
93.27378684807256	93.42471655328798	50	127
93.43632653061225	93.58725623582767	62	127
93.58725623582767	93.73818594104308	50	127
93.58725623582767	93.73818594104308	38	127
93.73818594104308	93.90072562358277	62	127
93.9239455782313	94.22580498866213	74	127
93.9239455782313	94.22580498866213	62	127
93.9239455782313	94.22580498866213	65	127
94.22580498866213	94.37673469387755	73	127
94.22580498866213	94.37673469387755	64	127
94.22580498866213	94.37673469387755	67	127
94.52766439909297	94.70181405895691	76	127
94.52766439909297	94.70181405895691	61	127
94.52766439909297	94.70181405895691	64	127
94.85274376417233	95.11977324263039	81	127
94.85274376417233	95.11977324263039	61	127
94.85274376417233	95.11977324263039	64	127
95.11977324263039	95.28231292517007	74	127
95.11977324263039	95.28231292517007	62	127
95.11977324263039	95.28231292517007	65	127
95.42163265306122	95.54934240362812	77	127
95.42163265306122	95.54934240362812	62	127
95.42163265306122	95.54934240362812	65	127
95.73510204081633	96.01374149659864	62	127
95.73510204081633	96.01374149659864	65	127
95.73510204081633	96.01374149659864	81	127
96.01374149659864	96.18789115646258	74	127
96.01374149659864	96.18789115646258	66	127
96.01374149659864	96.18789115646258	60	127
96.35043083900227	96.48975056689342	60	127
96.35043083900227	96.48975056689342	78	127
96.35043083900227	96.48975056689342	66	127
96.66390022675736	96.96575963718821	81	127
96.66390022675736	97.16312925170068	62	127
96.66390022675736	96.96575963718821	60	127
96.96575963718821	97.16312925170068	74	127
96.96575963718821	97.16312925170068	58	127
97.32566893424037	97.43015873015872	62	127
97.32566893424037	97.43015873015872	79	127
97.32566893424037	97.43015873015872	58	127
97.55786848072562	97.82489795918367	82	127
97.55786848072562	97.97582766439909	67	127
97.82489795918367	97.97582766439909	74	127
97.82489795918367	97.97582766439909	65	127
98.12675736961451	98.26607709750567	65	127
98.12675736961451	98.26607709750567	79	127
98.12675736961451	98.26607709750567	62	127
98.44022675736962	98.71886621315193	83	127
98.44022675736962	98.71886621315193	62	127
98.44022675736962	98.71886621315193	65	127
98.71886621315193	98.89301587301587	74	127
98.71886621315193	98.89301587301587	63	127
98.71886621315193	98.89301587301587	67	127
99.05555555555556	99.2297052154195	67	127
99.05555555555556	99.2297052154195	79	127
99.05555555555556	99.2297052154195	63	127
99.36902494331066	99.62444444444445	60	127
99.36902494331066	99.62444444444445	84	127
99.36902494331066	99.78698412698412	67	127
99.62444444444445	99.78698412698412	74	127
99.62444444444445	99.78698412698412	62	127
99.93791383219954	100.05401360544218	67	127
99.93791383219954	100.05401360544218	82	127
99.93791383219954	100.05401360544218	62	127
100.2049433106576	100.35587301587302	81	127
100.2049433106576	100.35587301587302	62	127
100.2049433106576	100.35587301587302	66	127
100.54163265306123	100.77383219954649	70	127
100.54163265306123	100.77383219954649	79	127
100.54163265306123	100.77383219954649	55	127
100.54163265306123	100.77383219954649	67	127
100.78544217687075	100.93637188208616	55	127
100.78544217687075	100.93637188208616	58	127
100.78544217687075	100.93637188208616	70	127
100.78544217687075	100.93637188208616	43	127
101.09891156462585	101.24984126984127	57	127
101.09891156462585	101.24984126984127	69	127
101.09891156462585	101.24984126984127	41	127
101.09891156462585	101.24984126984127	53	127
101.40077097505669	101.5517006802721	52	127
101.40077097505669	101.5517006802721	40	127
101.5517006802721	101.65619047619047	67	127
101.5517006802721	101.65619047619047	55	127
101.66780045351474	101.80712018140589	49	127
101.66780045351474	101.80712018140589	37	127
101.80712018140589	101.98126984126984	64	127
101.80712018140589	101.98126984126984	52	127
101.98126984126984	102.07414965986395	49	127
101.98126984126984	102.07414965986395	37	127
102.0857596371882	102.22507936507937	64	127
102.0857596371882	102.22507936507937	52	127
102.22507936507937	102.37600907029478	53	127
102.22507936507937	102.37600907029478	41	127
102.37600907029478	102.57337868480725	69	127
102.37600907029478	102.57337868480725	57	127
102.58498866213152	102.70108843537415	50	127
102.58498866213152	102.70108843537415	38	127
102.70108843537415	102.87523809523809	65	127
102.70108843537415	102.87523809523809	53	127
102.87523809523809	102.99133786848073	50	127
102.87523809523809	102.99133786848073	38	127
103.00294784580498	103.14226757369615	66	127
103.00294784580498	103.14226757369615	54	127
103.14226757369615	103.29319727891156	57	127
103.14226757369615	103.29319727891156	45	127
103.29319727891156	103.43251700680273	72	127
103.29319727891156	103.43251700680273	60	127
103.44412698412698	103.57183673469387	57	127
103.44412698412698	103.57183673469387	45	127
103.57183673469387	103.71115646258504	72	127
103.57183673469387	103.71115646258504	60	127
103.71115646258504	103.85047619047619	54	127
103.71115646258504	103.85047619047619	42	127
103.86208616780046	104.0014058956916	69	127
103.86208616780046	104.0014058956916	57	127
104.0014058956916	104.16394557823129	58	127
104.0014058956916	104.16394557823129	46	127
104.16394557823129	104.32648526077098	74	127
104.16394557823129	104.32648526077098	62	127
104.33809523809524	104.4774149659864	58	127
104.33809523809524	104.4774149659864	46	127
104.4774149659864	104.60512471655329	74	127
104.4774149659864	104.60512471655329	62	127
104.60512471655329	104.74444444444444	55	127
104.60512471655329	104.74444444444444	43	127
104.74444444444444	104.86054421768708	70	127
104.74444444444444	104.86054421768708	58	127
104.86054421768708	104.99986394557823	53	127
104.86054421768708	104.99986394557823	41	127
104.99986394557823	105.13918367346939	70	127
104.99986394557823	105.13918367346939	58	127
105.15079365079364	105.3249433106576	50	127
105.15079365079364	105.3249433106576	38	127
105.3249433106576	105.53392290249433	58	127
105.3249433106576	105.53392290249433	65	127
105.3249433106576	105.53392290249433	67	127
105.53392290249433	105.67324263038549	50	127
105.53392290249433	105.67324263038549	38	127
105.68485260770976	105.81256235827665	58	127
105.68485260770976	105.81256235827665	65	127
105.68485260770976	105.81256235827665	67	127
105.81256235827665	105.96349206349207	51	127
105.81256235827665	105.96349206349207	39	127
105.96349206349207	106.10281179138322	60	127
105.96349206349207	106.10281179138322	63	127
105.96349206349207	106.10281179138322	67	127
106.11442176870749	106.24213151927438	48	127
106.11442176870749	106.24213151927438	36	127
106.24213151927438	106.3930612244898	60	127
106.24213151927438	106.3930612244898	63	127
106.24213151927438	106.3930612244898	67	127
106.3930612244898	106.52077097505669	48	127
106.3930612244898	106.52077097505669	36	127
106.53238095238095	106.67170068027211	63	127
106.53238095238095	106.67170068027211	67	127
106.53238095238095	106.67170068027211	72	127
106.67170068027211	106.81102040816326	50	127
106.67170068027211	106.81102040816326	38	127
106.81102040816326	106.99678004535147	62	127
106.81102040816326	106.99678004535147	67	127
106.81102040816326	106.99678004535147	70	127
106.99678004535147	107.13609977324263	62	127
106.99678004535147	107.13609977324263	50	127
107.13609977324263	107.28702947845805	67	127
107.13609977324263	107.28702947845805	70	127
107.28702947845805	107.43795918367347	62	127
107.28702947845805	107.43795918367347	50	127
107.43795918367347	107.58888888888889	66	127
107.43795918367347	107.58888888888889	69	127
107.60049886621316	107.76303854875283	55	127
107.60049886621316	107.76303854875283	43	127
107.76303854875283	107.92557823129252	55	127
107.76303854875283	107.92557823129252	67	127
107.92557823129252	108.50607709750567	43	127
107.92557823129252	108.50607709750567	31	127
108.51768707482994	108.78471655328798	55	127
108.51768707482994	108.78471655328798	67	127
108.78471655328798	109.1562358276644	67	127
108.78471655328798	109.1562358276644	52	127
108.78471655328798	109.1562358276644	55	127
109.16784580498866	109.3768253968254	66	127
109.16784580498866	109.3768253968254	50	127
109.16784580498866	109.3768253968254	54	127
109.56258503401361	109.74834467120182	69	127
109.56258503401361	109.74834467120182	50	127
109.56258503401361	109.74834467120182	54	127
109.9108843537415	110.07342403628118	71	127
109.9108843537415	110.07342403628118	50	127
109.9108843537415	110.07342403628118	55	127
110.24757369614512	110.61909297052154	50	127
110.24757369614512	110.61909297052154	69	127
110.24757369614512	110.61909297052154	54	127
110.94417233560091	111.257641723356	72	127
110.94417233560091	111.257641723356	54	127
110.94417233560091	111.40857142857143	50	127
111.257641723356	111.40857142857143	71	127
111.257641723356	111.40857142857143	55	127
111.57111111111111	111.72204081632653	50	127
111.57111111111111	111.72204081632653	67	127
111.57111111111111	111.72204081632653	59	127
111.87297052154194	112.03551020408163	69	127
111.87297052154194	112.03551020408163	50	127
111.87297052154194	112.03551020408163	60	127
112.20965986394557	112.5463492063492	67	127
112.20965986394557	112.5463492063492	55	127
112.20965986394557	112.5463492063492	59	127
112.90625850340136	113.24294784580499	59	127
112.90625850340136	113.24294784580499	67	127
112.90625850340136	113.24294784580499	55	127
113.24294784580499	113.38226757369614	66	127
113.24294784580499	113.38226757369614	60	127
113.24294784580499	113.38226757369614	57	127
113.5564172335601	113.70734693877552	60	127
113.5564172335601	113.70734693877552	69	127
113.5564172335601	113.70734693877552	57	127
113.86988662131519	114.1833560090703	60	127
113.86988662131519	114.1833560090703	74	127
113.86988662131519	114.1833560090703	54	127
113.86988662131519	114.32267573696146	62	127
114.1833560090703	114.32267573696146	71	127
114.1833560090703	114.32267573696146	55	127
114.1833560090703	114.32267573696146	59	127
114.50843537414966	114.67097505668934	59	127
114.50843537414966	114.67097505668934	74	127
114.50843537414966	114.67097505668934	62	127
114.83351473922903	115.07732426303855	62	127
114.83351473922903	115.07732426303855	79	127
114.83351473922903	115.07732426303855	59	127
115.07732426303855	115.23986394557824	74	127
115.07732426303855	115.23986394557824	67	127
115.07732426303855	115.23986394557824	62	127
115.37918367346938	115.5301133786848	83	127
115.37918367346938	115.5301133786848	62	127
115.37918367346938	115.5301133786848	67	127
115.70426303854876	115.84358276643991	81	127
115.70426303854876	115.84358276643991	66	127
115.70426303854876	115.84358276643991	62	127
116.0061224489796	116.16866213151927	79	127
116.0061224489796	116.16866213151927	67	127
116.0061224489796	116.16866213151927	55	127
116.16866213151927	116.27315192743764	67	127
116.28476190476191	116.44730158730158	59	127
116.28476190476191	116.44730158730158	47	127
116.44730158730158	116.58662131519274	55	127
116.44730158730158	116.58662131519274	67	127
116.59823129251701	116.73755102040816	55	127
116.59823129251701	116.73755102040816	43	127
116.73755102040816	116.87687074829932	59	127
116.73755102040816	116.87687074829932	71	127
116.87687074829932	117.02780045351474	57	127
116.87687074829932	117.02780045351474	45	127
117.039410430839	117.17873015873016	60	127
117.039410430839	117.17873015873016	72	127
117.17873015873016	117.26	54	127
117.17873015873016	117.26	42	127
117.27160997732426	117.4457596371882	57	127
117.27160997732426	117.4457596371882	69	127
117.4457596371882	117.60829931972789	54	127
117.4457596371882	117.60829931972789	42	127
117.60829931972789	117.77083900226758	57	127
117.60829931972789	117.77083900226758	69	127
117.78244897959183	117.93337868480725	55	127
117.78244897959183	117.93337868480725	43	127
117.93337868480725	118.08430839002267	59	127
117.93337868480725	118.08430839002267	71	127
118.09591836734694	118.24684807256236	59	127
118.09591836734694	118.24684807256236	47	127
118.24684807256236	118.38616780045352	62	127
118.24684807256236	118.38616780045352	74	127
118.38616780045352	118.52548752834467	59	127
118.38616780045352	118.52548752834467	47	127
118.52548752834467	118.65319727891156	62	127
118.52548752834467	118.65319727891156	74	127
118.66480725623583	118.8273469387755	62	127
118.66480725623583	118.8273469387755	50	127
118.83895691609978	118.96666666666667	67	127
118.83895691609978	118.96666666666667	71	127
118.97827664399092	119.11759637188209	50	127
118.97827664399092	119.11759637188209	38	127
119.11759637188209	119.2685260770975	67	127
119.11759637188209	119.2685260770975	71	127
119.2685260770975	119.41945578231292	50	127
119.2685260770975	119.41945578231292	38	127
119.41945578231292	119.59360544217687	69	127
119.41945578231292	119.59360544217687	66	127
119.60521541950114	120.12766439909296	55	127
119.60521541950114	120.12766439909296	43	127
119.86063492063492	120.29020408163265	71	127
119.86063492063492	120.29020408163265	59	127
119.86063492063492	120.29020408163265	62	127
119.86063492063492	120.29020408163265	67	127
120.12766439909296	120.4643537414966	55	127
120.12766439909296	120.4643537414966	43	127
120.30181405895692	120.95197278911564	62	127
120.30181405895692	120.95197278911564	71	127
120.30181405895692	120.95197278911564	67	127
120.30181405895692	120.95197278911564	59	127
120.4643537414966	121.11451247165533	43	127
120.4643537414966	121.11451247165533	55	127
120.96358276643991	121.32349206349207	71	127
120.96358276643991	121.32349206349207	59	127
120.96358276643991	121.32349206349207	62	127
120.96358276643991	121.32349206349207	67	127
121.13773242630386	121.50925170068027	43	127
121.13773242630386	121.50925170068027	55	127
121.3467120181406	121.70662131519275	67	127
121.3467120181406	121.70662131519275	71	127
121.3467120181406	121.70662131519275	59	127
121.3467120181406	121.70662131519275	62	127
121.50925170068027	121.88077097505669	43	127
121.50925170068027	121.88077097505669	55	127
121.70662131519275	122.0665306122449	67	127
121.70662131519275	122.0665306122449	71	127
121.70662131519275	122.0665306122449	59	127
121.70662131519275	122.0665306122449	62	127
121.88077097505669	122.2871201814059	43	127
121.88077097505669	122.2871201814059	55	127
122.07814058956916	122.2871201814059	67	127
122.07814058956916	122.2871201814059	71	127
122.07814058956916	122.2871201814059	62	127
122.07814058956916	122.2871201814059	59	127
122.2871201814059	122.93727891156463	62	127
122.2871201814059	122.93727891156463	67	127
122.2871201814059	122.93727891156463	71	127
122.2871201814059	122.93727891156463	74	127
122.2871201814059	122.93727891156463	31	127
122.2871201814059	122.93727891156463	43	127
