# onset,offset,note,velocity
0.10371882086167801	1.4040362811791383	67	127
0.10371882086167801	1.4040362811791383	59	127
1.4040362811791383	2.6579138321995464	69	127
1.4040362811791383	3.2268027210884354	62	127
2.6695238095238096	3.2268027210884354	71	127
3.2384126984126986	4.027891156462585	71	127
3.2384126984126986	4.027891156462585	67	127
4.039501133786848	4.341360544217687	69	127
4.039501133786848	4.341360544217687	66	127
4.35297052154195	4.8986167800453515	60	127
4.35297052154195	4.8986167800453515	69	127
4.8986167800453515	6.082857142857143	67	127
4.8986167800453515	6.082857142857143	59	127
6.082857142857143	8.370022675736962	57	127
6.082857142857143	7.824353741496599	67	127
7.835963718820862	8.370022675736962	66	127
8.370022675736962	8.683492063492064	67	127
8.370022675736962	8.683492063492064	59	127
8.695102040816327	9.345238095238095	62	127
9.345238095238095	9.763219954648527	60	127
9.77482993197279	10.343718820861678	67	127
9.77482993197279	10.343718820861678	59	127
10.35532879818594	10.494648526077098	72	127
10.494648526077098	10.645555555555555	71	127
10.645555555555555	10.784897959183674	69	127
10.784897959183674	10.970657596371883	67	127
10.970657596371883	11.260907029478458	69	127
11.260907029478458	11.45827664399093	74	127
11.539546485260772	11.748526077097505	74	127
12.154875283446712	12.700544217687074	71	127
12.700544217687074	12.851473922902494	72	127
12.851473922902494	12.99079365079365	71	127
12.99079365079365	13.153333333333334	69	127
13.153333333333334	13.315873015873017	67	127
13.315873015873017	13.582902494331066	71	127
13.582902494331066	13.803492063492063	69	127
13.90798185941043	14.140181405895692	69	127
14.500090702947846	15.034149659863946	67	127
15.045759637188208	15.16185941043084	72	127
15.16185941043084	15.324399092970522	71	127
15.324399092970522	15.51015873015873	69	127
15.51015873015873	15.66108843537415	67	127
15.66108843537415	15.97455782312925	76	127
15.97455782312925	16.183537414965986	79	127
16.253197278911564	16.450566893424035	79	127
16.88013605442177	17.18199546485261	69	127
17.18199546485261	17.37936507936508	74	127
17.449024943310658	17.65800453514739	74	127
18.006303854875284	18.34299319727891	71	127
18.34299319727891	18.94671201814059	62	127
18.94671201814059	19.306621315192743	62	127
19.306621315192743	19.98	61	127
19.98	20.537278911564627	66	127
19.98	20.537278911564627	61	127
20.537278911564627	21.709886621315192	63	127
20.537278911564627	21.709886621315192	66	127
21.721496598639455	22.836054421768708	66	127
21.721496598639455	22.836054421768708	61	127
22.836054421768708	23.950612244897957	66	127
22.836054421768708	23.393333333333334	63	127
23.393333333333334	23.950612244897957	62	127
23.950612244897957	25.041950113378686	65	127
23.950612244897957	25.041950113378686	62	127
25.05356009070295	25.645668934240362	64	127
25.05356009070295	26.795056689342402	60	127
25.657278911564624	26.21455782312925	67	127
26.226167800453513	26.795056689342402	66	127
26.795056689342402	27.35233560090703	57	127
26.795056689342402	27.35233560090703	66	127
27.35233560090703	27.630975056689344	59	127
27.35233560090703	27.630975056689344	67	127
27.642585034013607	28.292743764172336	62	127
28.304353741496598	28.594603174603176	71	127
28.641043083900225	29.209931972789114	70	127
29.22154195011338	29.360861678004536	71	127
29.360861678004536	29.511791383219954	70	127
29.511791383219954	29.674331065759638	68	127
29.674331065759638	29.813650793650794	66	127
29.813650793650794	30.092290249433105	66	127
30.092290249433105	30.324489795918367	71	127
30.41736961451247	30.614739229024945	71	127
30.98625850340136	31.276507936507937	70	127
31.276507936507937	31.40421768707483	71	127
31.40421768707483	31.531927437641723	73	127
31.531927437641723	31.659637188208617	71	127
31.659637188208617	31.798956916099772	70	127
31.798956916099772	31.996326530612244	68	127
31.996326530612244	32.12403628117914	66	127
32.12403628117914	32.391065759637186	66	127
32.391065759637186	32.58843537414966	71	127
32.66968253968254	32.86707482993197	71	127
33.22698412698413	33.50562358276644	71	127
33.50562358276644	33.644943310657595	72	127
33.644943310657595	33.78426303854875	74	127
33.78426303854875	33.93517006802721	72	127
33.93517006802721	34.10934240362812	71	127
34.10934240362812	34.26027210884354	69	127
34.26027210884354	34.38798185941043	67	127
34.38798185941043	34.68981859410431	72	127
34.68981859410431	34.88721088435374	76	127
34.95684807256236	35.20065759637188	76	127
35.54897959183673	35.83920634920635	69	127
35.83920634920635	36.03659863945578	74	127
36.14108843537415	36.36167800453515	74	127
36.75641723356009	37.04666666666667	71	127
37.04666666666667	37.313696145124716	62	127
37.313696145124716	37.615532879818595	64	127
37.615532879818595	37.917414965986396	66	127
37.917414965986396	38.25408163265306	67	127
38.25408163265306	38.614013605442175	71	127
38.614013605442175	38.97392290249433	72	127
38.97392290249433	39.31061224489796	71	127
39.31061224489796	39.600861678004534	69	127
41.957687074829934	42.25954648526077	62	127
42.25954648526077	42.53818594104308	64	127
42.53818594104308	42.80521541950113	66	127
42.80521541950113	43.11868480725624	67	127
43.11868480725624	43.40893424036281	71	127
43.40893424036281	43.69916099773243	72	127
43.69916099773243	44.00104308390023	71	127
44.00104308390023	44.302902494331065	76	127
46.81065759637188	47.05446712018141	62	127
47.05446712018141	47.321496598639456	64	127
47.321496598639456	47.61174603174603	66	127
47.61174603174603	47.87877551020408	67	127
47.87877551020408	48.1574149659864	71	127
48.1574149659864	48.459274376417234	72	127
48.459274376417234	48.76113378684807	71	127
48.76113378684807	49.08621315192744	69	127
51.59396825396826	51.87260770975057	62	127
51.87260770975057	52.174467120181404	64	127
52.174467120181404	52.511156462585035	66	127
52.511156462585035	52.789795918367346	67	127
52.789795918367346	53.056825396825396	71	127
53.056825396825396	53.34707482993197	72	127
53.34707482993197	53.660544217687075	71	127
53.660544217687075	53.93918367346939	76	127
56.3540589569161	56.713968253968254	67	127
56.713968253968254	57.03904761904762	66	127
57.03904761904762	57.39895691609977	65	127
57.39895691609977	57.68920634920635	66	127
57.68920634920635	57.99106575963719	70	127
57.99106575963719	58.30453514739229	71	127
58.30453514739229	58.59478458049887	70	127
58.59478458049887	58.88503401360544	71	127
61.32312925170068	61.61337868480726	71	127
61.61337868480726	61.89201814058957	70	127
61.89201814058957	62.14743764172336	71	127
62.15904761904762	62.42607709750567	71	127
62.43768707482993	62.75115646258504	71	127
62.75115646258504	63.04140589569161	72	127
63.04140589569161	63.331655328798185	71	127
63.331655328798185	63.64512471655329	72	127
64.84095238095239	65.1195918367347	74	127
65.1195918367347	65.43306122448979	73	127
65.43306122448979	65.7465306122449	74	127
65.7465306122449	66.06	71	127
66.06	66.35022675736961	67	127
66.35022675736961	66.66371882086167	66	127
66.66371882086167	66.97718820861678	65	127
66.97718820861678	67.42997732426304	66	127
67.42997732426304	67.72022675736962	70	127
67.72022675736962	68.0104761904762	71	127
68.0104761904762	68.31233560090703	70	127
68.31233560090703	68.56775510204082	71	127
70.94780045351474	71.2844671201814	71	127
71.2844671201814	71.52829931972789	70	127
71.52829931972789	71.81854875283447	71	127
71.83015873015873	72.13201814058957	71	127
72.14362811791383	72.42226757369615	71	127
72.42226757369615	72.6660544217687	72	127
72.6660544217687	73.02598639455782	71	127
73.02598639455782	73.36267573696145	72	127
74.45399092970521	74.72104308390023	74	127
74.72104308390023	75.01129251700681	73	127
75.01129251700681	75.30154195011337	74	127
75.30154195011337	75.58018140589569	71	127
76.41609977324264	76.99659863945578	74	127
77.17074829931973	77.35650793650794	74	127
77.35650793650794	77.5538775510204	74	127
77.5538775510204	78.1343537414966	74	127
78.37818594104309	78.55233560090703	74	127
78.5639455782313	78.73809523809524	74	127
78.7497052154195	79.388231292517	74	127
79.57401360544218	79.7249433106576	74	127
79.73655328798186	79.9107029478458	74	127
79.9107029478458	80.46798185941043	74	127
80.67696145124717	80.92074829931973	74	127
80.92074829931973	81.11814058956917	74	127
81.11814058956917	81.66380952380952	74	127
81.87278911564626	82.0469387755102	79	127
82.05854875283447	82.25591836734694	79	127
82.29074829931973	82.81319727891156	79	127
83.05700680272109	83.23115646258503	79	127
83.2427664399093	83.44013605442177	79	127
83.45172335600907	83.9974149659864	78	127
84.22961451247166	84.42698412698412	57	127
84.22961451247166	84.42698412698412	66	127
84.42698412698412	84.63596371882086	57	127
84.42698412698412	84.63596371882086	66	127
84.63596371882086	84.82172335600907	57	127
84.63596371882086	84.82172335600907	67	127
84.82172335600907	84.89138321995465	62	127
84.89138321995465	84.94943310657597	64	127
84.94943310657597	85.00748299319729	62	127
85.00748299319729	85.18163265306123	61	127
85.18163265306123	85.30934240362812	62	127
85.36736961451247	85.55315192743764	64	127
85.55315192743764	85.75049886621315	66	127
85.75049886621315	85.9130612244898	67	127
85.97111111111111	86.05238095238096	62	127
86.05238095238096	86.12204081632653	64	127
86.12204081632653	86.18009070294785	62	127
86.18009070294785	86.38904761904762	61	127
86.38904761904762	86.56321995464853	62	127
86.62124716553288	86.80702947845805	67	127
86.84185941043084	87.03922902494331	71	127
87.05083900226758	87.19015873015873	69	127
87.27142857142857	87.34108843537415	62	127
87.34108843537415	87.41072562358276	64	127
87.41072562358276	87.46879818594104	62	127
87.46879818594104	87.68938775510205	61	127
87.68938775510205	87.81709750566894	62	127
87.86353741496599	88.0492970521542	69	127
88.0492970521542	88.32793650793651	74	127
88.32793650793651	88.50208616780046	71	127
88.52530612244898	88.5833560090703	62	127
88.5833560090703	88.6414058956916	64	127
88.6414058956916	88.7110657596372	62	127
88.7110657596372	88.90843537414966	61	127
88.90843537414966	89.03614512471655	62	127
89.1174149659864	89.33800453514739	67	127
89.33800453514739	89.53537414965986	71	127
89.53537414965986	89.69791383219955	69	127
89.73274376417234	89.82562358276644	62	127
89.82562358276644	89.88367346938776	64	127
89.88367346938776	89.9417006802721	62	127
89.9417006802721	90.13909297052155	61	127
90.13909297052155	90.32482993197279	62	127
90.38290249433106	90.56866213151928	66	127
90.56866213151928	90.78925170068027	69	127
90.78925170068027	90.94015873015873	67	127
91.06786848072562	91.13755102040817	67	127
91.13755102040817	91.20721088435374	69	127
91.20721088435374	91.26526077097506	67	127
91.26526077097506	91.439410430839	66	127
91.4509977324263	91.63678004535147	67	127
91.64839002267574	91.89219954648526	67	127
91.89219954648526	92.101179138322	74	127
92.101179138322	92.25210884353741	76	127
92.29854875283446	92.37981859410431	64	127
92.37981859410431	92.43786848072563	66	127
92.43786848072563	92.49591836734695	64	127
92.49591836734695	92.67006802721089	62	127
92.67006802721089	92.8209977324263	64	127
92.87904761904763	93.0764172335601	76	127
93.0764172335601	93.32022675736961	79	127
93.32022675736961	93.4827664399093	69	127
93.51759637188209	93.58725623582767	62	127
93.58725623582767	93.65691609977324	64	127
93.65691609977324	93.71496598639456	62	127
93.71496598639456	93.9239455782313	61	127
93.9239455782313	94.05165532879819	62	127
94.10968253968254	94.31868480725623	69	127
94.31868480725623	94.51603174603174	74	127
94.51603174603174	95.09655328798186	71	127
95.32875283446712	95.54934240362812	59	127
95.54934240362812	95.75832199546485	62	127
95.75832199546485	96.36204081632653	61	127
96.58263038548753	96.76839002267573	78	127
96.76839002267573	96.95414965986394	78	127
96.95414965986394	97.53464852607709	78	127
97.77845804988662	97.96421768707484	78	127
97.96421768707484	98.14997732426303	78	127
98.14997732426303	98.75369614512472	78	127
98.96267573696146	99.14843537414966	78	127
99.17165532879818	99.3574149659864	78	127
99.36902494331066	99.9843537414966	78	127
100.19333333333333	100.39070294784581	78	127
100.39070294784581	100.57646258503401	78	127
100.57646258503401	101.15696145124717	77	127
101.31950113378684	101.51687074829933	79	127
101.51687074829933	101.73746031746032	79	127
101.73746031746032	102.32956916099774	79	127
102.57337868480725	102.7475283446712	64	127
102.57337868480725	102.7475283446712	72	127
102.75913832199547	102.94489795918368	64	127
102.75913832199547	102.94489795918368	72	127
102.95650793650793	103.58344671201814	69	127
102.95650793650793	103.58344671201814	66	127
103.80403628117914	103.97818594104308	57	127
103.80403628117914	103.97818594104308	66	127
103.98979591836735	104.16394557823129	57	127
103.98979591836735	104.16394557823129	66	127
104.17555555555556	104.30326530612246	59	127
104.17555555555556	104.31487528344671	71	127
104.33809523809524	104.40775510204081	59	127
104.40775510204081	104.4774149659864	60	127
104.4774149659864	104.54707482993197	59	127
104.54707482993197	104.74444444444444	58	127
104.74444444444444	104.90698412698413	59	127
104.95342403628118	105.16240362811791	62	127
105.16240362811791	105.3829931972789	71	127
105.3829931972789	105.59197278911564	70	127
105.62680272108844	105.69646258503401	66	127
105.69646258503401	105.75451247165533	68	127
105.75451247165533	105.8241723356009	66	127
105.8241723356009	106.02154195011337	65	127
106.02154195011337	106.19569160997733	66	127
106.24213151927438	106.45111111111112	70	127
106.45111111111112	106.66009070294784	73	127
106.66009070294784	106.799410430839	71	127
106.84585034013605	106.95034013605442	66	127
106.95034013605442	107.04321995464852	68	127
107.04321995464852	107.11287981859411	66	127
107.11287981859411	107.31024943310658	65	127
107.31024943310658	107.44956916099773	66	127
107.50761904761904	107.71659863945578	71	127
107.71659863945578	107.902358276644	75	127
107.902358276644	108.03006802721089	70	127
108.07650793650794	108.14616780045351	66	127
108.14616780045351	108.20421768707483	68	127
108.20421768707483	108.28548752834467	66	127
108.28548752834467	108.45963718820862	65	127
108.45963718820862	108.65700680272109	66	127
108.72666666666667	108.92403628117914	70	127
108.92403628117914	109.12140589569161	73	127
109.12140589569161	109.27233560090703	71	127
109.30716553287982	109.41165532879819	66	127
109.41165532879819	109.4697052154195	68	127
109.4697052154195	109.53936507936508	66	127
109.53936507936508	109.73673469387755	65	127
109.73673469387755	109.92249433106576	66	127
109.98054421768707	110.1895238095238	71	127
110.1895238095238	110.37528344671202	74	127
110.37528344671202	110.52621315192744	74	127
110.59587301587301	110.6655328798186	65	127
110.6655328798186	110.7235827664399	67	127
110.7235827664399	110.81646258503402	65	127
110.81646258503402	111.00222222222222	64	127
111.00222222222222	111.1647619047619	65	127
111.21120181405895	111.39696145124717	71	127
111.39696145124717	111.62916099773243	74	127
111.62916099773243	111.8265306122449	76	127
111.86136054421769	111.90780045351474	64	127
111.90780045351474	111.96585034013606	65	127
111.96585034013606	112.03551020408163	64	127
112.03551020408163	112.2328798185941	63	127
112.2328798185941	112.38380952380952	64	127
112.46507936507936	112.68566893424037	76	127
112.68566893424037	112.85981859410431	84	127
112.85981859410431	113.01074829931973	81	127
113.04557823129252	113.12684807256235	62	127
113.12684807256235	113.18489795918367	64	127
113.18489795918367	113.27777777777777	62	127
113.27777777777777	113.47514739229025	61	127
113.47514739229025	113.63768707482993	62	127
113.67251700680272	113.85827664399093	81	127
113.85827664399093	114.17174603174603	86	127
114.17174603174603	114.89156462585034	83	127
115.82036281179138	116.38925170068028	67	127
116.40086167800453	116.99297052154195	67	127
117.00458049886622	117.29482993197279	67	127
117.29482993197279	117.59668934240362	72	127
117.60829931972789	117.91015873015873	72	127
117.91015873015873	118.18879818594104	71	127
118.18879818594104	118.87378684807257	71	127
118.87378684807257	119.11759637188209	70	127
119.11759637188209	119.44267573696145	69	127
119.44267573696145	120.03478458049887	69	127
120.05800453514739	120.66172335600908	74	127
120.6849433106576	121.24222222222222	71	127
121.25383219954648	121.52086167800454	71	127
121.52086167800454	121.85755102040817	72	127
121.86916099773242	122.46126984126984	72	127
122.46126984126984	123.04176870748299	72	127
123.04176870748299	123.71514739229025	72	127
123.71514739229025	123.9821768707483	72	127
123.9821768707483	124.27242630385487	71	127
124.27242630385487	124.91097505668934	67	127
124.93419501133786	125.52630385487528	67	127
125.53791383219955	126.14163265306122	71	127
126.15324263038549	126.4318820861678	71	127
126.4318820861678	126.81501133786848	76	127
126.81501133786848	127.36068027210884	76	127
127.36068027210884	127.941179138322	74	127
127.941179138322	128.52167800453515	79	127
128.53328798185942	129.1137641723356	79	127
129.12539682539682	129.7639455782313	78	127
129.7755328798186	130.06580498866214	78	127
130.06580498866214	130.36766439909297	79	127
130.36766439909297	130.97138321995465	79	127
130.97138321995465	131.5867120181406	79	127
131.5867120181406	132.17879818594105	76	127
132.17879818594105	132.4690702947846	76	127
132.4690702947846	132.74770975056688	74	127
132.75931972789115	133.35142857142858	74	127
133.36303854875283	133.97836734693877	74	127
133.98997732426304	134.67496598639457	71	127
134.67496598639457	134.87233560090704	59	127
134.87233560090704	135.01165532879818	62	127
135.01165532879818	135.48766439909298	61	127
135.48766439909298	136.11458049886622	64	127
136.11458049886622	136.41646258503403	64	127
136.41646258503403	136.77637188208618	63	127
136.78798185941042	137.35687074829931	63	127
137.36848072562358	138.0186394557823	66	127
138.04185941043085	138.66879818594106	61	127
138.6804081632653	138.95904761904762	61	127
138.95904761904762	139.27251700680273	63	127
139.27251700680273	139.66725623582767	63	127
139.66725623582767	140.0387755102041	62	127
140.0503628117914	140.81662131519275	62	127
140.81662131519275	141.46680272108844	62	127
141.46680272108844	141.74544217687074	62	127
141.757052154195	142.08213151927438	64	127
142.09374149659865	142.7322902494331	64	127
142.74390022675738	143.02253968253967	67	127
143.03414965986394	143.301179138322	69	127
143.32437641723357	143.962947845805	69	127
143.962947845805	144.28802721088437	69	127
144.28802721088437	144.6131065759637	67	127
144.6131065759637	144.91496598639455	62	127
144.91496598639455	145.22843537414965	59	127
145.22843537414965	145.5302947845805	65	127
145.5302947845805	145.85537414965987	66	127
145.85537414965987	146.49390022675738	66	127
146.5055328798186	147.1324716553288	66	127
147.14408163265307	147.74780045351474	71	127
147.759410430839	148.0380498866213	71	127
148.0380498866213	148.35151927437641	70	127
148.35151927437641	149.0016553287982	70	127
149.0016553287982	149.3615873015873	70	127
149.3615873015873	149.66342403628119	71	127
149.66342403628119	150.27875283446713	71	127
150.29038548752834	150.8708843537415	71	127
150.88249433106577	151.54426303854876	71	127
151.55585034013606	151.82290249433106	71	127
151.83451247165533	152.1247619047619	72	127
152.13637188208617	152.76331065759638	76	127
152.76331065759638	153.08836734693878	76	127
153.08836734693878	153.42507936507937	74	127
153.42507936507937	153.99396825396826	74	127
154.00555555555556	154.43514739229025	74	127
154.44675736961452	154.58607709750567	62	127
154.58607709750567	154.72537414965987	59	127
154.72537414965987	154.89954648526077	62	127
154.89954648526077	155.0272335600907	67	127
155.0272335600907	155.16657596371883	62	127
155.16657596371883	155.32911564625851	59	127
155.32911564625851	155.50326530612244	62	127
155.50326530612244	155.8399546485261	55	127
156.10696145124717	156.36238095238096	79	127
156.10696145124717	156.36238095238096	71	127
156.10696145124717	156.36238095238096	62	127
156.71070294784582	156.97773242630385	69	127
156.71070294784582	156.97773242630385	81	127
156.71070294784582	156.97773242630385	62	127
157.39569160997732	157.67433106575965	62	127
157.39569160997732	157.67433106575965	74	127
157.39569160997732	157.67433106575965	86	127
160.78580498866214	161.0528344671202	59	127
160.78580498866214	161.0528344671202	67	127
161.34308390022676	161.63333333333333	79	127
161.34308390022676	161.63333333333333	71	127
161.34308390022676	161.63333333333333	62	127
161.92358276643992	162.24866213151927	79	127
161.92358276643992	162.24866213151927	64	127
161.92358276643992	162.24866213151927	72	127
162.56213151927437	162.92204081632653	79	127
162.56213151927437	162.92204081632653	69	127
162.92204081632653	163.29356009070295	78	127
163.29356009070295	163.46768707482994	81	127
163.46768707482994	163.63024943310657	79	127
163.63024943310657	163.76954648526078	78	127
163.76954648526078	163.92049886621317	76	127
163.92049886621317	164.08303854875282	74	127
164.08303854875282	164.2455782312925	72	127
164.2455782312925	164.36167800453515	71	127
164.44294784580498	164.5706575963719	71	127
164.5706575963719	164.70997732426304	69	127
164.70997732426304	164.82607709750567	67	127
164.82607709750567	164.95378684807255	66	127
164.95378684807255	165.15113378684808	64	127
165.15113378684808	165.33691609977325	62	127
165.33691609977325	165.4762358276644	60	127
165.4762358276644	165.74326530612245	59	127
165.75487528344672	166.0218820861678	67	127
165.75487528344672	166.0218820861678	59	127
166.34698412698413	166.62562358276645	79	127
166.34698412698413	166.62562358276645	71	127
166.97392290249434	167.25256235827663	81	127
166.97392290249434	167.25256235827663	69	127
167.6588888888889	167.97238095238095	86	127
167.6588888888889	167.97238095238095	74	127
167.6588888888889	167.97238095238095	62	127
167.97238095238095	168.46	83	127
168.46	168.59931972789116	81	127
168.59931972789116	168.7386394557823	79	127
168.7386394557823	168.88956916099772	78	127
168.88956916099772	169.08691609977325	76	127
169.08691609977325	169.22625850340137	74	127
169.22625850340137	169.36557823129252	73	127
169.36557823129252	169.51650793650794	74	127
169.51650793650794	169.67904761904762	72	127
169.67904761904762	169.81836734693877	71	127
169.81836734693877	169.95766439909298	69	127
169.95766439909298	170.1085941043084	72	127
170.1085941043084	170.27115646258503	71	127
170.27115646258503	170.39886621315193	69	127
170.39886621315193	170.71233560090704	59	127
170.39886621315193	170.71233560090704	67	127
170.97934240362812	171.26961451247166	79	127
170.97934240362812	171.26961451247166	71	127
170.97934240362812	171.26961451247166	62	127
171.58308390022677	171.85009070294785	76	127
171.58308390022677	171.85009070294785	64	127
172.25643990929706	172.5699319727891	79	127
172.25643990929706	172.5699319727891	69	127
172.92984126984126	173.38260770975057	69	127
173.38260770975057	173.55678004535147	78	127
173.55678004535147	173.73092970521543	76	127
173.73092970521543	173.8586394557823	74	127
173.8586394557823	173.99793650793652	72	127
173.99793650793652	174.17210884353742	71	127
174.17210884353742	174.32303854875283	69	127
174.32303854875283	174.45074829931974	67	127
174.45074829931974	174.57845804988662	59	127
174.5900680272109	174.75260770975058	59	127
174.76419501133788	174.93836734693878	59	127
174.93836734693878	175.10090702947846	59	127
175.10090702947846	175.25183673469388	71	127
175.26344671201815	175.39115646258503	71	127
175.4027664399093	175.565306122449	71	127
175.57689342403629	175.86716553287982	70	127
176.16902494331066	176.42444444444445	66	127
176.16902494331066	176.42444444444445	73	127
176.16902494331066	176.42444444444445	82	127
176.79596371882087	177.08621315192744	59	127
177.39968253968254	177.70154195011338	66	127
177.39968253968254	177.70154195011338	75	127
177.39968253968254	177.70154195011338	83	127
180.82462585034014	181.0916553287982	55	127
180.82462585034014	181.0916553287982	62	127
180.82462585034014	181.0916553287982	71	127
180.82462585034014	181.0916553287982	77	127
181.4283446712018	181.69537414965987	71	127
181.4283446712018	181.69537414965987	55	127
181.4283446712018	181.69537414965987	62	127
181.4283446712018	181.69537414965987	77	127
181.9972335600907	182.32231292517008	64	127
181.9972335600907	182.32231292517008	72	127
181.9972335600907	182.32231292517008	76	127
182.70544217687075	183.05374149659863	76	127
182.70544217687075	183.05374149659863	84	127
183.0653514739229	183.62263038548753	81	127
183.62263038548753	183.77356009070294	79	127
183.77356009070294	183.95931972789117	78	127
183.95931972789117	184.15668934240364	76	127
184.15668934240364	184.30761904761906	74	127
184.30761904761906	184.45854875283447	72	127
184.45854875283447	184.58625850340135	71	127
184.58625850340135	184.69074829931972	62	127
184.73718820861677	184.83004535147393	62	127
184.89972789115646	184.99260770975056	62	127
185.05065759637188	185.21319727891157	62	127
185.21319727891157	185.31768707482993	74	127
185.3525170068027	185.50344671201813	62	127
185.54986394557824	185.6427664399093	62	127
185.70079365079366	185.97945578231293	61	127
185.9910657596372	186.2697052154195	78	127
185.9910657596372	186.2697052154195	73	127
185.9910657596372	186.2697052154195	66	127
186.62961451247165	186.91986394557824	66	127
186.62961451247165	186.91986394557824	73	127
186.62961451247165	186.91986394557824	78	127
187.26816326530613	187.5584126984127	75	127
187.26816326530613	187.5584126984127	78	127
187.89510204081634	188.24340136054423	75	127
187.89510204081634	188.24340136054423	83	127
188.24340136054423	188.78907029478458	82	127
188.80068027210885	188.95160997732427	80	127
188.95160997732427	189.12573696145125	78	127
189.12573696145125	189.27666666666667	76	127
189.27666666666667	189.40439909297052	75	127
189.40439909297052	189.54371882086167	73	127
189.55532879818594	189.68303854875285	73	127
189.7294784580499	189.86879818594105	71	127
189.86879818594105	190.042947845805	70	127
190.042947845805	190.19387755102042	71	127
190.19387755102042	190.35641723356008	70	127
190.35641723356008	190.5073469387755	71	127
190.5073469387755	190.65827664399092	70	127
190.65827664399092	190.7975963718821	71	127
190.7975963718821	191.0762358276644	71	127
191.41292517006804	191.69156462585033	67	127
191.41292517006804	191.69156462585033	74	127
191.41292517006804	191.69156462585033	83	127
192.0514739229025	192.34172335600908	67	127
192.0514739229025	192.34172335600908	76	127
192.0514739229025	192.34172335600908	84	127
192.69002267573697	192.98027210884354	88	127
192.69002267573697	192.98027210884354	76	127
193.4330612244898	193.9903401360544	76	127
193.9903401360544	194.18770975056688	74	127
194.18770975056688	194.4082993197279	72	127
194.4082993197279	194.5592290249433	71	127
194.5592290249433	194.74498866213153	69	127
194.74498866213153	194.95396825396824	67	127
194.95396825396824	195.2209977324263	66	127
195.2209977324263	195.49963718820862	64	127
195.49963718820862	195.6970068027211	62	127
195.6970068027211	195.95242630385488	60	127
195.95242630385488	196.27750566893425	59	127
196.27750566893425	196.63741496598638	57	127
196.63741496598638	197.14825396825398	61	127
197.14825396825398	197.7055328798186	60	127
197.7055328798186	198.98263038548754	59	127
198.99424036281178	200.08557823129252	59	127
198.99424036281178	200.08557823129252	62	127
200.08557823129252	201.39750566893423	62	127
200.08557823129252	201.39750566893423	59	127
201.43233560090704	202.52367346938775	59	127
201.43233560090704	202.52367346938775	62	127
202.53528344671201	203.70789115646258	62	127
202.53528344671201	203.70789115646258	59	127
203.71950113378685	204.93854875283446	59	127
203.71950113378685	204.93854875283446	62	127
204.95015873015873	206.18081632653062	62	127
204.95015873015873	206.18081632653062	60	127
206.1924263038549	207.39986394557823	60	127
206.1924263038549	207.39986394557823	62	127
207.4114739229025	208.56086167800453	60	127
207.4114739229025	208.56086167800453	62	127
208.5724716553288	209.8263492063492	60	127
208.5724716553288	209.8263492063492	62	127
209.8263492063492	210.9989569160998	60	127
209.8263492063492	210.9989569160998	62	127
211.0221768707483	212.15995464852608	60	127
211.0221768707483	212.15995464852608	62	127
212.17156462585035	213.3093424036281	58	127
212.17156462585035	213.3093424036281	62	127
213.32095238095238	214.6909297052154	59	127
213.32095238095238	214.6909297052154	62	127
214.70253968253968	215.88675736961451	59	127
214.70253968253968	215.88675736961451	62	127
215.89836734693878	216.96648526077098	62	127
215.89836734693878	216.96648526077098	59	127
216.97809523809525	218.12748299319728	67	127
218.12748299319728	219.27687074829933	71	127
218.12748299319728	219.27687074829933	67	127
219.28848072562357	220.51913832199546	67	127
219.28848072562357	220.51913832199546	71	127
220.53074829931973	221.86589569160998	66	127
220.53074829931973	221.86589569160998	69	127
221.90072562358276	223.64222222222222	66	127
221.90072562358276	223.64222222222222	69	127
223.65383219954649	227.7057142857143	69	127
223.65383219954649	227.7057142857143	66	127
233.22045351473923	236.37836734693877	66	127
236.37836734693877	237.05174603174603	64	127
237.05174603174603	237.28394557823128	62	127
237.28394557823128	237.62063492063493	69	127
237.62063492063493	237.8180045351474	67	127
237.8180045351474	238.02698412698413	66	127
238.02698412698413	238.23596371882087	72	127
238.23596371882087	238.4101133786848	71	127
238.4101133786848	238.71197278911563	69	127
238.71197278911563	239.0718820861678	74	127
239.0718820861678	239.3853514739229	72	127
239.3853514739229	239.84975056689342	69	127
239.84975056689342	242.19496598639455	67	127
242.20657596371882	242.2762358276644	67	127
242.2762358276644	242.33428571428573	69	127
242.33428571428573	242.4039455782313	67	127
242.4039455782313	242.4619954648526	69	127
242.4619954648526	242.5316553287982	67	127
242.5316553287982	242.60131519274375	69	127
242.60131519274375	242.65936507936507	67	127
242.65936507936507	242.75224489795917	69	127
242.75224489795917	242.8102947845805	67	127
242.8102947845805	242.8683446712018	69	127
242.8683446712018	242.9380045351474	67	127
242.9380045351474	242.99605442176872	69	127
242.99605442176872	243.06571428571428	67	127
243.06571428571428	243.14698412698414	69	127
243.14698412698414	243.20503401360546	67	127
243.20503401360546	243.27469387755102	69	127
243.27469387755102	244.598231292517	71	127
244.598231292517	245.01619047619047	62	127
245.01619047619047	245.20195011337867	61	127
245.20195011337867	245.37609977324263	62	127
245.37609977324263	245.59668934240364	64	127
245.59668934240364	245.89854875283447	66	127
245.89854875283447	246.09591836734694	67	127
246.09591836734694	246.22362811791382	69	127
246.22362811791382	246.39777777777778	71	127
246.39777777777778	246.56031746031746	72	127
246.56031746031746	246.7344671201814	74	127
246.7344671201814	246.85056689342403	71	127
246.85056689342403	247.0479365079365	69	127
247.0479365079365	247.29174603174604	67	127
247.29174603174604	248.4643537414966	76	127
248.48757369614512	251.23913832199545	79	127
251.2855782312925	251.8544671201814	79	127
251.87768707482994	252.41174603174602	79	127
252.43496598639456	252.9225850340136	79	127
252.94580498866213	253.56113378684807	79	127
253.58435374149659	254.14163265306124	79	127
254.16485260770975	254.47832199546485	79	127
254.5015419501134	255.79024943310657	69	127
255.80185941043084	258.87850340136055	74	127
258.87850340136055	259.1107029478458	74	127
259.1107029478458	259.28485260770975	73	127
259.28485260770975	259.4590022675737	74	127
259.4590022675737	259.63315192743767	75	127
259.63315192743767	259.7956916099773	76	127
259.7956916099773	259.96984126984125	77	127
259.96984126984125	260.1555782312925	78	127
260.1555782312925	260.352970521542	79	127
260.352970521542	260.55034013605444	80	127
260.55034013605444	260.7244897959184	81	127
260.7244897959184	261.1308390022676	83	127
261.1308390022676	261.3746485260771	84	127
261.3746485260771	261.54879818594105	83	127
261.54879818594105	261.7461678004535	81	127
261.7461678004535	261.9087074829932	88	127
261.9087074829932	262.08285714285716	86	127
262.08285714285716	262.2453968253968	84	127
262.2453968253968	264.2655328798186	83	127
264.2655328798186	264.5557596371882	79	127
264.5557596371882	264.7415419501134	74	127
264.7415419501134	264.95052154195014	83	127
264.95052154195014	265.13628117913834	79	127
265.13628117913834	265.3336507936508	74	127
265.3336507936508	265.54263038548754	71	127
265.54263038548754	265.7748072562358	67	127
265.7748072562358	265.9373696145125	62	127
265.9373696145125	266.1115192743764	71	127
266.1115192743764	266.2856689342404	67	127
266.2740589569161	266.5875283446712	62	127
266.5875283446712	267.66725623582767	59	127
267.6904761904762	268.99079365079365	62	127
269.0140136054422	270.44204081632654	62	127
270.47687074829935	272.79886621315194	61	127
272.83367346938775	294.66045351473923	66	127
294.69528344671204	295.531179138322	67	127
295.55442176870747	299.1651247165533	65	127
295.55442176870747	299.1651247165533	62	127
308.12802721088434	308.69691609977326	59	127
308.69691609977326	308.89428571428573	67	127
308.89428571428573	309.1380952380952	69	127
309.1380952380952	309.3122448979592	71	127
309.3122448979592	309.6257142857143	69	127
309.6257142857143	309.78825396825397	67	127
309.78825396825397	310.1946031746032	74	127
310.1946031746032	310.3687528344671	72	127
310.3687528344671	310.5429024943311	71	127
310.5429024943311	310.74027210884356	77	127
310.74027210884356	310.9492517006803	74	127
310.9492517006803	311.23950113378686	72	127
311.23950113378686	313.143537414966	71	127
313.143537414966	313.41056689342406	72	127
313.41056689342406	313.7124263038549	74	127
313.7124263038549	314.2697052154195	67	127
314.2697052154195	314.5251247165533	69	127
314.5251247165533	314.8037641723356	71	127
314.82698412698414	315.395873015873	71	127
315.395873015873	315.6629024943311	72	127
315.6629024943311	316.0228117913832	74	127
316.0344217687075	316.55687074829933	74	127
316.55687074829933	316.83551020408163	72	127
316.83551020408163	317.1025170068027	71	127
317.160589569161	317.6946485260771	71	127
317.6946485260771	317.9848979591837	69	127
317.9848979591837	318.2519274376417	67	127
318.2519274376417	319.35485260770974	72	127
319.3897052154195	321.6884807256236	76	127
321.7117006802721	322.721746031746	76	127
322.7449886621315	325.0785714285714	84	127
325.1366439909297	326.3324716553288	84	127
326.3556916099773	328.16684807256235	66	127
328.16684807256235	328.4919274376417	67	127
328.4919274376417	328.74734693877554	69	127
328.74734693877554	328.9563265306123	62	127
328.9563265306123	329.1885260770975	64	127
329.1885260770975	329.38589569160996	66	127
329.38589569160996	329.5832426303855	67	127
329.5832426303855	329.7690249433107	68	127
329.7690249433107	329.9431746031746	69	127
329.9431746031746	330.1637641723356	70	127
330.1637641723356	330.3959410430839	71	127
330.3959410430839	330.5817233560091	72	127
330.5817233560091	330.755873015873	74	127
330.755873015873	330.9880725623583	71	127
330.9880725623583	331.2086394557823	72	127
331.2086394557823	331.38281179138323	74	127
331.38281179138323	331.55696145124716	71	127
331.55696145124716	331.88204081632654	72	127
331.88204081632654	332.05619047619047	74	127
332.05619047619047	332.25356009070293	71	127
332.25356009070293	332.4857596371882	72	127
332.4857596371882	332.6482766439909	76	127
332.6482766439909	332.8108390022676	75	127
332.8108390022676	333.00820861678005	74	127
333.00820861678005	334.09954648526076	72	127
334.13437641723357	335.655283446712	66	127
335.6901133786848	336.8511111111111	66	127
336.87433106575963	338.0701587301587	66	127
338.1049886621315	339.32403628117913	66	127
339.3356462585034	339.53301587301587	72	127
339.53301587301587	339.71877551020407	69	127
339.71877551020407	339.89292517006805	71	127
339.89292517006805	340.1483446712018	74	127
340.1483446712018	340.3108616780045	73	127
340.3108616780045	340.54308390022675	72	127
340.54308390022675	341.62281179138324	71	127
341.6460090702948	343.02761904761905	67	127
343.0508390022676	344.2814965986395	67	127
344.304693877551	345.3728344671202	67	127
345.3960544217687	346.7195918367347	67	127
346.74281179138325	346.98662131519274	70	127
346.98662131519274	347.1607482993197	67	127
347.1607482993197	347.33492063492065	68	127
347.33492063492065	347.5670975056689	72	127
347.5670975056689	347.7528798185941	71	127
347.7528798185941	348.101179138322	70	127
348.101179138322	349.2621768707483	68	127
349.28539682539684	350.65537414965985	65	127
350.6785941043084	351.79315192743763	65	127
351.8163718820862	352.8032199546485	63	127
352.82643990929705	354.1615873015873	63	127
354.18480725623584	354.4866666666667	69	127
354.4866666666667	354.8001360544218	65	127
354.8001360544218	354.99750566893425	67	127
354.99750566893425	355.1600453514739	70	127
355.1600453514739	355.3806349206349	69	127
355.3806349206349	355.71732426303856	67	127
355.71732426303856	356.9828117913832	65	127
356.9828117913832	357.1569614512472	58	127
357.1569614512472	357.3311111111111	60	127
357.3311111111111	357.57492063492066	62	127
357.57492063492066	357.8303401360544	60	127
357.8303401360544	358.03931972789115	58	127
358.03931972789115	358.31795918367345	65	127
358.31795918367345	358.515306122449	63	127
358.515306122449	358.72430839002266	62	127
358.72430839002266	358.9332879818594	68	127
358.9332879818594	359.16548752834467	67	127
359.16548752834467	359.3860770975057	65	127
359.3860770975057	359.6066666666667	74	127
359.6066666666667	359.93174603174606	72	127
359.93174603174606	360.1291156462585	70	127
360.1291156462585	360.34968253968253	77	127
360.34968253968253	360.55866213151927	75	127
360.55866213151927	360.75603174603174	74	127
360.75603174603174	361.0579138321996	80	127
361.0579138321996	361.30172335600906	79	127
361.30172335600906	361.61519274376417	77	127
361.61519274376417	361.7893424036281	75	127
361.7893424036281	361.9634920634921	74	127
361.9634920634921	362.40467120181404	72	127
362.40467120181404	362.9619501133787	70	127
362.98517006802723	363.53083900226756	69	127
363.57727891156463	364.11133786848075	68	127
364.1345351473923	365.34199546485263	65	127
365.36519274376417	366.7351927437642	63	127
366.7584126984127	366.9790022675737	68	127
366.9790022675737	367.1415419501134	67	127
367.1415419501134	367.28086167800456	65	127
367.28086167800456	367.46662131519275	63	127
367.46662131519275	367.7684807256236	65	127
367.7684807256236	367.9890702947846	70	127
368.0703401360544	368.314149659864	70	127
368.7088888888889	369.3358276643991	67	127
369.3358276643991	369.4867573696145	68	127
369.4867573696145	369.6260770975057	67	127
369.6260770975057	369.78861678004534	65	127
369.78861678004534	369.95115646258506	63	127
369.95115646258506	370.2065759637188	67	127
370.2065759637188	370.392335600907	65	127
370.4735827664399	370.6709523809524	65	127
371.08891156462585	371.6229931972789	63	127
371.63460317460317	371.7507029478458	68	127
371.7507029478458	371.8784126984127	67	127
371.8784126984127	372.0409523809524	65	127
372.0409523809524	372.1918820861678	63	127
372.1918820861678	372.50535147392293	72	127
372.50535147392293	372.72591836734694	75	127
372.80721088435376	373.039410430839	75	127
373.45736961451246	373.87532879818593	65	127
373.87532879818593	374.3281179138322	70	127
374.3397278911565	375.9186848072562	70	127
378.17102040816326	378.554126984127	69	127
378.554126984127	378.90244897959184	74	127
379.0185487528345	379.43650793650795	74	127
383.5348299319728	383.83668934240364	69	127
383.5348299319728	383.83668934240364	72	127
383.8482993197279	384.0340589569161	71	127
384.1037188208617	384.2314285714286	67	127
384.3126984126984	384.46362811791386	62	127
384.5448979591837	384.7190476190476	59	127
384.80031746031744	384.9164172335601	57	127
384.9976870748299	385.1253968253968	69	127
385.1950566893424	385.38081632653063	66	127
385.4504761904762	385.61301587301585	57	127
385.6710657596372	385.8103854875283	59	127
385.88004535147394	386.05419501133787	71	127
386.0890249433107	386.2051247165533	67	127
386.2631746031746	386.4489342403628	59	127
386.51859410430836	386.7043537414966	57	127
386.73918367346937	386.91333333333336	66	127
386.9946031746032	387.1223129251701	67	127
387.19197278911565	387.3545124716553	69	127
387.41256235827666	387.47061224489795	71	127
387.56349206349205	387.74925170068025	67	127
387.83052154195013	387.9350113378685	62	127
388.00467120181406	388.19043083900226	59	127
388.2600907029478	388.4458503401361	64	127
388.4922902494331	388.6548299319728	76	127
388.7128798185941	388.8521995464853	57	127
388.7128798185941	388.8521995464853	67	127
388.92185941043084	389.0379591836735	57	127
388.92185941043084	389.0379591836735	67	127
389.09600907029477	389.10761904761904	57	127
389.09600907029477	389.10761904761904	67	127
389.1772789115646	389.38625850340134	57	127
389.1772789115646	389.38625850340134	67	127
389.4326984126984	389.6300680272109	66	127
389.4326984126984	389.6300680272109	57	127
389.69972789115644	389.8738775510204	57	127
389.69972789115644	389.8738775510204	66	127
389.943537414966	390.0712471655329	67	127
389.943537414966	390.08285714285716	55	127
390.08285714285716	390.2221768707483	74	127
390.2221768707483	390.384716553288	76	127
390.384716553288	390.5240362811791	74	127
390.5240362811791	390.5704761904762	76	127
390.5704761904762	390.59369614512474	74	127
390.59369614512474	390.73301587301586	76	127
390.73301587301586	390.82589569160996	78	127
390.82589569160996	390.96521541950113	79	127
390.96521541950113	391.09292517006804	78	127
391.09292517006804	391.1974149659864	79	127
391.1974149659864	391.3019047619048	81	127
391.3019047619048	391.4412244897959	83	127
391.4412244897959	391.53410430839	81	127
391.53410430839	391.6734240362812	84	127
391.6734240362812	391.7663038548753	83	127
391.7663038548753	391.8824036281179	81	127
391.8824036281179	391.9868934240363	80	127
391.9868934240363	392.09138321995465	81	127
392.09138321995465	392.2074829931973	83	127
392.2074829931973	392.3351927437642	84	127
392.3351927437642	392.4745124716553	83	127
392.4745124716553	392.59061224489795	86	127
392.59061224489795	392.71832199546486	84	127
392.71832199546486	392.857641723356	83	127
392.857641723356	392.9273015873016	78	127
392.9273015873016	393.0201814058957	79	127
393.0201814058957	393.1478911564626	81	127
393.1478911564626	393.2872108843537	83	127
393.2872108843537	393.3917006802721	79	127
393.3917006802721	393.50780045351473	84	127
393.50780045351473	393.62390022675737	83	127
393.62390022675737	393.72839002267574	81	127
393.72839002267574	393.85609977324265	79	127
393.85609977324265	393.9721995464853	78	127
393.9721995464853	394.08829931972787	76	127
394.08829931972787	394.19278911564624	74	127
394.19278911564624	394.32049886621314	72	127
394.32049886621314	394.4365986394558	71	127
394.4365986394558	394.5643083900227	69	127
394.5643083900227	394.6571882086168	67	127
394.6571882086168	394.7848979591837	66	127
394.7848979591837	394.91260770975055	67	127
394.91260770975055	394.99387755102043	69	127
394.99387755102043	395.07514739229026	71	127
395.07514739229026	395.2144671201814	69	127
395.2144671201814	395.35378684807256	72	127
395.35378684807256	395.4698866213152	71	127
395.4698866213152	395.5975963718821	76	127
395.5975963718821	395.66725623582767	75	127
395.66725623582767	395.7949659863946	78	127
395.7949659863946	395.89945578231294	76	127
395.89945578231294	396.0271655328798	79	127
396.0271655328798	396.1548752834467	78	127
396.1548752834467	396.23614512471653	81	127
396.23614512471653	396.3754648526077	79	127
396.3754648526077	396.4799546485261	74	127
396.4799546485261	396.58444444444444	73	127
396.58444444444444	396.7237641723356	76	127
396.7237641723356	396.86308390022674	74	127
396.86308390022674	396.9211337868481	86	127
396.9211337868481	396.95596371882084	85	127
396.95596371882084	397.0720634920635	88	127
397.0720634920635	397.1997732426304	86	127
397.1997732426304	397.44358276643993	83	127
397.44358276643993	397.65256235827667	62	127
397.7338321995465	397.8615419501134	62	127
397.93120181405897	398.11696145124716	62	127
398.1866213151927	398.3839909297052	61	127
398.4536507936508	398.6510204081633	64	127
398.70907029478457	398.89482993197277	61	127
398.9644897959184	399.1154195011338	58	127
399.1850793650794	399.34761904761905	63	127
399.44049886621315	399.56820861678005	66	127
399.62625850340135	399.80040816326533	63	127
399.8584580498866	400.00938775510207	63	127
400.0906575963719	400.25319727891156	61	127
400.3228571428571	400.52022675736964	64	127
400.57827664399093	400.7408163265306	61	127
400.78725623582767	400.9614058956916	58	127
401.0310657596372	401.2168253968254	63	127
401.2400453514739	401.4141950113379	66	127
401.4722448979592	401.5999546485261	62	127
401.66961451247164	401.85537414965984	59	127
401.66961451247164	401.85537414965984	62	127
401.9134240362812	402.07596371882084	59	127
401.9134240362812	402.07596371882084	62	127
402.15723356009073	402.3197732426304	65	127
402.3778231292517	402.5403628117914	62	127
402.6216326530612	402.7841723356009	55	127
402.6216326530612	402.7841723356009	65	127
402.8538321995465	403.02798185941043	55	127
402.8538321995465	403.02798185941043	64	127
403.097641723356	403.2253514739229	64	127
403.30662131519273	403.5039909297052	60	127
403.5736507936508	403.71297052154193	60	127
403.5736507936508	403.71297052154193	64	127
403.759410430839	403.98	60	127
403.759410430839	403.98	66	127
404.0496598639456	404.2238095238095	57	127
404.0496598639456	404.2238095238095	66	127
404.2934693877551	404.43278911564624	57	127
404.2934693877551	404.43278911564624	66	127
404.4908390022676	404.641768707483	60	127
404.4908390022676	404.641768707483	66	127
404.68820861678006	404.93201814058955	59	127
404.68820861678006	404.93201814058955	67	127
404.93201814058955	405.01328798185943	71	127
405.01328798185943	405.1409977324263	70	127
405.1409977324263	405.2687074829932	71	127
405.2687074829932	405.40802721088437	73	127
405.40802721088437	405.5357369614512	71	127
405.5357369614512	405.66344671201813	73	127
405.66344671201813	405.7679365079365	70	127
405.7679365079365	405.87242630385487	71	127
405.87242630385487	406.01174603174604	73	127
406.01174603174604	406.15106575963716	71	127
406.15106575963716	406.2671655328798	73	127
406.2671655328798	406.32521541950115	75	127
406.32521541950115	406.46453514739227	76	127
406.46453514739227	406.60385487528345	73	127
406.60385487528345	406.69673469387754	71	127
406.69673469387754	406.8012244897959	73	127
406.8012244897959	406.9289342403628	75	127
406.9289342403628	407.05664399092973	73	127
407.05664399092973	407.19596371882085	75	127
407.19596371882085	407.335283446712	76	127
407.335283446712	407.47460317460315	78	127
407.47460317460315	407.6139229024943	71	127
407.6139229024943	407.73002267573696	70	127
407.73002267573696	407.7996825396825	71	127
407.7996825396825	407.9390022675737	73	127
407.9390022675737	408.0783219954649	71	127
408.0783219954649	408.171201814059	73	127
408.171201814059	408.2524716553288	75	127
408.2524716553288	408.39179138322	76	127
408.39179138322	408.51950113378683	70	127
408.51950113378683	408.63560090702947	71	127
408.63560090702947	408.7517006802721	73	127
408.7517006802721	408.8561904761905	75	127
408.8561904761905	408.9722902494331	76	127
408.9722902494331	409.1	78	127
409.1	409.2160997732426	70	127
409.2160997732426	409.33219954648524	71	127
409.33219954648524	409.4715192743764	70	127
409.4715192743764	409.5760090702948	71	127
409.5760090702948	409.6921088435374	72	127
409.6921088435374	409.80820861678006	74	127
409.80820861678006	409.91269841269843	76	127
409.91269841269843	410.02879818594107	77	127
410.02879818594107	410.1565079365079	79	127
410.1565079365079	410.2609977324263	81	127
410.2609977324263	410.3770975056689	83	127
410.3770975056689	410.50480725623584	84	127
410.50480725623584	410.63251700680274	83	127
410.63251700680274	410.7486167800453	84	127
410.7486167800453	410.8414965986395	86	127
410.8414965986395	410.9808163265306	87	127
410.9808163265306	411.08530612244897	88	127
411.08530612244897	411.2130158730159	75	127
411.2130158730159	411.35233560090705	76	127
411.35233560090705	411.4916553287982	69	127
411.4916553287982	411.6077551020408	68	127
411.6077551020408	411.7354648526077	71	127
411.7354648526077	411.87478458049884	69	127
411.87478458049884	411.94444444444446	74	127
411.94444444444446	412.03732426303856	73	127
412.03732426303856	412.17664399092973	76	127
412.17664399092973	412.31596371882085	74	127
412.31596371882085	412.6178231292517	67	127
412.62943310657596	414.1967800453515	67	127
414.1967800453515	414.4289795918367	67	127
414.4289795918367	416.2633560090703	67	127
416.2633560090703	416.65809523809526	67	127
416.65809523809526	417.1457142857143	67	127
417.1457142857143	417.37791383219957	67	127
417.37791383219957	417.6101133786848	66	127
417.6101133786848	417.8190929705215	60	127
417.8307029478458	418.1093424036281	59	127
418.12095238095236	418.38798185941044	79	127
418.38798185941044	418.5621315192744	78	127
418.5621315192744	418.7827210884354	79	127
418.79433106575965	419.0497505668934	75	127
419.0497505668934	419.25873015873015	76	127
419.25873015873015	419.5025396825397	71	127
419.5025396825397	419.7463492063492	72	127
419.7463492063492	420.01337868480726	74	127
420.01337868480726	420.21074829931973	79	127
420.21074829931973	420.43133786848074	78	127
420.43133786848074	420.66353741496596	79	127
420.66353741496596	420.9073469387755	75	127
420.9073469387755	421.1395464852608	76	127
421.1395464852608	421.39496598639454	71	127
421.39496598639454	421.6039455782313	72	127
421.6039455782313	421.87097505668936	74	127
421.87097505668936	422.0799546485261	77	127
422.0799546485261	422.33537414965986	76	127
422.33537414965986	422.61401360544215	72	127
422.61401360544215	422.915873015873	71	127
422.915873015873	423.1829024943311	74	127
423.1829024943311	423.56603174603174	62	127
423.56603174603174	424.2045804988662	66	127
432.6102040816327	432.8772335600907	67	127
432.8772335600907	433.07460317460317	72	127
433.07460317460317	433.35324263038547	70	127
433.35324263038547	433.62027210884355	69	127
433.62027210884355	433.7828117913832	68	127
433.7828117913832	434.0150113378685	69	127
434.0150113378685	434.5490702947846	74	127
434.56068027210887	434.85092970521544	71	127
434.85092970521544	435.08312925170065	72	127
435.08312925170065	435.2688888888889	70	127
435.2688888888889	435.50108843537413	69	127
435.50108843537413	435.7681179138322	73	127
435.7681179138322	436.0467573696145	74	127
436.0467573696145	436.3253968253968	72	127
436.3253968253968	437.2425850340136	71	127
437.25419501133786	437.7418140589569	72	127
437.75342403628116	438.24104308390025	73	127
438.24104308390025	438.9144217687075	74	127
438.9144217687075	439.46009070294787	79	127
439.46009070294787	439.7155102040816	79	127
439.7155102040816	439.97092970521544	77	127
439.9825396825397	440.3540589569161	77	127
440.3656689342404	440.6791383219955	75	127
440.6791383219955	440.9461678004535	68	127
440.9461678004535	441.24802721088435	67	127
441.24802721088435	441.364126984127	65	127
441.364126984127	441.631156462585	63	127
441.631156462585	441.90979591836737	65	127
441.90979591836737	442.10716553287983	62	127
442.10716553287983	442.40902494331067	67	127
442.42063492063494	442.7108843537415	60	127
442.7224943310658	443.2101133786848	60	127
443.2217233560091	443.60485260770974	69	127
443.616462585034	444.35950113378686	62	127
444.35950113378686	444.60331065759635	62	127
444.60331065759635	444.87034013605444	67	127
444.87034013605444	445.09092970521544	65	127
445.09092970521544	445.3579591836735	63	127
445.3579591836735	445.601768707483	62	127
445.601768707483	445.8455782312925	63	127
445.8455782312925	446.1009977324263	68	127
446.1126077097506	446.58861678004536	68	127
446.6002267573696	447.08784580498866	65	127
447.08784580498866	447.50580498866213	67	127
447.50580498866213	447.7960544217687	58	127
447.7960544217687	448.13274376417235	67	127
448.13274376417235	448.44621315192745	66	127
448.44621315192745	448.69002267573694	72	127
448.69002267573694	448.85256235827666	70	127
448.85256235827666	449.13120181405895	67	127
449.13120181405895	449.38662131519277	66	127
449.38662131519277	449.66526077097507	72	127
449.66526077097507	449.85102040816327	70	127
449.85102040816327	450.0948299319728	67	127
450.0948299319728	450.3850793650794	66	127
450.3850793650794	450.6056689342404	67	127
450.6056689342404	450.86108843537414	69	127
450.86108843537414	451.1048979591837	71	127
451.1048979591837	451.3719274376417	72	127
451.3719274376417	451.61573696145126	74	127
451.62734693877553	451.85954648526075	74	127
451.85954648526075	452.0685260770975	60	127
451.85954648526075	452.0685260770975	66	127
452.08013605442176	453.0553741496599	59	127
452.08013605442176	453.0553741496599	67	127
453.0553741496599	454.03061224489795	62	127
453.0553741496599	454.03061224489795	69	127
454.0422222222222	454.5530612244898	62	127
454.0422222222222	455.1451700680272	71	127
454.5530612244898	455.1451700680272	67	127
455.15678004535147	455.3773696145125	66	127
455.15678004535147	455.3773696145125	69	127
455.38897959183674	455.6560090702948	66	127
455.38897959183674	455.92303854875286	69	127
455.66761904761904	455.92303854875286	60	127
455.93464852607707	456.9098866213152	67	127
455.93464852607707	456.9098866213152	59	127
456.92149659863946	457.827074829932	67	127
456.92149659863946	457.827074829932	69	127
457.827074829932	458.37274376417236	66	127
457.827074829932	458.37274376417236	69	127
458.3843537414966	458.83714285714285	57	127
458.3843537414966	458.83714285714285	66	127
458.8487528344671	459.11578231292515	59	127
458.8487528344671	459.11578231292515	67	127
459.1273922902494	459.64984126984126	71	127
459.64984126984126	459.8936507936508	83	127
459.8936507936508	460.2767800453515	82	127
460.28839002267574	460.4277097505669	83	127
460.4277097505669	460.55541950113377	82	127
460.55541950113377	460.7063492063492	80	127
460.7063492063492	460.84566893424034	78	127
460.84566893424034	461.13591836734696	78	127
461.13591836734696	461.3448979591837	83	127
461.41455782312926	461.60031746031746	83	127
461.92539682539683	462.0879365079365	82	127
462.0879365079365	462.1575963718821	83	127
462.1575963718821	462.2969160997732	85	127
462.2969160997732	462.4362358276644	83	127
462.4362358276644	462.5639455782313	82	127
462.5639455782313	462.7148752834467	80	127
462.7148752834467	462.8541950113379	78	127
462.8541950113379	463.09800453514737	78	127
463.09800453514737	463.2837641723356	83	127
463.36503401360545	463.55079365079365	83	127
463.86426303854876	464.0732426303855	83	127
464.0732426303855	464.17773242630386	84	127
464.17773242630386	464.31705215419504	86	127
464.31705215419504	464.4447619047619	84	127
464.4447619047619	464.58408163265307	83	127
464.58408163265307	464.73501133786846	81	127
464.73501133786846	464.8511111111111	79	127
464.86272108843536	465.14136054421766	84	127
465.14136054421766	465.31551020408165	88	127
465.3967800453515	465.5709297052154	88	127
465.9308390022676	466.2094784580499	81	127
466.2094784580499	466.37201814058955	86	127
466.40684807256235	466.62743764172336	86	127
466.94090702947847	467.2079365079365	83	127
467.2079365079365	467.40530612244896	86	127
467.48657596371885	467.71877551020407	86	127
468.1599546485261	468.22961451247164	89	127
468.22961451247164	468.3689342403628	88	127
468.3689342403628	468.508253968254	86	127
468.508253968254	468.63596371882085	84	127
468.63596371882085	468.76367346938775	83	127
468.76367346938775	468.8797732426304	81	127
468.8797732426304	468.9726530612245	79	127
468.9726530612245	469.11197278911567	77	127
469.11197278911567	469.2396825396825	76	127
469.2396825396825	469.3790022675737	74	127
469.3790022675737	469.48349206349206	72	127
469.48349206349206	469.611201814059	71	127
469.611201814059	469.7273015873016	69	127
469.7273015873016	469.8201814058957	67	127
469.8201814058957	469.94789115646256	65	127
469.94789115646256	470.08721088435374	64	127
470.08721088435374	470.2497505668934	66	127
470.2497505668934	470.3890702947846	67	127
470.3890702947846	470.52839002267575	69	127
470.52839002267575	470.6444897959184	71	127
470.6444897959184	470.7838095238095	72	127
470.7838095238095	470.8882993197279	74	127
470.8882993197279	471.0160090702948	76	127
471.0160090702948	471.15532879818596	78	127
471.15532879818596	471.2946485260771	79	127
471.2946485260771	471.422358276644	81	127
471.422358276644	471.56167800453517	83	127
471.56167800453517	471.689387755102	84	127
471.689387755102	471.84031746031746	86	127
471.84031746031746	471.97963718820864	88	127
471.97963718820864	472.11895691609976	90	127
472.11895691609976	472.24666666666667	91	127
472.24666666666667	472.38598639455785	86	127
472.38598639455785	472.47886621315195	84	127
472.47886621315195	472.5949659863946	83	127
472.5949659863946	472.7342857142857	81	127
472.7342857142857	472.8736054421769	79	127
472.8736054421769	473.012925170068	77	127
473.012925170068	473.11741496598637	76	127
473.11741496598637	473.19868480725626	74	127
473.19868480725626	473.3380045351474	72	127
473.3380045351474	473.4657142857143	71	127
473.4657142857143	473.5818140589569	69	127
473.5818140589569	473.674693877551	67	127
473.674693877551	473.8140136054422	65	127
473.8140136054422	473.9301133786848	64	127
473.9301133786848	474.01138321995467	62	127
474.01138321995467	474.1507029478458	60	127
474.1507029478458	474.2784126984127	57	127
474.2784126984127	474.4061224489796	59	127
474.4061224489796	474.5454421768707	60	127
474.5454421768707	474.6847619047619	62	127
474.6847619047619	474.8240816326531	64	127
474.8240816326531	474.9401814058957	66	127
474.9401814058957	475.06789115646257	67	127
475.06789115646257	475.20721088435374	69	127
475.20721088435374	475.33492063492065	71	127
475.3465306122449	475.48585034013604	71	127
475.48585034013604	475.6019501133787	72	127
475.6019501133787	475.6948299319728	69	127
475.6948299319728	475.7528798185941	71	127
475.7528798185941	475.880589569161	72	127
475.880589569161	476.01990929705215	74	127
476.01990929705215	476.1824489795918	73	127
476.1824489795918	476.27532879818597	74	127
476.27532879818597	476.4146485260771	79	127
476.4146485260771	476.55396825396826	81	127
476.55396825396826	476.6932879818594	78	127
476.6932879818594	476.83260770975056	79	127
476.83260770975056	476.9487074829932	83	127
476.9487074829932	477.0415873015873	84	127
477.0415873015873	477.1809070294785	81	127
477.1809070294785	477.3202267573696	83	127
477.3202267573696	477.4595464852608	86	127
477.4595464852608	477.5872562358277	88	127
477.5872562358277	477.7033560090703	85	127
477.7033560090703	477.9007256235828	86	127
477.9819954648526	478.1677551020408	91	127
478.24902494331064	478.4463945578231	95	127
478.527664399093	478.57410430839	98	127
478.8875736961451	479.09655328798186	57	127
478.8875736961451	479.09655328798186	66	127
479.1662131519274	479.46807256235826	59	127
479.1662131519274	479.46807256235826	67	127
483.7637641723356	484.4719727891156	71	127
484.4719727891156	485.5168707482993	70	127
485.5284807256236	486.09736961451244	71	127
486.09736961451244	486.4340589569161	70	127
486.4340589569161	486.7126984126984	68	127
486.7126984126984	487.0609977324263	66	127
487.07260770975057	487.5950566893424	66	127
487.5950566893424	487.95496598639454	71	127
488.0942857142857	488.5586848072562	71	127
493.88766439909296	494.3636734693878	71	127
494.3636734693878	494.61909297052154	72	127
494.61909297052154	494.87451247165535	74	127
494.87451247165535	495.15315192743765	72	127
495.15315192743765	495.3969614512472	71	127
495.3969614512472	495.68721088435376	69	127
495.68721088435376	496.02390022675735	67	127
496.02390022675735	496.5347392290249	72	127
496.5347392290249	496.8946485260771	76	127
497.0455782312925	497.47514739229024	76	127
500.4705215419501	500.90009070294786	71	127
500.90009070294786	501.27160997732426	74	127
501.4225396825397	501.8056689342404	74	127
504.7546031746032	505.17256235827665	71	127
505.17256235827665	505.5556916099773	74	127
505.70662131519276	506.07814058956916	74	127
507.90090702947845	508.48140589569164	69	127
508.48140589569164	509.02707482993196	74	127
510.3273922902494	511.1865306122449	71	127
511.1865306122449	511.88312925170067	74	127
511.88312925170067	512.1385487528345	69	127
511.88312925170067	512.1385487528345	66	127
512.2082086167801	512.4055782312926	69	127
512.2082086167801	512.4055782312926	66	127
512.4636281179138	512.6609977324263	67	127
512.4636281179138	512.6609977324263	71	127
512.7306575963719	512.8351247165533	67	127
512.7306575963719	512.8351247165533	71	127
512.9048072562358	513.0673469387755	69	127
512.9048072562358	513.0673469387755	66	127
513.1370068027211	513.3343764172336	66	127
513.1370068027211	513.3343764172336	69	127
513.4040362811792	513.5549659863946	67	127
513.4040362811792	513.5549659863946	71	127
513.6246258503402	513.7987755102041	67	127
513.6246258503402	513.7987755102041	71	127
513.8684126984127	514.0657823129252	69	127
513.8684126984127	514.0657823129252	66	127
514.1354648526077	514.3328344671202	69	127
514.1354648526077	514.3328344671202	66	127
514.4024943310658	514.588253968254	67	127
514.4024943310658	514.588253968254	71	127
514.6579138321996	514.8552834467121	67	127
514.6579138321996	514.8552834467121	71	127
514.9481632653061	515.1455328798186	78	127
514.9481632653061	515.1455328798186	69	127
515.2151927437642	515.4822222222223	69	127
515.2151927437642	515.4822222222223	78	127
515.6215419501134	516.0627210884354	71	127
515.6215419501134	516.0627210884354	55	127
515.6215419501134	516.0627210884354	62	127
515.6215419501134	516.0627210884354	79	127
