# onset,offset,note,velocity
0.10371882086167801	0.7770975056689342	79	127
0.10371882086167801	0.4868480725623583	43	127
0.4868480725623583	0.7770975056689342	50	127
0.7770975056689342	0.9512471655328798	84	127
0.7770975056689342	1.0905668934240362	55	127
0.9512471655328798	1.0905668934240362	83	127
1.0905668934240362	1.4040362811791383	50	127
1.0905668934240362	1.2414965986394557	81	127
1.2414965986394557	1.4040362811791383	79	127
1.4040362811791383	1.7523356009070294	81	127
1.4040362811791383	1.7523356009070294	54	127
1.7523356009070294	2.0774149659863945	86	127
1.7523356009070294	2.0774149659863945	50	127
2.0774149659863945	2.3676643990929707	86	127
2.0774149659863945	2.3676643990929707	42	127
2.3676643990929707	2.6579138321995464	50	127
2.6695238095238096	2.9481632653061225	43	127
2.6695238095238096	3.2268027210884354	83	127
2.9597732426303853	3.2268027210884354	50	127
3.2384126984126986	3.366122448979592	84	127
3.2384126984126986	3.505442176870748	55	127
3.377732426303855	3.505442176870748	83	127
3.5170521541950115	3.644761904761905	81	127
3.5170521541950115	3.7724716553287982	50	127
3.6563718820861677	3.7724716553287982	79	127
3.7724716553287982	4.027891156462585	83	127
3.7724716553287982	4.027891156462585	50	127
4.039501133786848	4.341360544217687	50	127
4.039501133786848	4.341360544217687	81	127
4.35297052154195	4.608390022675737	38	127
4.35297052154195	4.608390022675737	81	127
4.608390022675737	4.8986167800453515	48	127
4.608390022675737	4.8986167800453515	50	127
4.8986167800453515	5.223718820861678	43	127
4.8986167800453515	5.223718820861678	47	127
4.8986167800453515	5.223718820861678	50	127
4.8986167800453515	5.502358276643991	79	127
5.223718820861678	5.502358276643991	50	127
5.502358276643991	5.641678004535147	84	127
5.502358276643991	5.780997732426304	55	127
5.641678004535147	5.780997732426304	83	127
5.780997732426304	6.082857142857143	43	127
5.780997732426304	5.943537414965986	81	127
5.943537414965986	6.082857142857143	79	127
6.082857142857143	6.384716553287982	88	127
6.082857142857143	6.384716553287982	48	127
6.384716553287982	6.733015873015873	36	127
6.384716553287982	6.733015873015873	91	127
6.744625850340136	7.011655328798186	91	127
6.744625850340136	7.011655328798186	36	127
7.023265306122449	7.267074829931973	48	127
7.278684807256236	7.545714285714285	50	127
7.278684807256236	7.545714285714285	81	127
7.557324263038549	7.824353741496599	86	127
7.557324263038549	7.824353741496599	50	127
7.835963718820862	8.114603174603175	86	127
7.835963718820862	8.114603174603175	38	127
8.126213151927438	8.370022675736962	50	127
8.370022675736962	8.683492063492064	55	127
8.370022675736962	8.683492063492064	83	127
8.370022675736962	8.683492063492064	43	127
8.695102040816327	9.020181405895691	74	127
8.695102040816327	9.345238095238095	59	127
9.020181405895691	9.345238095238095	76	127
9.345238095238095	9.763219954648527	78	127
9.345238095238095	9.763219954648527	57	127
9.77482993197279	10.343718820861678	79	127
9.77482993197279	10.053469387755102	55	127
9.77482993197279	10.053469387755102	59	127
10.065079365079365	10.343718820861678	50	127
10.35532879818594	10.633968253968254	59	127
10.35532879818594	10.633968253968254	55	127
10.35532879818594	10.483038548752834	84	127
10.494648526077098	10.633968253968254	83	127
10.645555555555555	10.959047619047618	50	127
10.645555555555555	10.773265306122449	81	127
10.784897959183674	10.959047619047618	79	127
10.970657596371883	11.249274376417233	54	127
10.970657596371883	11.249274376417233	81	127
10.970657596371883	11.249274376417233	60	127
11.260907029478458	11.539546485260772	50	127
11.260907029478458	11.539546485260772	86	127
11.539546485260772	11.818163265306122	60	127
11.539546485260772	11.818163265306122	54	127
11.539546485260772	11.818163265306122	86	127
11.818163265306122	12.154875283446712	50	127
12.154875283446712	12.700544217687074	83	127
12.154875283446712	12.456734693877552	55	127
12.154875283446712	12.456734693877552	59	127
12.456734693877552	12.700544217687074	50	127
12.700544217687074	12.851473922902494	84	127
12.700544217687074	12.99079365079365	55	127
12.700544217687074	12.99079365079365	59	127
12.851473922902494	12.99079365079365	83	127
12.99079365079365	13.315873015873017	50	127
12.99079365079365	13.153333333333334	81	127
13.153333333333334	13.315873015873017	79	127
13.315873015873017	13.571292517006803	54	127
13.315873015873017	13.571292517006803	83	127
13.315873015873017	13.571292517006803	60	127
13.582902494331066	13.884761904761906	50	127
13.582902494331066	13.884761904761906	81	127
13.90798185941043	14.20984126984127	60	127
13.90798185941043	14.20984126984127	54	127
13.90798185941043	14.20984126984127	81	127
14.221451247165533	14.488480725623583	50	127
14.500090702947846	15.034149659863946	79	127
14.500090702947846	14.755510204081633	59	127
14.500090702947846	14.755510204081633	55	127
14.767120181405895	15.034149659863946	43	127
15.045759637188208	15.31278911564626	55	127
15.045759637188208	15.31278911564626	59	127
15.045759637188208	15.150249433106575	84	127
15.16185941043084	15.31278911564626	83	127
15.324399092970522	15.66108843537415	52	127
15.324399092970522	15.51015873015873	81	127
15.51015873015873	15.66108843537415	79	127
15.66108843537415	15.97455782312925	55	127
15.66108843537415	15.97455782312925	88	127
15.66108843537415	15.97455782312925	57	127
15.97455782312925	16.253197278911564	91	127
15.97455782312925	16.253197278911564	48	127
16.253197278911564	16.520226757369613	55	127
16.253197278911564	16.520226757369613	91	127
16.253197278911564	16.520226757369613	52	127
16.253197278911564	16.520226757369613	57	127
16.520226757369613	16.88013605442177	49	127
16.88013605442177	17.18199546485261	57	127
16.88013605442177	17.18199546485261	81	127
16.88013605442177	17.18199546485261	54	127
17.18199546485261	17.449024943310658	50	127
17.18199546485261	17.449024943310658	86	127
17.449024943310658	17.704444444444444	60	127
17.449024943310658	17.704444444444444	54	127
17.449024943310658	17.704444444444444	86	127
17.716054421768707	17.994693877551022	50	127
18.006303854875284	18.94671201814059	83	127
18.006303854875284	18.34299319727891	59	127
18.006303854875284	18.34299319727891	55	127
18.34299319727891	18.63324263038549	43	127
18.34299319727891	18.63324263038549	55	127
18.64485260770975	18.94671201814059	42	127
18.64485260770975	18.94671201814059	54	127
18.94671201814059	19.306621315192743	41	127
18.94671201814059	19.306621315192743	83	127
18.94671201814059	19.306621315192743	53	127
19.306621315192743	19.98	82	127
19.306621315192743	19.654920634920636	42	127
19.306621315192743	19.654920634920636	54	127
19.654920634920636	19.98	54	127
19.98	20.154149659863947	83	127
19.98	20.316689342403627	42	127
20.154149659863947	20.316689342403627	82	127
20.316689342403627	20.537278911564627	54	127
20.316689342403627	20.409569160997734	80	127
20.409569160997734	20.537278911564627	78	127
20.537278911564627	20.839115646258502	42	127
20.537278911564627	20.839115646258502	78	127
20.85074829931973	21.12938775510204	54	127
20.85074829931973	21.12938775510204	83	127
21.140997732426303	21.43124716553288	83	127
21.140997732426303	21.43124716553288	42	127
21.442857142857143	21.709886621315192	54	127
21.721496598639455	22.00013605442177	42	127
21.721496598639455	22.00013605442177	82	127
22.011746031746032	22.26716553287982	54	127
22.011746031746032	22.127845804988663	83	127
22.139455782312925	22.26716553287982	85	127
22.27877551020408	22.557414965986396	42	127
22.27877551020408	22.406485260770975	83	127
22.418095238095237	22.557414965986396	82	127
22.557414965986396	22.836054421768708	54	127
22.557414965986396	22.696734693877552	80	127
22.696734693877552	22.836054421768708	78	127
22.836054421768708	23.137913832199548	78	127
22.836054421768708	23.137913832199548	42	127
23.137913832199548	23.393333333333334	83	127
23.137913832199548	23.393333333333334	54	127
23.393333333333334	23.671972789115646	83	127
23.393333333333334	23.671972789115646	42	127
23.671972789115646	23.950612244897957	54	127
23.950612244897957	24.26408163265306	83	127
23.950612244897957	24.26408163265306	43	127
24.26408163265306	24.519501133786846	50	127
24.26408163265306	24.40340136054422	84	127
24.40340136054422	24.519501133786846	86	127
24.531111111111112	24.658820861678006	84	127
24.531111111111112	24.7865306122449	55	127
24.670430839002268	24.7865306122449	83	127
24.7865306122449	24.902630385487527	81	127
24.7865306122449	25.041950113378686	43	127
24.7865306122449	25.041950113378686	55	127
24.914240362811793	25.041950113378686	79	127
25.05356009070295	25.33219954648526	36	127
25.05356009070295	25.33219954648526	84	127
25.05356009070295	25.33219954648526	48	127
25.343809523809522	25.645668934240362	36	127
25.343809523809522	25.645668934240362	88	127
25.657278911564624	25.947528344671202	36	127
25.657278911564624	25.947528344671202	88	127
25.947528344671202	26.21455782312925	48	127
26.226167800453513	26.493197278911566	50	127
26.226167800453513	26.493197278911566	81	127
26.493197278911566	26.795056689342402	86	127
26.493197278911566	26.795056689342402	38	127
26.795056689342402	27.096916099773242	86	127
26.795056689342402	27.096916099773242	38	127
27.096916099773242	27.35233560090703	50	127
27.35233560090703	27.630975056689344	43	127
27.35233560090703	28.292743764172336	83	127
27.642585034013607	27.979274376417234	55	127
27.990884353741496	28.292743764172336	54	127
28.304353741496598	28.594603174603176	83	127
28.304353741496598	28.594603174603176	62	127
28.304353741496598	28.594603174603176	53	127
28.641043083900225	29.209931972789114	82	127
28.641043083900225	28.942902494331065	61	127
28.641043083900225	28.942902494331065	54	127
28.954512471655327	29.209931972789114	54	127
29.22154195011338	29.511791383219954	61	127
29.22154195011338	29.360861678004536	83	127
29.22154195011338	29.511791383219954	64	127
29.360861678004536	29.511791383219954	82	127
29.511791383219954	29.813650793650794	54	127
29.511791383219954	29.674331065759638	80	127
29.674331065759638	29.813650793650794	78	127
29.813650793650794	30.092290249433105	78	127
29.813650793650794	30.092290249433105	63	127
29.813650793650794	30.092290249433105	59	127
30.092290249433105	30.41736961451247	83	127
30.092290249433105	30.41736961451247	54	127
30.41736961451247	30.672789115646257	83	127
30.41736961451247	30.672789115646257	59	127
30.41736961451247	30.672789115646257	63	127
30.672789115646257	30.98625850340136	54	127
30.98625850340136	31.276507936507937	82	127
30.98625850340136	31.276507936507937	64	127
30.98625850340136	31.276507936507937	61	127
31.276507936507937	31.392607709750568	83	127
31.276507936507937	31.52031746031746	54	127
31.40421768707483	31.52031746031746	85	127
31.531927437641723	31.648027210884354	83	127
31.531927437641723	31.78734693877551	61	127
31.531927437641723	31.78734693877551	64	127
31.659637188208617	31.78734693877551	82	127
31.798956916099772	32.112426303854875	54	127
31.798956916099772	31.926666666666666	80	127
31.996326530612244	32.112426303854875	78	127
32.12403628117914	32.379455782312924	63	127
32.12403628117914	32.379455782312924	59	127
32.12403628117914	32.379455782312924	78	127
32.391065759637186	32.65807256235828	83	127
32.391065759637186	32.65807256235828	54	127
32.66968253968254	32.92510204081633	83	127
32.66968253968254	32.92510204081633	62	127
32.66968253968254	32.92510204081633	59	127
32.936734693877554	33.22698412698413	54	127
33.22698412698413	33.50562358276644	55	127
33.22698412698413	33.50562358276644	83	127
33.50562358276644	33.78426303854875	66	127
33.50562358276644	33.644943310657595	84	127
33.50562358276644	33.78426303854875	62	127
33.644943310657595	33.78426303854875	86	127
33.78426303854875	33.93517006802721	84	127
33.78426303854875	34.10934240362812	62	127
33.78426303854875	34.10934240362812	66	127
33.93517006802721	34.10934240362812	83	127
34.10934240362812	34.38798185941043	55	127
34.10934240362812	34.26027210884354	81	127
34.26027210884354	34.38798185941043	79	127
34.38798185941043	34.68981859410431	84	127
34.38798185941043	34.68981859410431	64	127
34.38798185941043	34.68981859410431	60	127
34.68981859410431	34.95684807256236	88	127
34.68981859410431	34.95684807256236	55	127
34.95684807256236	35.281950113378684	88	127
34.95684807256236	35.281950113378684	60	127
34.95684807256236	35.281950113378684	55	127
35.29356009070295	35.53736961451247	48	127
35.54897959183673	35.827619047619045	81	127
35.54897959183673	35.827619047619045	60	127
35.54897959183673	35.827619047619045	54	127
35.83920634920635	36.12947845804989	86	127
35.83920634920635	36.12947845804989	50	127
36.14108843537415	36.44294784580499	54	127
36.14108843537415	36.44294784580499	86	127
36.14108843537415	36.44294784580499	60	127
36.45455782312925	36.73319727891157	50	127
36.75641723356009	37.313696145124716	83	127
36.75641723356009	37.313696145124716	55	127
36.75641723356009	37.313696145124716	59	127
38.25408163265306	38.614013605442175	62	127
38.25408163265306	38.614013605442175	67	127
38.25408163265306	38.614013605442175	55	127
38.614013605442175	38.950702947845805	63	127
38.614013605442175	38.950702947845805	69	127
38.614013605442175	38.950702947845805	54	127
38.97392290249433	39.31061224489796	62	127
38.97392290249433	39.31061224489796	67	127
38.97392290249433	39.31061224489796	55	127
39.31061224489796	39.600861678004534	62	127
39.31061224489796	39.600861678004534	66	127
39.31061224489796	39.600861678004534	50	127
39.600861678004534	39.86789115646258	74	127
39.600861678004534	39.86789115646258	86	127
39.600861678004534	39.86789115646258	62	127
39.600861678004534	39.86789115646258	66	127
39.86789115646258	40.18136054421769	73	127
39.86789115646258	40.18136054421769	85	127
39.86789115646258	40.18136054421769	64	127
39.86789115646258	40.18136054421769	67	127
40.18136054421769	40.49482993197279	74	127
40.18136054421769	40.49482993197279	86	127
40.18136054421769	40.49482993197279	66	127
40.18136054421769	40.49482993197279	69	127
40.49482993197279	40.7734693877551	74	127
40.49482993197279	40.7734693877551	83	127
40.49482993197279	40.7734693877551	71	127
40.49482993197279	40.7734693877551	67	127
40.785056689342404	41.07532879818594	79	127
40.785056689342404	41.07532879818594	83	127
40.785056689342404	41.07532879818594	64	127
40.785056689342404	41.07532879818594	67	127
41.086938775510205	41.36557823129252	81	127
41.086938775510205	41.36557823129252	84	127
41.086938775510205	41.36557823129252	60	127
41.086938775510205	41.36557823129252	64	127
41.36557823129252	41.64421768707483	79	127
41.36557823129252	41.64421768707483	83	127
41.36557823129252	41.64421768707483	61	127
41.36557823129252	41.64421768707483	64	127
41.64421768707483	41.957687074829934	78	127
41.64421768707483	41.957687074829934	81	127
41.64421768707483	41.957687074829934	62	127
41.64421768707483	41.957687074829934	66	127
41.957687074829934	42.24793650793651	84	127
41.957687074829934	42.24793650793651	81	127
41.957687074829934	42.24793650793651	54	127
41.957687074829934	42.24793650793651	57	127
42.25954648526077	42.52657596371882	79	127
42.25954648526077	42.52657596371882	83	127
42.25954648526077	42.52657596371882	55	127
42.25954648526077	42.52657596371882	59	127
42.53818594104308	42.79360544217687	72	127
42.53818594104308	42.79360544217687	81	127
42.53818594104308	42.79360544217687	57	127
42.53818594104308	42.79360544217687	60	127
42.80521541950113	43.107074829931975	71	127
42.80521541950113	43.107074829931975	79	127
42.80521541950113	43.107074829931975	59	127
42.80521541950113	43.107074829931975	62	127
43.11868480725624	43.39732426303855	67	127
43.11868480725624	43.39732426303855	55	127
43.11868480725624	43.39732426303855	62	127
43.40893424036281	43.69916099773243	69	127
43.40893424036281	43.69916099773243	63	127
43.40893424036281	43.69916099773243	54	127
43.69916099773243	43.989433106575966	55	127
43.69916099773243	43.989433106575966	67	127
43.69916099773243	43.989433106575966	62	127
44.00104308390023	44.2912925170068	72	127
44.00104308390023	44.2912925170068	60	127
44.00104308390023	44.2912925170068	48	127
44.302902494331065	44.860181405895695	72	127
44.302902494331065	44.55832199546485	91	127
44.302902494331065	44.55832199546485	88	127
44.302902494331065	44.55832199546485	79	127
44.569931972789114	44.860181405895695	90	127
44.569931972789114	44.860181405895695	87	127
44.569931972789114	44.860181405895695	81	127
44.87179138321996	45.16204081632653	88	127
44.87179138321996	45.16204081632653	91	127
44.87179138321996	45.16204081632653	72	127
44.87179138321996	45.16204081632653	79	127
45.17365079365079	45.46390022675737	81	127
45.17365079365079	45.46390022675737	74	127
45.17365079365079	45.46390022675737	78	127
45.47548752834467	45.73090702947846	86	127
45.47548752834467	45.73090702947846	74	127
45.47548752834467	45.73090702947846	62	127
45.47548752834467	45.73090702947846	66	127
45.73090702947846	46.056009070294785	73	127
45.73090702947846	46.056009070294785	85	127
45.73090702947846	46.056009070294785	64	127
45.73090702947846	46.056009070294785	67	127
46.06761904761905	46.45074829931973	74	127
46.06761904761905	46.45074829931973	86	127
46.06761904761905	46.45074829931973	62	127
46.06761904761905	46.45074829931973	66	127
46.06761904761905	46.45074829931973	69	127
46.46235827664399	46.79904761904762	83	127
46.46235827664399	46.79904761904762	71	127
46.46235827664399	46.79904761904762	67	127
46.46235827664399	46.79904761904762	55	127
47.87877551020408	48.1574149659864	67	127
47.87877551020408	48.1574149659864	62	127
47.87877551020408	48.1574149659864	55	127
48.1574149659864	48.44766439909297	63	127
48.1574149659864	48.44766439909297	69	127
48.1574149659864	48.44766439909297	54	127
48.459274376417234	48.76113378684807	62	127
48.459274376417234	48.76113378684807	67	127
48.459274376417234	48.76113378684807	55	127
48.76113378684807	49.08621315192744	62	127
48.76113378684807	49.08621315192744	66	127
48.76113378684807	49.08621315192744	50	127
49.08621315192744	49.4112925170068	74	127
49.08621315192744	49.4112925170068	86	127
49.08621315192744	49.4112925170068	62	127
49.08621315192744	49.4112925170068	66	127
49.4112925170068	49.70154195011338	73	127
49.4112925170068	49.70154195011338	85	127
49.4112925170068	49.70154195011338	64	127
49.4112925170068	49.70154195011338	67	127
49.70154195011338	50.09628117913832	74	127
49.70154195011338	50.09628117913832	86	127
49.70154195011338	50.09628117913832	66	127
49.70154195011338	50.09628117913832	69	127
50.09628117913832	50.39814058956916	74	127
50.09628117913832	50.39814058956916	83	127
50.09628117913832	50.39814058956916	71	127
50.09628117913832	50.39814058956916	67	127
50.39814058956916	50.7	79	127
50.39814058956916	50.7	83	127
50.39814058956916	50.7	64	127
50.39814058956916	50.7	67	127
50.7	50.99024943310658	84	127
50.7	50.99024943310658	81	127
50.7	50.99024943310658	60	127
50.7	50.99024943310658	64	127
50.99024943310658	51.26888888888889	79	127
50.99024943310658	51.26888888888889	83	127
50.99024943310658	51.26888888888889	61	127
50.99024943310658	51.26888888888889	64	127
51.26888888888889	51.59396825396826	78	127
51.26888888888889	51.59396825396826	81	127
51.26888888888889	51.59396825396826	62	127
51.26888888888889	51.59396825396826	66	127
51.59396825396826	51.87260770975057	84	127
51.59396825396826	51.87260770975057	81	127
51.59396825396826	51.87260770975057	54	127
51.59396825396826	51.87260770975057	57	127
51.87260770975057	52.174467120181404	79	127
51.87260770975057	52.174467120181404	83	127
51.87260770975057	52.174467120181404	55	127
51.87260770975057	52.174467120181404	59	127
52.174467120181404	52.49954648526077	72	127
52.174467120181404	52.49954648526077	81	127
52.174467120181404	52.49954648526077	57	127
52.174467120181404	52.49954648526077	60	127
52.511156462585035	52.778185941043084	71	127
52.511156462585035	52.778185941043084	79	127
52.511156462585035	52.778185941043084	59	127
52.511156462585035	52.778185941043084	62	127
52.789795918367346	53.04521541950113	67	127
52.789795918367346	53.04521541950113	55	127
52.789795918367346	53.04521541950113	62	127
53.056825396825396	53.34707482993197	69	127
53.056825396825396	53.34707482993197	63	127
53.056825396825396	53.34707482993197	54	127
53.34707482993197	53.660544217687075	67	127
53.34707482993197	53.660544217687075	55	127
53.34707482993197	53.660544217687075	62	127
53.660544217687075	53.927573696145124	72	127
53.660544217687075	53.927573696145124	48	127
53.660544217687075	53.927573696145124	60	127
53.93918367346939	54.24104308390023	88	127
53.93918367346939	54.24104308390023	91	127
53.93918367346939	54.24104308390023	79	127
53.93918367346939	54.531292517006804	72	127
54.25265306122449	54.531292517006804	87	127
54.25265306122449	54.531292517006804	90	127
54.25265306122449	54.531292517006804	81	127
54.54290249433107	54.809931972789116	88	127
54.54290249433107	54.809931972789116	91	127
54.54290249433107	54.809931972789116	72	127
54.54290249433107	54.809931972789116	79	127
54.82154195011338	55.146621315192746	81	127
54.82154195011338	55.146621315192746	74	127
54.82154195011338	55.146621315192746	78	127
55.15823129251701	55.42526077097506	74	127
55.15823129251701	55.42526077097506	86	127
55.15823129251701	55.42526077097506	62	127
55.15823129251701	55.42526077097506	66	127
55.43687074829932	55.69229024943311	73	127
55.43687074829932	55.69229024943311	85	127
55.43687074829932	55.69229024943311	64	127
55.43687074829932	55.69229024943311	67	127
55.70390022675737	56.005759637188206	74	127
55.70390022675737	56.005759637188206	86	127
55.70390022675737	56.005759637188206	62	127
55.70390022675737	56.005759637188206	66	127
55.70390022675737	56.005759637188206	69	127
56.017369614512475	56.342448979591836	83	127
56.017369614512475	56.342448979591836	71	127
56.017369614512475	56.342448979591836	67	127
56.017369614512475	56.342448979591836	55	127
56.3540589569161	57.00421768707483	62	127
56.3540589569161	57.00421768707483	47	127
56.3540589569161	57.00421768707483	59	127
57.03904761904762	57.38734693877551	59	127
57.03904761904762	57.38734693877551	43	127
57.03904761904762	57.38734693877551	55	127
57.39895691609977	57.68920634920635	58	127
57.39895691609977	57.68920634920635	54	127
57.39895691609977	57.68920634920635	42	127
57.68920634920635	57.99106575963719	64	127
57.68920634920635	57.99106575963719	52	127
57.68920634920635	57.99106575963719	49	127
57.68920634920635	58.59478458049887	42	127
57.99106575963719	58.30453514739229	66	127
57.99106575963719	58.30453514739229	51	127
57.99106575963719	58.30453514739229	54	127
58.30453514739229	58.59478458049887	64	127
58.30453514739229	58.59478458049887	49	127
58.30453514739229	58.59478458049887	52	127
58.59478458049887	58.88503401360544	42	127
58.59478458049887	58.88503401360544	63	127
58.59478458049887	58.88503401360544	47	127
58.59478458049887	58.88503401360544	51	127
58.88503401360544	59.19850340136055	75	127
58.88503401360544	59.19850340136055	83	127
58.88503401360544	59.19850340136055	71	127
58.88503401360544	59.79061224489796	66	127
59.19850340136055	59.48875283446712	76	127
59.19850340136055	59.48875283446712	82	127
59.19850340136055	59.48875283446712	73	127
59.50036281179138	59.79061224489796	71	127
59.50036281179138	59.79061224489796	75	127
59.50036281179138	59.79061224489796	83	127
59.81383219954648	60.13891156462585	76	127
59.81383219954648	60.13891156462585	82	127
59.81383219954648	60.13891156462585	66	127
59.81383219954648	60.13891156462585	73	127
60.15052154195011	60.39433106575964	66	127
60.15052154195011	60.39433106575964	73	127
60.15052154195011	60.39433106575964	76	127
60.15052154195011	60.39433106575964	58	127
60.15052154195011	60.39433106575964	61	127
60.4059410430839	60.707800453514736	66	127
60.4059410430839	60.707800453514736	75	127
60.4059410430839	60.707800453514736	59	127
60.4059410430839	60.707800453514736	78	127
60.4059410430839	60.707800453514736	56	127
60.707800453514736	60.96321995464853	61	127
60.707800453514736	60.96321995464853	66	127
60.707800453514736	60.96321995464853	73	127
60.707800453514736	60.96321995464853	76	127
60.707800453514736	60.96321995464853	58	127
60.97482993197279	61.311519274376415	59	127
60.97482993197279	61.311519274376415	66	127
60.97482993197279	61.311519274376415	75	127
60.97482993197279	61.311519274376415	63	127
60.97482993197279	61.311519274376415	71	127
61.32312925170068	61.601768707483	51	127
61.32312925170068	61.868798185941046	42	127
61.32312925170068	61.601768707483	63	127
61.32312925170068	61.601768707483	47	127
61.61337868480726	61.868798185941046	52	127
61.61337868480726	61.868798185941046	64	127
61.61337868480726	61.868798185941046	49	127
61.89201814058957	62.14743764172336	50	127
61.89201814058957	62.14743764172336	62	127
61.89201814058957	62.14743764172336	42	127
61.89201814058957	62.14743764172336	47	127
62.15904761904762	62.42607709750567	50	127
62.15904761904762	62.42607709750567	62	127
62.15904761904762	62.42607709750567	47	127
62.15904761904762	62.42607709750567	43	127
62.43768707482993	62.739546485260774	50	127
62.43768707482993	63.02979591836735	43	127
62.43768707482993	62.739546485260774	55	127
62.43768707482993	62.739546485260774	65	127
62.75115646258504	63.02979591836735	52	127
62.75115646258504	63.02979591836735	55	127
62.75115646258504	63.02979591836735	67	127
63.04140589569161	63.32004535147392	55	127
63.04140589569161	63.32004535147392	65	127
63.04140589569161	63.32004535147392	43	127
63.04140589569161	63.32004535147392	50	127
63.331655328798185	63.63351473922903	48	127
63.331655328798185	63.63351473922903	55	127
63.331655328798185	63.63351473922903	64	127
63.331655328798185	63.63351473922903	52	127
63.64512471655329	63.91215419501134	84	127
63.64512471655329	63.91215419501134	88	127
63.64512471655329	63.91215419501134	72	127
63.64512471655329	63.91215419501134	79	127
63.9237641723356	64.19079365079365	86	127
63.9237641723356	64.19079365079365	89	127
63.9237641723356	64.19079365079365	80	127
63.9237641723356	64.19079365079365	71	127
64.20240362811792	64.50426303854876	84	127
64.20240362811792	64.50426303854876	88	127
64.20240362811792	64.50426303854876	72	127
64.20240362811792	64.50426303854876	79	127
64.50426303854876	64.84095238095239	81	127
64.50426303854876	64.84095238095239	74	127
64.50426303854876	64.84095238095239	78	127
64.84095238095239	65.1195918367347	62	127
64.84095238095239	65.1195918367347	66	127
64.84095238095239	65.1195918367347	50	127
64.84095238095239	65.1195918367347	54	127
65.1195918367347	65.42145124716554	64	127
65.1195918367347	65.42145124716554	67	127
65.1195918367347	65.42145124716554	52	127
65.1195918367347	65.42145124716554	55	127
65.43306122448979	65.73492063492064	66	127
65.43306122448979	65.73492063492064	69	127
65.43306122448979	65.73492063492064	54	127
65.43306122448979	65.73492063492064	57	127
65.7465306122449	66.06	71	127
65.7465306122449	66.06	67	127
65.7465306122449	66.06	55	127
65.7465306122449	66.06	59	127
66.06	66.66371882086167	62	127
66.06	66.66371882086167	47	127
66.06	66.66371882086167	59	127
66.66371882086167	66.97718820861678	59	127
66.66371882086167	66.97718820861678	43	127
66.66371882086167	66.97718820861678	55	127
66.97718820861678	67.42997732426304	42	127
66.97718820861678	67.42997732426304	58	127
66.97718820861678	67.42997732426304	54	127
67.42997732426304	67.72022675736962	64	127
67.42997732426304	67.72022675736962	49	127
67.42997732426304	67.72022675736962	52	127
67.42997732426304	68.31233560090703	42	127
67.72022675736962	68.0104761904762	54	127
67.72022675736962	68.0104761904762	66	127
67.72022675736962	68.0104761904762	51	127
68.0104761904762	68.31233560090703	64	127
68.0104761904762	68.31233560090703	52	127
68.0104761904762	68.31233560090703	49	127
68.31233560090703	68.56775510204082	51	127
68.31233560090703	68.56775510204082	63	127
68.31233560090703	68.56775510204082	42	127
68.31233560090703	68.56775510204082	47	127
68.56775510204082	69.43850340136055	66	127
68.56775510204082	68.88120181405895	71	127
68.56775510204082	68.88120181405895	83	127
68.56775510204082	68.88120181405895	75	127
68.88120181405895	69.13662131519274	76	127
68.88120181405895	69.13662131519274	82	127
68.88120181405895	69.13662131519274	73	127
69.13662131519274	69.43850340136055	83	127
69.13662131519274	69.43850340136055	75	127
69.13662131519274	69.43850340136055	71	127
69.43850340136055	69.78680272108843	76	127
69.43850340136055	69.78680272108843	82	127
69.43850340136055	69.78680272108843	66	127
69.43850340136055	69.78680272108843	73	127
69.7984126984127	70.0190022675737	61	127
69.7984126984127	70.0190022675737	66	127
69.7984126984127	70.0190022675737	73	127
69.7984126984127	70.0190022675737	76	127
69.7984126984127	70.0190022675737	58	127
70.030589569161	70.34408163265306	75	127
70.030589569161	70.34408163265306	78	127
70.030589569161	70.34408163265306	56	127
70.030589569161	70.34408163265306	59	127
70.030589569161	70.34408163265306	66	127
70.34408163265306	70.62272108843537	66	127
70.34408163265306	70.62272108843537	73	127
70.34408163265306	70.62272108843537	76	127
70.34408163265306	70.62272108843537	58	127
70.34408163265306	70.62272108843537	61	127
70.62272108843537	70.94780045351474	66	127
70.62272108843537	70.94780045351474	71	127
70.62272108843537	70.94780045351474	75	127
70.62272108843537	70.94780045351474	59	127
70.62272108843537	70.94780045351474	63	127
70.94780045351474	71.2728798185941	51	127
70.94780045351474	71.51668934240362	42	127
70.94780045351474	71.2728798185941	63	127
70.94780045351474	71.2728798185941	47	127
71.2844671201814	71.51668934240362	52	127
71.2844671201814	71.51668934240362	64	127
71.2844671201814	71.51668934240362	49	127
71.52829931972789	71.81854875283447	50	127
71.52829931972789	71.81854875283447	62	127
71.52829931972789	71.81854875283447	42	127
71.52829931972789	71.81854875283447	47	127
71.83015873015873	72.13201814058957	50	127
71.83015873015873	72.13201814058957	62	127
71.83015873015873	72.13201814058957	47	127
71.83015873015873	72.13201814058957	43	127
72.14362811791383	72.41065759637188	55	127
72.14362811791383	72.41065759637188	65	127
72.14362811791383	72.41065759637188	50	127
72.14362811791383	72.6660544217687	43	127
72.42226757369615	72.6660544217687	55	127
72.42226757369615	72.6660544217687	67	127
72.42226757369615	72.6660544217687	52	127
72.6660544217687	72.99115646258504	55	127
72.6660544217687	72.99115646258504	65	127
72.6660544217687	72.99115646258504	43	127
72.6660544217687	72.99115646258504	50	127
73.02598639455782	73.33945578231292	55	127
73.02598639455782	73.33945578231292	64	127
73.02598639455782	73.33945578231292	52	127
73.02598639455782	73.33945578231292	48	127
73.36267573696145	73.59487528344671	84	127
73.36267573696145	73.59487528344671	88	127
73.36267573696145	73.59487528344671	72	127
73.36267573696145	73.59487528344671	79	127
73.60648526077098	73.86190476190477	86	127
73.60648526077098	73.86190476190477	89	127
73.60648526077098	73.86190476190477	80	127
73.60648526077098	73.86190476190477	71	127
73.88512471655329	74.15215419501133	84	127
73.88512471655329	74.15215419501133	88	127
73.88512471655329	74.15215419501133	72	127
73.88512471655329	74.15215419501133	79	127
74.1637641723356	74.43079365079365	81	127
74.1637641723356	74.43079365079365	74	127
74.1637641723356	74.43079365079365	78	127
74.45399092970521	74.72104308390023	62	127
74.45399092970521	74.72104308390023	66	127
74.45399092970521	74.72104308390023	50	127
74.45399092970521	74.72104308390023	54	127
74.72104308390023	74.99968253968254	64	127
74.72104308390023	74.99968253968254	67	127
74.72104308390023	74.99968253968254	52	127
74.72104308390023	74.99968253968254	55	127
75.01129251700681	75.28993197278912	66	127
75.01129251700681	75.28993197278912	69	127
75.01129251700681	75.28993197278912	54	127
75.01129251700681	75.28993197278912	57	127
75.30154195011337	75.47566893424036	71	127
75.30154195011337	75.47566893424036	67	127
75.30154195011337	75.56857142857143	55	127
75.30154195011337	75.56857142857143	59	127
75.48730158730159	75.56857142857143	62	127
75.5453514739229	75.638231292517	64	127
75.61501133786848	75.71950113378685	62	127
75.6730612244898	75.88204081632654	61	127
75.89365079365079	76.05619047619048	62	127
76.05619047619048	76.2187074829932	64	127
76.2187074829932	76.41609977324264	66	127
76.41609977324264	76.99659863945578	59	127
76.41609977324264	76.6134693877551	67	127
76.41609977324264	76.99659863945578	55	127
76.6134693877551	76.7063492063492	62	127
76.68312925170068	76.76439909297052	64	127
76.741179138322	76.84566893424036	62	127
76.79922902494332	76.99659863945578	61	127
76.99659863945578	77.17074829931973	62	127
77.17074829931973	77.35650793650794	67	127
77.17074829931973	77.35650793650794	55	127
77.17074829931973	77.35650793650794	59	127
77.35650793650794	77.5538775510204	71	127
77.35650793650794	77.5538775510204	55	127
77.35650793650794	77.5538775510204	59	127
77.5538775510204	77.73963718820862	69	127
77.5538775510204	78.1343537414966	54	127
77.5538775510204	78.1343537414966	57	127
77.5538775510204	78.1343537414966	60	127
77.73963718820862	77.82090702947846	62	127
77.8092970521542	77.91378684807256	64	127
77.89056689342404	77.98344671201814	62	127
77.96022675736961	78.1343537414966	61	127
78.14598639455782	78.34335600907029	62	127
78.37818594104309	78.55233560090703	69	127
78.37818594104309	78.55233560090703	60	127
78.37818594104309	78.55233560090703	54	127
78.37818594104309	78.55233560090703	57	127
78.5639455782313	78.73809523809524	74	127
78.5639455782313	78.73809523809524	54	127
78.5639455782313	78.73809523809524	57	127
78.7497052154195	79.388231292517	55	127
78.7497052154195	79.00512471655328	71	127
78.7497052154195	79.388231292517	59	127
79.01673469387755	79.10961451247165	62	127
79.08639455782313	79.16766439909297	64	127
79.15603174603174	79.22571428571429	62	127
79.20249433106576	79.388231292517	61	127
79.39986394557823	79.56240362811792	62	127
79.57401360544218	79.7249433106576	55	127
79.57401360544218	79.7249433106576	67	127
79.57401360544218	79.7249433106576	59	127
79.73655328798186	79.9107029478458	55	127
79.73655328798186	79.9107029478458	71	127
79.73655328798186	79.9107029478458	59	127
79.9107029478458	80.46798185941043	57	127
79.9107029478458	80.09646258503402	69	127
79.9107029478458	80.46798185941043	50	127
79.9107029478458	80.46798185941043	54	127
80.09646258503402	80.18934240362812	62	127
80.16612244897959	80.23578231292517	64	127
80.21256235827664	80.31705215419501	62	127
80.28219954648526	80.46798185941043	61	127
80.46798185941043	80.67696145124717	62	127
80.67696145124717	80.92074829931973	60	127
80.67696145124717	80.92074829931973	66	127
80.67696145124717	80.92074829931973	62	127
80.92074829931973	81.11814058956917	69	127
80.92074829931973	81.11814058956917	60	127
80.92074829931973	81.11814058956917	62	127
81.11814058956917	81.66380952380952	59	127
81.11814058956917	81.3038775510204	67	127
81.11814058956917	81.66380952380952	62	127
81.3038775510204	81.39678004535148	67	127
81.37356009070295	81.4548299319728	69	127
81.4315873015873	81.5128798185941	67	127
81.47804988662132	81.66380952380952	66	127
81.66380952380952	81.861179138322	67	127
81.87278911564626	82.0469387755102	59	127
81.87278911564626	82.0469387755102	67	127
81.87278911564626	82.0469387755102	55	127
82.05854875283447	82.25591836734694	55	127
82.05854875283447	82.25591836734694	74	127
82.05854875283447	82.25591836734694	59	127
82.29074829931973	82.81319727891156	60	127
82.29074829931973	82.46489795918367	76	127
82.29074829931973	82.81319727891156	48	127
82.29074829931973	82.81319727891156	55	127
82.47650793650794	82.55777777777777	64	127
82.53455782312925	82.61582766439909	66	127
82.59260770975057	82.66226757369614	64	127
82.63904761904762	82.81319727891156	63	127
82.82480725623583	83.04539682539682	64	127
83.05700680272109	83.23115646258503	52	127
83.05700680272109	83.23115646258503	76	127
83.05700680272109	83.23115646258503	49	127
83.05700680272109	83.23115646258503	57	127
83.2427664399093	83.44013605442177	52	127
83.2427664399093	83.44013605442177	79	127
83.2427664399093	83.44013605442177	49	127
83.2427664399093	83.44013605442177	57	127
83.45172335600907	83.9974149659864	54	127
83.45172335600907	83.62589569160998	69	127
83.45172335600907	83.9974149659864	50	127
83.45172335600907	83.9974149659864	57	127
83.63750566893424	83.71877551020408	62	127
83.69555555555556	83.7768253968254	64	127
83.75360544217688	83.83485260770975	62	127
83.81165532879818	83.9974149659864	61	127
83.9974149659864	84.22961451247166	62	127
84.22961451247166	84.42698412698412	50	127
84.22961451247166	84.42698412698412	69	127
84.22961451247166	84.42698412698412	38	127
84.42698412698412	84.63596371882086	50	127
84.42698412698412	84.63596371882086	74	127
84.42698412698412	84.63596371882086	38	127
84.63596371882086	85.18163265306123	43	127
84.63596371882086	85.18163265306123	71	127
84.63596371882086	85.18163265306123	55	127
85.75049886621315	86.3542403628118	50	127
85.75049886621315	86.3542403628118	86	127
85.75049886621315	86.3542403628118	43	127
85.75049886621315	86.3542403628118	55	127
85.75049886621315	86.3542403628118	74	127
85.75049886621315	86.3542403628118	79	127
85.75049886621315	86.3542403628118	83	127
86.62124716553288	86.80702947845805	50	127
86.62124716553288	86.80702947845805	74	127
86.62124716553288	86.80702947845805	79	127
86.62124716553288	86.80702947845805	86	127
86.62124716553288	86.80702947845805	83	127
86.62124716553288	86.80702947845805	43	127
86.62124716553288	86.80702947845805	55	127
86.84185941043084	87.03922902494331	79	127
86.84185941043084	87.03922902494331	74	127
86.84185941043084	87.03922902494331	86	127
86.84185941043084	87.03922902494331	83	127
86.84185941043084	87.03922902494331	43	127
86.84185941043084	87.03922902494331	50	127
86.84185941043084	87.03922902494331	55	127
87.05083900226758	87.67777777777778	50	127
87.05083900226758	87.67777777777778	86	127
87.05083900226758	87.67777777777778	42	127
87.05083900226758	87.67777777777778	54	127
87.05083900226758	87.67777777777778	74	127
87.05083900226758	87.67777777777778	81	127
87.86353741496599	88.0492970521542	54	127
87.86353741496599	88.0492970521542	74	127
87.86353741496599	88.0492970521542	81	127
87.86353741496599	88.0492970521542	86	127
87.86353741496599	88.0492970521542	42	127
87.86353741496599	88.0492970521542	50	127
88.0492970521542	88.32793650793651	54	127
88.0492970521542	88.32793650793651	74	127
88.0492970521542	88.32793650793651	81	127
88.0492970521542	88.32793650793651	86	127
88.0492970521542	88.32793650793651	42	127
88.0492970521542	88.32793650793651	50	127
88.32793650793651	88.90843537414966	43	127
88.32793650793651	88.90843537414966	83	127
88.32793650793651	88.90843537414966	86	127
88.32793650793651	88.90843537414966	50	127
88.32793650793651	88.90843537414966	55	127
88.32793650793651	88.90843537414966	74	127
89.1174149659864	89.33800453514739	74	127
89.1174149659864	89.33800453514739	83	127
89.1174149659864	89.33800453514739	86	127
89.1174149659864	89.33800453514739	43	127
89.1174149659864	89.33800453514739	50	127
89.1174149659864	89.33800453514739	55	127
89.33800453514739	89.53537414965986	50	127
89.33800453514739	89.53537414965986	74	127
89.33800453514739	89.53537414965986	83	127
89.33800453514739	89.53537414965986	86	127
89.33800453514739	89.53537414965986	43	127
89.33800453514739	89.53537414965986	55	127
89.53537414965986	90.12748299319728	81	127
89.53537414965986	90.12748299319728	86	127
89.53537414965986	90.12748299319728	54	127
89.53537414965986	90.12748299319728	50	127
89.53537414965986	90.12748299319728	74	127
90.38290249433106	90.55702947845805	81	127
90.38290249433106	90.55702947845805	86	127
90.38290249433106	90.55702947845805	48	127
90.38290249433106	90.55702947845805	60	127
90.38290249433106	90.55702947845805	74	127
90.38290249433106	90.55702947845805	78	127
90.56866213151928	90.77764172335601	74	127
90.56866213151928	90.77764172335601	78	127
90.56866213151928	90.77764172335601	81	127
90.56866213151928	90.77764172335601	86	127
90.56866213151928	90.77764172335601	48	127
90.56866213151928	90.77764172335601	60	127
90.78925170068027	91.439410430839	74	127
90.78925170068027	91.439410430839	79	127
90.78925170068027	91.439410430839	59	127
90.78925170068027	91.439410430839	47	127
90.78925170068027	91.439410430839	86	127
91.64839002267574	91.880589569161	47	127
91.64839002267574	91.880589569161	55	127
91.64839002267574	91.880589569161	59	127
91.64839002267574	91.880589569161	79	127
91.64839002267574	91.880589569161	86	127
91.64839002267574	91.880589569161	91	127
91.89219954648526	92.07795918367347	79	127
91.89219954648526	92.07795918367347	86	127
91.89219954648526	92.07795918367347	91	127
91.89219954648526	92.07795918367347	47	127
91.89219954648526	92.07795918367347	55	127
91.89219954648526	92.07795918367347	59	127
92.101179138322	92.67006802721089	60	127
92.101179138322	92.67006802721089	79	127
92.101179138322	92.67006802721089	88	127
92.101179138322	92.67006802721089	91	127
92.101179138322	92.67006802721089	48	127
92.101179138322	92.67006802721089	55	127
92.87904761904763	93.0764172335601	57	127
92.87904761904763	93.0764172335601	79	127
92.87904761904763	93.0764172335601	88	127
92.87904761904763	93.0764172335601	91	127
92.87904761904763	93.0764172335601	49	127
92.87904761904763	93.0764172335601	52	127
93.0764172335601	93.32022675736961	57	127
93.0764172335601	93.32022675736961	79	127
93.0764172335601	93.32022675736961	88	127
93.0764172335601	93.32022675736961	91	127
93.0764172335601	93.32022675736961	49	127
93.0764172335601	93.32022675736961	52	127
93.32022675736961	93.9239455782313	54	127
93.32022675736961	93.9239455782313	90	127
93.32022675736961	93.9239455782313	50	127
93.32022675736961	93.9239455782313	57	127
93.32022675736961	93.9239455782313	78	127
93.32022675736961	93.9239455782313	86	127
94.10968253968254	94.30707482993198	50	127
94.10968253968254	94.30707482993198	78	127
94.10968253968254	94.30707482993198	81	127
94.10968253968254	94.30707482993198	86	127
94.10968253968254	94.30707482993198	90	127
94.10968253968254	94.30707482993198	38	127
94.31868480725623	94.50444444444445	50	127
94.31868480725623	94.50444444444445	78	127
94.31868480725623	94.50444444444445	81	127
94.31868480725623	94.50444444444445	86	127
94.31868480725623	94.50444444444445	90	127
94.31868480725623	94.50444444444445	38	127
94.51603174603174	95.09655328798186	55	127
94.51603174603174	94.67859410430839	91	127
94.51603174603174	94.67859410430839	86	127
94.51603174603174	94.67859410430839	83	127
94.51603174603174	94.67859410430839	79	127
94.51603174603174	95.09655328798186	43	127
94.69020408163266	94.7714739229025	59	127
94.748231292517	94.84113378684808	60	127
94.80630385487528	94.91079365079365	59	127
94.8991836734694	95.09655328798186	58	127
95.10816326530612	95.31714285714285	59	127
95.32875283446712	95.52612244897959	62	127
95.32875283446712	95.52612244897959	41	127
95.32875283446712	95.52612244897959	53	127
95.54934240362812	95.74671201814058	71	127
95.54934240362812	95.74671201814058	41	127
95.54934240362812	95.74671201814058	53	127
95.75832199546485	96.36204081632653	42	127
95.75832199546485	95.92086167800454	70	127
95.75832199546485	96.36204081632653	54	127
95.9324716553288	96.00213151927437	66	127
95.97891156462585	96.07179138321996	68	127
96.04857142857144	96.12984126984126	66	127
96.11823129251701	96.36204081632653	65	127
96.36204081632653	96.58263038548753	66	127
96.58263038548753	96.76839002267573	64	127
96.58263038548753	96.76839002267573	70	127
96.58263038548753	96.76839002267573	54	127
96.58263038548753	96.76839002267573	61	127
96.76839002267573	96.95414965986394	54	127
96.76839002267573	96.95414965986394	73	127
96.76839002267573	96.95414965986394	58	127
96.76839002267573	96.95414965986394	61	127
96.95414965986394	97.53464852607709	63	127
96.95414965986394	97.13990929705216	71	127
96.95414965986394	97.53464852607709	54	127
96.95414965986394	97.53464852607709	59	127
97.13990929705216	97.23278911564626	66	127
97.19795918367348	97.29083900226757	68	127
97.25600907029478	97.3488888888889	66	127
97.32566893424037	97.53464852607709	65	127
97.53464852607709	97.77845804988662	66	127
97.77845804988662	97.96421768707484	59	127
97.77845804988662	97.96421768707484	71	127
97.77845804988662	97.96421768707484	54	127
97.77845804988662	97.96421768707484	63	127
97.96421768707484	98.14997732426303	54	127
97.96421768707484	98.14997732426303	75	127
97.96421768707484	98.14997732426303	63	127
97.96421768707484	98.14997732426303	59	127
98.14997732426303	98.33573696145125	70	127
98.14997732426303	98.75369614512472	54	127
98.14997732426303	98.75369614512472	61	127
98.14997732426303	98.75369614512472	64	127
98.35895691609977	98.45183673469388	66	127
98.42861678004535	98.50988662131519	68	127
98.48666666666666	98.56793650793651	66	127
98.55632653061224	98.75369614512472	65	127
98.76530612244898	98.95106575963719	66	127
98.96267573696146	99.14843537414966	61	127
98.96267573696146	99.14843537414966	70	127
98.96267573696146	99.14843537414966	54	127
98.96267573696146	99.14843537414966	64	127
99.17165532879818	99.3574149659864	58	127
99.17165532879818	99.3574149659864	73	127
99.17165532879818	99.3574149659864	54	127
99.17165532879818	99.3574149659864	61	127
99.36902494331066	99.9843537414966	54	127
99.36902494331066	99.5431746031746	71	127
99.36902494331066	99.9843537414966	63	127
99.36902494331066	99.9843537414966	59	127
99.55478458049886	99.6360544217687	66	127
99.61283446712018	99.69410430839002	68	127
99.6708843537415	99.75215419501134	66	127
99.74054421768707	99.9843537414966	65	127
99.99596371882086	100.18172335600907	66	127
100.19333333333333	100.39070294784581	62	127
100.19333333333333	100.39070294784581	71	127
100.19333333333333	100.39070294784581	54	127
100.19333333333333	100.39070294784581	59	127
100.39070294784581	100.57646258503401	59	127
100.39070294784581	100.57646258503401	74	127
100.39070294784581	100.57646258503401	54	127
100.39070294784581	100.57646258503401	62	127
100.57646258503401	101.15696145124717	55	127
100.57646258503401	100.78544217687075	74	127
100.57646258503401	101.15696145124717	62	127
100.57646258503401	101.15696145124717	59	127
100.78544217687075	100.87832199546486	65	127
100.84349206349206	100.93637188208616	67	127
100.90154195011338	100.99442176870748	65	127
100.97120181405896	101.15696145124717	64	127
101.15696145124717	101.31950113378684	65	127
101.31950113378684	101.51687074829933	65	127
101.31950113378684	101.51687074829933	71	127
101.31950113378684	101.51687074829933	55	127
101.31950113378684	101.51687074829933	62	127
101.51687074829933	101.73746031746032	62	127
101.51687074829933	101.73746031746032	74	127
101.51687074829933	101.73746031746032	55	127
101.51687074829933	101.73746031746032	65	127
101.73746031746032	102.32956916099774	64	127
101.73746031746032	101.92321995464853	76	127
101.73746031746032	102.32956916099774	60	127
101.92321995464853	102.01609977324263	64	127
101.98126984126984	102.120589569161	65	127
102.0857596371882	102.17863945578232	64	127
102.15541950113379	102.32956916099774	63	127
102.34117913832199	102.561768707483	64	127
102.57337868480725	102.7475283446712	55	127
102.57337868480725	102.7475283446712	76	127
102.57337868480725	102.7475283446712	48	127
102.57337868480725	102.7475283446712	60	127
102.75913832199547	102.94489795918368	55	127
102.75913832199547	102.94489795918368	88	127
102.75913832199547	102.94489795918368	48	127
102.75913832199547	102.94489795918368	60	127
102.95650793650793	103.58344671201814	54	127
102.95650793650793	103.1887074829932	81	127
102.95650793650793	103.58344671201814	50	127
102.95650793650793	103.58344671201814	57	127
103.20031746031746	103.28158730158731	74	127
103.25836734693877	103.35124716553288	76	127
103.32802721088436	103.42090702947846	74	127
103.39768707482993	103.58344671201814	73	127
103.5950566893424	103.79242630385488	74	127
103.80403628117914	103.97818594104308	81	127
103.80403628117914	103.97818594104308	50	127
103.80403628117914	103.97818594104308	38	127
103.98979591836735	104.16394557823129	38	127
103.98979591836735	104.16394557823129	86	127
103.98979591836735	104.16394557823129	50	127
104.17555555555556	104.74444444444444	55	127
104.17555555555556	104.74444444444444	43	127
104.17555555555556	104.74444444444444	83	127
104.95342403628118	105.16240362811791	59	127
104.95342403628118	105.16240362811791	40	127
104.95342403628118	105.16240362811791	52	127
105.16240362811791	105.3829931972789	62	127
105.16240362811791	105.3829931972789	40	127
105.16240362811791	105.3829931972789	52	127
105.3829931972789	106.02154195011337	61	127
105.3829931972789	106.02154195011337	42	127
105.3829931972789	106.02154195011337	54	127
106.24213151927438	106.42789115646258	64	127
106.24213151927438	106.42789115646258	90	127
106.24213151927438	106.42789115646258	78	127
106.24213151927438	106.42789115646258	54	127
106.24213151927438	106.42789115646258	61	127
106.45111111111112	106.64848072562359	61	127
106.45111111111112	106.64848072562359	78	127
106.45111111111112	106.64848072562359	58	127
106.45111111111112	106.64848072562359	90	127
106.45111111111112	106.64848072562359	54	127
106.66009070294784	107.29863945578231	54	127
106.66009070294784	107.29863945578231	59	127
106.66009070294784	107.29863945578231	63	127
106.66009070294784	107.29863945578231	90	127
106.66009070294784	107.29863945578231	78	127
107.50761904761904	107.68176870748299	59	127
107.50761904761904	107.68176870748299	90	127
107.50761904761904	107.68176870748299	78	127
107.50761904761904	107.68176870748299	54	127
107.50761904761904	107.68176870748299	63	127
107.71659863945578	107.89074829931972	78	127
107.71659863945578	107.89074829931972	90	127
107.71659863945578	107.89074829931972	54	127
107.71659863945578	107.89074829931972	59	127
107.71659863945578	107.89074829931972	63	127
107.902358276644	108.45963718820862	54	127
107.902358276644	108.45963718820862	61	127
107.902358276644	108.45963718820862	64	127
107.902358276644	108.45963718820862	78	127
107.902358276644	108.45963718820862	90	127
108.72666666666667	108.92403628117914	78	127
108.72666666666667	108.92403628117914	90	127
108.72666666666667	108.92403628117914	54	127
108.72666666666667	108.92403628117914	61	127
108.72666666666667	108.92403628117914	64	127
108.92403628117914	109.12140589569161	54	127
108.92403628117914	109.12140589569161	90	127
108.92403628117914	109.12140589569161	58	127
108.92403628117914	109.12140589569161	78	127
108.92403628117914	109.12140589569161	61	127
109.12140589569161	109.73673469387755	54	127
109.12140589569161	109.73673469387755	59	127
109.12140589569161	109.73673469387755	63	127
109.12140589569161	109.73673469387755	78	127
109.12140589569161	109.73673469387755	90	127
109.98054421768707	110.1895238095238	59	127
109.98054421768707	110.1895238095238	90	127
109.98054421768707	110.1895238095238	78	127
109.98054421768707	110.1895238095238	54	127
109.98054421768707	110.1895238095238	62	127
110.1895238095238	110.37528344671202	90	127
110.1895238095238	110.37528344671202	78	127
110.1895238095238	110.37528344671202	54	127
110.1895238095238	110.37528344671202	59	127
110.1895238095238	110.37528344671202	62	127
110.37528344671202	110.99061224489796	55	127
110.37528344671202	110.99061224489796	59	127
110.37528344671202	110.99061224489796	62	127
110.37528344671202	110.99061224489796	77	127
110.37528344671202	110.99061224489796	89	127
111.21120181405895	111.3853514739229	91	127
111.21120181405895	111.3853514739229	79	127
111.21120181405895	111.3853514739229	55	127
111.21120181405895	111.3853514739229	59	127
111.21120181405895	111.3853514739229	62	127
111.21120181405895	111.3853514739229	65	127
111.39696145124717	111.6059410430839	79	127
111.39696145124717	111.6059410430839	91	127
111.39696145124717	111.6059410430839	55	127
111.39696145124717	111.6059410430839	59	127
111.39696145124717	111.6059410430839	62	127
111.39696145124717	111.6059410430839	65	127
111.62916099773243	112.19804988662132	79	127
111.62916099773243	112.19804988662132	64	127
111.62916099773243	112.19804988662132	60	127
111.62916099773243	112.19804988662132	91	127
112.46507936507936	112.65083900226757	72	127
112.46507936507936	112.65083900226757	64	127
112.46507936507936	112.65083900226757	48	127
112.46507936507936	112.65083900226757	55	127
112.46507936507936	112.65083900226757	60	127
112.68566893424037	112.85981859410431	72	127
112.68566893424037	112.85981859410431	64	127
112.68566893424037	112.85981859410431	48	127
112.68566893424037	112.85981859410431	55	127
112.68566893424037	112.85981859410431	60	127
112.85981859410431	113.46353741496598	50	127
112.85981859410431	113.46353741496598	54	127
112.85981859410431	113.46353741496598	57	127
112.85981859410431	113.46353741496598	66	127
112.85981859410431	113.46353741496598	69	127
113.67251700680272	113.85827664399093	57	127
113.67251700680272	113.85827664399093	62	127
113.67251700680272	113.85827664399093	66	127
113.67251700680272	113.85827664399093	38	127
113.67251700680272	113.85827664399093	50	127
113.85827664399093	114.17174603174603	62	127
113.85827664399093	114.17174603174603	57	127
113.85827664399093	114.17174603174603	66	127
113.85827664399093	114.17174603174603	38	127
113.85827664399093	114.17174603174603	50	127
114.17174603174603	114.42716553287981	43	127
114.17174603174603	114.42716553287981	55	127
114.17174603174603	114.61292517006802	59	127
114.17174603174603	114.61292517006802	62	127
114.17174603174603	114.61292517006802	67	127
114.42716553287981	114.61292517006802	55	127
114.61292517006802	114.75224489795919	59	127
114.75224489795919	114.89156462585034	62	127
114.89156462585034	115.0308843537415	60	127
115.0308843537415	115.18181405895692	59	127
115.18181405895692	115.3443537414966	60	127
115.3443537414966	115.50689342403628	57	127
115.50689342403628	115.66943310657597	59	127
115.50689342403628	115.82036281179138	67	127
115.66943310657597	115.82036281179138	60	127
115.82036281179138	115.94807256235828	62	127
115.82036281179138	116.38925170068028	71	127
115.95968253968255	116.08739229024944	54	127
116.0990022675737	116.22671201814059	55	127
116.23832199546486	116.38925170068028	57	127
116.40086167800453	116.52857142857142	59	127
116.40086167800453	116.70272108843537	71	127
116.5401814058957	116.70272108843537	50	127
116.71433106575964	116.84204081632653	49	127
116.71433106575964	116.99297052154195	76	127
116.8536507936508	116.99297052154195	50	127
117.00458049886622	117.13229024943311	52	127
117.00458049886622	117.59668934240362	76	127
117.14390022675737	117.28321995464853	45	127
117.29482993197279	117.4457596371882	45	127
117.45736961451247	117.59668934240362	47	127
117.60829931972789	118.18879818594104	74	127
117.60829931972789	117.74761904761905	48	127
117.77083900226758	117.89854875283447	42	127
117.91015873015873	118.04947845804989	43	127
118.04947845804989	118.18879818594104	45	127
118.18879818594104	118.87378684807257	79	127
118.18879818594104	118.40938775510205	47	127
118.40938775510205	118.58353741496599	39	127
118.58353741496599	118.7344671201814	40	127
118.7344671201814	118.87378684807257	51	127
118.87378684807257	119.01310657596372	52	127
118.87378684807257	119.44267573696145	79	127
119.01310657596372	119.11759637188209	50	127
119.11759637188209	119.2685260770975	49	127
119.2685260770975	119.44267573696145	52	127
119.44267573696145	119.59360544217687	50	127
119.44267573696145	120.03478458049887	78	127
119.59360544217687	119.73292517006803	49	127
119.73292517006803	119.88385487528345	50	127
119.88385487528345	120.03478458049887	54	127
120.05800453514739	120.19732426303855	57	127
120.05800453514739	120.3714739229025	78	127
120.20893424036281	120.3714739229025	60	127
120.38308390022675	120.66172335600908	79	127
120.38308390022675	120.51079365079364	59	127
120.52240362811791	120.66172335600908	60	127
120.6849433106576	121.24222222222222	79	127
120.6849433106576	120.8126530612245	62	127
120.82426303854875	120.95197278911564	54	127
120.96358276643991	121.10290249433106	55	127
121.11451247165533	121.24222222222222	57	127
121.25383219954648	121.50925170068027	77	127
121.25383219954648	121.38154195011337	59	127
121.25383219954648	121.85755102040817	79	127
121.39315192743764	121.50925170068027	50	127
121.52086167800454	121.68340136054422	52	127
121.52086167800454	121.85755102040817	76	127
121.70662131519275	121.85755102040817	53	127
121.86916099773242	122.46126984126984	76	127
121.86916099773242	122.04331065759636	55	127
122.05492063492063	122.18263038548753	47	127
122.18263038548753	122.32195011337869	48	127
122.32195011337869	122.46126984126984	50	127
122.46126984126984	122.75151927437642	76	127
122.46126984126984	122.600589569161	52	127
122.600589569161	122.75151927437642	43	127
122.75151927437642	122.89083900226757	42	127
122.75151927437642	123.04176870748299	74	127
122.89083900226757	123.04176870748299	43	127
123.04176870748299	123.18108843537415	45	127
123.04176870748299	123.71514739229025	74	127
123.18108843537415	123.39006802721089	38	127
123.39006802721089	123.5409977324263	40	127
123.5409977324263	123.71514739229025	38	127
123.71514739229025	123.85446712018141	40	127
123.71514739229025	124.26081632653062	74	127
123.85446712018141	123.9821768707483	42	127
123.9821768707483	124.1098866213152	43	127
124.12149659863945	124.26081632653062	47	127
124.27242630385487	124.45818594104308	48	127
124.27242630385487	124.91097505668934	71	127
124.46979591836735	124.59750566893425	50	127
124.62072562358277	124.74843537414966	52	127
124.76004535147392	124.91097505668934	54	127
124.93419501133786	125.06190476190476	55	127
124.93419501133786	125.52630385487528	71	127
125.07351473922903	125.20122448979592	57	127
125.21283446712017	125.34054421768707	59	127
125.39859410430839	125.52630385487528	60	127
125.53791383219955	126.14163265306122	67	127
125.53791383219955	125.66562358276644	62	127
125.6772335600907	125.81655328798186	54	127
125.82816326530612	125.97909297052155	55	127
125.9907029478458	126.14163265306122	57	127
126.15324263038549	126.28095238095239	59	127
126.15324263038549	126.81501133786848	67	127
126.28095238095239	126.4318820861678	50	127
126.4318820861678	126.62925170068027	49	127
126.62925170068027	126.81501133786848	50	127
126.81501133786848	126.94272108843538	52	127
126.81501133786848	127.0936507936508	67	127
126.94272108843538	127.0936507936508	45	127
127.0936507936508	127.36068027210884	72	127
127.0936507936508	127.22136054421769	45	127
127.22136054421769	127.36068027210884	47	127
127.36068027210884	127.51160997732427	48	127
127.36068027210884	127.66253968253969	72	127
127.51160997732427	127.66253968253969	42	127
127.66253968253969	127.80185941043084	43	127
127.66253968253969	127.941179138322	71	127
127.80185941043084	127.941179138322	45	127
127.941179138322	128.52167800453515	71	127
127.941179138322	128.11532879818594	47	127
128.11532879818594	128.24301587301588	39	127
128.2546485260771	128.382358276644	40	127
128.39396825396827	128.52167800453515	51	127
128.53328798185942	128.8119274376417	70	127
128.53328798185942	128.67260770975057	52	127
128.68421768707483	128.8119274376417	50	127
128.83514739229025	128.9628344671202	49	127
128.83514739229025	129.1137641723356	69	127
128.9744671201814	129.1137641723356	52	127
129.12539682539682	129.7639455782313	69	127
129.12539682539682	129.25310657596373	50	127
129.26469387755103	129.39242630385488	49	127
129.40403628117915	129.57818594104307	50	127
129.58979591836734	129.7639455782313	54	127
129.7755328798186	129.91487528344672	57	127
129.7755328798186	130.36766439909297	74	127
129.926485260771	130.05419501133787	60	127
130.06580498866214	130.19351473922902	59	127
130.21673469387756	130.36766439909297	60	127
130.36766439909297	130.97138321995465	71	127
130.36766439909297	130.54179138321996	62	127
130.54179138321996	130.69274376417235	54	127
130.69274376417235	130.8320634920635	55	127
130.8320634920635	130.97138321995465	57	127
130.97138321995465	131.29646258503402	71	127
130.97138321995465	131.13392290249433	59	127
130.97138321995465	131.29646258503402	77	127
131.13392290249433	131.29646258503402	50	127
131.29646258503402	131.44739229024944	52	127
131.29646258503402	131.5867120181406	72	127
131.29646258503402	131.5867120181406	76	127
131.44739229024944	131.5867120181406	53	127
131.5867120181406	132.17879818594105	72	127
131.5867120181406	131.76086167800455	55	127
131.76086167800455	131.91179138321996	47	127
131.91179138321996	132.03950113378684	48	127
132.03950113378684	132.17879818594105	50	127
132.17879818594105	132.3065306122449	52	127
132.17879818594105	132.74770975056688	72	127
132.31814058956917	132.45746031746032	43	127
132.4690702947846	132.60839002267574	42	127
132.62	132.74770975056688	43	127
132.75931972789115	133.35142857142858	72	127
132.75931972789115	132.91024943310657	45	127
132.92185941043084	133.04954648526078	38	127
133.0960090702948	133.22371882086168	40	127
133.23532879818595	133.35142857142858	38	127
133.36303854875283	133.51396825396824	40	127
133.36303854875283	133.67650793650793	72	127
133.5255782312925	133.67650793650793	42	127
133.6881179138322	133.82743764172335	43	127
133.6881179138322	133.97836734693877	71	127
133.83904761904762	133.97836734693877	47	127
133.98997732426304	134.164126984127	48	127
133.98997732426304	134.67496598639457	67	127
134.1757142857143	134.3150566893424	50	127
134.3266439909297	134.5356462585034	52	127
134.5356462585034	134.67496598639457	54	127
134.67496598639457	134.87233560090704	55	127
134.67496598639457	135.01165532879818	65	127
134.87233560090704	135.01165532879818	59	127
135.01165532879818	135.3251247165533	58	127
135.01165532879818	135.48766439909298	66	127
135.3251247165533	135.48766439909298	59	127
135.48766439909298	135.6385941043084	61	127
135.48766439909298	136.11458049886622	66	127
135.6385941043084	135.77791383219954	54	127
135.77791383219954	135.94045351473923	58	127
135.94045351473923	136.11458049886622	59	127
136.11458049886622	136.2655328798186	61	127
136.11458049886622	136.77637188208618	66	127
136.2655328798186	136.41646258503403	54	127
136.41646258503403	136.55578231292517	59	127
136.55578231292517	136.77637188208618	61	127
136.78798185941042	137.35687074829931	66	127
136.78798185941042	136.8924716553288	63	127
136.8924716553288	137.0201814058957	54	127
137.03179138321997	137.1827210884354	59	127
137.19433106575963	137.35687074829931	61	127
137.36848072562358	137.53102040816327	63	127
137.36848072562358	137.6819501133787	71	127
137.55424036281178	137.6819501133787	54	127
137.69356009070296	137.84448979591838	61	127
137.69356009070296	138.0186394557823	70	127
137.8677097505669	138.0186394557823	63	127
138.04185941043085	138.66879818594106	66	127
138.04185941043085	138.19278911564626	64	127
138.04185941043085	138.66879818594106	70	127
138.20439909297053	138.34371882086168	54	127
138.35532879818595	138.4946485260771	61	127
138.50625850340137	138.66879818594106	63	127
138.6804081632653	138.95904761904762	70	127
138.6804081632653	138.83133786848072	64	127
138.6804081632653	138.95904761904762	66	127
138.83133786848072	138.95904761904762	54	127
138.95904761904762	139.27251700680273	66	127
138.95904761904762	139.1215873015873	59	127
138.95904761904762	139.27251700680273	71	127
139.1331746031746	139.27251700680273	61	127
139.27251700680273	139.48149659863947	63	127
139.27251700680273	140.0387755102041	71	127
139.27251700680273	140.0387755102041	66	127
139.49308390022676	139.66725623582767	54	127
139.66725623582767	139.84140589569162	59	127
139.85301587301586	140.0387755102041	61	127
140.0503628117914	140.23614512471656	62	127
140.0503628117914	140.4683446712018	66	127
140.0503628117914	140.4683446712018	71	127
140.23614512471656	140.4683446712018	54	127
140.47995464852607	140.81662131519275	67	127
140.47995464852607	140.81662131519275	71	127
140.47995464852607	140.65410430839003	59	127
140.65410430839003	140.81662131519275	60	127
140.81662131519275	140.95596371882087	62	127
140.81662131519275	141.46680272108844	67	127
140.81662131519275	141.46680272108844	71	127
140.95596371882087	141.1068934240363	54	127
141.1068934240363	141.30426303854875	59	127
141.30426303854875	141.46680272108844	60	127
141.46680272108844	141.6061224489796	62	127
141.46680272108844	141.74544217687074	67	127
141.46680272108844	141.74544217687074	71	127
141.6061224489796	141.74544217687074	54	127
141.757052154195	141.9195918367347	52	127
141.757052154195	142.08213151927438	67	127
141.757052154195	142.08213151927438	72	127
141.93120181405897	142.08213151927438	53	127
142.09374149659865	142.2562811791383	55	127
142.09374149659865	142.7322902494331	72	127
142.09374149659865	142.7322902494331	76	127
142.27950113378685	142.418820861678	47	127
142.43043083900227	142.5813605442177	48	127
142.59297052154196	142.7322902494331	50	127
142.74390022675738	142.87160997732425	52	127
142.74390022675738	143.02253968253967	72	127
142.74390022675738	143.02253968253967	76	127
142.88321995464852	143.02253968253967	43	127
143.03414965986394	143.16185941043085	42	127
143.03414965986394	143.301179138322	72	127
143.03414965986394	143.301179138322	74	127
143.17344671201815	143.301179138322	43	127
143.32437641723357	143.49854875283447	45	127
143.32437641723357	143.962947845805	74	127
143.32437641723357	143.962947845805	72	127
143.521768707483	143.66108843537415	38	127
143.67269841269842	143.81201814058957	40	127
143.81201814058957	143.962947845805	38	127
143.962947845805	144.10226757369614	40	127
143.962947845805	144.28802721088437	72	127
143.962947845805	144.6131065759637	74	127
144.10226757369614	144.28802721088437	42	127
144.28802721088437	144.47378684807256	43	127
144.28802721088437	144.6131065759637	71	127
144.47378684807256	144.6131065759637	47	127
144.6131065759637	144.78725623582767	48	127
144.6131065759637	144.91496598639455	67	127
144.6131065759637	144.91496598639455	71	127
144.78725623582767	144.91496598639455	50	127
144.91496598639455	145.05428571428573	52	127
144.91496598639455	145.22843537414965	62	127
144.91496598639455	145.22843537414965	67	127
145.05428571428573	145.22843537414965	54	127
145.22843537414965	145.39097505668934	59	127
145.22843537414965	145.39097505668934	55	127
145.39097505668934	145.5302947845805	62	127
145.39097505668934	145.5302947845805	57	127
145.5302947845805	145.85537414965987	61	127
145.5302947845805	145.66961451247167	58	127
145.66961451247167	145.85537414965987	59	127
145.85537414965987	146.49390022675738	64	127
145.85537414965987	146.04113378684806	61	127
146.05274376417233	146.20367346938775	54	127
146.2268934240363	146.35460317460317	58	127
146.36621315192744	146.49390022675738	59	127
146.5055328798186	146.66807256235828	61	127
146.5055328798186	146.84222222222223	64	127
146.67968253968255	146.84222222222223	54	127
146.85380952380953	146.99315192743765	59	127
146.85380952380953	147.1324716553288	63	127
147.00473922902495	147.1324716553288	61	127
147.14408163265307	147.2950113378685	63	127
147.14408163265307	147.43433106575964	66	127
147.30662131519276	147.43433106575964	54	127
147.4459410430839	147.74780045351474	62	127
147.4459410430839	147.57365079365078	59	127
147.58526077097505	147.74780045351474	61	127
147.759410430839	147.8871201814059	63	127
147.759410430839	148.0380498866213	66	127
147.89873015873016	148.0380498866213	54	127
148.0380498866213	148.21219954648527	61	127
148.0380498866213	148.35151927437641	64	127
148.21219954648527	148.35151927437641	63	127
148.35151927437641	148.68820861678006	66	127
148.35151927437641	148.54888888888888	64	127
148.35151927437641	148.68820861678006	61	127
148.54888888888888	148.68820861678006	54	127
148.68820861678006	149.0016553287982	64	127
148.68820861678006	148.862358276644	61	127
148.862358276644	149.0016553287982	63	127
149.0016553287982	149.66342403628119	66	127
149.0016553287982	149.3615873015873	61	127
149.0016553287982	149.22226757369614	64	127
149.22226757369614	149.3615873015873	54	127
149.3615873015873	149.66342403628119	63	127
149.3615873015873	149.51249433106577	59	127
149.51249433106577	149.66342403628119	61	127
149.66342403628119	149.83759637188209	63	127
149.66342403628119	150.00013605442177	66	127
149.83759637188209	150.00013605442177	54	127
150.00013605442177	150.1510657596372	59	127
150.00013605442177	150.27875283446713	62	127
150.1510657596372	150.27875283446713	61	127
150.29038548752834	150.59224489795918	66	127
150.29038548752834	150.45292517006803	62	127
150.29038548752834	150.8708843537415	62	127
150.4645351473923	150.59224489795918	54	127
150.61546485260772	150.8708843537415	67	127
150.61546485260772	150.73156462585035	59	127
150.7431746031746	150.8708843537415	60	127
150.88249433106577	151.10308390022675	62	127
150.88249433106577	151.26562358276644	67	127
151.11469387755102	151.26562358276644	54	127
151.2772335600907	151.4049433106576	59	127
151.2772335600907	151.54426303854876	62	127
151.2772335600907	151.54426303854876	67	127
151.41655328798186	151.54426303854876	60	127
151.55585034013606	152.1247619047619	67	127
151.55585034013606	151.67197278911564	62	127
151.55585034013606	151.82290249433106	62	127
151.6835827664399	151.82290249433106	54	127
151.83451247165533	151.96219954648527	52	127
151.83451247165533	152.1247619047619	60	127
151.99705215419502	152.1247619047619	53	127
152.13637188208617	152.76331065759638	72	127
152.13637188208617	152.28730158730158	55	127
152.13637188208617	152.76331065759638	64	127
152.28730158730158	152.44984126984127	47	127
152.44984126984127	152.62399092970523	48	127
152.62399092970523	152.76331065759638	50	127
152.76331065759638	152.94907029478458	52	127
152.76331065759638	153.08836734693878	67	127
152.76331065759638	153.42507936507937	72	127
152.94907029478458	153.08836734693878	43	127
153.08836734693878	153.42507936507937	69	127
153.08836734693878	153.26253968253968	42	127
153.26253968253968	153.42507936507937	43	127
153.42507936507937	153.99396825396826	69	127
153.42507936507937	153.5760090702948	45	127
153.42507936507937	153.99396825396826	72	127
153.5760090702948	153.71532879818594	38	127
153.71532879818594	153.85462585034014	40	127
153.86625850340135	153.99396825396826	38	127
154.00555555555556	154.2958276643991	72	127
154.00555555555556	154.14489795918368	40	127
154.00555555555556	154.2958276643991	69	127
154.15650793650795	154.2958276643991	42	127
154.30743764172337	154.5744671201814	71	127
154.30743764172337	154.5744671201814	67	127
154.30743764172337	154.5744671201814	43	127
155.8399546485261	156.2463038548753	50	127
155.8399546485261	156.2463038548753	67	127
155.8399546485261	156.2463038548753	71	127
155.8399546485261	156.2463038548753	74	127
155.8399546485261	156.2463038548753	79	127
155.8399546485261	156.2463038548753	43	127
155.8399546485261	156.2463038548753	47	127
155.8399546485261	156.2463038548753	55	127
156.37401360544217	156.8384126984127	67	127
156.37401360544217	156.8384126984127	71	127
156.37401360544217	156.8384126984127	74	127
156.37401360544217	156.8384126984127	79	127
156.37401360544217	156.8384126984127	43	127
156.37401360544217	156.8384126984127	47	127
156.37401360544217	156.8384126984127	50	127
156.37401360544217	156.8384126984127	55	127
156.98934240362811	157.52340136054423	69	127
156.98934240362811	157.52340136054423	74	127
156.98934240362811	157.52340136054423	81	127
156.98934240362811	157.52340136054423	42	127
156.98934240362811	157.52340136054423	50	127
156.98934240362811	157.52340136054423	54	127
157.68591836734694	158.01102040816326	81	127
157.68591836734694	158.01102040816326	86	127
157.68591836734694	158.01102040816326	38	127
157.68591836734694	158.01102040816326	50	127
157.68591836734694	158.01102040816326	74	127
157.68591836734694	158.01102040816326	78	127
158.02263038548753	158.57990929705215	83	127
158.02263038548753	158.57990929705215	79	127
158.57990929705215	158.74244897959184	81	127
158.57990929705215	158.74244897959184	78	127
158.74244897959184	158.8469387755102	79	127
158.74244897959184	158.8469387755102	76	127
158.85854875283448	158.98625850340136	78	127
158.85854875283448	158.98625850340136	74	127
158.99786848072563	159.13718820861678	72	127
158.99786848072563	159.13718820861678	76	127
159.14879818594105	159.32292517006803	74	127
159.14879818594105	159.32292517006803	71	127
159.32292517006803	159.46226757369615	73	127
159.32292517006803	159.46226757369615	70	127
159.46226757369615	159.6015873015873	74	127
159.46226757369615	159.6015873015873	71	127
159.6015873015873	159.74090702947845	72	127
159.6015873015873	159.74090702947845	69	127
159.75251700680272	159.88022675736963	71	127
159.75251700680272	159.88022675736963	67	127
159.89183673469387	160.03115646258505	69	127
159.89183673469387	160.03115646258505	66	127
160.03115646258505	160.19367346938776	72	127
160.03115646258505	160.19367346938776	64	127
160.19367346938776	160.33301587301588	71	127
160.19367346938776	160.33301587301588	62	127
160.33301587301588	160.46072562358276	69	127
160.33301587301588	160.46072562358276	60	127
160.47233560090703	160.91351473922902	50	127
160.47233560090703	160.91351473922902	59	127
160.47233560090703	160.91351473922902	62	127
160.47233560090703	160.91351473922902	67	127
160.47233560090703	160.91351473922902	43	127
160.47233560090703	160.91351473922902	47	127
160.47233560090703	160.91351473922902	55	127
161.0528344671202	161.49401360544218	71	127
161.0528344671202	161.49401360544218	74	127
161.0528344671202	161.49401360544218	79	127
161.0528344671202	161.49401360544218	43	127
161.0528344671202	161.49401360544218	47	127
161.0528344671202	161.49401360544218	50	127
161.0528344671202	161.49401360544218	55	127
161.0528344671202	161.49401360544218	67	127
161.63333333333333	162.06290249433107	76	127
161.63333333333333	162.06290249433107	79	127
161.63333333333333	162.06290249433107	88	127
161.63333333333333	162.06290249433107	36	127
161.63333333333333	162.06290249433107	48	127
162.24866213151927	162.73628117913833	81	127
162.24866213151927	162.73628117913833	79	127
162.24866213151927	162.73628117913833	88	127
162.24866213151927	162.73628117913833	91	127
162.24866213151927	162.73628117913833	36	127
162.24866213151927	162.73628117913833	48	127
162.92204081632653	163.29356009070295	69	127
162.92204081632653	163.92049886621317	38	127
163.29356009070295	163.45609977324264	78	127
163.46768707482994	163.61861678004536	76	127
163.63024943310657	163.75795918367348	74	127
163.76954648526078	163.92049886621317	72	127
163.92049886621317	164.08303854875282	71	127
163.92049886621317	164.08303854875282	40	127
164.08303854875282	164.2339455782313	69	127
164.08303854875282	164.2339455782313	42	127
164.2455782312925	164.43133786848074	67	127
164.2455782312925	164.43133786848074	43	127
164.44294784580498	164.55904761904762	67	127
164.44294784580498	164.55904761904762	43	127
164.5706575963719	164.70997732426304	66	127
164.5706575963719	164.70997732426304	45	127
164.70997732426304	164.82607709750567	64	127
164.70997732426304	164.82607709750567	47	127
164.82607709750567	164.95378684807255	62	127
164.82607709750567	164.95378684807255	48	127
164.95378684807255	165.13954648526078	60	127
164.95378684807255	165.13954648526078	50	127
165.15113378684808	165.32530612244898	59	127
165.15113378684808	165.32530612244898	52	127
165.33691609977325	165.4762358276644	57	127
165.33691609977325	165.4762358276644	54	127
165.4762358276644	165.8825850340136	55	127
165.4762358276644	165.8825850340136	43	127
165.4762358276644	165.8825850340136	47	127
165.4762358276644	165.8825850340136	50	127
166.03351473922902	166.47469387755103	67	127
166.03351473922902	166.47469387755103	71	127
166.03351473922902	166.47469387755103	74	127
166.03351473922902	166.47469387755103	79	127
166.03351473922902	166.47469387755103	43	127
166.03351473922902	166.47469387755103	50	127
166.03351473922902	166.47469387755103	55	127
166.63721088435375	167.11324263038549	69	127
166.63721088435375	167.11324263038549	74	127
166.63721088435375	167.11324263038549	81	127
166.63721088435375	167.11324263038549	42	127
166.63721088435375	167.11324263038549	50	127
166.63721088435375	167.11324263038549	54	127
167.2641723356009	167.78662131519275	74	127
167.2641723356009	167.78662131519275	78	127
167.2641723356009	167.78662131519275	81	127
167.2641723356009	167.78662131519275	86	127
167.2641723356009	167.78662131519275	38	127
167.2641723356009	167.78662131519275	50	127
167.97238095238095	168.46	79	127
168.46	168.59931972789116	78	127
168.59931972789116	168.7386394557823	76	127
168.7386394557823	168.87795918367348	74	127
168.88956916099772	169.07532879818595	72	127
169.08691609977325	169.2146485260771	71	127
169.22625850340137	169.36557823129252	70	127
169.36557823129252	169.51650793650794	71	127
169.51650793650794	169.65582766439908	69	127
169.67904761904762	169.80673469387756	67	127
169.81836734693877	169.94607709750568	66	127
169.95766439909298	170.1085941043084	64	127
170.1085941043084	170.27115646258503	62	127
170.27115646258503	170.39886621315193	60	127
170.39886621315193	170.71233560090704	43	127
170.39886621315193	170.71233560090704	47	127
170.39886621315193	170.71233560090704	55	127
170.39886621315193	170.71233560090704	50	127
170.39886621315193	170.71233560090704	59	127
170.71233560090704	171.11868480725624	67	127
170.71233560090704	171.11868480725624	71	127
170.71233560090704	171.11868480725624	74	127
170.71233560090704	171.11868480725624	79	127
170.71233560090704	171.11868480725624	43	127
170.71233560090704	171.11868480725624	47	127
170.71233560090704	171.11868480725624	50	127
170.71233560090704	171.11868480725624	55	127
171.26961451247166	171.72240362811792	67	127
171.26961451247166	171.72240362811792	71	127
171.26961451247166	171.72240362811792	74	127
171.26961451247166	171.72240362811792	79	127
171.26961451247166	171.72240362811792	43	127
171.26961451247166	171.72240362811792	47	127
171.26961451247166	171.72240362811792	50	127
171.26961451247166	171.72240362811792	55	127
171.85009070294785	172.39578231292518	76	127
171.85009070294785	172.39578231292518	79	127
171.85009070294785	172.39578231292518	88	127
171.85009070294785	172.39578231292518	36	127
171.85009070294785	172.39578231292518	48	127
172.58154195011338	172.90662131519275	88	127
172.58154195011338	172.90662131519275	79	127
172.58154195011338	172.90662131519275	81	127
172.58154195011338	172.90662131519275	91	127
172.58154195011338	172.90662131519275	37	127
172.58154195011338	172.90662131519275	49	127
172.92984126984126	173.99793650793652	38	127
172.92984126984126	173.38260770975057	78	127
173.38260770975057	173.55678004535147	81	127
173.55678004535147	173.71931972789116	79	127
173.73092970521543	173.84702947845804	78	127
173.8586394557823	173.99793650793652	76	127
173.99793650793652	174.17210884353742	74	127
173.99793650793652	174.17210884353742	40	127
174.17210884353742	174.32303854875283	72	127
174.17210884353742	174.32303854875283	42	127
174.32303854875283	174.43913832199547	71	127
174.32303854875283	174.57845804988662	43	127
174.45074829931974	174.57845804988662	62	127
174.5900680272109	174.75260770975058	62	127
174.5900680272109	175.25183673469388	55	127
174.76419501133788	174.93836734693878	62	127
174.93836734693878	175.10090702947846	62	127
175.10090702947846	175.25183673469388	74	127
175.26344671201815	175.39115646258503	62	127
175.26344671201815	175.565306122449	41	127
175.26344671201815	175.565306122449	53	127
175.4027664399093	175.565306122449	62	127
175.57689342403629	175.86716553287982	42	127
175.57689342403629	175.86716553287982	61	127
175.57689342403629	175.86716553287982	54	127
175.8787755102041	176.2967120181406	78	127
175.8787755102041	176.2967120181406	73	127
175.8787755102041	176.2967120181406	70	127
175.8787755102041	176.2967120181406	66	127
175.8787755102041	176.2967120181406	42	127
175.8787755102041	176.2967120181406	46	127
175.8787755102041	176.2967120181406	49	127
175.8787755102041	176.2967120181406	54	127
176.43605442176872	176.92367346938775	66	127
176.43605442176872	176.92367346938775	70	127
176.43605442176872	176.92367346938775	73	127
176.43605442176872	176.92367346938775	78	127
176.43605442176872	176.92367346938775	42	127
176.43605442176872	176.92367346938775	46	127
176.43605442176872	176.92367346938775	49	127
176.43605442176872	176.92367346938775	54	127
177.0978231292517	177.55061224489796	66	127
177.0978231292517	177.55061224489796	71	127
177.0978231292517	177.55061224489796	75	127
177.0978231292517	177.55061224489796	78	127
177.0978231292517	177.55061224489796	47	127
177.0978231292517	177.55061224489796	51	127
177.0978231292517	177.55061224489796	54	127
177.0978231292517	177.55061224489796	59	127
177.70154195011338	178.06145124716554	66	127
177.70154195011338	178.06145124716554	71	127
177.70154195011338	178.06145124716554	75	127
177.70154195011338	178.06145124716554	78	127
177.70154195011338	178.06145124716554	35	127
177.70154195011338	178.06145124716554	47	127
178.06145124716554	178.5722902494331	82	127
178.06145124716554	178.5722902494331	73	127
178.58390022675738	178.7580498866213	80	127
178.58390022675738	178.7580498866213	71	127
178.7580498866213	178.89736961451248	78	127
178.7580498866213	178.89736961451248	70	127
178.89736961451248	179.0482993197279	76	127
178.89736961451248	179.0482993197279	68	127
179.0482993197279	179.17600907029478	75	127
179.0482993197279	179.17600907029478	66	127
179.18761904761905	179.31532879818593	73	127
179.18761904761905	179.31532879818593	64	127
179.33854875283447	179.44303854875284	73	127
179.33854875283447	179.44303854875284	63	127
179.4546485260771	179.61716553287982	71	127
179.4546485260771	179.61716553287982	66	127
179.61716553287982	179.75650793650794	70	127
179.61716553287982	179.75650793650794	63	127
179.75650793650794	179.88421768707482	71	127
179.75650793650794	179.88421768707482	66	127
179.8958276643991	180.03514739229024	70	127
179.8958276643991	180.03514739229024	62	127
180.0467573696145	180.22090702947847	71	127
180.0467573696145	180.22090702947847	66	127
180.22090702947847	180.36022675736962	70	127
180.22090702947847	180.36022675736962	62	127
180.36022675736962	180.55759637188208	71	127
180.36022675736962	180.55759637188208	66	127
180.55759637188208	180.95233560090702	71	127
180.55759637188208	180.95233560090702	55	127
180.55759637188208	180.95233560090702	62	127
180.55759637188208	180.95233560090702	65	127
181.0916553287982	181.55605442176872	71	127
181.0916553287982	181.55605442176872	74	127
181.0916553287982	181.55605442176872	77	127
181.0916553287982	181.55605442176872	79	127
181.0916553287982	181.55605442176872	83	127
181.0916553287982	181.55605442176872	43	127
181.0916553287982	181.55605442176872	47	127
181.0916553287982	181.55605442176872	50	127
181.0916553287982	181.55605442176872	55	127
181.69537414965987	182.1829931972789	84	127
181.69537414965987	182.1829931972789	79	127
181.69537414965987	182.1829931972789	48	127
181.69537414965987	182.1829931972789	52	127
181.69537414965987	182.1829931972789	55	127
181.69537414965987	182.1829931972789	72	127
181.69537414965987	182.1829931972789	76	127
181.69537414965987	182.1829931972789	60	127
182.33392290249432	182.90281179138321	76	127
182.33392290249432	182.90281179138321	84	127
182.33392290249432	182.90281179138321	88	127
182.33392290249432	182.90281179138321	36	127
182.33392290249432	182.90281179138321	48	127
183.0653514739229	183.62263038548753	78	127
183.0653514739229	184.12185941043083	38	127
183.62263038548753	183.77356009070294	76	127
183.77356009070294	183.9477097505669	74	127
183.95931972789117	184.12185941043083	72	127
184.15668934240364	184.30761904761906	71	127
184.15668934240364	184.30761904761906	40	127
184.30761904761906	184.45854875283447	42	127
184.30761904761906	184.45854875283447	69	127
184.45854875283447	184.58625850340135	67	127
184.45854875283447	184.72557823129253	43	127
184.58625850340135	184.72557823129253	59	127
184.73718820861677	184.8881179138322	59	127
184.73718820861677	185.03902494331066	55	127
184.73718820861677	185.03902494331066	43	127
184.89972789115646	185.03902494331066	59	127
185.05065759637188	185.3525170068027	42	127
185.05065759637188	185.21319727891157	59	127
185.05065759637188	185.3525170068027	54	127
185.21319727891157	185.3525170068027	71	127
185.3525170068027	185.53827664399094	71	127
185.3525170068027	185.68920634920636	41	127
185.3525170068027	185.68920634920636	53	127
185.54986394557824	185.68920634920636	71	127
185.70079365079366	186.11877551020407	70	127
185.70079365079366	186.11877551020407	61	127
185.70079365079366	186.11877551020407	66	127
185.70079365079366	186.11877551020407	42	127
185.70079365079366	186.11877551020407	54	127
186.28131519274376	186.75732426303856	70	127
186.28131519274376	186.75732426303856	73	127
186.28131519274376	186.75732426303856	78	127
186.28131519274376	186.75732426303856	82	127
186.28131519274376	186.75732426303856	42	127
186.28131519274376	186.75732426303856	46	127
186.28131519274376	186.75732426303856	49	127
186.28131519274376	186.75732426303856	54	127
186.91986394557824	187.40748299319728	59	127
186.91986394557824	187.40748299319728	63	127
186.91986394557824	187.40748299319728	66	127
186.91986394557824	187.40748299319728	71	127
186.91986394557824	187.40748299319728	47	127
186.91986394557824	187.40748299319728	51	127
186.91986394557824	187.40748299319728	54	127
187.5584126984127	188.06925170068027	71	127
187.5584126984127	188.06925170068027	75	127
187.5584126984127	188.06925170068027	78	127
187.5584126984127	188.06925170068027	83	127
187.5584126984127	188.06925170068027	35	127
187.5584126984127	188.06925170068027	47	127
188.24340136054423	188.78907029478458	76	127
188.24340136054423	188.78907029478458	73	127
188.80068027210885	188.94	75	127
188.80068027210885	188.94	71	127
188.95160997732427	189.12573696145125	73	127
188.95160997732427	189.12573696145125	70	127
189.12573696145125	189.27666666666667	71	127
189.12573696145125	189.27666666666667	68	127
189.27666666666667	189.40439909297052	70	127
189.27666666666667	189.40439909297052	66	127
189.40439909297052	189.54371882086167	70	127
189.40439909297052	189.54371882086167	64	127
189.55532879818594	189.71786848072563	66	127
189.55532879818594	189.71786848072563	63	127
189.7294784580499	189.86879818594105	66	127
189.7294784580499	189.86879818594105	63	127
189.86879818594105	190.042947845805	67	127
189.86879818594105	190.042947845805	64	127
190.042947845805	190.19387755102042	66	127
190.042947845805	190.19387755102042	63	127
190.19387755102042	190.34480725623584	67	127
190.19387755102042	190.34480725623584	64	127
190.35641723356008	190.49573696145126	66	127
190.35641723356008	190.49573696145126	62	127
190.5073469387755	190.64666666666668	67	127
190.5073469387755	190.64666666666668	64	127
190.65827664399092	190.7975963718821	66	127
190.65827664399092	190.7975963718821	62	127
190.7975963718821	191.0762358276644	62	127
190.7975963718821	191.0762358276644	65	127
190.7975963718821	191.0762358276644	43	127
190.7975963718821	191.0762358276644	47	127
190.7975963718821	191.0762358276644	50	127
190.7975963718821	191.0762358276644	55	127
191.0762358276644	191.55224489795918	65	127
191.0762358276644	191.55224489795918	74	127
191.0762358276644	191.55224489795918	71	127
191.0762358276644	191.55224489795918	77	127
191.0762358276644	191.55224489795918	43	127
191.0762358276644	191.55224489795918	47	127
191.0762358276644	191.55224489795918	50	127
191.0762358276644	191.55224489795918	55	127
191.72639455782314	192.1791836734694	65	127
191.72639455782314	192.1791836734694	71	127
191.72639455782314	192.1791836734694	74	127
191.72639455782314	192.1791836734694	77	127
191.72639455782314	192.1791836734694	43	127
191.72639455782314	192.1791836734694	47	127
191.72639455782314	192.1791836734694	50	127
191.72639455782314	192.1791836734694	55	127
192.35333333333332	192.81773242630385	55	127
192.35333333333332	192.81773242630385	64	127
192.35333333333332	192.81773242630385	67	127
192.35333333333332	192.81773242630385	72	127
192.35333333333332	192.81773242630385	76	127
192.35333333333332	192.81773242630385	48	127
192.35333333333332	192.81773242630385	52	127
192.35333333333332	192.81773242630385	60	127
192.9918820861678	193.40984126984128	76	127
192.9918820861678	193.40984126984128	84	127
192.9918820861678	193.40984126984128	36	127
192.9918820861678	193.40984126984128	48	127
193.4330612244898	193.9903401360544	81	127
193.4330612244898	193.9903401360544	72	127
193.9903401360544	194.18770975056688	79	127
193.9903401360544	194.18770975056688	71	127
194.18770975056688	194.39668934240362	78	127
194.18770975056688	194.39668934240362	69	127
194.4082993197279	194.5592290249433	76	127
194.4082993197279	194.5592290249433	67	127
194.5592290249433	194.73337868480726	74	127
194.5592290249433	194.73337868480726	66	127
194.74498866213153	194.95396825396824	72	127
194.74498866213153	194.95396825396824	64	127
194.95396825396824	195.17455782312925	71	127
194.95396825396824	195.17455782312925	62	127
195.2209977324263	195.48802721088435	69	127
195.2209977324263	195.48802721088435	60	127
195.49963718820862	195.6970068027211	67	127
195.49963718820862	195.6970068027211	59	127
195.6970068027211	195.9408163265306	66	127
195.6970068027211	195.9408163265306	57	127
195.95242630385488	196.27750566893425	64	127
195.95242630385488	196.27750566893425	55	127
196.27750566893425	196.63741496598638	54	127
196.27750566893425	196.63741496598638	62	127
196.63741496598638	197.11342403628117	55	127
196.63741496598638	197.11342403628117	64	127
196.63741496598638	197.11342403628117	52	127
197.14825396825398	197.69392290249434	50	127
197.14825396825398	197.69392290249434	57	127
197.14825396825398	197.69392290249434	66	127
197.7055328798186	198.97102040816327	43	127
197.7055328798186	198.97102040816327	50	127
197.7055328798186	198.97102040816327	55	127
197.7055328798186	200.07396825396825	67	127
198.99424036281178	200.07396825396825	43	127
198.99424036281178	200.07396825396825	50	127
198.99424036281178	200.07396825396825	55	127
200.08557823129252	200.22489795918366	67	127
200.08557823129252	201.38589569161	43	127
200.08557823129252	201.38589569161	50	127
200.08557823129252	201.38589569161	55	127
200.16684807256235	200.3409977324263	69	127
200.28294784580498	200.49192743764172	67	127
200.42226757369613	200.5964172335601	69	127
200.51514739229026	200.6544671201814	67	127
200.60802721088436	200.7473469387755	69	127
200.70090702947846	200.8170068027211	67	127
200.77056689342405	200.89827664399093	69	127
200.82861678004537	200.9679365079365	67	127
200.92149659863946	201.04920634920634	69	127
200.99115646258502	201.11886621315193	67	127
201.08403628117915	201.1885260770975	69	127
201.14208616780044	201.2465759637188	67	127
201.20013605442176	201.30462585034013	69	127
201.26979591836735	201.38589569161	67	127
201.32784580498867	201.49038548752836	69	127
201.43233560090704	202.5120634920635	55	127
201.43233560090704	202.5120634920635	43	127
201.43233560090704	202.5120634920635	50	127
201.43233560090704	202.93002267573695	71	127
202.53528344671201	203.6962811791383	43	127
202.53528344671201	203.6962811791383	50	127
202.53528344671201	203.6962811791383	55	127
202.75587301587302	203.15061224489796	62	127
202.94163265306122	203.34798185941042	61	127
203.18544217687074	203.52213151927438	62	127
203.37120181405896	203.6962811791383	64	127
203.53374149659865	203.90526077097505	66	127
203.71950113378685	204.1490702947846	67	127
203.71950113378685	204.9269387755102	43	127
203.71950113378685	204.9269387755102	50	127
203.71950113378685	204.9269387755102	55	127
203.9284807256236	204.38126984126984	69	127
204.21873015873015	204.54380952380953	71	127
204.40448979591838	204.76439909297054	74	127
204.56702947845804	204.9269387755102	72	127
204.78761904761905	204.9269387755102	71	127
204.95015873015873	206.16920634920635	68	127
204.95015873015873	206.16920634920635	42	127
204.95015873015873	206.16920634920635	50	127
204.95015873015873	206.16920634920635	54	127
206.1924263038549	209.22263038548752	69	127
206.1924263038549	207.38825396825396	42	127
206.1924263038549	207.38825396825396	50	127
206.1924263038549	207.38825396825396	54	127
207.4114739229025	208.56086167800453	42	127
207.4114739229025	208.56086167800453	50	127
207.4114739229025	208.56086167800453	54	127
208.5724716553288	209.81473922902495	54	127
208.5724716553288	209.81473922902495	42	127
208.5724716553288	209.81473922902495	50	127
209.2342403628118	209.61736961451248	73	127
209.43160997732426	209.81473922902495	76	127
209.640589569161	210.01210884353742	74	127
209.8263492063492	210.19786848072562	73	127
209.8263492063492	210.98734693877552	42	127
209.8263492063492	210.98734693877552	50	127
209.8263492063492	210.98734693877552	54	127
210.0469387755102	210.40684807256235	76	127
210.23269841269843	210.56938775510204	74	127
210.4300680272109	210.78997732426305	73	127
210.62743764172336	210.98734693877552	76	127
210.81319727891156	211.17310657596371	74	127
211.0221768707483	211.44013605442177	71	127
211.0221768707483	212.1483446712018	42	127
211.0221768707483	212.1483446712018	50	127
211.0221768707483	212.1483446712018	54	127
211.19632653061225	211.61428571428573	74	127
211.46335600907028	211.80004535147393	72	127
211.63750566893424	211.98580498866212	71	127
211.8348752834467	212.1483446712018	74	127
211.9974149659864	212.1483446712018	72	127
212.17156462585035	213.29773242630387	70	127
212.17156462585035	213.29773242630387	42	127
212.17156462585035	213.29773242630387	50	127
212.17156462585035	213.29773242630387	54	127
213.32095238095238	214.67931972789117	71	127
213.32095238095238	214.67931972789117	55	127
213.32095238095238	214.67931972789117	50	127
213.32095238095238	214.67931972789117	43	127
214.54	216.0492970521542	83	127
214.70253968253968	215.87514739229024	43	127
214.70253968253968	215.87514739229024	55	127
214.70253968253968	215.87514739229024	50	127
215.89836734693878	216.9548752834467	55	127
215.89836734693878	216.9548752834467	50	127
215.89836734693878	216.9548752834467	43	127
216.0725170068027	216.3975963718821	71	127
216.24666666666667	216.60657596371883	69	127
216.4208163265306	216.79233560090702	71	127
216.6414058956916	216.9548752834467	72	127
216.81555555555556	217.1406349206349	73	127
216.97809523809525	217.3031746031746	74	127
216.97809523809525	218.0926530612245	62	127
216.97809523809525	218.0926530612245	59	127
217.16385487528345	217.55859410430838	75	127
217.32639455782314	217.75596371882085	76	127
217.57020408163265	217.91850340136054	77	127
217.7791836734694	218.0926530612245	78	127
217.94172335600908	218.4061224489796	79	127
218.12748299319728	218.48739229024943	80	127
218.12748299319728	219.26526077097506	55	127
218.12748299319728	219.26526077097506	59	127
218.38290249433106	218.62671201814058	81	127
218.51061224489797	218.7544217687075	82	127
218.64993197278912	218.88213151927437	83	127
218.76603174603176	219.00984126984127	84	127
218.9053514739229	219.13755102040815	85	127
219.03306122448978	219.26526077097506	86	127
219.1607709750567	219.26526077097506	83	127
219.28848072562357	220.50752834467121	83	127
219.28848072562357	220.50752834467121	50	127
219.28848072562357	220.50752834467121	55	127
219.28848072562357	220.50752834467121	59	127
220.53074829931973	221.8310657596372	50	127
220.53074829931973	220.67006802721087	81	127
220.53074829931973	221.8310657596372	54	127
220.53074829931973	221.8310657596372	57	127
220.62362811791382	220.7281179138322	83	127
220.68167800453514	220.79777777777778	81	127
220.762947845805	220.86743764172334	83	127
220.8209977324263	220.93709750566893	81	127
220.89065759637188	221.1112471655329	83	127
220.96031746031747	221.2273469387755	81	127
221.18090702947845	221.28539682539682	83	127
221.25056689342404	221.37827664399094	81	127
221.30861678004536	221.50598639455782	83	127
221.424716553288	221.56403628117914	81	127
221.52920634920636	221.63369614512473	83	127
221.58725623582765	221.69174603174602	81	127
221.65691609977324	221.7614058956916	83	127
221.71496598639456	221.8310657596372	81	127
221.77301587301588	222.3999546485261	83	127
221.90072562358276	223.63061224489795	57	127
221.90072562358276	222.62054421768707	81	127
221.90072562358276	223.63061224489795	50	127
221.90072562358276	223.63061224489795	54	127
221.90072562358276	223.63061224489795	62	127
222.53927437641724	222.71342403628117	83	127
222.66698412698412	222.79469387755103	81	127
222.7366439909297	222.91079365079366	83	127
222.8063038548753	222.96884353741495	81	127
222.93401360544217	223.07333333333332	83	127
222.9920634920635	223.13138321995464	81	127
223.0849433106576	223.18943310657596	83	127
223.15460317460318	223.25909297052155	81	127
223.2126530612245	223.31714285714287	83	127
223.28231292517006	223.38680272108843	81	127
223.34036281179138	223.44485260770975	83	127
223.3984126984127	223.50290249433107	81	127
223.4680725623583	223.57256235827666	83	127
223.52612244897958	223.63061224489795	81	127
223.59578231292517	223.79315192743763	83	127
223.65383219954649	223.897641723356	81	127
223.65383219954649	233.1972335600907	54	127
223.65383219954649	233.1972335600907	50	127
223.65383219954649	233.1972335600907	60	127
223.65383219954649	233.1972335600907	57	127
223.83959183673468	224.40848072562358	83	127
224.32721088435375	224.80321995464854	81	127
224.57102040816326	224.89609977324264	83	127
224.81482993197278	224.97736961451247	81	127
224.9425396825397	225.07024943310657	83	127
225.02380952380952	225.13990929705216	81	127
225.10507936507938	225.20956916099775	83	127
225.16312925170067	225.26761904761904	81	127
225.221179138322	225.32566893424035	83	127
225.29083900226757	225.39532879818594	81	127
225.3488888888889	225.441768707483	83	127
225.41854875283445	225.51142857142858	81	127
225.46498866213153	225.5694784580499	83	127
225.52303854875282	225.6275283446712	81	127
225.5926984126984	225.6855782312925	83	127
225.65074829931973	225.74362811791383	81	127
225.69718820861678	225.80167800453515	83	127
225.76684807256237	225.87133786848074	81	127
225.8248979591837	225.92938775510203	83	127
225.89455782312925	225.99904761904762	81	127
225.95260770975057	226.05709750566893	83	127
226.01065759637189	226.11514739229025	81	127
226.08031746031747	226.1848072562358	83	127
226.13836734693876	226.24285714285713	81	127
226.20802721088435	226.30090702947845	83	127
226.26607709750567	226.37056689342404	81	127
226.324126984127	226.42861678004536	83	127
226.39378684807255	226.49827664399092	81	127
226.45183673469387	226.5679365079365	83	127
226.52149659863946	226.62598639455783	81	127
226.59115646258505	226.6956462585034	83	127
226.64920634920634	226.8814058956916	84	127
226.77691609977325	227.0091156462585	83	127
226.90462585034012	227.1368253968254	82	127
227.03233560090703	227.27614512471655	81	127
227.1600453514739	227.40385487528346	80	127
227.34580498866214	227.60122448979592	79	127
227.53156462585034	227.7985941043084	78	127
227.71732426303853	228.0424036281179	84	127
227.87986394557822	228.17011337868482	83	127
228.06562358276645	228.32104308390024	82	127
228.19333333333333	228.44875283446711	81	127
228.33265306122448	228.58807256235826	80	127
228.5184126984127	228.75061224489795	79	127
228.6809523809524	229.017641723356	78	127
228.85510204081632	229.1801814058957	84	127
229.09891156462584	229.35433106575962	83	127
229.2034013605442	229.458820861678	82	127
229.3659410430839	229.5865306122449	81	127
229.47043083900226	229.71424036281178	80	127
229.6561904761905	229.85356009070296	79	127
229.8071201814059	230.25990929705216	78	127
230.05092970521542	230.48049886621314	84	127
230.3992290249433	230.5849886621315	83	127
230.4921088435374	230.8404081632653	82	127
230.68947845804988	230.92167800453515	81	127
230.86362811791383	231.10743764172335	80	127
230.9681179138322	231.20031746031745	79	127
231.1538775510204	231.5021768707483	78	127
231.42090702947846	231.58344671201814	77	127
231.54861678004536	231.65310657596373	76	127
231.5950566893424	231.74598639455783	75	127
231.6879365079365	231.88530612244898	74	127
231.80403628117915	231.9665759637188	73	127
231.90852607709752	232.15233560090704	72	127
231.98979591836735	232.28004535147392	71	127
232.18716553287982	232.39614512471655	70	127
232.29165532879819	232.55868480725624	69	127
232.4193650793651	232.63995464852607	68	127
232.58190476190475	232.73283446712017	67	127
232.6631746031746	233.1972335600907	66	127
238.02698412698413	238.6307029478458	50	127
238.02698412698413	239.8265306122449	54	127
238.02698412698413	239.8265306122449	57	127
238.02698412698413	239.8265306122449	38	127
238.71197278911563	239.8265306122449	48	127
239.84975056689342	241.0571882086168	50	127
239.84975056689342	241.0571882086168	55	127
239.84975056689342	241.0571882086168	59	127
239.84975056689342	241.0571882086168	43	127
239.84975056689342	241.0571882086168	47	127
241.06879818594103	242.19496598639455	50	127
241.06879818594103	242.19496598639455	59	127
241.06879818594103	242.19496598639455	62	127
241.06879818594103	242.19496598639455	43	127
241.06879818594103	242.19496598639455	55	127
242.20657596371882	243.2514739229025	62	127
242.20657596371882	243.2514739229025	55	127
242.20657596371882	243.2514739229025	50	127
242.20657596371882	243.2514739229025	43	127
242.20657596371882	243.2514739229025	59	127
243.27469387755102	244.36603174603175	59	127
243.27469387755102	244.36603174603175	62	127
243.27469387755102	244.36603174603175	43	127
243.27469387755102	244.36603174603175	50	127
243.27469387755102	244.36603174603175	55	127
244.38925170068026	245.87532879818593	55	127
244.38925170068026	245.87532879818593	59	127
244.38925170068026	245.87532879818593	62	127
244.38925170068026	245.87532879818593	43	127
244.38925170068026	245.87532879818593	50	127
245.89854875283447	247.2685260770975	55	127
245.89854875283447	247.2685260770975	62	127
245.89854875283447	247.2685260770975	67	127
245.89854875283447	247.2685260770975	47	127
245.89854875283447	247.2685260770975	50	127
247.29174603174604	248.4643537414966	52	127
247.29174603174604	248.4643537414966	64	127
247.29174603174604	248.4643537414966	67	127
247.29174603174604	248.4643537414966	48	127
247.29174603174604	248.4643537414966	55	127
248.48757369614512	249.8807709750567	52	127
248.48757369614512	249.8807709750567	64	127
248.48757369614512	249.8807709750567	67	127
248.48757369614512	249.8807709750567	48	127
248.48757369614512	249.8807709750567	55	127
249.9039909297052	250.9488888888889	55	127
249.9039909297052	250.9488888888889	64	127
249.9039909297052	250.9488888888889	67	127
249.9039909297052	250.9488888888889	48	127
249.9039909297052	250.9488888888889	52	127
250.96049886621316	252.13310657596372	55	127
250.96049886621316	252.13310657596372	49	127
250.96049886621316	252.13310657596372	52	127
250.96049886621316	252.13310657596372	57	127
250.96049886621316	252.13310657596372	64	127
250.96049886621316	252.13310657596372	67	127
252.15632653061223	253.20122448979592	55	127
252.15632653061223	253.20122448979592	49	127
252.15632653061223	253.20122448979592	52	127
252.15632653061223	253.20122448979592	57	127
252.15632653061223	253.20122448979592	64	127
252.15632653061223	253.20122448979592	67	127
253.22444444444446	254.47832199546485	52	127
253.22444444444446	254.47832199546485	49	127
253.22444444444446	254.47832199546485	55	127
253.22444444444446	254.47832199546485	57	127
253.22444444444446	254.47832199546485	64	127
253.22444444444446	254.47832199546485	67	127
254.5015419501134	255.79024943310657	50	127
254.5015419501134	255.79024943310657	57	127
254.5015419501134	255.79024943310657	62	127
254.5015419501134	255.79024943310657	67	127
254.5015419501134	255.79024943310657	55	127
255.80185941043084	257.02090702947845	57	127
255.80185941043084	257.02090702947845	62	127
255.80185941043084	257.02090702947845	67	127
255.80185941043084	257.02090702947845	50	127
255.80185941043084	257.02090702947845	55	127
257.09054421768707	258.34444444444443	62	127
257.09054421768707	258.34444444444443	67	127
257.09054421768707	258.34444444444443	57	127
257.09054421768707	258.34444444444443	50	127
257.09054421768707	258.34444444444443	55	127
258.367664399093	259.7724716553288	66	127
258.367664399093	259.7724716553288	57	127
258.367664399093	259.7724716553288	62	127
258.367664399093	259.7724716553288	50	127
258.367664399093	259.7724716553288	54	127
258.367664399093	259.7724716553288	60	127
259.7956916099773	260.9798866213152	60	127
259.7956916099773	260.9798866213152	50	127
259.7956916099773	260.9798866213152	38	127
259.7956916099773	260.9798866213152	66	127
259.7956916099773	260.9798866213152	62	127
259.7956916099773	260.9798866213152	57	127
261.1308390022676	262.2221768707483	57	127
261.1308390022676	262.2221768707483	60	127
261.1308390022676	262.2221768707483	62	127
261.1308390022676	262.2221768707483	66	127
261.1308390022676	262.2221768707483	38	127
261.1308390022676	262.2221768707483	50	127
262.2453968253968	263.8824036281179	67	127
262.2453968253968	263.8824036281179	43	127
262.2453968253968	263.8824036281179	59	127
262.2453968253968	263.8824036281179	62	127
262.2453968253968	263.8824036281179	50	127
263.8940136054422	265.32204081632653	62	127
263.8940136054422	265.32204081632653	59	127
263.8940136054422	265.32204081632653	67	127
263.8940136054422	265.32204081632653	55	127
263.8940136054422	265.32204081632653	43	127
263.8940136054422	265.32204081632653	47	127
263.8940136054422	265.32204081632653	50	127
265.3336507936508	266.4598185941043	47	127
265.3336507936508	266.4598185941043	67	127
265.3336507936508	266.4598185941043	43	127
265.3336507936508	266.4598185941043	55	127
265.3336507936508	266.4598185941043	50	127
265.3336507936508	266.4598185941043	59	127
265.3336507936508	266.4598185941043	62	127
266.5875283446712	267.66725623582767	50	127
266.5875283446712	267.66725623582767	59	127
266.5875283446712	267.66725623582767	62	127
266.5875283446712	267.66725623582767	67	127
266.5875283446712	267.66725623582767	43	127
266.5875283446712	267.66725623582767	47	127
266.5875283446712	267.66725623582767	55	127
267.6904761904762	268.99079365079365	42	127
267.6904761904762	268.99079365079365	71	127
267.6904761904762	268.99079365079365	54	127
269.0140136054422	270.44204081632654	41	127
269.0140136054422	270.44204081632654	71	127
269.0140136054422	270.44204081632654	53	127
270.47687074829935	271.5798185941043	54	127
270.47687074829935	271.5798185941043	42	127
270.47687074829935	272.2648072562358	70	127
271.5914285714286	272.79886621315194	64	127
271.5914285714286	272.79886621315194	54	127
271.5914285714286	272.79886621315194	61	127
272.2648072562358	272.5318140589569	71	127
272.5550566893424	272.79886621315194	73	127
272.83367346938775	273.8785941043084	64	127
272.83367346938775	273.3445124716553	66	127
272.83367346938775	273.8785941043084	61	127
272.83367346938775	273.8785941043084	54	127
273.3445124716553	273.57673469387754	68	127
273.5999546485261	273.8785941043084	70	127
273.9018140589569	274.92349206349206	64	127
273.9018140589569	274.4474829931973	70	127
273.9018140589569	274.92349206349206	54	127
273.9018140589569	274.92349206349206	61	127
274.4474829931973	274.6796598639456	71	127
274.6912925170068	274.92349206349206	73	127
274.9467120181406	275.98	61	127
274.9467120181406	275.46916099773244	76	127
274.9467120181406	275.98	54	127
274.9467120181406	275.98	58	127
275.492358276644	275.7245804988662	75	127
275.7361904761905	275.98	73	127
276.09609977324266	277.23385487528344	61	127
276.09609977324266	276.68820861678006	76	127
276.09609977324266	277.23385487528344	54	127
276.09609977324266	277.23385487528344	58	127
276.7114285714286	276.9784580498866	75	127
277.00167800453517	277.23385487528344	73	127
277.2570975056689	278.8012244897959	71	127
277.2570975056689	278.2671655328798	54	127
277.2570975056689	278.2671655328798	59	127
277.2570975056689	278.2671655328798	63	127
278.29038548752834	279.3120634920635	54	127
278.29038548752834	279.3120634920635	66	127
278.29038548752834	279.3120634920635	63	127
278.8128344671202	279.04503401360546	73	127
279.068231292517	279.3120634920635	75	127
279.335283446712	280.27569160997734	63	127
279.335283446712	279.77646258503404	66	127
279.335283446712	280.27569160997734	54	127
279.335283446712	280.27569160997734	59	127
279.7880498866213	280.0202721088435	68	127
280.04349206349207	280.27569160997734	70	127
280.3105215419501	281.2857596371882	63	127
280.3105215419501	280.7865306122449	71	127
280.3105215419501	281.2857596371882	54	127
280.3105215419501	281.2857596371882	59	127
280.82136054421767	281.0419501133787	73	127
281.0651700680272	281.2857596371882	75	127
281.30897959183676	282.3538775510204	54	127
281.30897959183676	281.81981859410433	78	127
281.30897959183676	282.3538775510204	59	127
281.30897959183676	282.3538775510204	63	127
281.8430385487528	282.08684807256236	76	127
282.1100680272109	282.3538775510204	75	127
282.3770975056689	283.4219954648526	63	127
282.3770975056689	282.89954648526077	78	127
282.3770975056689	283.4219954648526	54	127
282.3770975056689	283.4219954648526	59	127
282.9227664399093	283.16655328798186	75	127
283.17818594104307	283.4219954648526	71	127
283.4684126984127	284.5597732426304	54	127
283.4684126984127	284.5597732426304	61	127
283.4684126984127	284.5597732426304	64	127
283.4684126984127	285.0590022675737	70	127
284.58299319727894	285.5698412698413	54	127
284.58299319727894	285.5698412698413	61	127
284.58299319727894	285.5698412698413	64	127
285.08222222222224	285.3143990929705	71	127
285.337641723356	285.5698412698413	73	127
285.5930612244898	286.54507936507935	61	127
285.5930612244898	286.0574603174603	66	127
285.5930612244898	286.54507936507935	54	127
285.5930612244898	286.54507936507935	64	127
286.08068027210885	286.3128798185941	68	127
286.33607709750567	286.54507936507935	70	127
286.5566893424036	287.62480725623584	64	127
286.5566893424036	287.102358276644	70	127
286.5566893424036	287.62480725623584	54	127
286.5566893424036	287.62480725623584	61	127
287.11396825396827	287.34616780045354	71	127
287.3809977324263	287.62480725623584	73	127
287.6364172335601	288.6812925170068	61	127
287.6364172335601	288.1704535147392	76	127
287.6364172335601	288.6812925170068	54	127
287.6364172335601	288.6812925170068	58	127
288.1936961451247	288.4142857142857	75	127
288.43750566893425	288.6812925170068	73	127
288.7393650793651	289.76104308390023	61	127
288.7393650793651	289.25020408163266	76	127
288.7393650793651	289.76104308390023	54	127
288.7393650793651	289.76104308390023	58	127
289.2734240362812	289.4939909297052	75	127
289.5172335600907	289.76104308390023	73	127
289.8074603174603	291.07297052154195	63	127
289.8074603174603	289.97002267573697	71	127
289.8074603174603	291.07297052154195	54	127
289.8074603174603	291.07297052154195	59	127
289.87714285714287	290.02807256235826	73	127
289.9932426303855	290.10931972789115	71	127
290.0512925170068	290.3067120181406	73	127
290.13256235827663	290.38798185941044	71	127
290.34154195011337	290.4692517006803	73	127
290.42278911564625	290.5272789115646	71	127
290.48086167800454	290.60857142857145	73	127
290.5621315192744	290.678231292517	71	127
290.63179138321993	290.7362811791383	73	127
290.70145124716555	290.82913832199546	71	127
290.75950113378684	290.88721088435375	73	127
290.84077097505667	290.94526077097504	71	127
290.9104308390023	291.01492063492066	73	127
290.9684807256236	291.07297052154195	71	127
291.0381179138322	291.2122902494331	73	127
291.1542403628118	293.29047619047617	63	127
291.1542403628118	291.3632199546485	71	127
291.1542403628118	293.29047619047617	54	127
291.1542403628118	293.29047619047617	59	127
291.3167800453515	292.02498866213153	73	127
291.9901587301587	292.1759183673469	71	127
292.10625850340136	292.24557823129254	73	127
292.1875283446712	292.46614512471655	71	127
292.268798185941	292.55904761904765	73	127
292.51260770975057	292.61709750566894	71	127
292.58226757369613	292.83768707482994	73	127
292.6751247165533	292.89573696145123	71	127
292.8492970521542	292.96539682539685	73	127
292.93056689342404	293.0466666666667	71	127
292.98861678004533	293.104716553288	73	127
293.05827664399095	293.1627664399093	71	127
293.1279365079365	293.2324263038549	73	127
293.18596371882086	293.29047619047617	71	127
293.2556462585034	293.4181859410431	73	127
293.3601360544218	294.66045351473923	54	127
293.3601360544218	293.4994557823129	71	127
293.3601360544218	294.66045351473923	63	127
293.3601360544218	294.66045351473923	59	127
293.42979591836735	293.59231292517006	73	127
293.5342857142857	293.7548752834467	71	127
293.70843537414964	293.812925170068	73	127
293.77809523809526	293.9058049886621	71	127
293.83614512471655	293.97546485260773	73	127
293.9174149659864	294.033514739229	71	127
293.99866213151927	294.14961451247166	73	127
294.0683446712018	294.2308843537415	71	127
294.1728344671202	294.28893424036283	73	127
294.25410430839	294.3585941043084	71	127
294.3121541950113	294.42825396825396	73	127
294.38181405895693	294.4979138321996	71	127
294.4514739229025	294.55596371882086	73	127
294.50950113378684	294.66045351473923	71	127
294.5791836734694	294.7649433106576	73	127
294.69528344671204	306.34009070294786	55	127
294.69528344671204	306.34009070294786	63	127
294.69528344671204	294.93909297052153	71	127
294.69528344671204	306.34009070294786	59	127
294.9042630385488	295.05519274376417	72	127
294.9971428571429	295.136462585034	71	127
295.06680272108844	295.25256235827663	72	127
295.2061224489796	295.4034920634921	71	127
295.2757823129252	295.47315192743764	72	127
295.41510204081635	295.531179138322	71	127
295.4963718820862	295.6124716553288	72	127
295.55442176870747	295.6705215419501	71	127
295.63566893424036	295.8330385487528	72	127
295.72857142857146	295.9259410430839	71	127
295.8446485260771	295.9956009070295	72	127
295.9491609977324	296.0768707482993	71	127
296.0304308390023	296.19297052154195	72	127
296.15814058956914	296.2742403628118	71	127
296.23941043083903	296.37873015873015	72	127
296.32068027210886	296.44836734693877	71	127
296.4019501133787	296.5180498866213	72	127
296.47160997732425	296.59931972789116	71	127
296.5296598639456	296.7734693877551	72	127
296.73863945578233	296.854716553288	71	127
296.7966893424036	296.91278911564626	72	127
296.87795918367345	296.9824489795918	71	127
296.9360090702948	297.0753287981859	72	127
297.00566893424036	297.13337868480727	71	127
297.09854875283446	297.22625850340137	72	127
297.1681859410431	297.2959183673469	71	127
297.2610884353742	297.3539682539683	72	127
297.31913832199547	297.4700453514739	71	127
297.42362811791384	297.5281179138322	72	127
297.4932879818594	297.77192743764175	71	127
297.55133786848074	297.82997732426304	72	127
297.783514739229	298.1318367346939	77	127
297.9925170068027	298.27115646258505	76	127
298.1550566893424	298.4104761904762	75	127
298.3059863945578	298.5381859410431	74	127
298.42208616780044	298.73555555555555	73	127
298.66589569161	299.08385487528346	72	127
298.8748752834467	299.2580045351474	71	127
299.18834467120183	299.4321541950113	77	127
299.31603174603174	299.68757369614514	76	127
299.54825396825396	299.81528344671204	75	127
299.7107936507937	299.95460317460316	74	127
299.87333333333333	300.0707029478458	73	127
300.0242403628118	300.210022675737	72	127
300.15197278911563	300.3957823129252	71	127
300.3261224489796	300.6047619047619	77	127
300.477052154195	300.7556916099773	76	127
300.6395691609977	300.918231292517	75	127
300.7673015873016	301.03433106575966	74	127
300.94145124716556	301.1504081632653	73	127
301.1039909297052	301.37102040816325	72	127
301.2665306122449	301.7889795918367	71	127
301.49873015873015	301.85863945578234	77	127
301.800589569161	301.9631292517007	76	127
301.8818594104308	302.1488888888889	75	127
301.99795918367346	302.23015873015873	74	127
302.1604988662132	302.45074829931974	73	127
302.26498866213154	302.7061678004535	72	127
302.49718820861676	302.91514739229024	71	127
302.71777777777777	303.00802721088434	70	127
302.9267573696145	303.1937641723356	69	127
303.04285714285714	303.4724263038549	68	127
303.20537414965986	303.565306122449	67	127
303.5188662131519	303.6581859410431	66	127
303.6001360544218	303.8439455782313	65	127
303.6814058956916	303.99487528344673	64	127
303.85555555555555	304.3780045351474	63	127
304.04131519274375	304.52891156462584	62	127
304.40122448979594	304.7030839002268	61	127
304.5521541950113	304.86562358276643	60	127
304.77274376417233	306.34009070294786	59	127
309.78825396825397	311.2162811791383	50	127
309.78825396825397	311.2162811791383	62	127
309.78825396825397	311.2162811791383	65	127
309.78825396825397	311.2162811791383	43	127
309.78825396825397	311.2162811791383	53	127
309.78825396825397	311.2162811791383	59	127
311.23950113378686	312.47015873015874	53	127
311.23950113378686	312.47015873015874	59	127
311.23950113378686	312.47015873015874	62	127
311.23950113378686	312.47015873015874	65	127
311.23950113378686	312.47015873015874	43	127
311.23950113378686	312.47015873015874	50	127
312.4933786848073	313.68920634920636	59	127
312.4933786848073	313.68920634920636	62	127
312.4933786848073	313.68920634920636	65	127
312.4933786848073	313.68920634920636	43	127
312.4933786848073	313.68920634920636	50	127
312.4933786848073	313.68920634920636	53	127
313.7124263038549	314.79215419501134	53	127
313.7124263038549	314.79215419501134	43	127
313.7124263038549	314.79215419501134	50	127
313.7124263038549	314.79215419501134	59	127
313.7124263038549	314.79215419501134	62	127
313.7124263038549	314.79215419501134	65	127
314.82698412698414	316.01120181405895	59	127
314.82698412698414	316.01120181405895	55	127
314.82698412698414	316.01120181405895	62	127
314.82698412698414	316.01120181405895	67	127
314.82698412698414	316.01120181405895	43	127
314.82698412698414	316.01120181405895	50	127
314.82698412698414	316.01120181405895	53	127
316.0344217687075	317.0677097505669	53	127
316.0344217687075	317.0677097505669	41	127
316.0344217687075	317.0677097505669	50	127
316.0344217687075	317.0677097505669	55	127
316.0344217687075	317.0677097505669	59	127
316.0344217687075	317.0677097505669	62	127
316.0344217687075	317.0677097505669	67	127
317.160589569161	318.22868480725623	50	127
317.160589569161	318.22868480725623	67	127
317.160589569161	318.22868480725623	55	127
317.160589569161	318.22868480725623	62	127
317.160589569161	318.22868480725623	41	127
317.160589569161	318.22868480725623	53	127
317.160589569161	318.22868480725623	59	127
318.2519274376417	319.35485260770974	52	127
318.2519274376417	319.35485260770974	55	127
318.2519274376417	319.35485260770974	60	127
318.2519274376417	319.35485260770974	67	127
318.2519274376417	319.35485260770974	40	127
318.2519274376417	319.35485260770974	48	127
319.3897052154195	320.5623129251701	60	127
319.3897052154195	320.5623129251701	55	127
319.3897052154195	320.5623129251701	64	127
319.3897052154195	320.5623129251701	36	127
319.3897052154195	320.5623129251701	48	127
320.57390022675736	321.6884807256236	36	127
320.57390022675736	321.6884807256236	52	127
320.57390022675736	321.6884807256236	60	127
320.57390022675736	321.6884807256236	64	127
320.57390022675736	321.6884807256236	48	127
321.7117006802721	322.721746031746	36	127
321.7117006802721	322.721746031746	52	127
321.7117006802721	322.721746031746	60	127
321.7117006802721	322.721746031746	64	127
321.7117006802721	322.721746031746	48	127
322.7449886621315	323.9640362811791	45	127
322.7449886621315	323.9640362811791	52	127
322.7449886621315	323.9640362811791	60	127
322.7449886621315	323.9640362811791	64	127
322.7449886621315	323.9640362811791	33	127
323.9988662131519	325.0785714285714	52	127
323.9988662131519	325.0785714285714	60	127
323.9988662131519	325.0785714285714	64	127
323.9988662131519	325.0785714285714	33	127
323.9988662131519	325.0785714285714	45	127
325.1366439909297	326.3324716553288	45	127
325.1366439909297	326.3324716553288	33	127
325.1366439909297	326.3324716553288	52	127
325.1366439909297	326.3324716553288	60	127
325.1366439909297	326.3324716553288	64	127
326.3556916099773	327.7256689342404	50	127
326.3556916099773	327.7256689342404	54	127
326.3556916099773	327.7256689342404	57	127
326.3556916099773	327.7256689342404	60	127
326.3556916099773	327.7256689342404	38	127
327.74888888888887	329.37426303854875	54	127
327.74888888888887	329.37426303854875	50	127
327.74888888888887	329.37426303854875	38	127
327.74888888888887	329.37426303854875	60	127
327.74888888888887	329.37426303854875	57	127
329.38589569160996	330.55850340136055	54	127
329.38589569160996	330.55850340136055	57	127
329.38589569160996	330.55850340136055	50	127
329.38589569160996	330.55850340136055	38	127
329.38589569160996	330.55850340136055	60	127
330.5817233560091	331.8007709750567	54	127
330.5817233560091	331.8007709750567	38	127
330.5817233560091	331.8007709750567	57	127
330.5817233560091	331.8007709750567	50	127
330.5817233560091	331.8007709750567	60	127
331.88204081632654	332.97337868480724	38	127
331.88204081632654	332.97337868480724	54	127
331.88204081632654	332.97337868480724	57	127
331.88204081632654	332.97337868480724	60	127
331.88204081632654	332.97337868480724	50	127
333.00820861678005	334.09954648526076	54	127
333.00820861678005	334.09954648526076	57	127
333.00820861678005	334.09954648526076	60	127
333.00820861678005	334.09954648526076	50	127
333.00820861678005	334.09954648526076	38	127
334.13437641723357	335.655283446712	38	127
334.13437641723357	335.655283446712	54	127
334.13437641723357	335.655283446712	57	127
334.13437641723357	335.655283446712	60	127
334.13437641723357	335.655283446712	50	127
335.6901133786848	336.8511111111111	60	127
335.6901133786848	335.86426303854876	74	127
335.6901133786848	336.8511111111111	50	127
335.6901133786848	336.8511111111111	54	127
335.6901133786848	336.8511111111111	57	127
335.89909297052156	336.08485260770976	71	127
336.1080725623583	336.2473922902494	72	127
336.27061224489796	336.4447619047619	76	127
336.46798185941043	336.64213151927436	75	127
336.6653514739229	336.8511111111111	74	127
336.87433106575963	338.0701587301587	57	127
336.87433106575963	338.0701587301587	72	127
336.87433106575963	338.0701587301587	50	127
336.87433106575963	338.0701587301587	54	127
336.87433106575963	338.0701587301587	60	127
338.1049886621315	339.32403628117913	57	127
338.1049886621315	339.32403628117913	50	127
338.1049886621315	339.32403628117913	54	127
338.1049886621315	339.32403628117913	60	127
339.3356462585034	340.51984126984127	50	127
339.3356462585034	340.51984126984127	54	127
339.3356462585034	340.51984126984127	57	127
339.3356462585034	340.51984126984127	60	127
339.3356462585034	340.51984126984127	38	127
340.54308390022675	341.62281179138324	55	127
340.54308390022675	341.62281179138324	59	127
340.54308390022675	341.62281179138324	38	127
340.54308390022675	341.62281179138324	50	127
341.6460090702948	343.02761904761905	50	127
341.6460090702948	343.02761904761905	55	127
341.6460090702948	343.02761904761905	59	127
341.6460090702948	343.02761904761905	38	127
343.0508390022676	344.2814965986395	58	127
343.0508390022676	343.30625850340135	72	127
343.0508390022676	344.2814965986395	50	127
343.0508390022676	344.2814965986395	55	127
343.3294784580499	343.5152380952381	69	127
343.56167800453517	343.7009977324263	70	127
343.7242176870748	343.88673469387754	74	127
343.89836734693876	344.0492970521542	73	127
344.07251700680274	344.2814965986395	72	127
344.304693877551	345.3728344671202	55	127
344.304693877551	345.3728344671202	71	127
344.304693877551	345.3728344671202	50	127
344.304693877551	345.3728344671202	58	127
345.3960544217687	346.7195918367347	38	127
345.3960544217687	346.7195918367347	55	127
345.3960544217687	346.7195918367347	59	127
345.3960544217687	346.7195918367347	50	127
346.74281179138325	348.06634920634923	38	127
346.74281179138325	348.06634920634923	54	127
346.74281179138325	348.06634920634923	56	127
346.74281179138325	348.06634920634923	50	127
346.74281179138325	348.06634920634923	58	127
346.74281179138325	348.06634920634923	46	127
348.101179138322	349.2621768707483	54	127
348.101179138322	349.2621768707483	56	127
348.101179138322	349.2621768707483	58	127
348.101179138322	349.2621768707483	38	127
348.101179138322	349.2621768707483	46	127
348.101179138322	349.2621768707483	50	127
349.28539682539684	350.65537414965985	50	127
349.28539682539684	350.65537414965985	54	127
349.28539682539684	350.65537414965985	56	127
349.28539682539684	350.65537414965985	58	127
349.28539682539684	350.65537414965985	38	127
349.28539682539684	350.65537414965985	46	127
350.6785941043084	351.79315192743763	46	127
350.6785941043084	350.82952380952383	70	127
350.6785941043084	351.79315192743763	38	127
350.6785941043084	351.79315192743763	50	127
350.8527437641723	351.00367346938776	67	127
351.0268934240363	351.18943310657596	68	127
351.2126530612245	351.4332426303855	72	127
351.45643990929705	351.6190022675737	70	127
351.630612244898	351.79315192743763	68	127
351.8163718820862	352.8032199546485	39	127
351.8163718820862	352.8032199546485	67	127
351.8163718820862	352.8032199546485	46	127
351.8163718820862	352.8032199546485	51	127
352.82643990929705	354.1615873015873	39	127
352.82643990929705	354.1615873015873	55	127
352.82643990929705	354.1615873015873	58	127
352.82643990929705	354.1615873015873	46	127
352.82643990929705	354.1615873015873	51	127
354.18480725623584	355.68249433106575	51	127
354.18480725623584	355.68249433106575	55	127
354.18480725623584	355.68249433106575	58	127
354.18480725623584	355.68249433106575	46	127
354.18480725623584	355.68249433106575	39	127
355.71732426303856	356.797052154195	56	127
355.71732426303856	356.797052154195	58	127
355.71732426303856	356.797052154195	46	127
355.71732426303856	356.797052154195	50	127
356.80866213151927	358.0277097505669	46	127
356.80866213151927	358.0277097505669	53	127
356.80866213151927	358.0277097505669	56	127
356.80866213151927	358.0277097505669	58	127
356.80866213151927	358.0277097505669	62	127
356.80866213151927	358.0277097505669	34	127
358.03931972789115	359.3396371882086	53	127
358.03931972789115	359.3396371882086	56	127
358.03931972789115	359.3396371882086	58	127
358.03931972789115	359.3396371882086	62	127
358.03931972789115	359.3396371882086	34	127
358.03931972789115	359.3396371882086	46	127
359.3860770975057	360.7328344671202	56	127
359.3860770975057	360.7328344671202	58	127
359.3860770975057	360.7328344671202	46	127
359.3860770975057	360.7328344671202	34	127
359.3860770975057	360.7328344671202	62	127
359.3860770975057	360.7328344671202	53	127
360.75603174603174	362.38145124716556	62	127
360.75603174603174	362.38145124716556	34	127
360.75603174603174	362.38145124716556	53	127
360.75603174603174	362.38145124716556	56	127
360.75603174603174	362.38145124716556	58	127
360.75603174603174	362.38145124716556	46	127
362.40467120181404	365.34199546485263	58	127
362.40467120181404	365.34199546485263	50	127
362.40467120181404	365.34199546485263	56	127
362.40467120181404	365.34199546485263	34	127
362.40467120181404	365.34199546485263	46	127
365.36519274376417	367.4550113378685	58	127
365.36519274376417	366.32884353741497	39	127
365.36519274376417	367.4550113378685	55	127
366.34045351473924	366.7351927437642	46	127
366.7584126984127	367.1299319727891	51	127
367.1415419501134	367.4550113378685	46	127
367.46662131519275	368.7088888888889	58	127
367.46662131519275	367.7684807256236	50	127
367.46662131519275	368.7088888888889	53	127
367.46662131519275	368.7088888888889	56	127
367.7684807256236	368.0703401360544	46	127
368.0703401360544	368.3954195011338	38	127
368.3954195011338	368.7088888888889	46	127
368.7088888888889	369.6144671201814	58	127
368.7088888888889	369.0339455782313	39	127
368.7088888888889	369.6144671201814	55	127
369.0339455782313	369.3358276643991	46	127
369.3358276643991	369.6144671201814	51	127
369.6260770975057	369.9395464852608	55	127
369.6260770975057	369.9395464852608	58	127
369.6260770975057	369.9395464852608	46	127
369.95115646258506	370.19496598639455	63	127
369.95115646258506	370.19496598639455	58	127
369.95115646258506	370.19496598639455	34	127
370.2065759637188	370.46199546485263	58	127
370.2065759637188	370.46199546485263	62	127
370.2065759637188	370.46199546485263	46	127
370.4735827664399	370.7522448979592	58	127
370.4735827664399	370.7522448979592	63	127
370.4735827664399	370.7522448979592	45	127
370.76385487528347	371.0773242630386	44	127
370.76385487528347	371.0773242630386	58	127
370.76385487528347	371.0773242630386	62	127
370.76385487528347	371.0773242630386	65	127
371.08891156462585	371.3559637188209	58	127
371.08891156462585	371.3559637188209	43	127
371.3559637188209	371.6229931972789	56	127
371.3559637188209	371.6229931972789	41	127
371.63460317460317	371.8784126984127	55	127
371.63460317460317	371.8784126984127	39	127
371.8784126984127	372.18027210884355	43	127
371.8784126984127	372.18027210884355	58	127
372.1918820861678	372.49374149659866	60	127
372.1918820861678	372.49374149659866	44	127
372.50535147392293	372.80721088435376	43	127
372.50535147392293	372.80721088435376	59	127
372.80721088435376	373.12068027210887	60	127
372.80721088435376	373.12068027210887	44	127
373.13226757369614	373.45736961451246	60	127
373.13226757369614	373.45736961451246	63	127
373.13226757369614	373.45736961451246	45	127
373.45736961451246	373.86371882086166	58	127
373.45736961451246	373.86371882086166	62	127
373.45736961451246	373.86371882086166	46	127
373.87532879818593	374.3281179138322	53	127
373.87532879818593	374.3281179138322	58	127
373.87532879818593	374.3281179138322	50	127
374.3397278911565	375.9186848072562	53	127
374.3397278911565	375.9186848072562	58	127
374.3397278911565	375.9186848072562	50	127
376.67333333333335	377.0332426303855	69	127
376.67333333333335	377.0332426303855	73	127
376.67333333333335	377.0332426303855	64	127
376.67333333333335	377.0332426303855	67	127
377.04485260770974	377.4744217687075	76	127
377.04485260770974	377.4744217687075	79	127
377.04485260770974	377.4744217687075	61	127
377.04485260770974	377.4744217687075	64	127
377.4744217687075	377.81111111111113	76	127
377.4744217687075	377.81111111111113	79	127
377.4744217687075	377.81111111111113	61	127
377.4744217687075	377.81111111111113	64	127
378.17102040816326	378.554126984127	66	127
378.17102040816326	378.554126984127	57	127
378.17102040816326	378.554126984127	60	127
378.554126984127	378.99532879818594	69	127
378.554126984127	378.99532879818594	72	127
378.554126984127	378.99532879818594	54	127
378.554126984127	378.99532879818594	57	127
379.0185487528345	379.5409977324263	72	127
379.0185487528345	379.5409977324263	69	127
379.0185487528345	379.5409977324263	54	127
379.0185487528345	379.5409977324263	57	127
379.97056689342406	380.46979591836737	78	127
379.97056689342406	380.46979591836737	72	127
379.97056689342406	380.46979591836737	69	127
380.46979591836737	381.1083446712018	81	127
380.46979591836737	381.1083446712018	84	127
380.46979591836737	381.1083446712018	66	127
380.46979591836737	381.1083446712018	69	127
381.11995464852606	383.10526077097506	84	127
381.11995464852606	383.10526077097506	74	127
381.11995464852606	383.10526077097506	81	127
381.11995464852606	383.10526077097506	66	127
381.11995464852606	383.10526077097506	69	127
383.5348299319728	383.6857596371882	75	127
383.5348299319728	383.83668934240364	50	127
383.5348299319728	383.83668934240364	62	127
383.6857596371882	383.83668934240364	77	127
383.8482993197279	383.97600907029477	79	127
383.8482993197279	384.08049886621313	55	127
383.98761904761903	384.08049886621313	78	127
384.1037188208617	384.1849886621315	79	127
384.1037188208617	384.30108843537414	50	127
384.1849886621315	384.30108843537414	81	127
384.3126984126984	384.5332879818594	47	127
384.3126984126984	384.39396825396824	83	127
384.4055782312925	384.5332879818594	81	127
384.5448979591837	384.6609977324263	84	127
384.5448979591837	384.7887074829932	43	127
384.6726077097506	384.7887074829932	83	127
384.80031746031744	384.98607709750564	42	127
384.80031746031744	384.8583673469388	81	127
384.86997732426306	384.98607709750564	80	127
384.9976870748299	385.18344671201817	54	127
384.9976870748299	385.06734693877553	81	127
385.06734693877553	385.18344671201817	83	127
385.1950566893424	385.3227664399093	84	127
385.1950566893424	385.4504761904762	50	127
385.3227664399093	385.4504761904762	83	127
385.4504761904762	385.6710657596372	42	127
385.4504761904762	385.55496598639456	86	127
385.55496598639456	385.6710657596372	84	127
385.6710657596372	385.78716553287984	83	127
385.6710657596372	385.88004535147394	43	127
385.78716553287984	385.88004535147394	78	127
385.88004535147394	386.03097505668933	79	127
385.88004535147394	386.0890249433107	55	127
386.03097505668933	386.0890249433107	81	127
386.0890249433107	386.2631746031746	50	127
386.0890249433107	386.19351473922904	83	127
386.19351473922904	386.2631746031746	79	127
386.2631746031746	386.4024943310658	84	127
386.2631746031746	386.51859410430836	43	127
386.4024943310658	386.51859410430836	83	127
386.51859410430836	386.73918367346937	42	127
386.51859410430836	386.634693877551	81	127
386.634693877551	386.73918367346937	79	127
386.73918367346937	386.855283446712	78	127
386.73918367346937	386.9829931972789	50	127
386.8668934240363	386.9829931972789	76	127
386.9946031746032	387.075873015873	74	127
386.9946031746032	387.1803628117914	52	127
387.0874829931973	387.1803628117914	72	127
387.19197278911565	387.41256235827666	54	127
387.19197278911565	387.296462585034	71	127
387.3080725623583	387.41256235827666	69	127
387.41256235827666	387.42417233560093	67	127
387.41256235827666	387.5518820861678	55	127
387.4357823129252	387.5518820861678	66	127
387.56349206349205	387.6795918367347	67	127
387.56349206349205	387.81891156462586	50	127
387.69120181405896	387.81891156462586	69	127
387.83052154195013	387.9930612244898	47	127
387.83052154195013	387.8885714285714	71	127
387.8885714285714	387.9930612244898	69	127
388.00467120181406	388.1207709750567	72	127
388.00467120181406	388.2600907029478	43	127
388.13238095238097	388.2600907029478	71	127
388.2600907029478	388.37619047619046	76	127
388.2600907029478	388.4922902494331	48	127
388.37619047619046	388.4922902494331	75	127
388.4922902494331	388.7128798185941	36	127
388.4922902494331	388.60839002267574	78	127
388.60839002267574	388.7128798185941	76	127
388.7128798185941	388.78253968253966	79	127
388.7128798185941	388.92185941043084	37	127
388.78253968253966	388.92185941043084	78	127
388.92185941043084	389.09600907029477	49	127
388.92185941043084	389.0263492063492	81	127
389.0263492063492	389.09600907029477	79	127
389.09600907029477	389.10761904761904	74	127
389.09600907029477	389.1772789115646	50	127
389.10761904761904	389.1772789115646	73	127
389.1772789115646	389.4326984126984	38	127
389.1772789115646	389.3165986394558	76	127
389.3165986394558	389.4326984126984	74	127
389.4326984126984	389.5604081632653	86	127
389.4326984126984	389.6881179138322	50	127
389.5720181405896	389.6881179138322	85	127
389.69972789115644	389.8042176870748	88	127
389.69972789115644	389.9319274376417	38	127
389.8158276643991	389.9319274376417	86	127
389.943537414966	390.210566893424	43	127
389.943537414966	390.210566893424	83	127
390.82589569160996	391.0813151927438	71	127
390.82589569160996	391.0813151927438	55	127
391.09292517006804	391.3019047619048	67	127
391.09292517006804	391.3019047619048	50	127
391.3019047619048	391.53410430839	62	127
391.3019047619048	391.53410430839	47	127
391.53410430839	391.7663038548753	59	127
391.53410430839	391.7663038548753	43	127
391.7663038548753	391.9868934240363	57	127
391.7663038548753	391.9868934240363	42	127
391.9868934240363	392.2074829931973	69	127
391.9868934240363	392.2074829931973	54	127
392.2074829931973	392.4745124716553	66	127
392.2074829931973	392.4745124716553	50	127
392.4745124716553	392.7067120181406	57	127
392.4745124716553	392.7067120181406	42	127
392.71832199546486	392.91569160997733	59	127
392.71832199546486	392.91569160997733	43	127
392.9273015873016	393.13628117913834	71	127
392.9273015873016	393.13628117913834	55	127
393.1478911564626	393.3800907029478	67	127
393.1478911564626	393.3800907029478	50	127
393.3917006802721	393.6122902494331	59	127
393.3917006802721	393.6122902494331	43	127
393.62390022675737	393.8444897959184	57	127
393.62390022675737	393.8444897959184	42	127
393.85609977324265	394.07668934240365	66	127
393.85609977324265	394.07668934240365	50	127
394.08829931972787	394.32049886621314	67	127
394.08829931972787	394.32049886621314	52	127
394.32049886621314	394.5643083900227	69	127
394.32049886621314	394.5643083900227	54	127
394.5643083900227	394.7848979591837	71	127
394.5643083900227	394.7848979591837	55	127
394.7848979591837	394.99387755102043	67	127
394.7848979591837	394.99387755102043	50	127
394.99387755102043	395.2144671201814	62	127
394.99387755102043	395.2144671201814	47	127
395.2144671201814	395.4698866213152	59	127
395.2144671201814	395.4698866213152	43	127
395.4698866213152	395.66725623582767	76	127
395.4698866213152	395.66725623582767	48	127
395.66725623582767	395.8878458049887	64	127
395.66725623582767	395.8878458049887	36	127
395.89945578231294	396.14326530612243	57	127
395.89945578231294	396.14326530612243	67	127
395.89945578231294	396.14326530612243	37	127
396.1548752834467	396.36385487528344	57	127
396.1548752834467	396.36385487528344	67	127
396.1548752834467	396.36385487528344	49	127
396.3754648526077	396.58444444444444	57	127
396.3754648526077	396.58444444444444	67	127
396.3754648526077	396.58444444444444	50	127
396.58444444444444	396.85147392290247	67	127
396.58444444444444	396.85147392290247	57	127
396.58444444444444	396.85147392290247	38	127
396.86308390022674	396.94435374149657	57	127
396.86308390022674	396.94435374149657	66	127
396.86308390022674	396.94435374149657	50	127
396.95596371882084	397.1881632653061	57	127
396.95596371882084	397.1881632653061	66	127
396.95596371882084	397.1881632653061	38	127
397.1997732426304	397.44358276643993	59	127
397.1997732426304	397.44358276643993	67	127
397.1997732426304	397.44358276643993	43	127
397.44358276643993	397.58290249433105	71	127
397.44358276643993	397.7338321995465	43	127
397.44358276643993	397.7338321995465	55	127
397.58290249433105	397.7338321995465	70	127
397.7338321995465	397.93120181405897	53	127
397.7338321995465	397.8267120181406	71	127
397.7338321995465	397.93120181405897	41	127
397.8267120181406	397.93120181405897	73	127
397.93120181405897	398.0473015873016	71	127
397.93120181405897	398.1866213151927	41	127
397.93120181405897	398.1866213151927	53	127
398.0473015873016	398.1866213151927	73	127
398.1866213151927	398.31433106575963	70	127
398.1866213151927	398.4536507936508	42	127
398.1866213151927	398.4536507936508	54	127
398.31433106575963	398.4536507936508	71	127
398.4536507936508	398.58136054421766	73	127
398.4536507936508	398.70907029478457	49	127
398.58136054421766	398.70907029478457	71	127
398.70907029478457	398.8367800453515	73	127
398.70907029478457	398.9528798185941	46	127
398.8367800453515	398.9644897959184	75	127
398.9644897959184	399.1734693877551	42	127
398.9644897959184	399.080589569161	76	127
399.080589569161	399.1850793650794	73	127
399.1850793650794	399.28956916099776	71	127
399.1850793650794	399.4288888888889	54	127
399.28956916099776	399.44049886621315	73	127
399.44049886621315	399.6146485260771	51	127
399.44049886621315	399.53337868480725	75	127
399.53337868480725	399.62625850340135	73	127
399.62625850340135	399.75396825396825	75	127
399.62625850340135	399.84684807256235	47	127
399.75396825396825	399.8584580498866	76	127
399.8584580498866	399.9513378684807	78	127
399.8584580498866	400.0790476190476	42	127
399.9513378684807	400.0906575963719	71	127
400.0906575963719	400.21836734693875	70	127
400.0906575963719	400.3112471655329	54	127
400.21836734693875	400.3228571428571	71	127
400.3228571428571	400.4621768707483	73	127
400.3228571428571	400.57827664399093	49	127
400.4621768707483	400.57827664399093	71	127
400.57827664399093	400.6827664399093	73	127
400.57827664399093	400.78725623582767	46	127
400.6827664399093	400.78725623582767	75	127
400.78725623582767	400.89174603174604	76	127
400.78725623582767	401.0310657596372	42	127
400.89174603174604	401.0310657596372	70	127
401.0310657596372	401.1471655328798	71	127
401.0310657596372	401.2400453514739	54	127
401.1471655328798	401.2400453514739	73	127
401.2400453514739	401.35614512471653	75	127
401.2400453514739	401.4722448979592	51	127
401.35614512471653	401.4722448979592	76	127
401.4722448979592	401.553514739229	78	127
401.4722448979592	401.66961451247164	47	127
401.553514739229	401.66961451247164	71	127
401.66961451247164	401.7857142857143	73	127
401.66961451247164	401.9134240362812	42	127
401.7857142857143	401.9134240362812	74	127
401.9134240362812	402.01791383219955	71	127
401.9134240362812	402.14562358276646	55	127
402.01791383219955	402.15723356009073	72	127
402.15723356009073	402.2849433106576	74	127
402.15723356009073	402.3662131519274	50	127
402.2849433106576	402.3778231292517	76	127
402.3778231292517	402.48231292517005	77	127
402.3778231292517	402.61002267573696	47	127
402.48231292517005	402.6216326530612	79	127
402.6216326530612	402.73773242630386	81	127
402.6216326530612	402.84222222222223	43	127
402.73773242630386	402.8538321995465	83	127
402.8538321995465	402.98154195011335	84	127
402.8538321995465	403.0860317460317	48	127
402.98154195011335	403.097641723356	83	127
403.097641723356	403.21374149659863	84	127
403.097641723356	403.29501133786846	43	127
403.21374149659863	403.30662131519273	86	127
403.30662131519273	403.4459410430839	87	127
403.30662131519273	403.56204081632654	40	127
403.4459410430839	403.5736507936508	88	127
403.5736507936508	403.68975056689345	75	127
403.5736507936508	403.759410430839	36	127
403.68975056689345	403.759410430839	76	127
403.759410430839	404.0496598639456	38	127
403.759410430839	403.89873015873013	69	127
403.89873015873013	404.0496598639456	68	127
404.0496598639456	404.15414965986395	71	127
404.0496598639456	404.2934693877551	50	127
404.15414965986395	404.2934693877551	69	127
404.2934693877551	404.37473922902495	74	127
404.2934693877551	404.4908390022676	50	127
404.37473922902495	404.4908390022676	73	127
404.4908390022676	404.60693877551023	76	127
404.4908390022676	404.68820861678006	38	127
404.60693877551023	404.68820861678006	74	127
404.68820861678006	404.93201814058955	71	127
404.68820861678006	404.93201814058955	43	127
404.93201814058955	405.129387755102	62	127
404.93201814058955	405.129387755102	43	127
404.93201814058955	405.129387755102	55	127
405.1409977324263	405.3964172335601	62	127
405.1409977324263	405.3964172335601	41	127
405.1409977324263	405.3964172335601	53	127
405.40802721088437	405.65183673469386	62	127
405.40802721088437	405.65183673469386	41	127
405.40802721088437	405.65183673469386	53	127
405.66344671201813	405.8608163265306	61	127
405.66344671201813	405.8608163265306	42	127
405.66344671201813	405.8608163265306	54	127
405.87242630385487	406.13945578231295	64	127
405.87242630385487	406.13945578231295	49	127
406.15106575963716	406.3136054421769	61	127
406.15106575963716	406.3136054421769	46	127
406.32521541950115	406.5922448979592	58	127
406.32521541950115	406.5922448979592	42	127
406.60385487528345	406.8012244897959	63	127
406.60385487528345	406.8012244897959	54	127
406.8012244897959	407.05664399092973	66	127
406.8012244897959	407.05664399092973	51	127
407.05664399092973	407.335283446712	63	127
407.05664399092973	407.335283446712	47	127
407.335283446712	407.6139229024943	59	127
407.335283446712	407.6139229024943	42	127
407.6139229024943	407.7996825396825	61	127
407.6139229024943	407.7996825396825	54	127
407.7996825396825	408.0783219954649	64	127
407.7996825396825	408.0783219954649	49	127
408.0783219954649	408.2524716553288	61	127
408.0783219954649	408.2524716553288	46	127
408.2524716553288	408.50789115646256	58	127
408.2524716553288	408.50789115646256	42	127
408.51950113378683	408.74009070294784	54	127
408.51950113378683	408.74009070294784	63	127
408.7517006802721	408.96068027210885	66	127
408.7517006802721	408.96068027210885	51	127
408.9722902494331	409.2044897959184	62	127
408.9722902494331	409.2044897959184	47	127
409.2160997732426	409.45990929705215	59	127
409.2160997732426	409.45990929705215	42	127
409.4715192743764	409.68049886621316	59	127
409.4715192743764	409.68049886621316	62	127
409.4715192743764	409.68049886621316	55	127
409.6921088435374	409.91269841269843	65	127
409.6921088435374	409.91269841269843	50	127
409.91269841269843	410.1565079365079	62	127
409.91269841269843	410.1565079365079	47	127
410.1565079365079	410.3770975056689	55	127
410.1565079365079	410.3770975056689	62	127
410.1565079365079	410.3770975056689	65	127
410.1565079365079	410.3770975056689	43	127
410.3770975056689	410.63251700680274	55	127
410.3770975056689	410.63251700680274	64	127
410.3770975056689	410.63251700680274	48	127
410.63251700680274	410.8414965986395	64	127
410.63251700680274	410.8414965986395	43	127
410.8414965986395	411.08530612244897	40	127
410.8414965986395	411.08530612244897	67	127
411.08530612244897	411.35233560090705	60	127
411.08530612244897	411.35233560090705	64	127
411.08530612244897	411.35233560090705	36	127
411.35233560090705	411.59614512471654	60	127
411.35233560090705	411.59614512471654	66	127
411.35233560090705	411.59614512471654	38	127
411.6077551020408	411.8631746031746	57	127
411.6077551020408	411.8631746031746	66	127
411.6077551020408	411.8631746031746	50	127
411.87478458049884	412.0257142857143	57	127
411.87478458049884	412.0257142857143	66	127
411.87478458049884	412.0257142857143	50	127
412.03732426303856	412.3043537414966	60	127
412.03732426303856	412.3043537414966	66	127
412.03732426303856	412.3043537414966	38	127
412.31596371882085	412.6178231292517	59	127
412.31596371882085	412.6178231292517	67	127
412.31596371882085	412.6178231292517	43	127
412.62943310657596	412.7803628117914	79	127
412.62943310657596	412.7803628117914	64	127
412.6526530612245	412.9196825396825	76	127
412.6526530612245	412.9196825396825	91	127
412.7919727891156	413.04739229024943	63	127
412.7919727891156	413.04739229024943	78	127
412.9312925170068	413.1518820861678	75	127
412.9312925170068	413.1518820861678	90	127
413.0590022675737	413.22154195011336	79	127
413.0590022675737	413.22154195011336	64	127
413.1518820861678	413.32603174603173	91	127
413.1518820861678	413.32603174603173	76	127
413.22154195011336	413.45374149659864	75	127
413.22154195011336	413.45374149659864	59	127
413.32603174603173	413.5698412698413	71	127
413.32603174603173	413.5698412698413	87	127
413.45374149659864	413.67433106575965	60	127
413.45374149659864	413.67433106575965	76	127
413.5698412698413	413.81365079365077	72	127
413.5698412698413	413.81365079365077	88	127
413.67433106575965	413.9413605442177	71	127
413.67433106575965	413.9413605442177	55	127
413.81365079365077	414.0574603174603	83	127
413.81365079365077	414.0574603174603	67	127
413.9413605442177	414.1967800453515	57	127
413.9413605442177	414.1967800453515	72	127
414.0574603174603	414.32448979591834	84	127
414.0574603174603	414.32448979591834	69	127
414.1967800453515	414.4289795918367	86	127
414.1967800453515	414.4289795918367	74	127
414.1967800453515	414.4289795918367	59	127
414.1967800453515	414.4289795918367	71	127
414.4289795918367	414.5915192743764	79	127
414.4289795918367	414.5915192743764	64	127
414.4754195011338	414.70761904761906	91	127
414.4754195011338	414.70761904761906	76	127
414.5915192743764	414.8237188208617	63	127
414.5915192743764	414.8237188208617	78	127
414.71922902494333	414.90498866213153	75	127
414.71922902494333	414.90498866213153	90	127
414.83532879818597	415.03269841269844	64	127
414.83532879818597	415.03269841269844	79	127
414.9165986394558	415.17201814058956	76	127
414.9165986394558	415.17201814058956	91	127
415.04430839002265	415.29972789115646	59	127
415.04430839002265	415.29972789115646	75	127
415.1836281179138	415.4274376417234	71	127
415.1836281179138	415.4274376417234	87	127
415.31133786848073	415.543537414966	60	127
415.31133786848073	415.543537414966	76	127
415.43904761904764	415.6480272108844	88	127
415.43904761904764	415.6480272108844	72	127
415.543537414966	415.76412698412696	71	127
415.543537414966	415.76412698412696	55	127
415.6596371882086	415.90344671201814	83	127
415.6596371882086	415.90344671201814	67	127
415.77573696145123	415.99632653061224	57	127
415.77573696145123	415.99632653061224	72	127
415.9150566893424	416.1356462585034	84	127
415.9150566893424	416.1356462585034	69	127
416.0079365079365	416.2633560090703	59	127
416.0079365079365	416.2633560090703	74	127
416.1472562358277	416.34462585034015	86	127
416.1472562358277	416.34462585034015	71	127
416.2633560090703	416.42589569161	77	127
416.2633560090703	416.42589569161	47	127
416.34462585034015	416.5419954648526	59	127
416.34462585034015	416.5419954648526	89	127
416.42589569161	416.65809523809526	76	127
416.42589569161	416.65809523809526	48	127
416.5419954648526	416.7625850340136	88	127
416.5419954648526	416.7625850340136	60	127
416.65809523809526	416.8902947845805	72	127
416.65809523809526	416.8902947845805	52	127
416.7625850340136	417.02961451247165	84	127
416.7625850340136	417.02961451247165	64	127
416.8902947845805	417.1457142857143	71	127
416.8902947845805	417.1457142857143	50	127
417.02961451247165	417.28503401360547	83	127
417.02961451247165	417.28503401360547	62	127
417.1457142857143	417.37791383219957	74	127
417.1457142857143	417.37791383219957	50	127
417.28503401360547	417.48240362811794	86	127
417.28503401360547	417.48240362811794	62	127
417.37791383219957	417.6101133786848	62	127
417.37791383219957	417.6101133786848	50	127
417.48240362811794	417.7378231292517	74	127
417.48240362811794	417.7378231292517	62	127
417.6101133786848	417.8190929705215	66	127
417.6101133786848	417.8190929705215	50	127
417.7378231292517	417.8190929705215	57	127
417.7378231292517	417.9584126984127	78	127
417.8307029478458	418.1093424036281	79	127
417.8307029478458	418.1093424036281	43	127
417.8307029478458	418.1093424036281	67	127
417.8307029478458	418.1093424036281	55	127
418.12095238095236	420.01337868480726	91	127
418.12095238095236	420.01337868480726	79	127
418.12095238095236	418.3763718820862	52	127
418.26027210884354	418.43442176870747	64	127
418.38798185941044	418.5505215419501	51	127
418.44603174603174	418.6550113378685	63	127
418.5621315192744	418.7827210884354	52	127
418.66662131519274	418.92204081632656	64	127
418.79433106575965	419.03814058956914	47	127
418.93365079365077	419.1542403628118	59	127
419.0497505668934	419.2471201814059	48	127
419.16585034013605	419.38643990929705	60	127
419.25873015873015	419.5025396825397	43	127
419.38643990929705	419.6418594104308	55	127
419.5025396825397	419.7463492063492	45	127
419.6418594104308	419.7463492063492	57	127
419.7463492063492	420.01337868480726	55	127
419.88566893424036	420.07142857142856	67	127
420.01337868480726	420.21074829931973	52	127
420.01337868480726	421.8593650793651	79	127
420.01337868480726	421.8593650793651	91	127
420.07142857142856	420.3152380952381	64	127
420.21074829931973	420.43133786848074	51	127
420.3152380952381	420.52421768707484	63	127
420.43133786848074	420.66353741496596	52	127
420.52421768707484	420.7796371882086	64	127
420.66353741496596	420.9073469387755	47	127
420.7796371882086	420.98861678004533	59	127
420.9073469387755	421.1279365079365	48	127
421.0002267573696	421.2672562358277	60	127
421.1395464852608	421.38335600907027	43	127
421.2788662131519	421.4994557823129	55	127
421.39496598639454	421.6039455782313	45	127
421.5110657596372	421.7200453514739	57	127
421.6039455782313	421.8593650793651	47	127
421.7200453514739	421.9986848072562	59	127
421.87097505668936	422.33537414965986	67	127
421.87097505668936	422.0799546485261	47	127
421.87097505668936	422.33537414965986	79	127
421.9986848072562	422.2308843537415	59	127
422.0799546485261	422.33537414965986	48	127
422.2308843537415	422.46308390022676	60	127
422.33537414965986	422.61401360544215	67	127
422.33537414965986	422.61401360544215	52	127
422.33537414965986	422.915873015873	79	127
422.46308390022676	422.7649433106576	64	127
422.61401360544215	422.915873015873	50	127
422.77655328798187	423.0435827664399	62	127
422.915873015873	423.1712925170068	67	127
422.915873015873	423.1712925170068	50	127
423.0435827664399	423.357052154195	59	127
423.1829024943311	423.55442176870747	66	127
423.1829024943311	423.55442176870747	50	127
423.3686621315193	423.9491609977324	60	127
423.56603174603174	424.19297052154195	60	127
423.56603174603174	424.19297052154195	50	127
423.9607709750567	424.19297052154195	57	127
424.5296598639456	424.901179138322	43	127
424.91278911564626	425.1798185941043	48	127
425.19142857142856	425.42362811791384	46	127
425.4352380952381	425.6674376417234	45	127
425.6790476190476	425.9692970521542	43	127
425.98090702947843	426.224716553288	45	127
426.23632653061225	426.6542857142857	50	127
426.6542857142857	426.92131519274375	47	127
426.92131519274375	427.153514739229	48	127
427.153514739229	427.39732426303857	46	127
427.39732426303857	427.6527437641723	45	127
427.6527437641723	427.8965532879819	49	127
427.90816326530614	428.14036281179136	50	127
428.15197278911563	428.46544217687074	48	127
428.477052154195	429.359410430839	47	127
428.7324716553288	428.8950113378685	50	127
428.90662131519275	429.15043083900224	55	127
429.1620408163265	429.359410430839	53	127
429.359410430839	429.62643990929706	52	127
429.359410430839	429.85863945578234	48	127
429.62643990929706	429.85863945578234	51	127
429.85863945578234	430.3346485260771	49	127
429.85863945578234	430.0676190476191	52	127
430.0676190476191	430.59006802721086	57	127
430.3346485260771	431.3679365079365	50	127
430.59006802721086	430.8338775510204	54	127
430.8338775510204	431.0892970521542	58	127
431.10090702947844	431.3679365079365	58	127
431.3795464852608	431.6233560090703	55	127
431.3795464852608	431.6233560090703	51	127
431.63496598639455	431.8787755102041	60	127
431.63496598639455	431.8787755102041	52	127
431.89038548752836	432.07614512471656	53	127
431.89038548752836	432.07614512471656	57	127
432.08775510204083	432.35478458049886	54	127
432.08775510204083	432.35478458049886	62	127
432.35478458049886	433.7828117913832	55	127
432.35478458049886	432.8772335600907	58	127
432.8772335600907	433.07460317460317	63	127
433.07460317460317	433.35324263038547	62	127
433.35324263038547	433.7828117913832	61	127
433.7828117913832	434.0150113378685	62	127
433.7828117913832	434.25882086167803	54	127
434.0150113378685	434.25882086167803	57	127
434.27043083900224	434.85092970521544	53	127
434.27043083900224	434.5490702947846	56	127
434.56068027210887	434.85092970521544	55	127
434.85092970521544	435.7681179138322	51	127
434.85092970521544	435.07151927437644	67	127
435.08312925170065	435.2688888888889	55	127
435.2688888888889	435.50108843537413	67	127
435.50108843537413	435.7681179138322	55	127
435.7681179138322	436.0467573696145	53	127
435.7681179138322	436.3253968253968	50	127
436.0467573696145	436.3253968253968	65	127
436.3253968253968	436.60403628117916	65	127
436.3253968253968	436.60403628117916	43	127
436.3253968253968	436.60403628117916	62	127
436.60403628117916	436.7665759637188	74	127
436.7781859410431	436.9871655328798	79	127
436.9987755102041	437.2425850340136	67	127
436.9987755102041	437.2425850340136	77	127
437.25419501133786	437.53283446712015	76	127
437.25419501133786	437.53283446712015	67	127
437.5444444444444	437.7418140589569	75	127
437.5444444444444	437.7418140589569	60	127
437.75342403628116	437.9507936507936	76	127
437.75342403628116	437.9507936507936	69	127
437.97401360544217	438.4616326530612	81	127
437.97401360544217	438.24104308390025	67	127
438.24104308390025	438.4616326530612	66	127
438.4616326530612	438.7518820861678	62	127
438.4616326530612	438.7518820861678	78	127
438.7518820861678	438.9144217687075	82	127
438.7518820861678	438.9144217687075	67	127
438.9144217687075	439.2162811791383	82	127
438.9144217687075	439.2162811791383	65	127
439.2162811791383	439.46009070294787	84	127
439.2162811791383	439.46009070294787	64	127
439.46009070294787	439.97092970521544	84	127
439.46009070294787	439.70390022675736	63	127
439.7155102040816	439.97092970521544	62	127
439.9825396825397	440.2727891156463	83	127
439.9825396825397	440.2727891156463	67	127
440.28439909297055	440.6675283446712	84	127
440.28439909297055	440.3540589569161	67	127
440.3656689342404	440.6675283446712	36	127
440.6791383219955	441.24802721088435	72	127
440.6791383219955	440.93455782312924	41	127
440.9461678004535	441.24802721088435	39	127
441.24802721088435	441.631156462585	77	127
441.24802721088435	441.364126984127	38	127
441.364126984127	441.631156462585	36	127
441.631156462585	441.90979591836737	38	127
441.631156462585	442.10716553287983	71	127
441.90979591836737	442.10716553287983	43	127
442.10716553287983	442.40902494331067	72	127
442.10716553287983	442.7108843537415	39	127
442.42063492063494	442.7108843537415	55	127
442.7224943310658	442.91986394557824	60	127
442.7224943310658	443.2101133786848	40	127
442.9314739229025	443.2101133786848	58	127
443.2217233560091	443.60485260770974	41	127
443.2217233560091	443.4887528344671	57	127
443.4887528344671	443.60485260770974	56	127
443.616462585034	443.9067120181406	57	127
443.616462585034	444.1156916099773	42	127
443.91832199546485	444.1156916099773	62	127
444.1156916099773	444.35950113378686	58	127
444.1156916099773	444.60331065759635	43	127
444.35950113378686	444.60331065759635	59	127
444.60331065759635	445.09092970521544	43	127
444.60331065759635	444.87034013605444	57	127
444.60331065759635	445.09092970521544	31	127
444.87034013605444	445.09092970521544	59	127
445.09092970521544	445.59015873015875	60	127
445.09092970521544	445.59015873015875	36	127
445.09092970521544	445.59015873015875	48	127
445.601768707483	446.1009977324263	48	127
445.601768707483	446.1009977324263	44	127
445.8455782312925	446.2983673469388	77	127
446.1126077097506	447.08784580498866	46	127
446.1126077097506	446.58861678004536	53	127
446.30997732426306	446.58861678004536	77	127
446.6002267573696	447.08784580498866	50	127
446.6002267573696	446.86725623582765	82	127
446.8788662131519	447.08784580498866	80	127
447.08784580498866	447.3897052154195	79	127
447.08784580498866	447.3897052154195	51	127
447.08784580498866	447.50580498866213	39	127
447.3897052154195	447.50580498866213	55	127
447.3897052154195	447.50580498866213	78	127
447.50580498866213	447.7960544217687	79	127
447.50580498866213	447.7960544217687	58	127
447.50580498866213	448.13274376417235	51	127
447.7960544217687	448.13274376417235	55	127
447.7960544217687	448.13274376417235	73	127
448.13274376417235	448.4346031746032	74	127
448.13274376417235	449.1195918367347	50	127
448.13274376417235	448.4346031746032	57	127
448.44621315192745	448.67841269841267	54	127
448.44621315192745	448.67841269841267	78	127
448.69002267573694	448.8409523809524	79	127
448.69002267573694	448.8409523809524	55	127
448.85256235827666	449.1195918367347	73	127
448.85256235827666	449.1195918367347	58	127
449.13120181405895	449.3750113378685	74	127
449.13120181405895	449.3750113378685	57	127
449.13120181405895	450.0948299319728	50	127
449.38662131519277	449.6536507936508	54	127
449.38662131519277	449.6536507936508	78	127
449.66526077097507	449.839410430839	55	127
449.66526077097507	449.839410430839	79	127
449.85102040816327	450.0948299319728	58	127
449.85102040816327	450.0948299319728	73	127
450.0948299319728	450.3850793650794	74	127
450.0948299319728	450.3850793650794	50	127
450.0948299319728	450.6056689342404	57	127
450.3850793650794	450.6056689342404	49	127
450.3850793650794	450.6056689342404	76	127
450.6056689342404	450.8494784580499	78	127
450.6056689342404	450.8494784580499	62	127
450.6056689342404	450.8494784580499	60	127
450.86108843537414	451.0932879818594	59	127
450.86108843537414	451.0932879818594	62	127
450.86108843537414	451.0932879818594	79	127
451.1048979591837	451.36031746031745	81	127
451.1048979591837	451.36031746031745	57	127
451.1048979591837	451.36031746031745	60	127
451.3719274376417	451.61573696145126	83	127
451.3719274376417	451.61573696145126	55	127
451.3719274376417	451.61573696145126	59	127
451.62734693877553	451.8479365079365	84	127
451.62734693877553	451.8479365079365	50	127
451.62734693877553	451.8479365079365	54	127
451.62734693877553	451.8479365079365	57	127
451.85954648526075	452.0685260770975	81	127
451.85954648526075	452.0685260770975	38	127
451.85954648526075	452.0685260770975	50	127
452.08013605442176	452.20784580498866	55	127
452.08013605442176	452.5677551020408	79	127
452.08013605442176	452.34716553287984	42	127
452.20784580498866	452.48648526077096	55	127
452.35877551020405	452.5677551020408	50	127
452.48648526077096	452.71868480725624	47	127
452.57936507936506	452.8347845804989	42	127
452.57936507936506	452.71868480725624	84	127
452.71868480725624	452.9508843537415	55	127
452.71868480725624	452.8347845804989	83	127
452.84639455782315	452.9508843537415	81	127
452.84639455782315	453.0553741496599	50	127
452.9624943310658	453.0553741496599	79	127
452.9624943310658	453.0553741496599	47	127
453.0553741496599	453.2875736961451	81	127
453.0553741496599	453.2875736961451	42	127
453.18308390022673	453.3804535147392	54	127
453.2875736961451	453.49655328798184	50	127
453.2875736961451	453.49655328798184	86	127
453.39206349206347	453.6126530612245	48	127
453.49655328798184	453.75197278911565	86	127
453.49655328798184	453.75197278911565	42	127
453.62426303854875	453.90290249433104	54	127
453.7635827664399	454.03061224489795	50	127
453.90290249433104	454.03061224489795	48	127
454.0422222222222	454.29764172335604	43	127
454.0422222222222	454.5530612244898	83	127
454.15832199546486	454.4137414965986	55	127
454.30925170068025	454.5530612244898	50	127
454.4137414965986	454.692380952381	47	127
454.5530612244898	454.84331065759636	43	127
454.5530612244898	454.692380952381	84	127
454.70399092970524	454.85492063492063	47	127
454.70399092970524	454.84331065759636	83	127
454.84331065759636	454.8665306122449	50	127
454.84331065759636	454.85492063492063	81	127
454.85492063492063	454.8665306122449	79	127
454.85492063492063	454.8665306122449	55	127
454.8665306122449	455.1451700680272	83	127
454.8665306122449	455.1451700680272	38	127
455.0174603174603	455.26126984126984	42	127
455.15678004535147	455.3773696145125	81	127
455.15678004535147	455.3773696145125	45	127
455.26126984126984	455.52829931972786	50	127
455.38897959183674	455.6560090702948	81	127
455.38897959183674	455.6560090702948	49	127
455.52829931972786	455.8069387755102	50	127
455.66761904761904	455.92303854875286	52	127
455.8069387755102	455.92303854875286	54	127
455.93464852607707	456.1900680272109	42	127
455.93464852607707	456.3990476190476	79	127
456.0507482993197	456.32938775510206	55	127
456.1900680272109	456.3990476190476	50	127
456.34099773242633	456.5383673469388	47	127
456.3990476190476	456.5383673469388	84	127
456.3990476190476	456.6892970521542	42	127
456.549977324263	456.79378684807256	55	127
456.549977324263	456.6892970521542	83	127
456.6892970521542	456.9098866213152	50	127
456.6892970521542	456.79378684807256	81	127
456.8053968253968	456.9098866213152	47	127
456.8053968253968	456.9098866213152	79	127
456.92149659863946	457.11886621315193	88	127
456.92149659863946	457.11886621315193	48	127
457.01437641723356	457.23496598639457	60	127
457.1304761904762	457.3742857142857	55	127
457.1304761904762	457.3742857142857	91	127
457.23496598639457	457.51360544217687	52	127
457.38589569160996	457.6413151927438	49	127
457.38589569160996	457.6413151927438	91	127
457.51360544217687	457.7341950113379	52	127
457.6413151927438	457.827074829932	55	127
457.74580498866214	457.827074829932	57	127
457.827074829932	458.10571428571427	50	127
457.827074829932	458.10571428571427	81	127
457.9780045351474	458.2218140589569	60	127
458.10571428571427	458.37274376417236	57	127
458.10571428571427	458.37274376417236	86	127
458.2334240362812	458.52367346938775	54	127
458.3843537414966	458.65138321995465	50	127
458.3843537414966	458.65138321995465	86	127
458.52367346938775	458.7210430839002	48	127
458.6629931972789	458.83714285714285	47	127
458.7210430839002	458.83714285714285	45	127
458.8487528344671	459.11578231292515	83	127
458.8487528344671	459.11578231292515	74	127
458.8487528344671	459.11578231292515	43	127
458.976462585034	459.24349206349206	55	127
459.1273922902494	459.64984126984126	62	127
459.1273922902494	459.38281179138323	43	127
459.2551020408163	459.49891156462587	55	127
459.38281179138323	459.64984126984126	42	127
459.51052154195014	459.75433106575963	54	127
459.64984126984126	459.8936507936508	41	127
459.64984126984126	459.8936507936508	62	127
459.64984126984126	459.8936507936508	71	127
459.7659410430839	459.8936507936508	53	127
459.8936507936508	460.0213605442177	61	127
459.8936507936508	460.1142403628118	70	127
459.8936507936508	460.2767800453515	42	127
459.8936507936508	460.2767800453515	54	127
460.0329705215419	460.1374603174603	61	127
460.1142403628118	460.2767800453515	64	127
460.1374603174603	460.4277097505669	66	127
460.28839002267574	460.84566893424034	52	127
460.28839002267574	460.84566893424034	42	127
460.28839002267574	460.5438095238095	54	127
460.28839002267574	460.84566893424034	49	127
460.4277097505669	460.7063492063492	61	127
460.55541950113377	460.84566893424034	64	127
460.7063492063492	460.84566893424034	66	127
460.84566893424034	461.41455782312926	42	127
460.84566893424034	461.13591836734696	54	127
460.84566893424034	461.41455782312926	47	127
460.84566893424034	461.41455782312926	51	127
460.9965986394558	461.2752380952381	59	127
461.13591836734696	461.41455782312926	63	127
461.28684807256235	461.5306575963719	66	127
461.41455782312926	461.669977324263	54	127
461.41455782312926	461.91378684807256	42	127
461.41455782312926	461.91378684807256	51	127
461.41455782312926	461.91378684807256	47	127
461.54226757369617	461.7976870748299	59	127
461.6815873015873	461.91378684807256	63	127
461.7976870748299	461.91378684807256	66	127
461.92539682539683	462.28530612244896	49	127
461.92539682539683	462.28530612244896	52	127
461.92539682539683	462.28530612244896	42	127
461.92539682539683	462.0879365079365	54	127
462.0298866213152	462.1575963718821	61	127
462.0879365079365	462.28530612244896	64	127
462.1575963718821	462.42462585034014	61	127
462.2969160997732	462.8541950113379	42	127
462.2969160997732	462.8541950113379	52	127
462.2969160997732	462.5639455782313	54	127
462.2969160997732	462.8541950113379	49	127
462.4362358276644	462.70326530612243	61	127
462.5639455782313	462.8541950113379	64	127
462.7148752834467	462.8541950113379	66	127
462.8541950113379	463.09800453514737	54	127
462.8541950113379	463.3534240362812	42	127
462.8541950113379	463.3534240362812	47	127
462.8541950113379	463.3534240362812	51	127
462.9702947845805	463.21410430839	59	127
463.09800453514737	463.3534240362812	63	127
463.2257142857143	463.49274376417236	66	127
463.36503401360545	463.8526530612245	47	127
463.36503401360545	463.58562358276646	54	127
463.36503401360545	463.8526530612245	50	127
463.36503401360545	463.8526530612245	42	127
463.49274376417236	463.7017233560091	59	127
463.59723356009073	463.8526530612245	62	127
463.7017233560091	463.8526530612245	66	127
463.86426303854876	464.31705215419504	43	127
463.86426303854876	464.0732426303855	53	127
463.86426303854876	464.31705215419504	50	127
463.86426303854876	464.31705215419504	47	127
463.9803628117914	464.1661224489796	59	127
464.0732426303855	464.31705215419504	62	127
464.17773242630386	464.4331519274376	65	127
464.31705215419504	464.8511111111111	43	127
464.31705215419504	464.58408163265307	55	127
464.31705215419504	464.8511111111111	50	127
464.31705215419504	464.8511111111111	54	127
464.4447619047619	464.72340136054424	59	127
464.58408163265307	464.8511111111111	62	127
464.73501133786846	464.8511111111111	67	127
464.86272108843536	465.3851700680272	48	127
464.86272108843536	465.3851700680272	52	127
464.86272108843536	465.12975056689345	55	127
464.978820861678	465.28068027210884	60	127
465.14136054421766	465.3851700680272	64	127
465.28068027210884	465.53609977324265	67	127
465.3967800453515	465.9308390022676	48	127
465.3967800453515	465.640589569161	55	127
465.3967800453515	465.9308390022676	36	127
465.53609977324265	465.7915192743764	60	127
465.65219954648524	465.9308390022676	64	127
465.8031292517007	465.9308390022676	67	127
465.9308390022676	466.40684807256235	50	127
465.9308390022676	466.1978684807256	54	127
465.9308390022676	466.40684807256235	38	127
466.0701587301587	466.34879818594106	60	127
466.2094784580499	466.40684807256235	62	127
466.34879818594106	466.54616780045353	66	127
466.40684807256235	466.9292970521542	38	127
466.40684807256235	466.68548752834465	54	127
466.40684807256235	466.9292970521542	50	127
466.5577777777778	466.8015873015873	60	127
466.68548752834465	466.9292970521542	62	127
466.8015873015873	466.9292970521542	66	127
466.94090702947847	467.48657596371885	31	127
466.94090702947847	467.48657596371885	43	127
466.94090702947847	467.1963265306122	55	127
467.0802267573696	467.3356462585034	59	127
467.2079365079365	467.48657596371885	62	127
467.3356462585034	467.63750566893424	67	127
467.48657596371885	468.1599546485261	43	127
467.48657596371885	467.81165532879817	71	127
467.48657596371885	468.1599546485261	31	127
467.6491156462585	467.98580498866215	74	127
467.81165532879817	468.1599546485261	79	127
467.9974149659864	468.1599546485261	83	127
468.1599546485261	468.35732426303855	86	127
468.1599546485261	468.35732426303855	43	127
468.22961451247164	468.4966439909297	84	127
468.22961451247164	468.4966439909297	45	127
468.3689342403628	468.6243537414966	83	127
468.3689342403628	468.6243537414966	47	127
468.508253968254	468.7520634920635	81	127
468.508253968254	468.7520634920635	48	127
468.63596371882085	468.8797732426304	79	127
468.63596371882085	468.8797732426304	50	127
468.76367346938775	468.9726530612245	77	127
468.76367346938775	468.9726530612245	52	127
468.8797732426304	469.11197278911567	76	127
468.8797732426304	469.11197278911567	53	127
468.9726530612245	469.2396825396825	74	127
468.9726530612245	469.2396825396825	55	127
469.11197278911567	469.3790022675737	72	127
469.11197278911567	469.3790022675737	36	127
469.2396825396825	469.48349206349206	71	127
469.2396825396825	469.48349206349206	38	127
469.3790022675737	469.611201814059	69	127
469.3790022675737	469.611201814059	40	127
469.48349206349206	469.7273015873016	67	127
469.48349206349206	469.7273015873016	41	127
469.611201814059	469.8201814058957	65	127
469.611201814059	469.8201814058957	43	127
469.7273015873016	469.94789115646256	64	127
469.7273015873016	469.94789115646256	45	127
469.8201814058957	470.08721088435374	62	127
469.8201814058957	470.08721088435374	47	127
469.94789115646256	470.2497505668934	60	127
469.94789115646256	470.2497505668934	48	127
470.08721088435374	470.3890702947846	57	127
470.08721088435374	470.3890702947846	50	127
470.2497505668934	470.5167800453515	59	127
470.2497505668934	470.5167800453515	48	127
470.3890702947846	470.6328798185941	60	127
470.3890702947846	470.6328798185941	47	127
470.52839002267575	470.77219954648524	62	127
470.52839002267575	470.77219954648524	45	127
470.6444897959184	470.8882993197279	64	127
470.6444897959184	470.8882993197279	43	127
470.7838095238095	471.0043990929705	66	127
470.7838095238095	471.0043990929705	42	127
470.8882993197279	471.1437188208617	67	127
470.8882993197279	471.1437188208617	40	127
471.0160090702948	471.2830385487528	69	127
471.0160090702948	471.2830385487528	38	127
471.15532879818596	471.4107482993197	71	127
471.15532879818596	471.4107482993197	43	127
471.2946485260771	471.5500680272109	72	127
471.2946485260771	471.5500680272109	42	127
471.422358276644	471.6777777777778	74	127
471.422358276644	471.6777777777778	40	127
471.56167800453517	471.8287074829932	76	127
471.56167800453517	471.8287074829932	38	127
471.689387755102	471.9680272108844	78	127
471.689387755102	471.9680272108844	36	127
471.84031746031746	472.1073469387755	79	127
471.84031746031746	472.1073469387755	35	127
471.97963718820864	472.24666666666667	81	127
471.97963718820864	472.24666666666667	33	127
472.11895691609976	472.38598639455785	83	127
472.11895691609976	472.38598639455785	31	127
472.24666666666667	472.47886621315195	89	127
472.24666666666667	472.47886621315195	43	127
472.38598639455785	472.5949659863946	88	127
472.38598639455785	472.5949659863946	45	127
472.47886621315195	472.7342857142857	86	127
472.47886621315195	472.7342857142857	47	127
472.5949659863946	472.8736054421769	84	127
472.5949659863946	472.8736054421769	48	127
472.7342857142857	473.012925170068	83	127
472.7342857142857	473.012925170068	50	127
472.8736054421769	473.11741496598637	81	127
472.8736054421769	473.11741496598637	52	127
473.012925170068	473.19868480725626	79	127
473.012925170068	473.19868480725626	53	127
473.11741496598637	473.3380045351474	77	127
473.11741496598637	473.3380045351474	55	127
473.19868480725626	473.4657142857143	76	127
473.19868480725626	473.4657142857143	36	127
473.3380045351474	473.5818140589569	74	127
473.3380045351474	473.5818140589569	38	127
473.4657142857143	473.674693877551	72	127
473.4657142857143	473.674693877551	40	127
473.5818140589569	473.8140136054422	71	127
473.5818140589569	473.8140136054422	41	127
473.674693877551	473.91850340136057	69	127
473.674693877551	473.91850340136057	43	127
473.8140136054422	473.9997732426304	67	127
473.8140136054422	473.9997732426304	45	127
473.9301133786848	474.1390929705215	65	127
473.9301133786848	474.1390929705215	47	127
474.01138321995467	474.2668027210884	64	127
474.01138321995467	474.2668027210884	48	127
474.1507029478458	474.39451247165533	50	127
474.1507029478458	474.39451247165533	66	127
474.2784126984127	474.5338321995465	67	127
474.2784126984127	474.5338321995465	48	127
474.4061224489796	474.67315192743763	69	127
474.4061224489796	474.67315192743763	47	127
474.5454421768707	474.8124716553288	71	127
474.5454421768707	474.8124716553288	45	127
474.6847619047619	474.92857142857144	72	127
474.6847619047619	474.92857142857144	43	127
474.8240816326531	475.0562811791383	74	127
474.8240816326531	475.0562811791383	42	127
474.9401814058957	475.1956009070295	76	127
474.9401814058957	475.1956009070295	40	127
475.06789115646257	475.33492063492065	78	127
475.06789115646257	475.33492063492065	38	127
475.20721088435374	475.47424036281177	79	127
475.20721088435374	475.47424036281177	43	127
478.8875736961451	479.1662131519274	50	127
478.8875736961451	479.1662131519274	62	127
478.8875736961451	479.1662131519274	69	127
478.8875736961451	479.1662131519274	38	127
479.1662131519274	479.46807256235826	62	127
479.1662131519274	479.46807256235826	43	127
479.1662131519274	479.46807256235826	55	127
479.31714285714287	479.60739229024944	71	127
479.46807256235826	479.7234920634921	72	127
479.60739229024944	479.8628117913832	69	127
479.7234920634921	479.96730158730156	71	127
479.8628117913832	480.09501133786847	74	127
479.96730158730156	480.2227210884354	76	127
480.09501133786847	480.29238095238094	73	127
480.2227210884354	480.42009070294785	74	127
480.29238095238094	480.5361904761905	79	127
480.42009070294785	480.6522902494331	81	127
480.5361904761905	480.7567800453515	78	127
480.6522902494331	480.8960997732426	79	127
480.76839002267576	481.04702947845806	83	127
480.9077097505669	481.19795918367345	84	127
481.04702947845806	481.3488888888889	82	127
481.2095691609977	481.4765986394558	83	127
481.3488888888889	481.6275283446712	86	127
481.4765986394558	481.76684807256237	88	127
481.6275283446712	481.91777777777776	85	127
481.76684807256237	482.09192743764174	86	127
482.09192743764174	482.3937868480726	91	127
482.40539682539685	482.765306122449	95	127
482.765306122449	483.24131519274374	98	127
483.7637641723356	484.4719727891156	59	127
483.7637641723356	484.4719727891156	65	127
483.7637641723356	484.4719727891156	43	127
483.7637641723356	484.4719727891156	55	127
484.4719727891156	485.5168707482993	54	127
484.4719727891156	485.5168707482993	58	127
484.4719727891156	485.5168707482993	66	127
484.4719727891156	485.5168707482993	42	127
485.5284807256236	487.0609977324263	42	127
485.5284807256236	487.0609977324263	61	127
485.5284807256236	487.0609977324263	64	127
485.5284807256236	487.0609977324263	54	127
487.07260770975057	488.08267573696145	42	127
487.07260770975057	488.08267573696145	54	127
487.07260770975057	488.08267573696145	59	127
487.07260770975057	488.08267573696145	63	127
488.0942857142857	489.2320634920635	42	127
488.0942857142857	489.2320634920635	59	127
488.0942857142857	489.2320634920635	63	127
488.0942857142857	489.2320634920635	54	127
489.2436734693878	490.53238095238095	61	127
489.2436734693878	490.0099319727891	70	127
489.2436734693878	490.53238095238095	54	127
489.2436734693878	490.53238095238095	64	127
490.0447619047619	490.30018140589567	71	127
490.31179138321994	490.53238095238095	73	127
490.53238095238095	491.56566893424036	64	127
490.53238095238095	490.75297052154195	71	127
490.53238095238095	491.56566893424036	54	127
490.53238095238095	491.56566893424036	61	127
490.7645804988662	490.98517006802723	70	127
490.9967800453515	491.28702947845807	68	127
491.29863945578234	491.56566893424036	66	127
491.57727891156463	492.65700680272107	63	127
491.57727891156463	492.16938775510204	66	127
491.57727891156463	492.65700680272107	54	127
491.57727891156463	492.65700680272107	59	127
492.1809977324263	492.65700680272107	71	127
492.6802267573696	493.8760544217687	54	127
492.6802267573696	493.3071655328798	71	127
492.6802267573696	493.8760544217687	62	127
492.6802267573696	493.8760544217687	59	127
493.88766439909296	494.8629024943311	59	127
493.88766439909296	494.8629024943311	62	127
493.88766439909296	494.8629024943311	65	127
493.88766439909296	494.8629024943311	55	127
494.87451247165535	495.9890702947846	53	127
494.87451247165535	495.9890702947846	50	127
494.87451247165535	495.9890702947846	55	127
494.87451247165535	495.9890702947846	62	127
494.87451247165535	495.9890702947846	65	127
494.87451247165535	495.9890702947846	43	127
496.02390022675735	497.0339682539682	55	127
496.02390022675735	497.0339682539682	60	127
496.02390022675735	497.0339682539682	52	127
496.02390022675735	497.0339682539682	64	127
496.02390022675735	497.0339682539682	48	127
497.0455782312925	498.1833560090703	48	127
497.0455782312925	498.1833560090703	64	127
497.0455782312925	498.1833560090703	72	127
497.0455782312925	498.1833560090703	52	127
498.19496598639455	499.3791836734694	50	127
498.19496598639455	499.3791836734694	54	127
498.19496598639455	498.7522448979592	69	127
498.7754648526077	499.3791836734694	74	127
499.3907936507936	500.45891156462585	57	127
499.3907936507936	499.936462585034	74	127
499.3907936507936	500.45891156462585	50	127
499.3907936507936	500.45891156462585	54	127
500.4705215419501	501.41092970521544	50	127
500.4705215419501	501.41092970521544	55	127
500.4705215419501	501.41092970521544	59	127
501.4225396825397	502.5138775510204	50	127
501.4225396825397	502.5138775510204	55	127
501.4225396825397	502.5138775510204	59	127
502.5254875283447	503.6168253968254	50	127
502.5254875283447	503.071156462585	69	127
502.5254875283447	503.6168253968254	54	127
502.5254875283447	503.6168253968254	57	127
503.0827664399093	503.6168253968254	74	127
503.62843537414966	504.7429931972789	57	127
503.62843537414966	504.17410430839004	74	127
503.62843537414966	504.7429931972789	50	127
503.62843537414966	504.7429931972789	54	127
504.7546031746032	505.6950113378685	50	127
504.7546031746032	505.6950113378685	55	127
504.7546031746032	505.6950113378685	59	127
505.70662131519276	506.7399092970522	50	127
505.70662131519276	506.7399092970522	55	127
505.70662131519276	506.7399092970522	59	127
506.7515192743764	507.8776870748299	57	127
506.7515192743764	507.27396825396823	69	127
506.7515192743764	507.8776870748299	50	127
506.7515192743764	507.8776870748299	54	127
507.2855782312925	507.8776870748299	74	127
507.90090702947845	509.0154648526077	57	127
507.90090702947845	509.0154648526077	50	127
507.90090702947845	509.0154648526077	54	127
509.02707482993196	510.3157823129252	55	127
509.02707482993196	509.60757369614515	71	127
509.02707482993196	510.3157823129252	59	127
509.02707482993196	510.3157823129252	50	127
509.61918367346937	510.3157823129252	74	127
510.3273922902494	511.8715192743764	55	127
510.3273922902494	511.8715192743764	50	127
510.3273922902494	511.8715192743764	59	127
511.88312925170067	512.0688888888889	69	127
511.88312925170067	512.2082086167801	57	127
511.88312925170067	512.2082086167801	50	127
511.88312925170067	512.2082086167801	54	127
512.0688888888889	512.2082086167801	74	127
512.2082086167801	512.335918367347	74	127
512.2082086167801	512.4520181405895	62	127
512.335918367347	512.4520181405895	78	127
512.4636281179138	512.7306575963719	43	127
512.4636281179138	512.5913378684808	71	127
512.5913378684808	512.7306575963719	74	127
512.7306575963719	512.8119274376418	74	127
512.7306575963719	512.8931972789115	55	127
512.8119274376418	512.8931972789115	79	127
512.9048072562358	513.0325170068028	74	127
512.9048072562358	513.1370068027211	38	127
513.0325170068028	513.1370068027211	78	127
513.1370068027211	513.2647165532879	78	127
513.1370068027211	513.3924263038549	50	127
513.2647165532879	513.3924263038549	81	127
513.4040362811792	513.6246258503402	43	127
513.4040362811792	513.485306122449	74	127
513.485306122449	513.6246258503402	79	127
513.6246258503402	513.8568027210885	55	127
513.6246258503402	513.752335600907	79	127
513.752335600907	513.8568027210885	83	127
513.8684126984127	513.9961451247166	78	127
513.8684126984127	514.1354648526077	50	127
513.9961451247166	514.1354648526077	81	127
514.1354648526077	514.3908843537415	62	127
514.1354648526077	514.2631519274377	81	127
514.2631519274377	514.3908843537415	86	127
514.4024943310658	514.5185941043084	79	127
514.4024943310658	514.6579138321996	43	127
514.5185941043084	514.6579138321996	83	127
514.6579138321996	514.7972335600907	83	127
514.6579138321996	514.9365532879818	55	127
514.7972335600907	514.9365532879818	86	127
514.9481632653061	515.0758730158731	81	127
514.9481632653061	515.2151927437642	38	127
515.0758730158731	515.2151927437642	86	127
515.2151927437642	515.6215419501134	50	127
515.2151927437642	515.3545124716553	86	127
515.3545124716553	515.6215419501134	90	127
515.6215419501134	516.0627210884354	86	127
515.6215419501134	516.0627210884354	91	127
515.6215419501134	516.0627210884354	31	127
515.6215419501134	516.0627210884354	43	127
515.6215419501134	516.0627210884354	79	127
515.6215419501134	516.0627210884354	83	127
